# This file uses centimeters as units for non-parametric coordinates.

v -224.940872 -80.861938 224.940872
v 224.940872 -80.861938 224.940872
v -224.940872 -12.816488 224.940872
v 224.940872 -1.180606 224.940872
v -224.940872 4.178564 -224.940872
v 224.940872 2.546525 -224.940872
v -224.940872 -80.861938 -224.940872
v 224.940872 -80.861938 -224.940872
v -128.477234 17.781864 224.940872
v -224.940872 17.781864 107.145645
v -187.129623 17.781864 215.826157
v -218.150146 17.781864 189.123962
v 224.940872 17.781864 201.779678
v 177.663788 17.781864 224.940872
v 193.799454 17.781864 -224.940872
v 224.940872 17.781864 -199.093750
v -186.643845 17.781864 -224.940872
v -224.940872 17.781864 -200.817871
v 55.343918 17.781864 224.940872
v 143.638672 17.781870 224.940872
v 109.690483 17.781860 211.221207
v 97.981499 2.416169 224.940872
v -38.945995 17.781864 -224.940872
v 32.864483 17.781864 -224.940872
v -16.753237 17.781860 -215.882324
v -15.712975 5.221064 -224.940872
vt 0.102612 0.230160
vt 0.102612 0.230160
vt 0.102612 0.230160
vt 0.102612 0.230160
vt 0.102612 0.230160
vt 0.102612 0.230160
vt 0.102612 0.230160
vt 0.102612 0.230160
vt 0.102612 0.230160
vt 0.102612 0.230160
vt 0.102612 0.230160
vt 0.102612 0.230160
vt 0.102612 0.230160
vt 0.102612 0.230160
vt 0.102612 0.230160
vt 0.102612 0.230160
vt 0.102612 0.230160
vt 0.102612 0.230160
vt 0.102612 0.230160
vt 0.102612 0.230160
vt 0.102612 0.230160
vt 0.102612 0.230160
vt 0.102612 0.230160
vt 0.102612 0.230160
vt 0.102612 0.230160
vt 0.102612 0.230160
vt 0.102612 0.230160
vt 0.102612 0.230160
vt 0.102612 0.230160
vt 0.102612 0.230160
vt 0.102612 0.230160
vt 0.102612 0.230160
vt 0.102612 0.230160
vt 0.102612 0.230160
vt 0.102612 0.230160
vt 0.102612 0.230160
vn -0.138215 0.435733 0.889401
vn -0.138215 0.435733 0.889401
vn -0.138215 0.435733 0.889401
vn 0.000000 -1.000000 0.000000
vn 0.000000 -1.000000 0.000000
vn 0.000000 -1.000000 0.000000
vn 0.000000 -1.000000 0.000000
vn 1.000000 0.000000 0.000000
vn 1.000000 0.000000 0.000000
vn 1.000000 0.000000 0.000000
vn 1.000000 0.000000 0.000000
vn 1.000000 0.000000 0.000000
vn 1.000000 0.000000 0.000000
vn 0.000000 1.000000 0.000000
vn 0.000000 1.000000 0.000000
vn 0.000000 1.000000 0.000000
vn 0.000000 1.000000 0.000000
vn -1.000000 0.000000 0.000000
vn -1.000000 0.000000 0.000000
vn -1.000000 0.000000 0.000000
vn -1.000000 0.000000 0.000000
vn -1.000000 0.000000 0.000000
vn -1.000000 0.000000 0.000000
vn 0.000000 0.000000 1.000000
vn 0.000000 0.000000 1.000000
vn 0.000000 0.000000 1.000000
vn -0.949776 0.302878 0.078675
vn -0.949776 0.302878 0.078675
vn -0.949776 0.302878 0.078675
vn -0.454000 0.718130 0.527422
vn -0.454000 0.718130 0.527422
vn -0.454000 0.718130 0.527422
vn 0.296401 0.738984 0.605020
vn 0.296401 0.738984 0.605020
vn 0.296401 0.738984 0.605020
vn 0.388378 0.793854 -0.467930
vn 0.388378 0.793854 -0.467930
vn 0.388378 0.793854 -0.467930
vn 0.000000 0.000000 -1.000000
vn 0.000000 0.000000 -1.000000
vn 0.000000 0.000000 -1.000000
vn -0.295577 0.832129 -0.469249
vn -0.295577 0.832129 -0.469249
vn -0.295577 0.832129 -0.469249
vn 0.202481 0.561856 0.802072
vn 0.202481 0.561856 0.802072
vn 0.202482 0.561856 0.802072
vn -0.250377 0.743965 0.619538
vn -0.250377 0.743965 0.619538
vn -0.250377 0.743965 0.619538
vn -0.147508 0.570469 -0.807965
vn -0.147508 0.570469 -0.807965
vn -0.147508 0.570469 -0.807965
vn 0.309741 0.572908 -0.758839
vn 0.309741 0.572909 -0.758839
vn 0.309741 0.572909 -0.758839
vn -0.000000 1.000000 -0.000000
vn -0.000000 1.000000 -0.000000
vn -0.000000 1.000000 -0.000000
vn -0.000000 1.000000 -0.000000
vn -0.000000 1.000000 -0.000000
vn 0.000000 1.000000 -0.000000
vn 0.000000 1.000000 -0.000000
vn 0.000000 1.000000 -0.000000
vn 0.000000 1.000000 -0.000000
vn 0.000000 1.000000 -0.000000
vn -0.000000 1.000000 0.000000
vn -0.000000 1.000000 0.000000
vn -0.000000 1.000000 0.000000
vn -0.000000 1.000000 0.000000
vn -0.000000 1.000000 0.000000
vn 0.000000 1.000000 0.000000
vn 0.000000 1.000000 0.000000
vn 0.000000 1.000000 0.000000
vn 0.000000 1.000000 0.000000
vn 0.000000 1.000000 0.000000
vn 0.000000 0.000000 -1.000000
vn 0.000000 0.000000 -1.000000
vn 0.000000 0.000000 -1.000000
vn 0.000000 0.000000 -1.000000
vn 0.000000 0.000000 -1.000000
vn 0.000000 0.000000 -1.000000
vn 0.000000 0.000000 -1.000000
vn 0.000000 0.000000 -1.000000
vn 0.000000 0.000000 -1.000000
vn 0.000000 0.000000 -1.000000
vn -0.000000 0.000000 1.000000
vn -0.000000 0.000000 1.000000
vn -0.000000 0.000000 1.000000
vn -0.000000 0.000000 1.000000
vn -0.000000 0.000000 1.000000
vn -0.000000 0.000000 1.000000
vn -0.000000 0.000000 1.000000
vn -0.000000 0.000000 1.000000
vn -0.000000 0.000000 1.000000
vn -0.000000 0.000000 1.000000
s off
f 3/3/1 9/15/2 11/18/3
f 7/7/4 8/8/5 2/10/6 1/9/7
f 2/2/8 8/11/9 6/12/10 16/25/11 13/21/12 4/4/13
f 10/17/14 12/19/15 11/18/16 9/15/17
f 7/13/18 1/1/19 3/3/20 10/16/21 18/27/22 5/14/23
f 1/1/24 2/2/25 22/32/26
f 3/3/27 12/19/28 10/17/29
f 3/3/30 11/18/31 12/19/32
f 13/20/33 14/22/34 4/4/35
f 15/23/36 16/24/37 6/6/38
f 7/7/39 26/36/40 8/8/41
f 18/28/42 17/26/43 5/5/44
f 22/32/45 21/31/46 19/29/47
f 20/30/48 21/31/49 22/32/50
f 26/36/51 25/35/52 24/34/53
f 23/33/54 25/35/55 26/36/56
f 16/24/57 21/31/58 20/30/59 14/22/60 13/20/61
f 10/17/62 9/15/63 19/29/64 21/31/65 25/35/66
f 25/35/67 21/31/68 16/24/69 15/23/70 24/34/71
f 10/17/72 25/35/73 23/33/74 17/26/75 18/28/76
f 5/5/77 17/26/78 23/33/79 26/36/80 7/7/81
f 8/8/82 26/36/83 24/34/84 15/23/85 6/6/86
f 22/32/87 2/2/88 4/4/89 14/22/90 20/30/91
f 1/1/92 22/32/93 19/29/94 9/15/95 3/3/96
