# This file uses centimeters as units for non-parametric coordinates.

v -5.843273 10.404938 -11.380077
v 5.843118 10.404938 -11.380077
v -5.843273 13.354477 -10.789144
v 5.843118 13.354477 -10.789144
v -6.667324 13.629929 -12.163827
v 6.667169 13.629929 -12.163827
v -6.667324 10.680359 -12.754763
v 6.667169 10.680359 -12.754763
v -0.000078 10.589401 -14.095152
v -0.000078 13.538940 -13.504216
v -0.000078 13.263519 -12.129534
v -0.000078 10.313980 -12.720468
v 10.813082 12.800110 12.139667
v -0.000000 16.803253 16.449396
v -0.000000 19.946350 -12.053448
v 11.778289 19.924133 -9.376779
v 12.767486 21.145538 0.970437
v 10.647202 22.121841 10.374836
v -0.000000 24.747864 -7.986371
v -0.000000 26.321548 3.611568
v 5.091824 24.917511 -5.825517
v 7.259271 25.326828 -0.608727
v 5.091770 25.925919 6.140083
v -0.000000 26.095566 8.300938
v 13.384484 11.579559 6.825774
v 13.727635 11.129059 -0.279691
v 13.642785 11.043137 -7.448461
v 12.348263 10.996475 -11.006181
v -10.813083 12.800110 12.139667
v -11.778288 19.924133 -9.376779
v -12.767500 21.145538 0.970437
v -10.647205 22.121841 10.374836
v -5.091715 24.917511 -5.825517
v -7.259276 25.326828 -0.608727
v -5.091715 25.925919 6.140083
v -13.384365 11.579559 6.825774
v -13.727635 11.100082 -0.279691
v -13.642782 11.043137 -7.448461
v -12.348261 10.996475 -11.006181
v -0.000000 17.194153 28.484404
v 10.436628 12.184357 23.075182
v -10.436627 12.184357 23.075182
v -0.000000 15.161819 28.484404
v 9.294460 10.638092 23.075201
v -9.294459 10.638092 23.075201
v -0.000000 14.052017 15.879578
v 10.436628 10.986923 11.486704
v -10.436627 10.986923 11.486704
v -7.327606 15.840836 26.685163
v -7.106472 13.849121 26.751921
v 7.165901 13.849121 26.751921
v 7.165901 15.881470 26.751921
v -0.000000 20.426086 0.608028
v 6.174131 10.465302 -13.575857
v -0.000000 16.455811 -13.508374
v -6.460801 10.507233 -13.427923
v 5.536752 16.651825 -12.359863
v -5.814143 16.527512 -12.256162
v 5.344048 9.747131 -10.153158
v -5.630718 9.789078 -10.005205
v 4.787596 15.933655 -8.937165
v -0.046162 15.737671 -10.085656
v -5.066165 15.809372 -8.833444
v -0.000000 22.894073 14.177913
v -7.569157 14.802185 13.432587
v 7.569157 14.802185 13.432587
vt 0.234069 0.272017
vt 0.234069 0.272017
vt 0.234069 0.272017
vt 0.234069 0.272017
vt 0.234069 0.272017
vt 0.234069 0.272017
vt 0.234069 0.272017
vt 0.234069 0.272017
vt 0.234069 0.272017
vt 0.234069 0.272017
vt 0.234069 0.272017
vt 0.234069 0.272017
vt 0.234069 0.272017
vt 0.234069 0.272017
vt 0.234069 0.272017
vt 0.234069 0.272017
vt 0.234069 0.272017
vt 0.234069 0.272017
vt 0.234069 0.272017
vt 0.234069 0.272017
vt 0.234069 0.272017
vt 0.234069 0.272017
vt 0.234069 0.272017
vt 0.234069 0.272017
vt 0.101449 0.379776
vt 0.234069 0.272017
vt 0.234069 0.272017
vt 0.234069 0.272017
vt 0.234069 0.272017
vt 0.234069 0.272017
vt 0.234069 0.272017
vt 0.234069 0.272017
vt 0.234069 0.272017
vt 0.234069 0.272017
vt 0.234069 0.272017
vt 0.234069 0.272017
vt 0.234069 0.272017
vt 0.234069 0.272017
vt 0.234069 0.272017
vt 0.234069 0.272017
vt 0.234069 0.272017
vt 0.234069 0.272017
vt 0.234069 0.272017
vt 0.234069 0.272017
vt 0.234069 0.272017
vt 0.234069 0.272017
vt 0.234069 0.272017
vt 0.234069 0.272017
vt 0.234069 0.272017
vt 0.234069 0.272017
vt 0.234069 0.272017
vt 0.234069 0.272017
vt 0.234069 0.272017
vt 0.234069 0.272017
vt 0.234069 0.272017
vt 0.234069 0.272017
vt 0.234069 0.272017
vt 0.234069 0.272017
vt 0.234069 0.272017
vt 0.234069 0.272017
vt 0.234069 0.272017
vt 0.234069 0.272017
vt 0.234069 0.272017
vt 0.234069 0.272017
vt 0.234069 0.272017
vt 0.234069 0.272017
vt 0.234069 0.272017
vt 0.234069 0.272017
vt 0.234069 0.272017
vt 0.234069 0.272017
vt 0.234069 0.272017
vt 0.234069 0.272017
vt 0.234069 0.272017
vt 0.101449 0.379776
vt 0.101449 0.379776
vt 0.101449 0.379776
vt 0.101449 0.379776
vt 0.101449 0.379776
vt 0.101449 0.379776
vt 0.101449 0.379776
vt 0.101449 0.379776
vt 0.101449 0.379776
vt 0.234069 0.272017
vt 0.234069 0.272017
vt 0.101449 0.379776
vt 0.101449 0.379776
vt 0.101449 0.379776
vt 0.234069 0.272017
vt 0.101449 0.379776
vt 0.234069 0.272017
vt 0.101449 0.379776
vn -0.216599 -0.191781 0.957238
vn -0.216599 -0.191781 0.957238
vn -0.216599 -0.191781 0.957238
vn -0.216599 -0.191781 0.957238
vn -0.053041 0.982075 0.180874
vn -0.053041 0.982075 0.180874
vn -0.053041 0.982075 0.180874
vn -0.053041 0.982075 0.180874
vn 0.190868 0.192832 -0.962489
vn 0.190868 0.192832 -0.962489
vn 0.190868 0.192832 -0.962489
vn 0.190868 0.192832 -0.962489
vn 0.053037 -0.982077 -0.180865
vn 0.053037 -0.982077 -0.180865
vn 0.053037 -0.982077 -0.180865
vn 0.053037 -0.982077 -0.180865
vn -0.190868 0.192832 -0.962489
vn -0.190868 0.192832 -0.962489
vn -0.190868 0.192832 -0.962489
vn -0.190868 0.192832 -0.962489
vn 0.053041 0.982075 0.180874
vn 0.053041 0.982075 0.180874
vn 0.053041 0.982075 0.180874
vn 0.053041 0.982075 0.180874
vn 0.216599 -0.191781 0.957238
vn 0.216599 -0.191781 0.957238
vn 0.216599 -0.191781 0.957238
vn 0.216599 -0.191781 0.957238
vn -0.053037 -0.982077 -0.180864
vn -0.053037 -0.982077 -0.180864
vn -0.053037 -0.982077 -0.180864
vn -0.053037 -0.982077 -0.180864
vn 0.948028 0.152059 0.279502
vn 0.948028 0.152059 0.279502
vn 0.948028 0.152059 0.279502
vn 0.948028 0.152059 0.279502
vn 0.024037 0.990633 -0.134416
vn 0.024037 0.990633 -0.134416
vn 0.024037 0.990633 -0.134416
vn 0.072999 0.991454 -0.108120
vn 0.072999 0.991454 -0.108120
vn 0.072999 0.991454 -0.108120
vn 0.104300 0.993043 -0.054655
vn 0.104300 0.993043 -0.054655
vn 0.104300 0.993043 -0.054655
vn 0.053629 0.997404 0.048066
vn 0.053629 0.997403 0.048066
vn 0.053629 0.997404 0.048066
vn 0.196097 0.681927 -0.704642
vn 0.196097 0.681927 -0.704642
vn 0.196097 0.681927 -0.704642
vn 0.196097 0.681927 -0.704642
vn 0.568439 0.798312 -0.198933
vn 0.568439 0.798312 -0.198933
vn 0.568439 0.798312 -0.198933
vn 0.568439 0.798312 -0.198933
vn 0.560092 0.825622 0.068152
vn 0.560092 0.825622 0.068152
vn 0.560092 0.825622 0.068152
vn 0.560092 0.825622 0.068152
vn 0.995033 0.090096 0.042342
vn 0.995033 0.090096 0.042342
vn 0.995033 0.090096 0.042342
vn 0.986865 0.144949 -0.071331
vn 0.986865 0.144949 -0.071331
vn 0.986865 0.144949 -0.071331
vn 0.986865 0.144949 -0.071331
vn 0.932224 0.121716 -0.340798
vn 0.932224 0.121716 -0.340798
vn 0.932224 0.121716 -0.340798
vn 0.193089 0.407517 -0.892551
vn 0.193089 0.407517 -0.892550
vn 0.193089 0.407517 -0.892550
vn 0.193089 0.407517 -0.892550
vn -0.948031 0.152050 0.279498
vn -0.948031 0.152050 0.279498
vn -0.948031 0.152050 0.279498
vn -0.948031 0.152050 0.279498
vn -0.024038 0.990633 -0.134416
vn -0.024038 0.990633 -0.134416
vn -0.024038 0.990633 -0.134416
vn -0.072998 0.991454 -0.108121
vn -0.072998 0.991454 -0.108121
vn -0.072998 0.991454 -0.108121
vn -0.104301 0.993043 -0.054653
vn -0.104301 0.993043 -0.054653
vn -0.104301 0.993043 -0.054653
vn -0.053630 0.997404 0.048065
vn -0.053630 0.997404 0.048065
vn -0.053630 0.997404 0.048065
vn -0.196098 0.681929 -0.704641
vn -0.196098 0.681929 -0.704641
vn -0.196098 0.681929 -0.704641
vn -0.196098 0.681929 -0.704641
vn -0.568435 0.798315 -0.198936
vn -0.568435 0.798314 -0.198936
vn -0.568435 0.798314 -0.198936
vn -0.568435 0.798315 -0.198936
vn -0.560090 0.825624 0.068154
vn -0.560089 0.825624 0.068154
vn -0.560090 0.825624 0.068154
vn -0.560090 0.825624 0.068154
vn -0.995066 0.089880 0.042007
vn -0.995066 0.089880 0.042007
vn -0.995066 0.089880 0.042007
vn -0.986913 0.144742 -0.071080
vn -0.986913 0.144742 -0.071080
vn -0.986913 0.144742 -0.071080
vn -0.986913 0.144742 -0.071080
vn -0.932224 0.121716 -0.340798
vn -0.932224 0.121716 -0.340798
vn -0.932224 0.121716 -0.340798
vn -0.199427 0.392390 -0.897919
vn -0.199427 0.392390 -0.897919
vn -0.199427 0.392390 -0.897919
vn -0.199427 0.392390 -0.897919
vn 0.202658 0.977788 -0.053474
vn 0.202658 0.977788 -0.053474
vn 0.202658 0.977788 -0.053474
vn 0.202658 0.977788 -0.053474
vn -0.666836 0.745194 0.004009
vn -0.666836 0.745194 0.004009
vn -0.666836 0.745194 0.004009
vn -0.666836 0.745194 0.004009
vn 0.234997 0.000000 0.971996
vn 0.234997 0.000000 0.971996
vn 0.234997 0.000000 0.971996
vn 0.234997 0.000000 0.971996
vn -0.238194 0.003023 0.971213
vn -0.238194 0.003023 0.971213
vn -0.238194 0.003023 0.971213
vn -0.238194 0.003023 0.971213
vn -0.878465 -0.467088 -0.100642
vn -0.878465 -0.467088 -0.100642
vn -0.878465 -0.467088 -0.100642
vn 0.871939 -0.479218 -0.100364
vn 0.871939 -0.479218 -0.100364
vn 0.871939 -0.479218 -0.100364
vn -0.907189 -0.418495 0.043243
vn -0.907189 -0.418495 0.043243
vn -0.907189 -0.418495 0.043243
vn -0.907189 -0.418495 0.043243
vn 0.907189 -0.418494 0.043243
vn 0.907189 -0.418495 0.043243
vn 0.907189 -0.418494 0.043243
vn 0.907189 -0.418494 0.043243
vn -0.814021 -0.338887 0.471727
vn -0.814021 -0.338887 0.471727
vn -0.814021 -0.338887 0.471727
vn 0.814012 -0.338888 0.471741
vn 0.814012 -0.338888 0.471741
vn 0.814012 -0.338888 0.471741
vn -0.662198 -0.241780 0.709250
vn -0.662198 -0.241780 0.709250
vn -0.662198 -0.241780 0.709250
vn -0.662198 -0.241780 0.709250
vn 0.678658 -0.216600 0.701789
vn 0.678658 -0.216600 0.701789
vn 0.678658 -0.216600 0.701789
vn 0.678658 -0.216600 0.701789
vn -0.201906 -0.972639 0.114924
vn -0.201906 -0.972639 0.114924
vn -0.201906 -0.972639 0.114924
vn -0.201906 -0.972639 0.114924
vn 0.202754 -0.972527 0.114377
vn 0.202754 -0.972527 0.114377
vn 0.202753 -0.972527 0.114377
vn 0.202754 -0.972527 0.114377
vn 0.397467 -0.846816 -0.353446
vn 0.397467 -0.846816 -0.353446
vn 0.397467 -0.846816 -0.353446
vn -0.397467 -0.846816 -0.353446
vn -0.397467 -0.846816 -0.353446
vn -0.397467 -0.846816 -0.353446
vn -0.160731 -0.981386 -0.105100
vn -0.160731 -0.981386 -0.105100
vn -0.160731 -0.981386 -0.105100
vn -0.160731 -0.981386 -0.105100
vn 0.561314 -0.827498 0.013217
vn 0.561314 -0.827498 0.013217
vn 0.561314 -0.827498 0.013217
vn 0.560441 -0.827694 0.028777
vn 0.560441 -0.827694 0.028777
vn 0.560441 -0.827694 0.028777
vn 0.394026 -0.846979 -0.356889
vn 0.394026 -0.846979 -0.356889
vn 0.394026 -0.846979 -0.356889
vn 0.162197 -0.981137 -0.105176
vn 0.162197 -0.981137 -0.105176
vn 0.162197 -0.981137 -0.105176
vn 0.162197 -0.981137 -0.105176
vn -0.394019 -0.846980 -0.356895
vn -0.394019 -0.846980 -0.356895
vn -0.394019 -0.846980 -0.356895
vn -0.559438 -0.828480 0.025510
vn -0.559438 -0.828480 0.025510
vn -0.559438 -0.828480 0.025510
vn -0.559940 -0.828368 0.016556
vn -0.559940 -0.828367 0.016556
vn -0.559940 -0.828368 0.016556
vn 0.267620 -0.208201 0.940761
vn 0.267620 -0.208201 0.940761
vn 0.267620 -0.208201 0.940761
vn 0.348233 0.200222 -0.915776
vn 0.348233 0.200221 -0.915776
vn 0.348233 0.200222 -0.915776
vn 0.348233 0.200222 -0.915776
vn -0.344694 0.199929 -0.917177
vn -0.344694 0.199929 -0.917177
vn -0.344694 0.199929 -0.917177
vn -0.344694 0.199929 -0.917177
vn 0.080299 -0.977362 -0.195741
vn 0.080299 -0.977362 -0.195741
vn 0.080299 -0.977362 -0.195741
vn 0.080299 -0.977363 -0.195741
vn -0.971058 -0.047694 -0.234032
vn -0.971059 -0.047694 -0.234032
vn -0.971058 -0.047694 -0.234032
vn -0.971058 -0.047694 -0.234032
vn 0.970684 -0.051969 -0.234673
vn 0.970684 -0.051969 -0.234673
vn 0.970684 -0.051969 -0.234673
vn 0.970684 -0.051969 -0.234673
vn -0.058992 -0.978184 -0.199190
vn -0.058992 -0.978184 -0.199190
vn -0.058992 -0.978184 -0.199190
vn -0.058992 -0.978184 -0.199190
vn -0.227999 0.854497 0.466745
vn -0.227999 0.854497 0.466745
vn -0.227999 0.854497 0.466745
vn -0.227999 0.854497 0.466745
vn -0.455141 0.173448 0.873363
vn -0.455141 0.173448 0.873363
vn -0.455141 0.173448 0.873363
vn 0.227999 0.854497 0.466745
vn 0.227999 0.854497 0.466745
vn 0.227999 0.854497 0.466745
vn 0.227999 0.854497 0.466745
vn 0.373288 0.267349 0.888359
vn 0.373288 0.267349 0.888359
vn 0.373288 0.267349 0.888359
vn 0.373288 0.267349 0.888359
vn -0.497317 -0.854057 0.152521
vn -0.497317 -0.854057 0.152521
vn -0.497317 -0.854057 0.152521
vn 0.015776 -0.915756 0.401425
vn 0.015776 -0.915756 0.401425
vn 0.015776 -0.915756 0.401425
vn 0.015776 -0.915756 0.401425
vn -0.273345 -0.209133 0.938907
vn -0.273345 -0.209133 0.938907
vn -0.273345 -0.209133 0.938907
vn 0.498652 -0.853743 0.149896
vn 0.498652 -0.853743 0.149896
vn 0.498652 -0.853743 0.149896
vn -0.202920 0.977742 -0.053335
vn -0.202920 0.977742 -0.053335
vn -0.202920 0.977742 -0.053335
vn -0.202920 0.977742 -0.053335
vn -0.373288 0.267349 0.888359
vn -0.373288 0.267349 0.888359
vn -0.373288 0.267349 0.888359
vn -0.373288 0.267349 0.888359
vn 0.661404 0.749998 0.006929
vn 0.661404 0.749998 0.006929
vn 0.661404 0.749998 0.006929
vn 0.661404 0.749998 0.006929
vn 0.455141 0.173448 0.873363
vn 0.455141 0.173448 0.873363
vn 0.455141 0.173448 0.873363
s off
f 11/13/1 12/14/2 2/2/3 4/4/4
f 10/12/5 11/13/6 4/4/7 6/6/8
f 9/11/9 10/12/10 6/6/11 8/8/12
f 12/15/13 9/11/14 8/8/15 2/10/16
f 5/5/17 10/12/18 9/11/19 7/7/20
f 3/3/21 11/13/22 10/12/23 5/5/24
f 1/1/25 12/14/26 11/13/27 3/3/28
f 7/7/29 9/11/30 12/15/31 1/9/32
f 25/16/33 17/17/34 18/18/35 13/19/36
f 19/20/37 20/21/38 21/22/39
f 21/22/40 20/21/41 22/23/42
f 22/23/43 20/21/44 23/24/45
f 23/25/46 20/80/47 24/81/48
f 15/26/49 19/20/50 21/22/51 16/27/52
f 17/17/53 16/27/54 21/22/55 22/23/56
f 17/17/57 22/23/58 23/24/59 18/18/60
f 26/28/61 17/17/62 25/16/63
f 27/29/64 16/27/65 17/17/66 26/28/67
f 28/30/68 16/27/69 27/29/70
f 16/27/71 57/31/72 55/32/73 15/26/74
f 32/33/75 31/34/76 36/35/77 29/36/78
f 19/20/79 33/37/80 20/21/81
f 33/37/82 34/38/83 20/21/84
f 34/38/85 35/39/86 20/21/87
f 35/82/88 24/81/89 20/80/90
f 15/26/91 30/40/92 33/37/93 19/20/94
f 33/37/95 30/40/96 31/34/97 34/38/98
f 31/34/99 32/33/100 35/39/101 34/38/102
f 37/41/103 36/35/104 31/34/105
f 31/34/106 30/40/107 38/42/108 37/41/109
f 39/43/110 38/42/111 30/40/112
f 15/26/113 55/32/114 58/44/115 30/40/116
f 52/48/117 66/90/118 14/46/119 40/47/120
f 29/50/121 42/51/122 49/49/123 65/88/124
f 51/52/125 52/48/126 40/47/127 43/56/128
f 40/47/129 49/49/130 50/67/131 43/56/132
f 44/68/133 51/52/134 47/69/135
f 48/70/136 50/67/137 45/71/138
f 48/70/139 45/71/140 42/51/141 29/50/142
f 44/53/143 47/57/144 13/83/145 41/84/146
f 29/36/147 36/35/148 48/55/149
f 25/16/150 13/19/151 47/54/152
f 50/67/153 49/49/154 42/51/155 45/71/156
f 41/72/157 52/48/158 51/52/159 44/68/160
f 47/69/161 51/52/162 43/56/163 46/73/164
f 43/56/165 50/67/166 48/70/167 46/73/168
f 48/55/169 53/59/170 46/58/171
f 53/59/172 47/54/173 46/58/174
f 60/60/175 38/42/176 39/43/177 56/61/178
f 38/42/179 53/59/180 37/41/181
f 37/41/182 53/59/183 36/35/184
f 36/35/185 53/59/186 48/55/187
f 59/62/188 54/63/189 28/30/190 27/29/191
f 53/59/192 25/16/193 47/54/194
f 26/28/195 25/16/196 53/59/197
f 26/28/198 53/59/199 27/29/200
f 63/66/201 38/42/202 60/60/203
f 28/30/204 54/63/205 57/31/206 16/27/207
f 30/40/208 58/44/209 56/61/210 39/43/211
f 55/32/212 57/31/213 61/65/214 62/64/215
f 57/31/216 54/63/217 59/62/218 61/65/219
f 56/61/220 58/44/221 63/66/222 60/60/223
f 58/44/224 55/32/225 62/64/226 63/66/227
f 35/74/228 32/75/229 64/76/230 24/77/231
f 29/78/232 65/89/233 32/75/234
f 23/85/235 24/77/236 64/76/237 18/86/238
f 66/91/239 18/86/240 64/76/241 14/79/242
f 53/59/243 61/65/244 27/29/245
f 53/59/246 63/66/247 62/64/248 61/65/249
f 27/29/250 61/65/251 59/62/252
f 53/59/253 38/42/254 63/66/255
f 14/46/256 65/88/257 49/49/258 40/47/259
f 32/75/260 65/89/261 14/79/262 64/76/263
f 13/45/264 66/90/265 52/48/266 41/72/267
f 13/87/268 18/86/269 66/91/270
