# This file uses centimeters as units for non-parametric coordinates.

v -8.433004 5.875061 13.423530
v -8.884582 11.318237 13.055807
v -8.884582 11.132111 11.688707
v -8.433004 5.688904 12.056431
v -5.076911 11.837051 13.467352
v -5.076911 11.650894 12.576733
v -5.281356 4.873352 13.974180
v -5.281356 4.687149 12.724079
v -9.318916 8.617905 13.086977
v -9.318916 8.431702 11.790556
v -0.545113 9.877960 14.202509
v -0.504871 9.691757 13.417098
v -1.460256 7.027877 13.476614
v -1.460256 7.214035 14.448033
v -1.225676 11.266144 14.031024
v -1.640180 10.915619 14.001860
v -5.060708 11.422684 13.497863
v -1.035731 9.815338 14.203693
v -1.848526 7.472214 14.366413
v -5.264544 5.341156 13.948318
v -8.054411 6.239868 13.461583
v -8.828300 8.574066 13.159622
v -8.485338 10.972383 13.068217
v -10.245516 11.922563 6.719618
v -11.619669 11.627502 7.106377
v -10.245516 10.144760 6.719618
v -11.619669 10.529068 7.106377
v -9.795028 10.837052 12.248237
v -9.795028 9.738617 12.263824
v -9.318916 9.354309 11.470301
v 8.433004 5.875061 13.423530
v 8.884582 11.318237 13.055807
v 8.884582 11.132111 11.688707
v 8.433004 5.688904 12.056431
v 5.076911 11.837051 13.467352
v 5.076911 11.650894 12.576733
v 5.281356 4.873352 13.974180
v 5.281356 4.687149 12.724079
v 9.318916 8.617905 13.086977
v 9.318916 8.431702 11.790556
v 0.545113 9.877960 14.202509
v 0.504871 9.691757 13.417098
v 1.460256 7.027877 13.476614
v 1.460256 7.214035 14.448033
v 1.225676 11.266144 14.031024
v 1.640180 10.915619 14.001860
v 5.060708 11.422684 13.497863
v 1.035730 9.815338 14.203693
v 1.848526 7.472214 14.366413
v 5.264544 5.341156 13.948318
v 8.054411 6.239868 13.461583
v 8.828300 8.574066 13.159622
v 8.485338 10.972383 13.068217
v 10.245516 11.922563 6.719618
v 11.619669 11.627502 7.106377
v 10.245516 10.144760 6.719618
v 11.619669 10.529068 7.106377
v 9.795028 10.837052 12.248237
v 9.795028 9.738617 12.263824
v 9.318916 9.354309 11.470301
v 1.185449 11.164443 13.286002
v -1.185449 11.164443 13.286002
v 0.504871 9.784851 14.007634
v -0.504871 9.784851 14.007634
v -0.759146 8.985687 14.052264
v -0.759146 8.892593 13.432699
v 0.759146 8.985687 14.052264
v 0.759146 8.892593 13.432699
v -1.188264 11.241653 13.856344
v 1.188263 11.241653 13.856344
v 0.711866 10.301102 13.916861
v 0.710552 10.233017 13.338440
v -0.711867 10.301102 13.916861
v -0.710553 10.233017 13.338439
v -10.630275 13.263717 -3.375867
v -10.630275 11.686004 -4.195267
v -12.248684 12.171021 -1.599381
v -12.248684 12.857879 -1.093107
v 10.630275 13.263717 -3.375867
v 12.248684 12.857879 -1.093107
v 12.248684 12.171021 -1.599381
v 10.630275 11.686004 -4.195267
vt 0.266454 0.178358
vt 0.266625 0.178385
vt 0.266319 0.178609
vt 0.266460 0.178651
vt 0.266451 0.178648
vt 0.266311 0.178606
vt 0.266462 0.178362
vt 0.266663 0.178427
vt 0.266621 0.178611
vt 0.266273 0.178488
vt 0.266321 0.178367
vt 0.266313 0.178364
vt 0.266655 0.178423
vt 0.266615 0.178608
vt 0.266264 0.178484
vt 0.080247 0.230989
vt 0.080247 0.230989
vt 0.080247 0.230989
vt 0.080247 0.230989
vt 0.080247 0.230989
vt 0.080247 0.230989
vt 0.080247 0.230989
vt 0.080247 0.230989
vt 0.266455 0.178375
vt 0.266606 0.178398
vt 0.266633 0.178432
vt 0.266595 0.178596
vt 0.266452 0.178632
vt 0.266328 0.178594
vt 0.266286 0.178486
vt 0.266330 0.178379
vt 0.266352 0.178682
vt 0.266282 0.178647
vt 0.266282 0.178682
vt 0.266352 0.178612
vt 0.266352 0.178541
vt 0.266282 0.178541
vt 0.266282 0.178612
vt 0.266352 0.178470
vt 0.266282 0.178470
vt 0.266282 0.178506
vt 0.266246 0.178682
vt 0.266211 0.178682
vt 0.266211 0.178753
vt 0.266246 0.178753
vt 0.266423 0.178753
vt 0.266423 0.178682
vt 0.266388 0.178753
vt 0.266282 0.178753
vt 0.266352 0.178506
vt 0.266352 0.178753
vt 0.266625 0.178385
vt 0.266454 0.178358
vt 0.266319 0.178609
vt 0.266311 0.178606
vt 0.266451 0.178648
vt 0.266460 0.178651
vt 0.266462 0.178362
vt 0.266663 0.178427
vt 0.266621 0.178611
vt 0.266273 0.178488
vt 0.266321 0.178367
vt 0.266313 0.178364
vt 0.266655 0.178423
vt 0.266615 0.178608
vt 0.266264 0.178484
vt 0.080247 0.230989
vt 0.080247 0.230989
vt 0.080247 0.230989
vt 0.080247 0.230989
vt 0.080247 0.230989
vt 0.080247 0.230989
vt 0.080247 0.230989
vt 0.080247 0.230989
vt 0.266606 0.178398
vt 0.266455 0.178375
vt 0.266633 0.178432
vt 0.266595 0.178596
vt 0.266452 0.178632
vt 0.266328 0.178594
vt 0.266286 0.178486
vt 0.266330 0.178379
vt 0.266352 0.178682
vt 0.266282 0.178682
vt 0.266282 0.178647
vt 0.266352 0.178612
vt 0.266282 0.178612
vt 0.266282 0.178541
vt 0.266352 0.178541
vt 0.266352 0.178470
vt 0.266282 0.178506
vt 0.266282 0.178470
vt 0.266246 0.178682
vt 0.266246 0.178753
vt 0.266211 0.178753
vt 0.266211 0.178682
vt 0.266423 0.178753
vt 0.266388 0.178753
vt 0.266423 0.178682
vt 0.266282 0.178753
vt 0.266352 0.178506
vt 0.266352 0.178753
vt 0.266603 0.178407
vt 0.266603 0.178407
vt 0.266659 0.178425
vt 0.266659 0.178425
vt 0.266646 0.178480
vt 0.266650 0.178482
vt 0.266646 0.178480
vt 0.266650 0.178482
vt 0.266614 0.178396
vt 0.266614 0.178396
vt 0.266632 0.178408
vt 0.266627 0.178415
vt 0.266632 0.178408
vt 0.266627 0.178415
vt 0.266352 0.178612
vt 0.266352 0.178541
vt 0.266282 0.178541
vt 0.266282 0.178612
vt 0.266352 0.178612
vt 0.266282 0.178612
vt 0.266282 0.178541
vt 0.266352 0.178541
vn -0.323513 -0.936790 0.133281
vn -0.323513 -0.936790 0.133281
vn -0.323513 -0.936790 0.133281
vn -0.323513 -0.936790 0.133281
vn 0.153588 -0.056806 -0.986501
vn 0.153588 -0.056806 -0.986501
vn 0.153588 -0.056806 -0.986501
vn 0.153588 -0.056806 -0.986501
vn 0.153588 -0.056806 -0.986501
vn 0.153588 -0.056806 -0.986501
vn 0.208951 -0.026819 -0.977558
vn 0.208951 -0.026819 -0.977558
vn 0.208951 -0.026819 -0.977558
vn 0.199077 -0.026573 -0.979623
vn 0.199077 -0.026573 -0.979623
vn 0.199077 -0.026573 -0.979623
vn 0.203488 -0.029140 -0.978644
vn 0.203488 -0.029140 -0.978644
vn 0.203488 -0.029140 -0.978644
vn 0.236111 -0.074518 -0.968865
vn 0.236111 -0.074518 -0.968865
vn 0.236111 -0.074518 -0.968865
vn -0.106069 0.981110 -0.161779
vn -0.106069 0.981110 -0.161779
vn -0.106069 0.981110 -0.161779
vn -0.106069 0.981110 -0.161779
vn -0.952091 -0.302869 0.042341
vn -0.952091 -0.302869 0.042341
vn -0.952091 -0.302869 0.042341
vn -0.952091 -0.302869 0.042341
vn 0.500174 -0.854011 0.143145
vn 0.500174 -0.854011 0.143145
vn 0.500174 -0.854011 0.143145
vn 0.500174 -0.854011 0.143145
vn -0.131598 0.056538 0.989690
vn -0.131598 0.056538 0.989690
vn -0.131598 0.056538 0.989690
vn -0.147873 0.078512 0.985885
vn -0.147873 0.078512 0.985885
vn -0.147873 0.078512 0.985885
vn -0.146919 0.077962 0.986071
vn -0.146919 0.077962 0.986071
vn -0.146919 0.077962 0.986071
vn -0.169181 0.078440 0.982459
vn -0.169181 0.078440 0.982459
vn -0.169181 0.078440 0.982459
vn -0.127771 0.112752 0.985374
vn -0.127771 0.112752 0.985374
vn -0.127771 0.112752 0.985374
vn -0.128912 0.109966 0.985540
vn -0.128912 0.109966 0.985540
vn -0.128912 0.109966 0.985540
vn -0.134470 0.071763 0.988316
vn -0.134470 0.071763 0.988316
vn -0.134470 0.071763 0.988316
vn -0.134470 0.071763 0.988316
vn -0.079708 0.107510 0.991004
vn -0.079708 0.107510 0.991004
vn -0.079708 0.107510 0.991004
vn -0.079708 0.107510 0.991004
vn -0.067617 0.104237 0.992251
vn -0.067617 0.104237 0.992251
vn -0.067617 0.104237 0.992251
vn -0.067617 0.104237 0.992251
vn -0.160693 0.063604 0.984953
vn -0.160693 0.063604 0.984953
vn -0.160693 0.063604 0.984953
vn -0.160693 0.063604 0.984953
vn -0.153526 0.058467 0.986413
vn -0.153526 0.058467 0.986413
vn -0.153526 0.058467 0.986413
vn -0.153526 0.058467 0.986413
vn -0.152824 0.073977 0.985481
vn -0.152824 0.073977 0.985481
vn -0.152824 0.073977 0.985481
vn -0.152824 0.073977 0.985481
vn -0.079427 0.036058 0.996188
vn -0.079427 0.036058 0.996188
vn -0.079427 0.036058 0.996188
vn -0.079427 0.036058 0.996188
vn -0.114660 -0.006573 0.993383
vn -0.114660 -0.006573 0.993383
vn -0.114660 -0.006573 0.993383
vn -0.114660 -0.006573 0.993383
vn -0.374607 0.918708 -0.125080
vn -0.374607 0.918708 -0.125080
vn -0.374607 0.918708 -0.125080
vn -0.789970 0.309761 -0.529146
vn -0.789970 0.309761 -0.529146
vn -0.789970 0.309761 -0.529146
vn -0.789970 0.309761 -0.529146
vn -0.932211 -0.358239 0.051453
vn -0.932211 -0.358239 0.051453
vn -0.932211 -0.358239 0.051453
vn -0.942464 0.002372 0.334301
vn -0.942464 0.002372 0.334301
vn -0.942463 0.002372 0.334301
vn -0.942463 0.002372 0.334301
vn 0.964385 -0.102836 -0.243693
vn 0.964385 -0.102836 -0.243693
vn 0.964385 -0.102836 -0.243693
vn 0.964385 -0.102836 -0.243693
vn -0.740285 0.092837 0.665852
vn -0.740285 0.092837 0.665852
vn -0.740285 0.092837 0.665852
vn -0.740285 0.092837 0.665852
vn -0.402014 -0.914989 -0.034363
vn -0.402014 -0.914988 -0.034363
vn -0.402014 -0.914989 -0.034363
vn -0.402014 -0.914988 -0.034363
vn -0.878538 -0.156641 -0.451258
vn -0.878538 -0.156641 -0.451258
vn -0.878538 -0.156641 -0.451258
vn 0.876116 -0.158092 -0.455442
vn 0.876116 -0.158092 -0.455442
vn 0.876116 -0.158092 -0.455442
vn -0.165231 0.965145 0.202964
vn -0.165231 0.965145 0.202964
vn -0.165231 0.965145 0.202964
vn -0.165231 0.965145 0.202964
vn 0.323513 -0.936790 0.133281
vn 0.323513 -0.936790 0.133281
vn 0.323513 -0.936790 0.133281
vn 0.323513 -0.936790 0.133281
vn -0.153588 -0.056806 -0.986501
vn -0.153588 -0.056806 -0.986501
vn -0.153588 -0.056806 -0.986501
vn -0.153588 -0.056806 -0.986501
vn -0.153588 -0.056806 -0.986501
vn -0.153588 -0.056806 -0.986501
vn -0.208951 -0.026819 -0.977558
vn -0.208951 -0.026819 -0.977558
vn -0.208951 -0.026819 -0.977558
vn -0.199078 -0.026573 -0.979623
vn -0.199078 -0.026573 -0.979623
vn -0.199078 -0.026573 -0.979623
vn -0.203488 -0.029140 -0.978644
vn -0.203488 -0.029140 -0.978644
vn -0.203488 -0.029140 -0.978644
vn -0.236111 -0.074518 -0.968865
vn -0.236111 -0.074518 -0.968865
vn -0.236111 -0.074518 -0.968865
vn 0.106069 0.981110 -0.161779
vn 0.106069 0.981110 -0.161779
vn 0.106069 0.981110 -0.161779
vn 0.106069 0.981110 -0.161779
vn -0.896734 -0.273670 0.347811
vn -0.896734 -0.273670 0.347811
vn -0.930695 -0.329585 0.158687
vn -0.933819 -0.351177 0.068239
vn 0.952091 -0.302869 0.042341
vn 0.952091 -0.302869 0.042341
vn 0.952091 -0.302869 0.042341
vn 0.952091 -0.302869 0.042341
vn -0.500174 -0.854011 0.143145
vn -0.500174 -0.854011 0.143145
vn -0.500174 -0.854011 0.143145
vn -0.500174 -0.854011 0.143145
vn 0.131598 0.056538 0.989690
vn 0.131598 0.056538 0.989690
vn 0.131598 0.056538 0.989690
vn 0.147873 0.078512 0.985885
vn 0.147873 0.078512 0.985885
vn 0.147873 0.078512 0.985885
vn 0.146919 0.077962 0.986071
vn 0.146919 0.077962 0.986071
vn 0.146919 0.077962 0.986071
vn 0.169181 0.078440 0.982459
vn 0.169181 0.078440 0.982459
vn 0.169181 0.078440 0.982459
vn 0.127771 0.112752 0.985374
vn 0.127771 0.112752 0.985374
vn 0.127771 0.112752 0.985374
vn 0.128912 0.109967 0.985540
vn 0.128912 0.109967 0.985540
vn 0.128912 0.109967 0.985540
vn 0.134470 0.071763 0.988316
vn 0.134470 0.071763 0.988316
vn 0.134470 0.071763 0.988316
vn 0.134470 0.071763 0.988316
vn 0.079708 0.107510 0.991004
vn 0.079708 0.107510 0.991004
vn 0.079709 0.107510 0.991004
vn 0.079709 0.107510 0.991004
vn 0.067615 0.104237 0.992251
vn 0.067615 0.104237 0.992251
vn 0.067615 0.104237 0.992251
vn 0.067615 0.104237 0.992251
vn 0.160693 0.063604 0.984953
vn 0.160693 0.063604 0.984953
vn 0.160693 0.063604 0.984953
vn 0.160693 0.063604 0.984953
vn 0.153526 0.058467 0.986413
vn 0.153526 0.058467 0.986413
vn 0.153526 0.058467 0.986413
vn 0.153526 0.058467 0.986413
vn 0.152825 0.073977 0.985481
vn 0.152825 0.073977 0.985481
vn 0.152825 0.073977 0.985481
vn 0.152825 0.073977 0.985481
vn 0.079429 0.036058 0.996188
vn 0.079429 0.036058 0.996188
vn 0.079429 0.036058 0.996188
vn 0.079429 0.036058 0.996188
vn 0.114660 -0.006573 0.993383
vn 0.114660 -0.006573 0.993383
vn 0.114660 -0.006573 0.993383
vn 0.114660 -0.006573 0.993383
vn 0.374607 0.918708 -0.125080
vn 0.374607 0.918708 -0.125080
vn 0.374607 0.918708 -0.125080
vn 0.789970 0.309761 -0.529146
vn 0.789970 0.309761 -0.529146
vn 0.789970 0.309761 -0.529146
vn 0.789970 0.309761 -0.529146
vn 0.932211 -0.358239 0.051453
vn 0.932211 -0.358239 0.051453
vn 0.932211 -0.358239 0.051453
vn 0.942463 0.002372 0.334301
vn 0.942463 0.002372 0.334301
vn 0.942463 0.002372 0.334301
vn 0.942464 0.002372 0.334301
vn -0.964385 -0.102836 -0.243693
vn -0.964385 -0.102836 -0.243693
vn -0.964385 -0.102836 -0.243693
vn -0.964385 -0.102836 -0.243693
vn 0.740285 0.092837 0.665852
vn 0.740285 0.092837 0.665852
vn 0.740285 0.092837 0.665852
vn 0.740285 0.092837 0.665852
vn 0.402014 -0.914988 -0.034363
vn 0.402014 -0.914988 -0.034363
vn 0.402014 -0.914988 -0.034363
vn 0.402014 -0.914988 -0.034363
vn 0.878538 -0.156641 -0.451258
vn 0.878538 -0.156641 -0.451258
vn 0.878538 -0.156641 -0.451258
vn -0.876116 -0.158093 -0.455442
vn -0.876116 -0.158093 -0.455442
vn -0.876116 -0.158093 -0.455442
vn 0.165231 0.965145 0.202964
vn 0.165231 0.965145 0.202964
vn 0.165231 0.965145 0.202964
vn 0.165231 0.965145 0.202964
vn 0.166835 0.968356 -0.185618
vn 0.161058 0.972156 -0.170214
vn 0.165757 0.969088 -0.182739
vn 0.166835 0.968355 -0.185618
vn -0.918289 0.394967 0.027308
vn -0.909227 0.411682 0.061846
vn -0.933088 0.356418 -0.048095
vn -0.933088 0.356418 -0.048095
vn -0.161058 0.972156 -0.170215
vn -0.165757 0.969087 -0.182741
vn -0.146605 0.980349 -0.131992
vn 0.918289 0.394967 0.027307
vn 0.909227 0.411682 0.061845
vn 0.890273 0.439007 0.121189
vn 0.890273 0.439007 0.121189
vn 0.890273 0.439007 0.121189
vn -0.933819 -0.351177 0.068239
vn -0.930695 -0.329585 0.158687
vn -0.933735 -0.352575 0.061884
vn -0.933735 -0.352575 0.061884
vn 0.896735 -0.273670 0.347810
vn 0.933819 -0.351177 0.068239
vn 0.930695 -0.329584 0.158686
vn 0.896735 -0.273670 0.347810
vn 0.933735 -0.352575 0.061884
vn 0.930695 -0.329584 0.158686
vn 0.933819 -0.351177 0.068239
vn 0.933735 -0.352575 0.061884
vn 0.000000 -0.019519 -0.999810
vn 0.000000 -0.019519 -0.999810
vn 0.000000 -0.019519 -0.999810
vn 0.000000 -0.019519 -0.999810
vn 0.000000 -0.988899 0.148588
vn 0.000000 -0.988899 0.148588
vn 0.000000 -0.988899 0.148588
vn 0.000000 -0.988899 0.148588
vn 0.000000 0.055759 0.998444
vn 0.000000 0.055759 0.998444
vn 0.000000 0.055759 0.998444
vn 0.000000 0.055759 0.998444
vn 0.000000 0.987801 -0.155720
vn 0.000000 0.987801 -0.155720
vn 0.000000 0.987801 -0.155720
vn 0.000000 0.987801 -0.155720
vn 0.165757 0.969088 -0.182739
vn 0.161058 0.972156 -0.170214
vn 0.146606 0.980350 -0.131990
vn -0.918289 0.394967 0.027308
vn -0.890273 0.439008 0.121191
vn -0.890273 0.439008 0.121191
vn -0.890273 0.439008 0.121191
vn -0.909227 0.411682 0.061846
vn -0.166835 0.968355 -0.185619
vn -0.165757 0.969087 -0.182741
vn -0.161058 0.972156 -0.170215
vn -0.166835 0.968355 -0.185619
vn 0.918289 0.394967 0.027307
vn 0.933088 0.356419 -0.048095
vn 0.933088 0.356419 -0.048095
vn 0.909227 0.411682 0.061845
vn 0.000000 0.990961 -0.134152
vn 0.000000 0.990961 -0.134152
vn 0.000000 0.990961 -0.134152
vn 0.000000 0.990961 -0.134152
vn 0.000000 0.064209 0.997937
vn 0.000000 0.064209 0.997937
vn 0.000000 0.064209 0.997937
vn 0.000000 0.064209 0.997937
vn -0.000000 -0.993143 0.116902
vn -0.000000 -0.993143 0.116902
vn -0.000000 -0.993143 0.116902
vn -0.000000 -0.993143 0.116902
vn 0.000000 -0.056210 -0.998419
vn 0.000000 -0.056210 -0.998419
vn 0.000000 -0.056210 -0.998419
vn 0.000000 -0.056210 -0.998419
vn 0.999335 0.008648 -0.035415
vn 0.999335 0.008648 -0.035415
vn 0.999335 0.008648 -0.035415
vn 0.999335 0.008648 -0.035415
vn -0.391836 -0.911147 -0.127576
vn -0.391836 -0.911147 -0.127576
vn -0.391836 -0.911147 -0.127576
vn -0.391836 -0.911147 -0.127576
vn -0.997288 -0.020078 0.070803
vn -0.997288 -0.020078 0.070803
vn -0.997288 -0.020078 0.070803
vn -0.997288 -0.020078 0.070803
vn -0.102072 0.984298 0.144009
vn -0.102072 0.984298 0.144009
vn -0.102072 0.984298 0.144009
vn -0.102072 0.984298 0.144009
vn 0.102072 0.984298 0.144009
vn 0.102072 0.984298 0.144009
vn 0.102072 0.984298 0.144009
vn 0.102072 0.984298 0.144009
vn 0.997288 -0.020078 0.070803
vn 0.997288 -0.020078 0.070803
vn 0.997288 -0.020078 0.070803
vn 0.997288 -0.020078 0.070803
vn 0.391837 -0.911147 -0.127576
vn 0.391837 -0.911147 -0.127576
vn 0.391837 -0.911147 -0.127576
vn 0.391837 -0.911147 -0.127576
vn -0.999335 0.008649 -0.035415
vn -0.999335 0.008649 -0.035415
vn -0.999335 0.008649 -0.035415
vn -0.999335 0.008649 -0.035415
s off
f 4/3/1 8/4/2 7/5/3 1/6/4
f 12/8/5 66/108/6 13/9/7 6/7/8 62/104/9 74/116/10
f 13/9/11 8/4/12 6/7/13
f 8/4/14 4/3/15 6/7/16
f 4/3/17 10/10/18 6/7/19
f 10/10/20 3/11/21 6/7/22
f 6/7/23 3/11/24 2/12/25 5/1/26
f 1/6/27 9/15/28 10/10/29 4/3/30
f 14/14/31 7/5/32 8/4/33 13/9/34
f 23/16/35 22/17/36 17/18/37
f 22/17/38 21/19/39 17/18/40
f 21/19/41 20/20/42 17/18/43
f 20/20/44 19/21/45 17/18/46
f 19/21/47 18/22/48 17/18/49
f 17/18/50 18/22/51 16/23/52
f 5/1/53 17/24/54 16/25/55 15/2/56
f 15/2/57 16/25/58 18/26/59 11/13/60
f 11/13/61 18/26/62 19/27/63 14/14/64
f 14/14/65 19/27/66 20/28/67 7/5/68
f 7/5/69 20/28/70 21/29/71 1/6/72
f 1/6/73 21/29/74 22/30/75 9/15/76
f 9/15/77 22/30/78 23/31/79 2/12/80
f 2/12/81 23/31/82 17/24/83 5/1/84
f 3/32/85 28/33/86 2/34/87
f 75/117/88 76/118/89 77/119/90 78/120/91
f 10/39/92 9/40/93 29/41/94
f 28/42/95 25/43/96 27/44/97 29/45/98
f 26/46/99 24/47/100 3/32/101 30/48/102
f 9/49/103 2/34/104 28/42/105 29/45/106
f 26/36/107 30/50/108 29/41/109 27/37/110
f 30/50/111 10/39/112 29/41/113
f 3/32/114 10/51/115 30/48/116
f 3/32/117 24/35/118 25/38/119 28/33/120
f 34/54/121 31/55/122 37/56/123 38/57/124
f 42/59/125 72/114/126 61/103/127 36/58/128 43/60/129 68/110/130
f 43/60/131 36/58/132 38/57/133
f 38/57/134 36/58/135 34/54/136
f 34/54/137 36/58/138 40/61/139
f 36/58/140 33/62/141 40/61/142
f 36/58/143 35/53/144 32/63/145 33/62/146
f 41/64/147 63/105/148 67/109/149 44/65/150
f 31/55/151 34/54/152 40/61/153 39/66/154
f 44/65/155 43/60/156 38/57/157 37/56/158
f 53/67/159 47/68/160 52/69/161
f 52/69/162 47/68/163 51/70/164
f 51/70/165 47/68/166 50/71/167
f 50/71/168 47/68/169 49/72/170
f 49/72/171 47/68/172 48/73/173
f 47/68/174 46/74/175 48/73/176
f 35/53/177 45/52/178 46/75/179 47/76/180
f 45/52/181 41/64/182 48/77/183 46/75/184
f 41/64/185 44/65/186 49/78/187 48/77/188
f 44/65/189 37/56/190 50/79/191 49/78/192
f 37/56/193 31/55/194 51/80/195 50/79/196
f 31/55/197 39/66/198 52/81/199 51/80/200
f 39/66/201 32/63/202 53/82/203 52/81/204
f 32/63/205 35/53/206 47/76/207 53/82/208
f 33/83/209 32/84/210 58/85/211
f 79/121/212 80/122/213 81/123/214 82/124/215
f 40/90/216 59/91/217 39/92/218
f 58/93/219 59/94/220 57/95/221 55/96/222
f 56/97/223 60/98/224 33/83/225 54/99/226
f 39/100/227 59/94/228 58/93/229 32/84/230
f 56/89/231 57/88/232 59/91/233 60/101/234
f 60/101/235 59/91/236 40/90/237
f 33/83/238 60/98/239 40/102/240
f 33/83/241 58/85/242 55/87/243 54/86/244
f 15/2/245 69/111/246 6/7/247 5/1/248
f 63/105/249 71/113/250 72/114/251 42/59/252
f 70/112/253 36/58/254 61/103/255
f 64/106/256 73/115/257 69/111/258 15/2/259 11/13/260
f 44/65/261 67/109/262 68/110/263 43/60/264
f 11/13/265 14/14/266 65/107/267 64/106/268
f 66/108/269 65/107/270 14/14/271 13/9/272
f 66/108/273 12/8/274 42/59/275 68/110/276
f 66/108/277 68/110/278 67/109/279 65/107/280
f 65/107/281 67/109/282 63/105/283 64/106/284
f 64/106/285 63/105/286 42/59/287 12/8/288
f 6/7/289 69/111/290 62/104/291
f 63/105/292 41/64/293 45/52/294 70/112/295 71/113/296
f 35/53/297 36/58/298 70/112/299 45/52/300
f 64/106/301 12/8/302 74/116/303 73/115/304
f 62/104/305 69/111/306 70/112/307 61/103/308
f 69/111/309 73/115/310 71/113/311 70/112/312
f 74/116/313 72/114/314 71/113/315 73/115/316
f 62/104/317 61/103/318 72/114/319 74/116/320
f 24/35/321 26/36/322 76/118/323 75/117/324
f 26/36/325 27/37/326 77/119/327 76/118/328
f 27/37/329 25/38/330 78/120/331 77/119/332
f 25/38/333 24/35/334 75/117/335 78/120/336
f 54/86/337 55/87/338 80/122/339 79/121/340
f 55/87/341 57/88/342 81/123/343 80/122/344
f 57/88/345 56/89/346 82/124/347 81/123/348
f 56/89/349 54/86/350 79/121/351 82/124/352
