# This file uses centimeters as units for non-parametric coordinates.

v 12.183923 10.579998 -12.212075
v -0.106075 9.876995 -16.673698
v -12.977969 10.647638 -12.173519
v -16.716747 13.364981 0.224113
v -12.440299 15.623846 12.183949
v -0.106075 16.852934 17.121887
v 12.094354 15.831324 12.172659
v 16.787539 13.046375 0.238948
v 10.461153 17.763885 -11.041462
v -0.017780 19.644960 -15.060348
v -10.115097 19.303442 -11.072219
v -13.955106 22.546230 -1.752899
v -11.232349 22.349627 10.220034
v -0.100225 24.213619 14.473197
v 10.135946 23.507450 9.297781
v 14.442267 19.706869 -1.628600
v 8.834363 20.582214 -9.729127
v 0.121373 21.739267 -13.028197
v -0.098275 25.168863 -2.103704
v -8.368461 21.919361 -9.759915
v -11.810218 23.994696 -2.130282
v -9.458598 24.482000 5.684309
v -0.498077 26.752144 8.811632
v 8.080896 25.763014 5.607303
v 12.056896 21.694027 -2.038789
v 15.714480 9.608532 -15.098823
v -0.106075 4.782600 -20.793903
v -15.926632 9.608532 -15.098823
v -22.479719 9.305510 1.117822
v -15.926632 16.004900 15.889011
v -0.106075 13.828417 23.029518
v 15.714480 15.321041 16.030169
v 22.267570 9.305510 1.117822
v 15.529307 8.190388 -14.576261
v -0.106075 3.420954 -20.204681
v -15.741456 8.190388 -14.576261
v -22.217838 7.890930 1.450570
v -15.741456 14.511887 16.048882
v -0.106075 12.360888 23.105793
v 15.529307 13.835999 16.188366
v 22.005690 7.890930 1.450570
v 10.333948 10.348751 -9.773589
v -0.106075 9.795284 -13.987533
v -0.106075 12.754814 0.350041
v -10.494658 10.490639 -9.776421
v -14.745910 12.754814 0.350041
v -10.589599 14.643404 10.499321
v -0.106075 15.714314 14.687624
v 10.245851 14.847486 10.488227
v 14.621858 12.441471 0.364630
v -12.048392 18.172556 11.526871
v -15.994308 16.998823 -0.525960
v -12.172062 13.728922 -11.926558
v -0.106075 13.786964 -16.086201
v 11.602344 13.042576 -11.952732
v 16.255905 15.313696 -0.447533
v 11.532288 19.269958 10.590496
v 0.297613 20.210712 16.138395
vt 0.234391 0.290844
vt 0.234391 0.290844
vt 0.234391 0.290844
vt 0.234391 0.290844
vt 0.234390 0.290844
vt 0.234391 0.290844
vt 0.234390 0.290844
vt 0.234391 0.290844
vt 0.252182 0.290844
vt 0.252182 0.290844
vt 0.252182 0.290844
vt 0.252182 0.290844
vt 0.252182 0.290844
vt 0.252182 0.290844
vt 0.252182 0.290844
vt 0.252182 0.290844
vt 0.252182 0.290844
vt 0.234391 0.290844
vt 0.234391 0.290844
vt 0.234391 0.290844
vt 0.234391 0.290844
vt 0.234391 0.290844
vt 0.234391 0.290844
vt 0.234391 0.290844
vt 0.234391 0.290844
vt 0.234391 0.290844
vt 0.234391 0.290844
vt 0.234391 0.290844
vt 0.234391 0.290844
vt 0.234391 0.290844
vt 0.234391 0.290844
vt 0.234391 0.290844
vt 0.234391 0.290844
vt 0.234391 0.290844
vt 0.234391 0.290844
vt 0.234391 0.290844
vt 0.234391 0.290844
vt 0.234391 0.290844
vt 0.234391 0.290844
vt 0.234391 0.290844
vt 0.234391 0.290844
vt 0.234391 0.290844
vt 0.234391 0.290844
vt 0.234391 0.290844
vt 0.234391 0.290844
vt 0.234391 0.290844
vt 0.234391 0.290844
vt 0.234391 0.290844
vt 0.234390 0.290844
vt 0.234391 0.290844
vt 0.234390 0.290844
vt 0.234391 0.290844
vt 0.234391 0.290844
vt 0.234391 0.290844
vt 0.234391 0.290844
vt 0.234391 0.290844
vt 0.234390 0.290844
vt 0.234391 0.290844
vt 0.234390 0.290844
vt 0.234391 0.290844
vt 0.234391 0.290844
vt 0.234391 0.290844
vt 0.234391 0.290844
vt 0.234391 0.290844
vt 0.234390 0.290844
vt 0.234391 0.290844
vt 0.234390 0.290844
vt 0.234391 0.290844
vt 0.234391 0.290844
vt 0.234391 0.290844
vt 0.234391 0.290844
vt 0.234391 0.290844
vt 0.234391 0.290844
vt 0.234391 0.290844
vt 0.234391 0.290844
vt 0.234391 0.290844
vt 0.234391 0.290844
vt 0.252182 0.290844
vt 0.252182 0.290844
vt 0.252182 0.290844
vt 0.252182 0.290844
vt 0.252182 0.290844
vt 0.252182 0.290844
vt 0.252182 0.290844
vn 0.333391 0.154029 -0.930121
vn 0.333391 0.154029 -0.930121
vn 0.348940 0.183565 -0.918991
vn 0.347156 0.180145 -0.920343
vn -0.320605 0.148614 -0.935482
vn -0.320605 0.148614 -0.935482
vn -0.331010 0.182587 -0.925794
vn -0.332375 0.187136 -0.924396
vn -0.922351 0.184492 -0.339459
vn -0.922351 0.184492 -0.339459
vn -0.886886 0.256053 -0.384538
vn -0.891876 0.246951 -0.378909
vn -0.929853 0.232500 0.285162
vn -0.929853 0.232500 0.285162
vn -0.921405 0.289207 0.259562
vn -0.920623 0.293425 0.257595
vn -0.378514 0.294697 0.877428
vn -0.378514 0.294697 0.877428
vn -0.380058 0.317223 0.868864
vn -0.379864 0.314209 0.870044
vn 0.408717 0.330649 0.850659
vn 0.408717 0.330649 0.850659
vn 0.422302 0.358563 0.832522
vn 0.422653 0.359294 0.832029
vn 0.912419 0.289789 0.288988
vn 0.912419 0.289789 0.288988
vn 0.902110 0.347681 0.255570
vn 0.900390 0.355427 0.250938
vn 0.905460 0.178325 -0.385153
vn 0.905460 0.178325 -0.385153
vn 0.886423 0.230198 -0.401577
vn 0.885949 0.231384 -0.401939
vn -0.006737 -0.979331 0.202151
vn -0.025316 -0.978147 0.206367
vn -0.004489 -0.978658 0.205448
vn 0.008199 -0.977629 0.210177
vn -0.006737 -0.979331 0.202151
vn -0.004489 -0.978658 0.205448
vn 0.000000 -0.979672 0.200604
vn 0.008199 -0.977629 0.210177
vn -0.004489 -0.978658 0.205448
vn 0.009682 -0.981232 0.192590
vn 0.000000 -0.979672 0.200604
vn -0.004489 -0.978658 0.205448
vn 0.009708 -0.979308 0.202144
vn 0.009682 -0.981232 0.192590
vn -0.004489 -0.978658 0.205448
vn -0.010557 -0.977111 0.212469
vn 0.009708 -0.979308 0.202144
vn -0.004489 -0.978658 0.205448
vn -0.020980 -0.976038 0.216585
vn -0.010557 -0.977111 0.212469
vn -0.004489 -0.978658 0.205448
vn -0.025316 -0.978147 0.206367
vn -0.020980 -0.976038 0.216585
vn -0.004489 -0.978658 0.205448
vn 0.251034 0.930774 -0.265787
vn 0.080579 0.951448 -0.297074
vn 0.043803 0.971417 -0.233304
vn 0.080579 0.951448 -0.297074
vn -0.094883 0.949104 -0.300333
vn 0.043803 0.971417 -0.233304
vn -0.094883 0.949104 -0.300333
vn -0.098013 0.981388 -0.165139
vn 0.043803 0.971417 -0.233304
vn -0.098013 0.981388 -0.165139
vn -0.146723 0.985124 -0.089462
vn 0.043803 0.971417 -0.233304
vn -0.146723 0.985124 -0.089462
vn -0.077026 0.986298 -0.145885
vn 0.043803 0.971417 -0.233304
vn -0.077026 0.986298 -0.145885
vn 0.174475 0.950184 -0.258282
vn 0.043803 0.971417 -0.233304
vn 0.174475 0.950184 -0.258282
vn 0.264266 0.918949 -0.292740
vn 0.043803 0.971417 -0.233304
vn 0.264266 0.918949 -0.292740
vn 0.251034 0.930774 -0.265787
vn 0.043803 0.971417 -0.233304
vn 0.366614 0.596880 -0.713672
vn 0.366614 0.596880 -0.713672
vn 0.366614 0.596880 -0.713672
vn 0.366614 0.596880 -0.713672
vn -0.287633 0.628366 -0.722788
vn -0.287633 0.628366 -0.722788
vn -0.287633 0.628366 -0.722788
vn -0.287633 0.628366 -0.722788
vn -0.585684 0.666781 -0.460845
vn -0.585684 0.666781 -0.460845
vn -0.585684 0.666781 -0.460845
vn -0.585684 0.666781 -0.460845
vn -0.571182 0.809716 0.134580
vn -0.571182 0.809716 0.134580
vn -0.571182 0.809716 0.134580
vn -0.571182 0.809716 0.134580
vn -0.313131 0.878730 0.360254
vn -0.313132 0.878730 0.360254
vn -0.313131 0.878730 0.360254
vn -0.313132 0.878730 0.360254
vn 0.252694 0.886312 0.388068
vn 0.252694 0.886312 0.388068
vn 0.252694 0.886312 0.388068
vn 0.252694 0.886312 0.388068
vn 0.690241 0.723578 0.001214
vn 0.690241 0.723578 0.001214
vn 0.690241 0.723578 0.001214
vn 0.690241 0.723578 0.001214
vn 0.667773 0.631509 -0.394051
vn 0.667773 0.631509 -0.394051
vn 0.667773 0.631509 -0.394051
vn 0.667773 0.631509 -0.394051
vn 0.075872 0.772475 -0.630496
vn 0.075872 0.772475 -0.630496
vn 0.075872 0.772475 -0.630496
vn 0.075872 0.772475 -0.630496
vn -0.076369 0.767642 -0.636313
vn -0.076369 0.767642 -0.636313
vn -0.076369 0.767642 -0.636313
vn -0.076369 0.767642 -0.636313
vn -0.449723 0.861842 -0.234472
vn -0.449723 0.861842 -0.234472
vn -0.449723 0.861842 -0.234472
vn -0.449723 0.861842 -0.234472
vn -0.421538 0.897447 -0.129980
vn -0.421538 0.897447 -0.129980
vn -0.421538 0.897447 -0.129980
vn -0.421538 0.897447 -0.129980
vn -0.070640 0.968052 0.240592
vn -0.070640 0.968052 0.240592
vn -0.070640 0.968052 0.240592
vn -0.070640 0.968052 0.240592
vn 0.112468 0.946943 0.301082
vn 0.112468 0.946943 0.301082
vn 0.112468 0.946943 0.301082
vn 0.112468 0.946943 0.301082
vn 0.461738 0.881844 -0.095650
vn 0.461738 0.881844 -0.095650
vn 0.461738 0.881844 -0.095650
vn 0.461738 0.881844 -0.095650
vn 0.411228 0.882901 -0.226666
vn 0.411228 0.882901 -0.226666
vn 0.411228 0.882901 -0.226666
vn 0.411228 0.882901 -0.226666
vn 0.411515 -0.361952 -0.836448
vn 0.411515 -0.361952 -0.836448
vn 0.411515 -0.361952 -0.836448
vn 0.411515 -0.361952 -0.836448
vn -0.411515 -0.361953 -0.836448
vn -0.411515 -0.361953 -0.836448
vn -0.411515 -0.361953 -0.836448
vn -0.411515 -0.361953 -0.836448
vn -0.895586 -0.252034 -0.366612
vn -0.895586 -0.252034 -0.366612
vn -0.895586 -0.252034 -0.366612
vn -0.895586 -0.252034 -0.366612
vn -0.900715 -0.065737 0.429408
vn -0.900715 -0.065737 0.429408
vn -0.900715 -0.065737 0.429408
vn -0.900715 -0.065737 0.429408
vn -0.405488 0.047452 0.912868
vn -0.405488 0.047452 0.912868
vn -0.405488 0.047452 0.912868
vn -0.405488 0.047452 0.912868
vn 0.400379 0.047562 0.915115
vn 0.400379 0.047562 0.915115
vn 0.400379 0.047562 0.915115
vn 0.400379 0.047562 0.915115
vn 0.903115 -0.067440 0.424069
vn 0.903115 -0.067440 0.424069
vn 0.903115 -0.067440 0.424069
vn 0.903115 -0.067440 0.424069
vn 0.895586 -0.252035 -0.366612
vn 0.895586 -0.252035 -0.366612
vn 0.895586 -0.252035 -0.366612
vn 0.895586 -0.252035 -0.366612
vn -0.060061 -0.802763 0.593266
vn -0.060061 -0.802763 0.593266
vn -0.060061 -0.802763 0.593266
vn -0.060061 -0.802763 0.593266
vn 0.059303 -0.797832 0.599956
vn 0.059303 -0.797832 0.599956
vn 0.059303 -0.797832 0.599956
vn 0.059303 -0.797832 0.599956
vn 0.422817 -0.874104 0.239098
vn 0.422817 -0.874104 0.239098
vn 0.422817 -0.874104 0.239098
vn 0.422817 -0.874104 0.239098
vn 0.422189 -0.897535 0.127229
vn 0.422189 -0.897535 0.127229
vn 0.422189 -0.897535 0.127229
vn 0.422189 -0.897535 0.127229
vn 0.055495 -0.973377 -0.222388
vn 0.055495 -0.973377 -0.222388
vn 0.055495 -0.973377 -0.222388
vn 0.055495 -0.973378 -0.222388
vn -0.090123 -0.960514 -0.263233
vn -0.090123 -0.960514 -0.263233
vn -0.090123 -0.960514 -0.263233
vn -0.090123 -0.960514 -0.263233
vn -0.446009 -0.888975 0.103922
vn -0.446009 -0.888975 0.103922
vn -0.446009 -0.888975 0.103922
vn -0.446009 -0.888975 0.103922
vn -0.405115 -0.885546 0.227356
vn -0.405115 -0.885546 0.227356
vn -0.405115 -0.885546 0.227356
vn -0.405115 -0.885546 0.227356
vn -0.920623 0.293425 0.257595
vn -0.921405 0.289207 0.259562
vn -0.912796 0.330522 0.239916
vn -0.912795 0.330522 0.239916
vn -0.891876 0.246951 -0.378909
vn -0.886886 0.256053 -0.384538
vn -0.859096 0.302573 -0.412800
vn -0.859096 0.302573 -0.412800
vn -0.332375 0.187136 -0.924396
vn -0.331010 0.182587 -0.925794
vn -0.340423 0.214441 -0.915493
vn -0.340423 0.214441 -0.915493
vn 0.347156 0.180145 -0.920343
vn 0.348940 0.183565 -0.918991
vn 0.358767 0.202549 -0.911186
vn 0.358767 0.202549 -0.911186
vn 0.885949 0.231384 -0.401939
vn 0.886423 0.230198 -0.401577
vn 0.869713 0.269718 -0.413342
vn 0.869713 0.269718 -0.413342
vn 0.900390 0.355427 0.250938
vn 0.902110 0.347681 0.255570
vn 0.890044 0.395843 0.226118
vn 0.890044 0.395843 0.226118
vn 0.422653 0.359294 0.832029
vn 0.422302 0.358563 0.832522
vn 0.435629 0.386629 0.812863
vn 0.435629 0.386629 0.812862
vn -0.379864 0.314209 0.870044
vn -0.380058 0.317223 0.868864
vn -0.381008 0.332877 0.862570
vn -0.381008 0.332877 0.862570
s off
f 1/9/1 2/10/2 54/11/3 55/12/4
f 2/10/5 3/13/6 53/14/7 54/11/8
f 3/13/9 4/15/10 52/16/11 53/14/12
f 4/15/13 5/17/14 51/78/15 52/16/16
f 5/17/17 6/79/18 58/80/19 51/78/20
f 6/79/21 7/81/22 57/82/23 58/80/24
f 7/81/25 8/83/26 56/84/27 57/82/28
f 8/83/29 1/9/30 55/12/31 56/84/32
f 43/61/33 42/62/34 44/35/35
f 45/63/36 43/61/37 44/35/38
f 46/64/39 45/63/40 44/35/41
f 47/65/42 46/64/43 44/35/44
f 48/66/45 47/65/46 44/35/47
f 49/67/48 48/66/49 44/35/50
f 50/68/51 49/67/52 44/35/53
f 42/62/54 50/68/55 44/35/56
f 17/37/57 18/38/58 19/36/59
f 18/38/60 20/39/61 19/36/62
f 20/39/63 21/40/64 19/36/65
f 21/40/66 22/41/67 19/36/68
f 22/41/69 23/42/70 19/36/71
f 23/42/72 24/43/73 19/36/74
f 24/43/75 25/44/76 19/36/77
f 25/44/78 17/37/79 19/36/80
f 9/33/81 10/32/82 18/38/83 17/37/84
f 10/32/85 11/31/86 20/39/87 18/38/88
f 11/31/89 12/30/90 21/40/91 20/39/92
f 12/30/93 13/29/94 22/41/95 21/40/96
f 13/29/97 14/28/98 23/42/99 22/41/100
f 14/28/101 15/27/102 24/43/103 23/42/104
f 15/27/105 16/34/106 25/44/107 24/43/108
f 16/34/109 9/33/110 17/37/111 25/44/112
f 2/2/113 1/1/114 26/46/115 27/45/116
f 3/3/117 2/2/118 27/45/119 28/47/120
f 4/4/121 3/3/122 28/47/123 29/48/124
f 5/5/125 4/4/126 29/48/127 30/49/128
f 6/6/129 5/5/130 30/49/131 31/50/132
f 7/7/133 6/6/134 31/50/135 32/51/136
f 8/8/137 7/7/138 32/51/139 33/52/140
f 1/1/141 8/8/142 33/52/143 26/46/144
f 27/45/145 26/46/146 34/54/147 35/53/148
f 28/47/149 27/45/150 35/53/151 36/55/152
f 29/48/153 28/47/154 36/55/155 37/56/156
f 30/49/157 29/48/158 37/56/159 38/57/160
f 31/50/161 30/49/162 38/57/163 39/58/164
f 32/51/165 31/50/166 39/58/167 40/59/168
f 33/52/169 32/51/170 40/59/171 41/60/172
f 26/46/173 33/52/174 41/60/175 34/54/176
f 35/53/177 34/54/178 42/62/179 43/61/180
f 36/55/181 35/53/182 43/61/183 45/63/184
f 37/56/185 36/55/186 45/63/187 46/64/188
f 38/57/189 37/56/190 46/64/191 47/65/192
f 39/58/193 38/57/194 47/65/195 48/66/196
f 40/59/197 39/58/198 48/66/199 49/67/200
f 41/60/201 40/59/202 49/67/203 50/68/204
f 34/54/205 41/60/206 50/68/207 42/62/208
f 52/70/209 51/69/210 13/22/211 12/21/212
f 53/71/213 52/70/214 12/21/215 11/20/216
f 54/72/217 53/71/218 11/20/219 10/19/220
f 55/74/221 54/72/222 10/19/223 9/18/224
f 56/75/225 55/73/226 9/26/227 16/25/228
f 57/76/229 56/75/230 16/25/231 15/24/232
f 58/77/233 57/76/234 15/24/235 14/23/236
f 51/69/237 58/77/238 14/23/239 13/22/240
