# This file uses centimeters as units for non-parametric coordinates.

v -405.268005 -67.892159 597.334351
v 405.268005 -67.892159 597.334351
v -341.536591 0.000000 518.987000
v 341.536591 0.000000 518.987000
v -341.536591 0.000000 -518.987000
v 341.536591 0.000000 -518.987000
v -405.268005 -67.892159 -597.334351
v 405.268005 -67.892159 -597.334351
v -379.143036 -18.766197 563.554443
v 379.143036 -18.766197 563.554443
v 379.143036 -18.766197 -563.554443
v -379.143036 -18.766197 -563.554443
v -360.339813 -4.527718 541.270691
v -360.339813 -4.527718 -541.270691
v 360.339813 -4.527718 -541.270691
v 360.339813 -4.527718 541.270691
vt 0.265211 0.139860
vt 0.265211 0.139860
vt 0.265211 0.139860
vt 0.265211 0.139860
vt 0.265211 0.139860
vt 0.265211 0.139860
vt 0.265211 0.139860
vt 0.265211 0.139860
vt 0.265211 0.139860
vt 0.265211 0.139860
vt 0.265211 0.139860
vt 0.265211 0.139860
vt 0.265211 0.139860
vt 0.265211 0.139860
vt 0.265211 0.139860
vt 0.265211 0.139860
vt 0.265211 0.139860
vt 0.265211 0.139860
vt 0.265211 0.139860
vt 0.265211 0.139860
vt 0.265211 0.139860
vt 0.265211 0.139860
vt 0.265211 0.139860
vt 0.265211 0.139860
vn 0.000000 0.619607 0.784912
vn 0.000000 0.619607 0.784912
vn 0.000000 0.887718 0.460387
vn 0.000000 0.887718 0.460387
vn 0.000000 1.000000 0.000000
vn 0.000000 1.000000 0.000000
vn 0.000000 1.000000 0.000000
vn 0.000000 1.000000 0.000000
vn 0.000000 0.887718 -0.460387
vn 0.000000 0.887718 -0.460387
vn 0.000000 0.619607 -0.784912
vn 0.000000 0.619607 -0.784912
vn 0.854677 0.519160 0.000000
vn 0.854677 0.519160 0.000000
vn 0.538867 0.842391 0.000000
vn 0.538867 0.842391 0.000000
vn -0.854677 0.519160 0.000000
vn -0.854677 0.519160 0.000000
vn -0.538867 0.842391 0.000000
vn -0.538867 0.842391 0.000000
vn 0.000000 0.566595 0.823996
vn 0.000000 0.566595 0.823996
vn 0.000000 0.619607 0.784912
vn 0.000000 0.619607 0.784912
vn 0.882916 0.469531 0.000000
vn 0.882916 0.469531 0.000000
vn 0.854677 0.519160 0.000000
vn 0.854677 0.519160 0.000000
vn 0.000000 0.619607 -0.784912
vn 0.000000 0.619607 -0.784912
vn 0.000000 0.566595 -0.823996
vn 0.000000 0.566595 -0.823996
vn -0.882916 0.469531 0.000000
vn -0.882916 0.469531 0.000000
vn -0.854677 0.519160 0.000000
vn -0.854677 0.519160 0.000000
vn -0.538867 0.842391 0.000000
vn -0.538867 0.842391 0.000000
vn -0.234103 0.972212 0.000000
vn -0.234103 0.972212 0.000000
vn 0.000000 0.979976 -0.199117
vn 0.000000 0.979976 -0.199117
vn 0.000000 0.887718 -0.460387
vn 0.000000 0.887718 -0.460387
vn 0.538867 0.842391 0.000000
vn 0.538867 0.842391 0.000000
vn 0.234103 0.972212 0.000000
vn 0.234103 0.972212 0.000000
vn 0.000000 0.887718 0.460387
vn 0.000000 0.887718 0.460387
vn 0.000000 0.979976 0.199117
vn 0.000000 0.979976 0.199117
s off
f 9/13/1 10/14/2 16/24/3 13/19/4
f 3/3/5 4/4/6 6/6/7 5/5/8
f 14/21/9 15/22/10 11/15/11 12/18/12
f 10/14/13 11/16/14 15/23/15 16/24/16
f 12/17/17 9/13/18 13/19/19 14/20/20
f 1/1/21 2/2/22 10/14/23 9/13/24
f 2/2/25 8/9/26 11/16/27 10/14/28
f 12/18/29 11/15/30 8/8/31 7/7/32
f 7/11/33 1/1/34 9/13/35 12/17/36
f 14/20/37 13/19/38 3/3/39 5/12/40
f 5/5/41 6/6/42 15/22/43 14/21/44
f 16/24/45 15/23/46 6/10/47 4/4/48
f 13/19/49 16/24/50 4/4/51 3/3/52
