# This file uses centimeters as units for non-parametric coordinates.

v 12.276855 -59.489433 10.161138
v 15.755188 -59.489433 4.887665
v 40.193115 100.936104 32.703392
v 9.765198 -59.489433 10.398790
v 8.687500 -59.489437 1.838157
v 24.938698 77.669899 27.833681
v 28.340260 77.644821 19.735733
v 24.800009 80.480934 14.688987
v 21.397964 80.506081 22.787411
v 15.204407 -59.489433 -19.183308
v 21.066406 -59.489433 -20.231915
v 49.730347 95.321686 -33.335476
v 14.364380 -59.489433 -23.024826
v 20.226135 -59.489433 -24.073351
v 37.766479 77.388519 -24.936769
v 41.702293 69.811890 -25.377960
v 40.069725 67.609131 -30.965937
v 36.134216 75.185822 -30.524567
v -4.307495 -59.489433 -12.638965
v -2.709351 -59.489433 -19.413347
v -34.628078 123.693390 -31.970953
v -7.608582 -59.489433 -13.548156
v -6.010803 -59.489433 -20.321892
v -19.653442 104.214020 -24.684113
v -17.843933 101.850952 -30.054081
v -21.786324 97.227936 -31.029301
v -23.595833 99.590889 -25.659412
v 2.785339 -59.489437 0.569415
v -4.145386 -59.489433 1.719321
v 3.747620 143.191254 32.744003
v 3.083618 -59.489433 4.104569
v -3.846436 -59.489433 5.254559
v 4.841431 119.244293 20.128277
v -0.880981 118.909088 20.519993
v -0.561617 113.243530 24.394444
v 5.160734 113.578629 24.002674
v -2.973328 -59.489433 0.389563
v -9.115295 -59.489433 2.661040
v -26.559692 114.639717 16.356936
v -1.454102 -59.489433 4.014489
v -7.595703 -59.489433 6.285884
v -18.589172 87.235474 6.526314
v -22.339600 70.853233 7.584935
v -19.963989 67.826424 12.848940
v -16.213806 84.208900 11.790278
v 2.214844 -59.489433 -9.524771
v -4.789185 -59.489433 -9.273159
v 0.948242 76.501404 -42.045433
v 3.815552 -59.489433 -7.657976
v -2.791565 -59.489433 -5.526347
v 3.406311 49.672173 -19.841711
v -1.702026 56.488297 -21.369270
v 0.994507 78.334122 -21.133022
v 6.792542 66.989166 -21.159382
v 1.514099 -59.489437 14.216953
v 3.931396 -59.489433 17.203678
v -7.423584 61.747192 50.369736
v 5.285950 -59.489433 7.881473
v 10.445984 -59.489433 15.497070
v -4.686035 56.473881 38.835369
v -0.471313 50.692085 43.081573
v 4.045410 55.858345 38.544666
v -0.169617 61.641182 34.298141
v -20.100037 -59.489437 0.517121
v -21.081726 -59.489433 3.973003
v -49.730347 34.139503 -2.117237
v -13.220764 -59.489433 -1.172544
v -16.265015 -59.489433 7.003149
v -37.571110 28.680626 -3.714156
v -37.145573 27.315563 3.394691
v -32.578186 32.357914 2.182080
v -33.003967 33.723583 -4.927485
v -3.899231 -59.489433 7.327808
v 2.156433 -59.489433 9.127254
v -17.375916 100.936104 40.582165
v -4.855103 -59.489433 4.993083
v 3.024963 -59.489437 1.478821
v -12.765536 73.678101 25.342484
v -7.456454 83.281761 25.873096
v -7.706238 87.592918 21.206551
v -13.015930 77.988876 20.675850
v 2.673828 -59.489433 -7.052024
v 7.173218 -59.489433 -3.150991
v 35.378845 95.321686 10.912006
v 5.134216 -59.489433 -10.119529
v 9.633362 -59.489433 -6.218660
v 21.327454 77.388519 6.883215
v 22.782227 58.540154 8.381376
v 26.103210 56.337395 3.599937
v 24.648438 75.185822 2.102147
v -10.747437 -59.489437 -13.467332
v -12.904602 -59.489433 -10.287694
v -47.938354 61.747192 -11.535396
v -3.590271 -59.489433 -11.695045
v -9.381897 -59.489433 -4.548064
v -33.235134 58.197639 -13.669225
v -36.076443 52.415844 -8.404112
v -33.295227 55.858345 -3.989017
v -30.453796 61.641182 -9.254530
v 11.705078 -59.489437 -21.248983
v 8.112976 -59.489433 -21.186188
v 5.632507 34.139503 -50.369736
v 15.317261 -59.489433 -15.155480
v 6.610107 -59.489433 -15.697593
v 10.310791 25.828728 -39.170898
v 3.630920 24.463665 -36.701801
v 6.492615 32.357914 -32.707851
v 13.173096 33.723583 -35.177326
vt 0.176424 0.229543
vt 0.176424 0.229543
vt 0.176424 0.229543
vt 0.176424 0.229543
vt 0.176424 0.229543
vt 0.176424 0.229543
vt 0.176424 0.229543
vt 0.176424 0.229543
vt 0.176424 0.229543
vt 0.176424 0.229543
vt 0.176424 0.229543
vt 0.176424 0.229543
vt 0.176424 0.229543
vt 0.176424 0.229543
vt 0.176424 0.229543
vt 0.176424 0.229543
vt 0.176424 0.229543
vt 0.176424 0.229543
vt 0.176424 0.229543
vt 0.176424 0.229543
vt 0.176424 0.229543
vt 0.176424 0.229543
vt 0.176424 0.229543
vt 0.176424 0.229543
vt 0.176424 0.229543
vt 0.176424 0.229543
vt 0.176424 0.229543
vt 0.176424 0.229543
vt 0.176424 0.229543
vt 0.176424 0.229543
vt 0.176424 0.229543
vt 0.176424 0.229543
vt 0.176424 0.229543
vt 0.176424 0.229543
vt 0.176424 0.229543
vt 0.176424 0.229543
vt 0.176424 0.229543
vt 0.176424 0.229543
vt 0.176424 0.229543
vt 0.176424 0.229543
vt 0.176424 0.229543
vt 0.176424 0.229543
vt 0.176424 0.229543
vt 0.176424 0.229543
vt 0.176424 0.229543
vt 0.176424 0.229543
vt 0.176424 0.229543
vt 0.176424 0.229543
vt 0.176424 0.229543
vt 0.176424 0.229543
vt 0.176424 0.229543
vt 0.176424 0.229543
vt 0.176424 0.229543
vt 0.176424 0.229543
vt 0.176424 0.229543
vt 0.176424 0.229543
vt 0.176424 0.229543
vt 0.176424 0.229543
vt 0.176424 0.229543
vt 0.176424 0.229543
vt 0.176424 0.229543
vt 0.176424 0.229543
vt 0.176424 0.229543
vt 0.176424 0.229543
vt 0.176424 0.229543
vt 0.176424 0.229543
vt 0.176424 0.229543
vt 0.176424 0.229543
vt 0.176424 0.229543
vt 0.176424 0.229543
vt 0.176424 0.229543
vt 0.176424 0.229543
vt 0.176424 0.229543
vt 0.176424 0.229543
vt 0.176424 0.229543
vt 0.176424 0.229543
vt 0.176424 0.229543
vt 0.176424 0.229543
vt 0.176424 0.229543
vt 0.176424 0.229543
vt 0.176424 0.229543
vt 0.176424 0.229543
vt 0.176424 0.229543
vt 0.176424 0.229543
vt 0.176424 0.229543
vt 0.176424 0.229543
vt 0.176424 0.229543
vt 0.176424 0.229543
vt 0.176424 0.229543
vt 0.176424 0.229543
vt 0.176424 0.229543
vt 0.176424 0.229543
vt 0.176424 0.229543
vt 0.176424 0.229543
vt 0.176424 0.229543
vt 0.176424 0.229543
vt 0.176424 0.229543
vt 0.176424 0.229543
vt 0.176424 0.229543
vt 0.176424 0.229543
vt 0.176424 0.229543
vt 0.176424 0.229543
vt 0.176424 0.229543
vt 0.176424 0.229543
vt 0.176424 0.229543
vt 0.176424 0.229543
vt 0.176424 0.229543
vt 0.176424 0.229543
vt 0.176424 0.229543
vt 0.176424 0.229543
vt 0.176424 0.229543
vt 0.176424 0.229543
vt 0.176424 0.229543
vt 0.176424 0.229543
vt 0.176424 0.229543
vt 0.176424 0.229543
vt 0.176424 0.229543
vt 0.176424 0.229543
vt 0.176424 0.229543
vt 0.176424 0.229543
vt 0.176424 0.229543
vt 0.176424 0.229543
vt 0.176424 0.229543
vt 0.176424 0.229543
vt 0.176424 0.229543
vt 0.176424 0.229543
vt 0.176424 0.229543
vt 0.176424 0.229543
vt 0.176424 0.229543
vt 0.176424 0.229543
vt 0.176424 0.229543
vt 0.176424 0.229543
vt 0.176424 0.229543
vt 0.176424 0.229543
vt 0.176424 0.229543
vt 0.176424 0.229543
vt 0.176424 0.229543
vt 0.176424 0.229543
vt 0.176424 0.229543
vt 0.176424 0.229543
vt 0.176424 0.229543
vt 0.176424 0.229543
vt 0.176424 0.229543
vt 0.176424 0.229543
vt 0.176424 0.229543
vt 0.176424 0.229543
vt 0.176424 0.229543
vt 0.176424 0.229543
vt 0.176424 0.229543
vt 0.176424 0.229543
vt 0.176424 0.229543
vt 0.176424 0.229543
vt 0.176424 0.229543
vt 0.176424 0.229543
vt 0.176424 0.229543
vt 0.176424 0.229543
vt 0.176424 0.229543
vt 0.176424 0.229543
vt 0.176424 0.229543
vt 0.176424 0.229543
vt 0.176424 0.229543
vt 0.176424 0.229543
vt 0.176424 0.229543
vt 0.176424 0.229543
vt 0.176424 0.229543
vt 0.176424 0.229543
vt 0.176424 0.229543
vt 0.176424 0.229543
vt 0.176424 0.229543
vt 0.176424 0.229543
vt 0.176424 0.229543
vt 0.176424 0.229543
vt 0.176424 0.229543
vt 0.176424 0.229543
vt 0.176424 0.229543
vt 0.176424 0.229543
vt 0.176424 0.229543
vt 0.176424 0.229543
vt 0.176424 0.229543
vt 0.176424 0.229543
vn 0.958770 -0.275967 0.067845
vn 0.958902 -0.275200 0.069072
vn 0.858520 -0.449858 -0.246113
vn -0.175319 0.623098 0.762242
vn -0.951017 0.308221 -0.023797
vn -0.950332 0.310577 -0.020289
vn -0.658027 -0.153061 -0.737274
vn -0.658027 -0.153061 -0.737274
vn -0.658027 -0.153061 -0.737274
vn -0.658027 -0.153061 -0.737274
vn 0.530404 0.158476 -0.832801
vn 0.526069 0.157419 -0.835745
vn 0.603076 0.176050 -0.778014
vn -0.303076 -0.102157 0.947475
vn -0.294275 -0.099940 0.950481
vn -0.144934 -0.061980 0.987498
vn 0.961463 -0.256783 0.098243
vn 0.961463 -0.256783 0.098243
vn 0.958902 -0.275200 0.069072
vn 0.958770 -0.275967 0.067845
vn 0.512116 0.154014 -0.844995
vn 0.512116 0.154014 -0.844995
vn 0.526069 0.157419 -0.835745
vn 0.530404 0.158476 -0.832801
vn -0.950332 0.310577 -0.020289
vn -0.951017 0.308221 -0.023797
vn -0.961458 0.256791 -0.098266
vn -0.961458 0.256791 -0.098266
vn -0.328725 -0.108604 0.938160
vn -0.328725 -0.108604 0.938160
vn -0.294275 -0.099940 0.950481
vn -0.303076 -0.102157 0.947475
vn 0.225976 0.016491 0.973993
vn 0.225114 0.016335 0.974196
vn 0.522710 0.071445 0.849512
vn -0.187092 -0.015652 -0.982218
vn -0.173048 -0.007852 -0.984882
vn -0.173068 -0.007863 -0.984878
vn -0.892757 -0.294785 0.340714
vn -0.892757 -0.294785 0.340714
vn -0.892757 -0.294785 0.340714
vn -0.892757 -0.294785 0.340714
vn 0.907660 -0.388006 -0.160014
vn 0.907544 -0.388326 -0.159894
vn 0.902198 -0.402730 -0.154429
vn -0.831532 0.547364 0.094587
vn -0.833355 0.544349 0.095936
vn -0.711573 0.702393 0.017521
vn 0.170664 0.006530 0.985308
vn 0.170664 0.006530 0.985308
vn 0.225114 0.016335 0.974196
vn 0.225976 0.016491 0.973993
vn 0.909013 -0.384235 -0.161430
vn 0.909013 -0.384235 -0.161430
vn 0.907544 -0.388326 -0.159894
vn 0.907660 -0.388006 -0.160014
vn -0.173068 -0.007863 -0.984878
vn -0.173048 -0.007852 -0.984882
vn -0.170660 -0.006528 -0.985308
vn -0.170660 -0.006528 -0.985308
vn -0.851923 0.511954 0.110143
vn -0.851923 0.511954 0.110143
vn -0.833355 0.544349 0.095936
vn -0.831532 0.547364 0.094587
vn 0.937837 0.280633 0.204225
vn 0.938419 0.278041 0.205094
vn 0.658129 0.752881 -0.005989
vn -0.909106 -0.368081 -0.195047
vn -0.943342 -0.252435 -0.215367
vn -0.943143 -0.253292 -0.215230
vn 0.934239 -0.350060 0.068234
vn 0.934239 -0.350060 0.068234
vn 0.934239 -0.350060 0.068234
vn 0.934239 -0.350060 0.068234
vn 0.221736 -0.029448 -0.974662
vn 0.216680 -0.027509 -0.975855
vn 0.120463 0.009070 -0.992676
vn -0.373241 0.088396 0.923514
vn -0.368481 0.086518 0.925601
vn -0.461843 0.123705 0.878293
vn 0.945768 0.241690 0.217047
vn 0.945768 0.241690 0.217047
vn 0.938419 0.278041 0.205094
vn 0.937837 0.280633 0.204225
vn 0.237311 -0.035432 -0.970787
vn 0.237311 -0.035432 -0.970787
vn 0.216680 -0.027509 -0.975855
vn 0.221736 -0.029448 -0.974662
vn -0.943143 -0.253292 -0.215230
vn -0.943342 -0.252435 -0.215367
vn -0.945765 -0.241690 -0.217061
vn -0.945765 -0.241690 -0.217061
vn -0.355579 0.081435 0.931092
vn -0.355579 0.081435 0.931092
vn -0.368481 0.086518 0.925601
vn -0.373241 0.088396 0.923514
vn -0.099255 0.248826 -0.963449
vn -0.099325 0.246790 -0.963965
vn -0.078598 0.603002 -0.793858
vn 0.077357 -0.313909 0.946296
vn 0.098309 -0.226350 0.969072
vn 0.098154 -0.227022 0.968931
vn -0.434102 -0.357290 -0.826982
vn -0.434102 -0.357290 -0.826982
vn -0.434102 -0.357290 -0.826982
vn -0.434102 -0.357290 -0.826982
vn -0.986315 0.060724 0.153284
vn -0.985554 0.062499 0.157409
vn -0.967209 0.095967 0.235152
vn 0.999622 -0.006329 -0.026770
vn 0.999491 -0.008084 -0.030856
vn 0.998321 0.027144 0.051177
vn -0.100276 0.217902 -0.970806
vn -0.100276 0.217902 -0.970806
vn -0.099325 0.246790 -0.963965
vn -0.099255 0.248826 -0.963449
vn -0.988531 0.055246 0.140549
vn -0.988531 0.055246 0.140549
vn -0.985554 0.062499 0.157409
vn -0.986315 0.060724 0.153284
vn 0.098154 -0.227022 0.968931
vn 0.098309 -0.226350 0.969072
vn 0.100263 -0.217900 0.970807
vn 0.100263 -0.217900 0.970807
vn 0.999040 -0.012824 -0.041887
vn 0.999040 -0.012824 -0.041887
vn 0.999491 -0.008084 -0.030856
vn 0.999622 -0.006329 -0.026770
vn -0.387749 0.036240 -0.921052
vn -0.387048 0.035962 -0.921358
vn -0.625581 0.136145 -0.768188
vn 0.352818 -0.029639 0.935223
vn 0.344092 -0.020065 0.938722
vn 0.344104 -0.020079 0.938717
vn 0.713260 -0.479321 -0.511383
vn 0.713260 -0.479321 -0.511383
vn 0.713260 -0.479321 -0.511383
vn 0.713260 -0.479321 -0.511383
vn -0.919501 -0.211472 0.331358
vn -0.919481 -0.211739 0.331243
vn -0.918493 -0.223742 0.326053
vn 0.899839 0.341889 -0.270929
vn 0.900396 0.339449 -0.272144
vn 0.859567 0.469229 -0.202409
vn -0.342608 0.018443 -0.939298
vn -0.342608 0.018443 -0.939298
vn -0.387048 0.035962 -0.921358
vn -0.387749 0.036240 -0.921052
vn -0.919733 -0.208319 0.332708
vn -0.919733 -0.208319 0.332708
vn -0.919481 -0.211739 0.331243
vn -0.919501 -0.211472 0.331358
vn 0.344104 -0.020079 0.938717
vn 0.344092 -0.020065 0.938722
vn 0.342606 -0.018441 0.939298
vn 0.342606 -0.018441 0.939298
vn 0.905907 0.313215 -0.285005
vn 0.905907 0.313215 -0.285005
vn 0.900396 0.339449 -0.272144
vn 0.899839 0.341889 -0.270929
vn -0.574087 -0.443585 -0.688227
vn -0.573054 -0.442931 -0.689508
vn -0.770349 -0.559696 -0.305455
vn 0.668708 0.488620 -0.560428
vn 0.610357 0.471912 0.636210
vn 0.613108 0.473879 0.632089
vn -0.198729 0.021878 0.979810
vn -0.198729 0.021878 0.979810
vn -0.198729 0.021878 0.979810
vn -0.198729 0.021878 0.979810
vn -0.964052 0.183796 -0.191894
vn -0.965159 0.183912 -0.186129
vn -0.940273 0.180868 -0.288400
vn 0.977143 -0.181502 -0.110675
vn 0.975836 -0.181074 -0.122296
vn 0.933552 -0.170090 -0.315517
vn -0.547920 -0.426960 -0.719367
vn -0.547920 -0.426960 -0.719367
vn -0.573054 -0.442931 -0.689508
vn -0.574087 -0.443585 -0.688227
vn -0.968493 0.184242 -0.167559
vn -0.968493 0.184242 -0.167559
vn -0.965159 0.183912 -0.186129
vn -0.964052 0.183796 -0.191894
vn 0.613108 0.473879 0.632089
vn 0.610357 0.471912 0.636210
vn 0.547902 0.426972 0.719373
vn 0.547902 0.426972 0.719373
vn 0.980188 -0.182610 -0.076717
vn 0.980188 -0.182610 -0.076717
vn 0.975836 -0.181074 -0.122296
vn 0.977143 -0.181502 -0.110675
vn -0.824880 -0.437712 0.357744
vn -0.825026 -0.436620 0.358742
vn -0.712006 -0.700312 0.051095
vn -0.015583 0.722172 0.691538
vn 0.820780 0.479052 -0.311174
vn 0.820233 0.482229 -0.307689
vn 0.771228 -0.161696 -0.615680
vn 0.771228 -0.161696 -0.615680
vn 0.771228 -0.161696 -0.615680
vn 0.771228 -0.161696 -0.615680
vn 0.574101 -0.340300 0.744718
vn 0.578664 -0.341201 0.740763
vn 0.493424 -0.323081 0.807559
vn -0.776555 0.369446 -0.510364
vn -0.782859 0.369856 -0.500339
vn -0.871581 0.368973 -0.322807
vn -0.827931 -0.410577 0.382044
vn -0.827931 -0.410577 0.382044
vn -0.825026 -0.436620 0.358742
vn -0.824880 -0.437712 0.357744
vn 0.593167 -0.344007 0.727882
vn 0.593167 -0.344007 0.727882
vn 0.578664 -0.341201 0.740763
vn 0.574101 -0.340300 0.744718
vn 0.820233 0.482229 -0.307689
vn 0.820780 0.479052 -0.311174
vn 0.827945 0.410567 -0.382023
vn 0.827945 0.410567 -0.382023
vn -0.757519 0.367951 -0.539238
vn -0.757519 0.367951 -0.539238
vn -0.782859 0.369856 -0.500339
vn -0.776555 0.369446 -0.510364
vn -0.563899 -0.819143 -0.104992
vn -0.565125 -0.818308 -0.104909
vn -0.175888 -0.977253 -0.118492
vn -0.792053 0.597255 0.126252
vn 0.511487 0.851604 0.114683
vn 0.507406 0.853969 0.115220
vn 0.943665 0.288787 0.161551
vn 0.943665 0.288787 0.161551
vn 0.943665 0.288787 0.161551
vn 0.943665 0.288787 0.161551
vn -0.140211 0.040763 0.989282
vn -0.134409 0.042516 0.990013
vn -0.237838 0.010796 0.971245
vn -0.158454 -0.127108 -0.979151
vn -0.169665 -0.130190 -0.976865
vn -0.352974 -0.178845 -0.918381
vn -0.593700 -0.798081 -0.102895
vn -0.593700 -0.798081 -0.102895
vn -0.565125 -0.818308 -0.104909
vn -0.563899 -0.819143 -0.104992
vn -0.115748 0.048132 0.992112
vn -0.115748 0.048132 0.992112
vn -0.134409 0.042516 0.990013
vn -0.140211 0.040763 0.989282
vn 0.507406 0.853969 0.115220
vn 0.511487 0.851604 0.114683
vn 0.593694 0.798081 0.102922
vn 0.593694 0.798081 0.102922
vn -0.125580 -0.118002 -0.985041
vn -0.125580 -0.118002 -0.985041
vn -0.169665 -0.130190 -0.976865
vn -0.158454 -0.127108 -0.979151
vn 0.213144 -0.275967 0.937236
vn 0.212009 -0.275201 0.937719
vn 0.484532 -0.449858 0.750238
vn -0.780327 0.623098 0.053291
vn -0.253050 0.308221 -0.917042
vn -0.256209 0.310577 -0.915368
vn 0.514735 -0.153061 -0.843576
vn 0.514735 -0.153061 -0.843576
vn 0.514735 -0.153061 -0.843576
vn 0.514735 -0.153061 -0.843576
vn 0.950838 0.158476 0.266068
vn 0.952399 0.157420 0.261066
vn 0.919483 0.176050 0.351506
vn -0.994651 -0.102157 -0.015252
vn -0.994976 -0.099940 -0.005957
vn -0.987088 -0.061980 0.147701
vn 0.184834 -0.256783 0.948630
vn 0.184834 -0.256783 0.948630
vn 0.212009 -0.275201 0.937719
vn 0.213144 -0.275967 0.937236
vn 0.957205 0.154014 0.245029
vn 0.957205 0.154014 0.245029
vn 0.952399 0.157420 0.261066
vn 0.950838 0.158476 0.266068
vn -0.256209 0.310577 -0.915368
vn -0.253050 0.308221 -0.917042
vn -0.184810 0.256791 -0.948633
vn -0.184810 0.256791 -0.948633
vn -0.993176 -0.108604 -0.042500
vn -0.993176 -0.108604 -0.042500
vn -0.994976 -0.099940 -0.005957
vn -0.994651 -0.102157 -0.015252
vn -0.866589 0.016491 0.498751
vn -0.867032 0.016335 0.497985
vn -0.661395 0.071445 0.746627
vn 0.885737 -0.015652 -0.463924
vn 0.892360 -0.007852 -0.451256
vn 0.892350 -0.007863 -0.451275
vn -0.584997 -0.294785 -0.755567
vn -0.584997 -0.294785 -0.755567
vn -0.584997 -0.294785 -0.755567
vn -0.584997 -0.294785 -0.755567
vn 0.416386 -0.388006 0.822237
vn 0.416237 -0.388326 0.822162
vn 0.409457 -0.402730 0.818629
vn -0.331692 0.547364 -0.768357
vn -0.333512 0.544349 -0.769711
vn -0.223147 0.702393 -0.675906
vn -0.893459 0.006530 0.449098
vn -0.893459 0.006530 0.449098
vn -0.867032 0.016335 0.497985
vn -0.866589 0.016491 0.498751
vn 0.418134 -0.384235 0.823121
vn 0.418134 -0.384235 0.823121
vn 0.416237 -0.388326 0.822162
vn 0.416386 -0.388006 0.822237
vn 0.892350 -0.007863 -0.451275
vn 0.892360 -0.007852 -0.451256
vn 0.893460 -0.006528 -0.449095
vn 0.893460 -0.006528 -0.449095
vn -0.352492 0.511954 -0.783360
vn -0.352492 0.511954 -0.783360
vn -0.333512 0.544349 -0.769711
vn -0.331692 0.547364 -0.768357
vn -0.581608 -0.437712 -0.685668
vn -0.582605 -0.436620 -0.685518
vn -0.255402 -0.700312 -0.666583
vn -0.666334 0.722172 0.185654
vn 0.535850 0.479052 0.695251
vn 0.532357 0.482229 0.695738
vn 0.812897 -0.161696 0.559512
vn 0.812897 -0.161696 0.559512
vn 0.812897 -0.161696 0.559512
vn 0.812897 -0.161696 0.559512
vn -0.546201 -0.340300 0.765415
vn -0.541093 -0.341201 0.768636
vn -0.629740 -0.323081 0.706432
vn 0.263202 0.369446 -0.891198
vn 0.251780 0.369856 -0.894323
vn 0.056146 0.368973 -0.927742
vn -0.605748 -0.410577 -0.681539
vn -0.605748 -0.410577 -0.681539
vn -0.582605 -0.436620 -0.685518
vn -0.581608 -0.437712 -0.685668
vn -0.524558 -0.344007 0.778780
vn -0.524558 -0.344007 0.778780
vn -0.541093 -0.341201 0.768636
vn -0.546201 -0.340300 0.765415
vn 0.532357 0.482229 0.695738
vn 0.535850 0.479052 0.695251
vn 0.605732 0.410567 0.681560
vn 0.605732 0.410567 0.681560
vn 0.296356 0.367951 -0.881354
vn 0.296356 0.367951 -0.881354
vn 0.251780 0.369856 -0.894323
vn 0.263202 0.369446 -0.891198
vn -0.063069 -0.819143 -0.570112
vn -0.063504 -0.818308 -0.571262
vn 0.062385 -0.977253 -0.202694
vn -0.350545 0.597255 -0.721391
vn 0.038593 0.851604 0.522763
vn 0.036896 0.853969 0.519014
vn 0.119085 0.288787 0.949959
vn 0.119085 0.288787 0.949959
vn 0.119085 0.288787 0.949959
vn 0.119085 0.288787 0.949959
vn -0.987426 0.040763 0.152738
vn -0.986443 0.042516 0.158503
vn -0.998478 0.010796 0.054076
vn 0.891107 -0.127108 -0.435628
vn 0.885668 -0.130190 -0.445693
vn 0.776533 -0.178845 -0.604162
vn -0.073719 -0.798081 -0.598024
vn -0.073719 -0.798081 -0.598024
vn -0.063504 -0.818308 -0.571262
vn -0.063069 -0.819143 -0.570112
vn -0.983039 0.048132 0.176970
vn -0.983039 0.048132 0.176970
vn -0.986443 0.042516 0.158503
vn -0.987426 0.040763 0.152738
vn 0.036896 0.853969 0.519014
vn 0.038593 0.851604 0.522763
vn 0.073692 0.798081 0.598026
vn 0.073692 0.798081 0.598026
vn 0.906279 -0.118002 -0.405874
vn 0.906279 -0.118002 -0.405874
vn 0.885668 -0.130190 -0.445693
vn 0.891107 -0.127108 -0.435628
s off
f 6/1/1 7/2/2 3/3/3
f 3/3/4 8/4/5 9/5/6
f 4/6/7 5/7/8 2/8/9 1/9/10
f 7/2/11 8/10/12 3/3/13
f 9/11/14 6/1/15 3/3/16
f 1/12/17 2/13/18 7/2/19 6/1/20
f 2/13/21 5/14/22 8/10/23 7/2/24
f 9/5/25 8/4/26 5/7/27 4/6/28
f 4/15/29 1/12/30 6/1/31 9/11/32
f 15/16/33 16/17/34 12/18/35
f 12/18/36 17/19/37 18/20/38
f 13/21/39 14/22/40 11/23/41 10/24/42
f 16/17/43 17/25/44 12/18/45
f 18/26/46 15/16/47 12/18/48
f 10/27/49 11/28/50 16/17/51 15/16/52
f 11/28/53 14/29/54 17/25/55 16/17/56
f 18/20/57 17/19/58 14/22/59 13/21/60
f 13/30/61 10/27/62 15/16/63 18/26/64
f 24/31/65 25/32/66 21/33/67
f 21/33/68 26/34/69 27/35/70
f 22/36/71 23/37/72 20/38/73 19/39/74
f 25/32/75 26/40/76 21/33/77
f 27/41/78 24/31/79 21/33/80
f 19/42/81 20/43/82 25/32/83 24/31/84
f 20/43/85 23/44/86 26/40/87 25/32/88
f 27/35/89 26/34/90 23/37/91 22/36/92
f 22/45/93 19/42/94 24/31/95 27/41/96
f 33/46/97 34/47/98 30/48/99
f 30/48/100 35/49/101 36/50/102
f 31/51/103 32/52/104 29/53/105 28/54/106
f 34/47/107 35/55/108 30/48/109
f 36/56/110 33/46/111 30/48/112
f 28/57/113 29/58/114 34/47/115 33/46/116
f 29/58/117 32/59/118 35/55/119 34/47/120
f 36/50/121 35/49/122 32/52/123 31/51/124
f 31/60/125 28/57/126 33/46/127 36/56/128
f 42/61/129 43/62/130 39/63/131
f 39/63/132 44/64/133 45/65/134
f 40/66/135 41/67/136 38/68/137 37/69/138
f 43/62/139 44/70/140 39/63/141
f 45/71/142 42/61/143 39/63/144
f 37/72/145 38/73/146 43/62/147 42/61/148
f 38/73/149 41/74/150 44/70/151 43/62/152
f 45/65/153 44/64/154 41/67/155 40/66/156
f 40/75/157 37/72/158 42/61/159 45/71/160
f 51/76/161 52/77/162 48/78/163
f 48/78/164 53/79/165 54/80/166
f 49/81/167 50/82/168 47/83/169 46/84/170
f 52/77/171 53/85/172 48/78/173
f 54/86/174 51/76/175 48/78/176
f 46/87/177 47/88/178 52/77/179 51/76/180
f 47/88/181 50/89/182 53/85/183 52/77/184
f 54/80/185 53/79/186 50/82/187 49/81/188
f 49/90/189 46/87/190 51/76/191 54/86/192
f 60/91/193 61/92/194 57/93/195
f 57/93/196 62/94/197 63/95/198
f 58/96/199 59/97/200 56/98/201 55/99/202
f 61/92/203 62/100/204 57/93/205
f 63/101/206 60/91/207 57/93/208
f 55/102/209 56/103/210 61/92/211 60/91/212
f 56/103/213 59/104/214 62/100/215 61/92/216
f 63/95/217 62/94/218 59/97/219 58/96/220
f 58/105/221 55/102/222 60/91/223 63/101/224
f 69/106/225 70/107/226 66/108/227
f 66/108/228 71/109/229 72/110/230
f 67/111/231 68/112/232 65/113/233 64/114/234
f 70/107/235 71/115/236 66/108/237
f 72/116/238 69/106/239 66/108/240
f 64/117/241 65/118/242 70/107/243 69/106/244
f 65/118/245 68/119/246 71/115/247 70/107/248
f 72/110/249 71/109/250 68/112/251 67/111/252
f 67/120/253 64/117/254 69/106/255 72/116/256
f 78/121/257 79/122/258 75/123/259
f 75/123/260 80/124/261 81/125/262
f 76/126/263 77/127/264 74/128/265 73/129/266
f 79/122/267 80/130/268 75/123/269
f 81/131/270 78/121/271 75/123/272
f 73/132/273 74/133/274 79/122/275 78/121/276
f 74/133/277 77/134/278 80/130/279 79/122/280
f 81/125/281 80/124/282 77/127/283 76/126/284
f 76/135/285 73/132/286 78/121/287 81/131/288
f 87/136/289 88/137/290 84/138/291
f 84/138/292 89/139/293 90/140/294
f 85/141/295 86/142/296 83/143/297 82/144/298
f 88/137/299 89/145/300 84/138/301
f 90/146/302 87/136/303 84/138/304
f 82/147/305 83/148/306 88/137/307 87/136/308
f 83/148/309 86/149/310 89/145/311 88/137/312
f 90/140/313 89/139/314 86/142/315 85/141/316
f 85/150/317 82/147/318 87/136/319 90/146/320
f 96/151/321 97/152/322 93/153/323
f 93/153/324 98/154/325 99/155/326
f 94/156/327 95/157/328 92/158/329 91/159/330
f 97/152/331 98/160/332 93/153/333
f 99/161/334 96/151/335 93/153/336
f 91/162/337 92/163/338 97/152/339 96/151/340
f 92/163/341 95/164/342 98/160/343 97/152/344
f 99/155/345 98/154/346 95/157/347 94/156/348
f 94/165/349 91/162/350 96/151/351 99/161/352
f 105/166/353 106/167/354 102/168/355
f 102/168/356 107/169/357 108/170/358
f 103/171/359 104/172/360 101/173/361 100/174/362
f 106/167/363 107/175/364 102/168/365
f 108/176/366 105/166/367 102/168/368
f 100/177/369 101/178/370 106/167/371 105/166/372
f 101/178/373 104/179/374 107/175/375 106/167/376
f 108/170/377 107/169/378 104/172/379 103/171/380
f 103/180/381 100/177/382 105/166/383 108/176/384
