# This file uses centimeters as units for non-parametric coordinates.

v 177.879639 0.000000 -395.830322
v -207.584961 0.000000 -402.728333
v 166.817627 0.000000 -24.085861
v -188.607666 0.000000 -137.777649
v -1.229557 49.768097 -213.461716
v 229.430664 0.000000 546.924316
v -191.657959 0.000000 342.906158
v -152.170654 33.959759 528.582031
v 132.844482 0.000000 -725.825439
v -212.887939 0.000000 -596.750366
v 164.456055 0.000000 651.011841
v -18.400146 0.000000 725.825439
v -134.706787 0.000000 691.859253
v 52.239746 49.768097 -438.290131
v 134.990234 31.131495 -568.857910
v -100.885254 0.000000 -708.847168
v 40.812164 31.702360 -651.135681
v -98.128906 43.267632 -504.783020
v 209.366699 0.000000 -618.221802
v 180.111572 0.000000 -231.151199
v 124.152832 28.533236 -454.746674
v -93.408447 41.274155 -187.143326
v 180.749512 20.935703 519.749146
v 173.508789 0.000000 214.731522
v 97.866943 26.897572 609.725586
v -213.683350 0.000000 587.056458
v 100.177246 40.920235 160.560455
v 39.782959 29.239594 606.547974
v -38.189941 42.379772 507.235596
v 57.467041 46.514519 -27.537352
v -146.021484 23.461721 -445.316315
v 121.901855 32.857944 -224.247375
v 67.896729 46.124710 -219.126282
v -138.626556 41.477501 432.608948
v 214.693054 0.000000 459.378357
v -171.207535 21.192539 439.067444
v 165.995651 30.281063 453.976868
v 98.692947 46.604733 430.768707
v -29.416809 49.189697 442.851074
v -200.405716 0.000000 439.874512
v 52.782806 46.365154 428.636230
v 198.814758 0.000000 -543.694031
v -211.447968 0.000000 -544.065613
v 126.095016 35.676548 -544.416016
v 55.493435 45.964115 -544.595947
v -147.551315 24.633886 -544.389893
v -59.803432 39.150490 -617.227112
v -189.671860 8.145930 -544.172302
vt 0.176730 0.298037
vt 0.176730 0.298037
vt 0.176730 0.298037
vt 0.176730 0.298037
vt 0.176730 0.298037
vt 0.176730 0.298037
vt 0.176730 0.298037
vt 0.176730 0.298037
vt 0.176730 0.298037
vt 0.176730 0.298037
vt 0.176730 0.298037
vt 0.176730 0.298037
vt 0.176730 0.298037
vt 0.176730 0.298037
vt 0.176730 0.298037
vt 0.176730 0.298037
vt 0.176730 0.298037
vt 0.176730 0.298037
vt 0.176730 0.298037
vt 0.176730 0.298037
vt 0.176730 0.298037
vt 0.176730 0.298037
vt 0.176730 0.298037
vt 0.176730 0.298037
vt 0.176730 0.298037
vt 0.176730 0.298037
vt 0.176730 0.298037
vt 0.176730 0.298037
vt 0.176730 0.298037
vt 0.176730 0.298037
vt 0.176730 0.298037
vt 0.176730 0.298037
vt 0.176730 0.298037
vt 0.176730 0.298037
vt 0.176730 0.298037
vt 0.176730 0.298037
vt 0.176730 0.298037
vt 0.176730 0.298037
vt 0.176730 0.298037
vt 0.176730 0.298037
vt 0.176730 0.298037
vt 0.176730 0.298037
vt 0.176730 0.298037
vt 0.176730 0.298037
vt 0.176730 0.298037
vt 0.176730 0.298037
vt 0.176730 0.298037
vt 0.176730 0.298037
vn -0.030678 0.905925 -0.422325
vn -0.030678 0.905925 -0.422325
vn -0.030678 0.905925 -0.422325
vn -0.056358 0.926984 -0.370843
vn -0.056358 0.926984 -0.370843
vn -0.056358 0.926984 -0.370843
vn 0.137975 0.979506 -0.146736
vn 0.137975 0.979506 -0.146736
vn 0.137975 0.979506 -0.146736
vn 0.137975 0.979506 -0.146736
vn -0.028297 0.998736 -0.041544
vn -0.028297 0.998736 -0.041544
vn -0.028297 0.998736 -0.041544
vn -0.028297 0.998736 -0.041544
vn -0.385539 0.922278 0.027615
vn -0.385539 0.922278 0.027615
vn -0.385539 0.922278 0.027615
vn 0.425975 0.902164 0.068157
vn 0.425974 0.902164 0.068157
vn 0.425974 0.902164 0.068157
vn 0.425974 0.902164 0.068157
vn 0.268479 0.944174 -0.190929
vn 0.268479 0.944174 -0.190929
vn 0.268479 0.944174 -0.190929
vn 0.597975 0.800595 0.038391
vn 0.597975 0.800595 0.038391
vn 0.597975 0.800595 0.038391
vn 0.239539 0.970824 0.011065
vn 0.239539 0.970824 0.011065
vn 0.239539 0.970824 0.011065
vn -0.086557 0.976542 0.197166
vn -0.086557 0.976541 0.197166
vn -0.086557 0.976542 0.197166
vn 0.025373 0.967998 0.249671
vn 0.025373 0.967998 0.249671
vn 0.025373 0.967998 0.249671
vn -0.036215 0.980458 0.193368
vn -0.036215 0.980458 0.193368
vn -0.036215 0.980458 0.193368
vn -0.529703 0.848142 -0.008317
vn -0.529703 0.848142 -0.008317
vn -0.529704 0.848142 -0.008317
vn -0.398883 0.916999 -0.002531
vn -0.398883 0.916999 -0.002531
vn -0.398883 0.916999 -0.002531
vn 0.241873 0.970120 -0.019080
vn 0.241873 0.970120 -0.019080
vn 0.241873 0.970120 -0.019080
vn 0.475037 0.879154 -0.037788
vn 0.475037 0.879154 -0.037788
vn 0.475037 0.879154 -0.037788
vn 0.475037 0.879154 -0.037788
vn 0.495031 0.868765 -0.013870
vn 0.495031 0.868765 -0.013870
vn 0.495031 0.868765 -0.013870
vn -0.428166 0.898950 0.092541
vn -0.428166 0.898950 0.092541
vn -0.428166 0.898950 0.092541
vn -0.428166 0.898950 0.092541
vn -0.428166 0.898950 0.092541
vn -0.061188 0.975888 0.209518
vn -0.061188 0.975888 0.209518
vn -0.061188 0.975889 0.209518
vn 0.298524 0.936033 0.186348
vn 0.298524 0.936033 0.186348
vn 0.298524 0.936033 0.186348
vn 0.267867 0.945706 0.184085
vn 0.267867 0.945706 0.184085
vn 0.267867 0.945706 0.184085
vn 0.147839 0.920639 0.361342
vn 0.147839 0.920639 0.361342
vn 0.147839 0.920639 0.361342
vn -0.039085 0.999193 -0.009295
vn -0.039085 0.999193 -0.009295
vn -0.039085 0.999193 -0.009295
vn -0.351805 0.936046 0.007113
vn -0.351805 0.936046 0.007113
vn -0.351805 0.936046 0.007113
vn -0.370089 0.928927 0.011330
vn -0.370089 0.928927 0.011330
vn -0.370089 0.928927 0.011330
vn -0.089608 0.995948 0.007582
vn -0.089608 0.995948 0.007582
vn -0.089608 0.995948 0.007582
vn 0.175194 0.965264 -0.193836
vn 0.175194 0.965264 -0.193836
vn 0.175194 0.965264 -0.193836
vn 0.014836 0.994548 0.103223
vn 0.014836 0.994548 0.103223
vn 0.014836 0.994548 0.103223
vn 0.014836 0.994548 0.103223
vn 0.034459 0.999406 0.000681
vn 0.034459 0.999406 0.000681
vn 0.034459 0.999406 0.000681
vn -0.067934 0.994525 0.079405
vn -0.067934 0.994525 0.079405
vn -0.067934 0.994525 0.079405
vn -0.067934 0.994525 0.079405
vn 0.122994 0.992406 0.001588
vn 0.122994 0.992406 0.001588
vn 0.122994 0.992406 0.001588
vn 0.046286 0.998924 0.002868
vn 0.046286 0.998924 0.002868
vn 0.046286 0.998924 0.002868
vn -0.364390 0.931098 0.016643
vn -0.364390 0.931098 0.016643
vn -0.364390 0.931098 0.016643
vn -0.364390 0.931098 0.016643
vn -0.350308 0.936586 0.009575
vn -0.350308 0.936586 0.009575
vn -0.350308 0.936586 0.009575
vn -0.350308 0.936586 0.009575
vn 0.484259 0.874873 -0.009551
vn 0.484259 0.874873 -0.009551
vn 0.484259 0.874873 -0.009551
vn 0.484259 0.874873 -0.009551
vn 0.262767 0.964815 -0.009296
vn 0.262767 0.964815 -0.009296
vn 0.262767 0.964815 -0.009296
vn 0.262767 0.964815 -0.009296
vn 0.053672 0.998477 0.012764
vn 0.053672 0.998477 0.012764
vn 0.053672 0.998477 0.012764
vn 0.355304 0.934751 0.000475
vn 0.355304 0.934751 0.000475
vn 0.355304 0.934751 0.000475
vn 0.355304 0.934751 0.000475
vn 0.052702 0.998610 0.000837
vn 0.052702 0.998610 0.000837
vn 0.052702 0.998610 0.000837
vn -0.093785 0.995567 -0.007169
vn -0.093785 0.995567 -0.007169
vn -0.093785 0.995567 -0.007169
vn -0.568001 0.821840 -0.044212
vn -0.568001 0.821840 -0.044212
vn -0.568001 0.821840 -0.044212
vn -0.568001 0.821839 -0.044212
vn 0.191465 0.975872 0.104952
vn 0.191465 0.975872 0.104952
vn 0.191465 0.975872 0.104952
vn 0.191465 0.975872 0.104952
vn 0.534213 0.840586 -0.089616
vn 0.534213 0.840586 -0.089616
vn 0.534213 0.840586 -0.089616
vn 0.534213 0.840586 -0.089616
vn -0.587534 0.807462 -0.053003
vn -0.587534 0.807462 -0.053003
vn -0.587534 0.807462 -0.053003
vn -0.004239 0.999769 -0.021056
vn -0.004239 0.999769 -0.021056
vn -0.004239 0.999769 -0.021056
vn 0.044757 0.993757 0.102191
vn 0.044757 0.993757 0.102191
vn 0.044757 0.993757 0.102191
vn 0.044757 0.993757 0.102191
vn -0.070243 0.997528 -0.002138
vn -0.070243 0.997528 -0.002138
vn -0.070243 0.997528 -0.002138
vn 0.144198 0.989064 -0.030979
vn 0.144198 0.989064 -0.030979
vn 0.144198 0.989064 -0.030979
vn 0.027361 0.990285 -0.136333
vn 0.027361 0.990285 -0.136333
vn 0.027361 0.990285 -0.136333
vn -0.261407 0.957211 -0.124146
vn -0.261407 0.957212 -0.124146
vn -0.261407 0.957211 -0.124147
vn 0.299496 0.950549 0.082210
vn 0.299496 0.950549 0.082210
vn 0.299496 0.950549 0.082210
vn 0.424617 0.904403 0.041902
vn 0.424617 0.904403 0.041902
vn 0.424617 0.904403 0.041902
vn 0.424617 0.904403 0.041902
vn -0.364389 0.931098 0.016643
vn -0.364389 0.931098 0.016643
vn -0.364389 0.931098 0.016643
vn -0.350308 0.936586 0.009575
vn -0.350308 0.936586 0.009575
vn -0.350308 0.936586 0.009575
vn -0.269002 0.938400 -0.216894
vn -0.269002 0.938400 -0.216894
vn -0.269002 0.938400 -0.216894
vn -0.269002 0.938400 -0.216894
s off
f 9/1/1 16/2/2 17/3/3
f 17/3/4 16/2/5 47/47/6
f 15/5/7 17/3/8 45/45/9 44/44/10
f 18/7/11 14/6/12 45/45/13 47/47/14
f 22/8/15 2/9/16 4/10/17
f 1/12/18 42/42/19 44/44/20 21/11/21
f 9/1/22 15/5/23 19/13/24
f 3/14/25 20/15/26 27/16/27
f 30/17/28 32/18/29 33/19/30
f 28/20/31 29/21/32 12/22/33
f 25/23/34 28/20/35 12/22/36
f 8/24/37 12/22/38 29/21/39
f 8/24/40 34/34/41 36/36/42
f 4/10/43 7/26/44 22/8/45
f 27/16/46 38/38/47 37/37/48
f 6/28/49 35/35/50 37/37/51 23/27/52
f 3/14/53 27/16/54 24/29/55
f 8/24/56 36/36/57 40/40/58 26/30/59 13/31/60
f 8/24/61 13/31/62 12/22/63
f 6/28/64 23/27/65 11/32/66
f 25/23/67 11/32/68 23/27/69
f 12/22/70 11/32/71 25/23/72
f 18/7/73 5/25/74 14/6/75
f 2/9/76 22/8/77 31/33/78
f 18/7/79 31/33/80 22/8/81
f 18/7/82 22/8/83 5/25/84
f 9/1/85 17/3/86 15/5/87
f 25/23/88 38/38/89 41/41/90 28/20/91
f 30/17/92 39/39/93 41/41/94
f 8/24/95 29/21/96 39/39/97 34/34/98
f 27/16/99 30/17/100 41/41/101
f 5/25/102 39/39/103 30/17/104
f 18/7/105 46/46/106 48/48/107 31/33/108
f 2/9/109 31/33/110 48/48/111 43/43/112
f 1/12/113 21/11/114 32/18/115 20/15/116
f 33/19/117 32/18/118 21/11/119 14/6/120
f 5/25/121 33/19/122 14/6/123
f 27/16/124 20/15/125 32/18/126 30/17/127
f 30/17/128 33/19/129 5/25/130
f 34/34/131 5/25/132 22/8/133
f 36/36/134 34/34/135 22/8/136 7/26/137
f 37/37/138 38/38/139 25/23/140 23/27/141
f 37/37/142 35/35/143 24/29/144 27/16/145
f 40/40/146 36/36/147 7/26/148
f 41/41/149 38/38/150 27/16/151
f 41/41/152 39/39/153 29/21/154 28/20/155
f 34/34/156 39/39/157 5/25/158
f 44/44/159 45/45/160 14/6/161
f 47/47/162 45/45/163 17/3/164
f 47/47/165 46/46/166 18/7/167
f 44/44/168 14/6/169 21/11/170
f 44/44/171 42/42/172 19/13/173 15/5/174
f 48/48/175 46/46/176 10/4/177
f 43/43/178 48/48/179 10/4/180
f 47/47/181 16/2/182 10/4/183 46/46/184
