# This file uses centimeters as units for non-parametric coordinates.

v 12.029541 -2.331722 -34.376511
v 32.903320 -2.331722 -34.205940
v 16.356689 6.943017 -37.412682
v 29.715088 7.776588 -37.394173
v 18.236572 8.812378 -46.319641
v 26.623291 7.776588 -47.917595
v 15.048340 -2.331722 -49.507881
v 29.811523 -2.331722 -51.105839
v 24.080811 8.812378 -34.366287
v 24.070068 -2.331722 -31.178057
v -20.243896 -3.621018 -5.683716
v -32.182617 -3.621018 -9.579300
v -14.644775 4.749594 -13.806965
v -14.857422 7.325661 -26.594606
v -6.701416 -3.621020 -27.786394
v -36.193359 -3.621018 -26.261297
v -20.996094 -3.621018 -38.888397
v -28.199463 7.362408 -27.053217
v -8.432373 -3.621018 -11.112705
v -26.645508 6.703393 -17.347492
v 18.545410 5.934362 20.669724
v 4.441895 6.426143 15.589828
v 26.733154 13.842812 5.787331
v 14.534912 13.622395 6.131882
v 29.332764 9.077456 -7.303360
v 8.289795 9.077456 -4.765972
v 33.808594 9.077456 12.652847
v 18.045166 -3.518590 20.769920
v 36.193359 -3.518590 13.725906
v 31.027832 -3.518590 -9.940891
v 5.757813 -3.518590 -6.574402
v 3.045654 -3.518590 15.344162
v 5.314697 -3.574827 51.105843
v -3.960693 -3.574827 46.844009
v 5.594482 6.070668 44.323204
v -2.599854 -3.574827 35.845947
v 12.671875 -3.574827 46.032028
v 10.079834 -3.574827 34.156731
v -1.291016 4.923819 44.236359
v 3.169922 5.577185 36.219650
vt 0.005584 0.379833
vt 0.005584 0.379833
vt 0.005584 0.379833
vt 0.005584 0.379833
vt 0.005584 0.379833
vt 0.005584 0.379833
vt 0.005584 0.379833
vt 0.005584 0.379833
vt 0.005584 0.379833
vt 0.005584 0.379833
vt 0.005584 0.379833
vt 0.005584 0.379833
vt 0.005584 0.379833
vt 0.005584 0.379833
vt 0.005584 0.379833
vt 0.005584 0.379833
vt 0.005584 0.379833
vt 0.005584 0.379833
vt 0.005584 0.379833
vt 0.005584 0.379833
vt 0.005584 0.379833
vt 0.005584 0.379833
vt 0.005584 0.379833
vt 0.005584 0.379833
vt 0.005584 0.379833
vt 0.005584 0.379833
vt 0.005584 0.379833
vt 0.005584 0.379833
vt 0.005584 0.379833
vt 0.005584 0.379833
vt 0.005584 0.379833
vt 0.005584 0.379833
vt 0.005584 0.379833
vt 0.005584 0.379833
vt 0.005584 0.379833
vt 0.005584 0.379833
vt 0.005584 0.379833
vt 0.005584 0.379833
vt 0.005584 0.379833
vt 0.005584 0.379833
vn 0.385386 0.317567 0.866389
vn 0.385386 0.317567 0.866389
vn 0.385386 0.317567 0.866389
vn 0.385386 0.317567 0.866389
vn 0.129344 0.990265 -0.051423
vn 0.129344 0.990265 -0.051423
vn 0.129344 0.990265 -0.051423
vn 0.129344 0.990265 -0.051423
vn -0.118530 0.285353 -0.951065
vn -0.118530 0.285353 -0.951065
vn -0.118530 0.285353 -0.951065
vn -0.118530 0.285353 -0.951065
vn 0.932373 0.294077 -0.210238
vn 0.932373 0.294077 -0.210238
vn 0.932373 0.294077 -0.210238
vn 0.932373 0.294077 -0.210238
vn -0.925657 0.341905 -0.162048
vn -0.925657 0.341905 -0.162048
vn -0.925657 0.341905 -0.162048
vn -0.925657 0.341905 -0.162048
vn -0.284411 0.948564 0.139054
vn -0.284411 0.948565 0.139054
vn -0.284411 0.948564 0.139054
vn -0.312487 0.337109 0.888093
vn -0.312487 0.337109 0.888093
vn -0.312487 0.337109 0.888093
vn -0.312487 0.337109 0.888093
vn 0.357735 0.516013 0.778303
vn 0.357735 0.516013 0.778303
vn 0.357735 0.516013 0.778303
vn 0.795382 0.598875 0.093356
vn 0.795382 0.598875 0.093356
vn 0.795382 0.598875 0.093356
vn 0.795383 0.598875 0.093356
vn 0.025130 0.740339 -0.671764
vn 0.025130 0.740339 -0.671764
vn 0.025130 0.740339 -0.671764
vn -0.795295 0.578209 0.182154
vn -0.795295 0.578209 0.182154
vn -0.795295 0.578209 0.182154
vn -0.795295 0.578209 0.182154
vn -0.161581 0.693263 0.702338
vn -0.161581 0.693263 0.702338
vn -0.161581 0.693263 0.702338
vn -0.161581 0.693263 0.702338
vn -0.591370 0.379090 -0.711739
vn -0.591370 0.379090 -0.711739
vn -0.591370 0.379090 -0.711739
vn 0.101347 0.975584 0.194846
vn 0.101347 0.975584 0.194846
vn 0.101347 0.975584 0.194846
vn 0.000422 0.997707 0.067676
vn 0.000422 0.997707 0.067676
vn 0.000422 0.997707 0.067676
vn 0.539045 0.477189 -0.694062
vn 0.539045 0.477189 -0.694062
vn 0.539045 0.477189 -0.694062
vn 0.088379 0.858641 0.504901
vn 0.088379 0.858641 0.504901
vn 0.088379 0.858641 0.504901
vn -0.148034 0.856802 0.493939
vn -0.148034 0.856802 0.493939
vn -0.148034 0.856802 0.493939
vn -0.026733 0.937622 -0.346628
vn -0.026733 0.937622 -0.346628
vn -0.026733 0.937622 -0.346628
vn -0.043780 0.930732 -0.363072
vn -0.043780 0.930732 -0.363073
vn -0.043780 0.930732 -0.363072
vn 0.645537 0.749880 -0.144783
vn 0.645537 0.749880 -0.144783
vn 0.645537 0.749880 -0.144783
vn -0.583310 0.812237 -0.004472
vn -0.583310 0.812237 -0.004472
vn -0.583310 0.812237 -0.004472
vn -0.002747 0.883684 0.468075
vn -0.002747 0.883684 0.468075
vn -0.002747 0.883684 0.468075
vn 0.403038 0.082945 0.911417
vn 0.403038 0.082945 0.911417
vn 0.403038 0.082945 0.911417
vn 0.403038 0.082945 0.911417
vn -0.124470 0.176454 -0.976407
vn -0.124470 0.176454 -0.976407
vn -0.124470 0.176454 -0.976407
vn -0.124470 0.176454 -0.976407
vn 0.962380 0.169066 -0.212701
vn 0.962380 0.169066 -0.212701
vn 0.962380 0.169066 -0.212701
vn 0.962380 0.169066 -0.212701
vn -0.973276 0.182336 -0.139596
vn -0.973276 0.182336 -0.139596
vn -0.973276 0.182336 -0.139596
vn -0.973276 0.182336 -0.139596
vn -0.339031 0.026094 0.940413
vn -0.339031 0.026094 0.940413
vn -0.339031 0.026094 0.940413
vn -0.339031 0.026094 0.940413
vn 0.494834 0.490204 0.717524
vn 0.494834 0.490204 0.717524
vn 0.494834 0.490203 0.717523
vn -0.259797 0.476824 0.839729
vn -0.259797 0.476824 0.839729
vn -0.259797 0.476824 0.839729
vn -0.259797 0.476824 0.839729
vn -0.884078 0.390150 -0.257273
vn -0.884078 0.390150 -0.257273
vn -0.884078 0.390150 -0.257273
vn -0.884078 0.390150 -0.257273
vn -0.131057 0.122792 -0.983741
vn -0.131057 0.122792 -0.983741
vn -0.131057 0.122792 -0.983741
vn -0.164152 0.986374 -0.010953
vn -0.164152 0.986374 -0.010953
vn -0.164152 0.986374 -0.010953
vn 0.782311 0.586094 -0.210911
vn 0.782311 0.586094 -0.210911
vn 0.782311 0.586094 -0.210911
vn 0.782311 0.586094 -0.210911
vn 0.000000 -1.000000 0.000000
vn 0.000000 -1.000000 0.000000
vn 0.000000 -1.000000 0.000000
vn 0.000000 -1.000000 0.000000
vn -0.000000 -1.000000 -0.000000
vn -0.000000 -1.000000 0.000000
vn -0.000000 -1.000000 0.000000
vn -0.000000 -1.000000 -0.000000
vn 0.000000 -1.000000 0.000000
vn 0.000000 -1.000000 0.000000
vn 0.000000 -1.000000 0.000000
vn 0.000000 -1.000000 0.000000
vn 0.000000 -1.000000 0.000000
vn 0.000000 -1.000000 0.000000
vn -0.000000 -1.000000 0.000000
vn -0.000000 -1.000000 0.000000
vn 0.000000 -1.000000 0.000000
vn 0.000000 -1.000000 0.000000
vn 0.000000 -1.000000 0.000000
vn 0.000000 -1.000000 0.000000
vn 0.000000 -1.000000 0.000000
vn 0.000000 -1.000000 0.000000
vn 0.000000 -1.000000 0.000000
vn 0.000000 -1.000000 0.000000
vn 0.000000 -1.000000 0.000000
vn 0.000000 -1.000000 0.000000
vn 0.000000 -1.000000 0.000000
vn 0.000000 -1.000000 0.000000
vn 0.000000 -1.000000 0.000000
s off
f 9/1/1 10/2/2 2/3/3 4/4/4
f 5/5/5 9/1/6 4/4/7 6/6/8
f 5/5/9 6/6/10 8/7/11 7/8/12
f 2/3/13 8/7/14 6/6/15 4/4/16
f 7/8/17 1/9/18 3/10/19 5/5/20
f 3/10/21 9/1/22 5/5/23
f 1/9/24 10/2/25 9/1/26 3/10/27
f 11/11/28 19/12/29 13/13/30
f 15/14/31 14/15/32 13/13/33 19/12/34
f 18/16/35 14/15/36 17/17/37
f 18/16/38 16/18/39 12/19/40 20/20/41
f 11/11/42 13/13/43 20/20/44 12/19/45
f 16/18/46 18/16/47 17/17/48
f 20/20/49 13/13/50 14/15/51
f 18/16/52 20/20/53 14/15/54
f 17/17/55 14/15/56 15/14/57
f 21/21/58 27/22/59 23/23/60
f 22/24/61 21/21/62 24/25/63
f 24/25/64 23/23/65 25/26/66
f 24/25/67 25/26/68 26/27/69
f 27/22/70 25/26/71 23/23/72
f 26/27/73 22/24/74 24/25/75
f 21/21/76 23/23/77 24/25/78
f 27/22/79 21/21/80 28/28/81 29/29/82
f 26/27/83 25/26/84 30/30/85 31/31/86
f 25/26/87 27/22/88 29/29/89 30/30/90
f 22/24/91 26/27/92 31/31/93 32/32/94
f 21/21/95 22/24/96 32/32/97 28/28/98
f 33/33/99 37/34/100 35/35/101
f 34/36/102 33/33/103 35/35/104 39/37/105
f 36/38/106 34/36/107 39/37/108 40/39/109
f 36/38/110 40/39/111 38/40/112
f 40/39/113 39/37/114 35/35/115
f 40/39/116 35/35/117 37/34/118 38/40/119
f 10/2/120 7/8/121 8/7/122 2/3/123
f 17/17/124 15/14/125 12/19/126 16/18/127
f 30/30/128 32/32/129 31/31/130
f 34/36/131 36/38/132 38/40/133
f 12/19/134 15/14/135 19/12/136 11/11/137
f 28/28/138 32/32/139 30/30/140 29/29/141
f 34/36/142 38/40/143 37/34/144 33/33/145
f 10/2/146 1/9/147 7/8/148
