# This file uses centimeters as units for non-parametric coordinates.

v -29.037598 -10.681904 24.871460
v -36.058044 -10.681904 -12.711426
v -19.647339 -10.681904 -37.293213
v 29.037354 -10.681904 -24.871094
v 37.630127 -10.681904 9.648010
v 7.020386 -10.681904 37.582947
v 0.000000 -35.611977 0.000000
v -20.899658 12.411320 -24.400085
v 28.174805 12.411320 -24.132385
v 34.986694 11.480659 12.334106
v 6.811829 11.480659 36.466431
v -28.175110 11.480659 24.132568
v -14.447998 45.490704 -16.207397
v 20.181335 46.893032 -12.613342
v 23.799561 45.168102 5.771484
v 4.863953 42.071377 26.226929
v -19.827271 41.703609 17.581299
v 40.647644 -22.241419 22.161133
v 36.839783 -22.241419 29.103271
v 45.873779 -7.546009 36.194275
v 50.307678 -7.546009 27.960510
v -44.538269 -23.426466 17.266418
v -48.435059 -21.532944 7.579712
v -54.264832 -5.873255 7.918518
v -50.944275 -5.323614 21.272461
v -2.526733 -27.632383 -46.685303
v 10.570923 -27.632383 -44.250732
v 8.136475 -7.555000 -50.928345
v -0.579224 -7.554998 -51.226318
v -11.077515 45.246151 -11.855957
v -15.353577 42.235760 15.002991
v 4.273743 42.528103 21.875488
v 19.325867 44.989712 5.615234
v 16.449707 46.360882 -8.999023
vt 0.026799 0.251196
vt 0.026799 0.251196
vt 0.026799 0.251196
vt 0.026799 0.251196
vt 0.026799 0.251196
vt 0.026799 0.251196
vt 0.026799 0.251196
vt 0.026799 0.251196
vt 0.026799 0.251196
vt 0.026799 0.251196
vt 0.026799 0.251196
vt 0.026799 0.251196
vt 0.026799 0.251196
vt 0.026799 0.251196
vt 0.026799 0.251196
vt 0.026799 0.251196
vt 0.026799 0.251196
vt 0.026799 0.251196
vt 0.026799 0.251196
vt 0.026799 0.251196
vt 0.026799 0.251196
vt 0.026799 0.251196
vt 0.026799 0.251196
vt 0.026799 0.251196
vt 0.026799 0.251196
vt 0.026799 0.251196
vt 0.026799 0.251196
vt 0.026799 0.251196
vt 0.026799 0.251196
vt 0.026799 0.251196
vt 0.026799 0.251196
vt 0.026799 0.251196
vt 0.026799 0.251196
vt 0.026799 0.251196
vt 0.026799 0.251196
vt 0.026799 0.251196
vt 0.026799 0.251196
vt 0.026799 0.251196
vt 0.026799 0.251196
vt 0.026799 0.251196
vt 0.026799 0.251196
vt 0.026799 0.251196
vt 0.026799 0.251196
vt 0.026799 0.251196
vt 0.026799 0.251196
vt 0.039612 0.300945
vt 0.039612 0.300945
vt 0.039612 0.300945
vt 0.039612 0.300945
vt 0.039612 0.300945
vn -0.591269 -0.798876 0.110448
vn -0.591269 -0.798876 0.110448
vn -0.591269 -0.798876 0.110448
vn -0.464328 -0.829644 -0.309984
vn -0.464328 -0.829644 -0.309984
vn -0.464328 -0.829644 -0.309984
vn 0.154097 -0.781994 -0.603937
vn 0.154097 -0.781994 -0.603937
vn 0.154097 -0.781994 -0.603937
vn 0.571775 -0.807970 -0.142331
vn 0.571775 -0.807970 -0.142331
vn 0.571775 -0.807970 -0.142331
vn -0.199982 -0.798876 0.567278
vn -0.199982 -0.798876 0.567278
vn -0.199982 -0.798876 0.567278
vn 0.039541 0.280696 -0.958982
vn 0.039541 0.280696 -0.958982
vn 0.039541 0.280696 -0.958982
vn 0.039541 0.280696 -0.958982
vn 0.945979 0.278267 -0.166408
vn 0.945979 0.278267 -0.166408
vn 0.945979 0.278267 -0.166408
vn 0.945979 0.278267 -0.166408
vn 0.641649 0.314035 0.699763
vn 0.641649 0.314035 0.699763
vn 0.641649 0.314035 0.699763
vn 0.641649 0.314035 0.699763
vn -0.319615 0.283290 0.904209
vn -0.319615 0.283290 0.904209
vn -0.319615 0.283290 0.904209
vn -0.319615 0.283290 0.904209
vn -0.964036 0.228885 -0.135078
vn -0.964036 0.228885 -0.135078
vn -0.964036 0.228885 -0.135078
vn -0.964036 0.228885 -0.135078
vn -0.803966 0.256059 -0.536724
vn -0.803966 0.256059 -0.536724
vn -0.803966 0.256059 -0.536724
vn 0.119827 -0.265793 -0.956554
vn 0.119827 -0.265793 -0.956554
vn 0.119827 -0.265793 -0.956554
vn 0.119827 -0.265793 -0.956554
vn 0.973419 0.091307 -0.210046
vn 0.973419 0.091307 -0.210046
vn 0.973419 0.091307 -0.210046
vn 0.973419 0.091307 -0.210046
vn 0.696863 -0.609224 0.378454
vn 0.696863 -0.609224 0.378454
vn 0.696863 -0.609224 0.378454
vn 0.696863 -0.609224 0.378454
vn -0.332147 0.044339 0.942185
vn -0.332147 0.044339 0.942185
vn -0.332147 0.044339 0.942185
vn -0.332147 0.044339 0.942185
vn -0.896642 -0.358403 0.259963
vn -0.896642 -0.358403 0.259963
vn -0.896642 -0.358403 0.259963
vn -0.896642 -0.358403 0.259963
vn -0.470887 -0.749890 -0.464683
vn -0.470887 -0.749890 -0.464683
vn -0.470887 -0.749890 -0.464683
vn -0.470887 -0.749890 -0.464683
vn 0.048990 -0.171234 0.984012
vn 0.048990 -0.171234 0.984012
vn 0.048990 -0.171234 0.984012
vn 0.048990 -0.171234 0.984012
vn 0.430945 0.791061 0.434176
vn 0.430945 0.791061 0.434176
vn 0.430945 0.791061 0.434176
vn 0.430945 0.791061 0.434176
vn 0.824033 -0.026584 -0.565917
vn 0.824033 -0.026584 -0.565917
vn 0.824033 -0.026584 -0.565917
vn 0.824033 -0.026584 -0.565917
vn 0.591159 -0.788837 -0.168131
vn 0.591159 -0.788837 -0.168131
vn 0.591159 -0.788836 -0.168131
vn 0.591159 -0.788836 -0.168131
vn -0.751151 -0.012485 -0.660012
vn -0.751151 -0.012485 -0.660012
vn -0.751151 -0.012485 -0.660012
vn -0.751151 -0.012485 -0.660012
vn -0.540868 0.840594 -0.029389
vn -0.540868 0.840594 -0.029389
vn -0.540868 0.840594 -0.029389
vn -0.540868 0.840594 -0.029389
vn -0.186151 -0.104895 0.976906
vn -0.186151 -0.104895 0.976906
vn -0.186151 -0.104895 0.976906
vn -0.186151 -0.104895 0.976906
vn -0.181157 -0.632176 0.753350
vn -0.181157 -0.632176 0.753350
vn -0.181157 -0.632176 0.753350
vn -0.181157 -0.632176 0.753350
vn 0.778205 -0.026883 -0.627435
vn 0.778205 -0.026883 -0.627435
vn 0.778205 -0.026883 -0.627435
vn 0.778205 -0.026883 -0.627435
vn 0.005846 0.802035 -0.597248
vn 0.005846 0.802035 -0.597248
vn 0.005846 0.802035 -0.597248
vn 0.005846 0.802035 -0.597248
vn -0.599364 0.161340 -0.784049
vn -0.599363 0.161340 -0.784049
vn -0.599363 0.161340 -0.784049
vn -0.599363 0.161340 -0.784049
vn 0.410338 -0.793383 0.449629
vn 0.410338 -0.793383 0.449629
vn 0.410338 -0.793383 0.449629
vn -0.050940 0.993353 0.103227
vn -0.050940 0.993353 0.103226
vn -0.050940 0.993353 0.103226
vn -0.059428 0.993024 0.101839
vn -0.059428 0.993024 0.101839
vn -0.059428 0.993024 0.101839
vn -0.059428 0.993024 0.101839
vn -0.053805 0.992312 0.111450
vn -0.053805 0.992312 0.111450
vn -0.053805 0.992312 0.111450
vn -0.053805 0.992312 0.111450
vn -0.043439 0.992970 0.110112
vn -0.043439 0.992969 0.110112
vn -0.043439 0.992969 0.110112
vn -0.043439 0.992969 0.110112
vn -0.043184 0.993873 0.101747
vn -0.043184 0.993873 0.101747
vn -0.043184 0.993873 0.101747
vn -0.043184 0.993873 0.101747
vn -0.050088 0.994248 0.094674
vn -0.050088 0.994248 0.094674
vn -0.050088 0.994248 0.094674
vn -0.050088 0.994248 0.094674
vn -0.050940 0.993353 0.103226
vn -0.050940 0.993353 0.103226
vn -0.050940 0.993353 0.103226
vn -0.050940 0.993353 0.103226
s off
f 2/2/1 7/14/2 1/1/3
f 3/3/4 7/14/5 2/2/6
f 4/4/7 7/14/8 3/3/9
f 5/5/10 7/14/11 4/4/12
f 1/1/13 7/14/14 6/6/15
f 8/15/16 13/21/17 14/22/18 9/16/19
f 9/16/20 14/22/21 15/23/22 10/17/23
f 10/17/24 15/23/25 16/24/26 11/18/27
f 11/18/28 16/24/29 17/25/30 12/19/31
f 12/20/32 17/26/33 13/21/34 8/15/35
f 2/8/36 8/15/37 3/9/38
f 26/37/39 29/40/40 28/39/41 27/38/42
f 4/10/43 9/16/44 10/17/45 5/11/46
f 18/32/47 21/31/48 20/30/49 19/29/50
f 6/12/51 11/18/52 12/19/53 1/13/54
f 22/33/55 25/36/56 24/35/57 23/34/58
f 19/28/59 6/6/60 5/5/61 18/27/62
f 6/12/63 19/29/64 20/30/65 11/18/66
f 11/18/67 20/30/68 21/31/69 10/17/70
f 10/17/71 21/31/72 18/32/73 5/11/74
f 1/7/75 22/33/76 23/34/77 2/8/78
f 2/8/79 23/34/80 24/35/81 8/15/82
f 8/15/83 24/35/84 25/36/85 12/20/86
f 12/20/87 25/36/88 22/33/89 1/7/90
f 3/9/91 26/37/92 27/38/93 4/10/94
f 4/10/95 27/38/96 28/39/97 9/16/98
f 9/16/99 28/39/100 29/40/101 8/15/102
f 8/15/103 29/40/104 26/37/105 3/9/106
f 6/6/107 7/14/108 5/5/109
f 30/46/110 31/47/111 34/50/112
f 13/21/113 17/25/114 31/42/115 30/41/116
f 17/25/117 16/24/118 32/43/119 31/42/120
f 16/24/121 15/23/122 33/44/123 32/43/124
f 15/23/125 14/22/126 34/45/127 33/44/128
f 14/22/129 13/21/130 30/41/131 34/45/132
f 34/50/133 31/47/134 32/48/135 33/49/136
