# This file uses centimeters as units for non-parametric coordinates.

v -1.377876 -59.489449 2.556533
v 4.891945 -59.489449 3.330016
v -9.171127 74.483887 37.581379
v -2.706612 -59.489449 0.411977
v 4.483994 -59.489449 -4.356760
v -6.701845 49.272339 21.022970
v -1.378099 52.615910 20.668512
v -0.412505 57.194698 16.097853
v -8.162231 53.140205 17.228159
v 3.292809 -59.489449 -5.495792
v 6.836533 -59.489449 -0.709921
v 31.310364 69.261810 19.148510
v 6.361183 -59.489449 -7.955067
v 9.904724 -59.489449 -3.169403
v 18.470856 52.581810 12.161366
v 19.979908 44.998306 14.379911
v 24.260838 42.949471 10.434775
v 22.751770 50.533031 8.216599
v 2.306427 -59.489445 -6.140574
v 9.085548 -59.489445 -7.718474
v 7.702118 89.785942 -37.581379
v 1.654381 -59.489445 -9.501942
v 8.432755 -59.489449 -11.079885
v 6.279915 77.532745 -25.240219
v 11.894730 75.334808 -26.004799
v 10.683105 61.233299 -29.718039
v 5.068367 63.431129 -28.953457
v -1.266785 -59.489449 -1.243889
v -5.721107 -59.489449 -6.679039
v -18.266624 117.112488 4.288349
v -4.205772 -59.489449 0.812011
v -8.659790 -59.489449 -4.622487
v -8.556152 92.710083 0.858786
v -11.791260 92.124176 -3.863401
v -16.128540 80.495079 -0.828518
v -12.893402 81.080872 3.893650
v 1.834869 -59.489449 -4.582343
v -2.928741 -59.489449 -9.075677
v -22.948792 87.229897 -18.619450
v -0.737694 -59.489445 -1.610766
v -5.501144 -59.489449 -6.103940
v -10.600548 61.740650 -15.846081
v -13.215164 46.503201 -18.735796
v -16.875755 43.687904 -14.268880
v -14.261223 58.925575 -11.379397
v 2.376831 -59.489445 -2.208933
v -0.960251 -59.489449 -8.372010
v 35.333488 54.252029 -16.970716
v 1.415489 -59.489449 0.054462
v 0.734528 -59.489445 -6.734598
v 26.370325 37.146744 -8.622872
v 20.503942 34.451683 -12.545890
v 19.002359 42.589668 -7.089025
v 25.479156 42.909149 -5.406542
v -5.234680 -59.489449 -0.979997
v -6.836555 -59.489449 2.512549
v -41.594467 38.033482 7.074241
v 2.116974 -59.489449 -0.415408
v -2.413376 -59.489449 7.590771
v -26.101053 26.069242 5.562102
v -25.285460 22.387411 11.808211
v -21.722849 26.871265 12.628535
v -22.538311 30.554066 6.381998
v -0.034286 -59.432201 -5.290516
v 3.804314 -59.461613 -5.297753
v 2.907669 159.428345 -10.201244
v -0.042168 -59.517269 -9.128265
v 3.796387 -59.546680 -9.135504
v 0.887711 142.217712 -11.834936
v 0.895576 142.332825 -7.997187
v 4.734161 142.293045 -8.004425
v 4.726303 142.177917 -11.842175
v -1.484009 138.017670 -14.105391
v -1.466484 138.273315 -5.581675
v 7.059082 138.184937 -5.597751
v 7.041557 137.929291 -14.121468
v -1.667870 105.374664 -13.570184
v -1.650352 105.630310 -5.046467
v 6.875229 105.541946 -5.062543
v 6.857674 105.286324 -13.586261
v 0.643822 98.924255 -11.125105
v 0.651703 99.039360 -7.287357
v 4.490303 98.999573 -7.294595
v 4.482407 98.884460 -11.132344
vt 0.176424 0.229543
vt 0.176424 0.229543
vt 0.176424 0.229543
vt 0.176424 0.229543
vt 0.176424 0.229543
vt 0.176424 0.229543
vt 0.176424 0.229543
vt 0.176424 0.229543
vt 0.176424 0.229543
vt 0.176424 0.229543
vt 0.176424 0.229543
vt 0.176424 0.229543
vt 0.176424 0.229543
vt 0.176424 0.229543
vt 0.176424 0.229543
vt 0.176424 0.229543
vt 0.176424 0.229543
vt 0.176424 0.229543
vt 0.176424 0.229543
vt 0.176424 0.229543
vt 0.176424 0.229543
vt 0.176424 0.229543
vt 0.176424 0.229543
vt 0.176424 0.229543
vt 0.176424 0.229543
vt 0.176424 0.229543
vt 0.176424 0.229543
vt 0.176424 0.229543
vt 0.176424 0.229543
vt 0.176424 0.229543
vt 0.176424 0.229543
vt 0.176424 0.229543
vt 0.176424 0.229543
vt 0.176424 0.229543
vt 0.176424 0.229543
vt 0.176424 0.229543
vt 0.176424 0.229543
vt 0.176424 0.229543
vt 0.176424 0.229543
vt 0.176424 0.229543
vt 0.176424 0.229543
vt 0.176424 0.229543
vt 0.176424 0.229543
vt 0.176424 0.229543
vt 0.176424 0.229543
vt 0.176424 0.229543
vt 0.176424 0.229543
vt 0.176424 0.229543
vt 0.176424 0.229543
vt 0.176424 0.229543
vt 0.176424 0.229543
vt 0.176424 0.229543
vt 0.176424 0.229543
vt 0.176424 0.229543
vt 0.176424 0.229543
vt 0.176424 0.229543
vt 0.176424 0.229543
vt 0.176424 0.229543
vt 0.176424 0.229543
vt 0.176424 0.229543
vt 0.176424 0.229543
vt 0.176424 0.229543
vt 0.176424 0.229543
vt 0.176424 0.229543
vt 0.176424 0.229543
vt 0.176424 0.229543
vt 0.176424 0.229543
vt 0.176424 0.229543
vt 0.176424 0.229543
vt 0.176424 0.229543
vt 0.176424 0.229543
vt 0.176424 0.229543
vt 0.176424 0.229543
vt 0.176424 0.229543
vt 0.176424 0.229543
vt 0.176424 0.229543
vt 0.176424 0.229543
vt 0.176424 0.229543
vt 0.176424 0.229543
vt 0.176424 0.229543
vt 0.176424 0.229543
vt 0.176424 0.229543
vt 0.176424 0.229543
vt 0.176424 0.229543
vt 0.176424 0.229543
vt 0.176424 0.229543
vt 0.176424 0.229543
vt 0.176424 0.229543
vt 0.176424 0.229543
vt 0.176424 0.229543
vt 0.176424 0.229543
vt 0.176424 0.229543
vt 0.176424 0.229543
vt 0.176424 0.229543
vt 0.176424 0.229543
vt 0.176424 0.229543
vt 0.176424 0.229543
vt 0.176424 0.229543
vt 0.176424 0.229543
vt 0.176424 0.229543
vt 0.176424 0.229543
vt 0.176424 0.229543
vt 0.176424 0.229543
vt 0.176424 0.229543
vt 0.176424 0.229543
vt 0.048985 0.320530
vt 0.048985 0.320530
vt 0.048985 0.320530
vt 0.048985 0.320530
vt 0.048985 0.320530
vt 0.046669 0.327849
vt 0.046669 0.327849
vt 0.046669 0.327849
vt 0.046669 0.327849
vt 0.015886 0.303353
vt 0.015886 0.303353
vt 0.015886 0.303353
vt 0.015886 0.303353
vt 0.015886 0.303353
vt 0.015886 0.303353
vt 0.015886 0.303353
vt 0.015886 0.303353
vt 0.015886 0.303353
vt 0.015886 0.303353
vt 0.015886 0.303353
vt 0.015886 0.303353
vt 0.015886 0.303353
vt 0.015886 0.303353
vt 0.015886 0.303353
vt 0.015886 0.303353
vt 0.046669 0.327849
vt 0.046669 0.327849
vt 0.046669 0.327849
vt 0.046669 0.327849
vt 0.046669 0.327849
vt 0.046669 0.327849
vt 0.046669 0.327849
vt 0.046669 0.327849
vt 0.046669 0.327849
vt 0.046669 0.327849
vn 0.365166 -0.275967 0.889098
vn 0.364127 -0.275201 0.889762
vn 0.601902 -0.449858 0.659804
vn -0.760777 0.623098 0.181571
vn -0.401185 0.308221 -0.862584
vn -0.404023 0.310577 -0.860411
vn 0.368181 -0.153061 -0.917069
vn 0.368181 -0.153061 -0.917069
vn 0.368181 -0.153061 -0.917069
vn 0.368181 -0.153061 -0.917069
vn 0.981742 0.158476 0.105201
vn 0.982455 0.157419 0.100010
vn 0.964945 0.176050 0.194648
vn -0.983485 -0.102157 0.149406
vn -0.982268 -0.099940 0.158627
vn -0.949084 -0.061980 0.308866
vn 0.339130 -0.256783 0.905016
vn 0.339130 -0.256783 0.905016
vn 0.364127 -0.275201 0.889762
vn 0.365166 -0.275967 0.889098
vn 0.984543 0.154014 0.083400
vn 0.984543 0.154014 0.083400
vn 0.982455 0.157419 0.100010
vn 0.981742 0.158476 0.105201
vn -0.404023 0.310577 -0.860411
vn -0.401185 0.308221 -0.862584
vn -0.339107 0.256791 -0.905022
vn -0.339107 0.256791 -0.905022
vn -0.986535 -0.108604 0.122289
vn -0.986535 -0.108604 0.122289
vn -0.982268 -0.099940 0.158627
vn -0.983485 -0.102157 0.149406
vn -0.772203 0.016491 0.635162
vn -0.772767 0.016335 0.634480
vn -0.528851 0.071445 0.845702
vn 0.796845 -0.015652 -0.603980
vn 0.805472 -0.007852 -0.592582
vn 0.805459 -0.007863 -0.592599
vn -0.701865 -0.294785 -0.648449
vn -0.701865 -0.294785 -0.648449
vn -0.701865 -0.294785 -0.648449
vn -0.701865 -0.294785 -0.648449
vn 0.546598 -0.388006 0.742080
vn 0.546439 -0.388326 0.742029
vn 0.539168 -0.402730 0.739667
vn -0.454161 0.547364 -0.702944
vn -0.456180 0.544349 -0.703977
vn -0.331825 0.702393 -0.629711
vn -0.806912 0.006530 0.590635
vn -0.806912 0.006530 0.590635
vn -0.772767 0.016335 0.634480
vn -0.772203 0.016491 0.635162
vn 0.548468 -0.384235 0.742662
vn 0.548468 -0.384235 0.742662
vn 0.546439 -0.388326 0.742029
vn 0.546598 -0.388006 0.742080
vn 0.805459 -0.007863 -0.592599
vn 0.805472 -0.007852 -0.592582
vn 0.806915 -0.006528 -0.590632
vn 0.806915 -0.006528 -0.590632
vn -0.477156 0.511954 -0.714301
vn -0.477156 0.511954 -0.714301
vn -0.456180 0.544349 -0.703977
vn -0.454161 0.547364 -0.702944
vn 0.233684 0.280633 0.930933
vn 0.233164 0.278041 0.931841
vn 0.297750 0.752881 0.586954
vn -0.229143 -0.368081 -0.901116
vn -0.226148 -0.252435 -0.940816
vn -0.226183 -0.253292 -0.940577
vn 0.353919 -0.350060 0.867294
vn 0.353919 -0.350060 0.867294
vn 0.353919 -0.350060 0.867294
vn 0.353919 -0.350060 0.867294
vn 0.971705 -0.029448 -0.234357
vn 0.970527 -0.027509 -0.239417
vn 0.942851 0.009070 -0.333090
vn -0.993189 0.088396 0.075900
vn -0.992944 0.086518 0.081092
vn -0.992039 0.123705 -0.023568
vn 0.225721 0.241690 0.943735
vn 0.225721 0.241690 0.943735
vn 0.233164 0.278041 0.931841
vn 0.233684 0.280633 0.930933
vn 0.975153 -0.035432 -0.218681
vn 0.975153 -0.035432 -0.218681
vn 0.970527 -0.027509 -0.239417
vn 0.971705 -0.029448 -0.234357
vn -0.226183 -0.253292 -0.940577
vn -0.226148 -0.252435 -0.940816
vn -0.225707 -0.241690 -0.943739
vn -0.225707 -0.241690 -0.943739
vn -0.992132 0.081435 0.095091
vn -0.992132 0.081435 0.095091
vn -0.992944 0.086518 0.081092
vn -0.993189 0.088396 0.075900
vn 0.802614 0.103087 -0.587524
vn 0.802815 0.100998 -0.587612
vn 0.703329 0.478518 -0.525689
vn -0.805495 -0.170892 0.567427
vn -0.805635 -0.080104 0.586971
vn -0.805660 -0.080795 0.586842
vn 0.455668 -0.491811 -0.741949
vn 0.455668 -0.491811 -0.741949
vn 0.455668 -0.491811 -0.741949
vn 0.455668 -0.491811 -0.741949
vn -0.621046 0.036967 -0.782902
vn -0.624025 0.039348 -0.780413
vn -0.678162 0.084437 -0.730046
vn 0.524627 0.035585 0.850588
vn 0.527891 0.033256 0.848661
vn 0.460444 0.079809 0.884094
vn 0.805278 0.071414 -0.588581
vn 0.805278 0.071414 -0.588581
vn 0.802815 0.100998 -0.587612
vn 0.802614 0.103087 -0.587524
vn -0.611781 0.029621 -0.790473
vn -0.611781 0.029621 -0.790473
vn -0.624025 0.039348 -0.780413
vn -0.621046 0.036967 -0.782902
vn -0.805660 -0.080795 0.586842
vn -0.805635 -0.080104 0.586971
vn -0.805286 -0.071413 0.588570
vn -0.805286 -0.071413 0.588570
vn 0.536655 0.026966 0.843371
vn 0.536655 0.026966 0.843371
vn 0.527891 0.033256 0.848661
vn 0.524627 0.035585 0.850588
vn 0.652903 0.036240 -0.756574
vn 0.653488 0.035962 -0.756082
vn 0.410292 0.136145 -0.901734
vn -0.681116 -0.029639 0.731575
vn -0.688128 -0.020065 0.725312
vn -0.688118 -0.020079 0.725321
vn 0.775022 -0.479321 0.411816
vn 0.775022 -0.479321 0.411816
vn 0.775022 -0.479321 0.411816
vn 0.775022 -0.479321 0.411816
vn -0.705364 -0.211472 -0.676565
vn -0.705253 -0.211739 -0.676598
vn -0.700164 -0.223742 -0.678019
vn 0.642491 0.341889 0.685796
vn 0.643828 0.339449 0.685755
vn 0.563213 0.469229 0.680158
vn 0.689303 0.018443 -0.724238
vn 0.689303 0.018443 -0.724238
vn 0.653488 0.035962 -0.756082
vn 0.652903 0.036240 -0.756574
vn -0.706678 -0.208319 -0.676173
vn -0.706678 -0.208319 -0.676173
vn -0.705253 -0.211739 -0.676598
vn -0.705364 -0.211472 -0.676565
vn -0.688118 -0.020079 0.725321
vn -0.688128 -0.020065 0.725312
vn -0.689305 -0.018441 0.724237
vn -0.689305 -0.018441 0.724237
vn 0.657798 0.313215 0.684980
vn 0.657798 0.313215 0.684980
vn 0.643828 0.339449 0.685755
vn 0.642491 0.341889 0.685796
vn 0.361532 -0.443585 -0.820078
vn 0.363139 -0.442931 -0.819721
vn -0.068584 -0.559696 -0.825855
vn 0.799169 0.488620 0.350114
vn -0.298817 0.471912 0.829463
vn -0.293903 0.473879 0.830096
vn -0.966096 0.021878 0.257256
vn -0.966096 0.021878 0.257256
vn -0.966096 0.021878 0.257256
vn -0.966096 0.021878 0.257256
vn -0.256378 0.183796 -0.948941
vn -0.262035 0.183912 -0.947372
vn -0.159355 0.180868 -0.970512
vn 0.533264 -0.181502 0.826248
vn 0.543095 -0.181074 0.819915
vn 0.697415 -0.170090 0.696191
vn 0.401055 -0.426960 -0.810469
vn 0.401055 -0.426960 -0.810469
vn 0.363139 -0.442931 -0.819721
vn 0.361532 -0.443585 -0.820078
vn -0.280153 0.184242 -0.942109
vn -0.280153 0.184242 -0.942109
vn -0.262035 0.183912 -0.947372
vn -0.256378 0.183796 -0.948941
vn -0.293903 0.473879 0.830096
vn -0.298817 0.471912 0.829463
vn -0.401069 0.426972 0.810456
vn -0.401069 0.426972 0.810456
vn 0.504195 -0.182610 0.844062
vn 0.504195 -0.182610 0.844062
vn 0.543095 -0.181074 0.819915
vn 0.533264 -0.181502 0.826248
vn -0.686967 -0.437712 -0.580073
vn -0.687926 -0.436620 -0.579760
vn -0.362095 -0.700312 -0.615183
vn -0.626469 0.722172 0.293266
vn 0.643423 0.479052 0.597089
vn 0.640059 0.482229 0.598147
vn 0.894215 -0.161696 0.417414
vn 0.894215 -0.161696 0.417414
vn 0.894215 -0.161696 0.417414
vn 0.894215 -0.161696 0.417414
vn -0.412136 -0.340300 0.845187
vn -0.406566 -0.341201 0.847518
vn -0.504277 -0.323081 0.800827
vn 0.112236 0.369446 -0.922449
vn 0.100454 0.369856 -0.923643
vn -0.098012 0.368973 -0.924258
vn -0.710093 -0.410577 -0.572010
vn -0.710093 -0.410577 -0.572010
vn -0.687926 -0.436620 -0.579760
vn -0.686967 -0.437712 -0.580073
vn -0.388582 -0.344007 0.854789
vn -0.388582 -0.344007 0.854789
vn -0.406566 -0.341201 0.847518
vn -0.412136 -0.340300 0.845187
vn 0.640059 0.482229 0.598147
vn 0.643423 0.479052 0.597089
vn 0.710080 0.410567 0.572033
vn 0.710080 0.410567 0.572033
vn 0.146561 0.367951 -0.918222
vn 0.146561 0.367951 -0.918222
vn 0.100454 0.369856 -0.923643
vn 0.112236 0.369446 -0.922449
vn 0.003170 0.171324 0.985210
vn 0.003170 0.171324 0.985210
vn 0.003170 0.171324 0.985210
vn -0.000893 0.127504 -0.991838
vn -0.000893 0.127504 -0.991838
vn -0.000893 0.127504 -0.991838
vn -0.007618 -0.999725 0.022176
vn -0.007618 -0.999725 0.022176
vn -0.007618 -0.999725 0.022176
vn -0.007618 -0.999725 0.022176
vn 0.989876 0.141839 -0.005172
vn 0.989876 0.141839 -0.005172
vn 0.989876 0.141839 -0.005172
vn -0.987599 0.156989 -0.001456
vn -0.987599 0.156989 -0.001456
vn -0.987599 0.156989 -0.001456
vn -0.790376 0.612506 -0.011958
vn -0.790376 0.612506 -0.011958
vn -0.790376 0.612506 -0.011958
vn -0.790376 0.612506 -0.011958
vn 0.006255 0.624033 0.781373
vn 0.006255 0.624033 0.781373
vn 0.006255 0.624033 0.781373
vn 0.006255 0.624032 0.781373
vn 0.799619 0.600322 -0.014952
vn 0.799619 0.600322 -0.014952
vn 0.799619 0.600322 -0.014952
vn 0.799619 0.600322 -0.014952
vn 0.002987 0.588796 -0.808276
vn 0.002987 0.588796 -0.808276
vn 0.002987 0.588796 -0.808276
vn 0.002987 0.588796 -0.808276
vn -0.999969 0.007661 0.001886
vn -0.999969 0.007661 0.001886
vn -0.999969 0.007661 0.001886
vn -0.999969 0.007661 0.001886
vn 0.002055 0.022159 0.999752
vn 0.002055 0.022159 0.999752
vn 0.002055 0.022159 0.999752
vn 0.002055 0.022159 0.999752
vn 0.999969 -0.007661 -0.001888
vn 0.999969 -0.007661 -0.001888
vn 0.999969 -0.007661 -0.001888
vn 0.999969 -0.007661 -0.001888
vn -0.002055 -0.022159 -0.999752
vn -0.002055 -0.022159 -0.999752
vn -0.002055 -0.022159 -0.999752
vn -0.002055 -0.022159 -0.999752
vn -0.902057 -0.431467 0.011420
vn -0.902057 -0.431467 0.011420
vn -0.902057 -0.431467 0.011420
vn -0.902057 -0.431467 0.011420
vn -0.001493 -0.418441 0.908243
vn -0.001493 -0.418441 0.908243
vn -0.001493 -0.418441 0.908243
vn -0.001493 -0.418441 0.908243
vn 0.895374 -0.445243 0.008028
vn 0.895374 -0.445243 0.008028
vn 0.895374 -0.445243 0.008028
vn 0.895374 -0.445243 0.008028
vn -0.005187 -0.458271 -0.888797
vn -0.005187 -0.458271 -0.888797
vn -0.005187 -0.458271 -0.888797
vn -0.005187 -0.458271 -0.888797
vn -0.999969 0.007661 0.001884
vn -0.999969 0.007661 0.001884
vn -0.999969 0.007661 0.001884
vn -0.999969 0.007661 0.001884
vn 0.002055 0.022159 0.999752
vn 0.002055 0.022159 0.999752
vn 0.002055 0.022159 0.999752
vn 0.002055 0.022159 0.999752
vn 0.999969 -0.007661 -0.001892
vn 0.999969 -0.007661 -0.001892
vn 0.999969 -0.007661 -0.001892
vn 0.999969 -0.007661 -0.001892
vn -0.002055 -0.022159 -0.999752
vn -0.002055 -0.022159 -0.999752
vn -0.002055 -0.022159 -0.999752
vn -0.002055 -0.022159 -0.999752
s off
f 6/1/1 7/2/2 3/3/3
f 3/3/4 8/4/5 9/5/6
f 4/6/7 5/7/8 2/8/9 1/9/10
f 7/2/11 8/10/12 3/3/13
f 9/11/14 6/1/15 3/3/16
f 1/12/17 2/13/18 7/2/19 6/1/20
f 2/13/21 5/14/22 8/10/23 7/2/24
f 9/5/25 8/4/26 5/7/27 4/6/28
f 4/15/29 1/12/30 6/1/31 9/11/32
f 15/16/33 16/17/34 12/18/35
f 12/18/36 17/19/37 18/20/38
f 13/21/39 14/22/40 11/23/41 10/24/42
f 16/17/43 17/25/44 12/18/45
f 18/26/46 15/16/47 12/18/48
f 10/27/49 11/28/50 16/17/51 15/16/52
f 11/28/53 14/29/54 17/25/55 16/17/56
f 18/20/57 17/19/58 14/22/59 13/21/60
f 13/30/61 10/27/62 15/16/63 18/26/64
f 24/31/65 25/32/66 21/33/67
f 21/33/68 26/34/69 27/35/70
f 22/36/71 23/37/72 20/38/73 19/39/74
f 25/32/75 26/40/76 21/33/77
f 27/41/78 24/31/79 21/33/80
f 19/42/81 20/43/82 25/32/83 24/31/84
f 20/43/85 23/44/86 26/40/87 25/32/88
f 27/35/89 26/34/90 23/37/91 22/36/92
f 22/45/93 19/42/94 24/31/95 27/41/96
f 33/46/97 34/47/98 30/48/99
f 30/48/100 35/49/101 36/50/102
f 31/51/103 32/52/104 29/53/105 28/54/106
f 34/47/107 35/55/108 30/48/109
f 36/56/110 33/46/111 30/48/112
f 28/57/113 29/58/114 34/47/115 33/46/116
f 29/58/117 32/59/118 35/55/119 34/47/120
f 36/50/121 35/49/122 32/52/123 31/51/124
f 31/60/125 28/57/126 33/46/127 36/56/128
f 42/61/129 43/62/130 39/63/131
f 39/63/132 44/64/133 45/65/134
f 40/66/135 41/67/136 38/68/137 37/69/138
f 43/62/139 44/70/140 39/63/141
f 45/71/142 42/61/143 39/63/144
f 37/72/145 38/73/146 43/62/147 42/61/148
f 38/73/149 41/74/150 44/70/151 43/62/152
f 45/65/153 44/64/154 41/67/155 40/66/156
f 40/75/157 37/72/158 42/61/159 45/71/160
f 51/76/161 52/77/162 48/78/163
f 48/78/164 53/79/165 54/80/166
f 49/81/167 50/82/168 47/83/169 46/84/170
f 52/77/171 53/85/172 48/78/173
f 54/86/174 51/76/175 48/78/176
f 46/87/177 47/88/178 52/77/179 51/76/180
f 47/88/181 50/89/182 53/85/183 52/77/184
f 54/80/185 53/79/186 50/82/187 49/81/188
f 49/90/189 46/87/190 51/76/191 54/86/192
f 60/91/193 61/92/194 57/93/195
f 57/93/196 62/94/197 63/95/198
f 58/96/199 59/97/200 56/98/201 55/99/202
f 61/92/203 62/100/204 57/93/205
f 63/101/206 60/91/207 57/93/208
f 55/102/209 56/103/210 61/92/211 60/91/212
f 56/103/213 59/104/214 62/100/215 61/92/216
f 63/95/217 62/94/218 59/97/219 58/96/220
f 58/105/221 55/102/222 60/91/223 63/101/224
f 70/106/225 71/107/226 66/108/227
f 66/108/228 72/109/229 69/110/230
f 67/111/231 68/112/232 65/113/233 64/114/234
f 71/107/235 72/109/236 66/108/237
f 69/110/238 70/106/239 66/108/240
f 73/115/241 74/116/242 70/117/243 69/118/244
f 74/116/245 75/119/246 71/120/247 70/117/248
f 75/119/249 76/121/250 72/122/251 71/120/252
f 69/118/253 72/122/254 76/121/255 73/115/256
f 77/123/257 78/124/258 74/116/259 73/115/260
f 78/124/261 79/125/262 75/119/263 74/116/264
f 79/125/265 80/126/266 76/121/267 75/119/268
f 73/115/269 76/121/270 80/126/271 77/123/272
f 81/127/273 82/128/274 78/124/275 77/123/276
f 82/128/277 83/129/278 79/125/279 78/124/280
f 83/129/281 84/130/282 80/126/283 79/125/284
f 77/123/285 80/126/286 84/130/287 81/127/288
f 67/131/289 64/132/290 82/133/291 81/134/292
f 64/132/293 65/135/294 83/136/295 82/133/296
f 65/135/297 68/137/298 84/138/299 83/136/300
f 81/139/301 84/140/302 68/112/303 67/111/304
