# This file uses centimeters as units for non-parametric coordinates.

v 10.601810 -6.373754 -17.625456
v -10.985383 -6.373754 -18.649429
v -20.352125 -6.373754 1.788288
v -10.176064 -6.373754 15.837167
v 12.320211 -6.373754 16.322332
v 19.106750 -6.373754 0.000000
v 7.298175 6.684653 -9.853095
v -8.059043 2.131966 -10.701835
v -12.434735 2.131966 1.091134
v -5.185015 5.966147 8.946621
v 9.167037 4.711941 8.652726
v 12.601792 4.711941 0.975146
v 0.281405 9.317985 2.696529
v -2.518559 7.599346 -4.748517
vt 0.015676 0.327158
vt 0.015676 0.327158
vt 0.015676 0.327158
vt 0.015676 0.327158
vt 0.015676 0.327158
vt 0.015676 0.327158
vt 0.015676 0.327158
vt 0.015676 0.327158
vt 0.015676 0.327158
vt 0.015676 0.327158
vt 0.015676 0.327158
vt 0.015676 0.327158
vt 0.015676 0.327158
vt 0.015676 0.327158
vt 0.015676 0.327158
vt 0.015676 0.327158
vt 0.015676 0.327158
vt 0.015676 0.327158
vt 0.015676 0.327158
vt 0.015676 0.327158
vt 0.015676 0.327158
vt 0.015676 0.327158
vn -0.031557 0.588423 -0.807937
vn -0.031557 0.588423 -0.807937
vn -0.031557 0.588423 -0.807937
vn -0.031557 0.588423 -0.807937
vn -0.734654 0.601802 -0.313240
vn -0.734654 0.601802 -0.313240
vn -0.734654 0.601802 -0.313240
vn -0.734654 0.601802 -0.313240
vn -0.682430 0.583052 0.440841
vn -0.682430 0.583051 0.440841
vn -0.682430 0.583051 0.440841
vn -0.682430 0.583051 0.440841
vn 0.013529 0.527075 0.849711
vn 0.013529 0.527075 0.849711
vn 0.013529 0.527075 0.849711
vn 0.013529 0.527075 0.849711
vn 0.816576 0.460717 0.347770
vn 0.816576 0.460717 0.347770
vn 0.816576 0.460717 0.347770
vn 0.816576 0.460717 0.347770
vn 0.810769 0.460367 -0.361548
vn 0.810769 0.460367 -0.361548
vn 0.810769 0.460367 -0.361548
vn 0.810769 0.460367 -0.361548
vn -0.563734 0.799032 -0.209169
vn -0.563734 0.799032 -0.209169
vn -0.563734 0.799032 -0.209169
vn -0.209689 0.809551 -0.548323
vn -0.209689 0.809551 -0.548323
vn -0.209689 0.809551 -0.548323
vn 0.084676 0.845374 0.527421
vn 0.084676 0.845374 0.527421
vn 0.084676 0.845374 0.527421
vn 0.365431 0.916369 0.163485
vn 0.365431 0.916369 0.163485
vn 0.365431 0.916369 0.163485
vn -0.494863 0.868349 0.032870
vn -0.494863 0.868349 0.032870
vn -0.494863 0.868349 0.032870
vn 0.350083 0.936718 -0.000816
vn 0.350083 0.936718 -0.000816
vn 0.350083 0.936718 -0.000816
vn -0.021924 0.975917 -0.217038
vn -0.021924 0.975917 -0.217038
vn -0.021924 0.975917 -0.217038
vn -0.490313 0.871385 -0.016755
vn -0.490313 0.871385 -0.016755
vn -0.490313 0.871385 -0.016755
s off
f 1/1/1 2/2/2 8/9/3 7/8/4
f 2/2/5 3/3/6 9/10/7 8/9/8
f 3/3/9 4/4/10 10/11/11 9/10/12
f 4/4/13 5/5/14 11/12/15 10/11/16
f 5/5/17 6/6/18 12/13/19 11/12/20
f 6/6/21 1/7/22 7/14/23 12/13/24
f 8/18/25 9/17/26 14/22/27
f 8/18/28 14/22/29 7/19/30
f 13/21/31 10/16/32 11/15/33
f 12/20/34 13/21/35 11/15/36
f 13/21/37 9/17/38 10/16/39
f 7/19/40 13/21/41 12/20/42
f 7/19/43 14/22/44 13/21/45
f 14/22/46 9/17/47 13/21/48
