# This file uses centimeters as units for non-parametric coordinates.

v 96.029572 -1.193369 54.710537
v 108.190140 -1.193369 26.066963
v 62.579556 -1.193369 -6.589915
v 60.207500 -1.193369 -69.551018
v 5.256775 -1.193369 -114.679253
v -30.927853 -1.193369 -109.643875
v -80.402405 -1.193369 -44.509537
v -70.939926 -1.193369 0.011027
v -91.581200 -1.193369 51.775036
v -69.128128 -1.193369 80.594223
v -16.079475 -1.193369 60.498161
v 41.184578 -1.193369 61.179596
v 59.069042 78.770622 37.879585
v 69.240891 78.770622 14.138924
v 53.165440 78.770622 -2.608939
v 44.796371 78.770622 -38.362534
v 9.538743 78.770622 -67.479370
v -60.102596 78.770622 28.236603
v -40.901276 78.770622 52.882019
v -14.820035 78.770622 50.354767
v 37.203598 78.770622 51.765404
v 11.390285 78.770622 57.030037
v 11.615314 -1.193369 91.420532
v 21.538380 78.770622 -51.664536
v 25.338585 -1.193369 -60.777325
v -38.412514 -1.193369 -55.185768
v 51.913921 77.742493 31.311707
v 59.905674 77.742493 14.388370
v -0.420092 77.742493 -0.042955
v 45.701065 77.742493 -0.410418
v 38.144085 77.742493 -32.380032
v 18.717316 77.742493 -45.824577
v 8.114232 77.742493 -59.798927
v -51.746399 77.742493 26.105614
v -37.238335 77.742493 44.736473
v -14.192322 77.742493 42.503361
v 9.750175 77.742493 50.220314
v 32.778366 77.742493 44.916817
v 3.645743 29.031139 -87.332939
v -23.937918 46.391983 -77.569603
v -59.025555 49.889038 -23.567286
v -69.604263 37.203415 35.442711
v -41.558640 53.549545 59.159546
v 12.208881 41.772278 62.097725
v 74.924210 21.634899 46.025642
v 80.955780 37.203415 16.737530
v 46.580280 54.348259 -41.531593
v -88.875809 -1.193369 -28.735279
v 29.162786 -1.193369 89.729614
v 77.567551 -1.193369 -43.810940
v 104.810059 -50.012859 61.350578
v 118.187744 -50.012859 29.840012
v 0.000000 -64.349838 0.000000
v 62.579556 -19.510014 -6.589915
v 84.500214 -50.012859 -47.031944
v 65.402542 -50.012859 -75.348434
v 25.338585 -19.510014 -60.777325
v 4.951724 -50.012859 -124.993607
v -34.854706 -50.012859 -119.454201
v -38.412514 -19.510014 -55.185768
v -89.281189 -50.012859 -47.800613
v -98.602669 -50.012859 -30.447346
v -70.939926 -19.510014 0.011027
v -101.578842 -50.012859 58.121269
v -76.878433 -50.012859 89.824936
v -16.079475 -19.510014 60.498161
v 31.250515 -50.012859 99.874695
v 41.184578 -19.510014 61.179596
v 11.946709 -50.012859 101.734886
v -32.482307 83.144852 50.858082
v -30.960581 83.200974 44.987514
v 46.601997 82.932022 -22.414133
v 42.383720 82.317581 -19.932943
v -16.708878 82.954338 -56.090618
v -2.887236 82.989044 -1.479127
v -26.806234 82.958496 -42.212456
v -44.871117 82.919518 -24.246326
v -52.454529 82.907188 2.847499
v -51.900246 82.970154 23.631252
v -21.084145 83.951157 -62.639832
v -32.041878 83.946487 -46.755493
v -60.283432 83.786087 2.191452
v -59.630318 83.939026 25.667076
v -50.374836 83.846008 -27.435398
v -47.603279 86.489204 -8.931070
v -54.998074 88.150635 -10.105693
vt 0.037657 0.227786
vt 0.037657 0.227786
vt 0.037657 0.227786
vt 0.037657 0.227786
vt 0.037657 0.227786
vt 0.037657 0.227786
vt 0.037657 0.227786
vt 0.037657 0.227786
vt 0.037657 0.227786
vt 0.037657 0.227786
vt 0.037657 0.227786
vt 0.037657 0.227786
vt 0.037657 0.227786
vt 0.037657 0.227786
vt 0.037657 0.227786
vt 0.037657 0.227786
vt 0.037657 0.227786
vt 0.037657 0.227786
vt 0.037657 0.227786
vt 0.037657 0.227786
vt 0.037657 0.227786
vt 0.037657 0.227786
vt 0.037657 0.227786
vt 0.037657 0.227786
vt 0.037657 0.227786
vt 0.037657 0.227786
vt 0.037657 0.227786
vt 0.037657 0.227786
vt 0.037657 0.227786
vt 0.037657 0.227786
vt 0.037657 0.227786
vt 0.037657 0.227786
vt 0.037657 0.227786
vt 0.037657 0.227786
vt 0.037657 0.227786
vt 0.037657 0.227786
vt 0.037657 0.227786
vt 0.037657 0.227786
vt 0.037657 0.227786
vt 0.037657 0.227786
vt 0.037657 0.227786
vt 0.037657 0.227786
vt 0.037657 0.227786
vt 0.037657 0.227786
vt 0.037657 0.227786
vt 0.038437 0.301846
vt 0.037657 0.227786
vt 0.037657 0.227786
vt 0.037657 0.227786
vt 0.037657 0.227786
vt 0.037657 0.227786
vt 0.037657 0.227786
vt 0.037657 0.227786
vt 0.037657 0.227786
vt 0.037657 0.227786
vt 0.037657 0.227786
vt 0.037657 0.227786
vt 0.037657 0.227786
vt 0.037657 0.227786
vt 0.037657 0.227786
vt 0.037657 0.227786
vt 0.037657 0.227786
vt 0.037657 0.227786
vt 0.037657 0.227786
vt 0.037657 0.227786
vt 0.037657 0.227786
vt 0.037657 0.227786
vt 0.037657 0.227786
vt 0.037657 0.227786
vt 0.037657 0.227786
vt 0.037657 0.227786
vt 0.038437 0.301846
vt 0.038436 0.301846
vt 0.038436 0.301846
vt 0.038436 0.301846
vt 0.038437 0.301846
vt 0.038437 0.301846
vt 0.038437 0.301846
vt 0.038437 0.301846
vt 0.038437 0.301846
vt 0.038436 0.301846
vt 0.038436 0.301846
vt 0.038437 0.301846
vt 0.038437 0.301846
vt 0.038437 0.301846
vt 0.038437 0.301846
vt 0.037657 0.227786
vt 0.037657 0.227786
vt 0.037657 0.227786
vt 0.037657 0.227786
vt 0.037657 0.227786
vt 0.037657 0.227786
vt 0.037657 0.227786
vt 0.037657 0.227786
vt 0.037657 0.227786
vt 0.037657 0.227786
vt 0.037657 0.227786
vt 0.037657 0.227786
vt 0.037657 0.227786
vt 0.037657 0.227786
vt 0.037657 0.227786
vt 0.037657 0.227786
vt 0.037657 0.227786
vt 0.037657 0.227786
vt 0.037657 0.227786
vt 0.037657 0.227786
vt 0.037657 0.227786
vt 0.037657 0.227786
vt 0.037657 0.227786
vt 0.037657 0.227786
vt 0.037657 0.227786
vt 0.037657 0.227786
vt 0.037657 0.227786
vt 0.037657 0.227786
vt 0.037657 0.227786
vt 0.037657 0.227786
vt 0.037657 0.227786
vt 0.037657 0.227786
vt 0.037657 0.227786
vt 0.037657 0.227786
vt 0.037657 0.227786
vt 0.037657 0.227786
vt 0.037657 0.227786
vt 0.037657 0.227786
vt 0.037657 0.227786
vt 0.038436 0.301846
vt 0.038436 0.301846
vt 0.037657 0.227786
vt 0.037657 0.227786
vt 0.037657 0.227786
vt 0.037657 0.227786
vt 0.037657 0.227786
vt 0.037657 0.227786
vt 0.037657 0.227786
vn 0.889264 0.287149 0.356026
vn 0.889264 0.287149 0.356026
vn 0.889264 0.287149 0.356026
vn 0.889264 0.287149 0.356026
vn 0.688267 0.127783 -0.714115
vn 0.688267 0.127783 -0.714115
vn 0.688267 0.127783 -0.714115
vn 0.688267 0.127783 -0.714115
vn 0.963817 0.119707 -0.238175
vn 0.963817 0.119707 -0.238175
vn 0.963817 0.119707 -0.238175
vn 0.963817 0.119707 -0.238175
vn 0.815520 0.113574 -0.567475
vn 0.815520 0.113574 -0.567475
vn 0.815520 0.113574 -0.567475
vn 0.815520 0.113574 -0.567475
vn -0.733708 0.239940 0.635690
vn -0.733708 0.239940 0.635690
vn -0.733708 0.239940 0.635690
vn -0.733708 0.239940 0.635690
vn 0.180103 0.148519 0.972371
vn 0.180103 0.148519 0.972371
vn 0.180103 0.148519 0.972371
vn 0.180103 0.148519 0.972371
vn 0.210233 0.128624 0.969153
vn 0.210233 0.128624 0.969153
vn 0.210233 0.128624 0.969153
vn 0.210233 0.128624 0.969153
vn 0.399173 0.173080 0.900391
vn 0.399173 0.173079 0.900391
vn 0.399173 0.173079 0.900391
vn 0.399173 0.173079 0.900391
vn 0.108795 -0.992991 0.046189
vn 0.108795 -0.992991 0.046189
vn 0.108795 -0.992991 0.046189
vn 0.268639 -0.496250 -0.825572
vn 0.268639 -0.496250 -0.825572
vn 0.268639 -0.496250 -0.825572
vn 0.122017 -0.989111 -0.082293
vn 0.312418 -0.906160 0.285078
vn 0.404750 -0.770602 0.492291
vn 0.855118 -0.517806 -0.025517
vn 0.855118 -0.517806 -0.025517
vn 0.855118 -0.517806 -0.025517
vn -0.015943 -0.993288 -0.114563
vn -0.015943 -0.993288 -0.114563
vn -0.015942 -0.993288 -0.114563
vn 0.280110 -0.640298 -0.715232
vn 0.280110 -0.640298 -0.715232
vn 0.280110 -0.640298 -0.715232
vn -0.320733 -0.507621 0.799657
vn -0.275645 -0.815708 0.508567
vn -0.312155 -0.622226 0.717910
vn -0.432548 -0.684179 -0.587198
vn -0.432548 -0.684179 -0.587198
vn -0.432548 -0.684179 -0.587198
vn -0.096884 -0.992429 0.075482
vn -0.096884 -0.992429 0.075482
vn -0.096884 -0.992429 0.075482
vn 0.571152 -0.579518 0.581329
vn 0.571152 -0.579518 0.581329
vn 0.571152 -0.579518 0.581329
vn 0.837894 -0.512197 -0.188649
vn 0.581453 -0.810937 -0.065525
vn 0.765878 -0.625273 -0.149884
vn -0.314521 -0.652188 0.689730
vn -0.314521 -0.652188 0.689730
vn -0.314521 -0.652188 0.689730
vn 0.000000 1.000000 0.000000
vn 0.000000 1.000000 0.000000
vn 0.000000 1.000000 0.000000
vn 0.000000 1.000000 0.000000
vn 0.000000 1.000000 0.000000
vn 0.000000 1.000000 0.000000
vn 0.000000 1.000000 0.000000
vn 0.000000 1.000000 0.000000
vn 0.000000 1.000000 0.000000
vn 0.000000 1.000000 -0.000000
vn 0.000000 1.000000 -0.000000
vn 0.000000 1.000000 -0.000000
vn 0.197952 0.978899 -0.050722
vn 0.197952 0.978899 -0.050722
vn 0.197952 0.978899 -0.050722
vn -0.000343 1.000000 -0.000549
vn -0.000343 1.000000 -0.000549
vn -0.000343 1.000000 -0.000549
vn -0.001652 0.999999 -0.000007
vn -0.001652 0.999999 -0.000007
vn -0.001652 0.999999 -0.000007
vn -0.001911 0.999994 -0.002978
vn -0.001911 0.999994 -0.002978
vn -0.001911 0.999994 -0.002978
vn 0.000000 1.000000 0.000000
vn 0.000000 1.000000 0.000000
vn 0.000000 1.000000 0.000000
vn 0.000000 1.000000 -0.000001
vn 0.000000 1.000000 -0.000001
vn 0.000000 1.000000 -0.000001
vn 0.000000 1.000000 0.000000
vn 0.000000 1.000000 0.000000
vn 0.000000 1.000000 0.000000
vn 0.000000 1.000000 0.000000
vn 0.000000 1.000000 0.000000
vn 0.000000 1.000000 0.000000
vn -0.245237 0.125936 0.961249
vn -0.245237 0.125936 0.961249
vn -0.245237 0.125936 0.961249
vn -0.245237 0.125936 0.961249
vn 0.000000 1.000000 0.000000
vn 0.000000 1.000000 0.000000
vn 0.000000 1.000000 0.000000
vn -0.830284 -0.530072 0.172200
vn -0.830284 -0.530072 0.172200
vn -0.830284 -0.530072 0.172200
vn 0.476612 0.127831 -0.869770
vn 0.476612 0.127831 -0.869770
vn 0.476612 0.127831 -0.869770
vn 0.476612 0.127831 -0.869770
vn 0.000000 1.000000 -0.000000
vn 0.000000 1.000000 -0.000000
vn 0.000000 1.000000 -0.000000
vn -0.605338 -0.498750 -0.620334
vn -0.605338 -0.498750 -0.620334
vn -0.605338 -0.498750 -0.620334
vn -0.001833 0.999998 0.000327
vn -0.001833 0.999998 0.000327
vn -0.001833 0.999998 0.000327
vn -0.848199 -0.495168 0.188060
vn -0.848199 -0.495168 0.188060
vn -0.848199 -0.495168 0.188060
vn -0.105756 0.993270 -0.047238
vn -0.105756 0.993270 -0.047238
vn -0.105756 0.993270 -0.047238
vn -0.105756 0.993270 -0.047238
vn -0.106211 0.989104 0.101947
vn -0.106211 0.989104 0.101947
vn -0.106210 0.989104 0.101947
vn -0.106211 0.989104 0.101947
vn -0.071887 0.990793 0.114723
vn -0.071887 0.990793 0.114723
vn -0.071887 0.990793 0.114723
vn -0.071887 0.990793 0.114723
vn 0.197882 0.975339 0.097759
vn 0.197882 0.975339 0.097759
vn 0.197882 0.975339 0.097759
vn 0.197882 0.975339 0.097759
vn 0.112593 0.990442 0.079669
vn 0.112593 0.990442 0.079669
vn 0.112593 0.990442 0.079669
vn 0.112593 0.990442 0.079669
vn 0.117223 0.993073 -0.008042
vn 0.117223 0.993073 -0.008042
vn 0.117223 0.993073 -0.008042
vn 0.117223 0.993073 -0.008042
vn 0.101831 0.991634 -0.079320
vn 0.101831 0.991634 -0.079320
vn 0.101831 0.991634 -0.079320
vn 0.101831 0.991634 -0.079320
vn 0.272471 0.961827 -0.025452
vn 0.272471 0.961827 -0.025452
vn 0.272471 0.961827 -0.025452
vn 0.272471 0.961827 -0.025452
vn 0.040614 0.989101 -0.141529
vn 0.040614 0.989101 -0.141529
vn 0.040614 0.989101 -0.141529
vn 0.040614 0.989101 -0.141529
vn -0.064652 0.993238 -0.096424
vn -0.064652 0.993238 -0.096424
vn -0.064652 0.993239 -0.096424
vn -0.064652 0.993238 -0.096424
vn -0.029431 0.990270 -0.136015
vn -0.029431 0.990270 -0.136015
vn -0.029431 0.990270 -0.136015
vn -0.029431 0.990270 -0.136015
vn -0.139576 0.984532 0.105905
vn -0.139576 0.984532 0.105905
vn -0.139576 0.984532 0.105905
vn -0.139576 0.984532 0.105905
vn 0.102016 0.989406 0.103286
vn 0.102016 0.989406 0.103286
vn 0.102016 0.989406 0.103286
vn 0.102016 0.989406 0.103286
vn -0.018831 0.607642 -0.793988
vn -0.018831 0.607642 -0.793988
vn -0.018831 0.607642 -0.793988
vn -0.018831 0.607642 -0.793988
vn -0.963919 0.230889 -0.132480
vn -0.963919 0.230889 -0.132480
vn -0.963919 0.230889 -0.132480
vn -0.220362 0.447534 -0.866691
vn -0.220362 0.447534 -0.866691
vn -0.220362 0.447534 -0.866691
vn -0.834912 0.456829 0.306967
vn -0.860157 0.487456 0.150057
vn -0.775922 0.404435 0.484126
vn -0.869988 0.350387 -0.346914
vn -0.869988 0.350387 -0.346914
vn -0.869988 0.350387 -0.346914
vn -0.678984 0.555721 0.479745
vn -0.678983 0.555721 0.479745
vn -0.678984 0.555721 0.479745
vn -0.678984 0.555721 0.479745
vn 0.348173 0.184525 0.919090
vn 0.348173 0.184525 0.919090
vn 0.348173 0.184525 0.919090
vn -0.675301 0.422098 0.604815
vn -0.675301 0.422098 0.604815
vn -0.675301 0.422098 0.604815
vn 0.785660 0.522774 0.330825
vn 0.658244 0.573420 0.487754
vn 0.564846 0.592359 0.574508
vn 0.105351 0.437202 0.893172
vn 0.105351 0.437202 0.893171
vn 0.105351 0.437202 0.893171
vn 0.667617 0.639351 0.381469
vn 0.667616 0.639351 0.381469
vn 0.667617 0.639351 0.381469
vn 0.667617 0.639351 0.381469
vn 0.569109 0.210533 -0.794853
vn 0.569109 0.210533 -0.794853
vn 0.569109 0.210533 -0.794852
vn 0.873455 0.486583 0.017717
vn 0.872447 0.487901 -0.028096
vn 0.745816 0.436742 -0.503006
vn -0.224220 0.394530 -0.891107
vn -0.224220 0.394530 -0.891107
vn -0.224220 0.394530 -0.891107
vn 0.880041 0.343555 -0.327869
vn 0.880041 0.343556 -0.327870
vn 0.880040 0.343555 -0.327870
vn -0.767759 0.490368 -0.412415
vn -0.860157 0.487456 0.150057
vn -0.834912 0.456829 0.306967
vn -0.312155 -0.622226 0.717910
vn -0.275645 -0.815708 0.508567
vn -0.123484 -0.990127 -0.066331
vn 0.564846 0.592359 0.574508
vn 0.658244 0.573420 0.487754
vn 0.079391 0.561177 0.823880
vn 0.765878 -0.625273 -0.149884
vn 0.581453 -0.810937 -0.065525
vn 0.013298 -0.990343 0.138002
vn 0.828957 0.448785 0.333801
vn 0.872447 0.487901 -0.028096
vn 0.873455 0.486583 0.017717
vn 0.404750 -0.770602 0.492291
vn 0.312418 -0.906160 0.285078
vn 0.473294 -0.560687 0.679428
vn 0.899226 0.213655 0.381764
vn 0.899226 0.213655 0.381764
vn 0.899226 0.213655 0.381764
vn 0.899226 0.213655 0.381764
vn 0.571312 0.039004 -0.819806
vn 0.571312 0.039004 -0.819806
vn 0.571312 0.039004 -0.819806
vn 0.571312 0.039004 -0.819806
vn 0.819329 0.152808 -0.552585
vn 0.819329 0.152808 -0.552585
vn 0.819329 0.152808 -0.552585
vn 0.819329 0.152808 -0.552585
vn 0.941171 0.047134 -0.334628
vn 0.941171 0.047134 -0.334628
vn 0.941171 0.047134 -0.334628
vn 0.941171 0.047134 -0.334628
vn -0.134885 0.205630 -0.969290
vn -0.134885 0.205630 -0.969290
vn -0.134885 0.205630 -0.969290
vn -0.134885 0.205630 -0.969290
vn -0.214398 0.076090 -0.973778
vn -0.214398 0.076090 -0.973778
vn -0.214398 0.076090 -0.973778
vn -0.214398 0.076090 -0.973778
vn -0.813021 0.103180 0.573018
vn -0.813021 0.103180 0.573018
vn -0.813021 0.103180 0.573018
vn -0.813021 0.103180 0.573018
vn -0.911955 0.098147 -0.398378
vn -0.911955 0.098147 -0.398378
vn -0.911955 0.098147 -0.398378
vn -0.911955 0.098147 -0.398378
vn -0.766812 0.234695 0.597425
vn -0.766812 0.234695 0.597425
vn -0.766812 0.234695 0.597425
vn -0.766812 0.234695 0.597425
vn 0.378005 0.083139 0.922063
vn 0.378005 0.083139 0.922063
vn 0.378005 0.083139 0.922063
vn 0.378005 0.083139 0.922063
vn 0.936103 0.080837 0.342311
vn 0.936103 0.080837 0.342311
vn 0.936103 0.080837 0.342311
vn 0.936103 0.080837 0.342310
vn 0.080619 0.108540 0.990818
vn 0.080619 0.108540 0.990818
vn 0.080619 0.108540 0.990818
vn 0.080619 0.108540 0.990818
vn -0.768527 0.093450 0.632956
vn -0.768527 0.093450 0.632956
vn -0.768527 0.093450 0.632956
vn -0.768527 0.093450 0.632956
vn -0.273902 0.061685 -0.959778
vn -0.273902 0.061685 -0.959778
vn -0.273902 0.061685 -0.959777
vn -0.273902 0.061685 -0.959777
vn -0.991018 0.074221 -0.111241
vn -0.991018 0.074221 -0.111241
vn -0.991018 0.074221 -0.111241
vn -0.991018 0.074221 -0.111241
vn -0.865127 0.188667 -0.464714
vn -0.865127 0.188667 -0.464714
vn -0.865127 0.188667 -0.464714
vn -0.865127 0.188667 -0.464714
vn 0.093854 0.206409 0.973954
vn 0.093854 0.206409 0.973954
vn 0.093854 0.206409 0.973954
vn 0.093854 0.206409 0.973954
vn 0.911731 0.074769 0.403926
vn 0.911731 0.074769 0.403926
vn 0.911731 0.074769 0.403926
vn 0.911731 0.074769 0.403926
vn 0.092997 0.265075 0.959733
vn 0.092997 0.265075 0.959733
vn 0.092997 0.265075 0.959733
vn -0.095284 0.154810 -0.983339
vn -0.095284 0.154810 -0.983339
vn -0.095284 0.154810 -0.983339
vn -0.558335 0.787445 -0.261139
vn -0.558335 0.787445 -0.261139
vn -0.558334 0.787444 -0.261139
vn -0.558334 0.787444 -0.261139
vn 0.112398 0.928542 0.353803
vn 0.112398 0.928542 0.353803
vn 0.112398 0.928542 0.353803
vn 0.112398 0.928542 0.353803
vn 0.888363 -0.386100 0.248472
vn 0.888363 -0.386100 0.248472
vn 0.888363 -0.386100 0.248472
vn 0.249826 0.952621 -0.173493
vn 0.249826 0.952621 -0.173493
vn 0.249826 0.952621 -0.173493
vn 0.249826 0.952621 -0.173493
vn 0.887590 0.411119 -0.207764
vn 0.887590 0.411119 -0.207764
vn 0.887590 0.411119 -0.207764
vn -0.310051 0.925233 -0.218659
vn -0.310051 0.925233 -0.218659
vn -0.310051 0.925233 -0.218659
vn -0.310051 0.925233 -0.218659
vn -0.938113 0.266026 0.221751
vn -0.938113 0.266026 0.221751
vn -0.938113 0.266026 0.221751
vn -0.045615 0.972700 0.227541
vn -0.045615 0.972700 0.227541
vn -0.045615 0.972700 0.227541
vn -0.045615 0.972700 0.227541
vn 0.883945 0.450225 0.126245
vn 0.883945 0.450225 0.126245
vn 0.883945 0.450225 0.126245
vn 0.396184 0.408845 0.822122
vn 0.415372 0.407562 0.813240
vn 0.415372 0.407562 0.813240
vn 0.399055 0.408666 0.820821
vn -0.085772 0.376182 -0.922567
vn -0.085772 0.376182 -0.922567
vn -0.085772 0.376182 -0.922567
vn -0.085772 0.376182 -0.922567
vn -0.811113 0.131663 -0.569877
vn -0.812583 0.131912 -0.567722
vn -0.898091 0.146471 -0.414704
vn -0.898091 0.146471 -0.414704
vn -0.986534 0.153253 -0.057137
vn -0.986534 0.153253 -0.057137
vn -0.979774 0.158940 -0.121579
vn -0.984394 0.147026 -0.096704
vn -0.986534 0.153253 -0.057137
vn 0.276077 0.412687 0.868027
vn 0.396184 0.408845 0.822122
vn 0.399055 0.408666 0.820821
vn 0.276077 0.412687 0.868027
vn -0.841270 0.130564 -0.524612
vn -0.783283 0.138939 -0.605941
vn -0.812583 0.131912 -0.567722
vn -0.811113 0.131663 -0.569877
vn -0.928005 0.206733 -0.309950
vn -0.783283 0.138939 -0.605941
vn -0.841270 0.130564 -0.524612
vn -0.979774 0.158940 -0.121579
vn -0.979774 0.158940 -0.121579
vn -0.841270 0.130564 -0.524612
vn -0.984394 0.147026 -0.096704
s off
f 45/94/1 46/95/2 14/27/3 13/26/4
f 46/95/5 3/15/6 15/28/7 14/27/8
f 3/15/9 47/96/10 16/29/11 15/28/12
f 24/52/13 25/53/14 39/87/15 17/30/16
f 42/90/17 43/91/18 19/32/19 18/31/20
f 43/91/21 11/23/22 20/33/23 19/32/24
f 22/48/25 44/92/26 12/24/27 21/34/28
f 12/24/29 45/93/30 13/35/31 21/34/32
f 52/103/33 51/104/34 53/45/35
f 54/105/36 52/103/37 53/45/38
f 56/106/39 55/107/40 53/45/41
f 58/108/42 57/109/43 53/45/44
f 59/110/45 58/108/46 53/45/47
f 61/111/48 60/112/49 53/45/50
f 63/113/51 62/114/52 53/45/53
f 64/115/54 63/113/55 53/45/56
f 65/116/57 64/115/58 53/45/59
f 66/117/60 65/116/61 53/45/62
f 68/118/63 67/119/64 53/45/65
f 51/104/66 68/118/67 53/45/68
f 27/46/69 28/72/70 29/73/71
f 28/72/72 30/74/73 29/73/74
f 30/74/75 31/75/76 29/73/77
f 31/75/78 32/76/79 29/73/80
f 33/77/81 74/78/82 75/126/83
f 74/78/84 76/79/85 75/126/86
f 77/80/87 78/81/88 75/126/89
f 78/81/90 79/127/91 75/126/92
f 34/82/93 35/83/94 29/73/95
f 35/83/96 36/84/97 29/73/98
f 36/84/99 37/85/100 29/73/101
f 38/86/102 27/46/103 29/73/104
f 11/23/105 44/92/106 22/48/107 20/33/108
f 29/73/109 37/85/110 38/86/111
f 53/45/112 69/120/113 66/117/114
f 47/96/115 25/53/116 24/52/117 16/29/118
f 29/73/119 32/76/120 33/77/121
f 53/45/122 57/109/123 56/106/124
f 75/126/125 76/79/126 77/80/127
f 53/45/128 60/112/129 59/110/130
f 13/43/131 14/42/132 28/58/133 27/57/134
f 14/42/135 15/41/136 30/59/137 28/58/138
f 16/40/139 24/51/140 32/61/141 31/60/142
f 17/39/143 80/128/144 74/63/145 33/62/146
f 80/128/147 81/129/148 76/64/149 74/63/150
f 82/130/151 83/131/152 79/132/153 78/66/154
f 18/38/155 19/37/156 35/68/157 34/67/158
f 36/69/159 71/122/160 70/121/161 20/36/162
f 20/36/163 22/47/164 37/70/165 36/69/166
f 21/44/167 13/43/168 27/57/169 38/71/170
f 22/47/171 21/44/172 38/71/173 37/70/174
f 24/51/175 17/39/176 33/62/177 32/61/178
f 81/129/179 84/133/180 77/65/181 76/64/182
f 5/17/183 6/18/184 40/88/185 39/87/186
f 6/18/187 26/55/188 40/88/189
f 41/89/190 26/55/191 7/19/192
f 41/89/193 48/97/194 8/20/195
f 8/20/196 9/21/197 42/90/198
f 9/21/199 10/22/200 43/91/201 42/90/202
f 10/22/203 11/23/204 43/91/205
f 11/23/206 23/49/207 44/92/208
f 12/24/209 44/92/210 49/99/211
f 12/24/212 1/25/213 45/93/214
f 1/13/215 2/14/216 46/95/217 45/94/218
f 2/14/219 3/15/220 46/95/221
f 47/96/222 50/101/223 4/16/224
f 4/16/225 25/53/226 47/96/227
f 39/87/228 25/53/229 5/17/230
f 7/19/231 48/97/232 41/89/233
f 53/45/234 62/114/235 61/111/236
f 49/99/237 44/92/238 23/49/239
f 53/45/240 67/119/241 69/120/242
f 3/15/243 50/101/244 47/96/245
f 53/45/246 55/107/247 54/105/248
f 2/2/249 1/1/250 51/104/251 52/103/252
f 3/3/253 2/2/254 52/103/255 54/105/256
f 4/4/257 50/102/258 55/107/259 56/106/260
f 5/5/261 25/54/262 57/109/263 58/108/264
f 6/6/265 5/5/266 58/108/267 59/110/268
f 7/7/269 26/56/270 60/112/271 61/111/272
f 8/8/273 48/98/274 62/114/275 63/113/276
f 9/9/277 8/8/278 63/113/279 64/115/280
f 10/10/281 9/9/282 64/115/283 65/116/284
f 11/11/285 10/10/286 65/116/287 66/117/288
f 12/12/289 49/100/290 67/119/291 68/118/292
f 1/1/293 12/12/294 68/118/295 51/104/296
f 23/50/297 11/11/298 66/117/299 69/120/300
f 25/54/301 4/4/302 56/106/303 57/109/304
f 26/56/305 6/6/306 59/110/307 60/112/308
f 48/98/309 7/7/310 61/111/311 62/114/312
f 49/100/313 23/50/314 69/120/315 67/119/316
f 50/102/317 3/3/318 54/105/319 55/107/320
f 19/37/321 20/36/322 70/121/323
f 36/69/324 35/68/325 71/122/326
f 35/68/327 19/37/328 70/121/329 71/122/330
f 82/130/331 78/66/332 85/123/333 86/134/334
f 78/66/335 77/65/336 85/123/337
f 85/123/338 77/65/339 84/133/340 86/134/341
f 15/41/342 16/40/343 72/124/344
f 16/40/345 31/60/346 73/125/347 72/124/348
f 31/60/349 30/59/350 73/125/351
f 30/59/352 15/41/353 72/124/354 73/125/355
f 29/73/356 33/77/357 75/126/358
f 34/82/359 29/73/360 75/126/361 79/127/362
f 40/88/363 80/128/364 17/30/365 39/87/366
f 26/55/367 81/129/368 80/128/369 40/88/370
f 18/38/371 83/131/372 82/130/373 8/20/374 42/90/375
f 18/38/376 34/67/377 79/132/378 83/131/379
f 41/89/380 84/133/381 81/129/382 26/55/383
f 86/134/384 84/133/385 41/89/386 82/130/387
f 82/130/388 41/89/389 8/20/390
