# This file uses centimeters as units for non-parametric coordinates.

v 1.546791 -11.655483 3.798940
v 4.568848 -11.655483 3.598147
v 9.213242 29.605465 16.738184
v -1.745281 -11.655483 -1.183200
v 5.608192 -11.655483 -1.084789
v 3.457672 20.181129 11.012300
v 8.979691 19.212570 8.824039
v 6.407211 20.906286 5.084772
v 0.883133 21.875134 7.273497
v 0.893486 -11.655483 -2.691463
v -7.032146 -11.655483 -0.344988
v -18.649220 34.850880 11.224329
v 2.503273 -11.655483 2.000970
v -5.421329 -11.655483 4.348136
v -7.785786 29.664843 -0.488367
v -12.599243 26.564407 0.531816
v -10.047142 25.991558 7.360094
v -5.233685 29.091991 6.340082
v -1.143578 -11.655483 0.297062
v 5.932510 -11.655483 -0.354057
v 8.310120 50.368912 -14.178582
v -1.402496 -11.655483 -3.232324
v 5.672356 -11.655483 -3.882792
v 4.563499 39.039101 -3.332472
v 10.053398 37.763054 -4.005535
v 7.157730 34.000217 -8.404435
v 1.668564 35.276760 -7.731417
vt 0.177016 0.298518
vt 0.177016 0.298518
vt 0.177016 0.298518
vt 0.177016 0.298518
vt 0.177016 0.298518
vt 0.177016 0.298518
vt 0.177016 0.298518
vt 0.177016 0.298518
vt 0.177016 0.298518
vt 0.177016 0.298518
vt 0.177016 0.298518
vt 0.177016 0.298518
vt 0.177016 0.298518
vt 0.177016 0.298518
vt 0.177016 0.298518
vt 0.177016 0.298518
vt 0.177016 0.298518
vt 0.177016 0.298518
vt 0.177016 0.298518
vt 0.177016 0.298518
vt 0.177016 0.298518
vt 0.177016 0.298518
vt 0.177016 0.298518
vt 0.177016 0.298518
vt 0.177016 0.298518
vt 0.177016 0.298518
vt 0.177016 0.298518
vt 0.177016 0.298518
vt 0.177016 0.298518
vt 0.177016 0.298518
vt 0.177016 0.298518
vt 0.177016 0.298518
vt 0.177016 0.298518
vt 0.177016 0.298518
vt 0.177016 0.298518
vt 0.177016 0.298518
vt 0.177016 0.298518
vt 0.177016 0.298518
vt 0.177016 0.298518
vt 0.177016 0.298518
vt 0.177016 0.298518
vt 0.177016 0.298518
vt 0.177016 0.298518
vt 0.177016 0.298518
vt 0.177016 0.298518
vn 0.034811 -0.964983 0.259992
vn 0.034811 -0.964983 0.259992
vn 0.034811 -0.964983 0.259992
vn 0.059793 0.997241 -0.043989
vn 0.059793 0.997241 -0.043989
vn 0.059793 0.997241 -0.043989
vn 0.000000 -1.000000 0.000000
vn 0.000000 -1.000000 0.000000
vn 0.000000 -1.000000 0.000000
vn 0.000000 -1.000000 0.000000
vn 0.000000 -1.000000 0.000000
vn 0.000000 -1.000000 0.000000
vn 0.756357 0.646691 -0.098564
vn 0.756357 0.646691 -0.098564
vn 0.756357 0.646691 -0.098564
vn -0.843669 -0.252224 0.473926
vn -0.843669 -0.252224 0.473926
vn -0.843669 -0.252224 0.473926
vn 0.048923 -0.674725 0.736446
vn 0.048923 -0.674725 0.736446
vn 0.048923 -0.674725 0.736446
vn 0.229065 -0.707756 0.668289
vn 0.229065 -0.707756 0.668289
vn 0.229065 -0.707756 0.668289
vn 0.951428 -0.224014 0.211194
vn 0.951428 -0.224014 0.211194
vn 0.951428 -0.224014 0.211194
vn 0.837167 0.199384 -0.509311
vn 0.837167 0.199384 -0.509311
vn 0.837167 0.199384 -0.509311
vn -0.235223 0.694137 -0.680327
vn -0.235223 0.694137 -0.680327
vn -0.235223 0.694136 -0.680327
vn 0.010202 0.646275 -0.763036
vn 0.010202 0.646275 -0.763037
vn 0.010202 0.646275 -0.763037
vn -0.772762 -0.376962 0.510625
vn -0.772762 -0.376962 0.510625
vn -0.772762 -0.376962 0.510625
vn -0.847167 -0.320651 0.423665
vn -0.847167 -0.320651 0.423665
vn -0.847167 -0.320651 0.423665
vn -0.489574 0.533007 -0.690088
vn -0.489574 0.533007 -0.690088
vn -0.489574 0.533007 -0.690088
vn 0.287528 -0.134432 0.948291
vn 0.287528 -0.134432 0.948291
vn 0.287528 -0.134432 0.948291
vn 0.000000 -1.000000 0.000000
vn 0.000000 -1.000000 0.000000
vn 0.000000 -1.000000 0.000000
vn 0.000000 -1.000000 0.000000
vn 0.000000 -1.000000 0.000000
vn 0.000000 -1.000000 0.000000
vn -0.662821 -0.725076 0.186901
vn -0.662821 -0.725076 0.186901
vn -0.662821 -0.725076 0.186901
vn 0.374469 0.925143 -0.062313
vn 0.374469 0.925143 -0.062313
vn 0.374469 0.925143 -0.062313
vn -0.283848 0.017658 -0.958707
vn -0.283848 0.017658 -0.958707
vn -0.283848 0.017658 -0.958707
vn -0.234551 0.044607 -0.971080
vn -0.234551 0.044607 -0.971080
vn -0.234551 0.044607 -0.971080
vn -0.719317 -0.649328 0.246893
vn -0.719317 -0.649328 0.246893
vn -0.719317 -0.649328 0.246893
vn -0.733131 -0.643513 0.220023
vn -0.733131 -0.643513 0.220023
vn -0.733131 -0.643513 0.220023
vn 0.277598 -0.117300 0.953509
vn 0.277598 -0.117300 0.953509
vn 0.277598 -0.117300 0.953509
vn 0.282111 -0.114877 0.952479
vn 0.282110 -0.114877 0.952479
vn 0.282110 -0.114877 0.952479
vn 0.708536 0.662492 -0.243066
vn 0.708536 0.662492 -0.243066
vn 0.708536 0.662492 -0.243066
vn 0.722510 0.657124 -0.214866
vn 0.722510 0.657124 -0.214866
vn 0.722510 0.657124 -0.214866
vn 0.054272 0.941523 0.332550
vn 0.054272 0.941523 0.332550
vn 0.054272 0.941523 0.332550
vn 0.142122 -0.756969 -0.637808
vn 0.142122 -0.756969 -0.637808
vn 0.142122 -0.756969 -0.637808
vn -0.000000 -1.000000 -0.000000
vn -0.000000 -1.000000 -0.000000
vn -0.000000 -1.000000 -0.000000
vn -0.000000 -1.000000 -0.000000
vn -0.000000 -1.000000 -0.000000
vn -0.000000 -1.000000 -0.000000
vn 0.892267 -0.404071 0.201461
vn 0.892267 -0.404071 0.201461
vn 0.892267 -0.404071 0.201461
vn -0.682728 0.555206 -0.475004
vn -0.682728 0.555206 -0.475004
vn -0.682728 0.555206 -0.475004
vn -0.280338 0.523215 0.804771
vn -0.280338 0.523215 0.804771
vn -0.280338 0.523215 0.804771
vn -0.280681 0.523256 0.804625
vn -0.280681 0.523256 0.804625
vn -0.280681 0.523256 0.804625
vn 0.898107 -0.289275 0.331247
vn 0.898107 -0.289275 0.331247
vn 0.898107 -0.289275 0.331247
vn 0.917745 -0.369121 0.146611
vn 0.917745 -0.369121 0.146611
vn 0.917745 -0.369121 0.146611
vn 0.260104 -0.564888 -0.783101
vn 0.260104 -0.564888 -0.783101
vn 0.260104 -0.564888 -0.783101
vn 0.271300 -0.565744 -0.778672
vn 0.271300 -0.565744 -0.778672
vn 0.271300 -0.565744 -0.778672
vn -0.888950 0.319389 -0.328266
vn -0.888950 0.319389 -0.328266
vn -0.888950 0.319389 -0.328266
vn -0.906092 0.386052 -0.173093
vn -0.906092 0.386052 -0.173093
vn -0.906092 0.386052 -0.173093
s off
f 6/1/1 7/2/2 3/3/3
f 3/3/4 8/4/5 9/5/6
f 4/6/7 5/7/8 1/8/9
f 1/8/10 5/7/11 2/9/12
f 7/2/13 8/10/14 3/3/15
f 9/11/16 6/1/17 3/3/18
f 2/12/19 7/2/20 1/13/21
f 1/13/22 7/2/23 6/1/24
f 5/14/25 8/10/26 2/12/27
f 2/12/28 8/10/29 7/2/30
f 9/5/31 8/4/32 4/6/33
f 4/6/34 8/4/35 5/7/36
f 4/15/37 1/13/38 9/11/39
f 9/11/40 1/13/41 6/1/42
f 15/16/43 16/17/44 12/18/45
f 12/18/46 17/19/47 18/20/48
f 13/21/49 14/22/50 10/23/51
f 10/23/52 14/22/53 11/24/54
f 16/17/55 17/25/56 12/18/57
f 18/26/58 15/16/59 12/18/60
f 10/27/61 11/28/62 15/16/63
f 15/16/64 11/28/65 16/17/66
f 14/29/67 17/25/68 11/28/69
f 11/28/70 17/25/71 16/17/72
f 17/19/73 14/22/74 18/20/75
f 18/20/76 14/22/77 13/21/78
f 13/30/79 10/27/80 18/26/81
f 18/26/82 10/27/83 15/16/84
f 24/31/85 25/32/86 21/33/87
f 21/33/88 26/34/89 27/35/90
f 23/36/91 20/37/92 22/38/93
f 22/38/94 20/37/95 19/39/96
f 25/32/97 26/40/98 21/33/99
f 27/41/100 24/31/101 21/33/102
f 19/42/103 20/43/104 24/31/105
f 24/31/106 20/43/107 25/32/108
f 20/43/109 23/44/110 25/32/111
f 25/32/112 23/44/113 26/40/114
f 26/34/115 23/36/116 27/35/117
f 27/35/118 23/36/119 22/38/120
f 19/42/121 24/31/122 22/45/123
f 22/45/124 24/31/125 27/41/126
