# This file uses centimeters as units for non-parametric coordinates.

v 35.238762 24.820333 51.222172
v 28.313004 2.740461 51.222172
v 12.152361 23.237663 51.222172
v 28.313004 2.740461 -49.311996
v 12.152361 23.237663 -49.311996
v 35.238762 24.820333 -49.311996
v 26.410416 0.000000 51.222172
v 9.043612 22.027025 51.222172
v 9.043612 22.027025 -49.311996
v 26.410416 0.000000 -49.311996
v 15.486935 9.247368 51.222172
v 12.981264 7.271819 51.222172
v 12.981264 7.271819 -49.311996
v 15.486935 9.247368 -49.311996
v -25.582253 1.338354 54.739742
v -32.469978 23.430126 54.739742
v -7.510783 15.792042 54.739742
v -32.469978 23.430126 -45.794418
v -7.510783 15.792042 -45.794418
v -25.582253 1.338354 -45.794418
v -32.467686 26.766287 54.739742
v -5.645645 18.558128 54.739742
v -5.645645 18.558128 -45.794418
v -32.467686 26.766287 -45.794418
v -18.221928 25.389919 54.739742
v -17.288208 28.441040 54.739742
v -17.288208 28.441040 -45.794418
v -18.221928 25.389919 -45.794418
v -12.406210 2.314699 45.794422
v -3.878021 23.826490 45.794422
v 10.734091 2.198088 45.794422
v -3.878021 23.826490 -54.739750
v 10.734091 2.198088 -54.739750
v -12.406210 2.314699 -54.739750
v -1.779355 26.419867 45.794422
v 13.923342 3.177212 45.794422
v 13.923342 3.177212 -54.739750
v -1.779355 26.419867 -54.739750
v 8.435694 16.395451 45.794422
v 11.079643 18.181702 45.794422
v 11.079643 18.181702 -54.739750
v 8.435694 16.395451 -54.739750
v -4.383249 51.259357 49.999130
v 3.957359 29.674145 49.999130
v -21.454245 35.636684 49.999130
v 3.957359 29.674145 -50.535038
v -21.454245 35.636684 -50.535038
v -4.383249 51.259357 -50.535038
v 4.176781 26.345207 49.999130
v -23.131445 32.752766 49.999130
v -23.131445 32.752766 -50.535038
v 4.176781 26.345207 -50.535038
v -10.128961 26.771832 49.999130
v -10.857848 23.665401 49.999130
v -10.857848 23.665401 -50.535038
v -10.128961 26.771832 -50.535038
v 10.167132 49.564262 35.065170
v 31.050383 39.595448 35.065170
v 8.479946 26.485258 35.065170
v 31.050383 39.595448 -35.601086
v 8.479946 26.485258 -35.601086
v 10.167132 49.564262 -35.601086
v 33.495312 37.325581 35.065170
v 9.240314 23.236900 35.065170
v 9.240314 23.236900 -35.601086
v 33.495312 37.325581 -35.601086
v 22.800585 27.814590 35.065170
v 24.403225 25.055477 35.065170
v 24.403225 25.055477 -35.601086
v 22.800585 27.814590 -35.601086
vt 0.002839 0.327260
vt 0.002839 0.327260
vt 0.002839 0.327260
vt 0.002839 0.327260
vt 0.016491 0.277204
vt 0.016491 0.277204
vt 0.016491 0.277204
vt 0.016491 0.277204
vt 0.002839 0.327260
vt 0.002839 0.327260
vt 0.002839 0.327260
vt 0.002839 0.327260
vt 0.002839 0.327260
vt 0.002839 0.327260
vt 0.002839 0.327260
vt 0.002839 0.327260
vt 0.016491 0.277203
vt 0.016491 0.277204
vt 0.016491 0.277203
vt 0.016491 0.277203
vt 0.016491 0.277204
vt 0.016491 0.277204
vt 0.016491 0.277204
vt 0.016491 0.277203
vt 0.002839 0.327260
vt 0.002839 0.327260
vt 0.002839 0.327260
vt 0.002839 0.327260
vt 0.016491 0.277204
vt 0.016491 0.277204
vt 0.016491 0.277204
vt 0.016491 0.277204
vt 0.002839 0.327260
vt 0.002839 0.327260
vt 0.002839 0.327260
vt 0.002839 0.327260
vt 0.002839 0.327260
vt 0.002839 0.327260
vt 0.002839 0.327260
vt 0.002839 0.327260
vt 0.016491 0.277203
vt 0.016491 0.277204
vt 0.016491 0.277203
vt 0.016491 0.277203
vt 0.016491 0.277204
vt 0.016491 0.277204
vt 0.016491 0.277204
vt 0.016491 0.277203
vt 0.005600 0.303592
vt 0.005600 0.303592
vt 0.005600 0.303592
vt 0.005600 0.303592
vt 0.016491 0.277204
vt 0.016491 0.277204
vt 0.016491 0.277204
vt 0.016491 0.277204
vt 0.005600 0.303592
vt 0.005600 0.303592
vt 0.005600 0.303592
vt 0.005600 0.303592
vt 0.005600 0.303592
vt 0.005600 0.303592
vt 0.005600 0.303592
vt 0.005600 0.303592
vt 0.016491 0.277203
vt 0.016491 0.277204
vt 0.016491 0.277203
vt 0.016491 0.277203
vt 0.016491 0.277204
vt 0.016491 0.277204
vt 0.016491 0.277204
vt 0.016491 0.277203
vt 0.002839 0.327260
vt 0.002839 0.327260
vt 0.002839 0.327260
vt 0.002839 0.327260
vt 0.016491 0.277204
vt 0.016491 0.277204
vt 0.016491 0.277204
vt 0.016491 0.277204
vt 0.002839 0.327260
vt 0.002839 0.327260
vt 0.002839 0.327260
vt 0.002839 0.327260
vt 0.002839 0.327260
vt 0.002839 0.327260
vt 0.002839 0.327260
vt 0.002839 0.327260
vt 0.016491 0.277203
vt 0.016491 0.277204
vt 0.016491 0.277203
vt 0.016491 0.277203
vt 0.016491 0.277204
vt 0.016491 0.277204
vt 0.016491 0.277204
vt 0.016491 0.277203
vt 0.005600 0.303592
vt 0.005600 0.303592
vt 0.005600 0.303592
vt 0.005600 0.303592
vt 0.016491 0.277204
vt 0.016491 0.277204
vt 0.016491 0.277204
vt 0.016491 0.277204
vt 0.005600 0.303592
vt 0.005600 0.303592
vt 0.005600 0.303592
vt 0.005600 0.303592
vt 0.005600 0.303592
vt 0.005600 0.303592
vt 0.005600 0.303592
vt 0.005600 0.303592
vt 0.016491 0.277203
vt 0.016491 0.277204
vt 0.016491 0.277203
vt 0.016491 0.277203
vt 0.016491 0.277204
vt 0.016491 0.277204
vt 0.016491 0.277204
vt 0.016491 0.277203
vt 0.016491 0.277204
vt 0.016491 0.277204
vt 0.016491 0.277204
vt 0.016491 0.277204
vt 0.016491 0.277203
vt 0.016491 0.277204
vt 0.016491 0.277204
vt 0.016491 0.277204
vt 0.016491 0.277204
vt 0.016491 0.277204
vt 0.016491 0.277204
vt 0.016491 0.277204
vt 0.016491 0.277204
vt 0.016491 0.277203
vt 0.005600 0.303592
vt 0.016491 0.277204
vt 0.016491 0.277204
vt 0.016491 0.277204
vt 0.016491 0.277204
vt 0.016491 0.277203
vt 0.005600 0.303592
vt 0.016491 0.277203
vt 0.005600 0.303592
vt 0.005600 0.303592
vt 0.016491 0.277204
vt 0.016491 0.277204
vt 0.016491 0.277204
vt 0.016491 0.277204
vt 0.016491 0.277203
vt 0.016491 0.277204
vt 0.016491 0.277204
vt 0.016491 0.277204
vt 0.016491 0.277204
vt 0.016491 0.277204
vt 0.016491 0.277204
vt 0.016491 0.277204
vt 0.016491 0.277204
vt 0.016491 0.277203
vt 0.005600 0.303592
vt 0.016491 0.277204
vt 0.016491 0.277204
vt 0.016491 0.277204
vt 0.016491 0.277204
vt 0.016491 0.277203
vt 0.005600 0.303592
vt 0.016491 0.277203
vt 0.005600 0.303592
vt 0.005600 0.303592
vn 0.000000 0.000000 1.000000
vn 0.000000 0.000000 1.000000
vn 0.000000 0.000000 1.000000
vn 0.000000 0.000000 1.000000
vn -0.476166 -0.879355 0.000000
vn -0.785281 -0.619140 0.000000
vn -0.785281 -0.619140 0.000000
vn -0.476166 -0.879355 0.000000
vn 0.000000 0.000000 -1.000000
vn 0.000000 0.000000 -1.000000
vn 0.000000 0.000000 -1.000000
vn 0.000000 0.000000 -1.000000
vn -0.068394 0.997658 0.000000
vn -0.068394 0.997658 0.000000
vn -0.068394 0.997658 0.000000
vn -0.068394 0.997658 0.000000
vn 0.954162 -0.299290 0.000000
vn 0.954162 -0.299290 0.000000
vn 0.954162 -0.299290 0.000000
vn 0.954162 -0.299290 0.000000
vn -0.000000 0.000000 1.000000
vn 0.000000 0.000000 1.000000
vn 0.000000 0.000000 1.000000
vn -0.000000 0.000000 1.000000
vn -0.362884 0.931834 0.000000
vn -0.362884 0.931834 0.000000
vn -0.362884 0.931834 0.000000
vn -0.362884 0.931834 0.000000
vn 0.000000 0.000000 -1.000000
vn -0.000001 0.000000 -1.000000
vn -0.000001 0.000000 -1.000000
vn 0.000000 0.000000 -1.000000
vn 0.821441 -0.570293 0.000000
vn 0.821441 -0.570293 0.000000
vn 0.821441 -0.570293 0.000000
vn 0.821441 -0.570293 0.000000
vn 0.000000 0.000000 1.000000
vn 0.000000 0.000000 1.000000
vn 0.000000 0.000000 1.000000
vn 0.000000 0.000000 1.000000
vn -0.785281 -0.619140 0.000000
vn -0.785281 -0.619140 0.000000
vn -0.966187 -0.257842 0.000000
vn -0.966187 -0.257842 0.000000
vn 0.000001 0.000000 -1.000000
vn 0.000000 0.000000 -1.000000
vn 0.000000 0.000000 -1.000000
vn 0.000001 0.000000 -1.000000
vn 0.000000 0.000000 1.000000
vn 0.000000 0.000000 1.000000
vn 0.000000 0.000000 1.000000
vn 0.000000 0.000000 1.000000
vn -0.109665 0.993969 0.000000
vn 0.292627 0.956227 0.000000
vn 0.292627 0.956227 0.000000
vn -0.109665 0.993969 0.000000
vn 0.000000 0.000000 -1.000000
vn 0.000000 0.000000 -1.000000
vn 0.000000 0.000000 -1.000000
vn 0.000000 0.000000 -1.000000
vn 0.624603 -0.780942 0.000000
vn 0.624603 -0.780942 0.000000
vn 0.624603 -0.780942 0.000000
vn 0.624603 -0.780942 0.000000
vn -0.954676 -0.297647 0.000000
vn -0.954676 -0.297647 0.000000
vn -0.954676 -0.297647 0.000000
vn -0.954676 -0.297647 0.000000
vn 0.000000 0.000000 1.000000
vn 0.000000 0.000000 1.000000
vn 0.000000 0.000000 1.000000
vn 0.000000 0.000000 1.000000
vn 0.829122 -0.559067 0.000000
vn 0.829122 -0.559067 0.000000
vn 0.829122 -0.559067 0.000000
vn 0.829122 -0.559067 0.000000
vn -0.000000 0.000000 -1.000000
vn -0.000000 0.000000 -1.000000
vn -0.000000 0.000000 -1.000000
vn 0.000000 0.000000 -1.000000
vn -1.000000 0.000686 0.000000
vn -1.000000 0.000686 0.000000
vn -1.000000 0.000686 0.000000
vn -1.000000 0.000686 0.000000
vn 0.000000 0.000000 1.000000
vn 0.000000 0.000000 1.000000
vn 0.000000 0.000000 1.000000
vn 0.000000 0.000000 1.000000
vn 0.292627 0.956227 0.000000
vn 0.292627 0.956227 0.000000
vn 0.647144 0.762368 0.000000
vn 0.647144 0.762368 0.000000
vn 0.000000 0.000000 -1.000000
vn -0.000000 0.000000 -1.000000
vn 0.000000 0.000000 -1.000000
vn 0.000000 0.000000 -1.000000
vn -0.000000 0.000000 1.000000
vn -0.000000 0.000000 1.000000
vn -0.000000 0.000000 1.000000
vn -0.000000 0.000000 1.000000
vn 0.539444 0.842021 0.000000
vn 0.828619 0.559813 0.000000
vn 0.828619 0.559813 0.000000
vn 0.539444 0.842021 0.000000
vn -0.000001 0.000000 -1.000000
vn -0.000001 0.000000 -1.000000
vn -0.000001 0.000000 -1.000000
vn -0.000001 0.000000 -1.000000
vn -0.005039 -0.999987 0.000000
vn -0.005039 -0.999987 0.000000
vn -0.005039 -0.999987 0.000000
vn -0.005039 -0.999987 0.000000
vn -0.929613 0.368538 0.000000
vn -0.929613 0.368538 0.000000
vn -0.929613 0.368538 0.000000
vn -0.929613 0.368538 0.000000
vn 0.000000 0.000000 1.000000
vn 0.000000 0.000000 1.000000
vn 0.000000 0.000000 1.000000
vn 0.000000 0.000000 1.000000
vn 0.293488 -0.955963 0.000000
vn 0.293488 -0.955963 0.000000
vn 0.293488 -0.955963 0.000000
vn 0.293488 -0.955963 0.000000
vn 0.000000 0.000000 -1.000000
vn 0.000000 0.000000 -1.000000
vn 0.000000 0.000000 -1.000000
vn 0.000000 0.000000 -1.000000
vn -0.777352 0.629066 0.000000
vn -0.777352 0.629066 0.000000
vn -0.777352 0.629066 0.000000
vn -0.777352 0.629066 0.000000
vn 0.000000 0.000000 1.000000
vn 0.000000 0.000000 1.000000
vn 0.000000 0.000000 1.000000
vn 0.000000 0.000000 1.000000
vn 0.828619 0.559813 0.000000
vn 0.828619 0.559813 0.000000
vn 0.982510 0.186208 0.000000
vn 0.982510 0.186208 0.000000
vn -0.000000 0.000000 -1.000000
vn 0.000000 0.000000 -1.000000
vn 0.000000 0.000000 -1.000000
vn -0.000000 0.000000 -1.000000
vn 0.000000 0.000000 1.000000
vn 0.000000 0.000000 1.000000
vn 0.000000 0.000000 1.000000
vn 0.000000 0.000000 1.000000
vn 0.175477 -0.984484 0.000000
vn -0.228434 -0.973559 0.000000
vn -0.228434 -0.973559 0.000000
vn 0.175477 -0.984484 0.000000
vn 0.000000 0.000000 -1.000000
vn 0.000000 0.000000 -1.000000
vn 0.000000 0.000000 -1.000000
vn 0.000000 0.000000 -1.000000
vn -0.675120 0.737708 0.000000
vn -0.675120 0.737708 0.000000
vn -0.675120 0.737708 0.000000
vn -0.675120 0.737708 0.000000
vn 0.932786 0.360432 0.000000
vn 0.932786 0.360432 0.000000
vn 0.932786 0.360432 0.000000
vn 0.932786 0.360432 0.000000
vn 0.000000 0.000000 1.000000
vn 0.000000 0.000000 1.000000
vn 0.000000 0.000000 1.000000
vn 0.000000 0.000000 1.000000
vn -0.864442 0.502733 0.000000
vn -0.864442 0.502733 0.000000
vn -0.864442 0.502733 0.000000
vn -0.864442 0.502733 0.000000
vn 0.000000 0.000000 -1.000000
vn 0.000000 0.000000 -1.000000
vn 0.000000 0.000000 -1.000000
vn 0.000000 0.000000 -1.000000
vn 0.997835 0.065771 0.000000
vn 0.997835 0.065771 0.000000
vn 0.997835 0.065771 0.000000
vn 0.997835 0.065771 0.000000
vn 0.000000 0.000000 1.000000
vn 0.000000 0.000000 1.000000
vn 0.000000 0.000000 1.000000
vn 0.000000 0.000000 1.000000
vn -0.228434 -0.973559 0.000000
vn -0.228434 -0.973559 0.000000
vn -0.595050 -0.803688 0.000000
vn -0.595050 -0.803688 0.000000
vn 0.000001 0.000000 -1.000000
vn 0.000000 0.000000 -1.000000
vn 0.000000 0.000000 -1.000000
vn 0.000001 0.000000 -1.000000
vn 0.000000 0.000000 1.000000
vn 0.000000 0.000000 1.000000
vn 0.000000 0.000000 1.000000
vn 0.000000 0.000000 1.000000
vn 0.803459 -0.595360 0.000000
vn 0.502272 -0.864709 0.000000
vn 0.502272 -0.864709 0.000000
vn 0.803459 -0.595360 0.000000
vn -0.000000 0.000000 -1.000000
vn -0.000000 0.000000 -1.000000
vn -0.000000 0.000000 -1.000000
vn -0.000000 0.000000 -1.000000
vn -0.997338 0.072910 0.000000
vn -0.997338 0.072910 0.000000
vn -0.997338 0.072910 0.000000
vn -0.997338 0.072910 0.000000
vn 0.430793 0.902451 0.000000
vn 0.430793 0.902451 0.000000
vn 0.430793 0.902451 0.000000
vn 0.430793 0.902451 0.000000
vn -0.000001 0.000000 1.000000
vn -0.000000 0.000000 1.000000
vn -0.000000 0.000000 1.000000
vn -0.000001 0.000000 1.000000
vn -0.973681 -0.227917 0.000000
vn -0.973681 -0.227917 0.000000
vn -0.973681 -0.227917 0.000000
vn -0.973681 -0.227917 0.000000
vn 0.000000 0.000000 -1.000000
vn 0.000000 0.000000 -1.000000
vn 0.000000 0.000000 -1.000000
vn 0.000000 0.000000 -1.000000
vn 0.680383 0.732857 0.000000
vn 0.680383 0.732857 0.000000
vn 0.680383 0.732857 0.000000
vn 0.680383 0.732857 0.000000
vn -0.000000 0.000000 1.000000
vn 0.000000 0.000000 1.000000
vn 0.000000 0.000000 1.000000
vn -0.000000 0.000000 1.000000
vn 0.502272 -0.864709 0.000000
vn 0.502272 -0.864709 0.000000
vn 0.119083 -0.992884 0.000000
vn 0.119083 -0.992884 0.000000
vn 0.000000 0.000000 -1.000000
vn 0.000000 0.000000 -1.000000
vn 0.000000 0.000000 -1.000000
vn 0.000000 0.000000 -1.000000
s off
f 1/1/1 3/2/2 11/3/3 2/4/4
f 7/5/5 12/6/6 13/7/7 10/8/8
f 4/9/9 14/10/10 5/11/11 6/12/12
f 1/1/13 6/13/14 5/14/15 3/2/16
f 6/15/17 1/1/18 2/4/19 4/16/20
f 2/17/21 11/18/22 12/6/23 7/5/24
f 3/19/25 5/20/26 9/21/27 8/22/28
f 14/23/29 4/24/30 10/8/31 13/7/32
f 4/24/33 2/17/34 7/5/35 10/8/36
f 11/18/37 3/19/38 8/22/39 12/6/40
f 13/7/41 12/6/42 8/22/43 9/21/44
f 5/20/45 14/23/46 13/7/47 9/21/48
f 15/25/49 17/26/50 25/27/51 16/28/52
f 21/29/53 26/30/54 27/31/55 24/32/56
f 18/33/57 28/34/58 19/35/59 20/36/60
f 15/25/61 20/37/62 19/38/63 17/26/64
f 20/39/65 15/25/66 16/28/67 18/40/68
f 16/41/69 25/42/70 26/30/71 21/29/72
f 17/43/73 19/44/74 23/45/75 22/46/76
f 28/47/77 18/48/78 24/32/79 27/31/80
f 18/48/81 16/41/82 21/29/83 24/32/84
f 25/42/85 17/43/86 22/46/87 26/30/88
f 27/31/89 26/30/90 22/46/91 23/45/92
f 19/44/93 28/47/94 27/31/95 23/45/96
f 29/167/97 31/159/98 39/51/99 30/52/100
f 35/53/101 40/152/102 41/146/103 38/163/104
f 32/57/105 42/58/106 33/59/107 34/60/108
f 29/168/109 34/61/110 33/62/111 31/50/112
f 34/63/113 29/49/114 30/165/115 32/64/116
f 30/65/117 39/155/118 40/151/119 35/160/120
f 31/158/121 33/68/122 37/153/123 36/156/124
f 42/71/125 32/164/126 38/162/127 41/147/128
f 32/72/129 30/166/130 35/161/131 38/56/132
f 39/66/133 31/67/134 36/157/135 40/150/136
f 41/145/137 40/54/138 36/70/139 37/154/140
f 33/149/141 42/148/142 41/55/143 37/69/144
f 43/73/145 45/74/146 53/75/147 44/76/148
f 49/77/149 54/78/150 55/79/151 52/80/152
f 46/81/153 56/82/154 47/83/155 48/84/156
f 43/73/157 48/85/158 47/86/159 45/74/160
f 48/87/161 43/73/162 44/76/163 46/88/164
f 44/89/165 53/90/166 54/78/167 49/77/168
f 45/91/169 47/92/170 51/93/171 50/94/172
f 56/95/173 46/96/174 52/80/175 55/79/176
f 46/96/177 44/89/178 49/77/179 52/80/180
f 53/90/181 45/91/182 50/94/183 54/78/184
f 55/79/185 54/78/186 50/94/187 51/93/188
f 47/92/189 56/95/190 55/79/191 51/93/192
f 57/143/193 59/135/194 67/99/195 58/100/196
f 63/101/197 68/128/198 69/122/199 66/139/200
f 60/105/201 70/106/202 61/107/203 62/108/204
f 57/144/205 62/109/206 61/110/207 59/98/208
f 62/111/209 57/97/210 58/141/211 60/112/212
f 58/113/213 67/131/214 68/127/215 63/136/216
f 59/134/217 61/116/218 65/129/219 64/132/220
f 70/119/221 60/140/222 66/138/223 69/123/224
f 60/120/225 58/142/226 63/137/227 66/104/228
f 67/114/229 59/115/230 64/133/231 68/126/232
f 69/121/233 68/102/234 64/118/235 65/130/236
f 61/125/237 70/124/238 69/103/239 65/117/240
