# This file uses centimeters as units for non-parametric coordinates.

v -2.543473 0.919560 24.143539
v -2.543473 0.177081 24.143539
v -1.035604 0.960664 23.113514
v -1.035604 0.135978 23.113514
v -0.686955 0.883775 3.411282
v -0.686955 0.059089 3.411282
v -2.135621 0.842672 2.266602
v -2.135621 0.100192 2.266602
v -4.262206 1.371526 16.900013
v -1.269320 1.300622 16.617153
v -1.269320 0.285650 16.617153
v -4.262206 0.228771 16.900013
v -1.234561 -0.245634 9.560802
v -1.234561 0.769339 9.560802
v -4.229944 0.833230 8.935387
v -4.229944 -0.309525 8.935387
v -1.598289 0.880494 24.872231
v -1.598289 0.216147 24.872231
v -0.882168 0.253290 24.196865
v -0.882169 0.843351 24.196865
v -0.283314 0.940954 2.000065
v -0.096309 -0.158992 1.812279
v -2.064248 0.134299 0.758316
v -1.015578 0.955600 0.968449
v 0.000000 0.000000 0.000000
v -1.266421 1.428874 2.953407
v -2.432714 1.474902 9.310635
v -2.743325 2.013197 16.840565
v -1.789539 1.505763 23.628529
v -1.240229 1.104935 24.534542
v -1.240228 -0.008294 24.534542
v -1.789539 -0.409122 23.628529
v -2.743325 -0.412901 16.840565
v -2.732253 -0.951197 9.248093
v -1.411288 -0.486010 2.838940
vt 0.144494 0.356528
vt 0.144494 0.356528
vt 0.144494 0.356528
vt 0.144494 0.356528
vt 0.144494 0.356528
vt 0.144494 0.356528
vt 0.144494 0.356528
vt 0.144494 0.356528
vt 0.144494 0.356528
vt 0.144494 0.356528
vt 0.144494 0.356528
vt 0.144494 0.356528
vt 0.144494 0.356528
vt 0.144494 0.356528
vt 0.144494 0.356528
vt 0.144494 0.356528
vt 0.144494 0.356528
vt 0.144494 0.356528
vt 0.144494 0.356528
vt 0.144494 0.356528
vt 0.144494 0.356528
vt 0.144494 0.356528
vt 0.144494 0.356528
vt 0.144494 0.356528
vt 0.144494 0.356528
vt 0.144494 0.356528
vt 0.144494 0.356528
vt 0.144494 0.356528
vt 0.144494 0.356528
vt 0.144494 0.356528
vt 0.144494 0.356528
vt 0.144494 0.356528
vt 0.144494 0.356528
vt 0.144494 0.356528
vt 0.144494 0.356528
vt 0.144494 0.356528
vt 0.144494 0.356528
vt 0.144494 0.356528
vt 0.144494 0.356528
vt 0.144494 0.356528
vt 0.144494 0.356528
vt 0.144494 0.356528
vt 0.144494 0.356528
vt 0.144494 0.356528
vt 0.144494 0.356528
vt 0.144494 0.356528
vt 0.144494 0.356528
vt 0.144494 0.356528
vt 0.144494 0.356528
vt 0.144494 0.356528
vt 0.144494 0.356528
vn 0.686097 0.000000 0.727510
vn 0.686097 0.000000 0.727510
vn 0.686097 0.000000 0.727510
vn 0.686097 0.000000 0.727510
vn 0.999988 0.000000 0.004926
vn 0.999988 0.000000 0.004926
vn 0.999988 0.000000 0.004926
vn 0.999988 0.000000 0.004926
vn -0.999992 0.000000 -0.004051
vn -0.999992 0.000000 -0.004051
vn -0.999992 0.000000 -0.004051
vn -0.999992 0.000000 -0.004051
vn 0.424588 -0.902885 0.067252
vn 0.424588 -0.902885 0.067252
vn 0.424588 -0.902885 0.067252
vn 0.424588 -0.902885 0.067252
vn 0.468528 0.881823 -0.053568
vn 0.468528 0.881823 -0.053568
vn 0.468528 0.881823 -0.053568
vn 0.468528 0.881823 -0.053568
vn 0.494379 0.869174 0.011251
vn 0.494379 0.869174 0.011251
vn 0.494379 0.869174 0.011251
vn 0.494379 0.869174 0.011251
vn 0.999354 0.000000 -0.035953
vn 0.999354 0.000000 -0.035953
vn 0.999354 0.000000 -0.035953
vn 0.999354 0.000000 -0.035953
vn 0.473559 -0.879227 -0.051988
vn 0.473559 -0.879226 -0.051988
vn 0.473559 -0.879227 -0.051988
vn 0.473559 -0.879227 -0.051988
vn -0.972985 0.000000 0.230868
vn -0.972985 0.000000 0.230868
vn -0.972985 0.000000 0.230868
vn -0.972985 0.000000 0.230868
vn 0.996059 0.000000 0.088698
vn 0.996059 0.000000 0.088698
vn 0.996059 0.000000 0.088698
vn 0.996059 0.000000 0.088698
vn 0.552002 0.829979 0.080185
vn 0.552002 0.829979 0.080185
vn 0.552002 0.829979 0.080185
vn 0.552002 0.829979 0.080185
vn -0.954058 0.000000 -0.299621
vn -0.954058 0.000000 -0.299621
vn -0.954058 0.000000 -0.299621
vn -0.954058 0.000000 -0.299621
vn 0.484794 -0.874432 0.018524
vn 0.484794 -0.874432 0.018524
vn 0.484794 -0.874432 0.018524
vn 0.484794 -0.874432 0.018524
vn -0.610566 0.000000 0.791965
vn -0.610566 0.000000 0.791965
vn -0.610566 0.000000 0.791965
vn -0.610566 0.000000 0.791965
vn 0.588537 -0.808466 0.002667
vn 0.588537 -0.808466 0.002667
vn 0.588537 -0.808466 0.002667
vn 0.588537 -0.808466 0.002667
vn 0.990119 0.000000 -0.140232
vn 0.990119 0.000000 -0.140232
vn 0.990119 0.000000 -0.140232
vn 0.990119 0.000000 -0.140232
vn 0.588538 0.808465 0.002667
vn 0.588538 0.808465 0.002667
vn 0.588538 0.808465 0.002667
vn 0.588538 0.808465 0.002667
vn 0.948701 0.061928 0.310049
vn 0.948701 0.061928 0.310049
vn 0.948701 0.061928 0.310049
vn 0.948701 0.061928 0.310049
vn 0.429249 -0.860029 0.275853
vn 0.429249 -0.860029 0.275853
vn 0.429249 -0.860029 0.275853
vn -0.773451 0.558864 -0.299073
vn -0.773451 0.558864 -0.299073
vn -0.773451 0.558864 -0.299073
vn -0.773451 0.558864 -0.299073
vn 0.420898 0.906613 -0.029965
vn 0.420898 0.906613 -0.029965
vn 0.420898 0.906613 -0.029965
vn 0.420898 0.906613 -0.029965
vn 0.794955 0.230928 -0.560998
vn 0.794955 0.230928 -0.560998
vn 0.794955 0.230928 -0.560998
vn 0.730000 0.676366 0.098132
vn 0.729999 0.676366 0.098132
vn 0.729999 0.676366 0.098132
vn -0.098320 -0.990879 -0.092155
vn -0.098320 -0.990879 -0.092155
vn -0.098320 -0.990879 -0.092155
vn -0.259855 0.537112 -0.802487
vn -0.259855 0.537112 -0.802487
vn -0.259855 0.537112 -0.802487
vn -0.390298 0.883239 -0.259914
vn -0.390299 0.883239 -0.259914
vn -0.390298 0.883239 -0.259914
vn -0.383571 0.918234 -0.098593
vn -0.383571 0.918234 -0.098593
vn -0.383571 0.918234 -0.098593
vn -0.383571 0.918234 -0.098593
vn -0.353942 0.932444 -0.072620
vn -0.353942 0.932444 -0.072620
vn -0.353942 0.932444 -0.072620
vn -0.353942 0.932444 -0.072620
vn -0.441759 0.885391 0.144678
vn -0.441759 0.885391 0.144678
vn -0.441759 0.885391 0.144678
vn -0.441759 0.885391 0.144678
vn -0.259963 0.846092 0.465347
vn -0.259963 0.846092 0.465347
vn -0.259963 0.846092 0.465347
vn -0.259963 0.846092 0.465347
vn 0.686107 0.000000 0.727501
vn 0.686107 0.000000 0.727501
vn 0.686107 0.000000 0.727501
vn 0.686107 0.000000 0.727501
vn -0.259964 -0.846092 0.465347
vn -0.259964 -0.846092 0.465347
vn -0.259964 -0.846092 0.465347
vn -0.259964 -0.846092 0.465347
vn -0.457108 -0.885432 0.084040
vn -0.457108 -0.885432 0.084040
vn -0.457108 -0.885432 0.084040
vn -0.457108 -0.885432 0.084040
vn -0.395142 -0.916504 0.062324
vn -0.395142 -0.916504 0.062324
vn -0.395142 -0.916504 0.062324
vn -0.395142 -0.916504 0.062324
vn -0.423808 -0.889619 -0.170192
vn -0.423808 -0.889619 -0.170192
vn -0.423808 -0.889619 -0.170192
vn -0.423808 -0.889619 -0.170192
vn -0.173163 -0.957398 -0.231092
vn -0.173163 -0.957398 -0.231092
vn -0.173163 -0.957398 -0.231092
vn -0.173163 -0.957398 -0.231092
s off
f 30/45/1 31/46/2 19/33/3 20/34/4
f 10/18/5 11/19/6 13/23/7 14/26/8
f 15/28/9 16/29/10 12/21/11 9/16/12
f 11/20/13 33/48/14 34/49/15 13/24/16
f 14/25/17 27/42/18 28/43/19 10/17/20
f 10/17/21 28/43/22 29/44/23 3/3/24
f 3/3/25 4/4/26 11/19/27 10/18/28
f 32/47/29 33/48/30 11/20/31 4/4/32
f 9/16/33 12/21/34 2/10/35 1/9/36
f 14/26/37 13/23/38 6/6/39 5/5/40
f 26/40/41 27/42/42 14/25/43 5/14/44
f 7/7/45 8/8/46 16/29/47 15/28/48
f 13/24/49 34/49/50 35/51/51 6/12/52
f 1/1/53 2/2/54 18/32/55 17/31/56
f 31/46/57 32/47/58 4/4/59 19/33/60
f 4/4/61 3/3/62 20/34/63 19/33/64
f 3/3/65 29/44/66 30/45/67 20/34/68
f 5/5/69 6/6/70 22/36/71 21/35/72
f 6/6/73 35/50/74 22/36/75
f 8/8/76 7/7/77 24/38/78 23/37/79
f 24/38/80 26/41/81 5/5/82 21/35/83
f 22/36/84 24/38/85 21/35/86
f 24/38/87 22/36/88 25/39/89
f 22/36/90 23/37/91 25/39/92
f 23/37/93 24/38/94 25/39/95
f 7/7/96 26/41/97 24/38/98
f 7/13/99 15/27/100 27/42/101 26/40/102
f 28/43/103 27/42/104 15/27/105 9/15/106
f 29/44/107 28/43/108 9/15/109 1/1/110
f 30/45/111 29/44/112 1/1/113 17/31/114
f 17/31/115 18/32/116 31/46/117 30/45/118
f 2/2/119 32/47/120 31/46/121 18/32/122
f 2/2/123 12/22/124 33/48/125 32/47/126
f 34/49/127 33/48/128 12/22/129 16/30/130
f 35/51/131 34/49/132 16/30/133 8/11/134
f 22/36/135 35/50/136 8/8/137 23/37/138
