# This file uses centimeters as units for non-parametric coordinates.

v 73.312248 -23.134453 52.841488
v -13.556816 -20.863670 52.841488
v 73.312248 17.991341 51.809437
v -13.556816 17.991341 52.841488
v 73.312248 17.991341 50.433277
v -13.556816 17.991341 50.433277
v 73.312248 -23.134453 50.433277
v -13.556816 -21.103043 50.433277
v -11.102081 -23.134453 52.841488
v -11.360840 -23.134453 50.433277
v 20.192505 -23.134453 52.841488
v 4.472111 -23.134453 52.841488
v 12.001610 -20.799194 52.841488
v 11.691427 -23.134453 51.661457
v 70.296638 17.991341 52.841488
v 73.312248 14.179031 52.841488
v 56.863068 17.991341 52.841488
v 49.219566 17.991341 52.841488
v 53.048492 17.991341 51.767117
v 53.075359 16.515610 52.841488
v 26.547239 17.991341 50.433277
v 17.409575 17.991341 50.433277
v 23.029785 17.991341 51.611832
v 22.733448 15.784836 50.433277
vt 0.430131 0.544016
vt 0.430131 0.544016
vt 0.430131 0.544016
vt 0.430131 0.544016
vt 0.430131 0.544016
vt 0.430131 0.544016
vt 0.430131 0.544016
vt 0.430131 0.544016
vt 0.430131 0.544016
vt 0.430131 0.544016
vt 0.430131 0.544016
vt 0.430131 0.544016
vt 0.430131 0.544016
vt 0.430131 0.544016
vt 0.443840 0.509457
vt 0.030941 0.513677
vt 0.030941 0.662309
vt 0.443840 0.662309
vt 0.042609 0.509457
vt 0.430131 0.544016
vt 0.430131 0.544016
vt 0.191356 0.509457
vt 0.430131 0.544016
vt 0.116635 0.509457
vt 0.430131 0.544016
vt 0.152423 0.518137
vt 0.430131 0.544016
vt 0.150604 0.509457
vt 0.430131 0.544016
vt 0.429506 0.662309
vt 0.430131 0.544016
vt 0.443840 0.648140
vt 0.430131 0.544016
vt 0.365655 0.662309
vt 0.430131 0.544016
vt 0.329324 0.662309
vt 0.430131 0.544016
vt 0.347651 0.656825
vt 0.347220 0.662309
vt 0.430131 0.544016
vt 0.430131 0.544016
vt 0.430131 0.544016
vt 0.430131 0.544016
vn 0.313672 0.248122 0.916540
vn 0.313672 0.248122 0.916540
vn 0.313672 0.248122 0.916540
vn 0.000000 0.000000 -1.000000
vn 0.000000 0.000000 -1.000000
vn 0.000000 0.000000 -1.000000
vn 0.000000 0.000000 -1.000000
vn 0.000000 0.000000 -1.000000
vn 0.000000 -1.000000 0.000000
vn 0.000000 -1.000000 0.000000
vn 0.000000 -1.000000 0.000000
vn 0.000000 -1.000000 0.000000
vn -0.677265 -0.732131 0.072772
vn -0.677266 -0.732131 0.072772
vn -0.677266 -0.732131 0.072772
vn -0.677265 -0.732131 0.072772
vn -1.000000 0.000000 0.000000
vn -1.000000 0.000000 0.000000
vn -1.000000 0.000000 0.000000
vn -1.000000 0.000000 0.000000
vn -0.123843 -0.434377 0.892177
vn -0.123843 -0.434377 0.892177
vn -0.123843 -0.434377 0.892177
vn 0.143114 -0.461436 0.875554
vn 0.143114 -0.461436 0.875554
vn 0.143114 -0.461436 0.875554
vn 0.000000 1.000000 0.000000
vn 0.000000 1.000000 0.000000
vn 0.000000 1.000000 0.000000
vn 0.000000 1.000000 0.000000
vn 1.000000 0.000000 0.000000
vn 1.000000 0.000000 0.000000
vn 1.000000 0.000000 0.000000
vn 1.000000 0.000000 0.000000
vn 1.000000 0.000000 0.000000
vn 0.000000 0.000000 1.000000
vn 0.000000 0.000000 1.000000
vn 0.000000 0.000000 1.000000
vn 0.000000 0.000000 1.000000
vn 0.000000 0.000000 1.000000
vn -0.222530 0.571161 0.790098
vn -0.222530 0.571161 0.790098
vn -0.222530 0.571161 0.790098
vn 0.220712 0.576679 0.786593
vn 0.220712 0.576679 0.786593
vn 0.220712 0.576679 0.786593
vn 0.183919 0.443765 -0.877067
vn 0.183919 0.443765 -0.877067
vn 0.183919 0.443765 -0.877067
vn -0.278475 0.481329 -0.831128
vn -0.278475 0.481329 -0.831128
vn -0.278475 0.481329 -0.831128
vn 0.000000 0.000000 1.000000
vn 0.000000 0.000000 1.000000
vn 0.000000 0.000000 1.000000
vn 0.000000 0.000000 1.000000
vn -0.000000 0.000000 1.000000
vn -0.000000 0.000000 1.000000
vn -0.000000 0.000000 1.000000
vn -0.000000 0.000000 1.000000
vn -0.000001 0.000000 1.000000
vn -0.000001 0.000000 1.000000
vn -0.000001 0.000000 1.000000
vn -0.000001 0.000000 1.000000
vn -0.000001 0.000000 1.000000
vn 0.000000 -1.000000 -0.000002
vn 0.000000 -1.000000 -0.000002
vn 0.000000 -1.000000 -0.000002
vn 0.000000 -1.000000 -0.000002
vn 0.000000 -1.000000 0.000002
vn 0.000000 -1.000000 0.000002
vn 0.000000 -1.000000 0.000002
vn 0.000000 1.000000 0.000000
vn 0.000000 1.000000 0.000000
vn 0.000000 1.000000 0.000000
vn 0.000000 1.000000 0.000000
vn 0.000000 1.000000 0.000000
vn 0.000000 1.000000 0.000000
vn 0.000000 1.000000 0.000000
vn 0.000000 1.000000 0.000000
vn 0.000000 1.000000 0.000000
vn 0.000000 1.000000 -0.000001
vn 0.000000 1.000000 -0.000001
vn 0.000000 1.000000 -0.000001
vn 0.000000 1.000000 -0.000001
vn 0.000000 0.000000 -1.000000
vn 0.000000 0.000000 -1.000000
vn 0.000000 0.000000 -1.000000
vn 0.000000 0.000000 -1.000000
vn 0.000000 0.000000 -1.000000
vn 0.000000 0.000000 -1.000000
vn 0.000000 0.000000 -1.000000
s off
f 16/32/1 3/18/2 15/30/3
f 10/21/4 8/8/5 6/6/6 22/41/7 24/43/8
f 7/7/9 1/9/10 11/23/11 14/27/12
f 9/20/13 2/10/14 8/8/15 10/21/16
f 2/2/17 4/4/18 6/12/19 8/11/20
f 14/28/21 11/22/22 13/26/23
f 12/24/24 14/28/25 13/26/26
f 23/42/27 4/4/28 18/35/29 19/37/30
f 7/13/31 5/14/32 3/3/33 16/31/34 1/1/35
f 4/17/36 2/16/37 9/19/38 12/24/39 13/26/40
f 17/34/41 19/39/42 20/38/43
f 19/39/44 18/36/45 20/38/46
f 22/41/47 23/42/48 24/43/49
f 23/42/50 21/40/51 24/43/52
f 1/15/53 20/38/54 13/26/55 11/22/56
f 20/38/57 18/36/58 4/17/59 13/26/60
f 1/15/61 16/32/62 15/30/63 17/34/64 20/38/65
f 14/27/66 12/25/67 9/20/68 10/21/69
f 7/7/70 14/27/71 10/21/72
f 23/42/73 22/41/74 6/6/75 4/4/76
f 3/3/77 5/5/78 19/37/79 17/33/80 15/29/81
f 5/5/82 21/40/83 23/42/84 19/37/85
f 5/5/86 7/7/87 24/43/88 21/40/89
f 7/7/90 10/21/91 24/43/92
