# This file uses centimeters as units for non-parametric coordinates.

v 0.120331 71.653465 -0.878815
v -1.345703 40.913940 0.441437
v 0.568787 40.732735 0.720123
v -0.780457 40.885963 -0.893250
v 2.128784 72.907845 1.047302
v 2.619354 72.874763 0.378448
v 1.133453 51.839275 -0.690033
v -0.443787 54.881836 -0.463196
v -0.327454 51.937824 1.301910
v 1.495453 51.501293 1.126312
v 1.658264 57.491776 -0.584717
v 2.022461 57.228779 1.229584
v 0.197327 57.590309 1.407227
v 0.010864 59.822811 -0.374084
v 2.113739 62.449722 -0.495819
v 2.484344 62.248486 1.320099
v 0.652771 62.548264 1.496124
v 0.448853 64.582664 -0.288269
v 2.503021 66.641411 -0.417603
v 2.868408 66.422569 1.395355
v 1.042114 66.739952 1.574341
v 0.799744 68.396339 -0.219482
v 2.696899 70.690285 -0.420898
v 3.259521 70.672974 1.472015
v 1.288147 70.785294 1.499969
v -1.252228 49.037338 -0.767059
v -0.496033 48.933937 1.107849
v 0.726746 49.309856 -0.808502
v -0.044373 54.984402 1.358856
v 1.416595 54.885841 -0.633118
v 0.417419 59.968147 1.451111
v 1.878357 59.869583 -0.540894
v 0.848022 64.662773 1.534760
v 2.308990 64.564240 -0.457214
v 1.208893 68.583458 1.605530
v 2.669830 68.484909 -0.386444
v -1.625488 52.718342 -1.222870
v -0.672791 62.989601 -1.032074
v -1.141907 57.918209 -1.125336
v -0.276489 67.283195 -0.953796
v 4.099487 69.123772 2.164673
v 3.687164 64.702286 2.080902
v 3.287048 60.312695 2.004517
v 2.785278 54.898376 1.904266
v -2.570679 -11.817031 0.664673
v 0.070709 -11.817032 0.671021
v -1.510681 -11.817032 -1.707764
v -4.035919 -11.817032 -0.363342
v -5.758759 39.698921 -1.250092
v -4.930450 39.345146 -5.550720
v -2.117828 40.392773 -3.222473
v -3.660339 -11.817032 -4.754791
v -0.471863 -11.817032 -2.599579
v -8.829651 50.454674 -6.166504
v -3.660339 27.145184 -4.754791
v -4.035919 27.145180 -0.363342
v -0.471863 27.145184 -2.599579
v 2.344330 -11.817032 -3.686249
v 4.042877 30.339663 -5.408722
v 7.424042 29.578938 -3.014465
v 5.118286 30.941856 -1.519073
v 6.240692 -11.817032 -1.626221
v 3.011780 -11.817032 0.467957
v 10.390686 39.251968 -6.358276
v 6.277252 17.451363 -1.433990
v 2.451050 17.747782 -3.539612
v 3.174133 17.982430 0.578583
v 1.192505 -11.817032 7.254852
v 1.041809 8.846769 7.253418
v -0.914856 8.390079 10.340942
v -2.303467 9.225252 8.275940
v -0.450989 -11.817032 10.714111
v -2.389069 -11.817032 7.988800
v 0.524933 18.166573 11.594330
vt 0.072779 0.178957
vt 0.072779 0.178957
vt 0.072779 0.178957
vt 0.072779 0.178957
vt 0.072779 0.178957
vt 0.072779 0.178957
vt 0.072779 0.178957
vt 0.072779 0.178957
vt 0.072779 0.178957
vt 0.072779 0.178957
vt 0.072779 0.178957
vt 0.072779 0.178957
vt 0.072779 0.178957
vt 0.072779 0.178957
vt 0.072779 0.178957
vt 0.072779 0.178957
vt 0.072779 0.178957
vt 0.072779 0.178957
vt 0.072779 0.178957
vt 0.072779 0.178957
vt 0.072779 0.178957
vt 0.072779 0.178957
vt 0.072779 0.178957
vt 0.072779 0.178957
vt 0.072779 0.178957
vt 0.072779 0.178957
vt 0.072779 0.178957
vt 0.072779 0.178957
vt 0.072779 0.178957
vt 0.072779 0.178957
vt 0.072779 0.178957
vt 0.072779 0.178957
vt 0.072779 0.178957
vt 0.072779 0.178957
vt 0.072779 0.178957
vt 0.072779 0.178957
vt 0.072779 0.178957
vt 0.072779 0.178957
vt 0.072779 0.178957
vt 0.072779 0.178957
vt 0.072779 0.178957
vt 0.072779 0.178957
vt 0.072779 0.178957
vt 0.072779 0.178957
vt 0.072779 0.178957
vt 0.072779 0.178957
vt 0.072779 0.178957
vt 0.072779 0.178957
vt 0.072779 0.178957
vt 0.072779 0.178957
vt 0.072779 0.178957
vt 0.072779 0.178957
vt 0.072779 0.178957
vt 0.072779 0.178957
vt 0.072779 0.178957
vt 0.072779 0.178957
vt 0.072779 0.178957
vt 0.072779 0.178957
vt 0.072779 0.178957
vt 0.072779 0.178957
vt 0.072779 0.178957
vt 0.072779 0.178957
vt 0.072779 0.178957
vt 0.072779 0.178957
vt 0.072779 0.178957
vt 0.072779 0.178957
vt 0.072779 0.178957
vt 0.072779 0.178957
vt 0.072779 0.178957
vt 0.072779 0.178957
vt 0.072779 0.178957
vt 0.072779 0.178957
vt 0.072779 0.178957
vt 0.072779 0.178957
vt 0.072779 0.178957
vt 0.072779 0.178957
vt 0.072779 0.178957
vt 0.072779 0.178957
vt 0.072779 0.178957
vt 0.072779 0.178957
vt 0.072779 0.178957
vt 0.072779 0.178957
vt 0.072779 0.178957
vt 0.072779 0.178957
vt 0.072779 0.178957
vt 0.072779 0.178957
vt 0.072779 0.178957
vt 0.072779 0.178957
vt 0.072779 0.178957
vt 0.072779 0.178957
vt 0.072779 0.178957
vt 0.072779 0.178957
vt 0.072779 0.178957
vt 0.072779 0.178957
vt 0.072779 0.178957
vt 0.072779 0.178957
vt 0.072779 0.178957
vt 0.072779 0.178957
vt 0.072779 0.178957
vt 0.072779 0.178957
vt 0.072779 0.178957
vt 0.072779 0.178957
vt 0.072779 0.178957
vt 0.072779 0.178957
vt 0.072779 0.178957
vt 0.072779 0.178957
vt 0.072779 0.178957
vt 0.072779 0.178957
vt 0.072779 0.178957
vt 0.072779 0.178957
vt 0.072779 0.178957
vt 0.072779 0.178957
vt 0.072779 0.178957
vt 0.072779 0.178957
vt 0.072779 0.178957
vt 0.072779 0.178957
vt 0.072779 0.178957
vt 0.072779 0.178957
vt 0.072779 0.178957
vt 0.072779 0.178957
vt 0.072779 0.178957
vt 0.072779 0.178957
vt 0.072779 0.178957
vt 0.072779 0.178957
vt 0.072779 0.178957
vt 0.072779 0.178957
vt 0.072779 0.178957
vt 0.072779 0.178957
vt 0.072779 0.178957
vt 0.072779 0.178957
vt 0.072779 0.178957
vt 0.072779 0.178957
vt 0.072779 0.178957
vt 0.072779 0.178957
vt 0.072779 0.178957
vt 0.072779 0.178957
vt 0.072779 0.178957
vt 0.072779 0.178957
vt 0.072779 0.178957
vt 0.072779 0.178957
vt 0.072779 0.178957
vt 0.072779 0.178957
vt 0.072779 0.178957
vt 0.072779 0.178957
vt 0.072779 0.178957
vt 0.072779 0.178957
vt 0.072779 0.178957
vt 0.072779 0.178957
vt 0.072779 0.178957
vt 0.072779 0.178957
vt 0.072779 0.178957
vt 0.072779 0.178957
vt 0.072779 0.178957
vt 0.072779 0.178957
vt 0.072779 0.178957
vt 0.072779 0.178957
vt 0.072779 0.178957
vt 0.072779 0.178957
vt 0.072779 0.178957
vt 0.072779 0.178957
vt 0.072779 0.178957
vt 0.072779 0.178957
vt 0.072779 0.178957
vt 0.072779 0.178957
vt 0.072779 0.178957
vt 0.072779 0.178957
vt 0.072779 0.178957
vt 0.072779 0.178957
vt 0.072779 0.178957
vt 0.072779 0.178957
vt 0.072779 0.178957
vt 0.072779 0.178957
vt 0.072779 0.178957
vt 0.072779 0.178957
vt 0.072779 0.178957
vt 0.072779 0.178957
vt 0.072779 0.178957
vt 0.072779 0.178957
vn -0.877759 0.072622 0.473566
vn -0.877759 0.072622 0.473566
vn -0.877759 0.072622 0.473566
vn -0.308830 0.911520 -0.271578
vn -0.308830 0.911520 -0.271578
vn -0.308830 0.911520 -0.271578
vn 0.189660 0.000647 -0.981850
vn 0.189660 0.000647 -0.981850
vn 0.189660 0.000647 -0.981850
vn 0.091545 -0.026968 0.995436
vn 0.091545 -0.026968 0.995436
vn 0.091545 -0.026968 0.995436
vn 0.725227 0.463657 0.508987
vn 0.725227 0.463657 0.508987
vn 0.725227 0.463657 0.508987
vn 0.974275 -0.086487 -0.208108
vn 0.974275 -0.086487 -0.208108
vn 0.974275 -0.086487 -0.208108
vn 0.194128 0.014726 -0.980866
vn 0.194128 0.014726 -0.980866
vn 0.194128 0.014726 -0.980866
vn -0.886656 0.019913 0.462002
vn -0.886656 0.019913 0.462002
vn -0.886656 0.019913 0.462002
vn 0.079345 -0.068699 0.994477
vn 0.079345 -0.068699 0.994477
vn 0.079345 -0.068699 0.994477
vn 0.964852 -0.144871 -0.219254
vn 0.964852 -0.144871 -0.219254
vn 0.964852 -0.144871 -0.219254
vn 0.974343 -0.085249 -0.208298
vn 0.974343 -0.085249 -0.208298
vn 0.974343 -0.085249 -0.208298
vn 0.091463 -0.025710 0.995477
vn 0.091463 -0.025710 0.995476
vn 0.091463 -0.025710 0.995476
vn -0.878147 0.071851 0.472964
vn -0.878147 0.071851 0.472964
vn -0.878147 0.071851 0.472964
vn 0.188962 -0.000084 -0.981984
vn 0.188962 -0.000084 -0.981984
vn 0.188962 -0.000084 -0.981984
vn 0.974477 -0.087081 -0.206909
vn 0.974477 -0.087081 -0.206909
vn 0.974477 -0.087081 -0.206909
vn 0.092743 -0.027632 0.995307
vn 0.092743 -0.027632 0.995307
vn 0.092743 -0.027632 0.995307
vn -0.877764 0.072996 0.473500
vn -0.877764 0.072996 0.473500
vn -0.877764 0.072996 0.473500
vn 0.189643 0.001009 -0.981853
vn 0.189643 0.001009 -0.981853
vn 0.189643 0.001009 -0.981853
vn 0.958389 -0.016216 -0.285006
vn 0.958388 -0.016216 -0.285006
vn 0.958389 -0.016216 -0.285006
vn 0.016856 0.047275 0.998740
vn 0.016856 0.047275 0.998740
vn 0.016856 0.047275 0.998740
vn -0.888447 0.053832 0.455811
vn -0.888447 0.053832 0.455811
vn -0.888447 0.053832 0.455811
vn 0.168621 -0.017466 -0.985526
vn 0.168621 -0.017466 -0.985526
vn 0.168621 -0.017466 -0.985526
vn 0.949914 0.136577 -0.281089
vn 0.949914 0.136577 -0.281089
vn 0.949914 0.136577 -0.281089
vn 0.025227 0.198942 0.979686
vn 0.025227 0.198942 0.979686
vn 0.025227 0.198942 0.979686
vn -0.751702 0.408185 0.518005
vn -0.751702 0.408185 0.518005
vn -0.751702 0.408185 0.518005
vn 0.285789 0.338234 -0.896617
vn 0.285789 0.338234 -0.896617
vn 0.285789 0.338234 -0.896617
vn -0.920153 -0.047238 -0.388699
vn -0.920153 -0.047238 -0.388699
vn -0.920153 -0.047238 -0.388699
vn -0.924069 0.066625 0.376374
vn -0.924069 0.066625 0.376374
vn -0.924069 0.066625 0.376374
vn 0.044186 -0.041453 0.998163
vn 0.044186 -0.041453 0.998163
vn 0.044186 -0.041453 0.998163
vn 0.951899 -0.070667 -0.298152
vn 0.951899 -0.070667 -0.298152
vn 0.951899 -0.070667 -0.298152
vn -0.022883 0.014151 -0.999638
vn -0.022883 0.014151 -0.999638
vn -0.022883 0.014151 -0.999638
vn -0.974144 0.086615 0.208668
vn -0.974144 0.086615 0.208668
vn -0.974144 0.086615 0.208668
vn -0.189286 -0.000766 0.981922
vn -0.189286 -0.000766 0.981922
vn -0.189286 -0.000766 0.981922
vn 0.877941 -0.072754 -0.473208
vn 0.877941 -0.072754 -0.473208
vn 0.877941 -0.072754 -0.473208
vn -0.090983 0.027053 -0.995485
vn -0.090983 0.027053 -0.995485
vn -0.090983 0.027053 -0.995485
vn -0.973876 0.086265 0.210058
vn -0.973876 0.086265 0.210058
vn -0.973876 0.086265 0.210058
vn -0.189290 -0.000601 0.981921
vn -0.189290 -0.000601 0.981921
vn -0.189290 -0.000601 0.981921
vn 0.877940 -0.072541 -0.473243
vn 0.877940 -0.072541 -0.473243
vn 0.877940 -0.072541 -0.473243
vn -0.089598 0.026643 -0.995622
vn -0.089598 0.026643 -0.995622
vn -0.089598 0.026643 -0.995622
vn -0.974012 0.086112 0.209487
vn -0.974012 0.086112 0.209487
vn -0.974012 0.086112 0.209487
vn -0.188892 -0.000500 0.981998
vn -0.188892 -0.000500 0.981998
vn -0.188892 -0.000500 0.981998
vn 0.878141 -0.072453 -0.472885
vn 0.878141 -0.072453 -0.472885
vn 0.878141 -0.072453 -0.472885
vn -0.090160 0.026501 -0.995575
vn -0.090160 0.026501 -0.995575
vn -0.090160 0.026501 -0.995575
vn -0.974098 0.084577 0.209712
vn -0.974098 0.084577 0.209712
vn -0.974098 0.084577 0.209712
vn -0.190020 0.000581 0.981780
vn -0.190020 0.000581 0.981780
vn -0.190020 0.000581 0.981780
vn 0.877649 -0.071404 -0.473955
vn 0.877649 -0.071404 -0.473955
vn 0.877649 -0.071404 -0.473955
vn -0.090072 0.024978 -0.995622
vn -0.090072 0.024978 -0.995622
vn -0.090072 0.024978 -0.995622
vn 0.246447 0.198480 -0.948615
vn 0.246447 0.198480 -0.948615
vn 0.246447 0.198480 -0.948615
vn -0.927255 -0.048044 0.371335
vn -0.927255 -0.048044 0.371335
vn -0.927255 -0.048044 0.371335
vn -0.819676 0.270386 0.504997
vn -0.819676 0.270386 0.504997
vn -0.819676 0.270386 0.504997
vn -0.960674 -0.160279 0.226750
vn -0.960674 -0.160279 0.226750
vn -0.960674 -0.160279 0.226750
vn -0.806222 0.342374 0.482479
vn -0.806222 0.342374 0.482479
vn -0.806222 0.342374 0.482479
vn 0.232445 0.272294 -0.933716
vn 0.232445 0.272294 -0.933716
vn 0.232445 0.272294 -0.933716
vn -0.081341 -0.219563 -0.972202
vn -0.081341 -0.219563 -0.972202
vn -0.081341 -0.219563 -0.972202
vn -0.960719 -0.153611 0.231134
vn -0.960719 -0.153611 0.231134
vn -0.960719 -0.153611 0.231134
vn -0.076861 -0.213195 -0.973982
vn -0.076861 -0.213195 -0.973982
vn -0.076861 -0.213195 -0.973982
vn -0.960048 -0.172720 0.220174
vn -0.960048 -0.172720 0.220174
vn -0.960048 -0.172720 0.220174
vn -0.823070 0.310627 0.475464
vn -0.823071 0.310627 0.475464
vn -0.823070 0.310627 0.475464
vn 0.219169 0.240339 -0.945623
vn 0.219169 0.240339 -0.945623
vn 0.219169 0.240339 -0.945623
vn -0.087994 -0.231508 -0.968845
vn -0.087994 -0.231508 -0.968845
vn -0.087994 -0.231508 -0.968845
vn -0.954678 -0.202708 0.217942
vn -0.954678 -0.202709 0.217942
vn -0.954678 -0.202708 0.217942
vn -0.765714 0.417662 0.489123
vn -0.765714 0.417662 0.489123
vn -0.765714 0.417662 0.489123
vn 0.254547 0.348878 -0.901937
vn 0.254547 0.348878 -0.901937
vn 0.254547 0.348878 -0.901937
vn -0.089880 -0.261008 -0.961143
vn -0.089880 -0.261008 -0.961143
vn -0.089880 -0.261008 -0.961143
vn -0.233547 0.288532 0.928550
vn -0.233547 0.288532 0.928550
vn -0.233547 0.288532 0.928550
vn 0.042951 -0.291720 0.955539
vn 0.042951 -0.291720 0.955539
vn 0.042951 -0.291720 0.955539
vn 0.909155 -0.350127 -0.225496
vn 0.909155 -0.350127 -0.225496
vn 0.909155 -0.350127 -0.225496
vn 0.827388 0.216997 -0.518016
vn 0.827388 0.216997 -0.518016
vn 0.827388 0.216997 -0.518016
vn -0.184817 0.286651 0.940040
vn -0.184817 0.286651 0.940040
vn -0.184817 0.286650 0.940040
vn 0.039836 -0.313672 0.948696
vn 0.039836 -0.313672 0.948696
vn 0.039836 -0.313672 0.948696
vn 0.900661 -0.371728 -0.225005
vn 0.900662 -0.371728 -0.225005
vn 0.900662 -0.371728 -0.225005
vn 0.852935 0.216688 -0.474920
vn 0.852935 0.216688 -0.474920
vn 0.852935 0.216688 -0.474920
vn -0.211967 0.246462 0.945688
vn -0.211967 0.246462 0.945688
vn -0.211967 0.246462 0.945688
vn 0.042432 -0.259819 0.964725
vn 0.042432 -0.259819 0.964725
vn 0.042432 -0.259819 0.964725
vn 0.919246 -0.318959 -0.230764
vn 0.919246 -0.318959 -0.230764
vn 0.919246 -0.318959 -0.230764
vn 0.848227 0.174988 -0.499890
vn 0.848227 0.174988 -0.499890
vn 0.848227 0.174988 -0.499890
vn -0.178220 0.219371 0.959226
vn -0.178220 0.219371 0.959226
vn -0.178220 0.219371 0.959226
vn 0.036926 -0.236377 0.970959
vn 0.036926 -0.236377 0.970959
vn 0.036926 -0.236377 0.970959
vn 0.924623 -0.296242 -0.239402
vn 0.924623 -0.296242 -0.239402
vn 0.924623 -0.296242 -0.239402
vn 0.870030 0.148708 -0.470035
vn 0.870030 0.148708 -0.470035
vn 0.870031 0.148708 -0.470035
vn -0.003807 -0.123269 -0.992366
vn -0.003807 -0.123269 -0.992366
vn -0.003807 -0.123269 -0.992366
vn 0.806019 -0.004550 -0.591872
vn 0.806019 -0.004550 -0.591872
vn 0.806019 -0.004550 -0.591872
vn 0.806019 -0.004550 -0.591872
vn -0.915628 0.019232 -0.401567
vn -0.915628 0.019232 -0.401567
vn -0.915628 0.019232 -0.401567
vn -0.915628 0.019232 -0.401567
vn -0.062336 0.002671 0.998052
vn -0.062336 0.002671 0.998052
vn -0.062336 0.002671 0.998052
vn -0.062336 0.002671 0.998052
vn -0.000000 -1.000000 -0.000001
vn -0.000000 -1.000000 -0.000001
vn -0.000000 -1.000000 -0.000001
vn -0.149857 -0.066095 0.986496
vn -0.149857 -0.066095 0.986496
vn -0.149857 -0.066095 0.986496
vn 0.754698 -0.128558 -0.643354
vn 0.754698 -0.128558 -0.643354
vn 0.754698 -0.128558 -0.643354
vn 0.595714 0.023501 -0.802853
vn 0.595714 0.023501 -0.802853
vn 0.568308 0.005383 -0.822798
vn 0.569373 0.006077 -0.822057
vn 0.000000 -1.000000 -0.000000
vn 0.000000 -1.000000 -0.000000
vn 0.000000 -1.000000 -0.000000
vn 0.522213 0.029764 0.852295
vn 0.522905 0.027601 0.851944
vn 0.492780 0.114809 0.862547
vn 0.492780 0.114809 0.862547
vn -0.983119 -0.127771 -0.130966
vn -0.983119 -0.127771 -0.130966
vn -0.994799 -0.031818 -0.096756
vn -0.994912 -0.030114 -0.096140
vn 0.349424 0.470211 0.810434
vn 0.349424 0.470211 0.810434
vn 0.349424 0.470211 0.810434
vn 0.592042 0.164059 -0.789032
vn 0.592042 0.164059 -0.789032
vn 0.592042 0.164059 -0.789032
vn -0.930012 -0.334816 -0.151579
vn -0.930012 -0.334816 -0.151579
vn -0.930012 -0.334816 -0.151579
vn -0.994912 -0.030114 -0.096140
vn -0.994799 -0.031818 -0.096756
vn -0.996363 0.000000 -0.085214
vn -0.996363 0.000000 -0.085214
vn 0.531485 0.000000 0.847068
vn 0.531485 0.000000 0.847068
vn 0.522905 0.027601 0.851944
vn 0.522213 0.029764 0.852295
vn 0.569373 0.006077 -0.822057
vn 0.568308 0.005383 -0.822798
vn 0.560007 0.000000 -0.828488
vn 0.560007 0.000000 -0.828488
vn 0.556376 0.053028 0.829237
vn 0.556376 0.053028 0.829237
vn 0.547597 0.010839 0.836672
vn 0.547251 0.009271 0.836918
vn 0.000000 -1.000000 0.000001
vn 0.000000 -1.000000 0.000001
vn 0.000000 -1.000000 0.000001
vn -0.982898 0.052590 0.176480
vn -0.982940 0.052143 0.176383
vn -0.965914 0.164677 0.199727
vn -0.965914 0.164677 0.199727
vn 0.503056 -0.173873 -0.846583
vn 0.503056 -0.173873 -0.846583
vn 0.484350 -0.045771 -0.873676
vn 0.485190 -0.050506 -0.872949
vn -0.800857 0.584364 0.130949
vn -0.800857 0.584364 0.130949
vn -0.800857 0.584364 0.130949
vn 0.582421 0.100234 0.806684
vn 0.582421 0.100234 0.806684
vn 0.582421 0.100234 0.806684
vn 0.462573 -0.413051 -0.784484
vn 0.462573 -0.413051 -0.784484
vn 0.462573 -0.413051 -0.784484
vn 0.485190 -0.050506 -0.872949
vn 0.484350 -0.045771 -0.873676
vn 0.474861 0.003912 -0.880052
vn 0.474861 0.003912 -0.880052
vn -0.986175 0.003752 0.165663
vn -0.986175 0.003752 0.165663
vn -0.982940 0.052143 0.176383
vn -0.982898 0.052590 0.176480
vn 0.547251 0.009271 0.836918
vn 0.547597 0.010839 0.836672
vn 0.543771 -0.006134 0.839211
vn 0.543771 -0.006134 0.839211
vn -0.821865 -0.006349 0.569647
vn -0.821865 -0.006349 0.569647
vn -0.821865 -0.006349 0.569647
vn -0.821865 -0.006349 0.569647
vn 0.000000 -1.000000 -0.000000
vn 0.000000 -1.000000 -0.000000
vn 0.000000 -1.000000 -0.000000
vn -0.245469 0.006258 -0.969384
vn -0.245469 0.006258 -0.969384
vn -0.245469 0.006258 -0.969384
vn -0.245469 0.006258 -0.969384
vn 0.875594 0.017590 0.482727
vn 0.875594 0.017590 0.482727
vn 0.875594 0.017590 0.482727
vn 0.875594 0.017590 0.482727
vn -0.225994 0.400969 -0.887778
vn -0.225994 0.400969 -0.887778
vn -0.225994 0.400969 -0.887778
vn -0.819869 0.047593 0.570569
vn -0.819869 0.047593 0.570569
vn -0.819869 0.047593 0.570569
vn 0.841863 -0.188800 0.505590
vn 0.841863 -0.188800 0.505590
vn 0.841863 -0.188800 0.505590
s off
f 39/1/1 29/2/2 13/3/3
f 1/4/4 5/5/5 6/6/6
f 39/7/7 11/8/8 30/9/9
f 12/10/10 13/11/11 29/12/12
f 24/13/13 6/6/14 5/5/15
f 12/14/16 30/9/17 11/8/18
f 37/15/19 7/16/20 28/17/21
f 37/18/22 27/19/23 9/20/24
f 10/21/25 9/20/26 27/19/27
f 10/22/28 28/17/29 7/16/30
f 16/23/31 32/24/32 15/25/33
f 16/26/34 17/27/35 31/28/36
f 38/29/37 31/30/38 17/31/39
f 38/32/40 15/25/41 32/141/42
f 20/33/43 34/34/44 19/35/45
f 20/36/46 21/37/47 33/38/48
f 40/39/49 33/40/50 21/41/51
f 40/42/52 19/35/53 34/34/54
f 24/43/55 36/142/56 23/44/57
f 24/13/58 25/45/59 35/143/60
f 1/4/61 35/144/62 25/45/63
f 1/4/64 23/44/65 36/145/66
f 24/43/67 23/44/68 6/6/69
f 5/5/70 25/45/71 24/13/72
f 1/4/73 25/45/74 5/5/75
f 1/4/76 6/6/77 23/44/78
f 4/46/79 2/146/80 26/47/81
f 2/147/82 27/19/83 26/148/84
f 10/21/85 27/19/86 3/48/87
f 3/49/88 28/17/89 10/22/90
f 26/50/91 28/17/92 4/51/93
f 8/52/94 9/53/95 29/54/96
f 44/55/97 29/56/98 9/20/99
f 44/57/100 7/16/101 30/9/102
f 8/58/103 30/9/104 7/16/105
f 14/59/106 13/60/107 31/61/108
f 43/62/109 31/30/110 13/63/111
f 43/64/112 11/8/113 32/24/114
f 14/149/115 32/24/116 11/8/117
f 18/65/118 17/66/119 33/67/120
f 42/68/121 33/69/122 17/70/123
f 42/71/124 15/25/125 34/34/126
f 18/150/127 34/34/128 15/25/129
f 22/72/130 21/73/131 35/74/132
f 41/75/133 35/151/134 21/76/135
f 41/77/136 19/35/137 36/152/138
f 22/153/139 36/154/140 19/35/141
f 8/58/142 7/16/143 37/15/144
f 26/155/145 27/19/146 37/18/147
f 9/20/148 8/78/149 37/18/150
f 14/156/151 31/157/152 38/29/153
f 17/158/154 18/159/155 38/32/156
f 18/160/157 15/161/158 38/162/159
f 32/163/160 14/164/161 38/165/162
f 22/166/163 35/167/164 1/4/165
f 36/168/166 22/79/167 1/169/168
f 8/78/169 29/2/170 39/1/171
f 13/3/172 14/170/173 39/1/174
f 14/171/175 11/8/176 39/7/177
f 30/9/178 8/58/179 39/7/180
f 18/172/181 33/40/182 40/39/183
f 21/41/184 22/173/185 40/39/186
f 22/174/187 19/35/188 40/42/189
f 34/34/190 18/175/191 40/42/192
f 24/13/193 35/176/194 41/75/195
f 21/76/196 20/80/197 41/75/198
f 20/33/199 19/35/200 41/77/201
f 36/177/202 24/43/203 41/77/204
f 20/80/205 33/69/206 42/68/207
f 17/70/208 16/81/209 42/68/210
f 16/23/211 15/25/212 42/71/213
f 34/34/214 20/33/215 42/71/216
f 16/81/217 31/30/218 43/62/219
f 13/63/220 12/82/221 43/62/222
f 12/14/223 11/8/224 43/64/225
f 32/24/226 16/23/227 43/64/228
f 12/82/229 29/56/230 44/55/231
f 9/20/232 10/21/233 44/55/234
f 10/22/235 7/16/236 44/57/237
f 30/9/238 12/14/239 44/57/240
f 37/15/241 28/17/242 26/50/243
f 4/83/244 3/84/245 46/85/246 47/86/247
f 2/87/248 4/88/249 47/89/250 45/90/251
f 3/91/252 2/92/253 45/93/254 46/94/255
f 45/90/256 47/86/257 46/94/258
f 3/48/259 27/19/260 2/178/261
f 4/51/262 28/17/263 3/49/264
f 50/95/265 51/96/266 57/97/267 55/98/268
f 52/99/269 53/100/270 48/101/271
f 56/102/272 57/103/273 51/104/274 49/105/275
f 49/105/276 50/106/277 55/107/278 56/102/279
f 49/105/280 51/96/281 54/108/282
f 51/96/283 50/95/284 54/108/285
f 50/95/286 49/105/287 54/108/288
f 56/102/289 55/107/290 52/109/291 48/110/292
f 48/110/293 53/111/294 57/103/295 56/102/296
f 55/98/297 57/97/298 53/100/299 52/99/300
f 60/112/301 61/113/302 67/114/303 65/115/304
f 62/116/305 63/117/306 58/118/307
f 66/119/308 67/120/309 61/121/310 59/122/311
f 59/122/312 60/123/313 65/124/314 66/119/315
f 59/122/316 61/113/317 64/125/318
f 61/113/319 60/112/320 64/125/321
f 60/112/322 59/122/323 64/125/324
f 66/119/325 65/124/326 62/126/327 58/127/328
f 58/127/329 63/128/330 67/120/331 66/119/332
f 65/115/333 67/114/334 63/117/335 62/116/336
f 72/129/337 70/130/338 71/131/339 73/132/340
f 72/129/341 73/132/342 68/133/343
f 71/134/344 69/135/345 68/136/346 73/137/347
f 69/135/348 70/138/349 72/139/350 68/136/351
f 69/135/352 71/131/353 74/140/354
f 71/131/355 70/130/356 74/140/357
f 70/130/358 69/135/359 74/140/360
