# This file uses centimeters as units for non-parametric coordinates.

v -1.158333 -25.331940 -0.306019
v -1.185982 -34.990875 0.769358
v -4.699959 -35.137886 -5.319784
v -4.048347 -25.091225 -5.319784
v -2.524361 -19.105289 -5.319782
v -0.260445 -19.294495 -1.391438
v -0.005196 -40.384960 -1.073660
v 2.639030 -41.791916 -5.319783
v -2.455574 -40.487473 -5.319783
v 7.509026 -26.054283 -5.319784
v 9.356010 -34.549843 -5.319784
v 5.842033 -34.696854 0.769358
v 4.620293 -25.813461 -0.306782
v 4.267509 -19.672909 -1.391438
v 6.531487 -19.862118 -5.319782
v 7.346001 -40.077415 -5.319783
v 4.895622 -40.179932 -1.073660
v -1.158333 -25.331940 -10.333548
v -1.185982 -34.990875 -11.408925
v 5.842033 -34.696854 -11.408925
v 4.620293 -25.813461 -10.332785
v 4.267509 -19.672909 -9.248129
v -0.260445 -19.294495 -9.248129
v -0.005196 -40.384960 -9.565907
v 4.895622 -40.179932 -9.565907
v 4.402519 -21.686455 -1.004871
v 4.527519 -24.373779 -10.062338
v -3.282967 -21.998718 -5.319782
v 2.726799 -21.916527 -0.957539
v 5.522636 -24.351952 -8.289206
v -2.482063 -22.594650 -6.887869
v 0.946159 -16.409199 -3.454212
v -0.111275 -16.307220 -5.288960
v 4.118340 -16.715134 -5.288960
v 3.060966 -16.613159 -3.454212
v 0.946159 -16.409199 -7.123707
v 3.060966 -16.613159 -7.123707
v 1.221230 -6.010101 -3.516815
v 0.103035 -5.949200 -5.143204
v 2.634834 -5.261513 -4.964127
v 1.017036 -5.301895 -6.118240
v 0.000000 0.000000 0.000000
v 0.241608 -1.367844 0.122852
v -1.123886 -0.618931 -1.091137
v 1.198601 0.462784 -0.498722
v -0.546234 0.709366 -1.418304
vt 0.067795 0.494628
vt 0.067795 0.494628
vt 0.067795 0.494628
vt 0.067795 0.494628
vt 0.067795 0.494628
vt 0.146812 0.304209
vt 0.146812 0.304209
vt 0.067795 0.494628
vt 0.067795 0.494628
vt 0.067795 0.494628
vt 0.067795 0.494628
vt 0.067795 0.494628
vt 0.067795 0.494628
vt 0.067795 0.494628
vt 0.067795 0.494628
vt 0.146812 0.304209
vt 0.146812 0.304209
vt 0.067795 0.494628
vt 0.067795 0.494628
vt 0.067795 0.494628
vt 0.067795 0.494628
vt 0.067795 0.494628
vt 0.067795 0.494628
vt 0.067795 0.494628
vt 0.067795 0.494628
vt 0.146812 0.304209
vt 0.146812 0.304209
vt 0.067795 0.494628
vt 0.067795 0.494628
vt 0.067795 0.494628
vt 0.067795 0.494628
vt 0.067795 0.494628
vt 0.067795 0.494628
vt 0.067795 0.494628
vt 0.067795 0.494628
vt 0.067795 0.494628
vt 0.067795 0.494628
vt 0.067795 0.494628
vt 0.146812 0.304209
vt 0.146812 0.304209
vt 0.067795 0.494628
vt 0.067795 0.494628
vt 0.067795 0.494628
vt 0.067795 0.494628
vt 0.067795 0.494628
vt 0.067795 0.494628
vt 0.067795 0.494628
vt 0.067795 0.494628
vt 0.146812 0.304209
vt 0.146812 0.304209
vt 0.067795 0.494628
vt 0.067795 0.494628
vt 0.067795 0.494628
vt 0.067795 0.494628
vt 0.067795 0.494628
vt 0.067795 0.494628
vt 0.067795 0.494628
vt 0.067795 0.494628
vt 0.146812 0.304209
vt 0.146812 0.304209
vt 0.067795 0.494628
vt 0.067795 0.494628
vt 0.067795 0.494628
vt 0.067795 0.494628
vt 0.067795 0.494628
vt 0.067795 0.494628
vt 0.067795 0.494628
vt 0.067795 0.494628
vt 0.067795 0.494628
vt 0.146812 0.304209
vt 0.146812 0.304209
vt 0.146812 0.304209
vt 0.146812 0.304209
vt 0.146812 0.304209
vt 0.146812 0.304209
vt 0.146812 0.304209
vt 0.146812 0.304209
vt 0.146812 0.304209
vt 0.146812 0.304209
vt 0.146812 0.304209
vt 0.146812 0.304209
vt 0.146812 0.304209
vt 0.146812 0.304209
vt 0.146812 0.304209
vn -0.864618 0.057045 0.499180
vn -0.864618 0.057045 0.499180
vn -0.864618 0.057045 0.499180
vn -0.864618 0.057045 0.499180
vn -0.679953 -0.054427 0.731233
vn -0.679953 -0.054427 0.731233
vn -0.679953 -0.054427 0.731233
vn -0.244673 -0.955590 0.164267
vn -0.244673 -0.955590 0.164267
vn -0.244673 -0.955590 0.164267
vn -0.840970 0.213185 0.497315
vn -0.840962 0.213303 0.497277
vn -0.840491 0.220362 0.494991
vn -0.810883 -0.340200 0.476164
vn -0.810883 -0.340200 0.476164
vn -0.810883 -0.340200 0.476164
vn -0.810883 -0.340200 0.476164
vn 0.852633 0.180909 0.490193
vn 0.852633 0.180909 0.490193
vn 0.852633 0.180909 0.490193
vn 0.852633 0.180909 0.490193
vn 0.332834 0.142511 0.932155
vn 0.332833 0.142511 0.932155
vn 0.332833 0.142511 0.932155
vn 0.337137 -0.925571 0.172210
vn 0.337137 -0.925572 0.172210
vn 0.337137 -0.925571 0.172210
vn 0.862975 0.134424 0.487036
vn 0.863081 0.133877 0.486999
vn 0.859569 0.151341 0.488096
vn 0.828969 -0.301440 0.471110
vn 0.828969 -0.301439 0.471110
vn 0.828969 -0.301440 0.471110
vn 0.828969 -0.301439 0.471110
vn 0.001748 0.115370 -0.993321
vn 0.001748 0.115370 -0.993321
vn 0.001748 0.115370 -0.993321
vn 0.001748 0.115370 -0.993321
vn -0.132713 0.865070 0.483778
vn -0.132713 0.865070 0.483778
vn -0.132713 0.865070 0.483778
vn 0.039365 -0.940935 -0.336292
vn 0.039365 -0.940935 -0.336292
vn 0.039365 -0.940935 -0.336292
vn 0.016822 0.175956 -0.984254
vn 0.016338 0.175076 -0.984419
vn 0.014326 0.171415 -0.985095
vn 0.013415 -0.320662 -0.947099
vn 0.013415 -0.320662 -0.947099
vn 0.013415 -0.320662 -0.947099
vn 0.013415 -0.320662 -0.947099
vn 0.001748 0.115370 0.993321
vn 0.001748 0.115370 0.993321
vn 0.001748 0.115370 0.993321
vn 0.001748 0.115370 0.993321
vn 0.039365 -0.940935 0.336292
vn 0.039365 -0.940935 0.336293
vn 0.039365 -0.940935 0.336293
vn 0.013415 -0.320662 0.947099
vn 0.013415 -0.320662 0.947099
vn 0.013415 -0.320662 0.947099
vn 0.013415 -0.320662 0.947099
vn 0.011217 0.177433 0.984069
vn 0.011786 0.174282 0.984625
vn 0.012017 0.174534 0.984578
vn 0.011854 0.182008 0.983226
vn -0.864618 0.057045 -0.499181
vn -0.864618 0.057045 -0.499181
vn -0.864618 0.057045 -0.499180
vn -0.864618 0.057045 -0.499180
vn -0.244673 -0.955590 -0.164266
vn -0.244673 -0.955590 -0.164266
vn -0.244673 -0.955590 -0.164266
vn -0.737729 0.445713 0.507047
vn -0.737729 0.445713 0.507047
vn -0.737729 0.445713 0.507047
vn -0.810883 -0.340200 -0.476164
vn -0.810883 -0.340200 -0.476165
vn -0.810883 -0.340200 -0.476164
vn -0.810883 -0.340200 -0.476165
vn -0.841271 0.214064 -0.496428
vn -0.840660 0.214065 -0.497461
vn -0.839969 0.214036 -0.498638
vn -0.839841 0.214006 -0.498867
vn 0.852633 0.180909 -0.490193
vn 0.852633 0.180909 -0.490193
vn 0.852633 0.180909 -0.490193
vn 0.852633 0.180909 -0.490193
vn 0.337137 -0.925571 -0.172210
vn 0.337137 -0.925571 -0.172210
vn 0.337137 -0.925571 -0.172210
vn 0.828969 -0.301439 -0.471110
vn 0.828969 -0.301439 -0.471110
vn 0.828969 -0.301440 -0.471110
vn 0.828969 -0.301439 -0.471110
vn 0.860857 0.132449 -0.491307
vn 0.860712 0.136928 -0.490333
vn 0.861662 0.137261 -0.488568
vn 0.862332 0.131084 -0.489081
vn 0.011659 0.172295 0.984976
vn 0.011786 0.174282 0.984625
vn 0.011217 0.177433 0.984069
vn 0.863262 0.132936 0.486936
vn 0.863081 0.133877 0.486999
vn 0.862975 0.134424 0.487036
vn 0.863262 0.132936 0.486936
vn 0.858108 0.138117 -0.494544
vn 0.860112 0.150483 -0.487404
vn 0.861662 0.137261 -0.488568
vn 0.860712 0.136928 -0.490333
vn 0.017181 0.176608 -0.984131
vn 0.016338 0.175076 -0.984419
vn 0.016822 0.175956 -0.984254
vn 0.017181 0.176608 -0.984131
vn -0.841655 0.214104 -0.495758
vn -0.840660 0.214065 -0.497461
vn -0.841271 0.214064 -0.496428
vn -0.841021 0.212369 0.497577
vn -0.840962 0.213303 0.497277
vn -0.840970 0.213185 0.497315
vn -0.841021 0.212369 0.497577
vn 0.011659 0.172295 0.984976
vn 0.012106 0.170419 0.985297
vn 0.012017 0.174534 0.984578
vn 0.011786 0.174282 0.984625
vn -0.841655 0.214104 -0.495758
vn -0.840137 0.214077 -0.498338
vn -0.839969 0.214036 -0.498638
vn -0.840660 0.214065 -0.497461
vn 0.858108 0.138117 -0.494544
vn 0.860712 0.136928 -0.490333
vn 0.860857 0.132449 -0.491307
vn -0.686650 0.589453 0.425508
vn -0.686650 0.589453 0.425508
vn -0.686650 0.589453 0.425508
vn -0.686650 0.589453 0.425508
vn 0.732070 0.555861 0.393817
vn 0.732070 0.555861 0.393817
vn 0.732070 0.555861 0.393817
vn 0.732070 0.555861 0.393817
vn 0.050910 0.580700 -0.812524
vn 0.050910 0.580700 -0.812524
vn 0.050910 0.580700 -0.812524
vn 0.050910 0.580700 -0.812524
vn 0.049920 0.569409 0.820537
vn 0.049920 0.569409 0.820537
vn 0.049920 0.569409 0.820537
vn 0.049920 0.569409 0.820537
vn -0.682706 0.595424 -0.423537
vn -0.682706 0.595424 -0.423537
vn -0.682706 0.595424 -0.423537
vn -0.682706 0.595424 -0.423537
vn 0.729051 0.561225 -0.391806
vn 0.729051 0.561225 -0.391806
vn 0.729051 0.561225 -0.391806
vn 0.729051 0.561225 -0.391806
vn -0.846118 0.017815 0.532698
vn -0.846118 0.017815 0.532698
vn -0.846118 0.017815 0.532698
vn -0.846118 0.017815 0.532698
vn 0.783374 0.110758 0.611603
vn 0.783374 0.110758 0.611603
vn 0.783374 0.110758 0.611603
vn 0.783374 0.110758 0.611603
vn 0.298088 0.137825 -0.944536
vn 0.298088 0.137825 -0.944536
vn 0.298088 0.137825 -0.944536
vn 0.298088 0.137825 -0.944536
vn 0.000579 0.006005 0.999982
vn 0.000579 0.006005 0.999982
vn 0.000579 0.006005 0.999982
vn -0.821662 0.041405 -0.568469
vn -0.821662 0.041405 -0.568469
vn -0.821662 0.041405 -0.568469
vn -0.821662 0.041405 -0.568469
vn 0.862559 0.125621 -0.490114
vn 0.862559 0.125621 -0.490114
vn 0.862559 0.125621 -0.490114
vn -0.710410 -0.521610 0.472483
vn -0.710410 -0.521610 0.472483
vn -0.710410 -0.521610 0.472483
vn -0.710410 -0.521610 0.472483
vn 0.780453 -0.261965 0.567686
vn 0.780453 -0.261965 0.567686
vn 0.780453 -0.261965 0.567686
vn 0.780453 -0.261965 0.567686
vn 0.439018 0.620040 -0.650241
vn 0.439018 0.620040 -0.650241
vn 0.439018 0.620040 -0.650241
vn 0.439018 0.620040 -0.650241
vn -0.796603 0.234104 -0.557332
vn -0.796603 0.234104 -0.557332
vn -0.796603 0.234104 -0.557332
vn -0.796603 0.234104 -0.557332
s off
f 3/4/1 2/3/2 1/2/3 4/1/4
f 43/82/5 42/7/6 44/81/7
f 9/8/8 8/10/9 7/9/10
f 28/17/11 6/6/12 5/16/13
f 3/4/14 9/8/15 7/9/16 2/3/17
f 12/14/18 11/13/19 10/12/20 13/11/21
f 45/83/22 42/7/23 43/82/24
f 17/18/25 8/20/26 16/19/27
f 26/39/28 15/26/29 14/27/30
f 12/14/31 17/18/32 16/19/33 11/13/34
f 20/24/35 19/23/36 18/22/37 21/21/38
f 46/84/39 42/7/40 45/83/41
f 25/28/42 8/30/43 24/29/44
f 27/50/45 23/40/46 22/49/47
f 20/24/48 25/28/49 24/29/50 19/23/51
f 2/31/52 12/32/53 13/33/54 1/34/55
f 17/35/56 7/36/57 8/37/58
f 12/32/59 2/31/60 7/36/61 17/35/62
f 6/6/63 29/59/64 26/39/65 14/27/66
f 19/41/67 3/42/68 4/43/69 18/44/70
f 9/45/71 24/46/72 8/47/73
f 46/84/74 44/81/75 42/7/76
f 3/42/77 19/41/78 24/46/79 9/45/80
f 23/40/81 31/60/82 28/17/83 5/16/84
f 10/54/85 11/51/86 20/52/87 21/53/88
f 25/55/89 16/56/90 8/57/91
f 20/52/92 11/51/93 16/56/94 25/55/95
f 15/26/96 30/70/97 27/50/98 22/49/99
f 1/34/100 29/67/101 6/38/102
f 10/12/103 15/15/104 26/62/105 13/11/106
f 10/54/107 21/53/108 27/63/109 30/68/110
f 18/22/111 23/25/112 27/64/113 21/21/114
f 18/44/115 31/69/116 23/48/117
f 1/2/118 6/5/119 28/66/120 4/1/121
f 1/34/122 13/33/123 26/61/124 29/67/125
f 18/44/126 4/43/127 28/65/128 31/69/129
f 10/54/130 30/68/131 15/58/132
f 5/16/133 6/6/134 32/72/135 33/71/136
f 14/27/137 15/26/138 34/74/139 35/73/140
f 22/49/141 23/40/142 36/76/143 37/75/144
f 6/6/145 14/27/146 35/73/147 32/72/148
f 23/40/149 5/16/150 33/71/151 36/76/152
f 15/26/153 22/49/154 37/75/155 34/74/156
f 33/71/157 32/72/158 38/78/159 39/77/160
f 35/73/161 34/74/162 40/79/163 38/78/164
f 37/75/165 36/76/166 41/80/167 40/79/168
f 32/72/169 35/73/170 38/78/171
f 36/76/172 33/71/173 39/77/174 41/80/175
f 34/74/176 37/75/177 40/79/178
f 39/77/179 38/78/180 43/82/181 44/81/182
f 38/78/183 40/79/184 45/83/185 43/82/186
f 40/79/187 41/80/188 46/84/189 45/83/190
f 41/80/191 39/77/192 44/81/193 46/84/194
