# This file uses centimeters as units for non-parametric coordinates.

v -10.916500 -0.419614 -1.191467
v -0.598114 -0.419614 6.016235
v -10.554813 4.841715 -1.922791
v -0.236443 4.841715 5.284851
v -9.630577 4.841715 -4.583008
v 2.010254 4.841715 2.499146
v -9.656189 -0.419614 -6.299561
v 2.279274 -0.419614 1.611511
v 12.236748 -0.419614 1.291565
v 13.596184 -0.419614 6.374207
v 12.253975 4.841715 1.891174
v 13.123238 4.841715 5.868896
v 22.134865 -0.419614 -6.694580
v 27.352798 -0.419614 -6.020203
v 22.521904 4.841715 -6.927551
v 26.336624 4.841715 -6.198669
v 23.198723 -0.419614 -23.945068
v 26.650490 -0.419614 -19.974365
v 23.792175 2.359032 -21.416138
v 25.675957 2.359032 -19.249146
v -23.335796 -0.419614 -4.815186
v -20.454557 -0.419614 -0.412903
v -21.422234 4.841715 -1.301697
v -23.023895 4.841715 -3.386597
v -30.015829 -0.419614 11.717651
v -25.520727 -0.419614 8.983521
v -25.780899 2.359031 7.815979
v -28.671467 2.359031 9.574097
v 1.070740 11.963953 5.090637
v 1.804146 11.963953 5.564331
v 1.864624 11.833511 3.861511
v 2.598022 11.833511 4.335266
v 2.386444 4.434918 2.876343
v 4.490952 4.434918 2.560486
v 3.816696 4.434918 4.695801
v 1.712181 4.434918 5.011658
v 3.025368 11.964481 3.099426
v -0.742004 13.137459 2.710754
v -15.298656 12.211916 9.790161
v -14.628235 2.779036 30.455688
v 4.613167 12.275911 22.262268
v 4.664444 13.137459 6.202820
v -11.777653 13.546257 3.947815
v -17.404305 9.340615 19.848511
v -3.680901 9.473183 28.281311
v 8.671394 13.546257 17.156189
v -8.275673 8.169427 29.880615
v -5.895752 11.334177 20.841309
v -17.039959 8.233797 23.945374
v -9.574806 11.276760 18.663208
v 2.223259 11.397062 22.835205
v 0.394455 14.118729 14.458496
v -15.085804 10.997810 13.333496
v -6.618885 13.954775 10.833496
v -7.357117 10.497179 19.086792
v -2.054520 12.329869 10.917603
v -0.292282 11.545276 19.027832
v 2.809631 12.966351 16.459229
v -9.800957 11.643232 12.754639
v -11.070328 12.528103 8.657288
v -7.769203 13.390685 4.050781
v 6.420242 13.445852 13.495361
v -4.064308 10.181651 23.173645
v -12.806732 10.018469 18.125122
v -10.306019 10.345480 20.201538
v -7.290215 10.330016 22.219238
v -0.871872 6.747868 30.080566
v -20.931747 6.366618 18.819153
v -17.618999 9.239421 8.522949
v 6.359764 9.362129 23.264771
v -9.736351 8.989376 22.752014
v -11.680492 7.757298 25.746887
v 21.069496 12.983379 -0.976624
v 20.707771 12.983379 -1.899536
v 19.522766 12.835276 -0.370361
v 19.161034 12.835276 -1.293274
v 18.388443 4.434917 0.191589
v 16.239525 4.434917 -0.913025
v 18.277023 4.434917 -2.433777
v 20.425957 4.434917 -1.329163
v 17.947609 12.983980 -0.437805
v 21.161774 14.315777 2.418884
v 39.271965 13.264915 5.548157
v 52.359016 2.554830 -13.941467
v 29.192688 13.337576 -19.151062
v 18.495148 14.315777 -4.384888
v 32.152542 14.779926 8.597412
v 47.882988 10.004843 -2.325073
v 40.828049 10.155359 -19.197754
v 22.066406 14.779926 -17.136658
v 46.123199 8.675076 -17.624451
v 37.935211 12.268332 -10.872192
v 50.264168 8.748163 -6.342285
v 39.881294 12.203138 -6.424988
v 31.775124 12.339731 -18.094177
v 27.905258 15.429909 -9.161377
v 41.425713 11.886421 2.141479
v 31.964706 15.243755 -1.169617
v 38.118492 11.318004 -8.286194
v 27.813980 13.398840 -4.274048
v 31.568466 12.508013 -12.916992
v 27.006310 14.121500 -12.606934
v 36.171364 12.619232 -0.829773
v 34.623886 13.623913 3.788086
v 28.526711 14.603289 5.844116
v 21.713249 14.665927 -12.269958
v 37.794121 10.959755 -14.236267
v 42.503014 10.774477 -3.785828
v 41.575432 11.145765 -7.357849
v 40.134163 11.128208 -11.217346
v 39.432579 7.061039 -22.718811
v 50.451180 6.628169 0.962891
v 40.569984 9.889947 8.254883
v 28.247887 10.029270 -21.233337
v 42.741798 9.606045 -10.086060
v 46.519684 8.207146 -11.556824
vt 0.144433 0.328260
vt 0.144433 0.328260
vt 0.144433 0.328260
vt 0.144433 0.328260
vt 0.144433 0.328260
vt 0.144433 0.328260
vt 0.144433 0.328260
vt 0.144433 0.328260
vt 0.144433 0.328260
vt 0.144433 0.328260
vt 0.144433 0.328260
vt 0.144433 0.328260
vt 0.144433 0.328260
vt 0.144433 0.328260
vt 0.144433 0.328260
vt 0.144433 0.328260
vt 0.144433 0.328260
vt 0.144433 0.328260
vt 0.144433 0.328260
vt 0.144433 0.328260
vt 0.144433 0.328260
vt 0.144433 0.328260
vt 0.144433 0.328260
vt 0.144433 0.328260
vt 0.144433 0.328260
vt 0.144433 0.328260
vt 0.144433 0.328260
vt 0.144433 0.328260
vt 0.144433 0.328260
vt 0.144433 0.328260
vt 0.144433 0.328260
vt 0.144433 0.328260
vt 0.146308 0.329198
vt 0.146308 0.329198
vt 0.146308 0.329198
vt 0.146308 0.329198
vt 0.146308 0.329198
vt 0.146308 0.329198
vt 0.146308 0.329198
vt 0.146308 0.329198
vt 0.146308 0.329198
vt 0.146308 0.329198
vt 0.166707 0.279210
vt 0.166707 0.279210
vt 0.166707 0.279210
vt 0.166707 0.279210
vt 0.166707 0.279210
vt 0.166707 0.279210
vt 0.166707 0.279210
vt 0.166707 0.279210
vt 0.166707 0.279210
vt 0.166707 0.279210
vt 0.166707 0.279210
vt 0.166707 0.279210
vt 0.166707 0.279210
vt 0.166707 0.279210
vt 0.166707 0.279210
vt 0.166707 0.279210
vt 0.166707 0.279210
vt 0.166707 0.279210
vt 0.166707 0.279210
vt 0.166707 0.279210
vt 0.166707 0.279210
vt 0.166707 0.279210
vt 0.166707 0.279210
vt 0.166707 0.279210
vt 0.166707 0.279210
vt 0.166707 0.279210
vt 0.166707 0.279210
vt 0.166707 0.279210
vt 0.166707 0.279210
vt 0.166707 0.279210
vt 0.166707 0.279210
vt 0.166707 0.279210
vt 0.166707 0.279210
vt 0.166707 0.279210
vt 0.166707 0.279210
vt 0.166707 0.279210
vt 0.146308 0.329198
vt 0.146308 0.329198
vt 0.146308 0.329198
vt 0.146308 0.329198
vt 0.146308 0.329198
vt 0.146308 0.329198
vt 0.146308 0.329198
vt 0.146308 0.329198
vt 0.146308 0.329198
vt 0.146308 0.329198
vt 0.166707 0.279210
vt 0.166707 0.279210
vt 0.166707 0.279210
vt 0.166707 0.279210
vt 0.166707 0.279210
vt 0.166707 0.279210
vt 0.166707 0.279210
vt 0.166707 0.279210
vt 0.166707 0.279210
vt 0.166707 0.279210
vt 0.166707 0.279210
vt 0.166707 0.279210
vt 0.166707 0.279210
vt 0.166707 0.279210
vt 0.166707 0.279210
vt 0.166707 0.279210
vt 0.166707 0.279210
vt 0.166707 0.279210
vt 0.166707 0.279210
vt 0.166707 0.279210
vt 0.166707 0.279210
vt 0.166707 0.279210
vt 0.166707 0.279210
vt 0.166707 0.279210
vt 0.166707 0.279210
vt 0.166707 0.279210
vt 0.166707 0.279210
vt 0.166707 0.279210
vt 0.166707 0.279210
vt 0.166707 0.279210
vt 0.166707 0.279210
vt 0.166707 0.279210
vt 0.166707 0.279210
vt 0.166707 0.279210
vt 0.166707 0.279210
vt 0.166707 0.279210
vn -0.566037 0.151551 0.810329
vn -0.566037 0.151551 0.810329
vn -0.566037 0.151551 0.810329
vn -0.566037 0.151551 0.810329
vn 0.000000 1.000000 0.000000
vn 0.000000 1.000000 0.000000
vn 0.000000 1.000000 0.000000
vn 0.000000 1.000000 0.000000
vn 0.523954 0.216021 -0.823898
vn 0.523954 0.216021 -0.823898
vn 0.523954 0.216021 -0.823898
vn 0.523954 0.216021 -0.823898
vn 0.691825 0.399605 -0.601410
vn 0.691825 0.399605 -0.601410
vn 0.691825 0.399605 -0.601410
vn 0.691825 0.399605 -0.601410
vn 0.481212 0.377499 0.791157
vn 0.481212 0.377499 0.791157
vn 0.481212 0.377499 0.791157
vn 0.481212 0.377499 0.791157
vn -0.045442 0.138736 -0.989286
vn -0.045442 0.138736 -0.989286
vn -0.045442 0.138736 -0.989286
vn -0.045442 0.138736 -0.989286
vn 0.000000 1.000000 -0.000000
vn 0.000000 1.000000 -0.000000
vn 0.000000 1.000000 -0.000000
vn 0.000000 1.000000 -0.000000
vn -0.033936 0.116302 0.992634
vn -0.033936 0.116302 0.992634
vn -0.033936 0.116302 0.992634
vn -0.033936 0.116302 0.992634
vn -0.639338 0.051294 -0.767213
vn -0.639338 0.051294 -0.767213
vn -0.639338 0.051294 -0.767213
vn -0.639338 0.051294 -0.767213
vn 0.000000 1.000000 -0.000000
vn 0.000000 1.000000 -0.000000
vn 0.000000 1.000000 -0.000000
vn 0.000000 1.000000 -0.000000
vn 0.665042 0.141760 0.733228
vn 0.665042 0.141760 0.733228
vn 0.665042 0.141760 0.733228
vn 0.665042 0.141760 0.733228
vn -0.985999 0.144172 -0.083789
vn -0.985999 0.144172 -0.083789
vn -0.985999 0.144172 -0.083789
vn -0.985999 0.144172 -0.083789
vn 0.088848 0.980581 -0.174835
vn 0.088848 0.980581 -0.174835
vn 0.088848 0.980581 -0.174835
vn 0.088848 0.980581 -0.174835
vn 0.967078 0.244296 -0.071270
vn 0.967078 0.244296 -0.071270
vn 0.967078 0.244296 -0.071270
vn 0.967078 0.244296 -0.071270
vn 0.067598 0.155625 0.985501
vn 0.067598 0.155625 0.985501
vn 0.067598 0.155625 0.985501
vn 0.067598 0.155625 0.985501
vn 0.000000 1.000000 0.000000
vn 0.000000 1.000000 0.000000
vn 0.000000 1.000000 0.000000
vn 0.000000 1.000000 0.000000
vn -0.094368 0.287873 -0.953008
vn -0.094368 0.287874 -0.953008
vn -0.094368 0.287874 -0.953008
vn -0.094368 0.287874 -0.953008
vn 0.849254 0.248803 0.465687
vn 0.849254 0.248803 0.465687
vn 0.849254 0.248803 0.465687
vn 0.849254 0.248803 0.465687
vn -0.015473 0.976993 0.212710
vn -0.015473 0.976993 0.212710
vn -0.015473 0.976993 0.212710
vn -0.015473 0.976993 0.212710
vn -0.915977 0.155814 -0.369741
vn -0.915977 0.155814 -0.369741
vn -0.915977 0.155814 -0.369741
vn -0.915977 0.155814 -0.369741
vn -0.055386 -0.072423 0.995835
vn -0.055386 -0.072423 0.995835
vn -0.055386 -0.072423 0.995835
vn -0.055386 -0.072423 0.995835
vn 0.000000 -1.000000 0.000000
vn 0.000000 -1.000000 0.000000
vn 0.000000 -1.000000 0.000000
vn 0.000000 -1.000000 0.000000
vn -0.916298 -0.043019 -0.398179
vn -0.916298 -0.043019 -0.398179
vn -0.916298 -0.043019 -0.398179
vn -0.916299 -0.043019 -0.398179
vn 0.054523 0.191675 -0.979943
vn 0.054523 0.191675 -0.979943
vn 0.054523 0.191675 -0.979943
vn 0.054523 0.191675 -0.979943
vn 0.905858 0.168155 0.388774
vn 0.905858 0.168155 0.388774
vn 0.905858 0.168155 0.388774
vn 0.905858 0.168155 0.388774
vn -0.472346 0.878799 -0.067836
vn -0.471563 0.878973 -0.070955
vn -0.395223 0.902540 0.170943
vn -0.437004 0.890443 0.127038
vn 0.041995 0.893055 0.447983
vn -0.010756 0.905367 0.424493
vn 0.262825 0.875494 0.405505
vn 0.255406 0.875204 0.410836
vn 0.210272 0.908336 0.361540
vn 0.579593 0.553271 0.598300
vn -0.044568 0.985470 0.163895
vn -0.110308 0.968025 0.225298
vn 0.080582 0.908504 0.410033
vn 0.320177 0.729248 0.604718
vn -0.473045 0.878045 0.072566
vn -0.473045 0.878045 0.072566
vn -0.356156 0.925942 0.125636
vn -0.188805 0.962837 0.193125
vn -0.469128 0.878558 -0.089749
vn -0.046985 0.996566 0.068179
vn -0.078545 0.996772 -0.016650
vn -0.091955 0.983866 0.153465
vn -0.472346 0.878799 -0.067836
vn -0.393836 0.906242 -0.153683
vn -0.356364 0.916086 -0.183821
vn -0.471563 0.878973 -0.070955
vn 0.255406 0.875204 0.410836
vn 0.262825 0.875494 0.405505
vn 0.301572 0.926885 0.223467
vn 0.293819 0.908166 0.298168
vn -0.356364 0.916086 -0.183821
vn -0.393836 0.906242 -0.153683
vn -0.280930 0.928915 -0.241236
vn -0.280930 0.928915 -0.241236
vn 0.293819 0.908166 0.298168
vn 0.301572 0.926885 0.223467
vn 0.307882 0.940796 0.141818
vn 0.307882 0.940796 0.141818
vn 0.114714 0.881975 0.457122
vn 0.114714 0.881975 0.457122
vn -0.090337 0.963630 0.251508
vn -0.002667 0.939225 0.343293
vn 0.002518 0.997251 0.074060
vn 0.029173 0.997415 0.065676
vn 0.116845 0.992435 0.037688
vn 0.116845 0.992435 0.037688
vn -0.078545 0.996772 -0.016650
vn -0.046985 0.996566 0.068179
vn -0.096702 0.993110 -0.066192
vn -0.096702 0.993110 -0.066192
vn -0.188805 0.962837 0.193125
vn -0.356156 0.925942 0.125636
vn -0.155643 0.966714 0.203073
vn -0.410353 0.907332 0.091427
vn -0.159969 0.726666 0.668107
vn -0.086739 0.839293 0.536715
vn -0.097210 0.825265 0.556316
vn -0.493164 0.814701 0.305044
vn -0.470471 0.837162 0.278957
vn -0.571816 0.716509 0.399551
vn -0.469128 0.878558 -0.089749
vn -0.091955 0.983866 0.153465
vn -0.699544 0.661400 -0.270536
vn -0.410353 0.907332 0.091427
vn -0.155643 0.966714 0.203073
vn -0.638815 0.768703 -0.031803
vn 0.210272 0.908336 0.361540
vn -0.044568 0.985470 0.163895
vn 0.029173 0.997415 0.065676
vn 0.002518 0.997251 0.074060
vn -0.002667 0.939225 0.343293
vn -0.090337 0.963630 0.251508
vn 0.080582 0.908504 0.410033
vn -0.110308 0.968025 0.225298
vn -0.437004 0.890443 0.127038
vn -0.395223 0.902540 0.170943
vn -0.470471 0.837162 0.278957
vn -0.493164 0.814701 0.305044
vn -0.097210 0.825265 0.556316
vn -0.086739 0.839293 0.536715
vn -0.010756 0.905367 0.424493
vn 0.041995 0.893055 0.447983
vn 0.626628 -0.072431 -0.775945
vn 0.626628 -0.072431 -0.775945
vn 0.626628 -0.072431 -0.775945
vn 0.626628 -0.072431 -0.775945
vn 0.000000 -1.000000 0.000000
vn 0.000000 -1.000000 0.000000
vn 0.000000 -1.000000 0.000000
vn 0.000000 -1.000000 0.000000
vn 0.511180 -0.043015 0.858397
vn 0.511180 -0.043015 0.858397
vn 0.511180 -0.043015 0.858397
vn 0.511180 -0.043015 0.858397
vn -0.616630 0.191681 0.763562
vn -0.616630 0.191681 0.763562
vn -0.616630 0.191681 0.763562
vn -0.616630 0.191681 0.763562
vn -0.508201 0.168159 -0.844662
vn -0.508201 0.168159 -0.844662
vn -0.508201 0.168159 -0.844662
vn -0.508201 0.168159 -0.844662
vn 0.343774 0.878798 0.330957
vn 0.341318 0.878972 0.333030
vn 0.420642 0.902540 0.092093
vn 0.428912 0.890444 0.152132
vn 0.227578 0.893055 -0.388151
vn 0.256672 0.905367 -0.338276
vn 0.023524 0.875495 -0.482655
vn 0.032657 0.875205 -0.482648
vn 0.040497 0.908337 -0.416274
vn -0.120983 0.553284 -0.824160
vn 0.131905 0.985471 -0.106999
vn 0.221132 0.968025 -0.118439
vn 0.174090 0.908505 -0.379883
vn 0.093328 0.729249 -0.677854
vn 0.426348 0.878047 0.217395
vn 0.426348 0.878047 0.217395
vn 0.362469 0.925943 0.106046
vn 0.266052 0.962837 -0.046481
vn 0.328365 0.878561 0.346853
vn 0.077961 0.996566 -0.027896
vn 0.054029 0.996772 0.059392
vn 0.164279 0.983866 -0.070852
vn 0.343774 0.878798 0.330957
vn 0.229906 0.906242 0.354780
vn 0.181887 0.916087 0.357355
vn 0.341318 0.878972 0.333030
vn 0.032657 0.875205 -0.482648
vn 0.023524 0.875495 -0.482655
vn -0.114257 0.926886 -0.357530
vn -0.064330 0.908166 -0.413637
vn 0.181887 0.916087 0.357355
vn 0.229906 0.906242 0.354780
vn 0.087121 0.928916 0.359896
vn 0.087121 0.928916 0.359896
vn -0.064330 0.908166 -0.413637
vn -0.114257 0.926886 -0.357530
vn -0.167069 0.940796 -0.294943
vn -0.167070 0.940796 -0.294943
vn 0.173888 0.881976 -0.438042
vn 0.173888 0.881976 -0.438042
vn 0.220230 0.963630 -0.151379
vn 0.202679 0.939225 -0.277088
vn 0.041215 0.997251 -0.061584
vn 0.014683 0.997415 -0.070348
vn -0.072828 0.992435 -0.098839
vn -0.072828 0.992435 -0.098839
vn 0.054029 0.996772 0.059392
vn 0.077961 0.996566 -0.027896
vn 0.039830 0.993110 0.110211
vn 0.039830 0.993110 0.110211
vn 0.266052 0.962837 -0.046481
vn 0.362469 0.925943 0.106046
vn 0.244947 0.966714 -0.073924
vn 0.386481 0.907332 0.165474
vn 0.520085 0.726662 -0.448858
vn 0.383897 0.839292 -0.384983
vn 0.403846 0.825263 -0.394777
vn 0.578467 0.814702 0.040450
vn 0.544811 0.837162 0.048370
vn 0.697512 0.716508 0.009678
vn 0.328365 0.878561 0.346853
vn 0.164279 0.983866 -0.070852
vn 0.409796 0.661407 0.628178
vn 0.386481 0.907332 0.165474
vn 0.244947 0.966714 -0.073924
vn 0.499943 0.768702 0.398942
vn 0.040497 0.908337 -0.416274
vn 0.131905 0.985471 -0.106999
vn 0.014683 0.997415 -0.070348
vn 0.041215 0.997251 -0.061584
vn 0.202679 0.939225 -0.277088
vn 0.220230 0.963630 -0.151379
vn 0.174090 0.908505 -0.379883
vn 0.221132 0.968025 -0.118439
vn 0.428912 0.890444 0.152132
vn 0.420642 0.902540 0.092093
vn 0.544811 0.837162 0.048370
vn 0.578467 0.814702 0.040450
vn 0.403846 0.825263 -0.394777
vn 0.383897 0.839292 -0.384983
vn 0.256672 0.905367 -0.338276
vn 0.227578 0.893055 -0.388151
s off
f 1/1/1 2/2/2 4/4/3 3/3/4
f 3/3/5 4/4/6 6/6/7 5/5/8
f 5/5/9 6/6/10 8/8/11 7/7/12
f 18/21/13 17/22/14 19/23/15 20/24/16
f 25/29/17 26/30/18 27/31/19 28/32/20
f 8/9/21 6/10/22 11/15/23 9/14/24
f 6/10/25 4/4/26 12/16/27 11/15/28
f 4/4/29 2/2/30 10/13/31 12/16/32
f 9/14/33 11/15/34 15/19/35 13/18/36
f 11/15/37 12/16/38 16/20/39 15/19/40
f 12/16/41 10/13/42 14/17/43 16/20/44
f 17/22/45 13/18/46 15/19/47 19/23/48
f 15/19/49 16/20/50 20/24/51 19/23/52
f 16/20/53 14/17/54 18/21/55 20/24/56
f 1/1/57 3/3/58 23/27/59 22/26/60
f 3/3/61 5/12/62 24/28/63 23/27/64
f 5/12/65 7/11/66 21/25/67 24/28/68
f 23/27/69 27/31/70 26/30/71 22/26/72
f 24/28/73 28/32/74 27/31/75 23/27/76
f 21/25/77 25/29/78 28/32/79 24/28/80
f 30/33/81 29/34/82 36/35/83 35/36/84
f 33/37/85 34/38/86 35/36/87 36/35/88
f 29/34/89 31/39/90 33/37/91 36/35/92
f 32/40/93 34/38/94 33/37/95 31/41/96
f 30/33/97 35/36/98 34/38/99 32/42/100
f 48/43/101 55/44/102 71/45/103 66/46/104
f 65/47/105 71/45/106 55/44/107 50/48/108
f 41/49/109 70/50/110 46/51/111
f 51/52/112 45/53/113 67/54/114
f 50/48/115 54/55/116 59/56/117 64/57/118
f 39/58/119 60/59/120 61/60/121 43/61/122
f 48/43/123 52/62/124 56/63/125 55/44/126
f 50/48/127 55/44/128 56/63/129 54/55/130
f 56/63/131 52/62/132 42/64/133 37/65/134
f 54/55/135 56/63/136 37/65/137 38/66/138
f 52/62/139 48/43/140 63/67/141 57/68/142
f 58/69/143 62/70/144 42/64/145 52/62/146
f 61/60/147 60/59/148 54/55/149 38/66/150
f 64/57/151 59/56/152 53/71/153 44/72/154
f 40/73/155 72/74/156 49/75/157
f 47/76/158 72/74/159 40/73/160
f 39/58/161 43/61/162 69/77/163
f 44/72/164 53/71/165 68/78/166
f 41/49/167 46/51/168 62/70/169 58/69/170
f 57/68/171 63/67/172 45/53/173 51/52/174
f 66/46/175 71/45/176 72/74/177 47/76/178
f 49/75/179 72/74/180 71/45/181 65/47/182
f 74/79/183 73/80/184 80/81/185 79/82/186
f 77/83/187 78/84/188 79/82/189 80/81/190
f 73/80/191 75/85/192 77/83/193 80/81/194
f 76/86/195 78/84/196 77/83/197 75/87/198
f 74/79/199 79/82/200 78/84/201 76/88/202
f 92/89/203 99/90/204 115/91/205 110/92/206
f 109/93/207 115/91/208 99/90/209 94/94/210
f 85/95/211 114/96/212 90/97/213
f 95/98/214 89/99/215 111/100/216
f 94/94/217 98/101/218 103/102/219 108/103/220
f 83/104/221 104/105/222 105/106/223 87/107/224
f 92/89/225 96/108/226 100/109/227 99/90/228
f 94/94/229 99/90/230 100/109/231 98/101/232
f 100/109/233 96/108/234 86/110/235 81/111/236
f 98/101/237 100/109/238 81/111/239 82/112/240
f 96/108/241 92/89/242 107/113/243 101/114/244
f 102/115/245 106/116/246 86/110/247 96/108/248
f 105/106/249 104/105/250 98/101/251 82/112/252
f 108/103/253 103/102/254 97/117/255 88/118/256
f 84/119/257 116/120/258 93/121/259
f 91/122/260 116/120/261 84/119/262
f 83/104/263 87/107/264 113/123/265
f 88/118/266 97/117/267 112/124/268
f 85/95/269 90/97/270 106/116/271 102/115/272
f 101/114/273 107/113/274 89/99/275 95/98/276
f 110/92/277 115/91/278 116/120/279 91/122/280
f 93/121/281 116/120/282 115/91/283 109/93/284
