# This file uses centimeters as units for non-parametric coordinates.

v 0.773895 6.809124 2.019531
v 1.248230 6.809124 -0.300781
v -1.240616 6.809124 -0.928162
v -1.715027 6.809124 1.392273
v -1.715027 9.340228 1.392273
v 0.773895 10.347548 2.019531
v 1.248230 9.340228 -0.300781
v -1.240616 10.347552 -0.928162
v 1.272903 21.706985 1.453674
v -1.073410 21.618240 -2.086121
v 2.335007 24.140110 -1.222717
v -3.046951 18.598351 1.310974
v -0.171341 15.518035 2.079285
v -2.185608 15.499019 -1.025208
v -1.253967 19.323242 0.071289
v -0.402740 16.743866 0.438049
v 0.223755 24.812790 -0.445740
v -8.988861 22.042793 -5.113586
v -10.121857 23.497570 -3.022095
v -8.685867 25.738960 -4.414551
v -5.994934 38.055668 8.889221
v -3.103821 37.878826 8.939026
v -4.439392 38.949741 8.031982
v 10.121857 44.042244 1.939392
v 7.955597 44.074615 3.008667
v 8.951569 43.030357 4.132996
v 6.224792 35.127438 -7.171692
v 4.030518 34.726585 -8.939026
v 4.533081 36.291622 -6.954651
v 2.957092 -8.376466 -2.089233
v -0.827271 -8.376466 -3.658997
v -4.078979 -8.376466 -1.166565
v -3.546265 -8.376466 2.895691
v 0.238098 -8.376466 4.465515
v 3.489746 -8.376466 1.973022
v 5.714661 -6.163130 -4.202942
v -1.279053 -6.163130 -7.104004
v -6.807739 -5.947941 -2.344910
v -6.303894 -6.163131 5.009399
v 0.689819 -6.163130 7.910522
v 6.176880 -6.015780 3.115723
v 6.224182 -2.247012 -4.593506
v -1.339661 -2.152143 -7.228394
v -7.881287 -2.247012 -2.743774
v -6.813354 -2.247012 5.399963
v 0.706726 -2.146959 7.986389
v 7.292053 -2.247012 3.550293
v 4.670471 1.867960 -3.408813
v -1.182068 1.849476 -6.364746
v -6.599609 1.849476 -2.212158
v -5.297058 1.811285 4.338989
v 0.592896 1.849476 7.171265
v 6.010437 1.849476 3.018677
v 1.540039 4.440461 -1.002625
v -0.594727 4.440461 -1.888184
v -2.156311 4.416898 -0.344971
v -2.128540 4.556853 1.809387
v 0.006226 4.627667 2.694946
v 1.571106 4.422051 1.161133
v 1.369568 7.015105 -0.689331
v -1.191345 7.135737 -1.416138
v -1.782471 7.853126 -0.494019
v -1.760132 6.370738 1.276245
v 0.044495 6.184997 2.417236
v 1.890259 7.499135 1.210815
v -2.100342 8.815785 1.593506
v 0.689819 8.198472 3.085083
v -1.875122 7.648730 2.482422
v -0.647034 7.474422 3.093079
v 0.968262 -8.494735 -0.564758
v -0.501465 -8.494735 -1.174438
v -1.764343 -8.494735 -0.206421
v -1.557495 -8.494735 1.371277
v -0.087708 -8.494735 1.980957
v 1.175171 -8.494735 1.012939
v 0.885010 -9.143197 0.892578
v -1.474182 -9.143197 -0.086060
v -0.460632 -9.143197 -0.862976
v 0.718994 -9.143197 -0.373657
v -1.308167 -9.143197 1.180176
v -0.128540 -9.143197 1.669434
vt 0.143746 0.300288
vt 0.143746 0.300288
vt 0.143746 0.300288
vt 0.143746 0.300288
vt 0.143746 0.300288
vt 0.143746 0.300288
vt 0.143746 0.300288
vt 0.143746 0.300288
vt 0.143746 0.300289
vt 0.143746 0.300289
vt 0.143746 0.300289
vt 0.143746 0.300289
vt 0.143746 0.300289
vt 0.143746 0.300289
vt 0.143746 0.300289
vt 0.143746 0.300289
vt 0.143746 0.300289
vt 0.143746 0.300289
vt 0.143746 0.300289
vt 0.143746 0.300289
vt 0.143746 0.300289
vt 0.143746 0.300289
vt 0.143746 0.300289
vt 0.143746 0.300289
vt 0.143746 0.300289
vt 0.143746 0.300289
vt 0.143746 0.300289
vt 0.143746 0.300289
vt 0.143746 0.300289
vt 0.196222 0.124925
vt 0.216398 0.124953
vt 0.222849 0.133808
vt 0.193375 0.133757
vt 0.197047 0.127076
vt 0.217611 0.127112
vt 0.222849 0.139228
vt 0.193482 0.139159
vt 0.211352 0.158857
vt 0.211352 0.158857
vt 0.211352 0.158857
vt 0.211352 0.158857
vt 0.198113 0.172848
vt 0.212814 0.172868
vt 0.208051 0.182205
vt 0.200383 0.181810
vt 0.199100 0.175969
vt 0.214324 0.175995
vt 0.210435 0.181777
vt 0.201419 0.182205
vt 0.211352 0.158857
vt 0.211352 0.158857
vt 0.211352 0.158857
vt 0.211352 0.158857
vt 0.211352 0.158857
vt 0.211352 0.158857
vt 0.211352 0.158857
vt 0.211352 0.158857
vt 0.211352 0.158857
vt 0.211352 0.158857
vt 0.211352 0.158857
vt 0.211352 0.158857
vt 0.211352 0.158857
vt 0.211352 0.158857
vt 0.211352 0.158857
vt 0.211352 0.158857
vt 0.211352 0.158857
vt 0.198144 0.123441
vt 0.210534 0.123452
vt 0.216497 0.125946
vt 0.196309 0.125889
vt 0.199302 0.123441
vt 0.212371 0.123464
vt 0.217502 0.126170
vt 0.197470 0.126036
vt 0.201074 0.123441
vt 0.214731 0.123493
vt 0.200081 0.123441
vt 0.213583 0.123456
vt 0.216981 0.127256
vt 0.196585 0.127011
vt 0.199995 0.123441
vt 0.213508 0.123536
vt 0.215699 0.126789
vt 0.196347 0.126889
vt 0.198439 0.123480
vt 0.210497 0.123441
vt 0.211352 0.158857
vt 0.211352 0.158857
vt 0.211352 0.158857
vt 0.211352 0.158857
vt 0.211352 0.158857
vt 0.211352 0.158857
vt 0.211352 0.158857
vt 0.211352 0.158857
vt 0.211352 0.158857
vt 0.211352 0.158857
vt 0.211352 0.158857
vt 0.211352 0.158857
vt 0.211352 0.158857
vt 0.211352 0.158857
vt 0.192635 0.150257
vt 0.222849 0.150525
vt 0.217396 0.163706
vt 0.194584 0.163508
vt 0.197149 0.167992
vt 0.221326 0.168044
vt 0.192635 0.154330
vt 0.219605 0.154394
vt 0.193718 0.166060
vt 0.194617 0.153197
vt 0.222849 0.153620
vt 0.220280 0.166467
vt 0.198837 0.173487
vt 0.210556 0.173621
vt 0.210687 0.182205
vt 0.201148 0.178858
vt 0.200610 0.182205
vt 0.200486 0.173404
vt 0.212444 0.173351
vt 0.208325 0.180917
vt 0.194270 0.165751
vt 0.215887 0.165609
vt 0.192635 0.152736
vt 0.222849 0.152536
vt 0.197130 0.162079
vt 0.221110 0.162118
vt 0.192635 0.147830
vt 0.220710 0.147880
vt 0.193669 0.163165
vt 0.194400 0.149861
vt 0.222849 0.149962
vt 0.220144 0.163262
vt 0.198494 0.172120
vt 0.209951 0.172152
vt 0.209400 0.182205
vt 0.201312 0.180508
vt 0.214601 0.172345
vt 0.200319 0.172275
vt 0.200618 0.182205
vt 0.211469 0.178655
vt 0.192635 0.135881
vt 0.217252 0.135973
vt 0.221728 0.136487
vt 0.195759 0.136269
vt 0.192635 0.138665
vt 0.217526 0.139058
vt 0.221495 0.138132
vt 0.195662 0.138294
vn -0.244388 0.000000 0.969678
vn -0.244388 0.000000 0.969678
vn -0.244388 0.000000 0.969678
vn -0.244388 0.000000 0.969678
vn 0.979739 0.000000 0.200280
vn 0.979739 0.000000 0.200280
vn 0.979739 0.000000 0.200280
vn 0.979739 0.000000 0.200280
vn 0.244413 0.000000 -0.969671
vn 0.244413 0.000000 -0.969671
vn 0.244413 0.000000 -0.969671
vn 0.244413 0.000000 -0.969671
vn -0.979732 0.000000 -0.200312
vn -0.979732 0.000000 -0.200312
vn -0.979732 0.000000 -0.200312
vn -0.979732 0.000000 -0.200312
vn -0.901083 0.070008 0.427958
vn -0.901083 0.070008 0.427958
vn -0.901083 0.070008 0.427958
vn -0.901083 0.070008 0.427958
vn 0.960348 -0.039698 0.275962
vn 0.960348 -0.039698 0.275962
vn 0.960348 -0.039698 0.275962
vn 0.960348 -0.039698 0.275962
vn 0.277717 -0.083732 -0.957007
vn 0.277717 -0.083732 -0.957007
vn 0.277718 -0.083732 -0.957007
vn 0.277717 -0.083732 -0.957007
vn -0.190106 -0.003175 0.981758
vn -0.190106 -0.003175 0.981758
vn -0.190106 -0.003175 0.981758
vn -0.190106 -0.003175 0.981758
vn 0.695739 0.069535 -0.714921
vn 0.695739 0.069535 -0.714921
vn 0.695739 0.069535 -0.714921
vn 0.695739 0.069535 -0.714921
vn -0.967854 -0.130859 -0.214792
vn -0.967853 -0.130859 -0.214792
vn -0.967854 -0.130859 -0.214792
vn -0.967854 -0.130859 -0.214792
vn 0.874967 0.081114 -0.477341
vn 0.874967 0.081114 -0.477341
vn 0.874967 0.081114 -0.477341
vn 0.874967 0.081114 -0.477341
vn -0.734120 0.079166 0.674389
vn -0.734120 0.079166 0.674389
vn -0.734120 0.079166 0.674389
vn -0.734120 0.079166 0.674389
vn -0.912496 -0.408935 -0.011103
vn -0.912496 -0.408935 -0.011103
vn -0.912496 -0.408935 -0.011103
vn -0.912496 -0.408935 -0.011103
vn 0.310497 0.439233 0.843010
vn 0.310497 0.439232 0.843010
vn 0.310497 0.439232 0.843010
vn 0.310497 0.439232 0.843010
vn 0.679732 0.079289 -0.729162
vn 0.679732 0.079289 -0.729162
vn 0.679732 0.079289 -0.729162
vn 0.679732 0.079289 -0.729162
vn -0.195502 -0.221443 0.955375
vn -0.195502 -0.221443 0.955375
vn -0.195502 -0.221443 0.955375
vn -0.195502 -0.221443 0.955375
vn 0.808246 0.192046 -0.556648
vn 0.808246 0.192046 -0.556648
vn 0.808246 0.192046 -0.556648
vn 0.808246 0.192046 -0.556648
vn -0.583582 0.151343 -0.797827
vn -0.583582 0.151343 -0.797827
vn -0.583582 0.151343 -0.797827
vn -0.583581 0.151343 -0.797827
vn -0.336716 0.160814 -0.927772
vn -0.336716 0.160814 -0.927772
vn -0.336716 0.160814 -0.927772
vn -0.336716 0.160814 -0.927772
vn -0.791736 0.090878 0.604065
vn -0.791736 0.090878 0.604065
vn -0.791736 0.090878 0.604065
vn -0.791736 0.090878 0.604065
vn 0.936432 -0.188484 0.295921
vn 0.936432 -0.188484 0.295921
vn 0.936432 -0.188484 0.295921
vn 0.936432 -0.188484 0.295921
vn 0.542730 -0.355428 -0.760996
vn 0.542730 -0.355428 -0.760996
vn 0.542730 -0.355428 -0.760996
vn 0.542730 -0.355428 -0.760996
vn -0.956926 0.248733 0.149746
vn -0.956926 0.248733 0.149746
vn -0.956926 0.248733 0.149746
vn -0.956926 0.248733 0.149746
vn 0.374403 0.233080 0.897495
vn 0.374403 0.233080 0.897495
vn 0.374403 0.233080 0.897495
vn 0.374403 0.233080 0.897495
vn 0.383896 0.675264 -0.629796
vn 0.383896 0.675264 -0.629796
vn 0.383896 0.675264 -0.629796
vn 0.027903 0.666092 0.745347
vn 0.027903 0.666092 0.745347
vn 0.027903 0.666092 0.745347
vn -0.810997 0.172226 -0.559126
vn -0.810997 0.172226 -0.559126
vn -0.810997 0.172226 -0.559126
vn 0.267664 0.812640 0.517660
vn 0.267664 0.812640 0.517660
vn 0.267664 0.812640 0.517660
vn 0.227032 -0.805543 -0.547318
vn 0.227032 -0.805543 -0.547318
vn 0.227032 -0.805543 -0.547318
vn 0.227032 -0.805543 -0.547318
vn -0.227036 -0.805545 0.547313
vn -0.227036 -0.805545 0.547313
vn -0.227036 -0.805545 0.547313
vn -0.227036 -0.805545 0.547313
vn 0.000000 -1.000000 -0.000000
vn 0.000000 -1.000000 -0.000000
vn 0.000000 -1.000000 -0.000000
vn 0.000000 -1.000000 -0.000000
vn 0.323389 0.185356 -0.927935
vn 0.323389 0.185356 -0.927935
vn 0.323389 0.185356 -0.927935
vn 0.323389 0.185356 -0.927935
vn -0.435734 0.259835 0.861755
vn -0.435734 0.259835 0.861755
vn -0.435734 0.259835 0.861755
vn -0.435734 0.259835 0.861755
vn 0.215951 0.900322 -0.377871
vn 0.215951 0.900322 -0.377871
vn 0.215951 0.900322 -0.377871
vn 0.215951 0.900322 -0.377871
vn -0.300807 0.547253 0.781043
vn -0.300807 0.547253 0.781043
vn -0.300807 0.547253 0.781043
vn -0.300807 0.547253 0.781043
vn 0.276520 0.919398 -0.279720
vn 0.276520 0.919398 -0.279720
vn 0.276520 0.919398 -0.279720
vn 0.276520 0.919398 -0.279720
vn -0.990362 -0.132620 -0.039935
vn -0.990362 -0.132620 -0.039935
vn -0.990362 -0.132620 -0.039935
vn -0.990362 -0.132620 -0.039935
vn -0.447595 -0.615873 0.648351
vn -0.447595 -0.615873 0.648351
vn -0.447595 -0.615873 0.648351
vn -0.447595 -0.615873 0.648351
vn 0.544388 -0.416071 0.728373
vn 0.544388 -0.416071 0.728373
vn 0.544388 -0.416071 0.728373
vn 0.544388 -0.416071 0.728373
vn 0.020850 -0.998518 -0.050265
vn 0.020850 -0.998518 -0.050265
vn 0.020850 -0.998518 -0.050265
vn 0.020850 -0.998518 -0.050265
vn -0.033105 -0.998518 -0.043190
vn -0.033105 -0.998518 -0.043190
vn -0.033105 -0.998518 -0.043190
vn -0.033105 -0.998518 -0.043190
vn -0.053956 -0.998518 0.007075
vn -0.053956 -0.998518 0.007075
vn -0.053956 -0.998518 0.007075
vn -0.053956 -0.998518 0.007075
vn -0.020851 -0.998518 0.050266
vn -0.020851 -0.998518 0.050266
vn -0.020851 -0.998518 0.050266
vn -0.020851 -0.998518 0.050266
vn 0.033106 -0.998518 0.043190
vn 0.033106 -0.998518 0.043190
vn 0.033106 -0.998518 0.043190
vn 0.033106 -0.998518 0.043190
vn 0.053956 -0.998518 -0.007075
vn 0.053956 -0.998518 -0.007075
vn 0.053956 -0.998518 -0.007075
vn 0.053956 -0.998518 -0.007075
vn 0.000000 -1.000000 0.000000
vn 0.000000 -1.000000 0.000000
vn 0.000000 -1.000000 0.000000
vn 0.000000 -1.000000 0.000000
vn -0.560993 -0.386856 -0.731867
vn -0.560993 -0.386856 -0.731867
vn -0.560993 -0.386856 -0.731867
vn -0.560993 -0.386856 -0.731867
vn 0.353329 -0.386849 -0.851767
vn 0.353329 -0.386849 -0.851767
vn 0.353329 -0.386849 -0.851767
vn 0.353329 -0.386849 -0.851767
vn 0.914322 -0.386833 -0.119895
vn 0.914322 -0.386833 -0.119895
vn 0.914322 -0.386833 -0.119895
vn 0.914322 -0.386833 -0.119895
vn -0.353297 -0.386896 0.851759
vn -0.353297 -0.386896 0.851759
vn -0.353297 -0.386896 0.851759
vn -0.353297 -0.386896 0.851758
vn -0.914310 -0.386869 0.119874
vn -0.914310 -0.386869 0.119874
vn -0.914310 -0.386869 0.119874
vn -0.914310 -0.386869 0.119874
vn 0.560973 -0.386885 0.731867
vn 0.560973 -0.386885 0.731867
vn 0.560973 -0.386885 0.731867
vn 0.560973 -0.386885 0.731867
vn -0.931946 0.329573 0.151192
vn -0.931946 0.329573 0.151192
vn -0.931946 0.329573 0.151192
vn -0.931946 0.329573 0.151192
vn -0.259721 0.802564 0.537062
vn -0.259721 0.802564 0.537062
vn -0.259721 0.802564 0.537062
vn -0.259721 0.802564 0.537062
vn -0.363042 0.270867 0.891534
vn -0.363042 0.270867 0.891534
vn -0.363042 0.270867 0.891534
vn -0.363042 0.270867 0.891534
vn -0.352153 -0.076716 0.932793
vn -0.352153 -0.076717 0.932793
vn -0.352153 -0.076716 0.932793
vn -0.352153 -0.076717 0.932793
vn 0.567659 0.229451 0.790643
vn 0.567659 0.229451 0.790642
vn 0.567659 0.229451 0.790643
vn 0.567659 0.229451 0.790643
vn 0.628304 -0.010182 0.777902
vn 0.628303 -0.010182 0.777902
vn 0.628303 -0.010182 0.777902
vn 0.628304 -0.010182 0.777902
vn 0.363309 0.833653 0.415969
vn 0.363309 0.833653 0.415969
vn 0.363309 0.833652 0.415969
vn 0.363309 0.833653 0.415969
vn 0.991022 -0.017559 -0.132540
vn 0.991022 -0.017559 -0.132540
vn 0.991022 -0.017559 -0.132540
vn 0.991022 -0.017559 -0.132540
vn 0.555863 0.826901 -0.085156
vn 0.555863 0.826901 -0.085156
vn 0.555863 0.826901 -0.085156
vn 0.555863 0.826901 -0.085156
vn 0.930241 0.333394 -0.153295
vn 0.930241 0.333394 -0.153295
vn 0.930241 0.333394 -0.153295
vn 0.930241 0.333394 -0.153295
vn 0.248597 0.816669 -0.520817
vn 0.248597 0.816669 -0.520817
vn 0.248597 0.816669 -0.520817
vn 0.248597 0.816669 -0.520817
vn 0.369902 0.286652 -0.883744
vn 0.369902 0.286652 -0.883744
vn 0.369902 0.286652 -0.883744
vn 0.369902 0.286652 -0.883744
vn 0.353832 -0.080570 -0.931832
vn 0.353832 -0.080570 -0.931832
vn 0.353832 -0.080570 -0.931832
vn 0.353832 -0.080570 -0.931832
vn -0.570065 0.236864 -0.786716
vn -0.570065 0.236864 -0.786716
vn -0.570065 0.236864 -0.786716
vn -0.570065 0.236864 -0.786716
vn -0.752201 0.007379 -0.658893
vn -0.752201 0.007379 -0.658893
vn -0.752201 0.007379 -0.658893
vn -0.752201 0.007379 -0.658893
vn -0.341492 0.843329 -0.414945
vn -0.341492 0.843329 -0.414945
vn -0.341492 0.843329 -0.414945
vn -0.341492 0.843329 -0.414945
vn -0.566151 0.820704 0.076922
vn -0.566151 0.820704 0.076922
vn -0.566151 0.820704 0.076922
vn -0.566151 0.820704 0.076922
vn -0.987008 0.147745 0.063139
vn -0.987008 0.147745 0.063139
vn -0.987008 0.147745 0.063139
vn -0.987008 0.147745 0.063139
vn -0.602746 -0.141920 -0.785210
vn -0.602746 -0.141920 -0.785211
vn -0.602746 -0.141920 -0.785210
vn -0.602746 -0.141920 -0.785210
vn -0.418440 -0.768632 -0.483852
vn -0.418440 -0.768632 -0.483852
vn -0.418440 -0.768632 -0.483852
vn -0.418440 -0.768632 -0.483852
vn -0.640929 -0.766353 0.043748
vn -0.640928 -0.766353 0.043748
vn -0.640929 -0.766353 0.043748
vn -0.640929 -0.766353 0.043748
vn -0.974576 -0.202436 0.096028
vn -0.974576 -0.202436 0.096028
vn -0.974576 -0.202436 0.096028
vn -0.974576 -0.202436 0.096028
vn 0.601852 -0.139083 0.786403
vn 0.601852 -0.139083 0.786404
vn 0.601852 -0.139083 0.786404
vn 0.601852 -0.139083 0.786403
vn 0.416036 -0.770268 0.483323
vn 0.416036 -0.770268 0.483323
vn 0.416036 -0.770268 0.483323
vn 0.416036 -0.770268 0.483323
vn 0.637755 -0.768876 -0.045795
vn 0.637755 -0.768876 -0.045795
vn 0.637755 -0.768876 -0.045795
vn 0.637755 -0.768876 -0.045795
vn 0.974111 -0.205400 -0.094436
vn 0.974111 -0.205400 -0.094436
vn 0.974111 -0.205400 -0.094436
vn 0.974111 -0.205400 -0.094436
s off
f 4/1/1 1/2/2 6/3/3 5/4/4
f 1/2/5 2/5/6 7/6/7 6/3/8
f 2/5/9 3/7/10 8/8/11 7/6/12
f 3/7/13 4/1/14 5/4/15 8/8/16
f 8/8/17 16/9/18 17/10/19 10/11/20
f 6/3/21 7/6/22 11/12/23 9/13/24
f 7/6/25 8/8/26 10/11/27 11/12/28
f 5/4/29 6/3/30 13/14/31 12/15/32
f 15/16/33 16/9/34 8/8/35 14/17/36
f 8/8/37 5/4/38 12/15/39 14/17/40
f 6/3/41 16/9/42 15/16/43 13/14/44
f 17/10/45 16/9/46 6/3/47 9/13/48
f 14/17/49 12/15/50 19/18/51 18/19/52
f 12/15/53 15/16/54 20/20/55 19/18/56
f 15/16/57 14/17/58 18/19/59 20/20/60
f 12/15/61 13/14/62 22/21/63 21/22/64
f 13/14/65 15/16/66 23/23/67 22/21/68
f 15/16/69 12/15/70 21/22/71 23/23/72
f 11/12/73 17/10/74 25/24/75 24/25/76
f 17/10/77 9/13/78 26/26/79 25/24/80
f 9/13/81 11/12/82 24/25/83 26/26/84
f 11/12/85 10/11/86 28/27/87 27/28/88
f 10/11/89 17/10/90 29/29/91 28/27/92
f 17/10/93 11/12/94 27/28/95 29/29/96
f 28/27/97 29/29/98 27/28/99
f 22/21/100 23/23/101 21/22/102
f 19/18/103 20/20/104 18/19/105
f 24/25/106 25/24/107 26/26/108
f 30/30/109 31/31/110 37/32/111 36/33/112
f 33/34/113 34/35/114 40/36/115 39/37/116
f 76/38/117 77/39/118 78/40/119 79/41/120
f 54/42/121 55/43/122 61/44/123 60/45/124
f 57/46/125 58/47/126 64/48/127 63/49/128
f 65/50/129 60/51/130 61/52/131 62/53/132
f 67/54/133 66/55/134 68/56/135 69/57/136
f 65/50/137 62/53/138 66/58/139 67/59/140
f 62/60/141 63/61/142 68/56/143 66/55/144
f 63/61/145 64/62/146 69/57/147 68/56/148
f 64/63/149 65/64/150 67/65/151 69/66/152
f 31/31/153 30/30/154 70/67/155 71/68/156
f 32/69/157 31/70/158 71/71/159 72/72/160
f 33/73/161 32/74/162 72/75/163 73/76/164
f 34/35/165 33/34/166 73/77/167 74/78/168
f 35/79/169 34/80/170 74/81/171 75/82/172
f 30/83/173 35/84/174 75/85/175 70/86/176
f 81/87/177 80/88/178 77/89/179 76/90/180
f 72/91/181 71/92/182 78/93/183 77/89/184
f 71/94/185 70/95/186 79/41/187 78/40/188
f 70/95/189 75/96/190 76/38/191 79/41/192
f 74/97/193 73/98/194 80/88/195 81/87/196
f 73/98/197 72/91/198 77/89/199 80/88/200
f 75/96/201 74/99/202 81/100/203 76/38/204
f 44/101/205 45/102/206 51/103/207 50/104/208
f 57/46/209 51/105/210 52/106/211 58/47/212
f 45/107/213 46/108/214 52/106/215 51/105/216
f 39/37/217 40/36/218 46/108/219 45/107/220
f 52/109/221 46/110/222 47/111/223 53/112/224
f 58/113/225 59/114/226 65/115/227 64/116/228
f 52/109/229 53/112/230 59/114/231 58/113/232
f 65/117/233 59/118/234 54/119/235 60/120/236
f 53/121/237 48/122/238 54/119/239 59/118/240
f 47/123/241 42/124/242 48/122/243 53/121/244
f 54/42/245 48/125/246 49/126/247 55/43/248
f 42/127/249 43/128/250 49/126/251 48/125/252
f 36/33/253 37/32/254 43/128/255 42/127/256
f 49/129/257 43/130/258 44/131/259 50/132/260
f 55/133/261 56/134/262 62/135/263 61/136/264
f 49/129/265 50/132/266 56/134/267 55/133/268
f 50/104/269 51/103/270 57/137/271 56/138/272
f 62/139/273 56/138/274 57/137/275 63/140/276
f 37/141/277 38/142/278 44/131/279 43/130/280
f 31/70/281 32/69/282 38/142/283 37/141/284
f 32/74/285 33/73/286 39/143/287 38/144/288
f 44/101/289 38/144/290 39/143/291 45/102/292
f 40/145/293 41/146/294 47/111/295 46/110/296
f 34/80/297 35/79/298 41/146/299 40/145/300
f 35/84/301 30/83/302 36/147/303 41/148/304
f 47/123/305 41/148/306 36/147/307 42/124/308
