# This file uses centimeters as units for non-parametric coordinates.

v 0.332031 8.082255 -69.532288
v 0.793671 8.082255 -43.448608
v -1.138214 4.734644 -43.362244
v -1.597260 4.734644 -69.704529
v -0.355682 4.734644 -74.131653
v 2.815399 4.734645 -75.369232
v 1.043732 7.162846 -74.006683
v 1.415405 7.162846 -38.944519
v 0.014099 4.734644 -38.881897
v 6.119858 4.734645 -69.015564
v 6.589294 4.734645 -43.707642
v 4.657425 8.082255 -43.621307
v 4.190582 8.082255 -69.187805
v 3.842545 7.162846 -73.756836
v 5.241959 4.734645 -73.631897
v 5.619278 4.734645 -39.132416
v 4.218002 7.162846 -39.069794
v 0.332031 1.387036 -69.532288
v 0.793671 1.387036 -43.448608
v 4.657425 1.387036 -43.621307
v 4.190582 1.387036 -69.187805
v 3.842545 2.306444 -73.756836
v 1.043732 2.306444 -74.006683
v 1.415405 2.306444 -38.944519
v 4.218002 2.306444 -39.069794
v 5.770004 4.532017 -56.228943
v 3.722580 8.079829 -56.137421
v -0.372223 8.079829 -55.954437
v -2.419647 4.532016 -55.862915
v -0.372223 0.984205 -55.954437
v 3.722580 0.984205 -56.137421
v 2.067047 6.265772 -38.333588
v 4.527710 5.784598 -38.448883
v 4.069931 2.731905 -38.650452
v 1.069916 3.575989 -38.426849
v 2.406738 5.927741 -36.637054
v 4.410324 5.535948 -36.724945
v 4.037567 3.050308 -36.878571
v 1.594818 3.737599 -36.708130
v 4.048828 3.437247 -24.357819
v 6.602966 3.553367 -23.574127
v 6.969681 0.281030 -23.743134
v 3.759064 0.404942 -24.621216
v -0.533478 3.794641 -12.943024
v 2.020691 3.910764 -12.159363
v 2.387390 0.638423 -12.328369
v -0.823242 0.762335 -13.206451
v -0.000004 0.000000 0.000006
vt 0.226015 0.128808
vt 0.239107 0.128808
vt 0.239107 0.172287
vt 0.226015 0.172287
vt 0.235908 0.119162
vt 0.229213 0.119162
vt 0.232561 0.117320
vt 0.226549 0.181933
vt 0.238573 0.181933
vt 0.145584 0.304084
vt 0.226015 0.128808
vt 0.239107 0.128808
vt 0.239107 0.172287
vt 0.226015 0.172287
vt 0.235908 0.119162
vt 0.229213 0.119162
vt 0.232561 0.117320
vt 0.226549 0.181933
vt 0.238573 0.181933
vt 0.226015 0.128808
vt 0.239107 0.128808
vt 0.239107 0.172287
vt 0.226015 0.172287
vt 0.235908 0.119162
vt 0.229213 0.119162
vt 0.232561 0.117320
vt 0.226549 0.181933
vt 0.238573 0.181933
vt 0.145599 0.304084
vt 0.226015 0.128808
vt 0.239107 0.128808
vt 0.239107 0.172287
vt 0.226015 0.172287
vt 0.235908 0.119162
vt 0.229213 0.119162
vt 0.226549 0.181933
vt 0.238573 0.181933
vt 0.232561 0.183774
vt 0.226015 0.128808
vt 0.239107 0.128808
vt 0.239107 0.172287
vt 0.226015 0.172287
vt 0.235908 0.119162
vt 0.229213 0.119162
vt 0.226549 0.181933
vt 0.238573 0.181933
vt 0.232561 0.183774
vt 0.226015 0.128808
vt 0.239107 0.128808
vt 0.239107 0.172287
vt 0.226015 0.172287
vt 0.235908 0.119162
vt 0.229213 0.119162
vt 0.145599 0.304085
vt 0.226549 0.181933
vt 0.238573 0.181933
vt 0.232561 0.183774
vt 0.226015 0.151442
vt 0.239107 0.149653
vt 0.226015 0.149653
vt 0.239107 0.151442
vt 0.226015 0.151442
vt 0.239107 0.149653
vt 0.226015 0.149653
vt 0.239107 0.151442
vt 0.226015 0.151442
vt 0.239107 0.149653
vt 0.226015 0.149653
vt 0.239107 0.151442
vt 0.230929 0.118218
vt 0.235491 0.182877
vt 0.232308 0.182829
vt 0.234420 0.118343
vt 0.230983 0.118188
vt 0.228463 0.182519
vt 0.234843 0.118576
vt 0.232562 0.118430
vt 0.236181 0.182665
vt 0.228936 0.182664
vt 0.145599 0.304085
vt 0.145584 0.304084
vt 0.145599 0.304084
vt 0.145599 0.304084
vt 0.145584 0.304084
vt 0.145584 0.304085
vt 0.145584 0.304085
vt 0.145599 0.304085
vt 0.145599 0.304085
vt 0.145584 0.304084
vt 0.145584 0.304084
vt 0.145584 0.304085
vt 0.145599 0.304085
vt 0.145596 0.304084
vn -0.865557 0.500594 0.014730
vn -0.865539 0.500598 0.015648
vn -0.862426 0.499773 0.080305
vn -0.862426 0.499773 0.080305
vn -0.352079 0.249340 -0.902147
vn -0.352079 0.249340 -0.902147
vn -0.352079 0.249340 -0.902147
vn -0.369079 0.167488 0.914182
vn -0.369079 0.167488 0.914182
vn -0.369079 0.167488 0.914182
vn -0.369079 0.167488 0.914182
vn -0.836934 0.494418 -0.234717
vn -0.836934 0.494418 -0.234717
vn -0.836934 0.494418 -0.234717
vn -0.836934 0.494418 -0.234717
vn -0.843083 0.492132 0.216835
vn -0.843083 0.492132 0.216835
vn -0.843083 0.492132 0.216835
vn -0.843083 0.492132 0.216835
vn 0.865655 0.500399 -0.015541
vn 0.865639 0.500403 -0.016329
vn 0.863591 0.500038 -0.064599
vn 0.863591 0.500038 -0.064599
vn 0.558556 0.281765 -0.780143
vn 0.558556 0.281765 -0.780143
vn 0.558556 0.281765 -0.780143
vn 0.733493 0.409291 0.542650
vn 0.733493 0.409291 0.542650
vn 0.733493 0.409291 0.542650
vn 0.858402 0.486311 -0.163245
vn 0.858402 0.486311 -0.163245
vn 0.858401 0.486311 -0.163245
vn 0.858401 0.486311 -0.163245
vn 0.853829 0.488065 0.181023
vn 0.853829 0.488065 0.181023
vn 0.853829 0.488065 0.181023
vn 0.853829 0.488065 0.181023
vn 0.001018 -0.999999 0.000511
vn 0.001005 -0.999999 -0.000474
vn 0.001433 -0.999485 0.032061
vn 0.001433 -0.999485 0.032061
vn 0.075442 -0.529259 -0.845100
vn 0.075442 -0.529259 -0.845100
vn 0.075442 -0.529259 -0.845100
vn -0.018490 -0.487840 0.872737
vn -0.018490 -0.487840 0.872737
vn -0.018490 -0.487840 0.872737
vn -0.018490 -0.487840 0.872737
vn 0.017724 -0.979933 -0.198539
vn 0.017724 -0.979933 -0.198539
vn 0.017724 -0.979933 -0.198539
vn 0.017724 -0.979933 -0.198539
vn 0.008887 -0.979996 0.198818
vn 0.008887 -0.979996 0.198818
vn 0.008887 -0.979996 0.198818
vn 0.008887 -0.979996 0.198818
vn -0.000009 1.000000 -0.000193
vn -0.000009 1.000000 -0.000193
vn -0.000006 1.000000 0.000003
vn -0.000006 1.000000 -0.000003
vn 0.085231 0.501973 0.860673
vn 0.085231 0.501973 0.860673
vn 0.085231 0.501973 0.860673
vn 0.085231 0.501973 0.860673
vn 0.075439 0.529259 -0.845100
vn 0.075439 0.529259 -0.845100
vn 0.075439 0.529259 -0.845100
vn 0.008887 0.979996 0.198818
vn 0.008887 0.979996 0.198818
vn 0.008887 0.979996 0.198818
vn 0.008887 0.979996 0.198818
vn 0.017724 0.979933 -0.198539
vn 0.017724 0.979933 -0.198539
vn 0.017724 0.979933 -0.198539
vn 0.017724 0.979933 -0.198539
vn -0.861013 -0.499372 0.096356
vn -0.861013 -0.499372 0.096356
vn -0.865409 -0.500815 0.015827
vn -0.865434 -0.500812 0.014565
vn -0.708052 -0.423196 0.565303
vn -0.708052 -0.423196 0.565303
vn -0.708052 -0.423196 0.565303
vn -0.352082 -0.249340 -0.902146
vn -0.352082 -0.249340 -0.902146
vn -0.352082 -0.249340 -0.902146
vn -0.843083 -0.492132 0.216835
vn -0.843083 -0.492132 0.216835
vn -0.843083 -0.492132 0.216835
vn -0.843083 -0.492132 0.216835
vn -0.836934 -0.494418 -0.234717
vn -0.836934 -0.494418 -0.234717
vn -0.836934 -0.494418 -0.234717
vn -0.836934 -0.494418 -0.234717
vn 0.864562 -0.500182 -0.048476
vn 0.864562 -0.500182 -0.048476
vn 0.865771 -0.500179 -0.016179
vn 0.865782 -0.500175 -0.015669
vn 0.512179 -0.194930 0.836466
vn 0.512179 -0.194930 0.836466
vn 0.512179 -0.194930 0.836466
vn 0.512179 -0.194930 0.836466
vn 0.558556 -0.281765 -0.780143
vn 0.558556 -0.281765 -0.780143
vn 0.558556 -0.281765 -0.780143
vn 0.853829 -0.488065 0.181023
vn 0.853829 -0.488065 0.181023
vn 0.853829 -0.488065 0.181023
vn 0.853829 -0.488065 0.181023
vn 0.858402 -0.486311 -0.163245
vn 0.858401 -0.486311 -0.163245
vn 0.858401 -0.486311 -0.163245
vn 0.858402 -0.486311 -0.163245
vn 0.865678 0.499617 0.031368
vn 0.865639 0.500403 -0.016329
vn 0.865655 0.500399 -0.015541
vn 0.865678 0.499617 0.031368
vn -0.000006 1.000000 -0.000003
vn -0.000006 1.000000 0.000003
vn -0.000004 1.000000 0.000182
vn -0.000004 1.000000 0.000182
vn -0.865182 0.499486 -0.044436
vn -0.865539 0.500598 0.015648
vn -0.865557 0.500594 0.014730
vn -0.865182 0.499486 -0.044436
vn -0.865434 -0.500812 0.014565
vn -0.865409 -0.500815 0.015827
vn -0.864446 -0.499234 -0.059154
vn -0.864446 -0.499234 -0.059154
vn 0.000614 -0.999543 -0.030215
vn 0.001005 -0.999999 -0.000474
vn 0.001018 -0.999999 0.000511
vn 0.000614 -0.999543 -0.030215
vn 0.865782 -0.500175 -0.015669
vn 0.865771 -0.500179 -0.016179
vn 0.866077 -0.499664 0.015706
vn 0.866077 -0.499664 0.015706
vn 0.196359 0.968466 0.153350
vn 0.196359 0.968466 0.153350
vn 0.196359 0.968466 0.153350
vn 0.196359 0.968466 0.153350
vn 0.987496 -0.150992 0.045314
vn 0.987496 -0.150992 0.045314
vn 0.987496 -0.150992 0.045314
vn 0.987496 -0.150992 0.045314
vn -0.255814 -0.952186 0.167037
vn -0.255814 -0.952186 0.167037
vn -0.255814 -0.952186 0.167037
vn -0.255814 -0.952186 0.167037
vn -0.911119 0.329423 0.247673
vn -0.911119 0.329423 0.247673
vn -0.911119 0.329423 0.247673
vn -0.911119 0.329423 0.247673
vn 0.033914 0.985174 0.168175
vn 0.033914 0.985174 0.168175
vn 0.033914 0.985174 0.168175
vn 0.033914 0.985174 0.168175
vn 0.981800 0.009598 -0.189676
vn 0.981800 0.009598 -0.189676
vn 0.981800 0.009598 -0.189676
vn 0.981800 0.009598 -0.189676
vn -0.112746 -0.970730 -0.212063
vn -0.112746 -0.970730 -0.212063
vn -0.112746 -0.970730 -0.212063
vn -0.112746 -0.970730 -0.212063
vn -0.961988 0.190395 0.195778
vn -0.961988 0.190395 0.195778
vn -0.961988 0.190395 0.195778
vn -0.961988 0.190395 0.195778
vn -0.031878 0.998520 -0.044060
vn -0.031878 0.998520 -0.044060
vn -0.031878 0.998520 -0.044060
vn -0.031878 0.998520 -0.044060
vn 0.925598 0.084672 0.368916
vn 0.925598 0.084672 0.368916
vn 0.925598 0.084672 0.368916
vn 0.925598 0.084672 0.368916
vn -0.042449 -0.998997 0.014238
vn -0.042449 -0.998997 0.014238
vn -0.042449 -0.998997 0.014238
vn -0.042449 -0.998997 0.014238
vn -0.919966 0.120320 -0.373075
vn -0.919966 0.120320 -0.373075
vn -0.919966 0.120320 -0.373075
vn -0.919967 0.120320 -0.373075
vn -0.993757 0.089134 0.067092
vn -0.993757 0.089134 0.067092
vn -0.993757 0.089134 0.067092
vn -0.023160 -0.998152 -0.056174
vn -0.023160 -0.998152 -0.056174
vn -0.023160 -0.998152 -0.056174
vn 0.975933 0.099337 0.194134
vn 0.975933 0.099337 0.194134
vn 0.975933 0.099337 0.194134
vn -0.130289 0.949966 0.283882
vn -0.130289 0.949966 0.283882
vn -0.130289 0.949966 0.283882
s off
f 28/63/1 29/64/2 3/4/3 2/3/4
f 7/5/5 6/7/6 5/6/7
f 9/8/8 35/79/9 32/71/10 8/9/11
f 1/2/12 7/5/13 5/6/14 4/1/15
f 3/4/16 9/8/17 8/9/18 2/3/19
f 26/59/20 27/60/21 12/14/22 11/13/23
f 15/15/24 6/17/25 14/16/26
f 17/18/27 33/72/28 16/19/29
f 10/12/30 15/15/31 14/16/32 13/11/33
f 12/14/34 17/18/35 16/19/36 11/13/37
f 30/67/38 31/68/39 20/23/40 19/22/41
f 23/24/42 6/26/43 22/25/44
f 25/27/45 34/75/46 35/78/47 24/28/48
f 18/21/49 23/24/50 22/25/51 21/20/52
f 20/23/53 25/27/54 24/28/55 19/22/56
f 2/30/57 12/31/58 27/61/59 28/62/60
f 17/34/61 8/35/62 32/70/63 33/73/64
f 7/36/65 14/37/66 6/38/67
f 12/31/68 2/30/69 8/35/70 17/34/71
f 1/33/72 13/32/73 14/37/74 7/36/75
f 19/39/76 3/40/77 29/65/78 30/66/79
f 9/43/80 24/44/81 35/77/82
f 23/45/83 5/46/84 6/47/85
f 3/40/86 19/39/87 24/44/88 9/43/89
f 18/42/90 4/41/91 5/46/92 23/45/93
f 11/48/94 20/49/95 31/69/96 26/58/97
f 25/52/98 16/53/99 33/74/100 34/76/101
f 15/55/102 22/56/103 6/57/104
f 20/49/105 11/48/106 16/53/107 25/52/108
f 10/51/109 21/50/110 22/56/111 15/55/112
f 13/11/113 27/60/114 26/59/115 10/12/116
f 28/62/117 27/61/118 13/32/119 1/33/120
f 4/1/121 29/64/122 28/63/123 1/2/124
f 30/66/125 29/65/126 4/41/127 18/42/128
f 21/20/129 31/68/130 30/67/131 18/21/132
f 26/58/133 31/69/134 21/50/135 10/51/136
f 33/81/137 32/82/138 36/83/139 37/84/140
f 34/85/141 33/81/142 37/84/143 38/86/144
f 35/87/145 34/85/146 38/86/147 39/88/148
f 32/82/149 35/87/150 39/88/151 36/83/152
f 37/84/153 36/83/154 40/89/155 41/90/156
f 38/86/157 37/84/158 41/90/159 42/91/160
f 39/88/161 38/86/162 42/91/163 43/92/164
f 36/83/165 39/88/166 43/92/167 40/89/168
f 41/90/169 40/89/170 44/29/171 45/10/172
f 42/91/173 41/90/174 45/10/175 46/54/176
f 43/92/177 42/91/178 46/54/179 47/80/180
f 40/89/181 43/92/182 47/80/183 44/29/184
f 44/29/185 47/80/186 48/93/187
f 47/80/188 46/54/189 48/93/190
f 46/54/191 45/10/192 48/93/193
f 45/10/194 44/29/195 48/93/196
