# This file uses centimeters as units for non-parametric coordinates.

v 0.704712 -6.262876 1.885864
v 1.840088 -5.723136 0.879150
v -1.057251 -2.012607 2.294342
v 2.588318 -2.012607 1.196320
v -2.616943 -2.012607 -1.178894
v 1.028687 -2.012607 -2.276917
v -1.868713 -5.723136 -0.861694
v -1.686096 -6.143742 0.629456
v -2.301025 -2.012607 0.858124
v 2.269592 -2.012607 -0.848358
v 1.655273 -6.143742 -0.618073
v -0.963379 -2.012607 -2.601868
v 0.979736 -2.012607 2.602539
v 0.000549 -6.992462 -0.000275
v -0.701416 -6.262876 -1.880341
v -1.105957 -3.793321 -2.992554
v 1.159851 -3.793321 -2.639648
v 2.590637 -3.793321 -0.968781
v 2.931824 -3.793321 1.391479
v 1.128052 -3.793321 2.991058
v -1.188416 -3.793321 2.657104
v -2.622498 -3.793321 0.977570
v -2.960388 -3.793321 -1.374084
v 0.785339 -1.115843 -1.743713
v 0.655029 -1.115843 1.755157
v 1.736755 -1.115843 -0.648346
v -1.766724 -1.115843 -0.790894
v -0.813904 -1.115843 1.761169
v 0.425476 -0.748563 -1.303497
v 0.000000 0.000000 0.000000
v 1.238403 -0.748563 -0.367554
v -1.283691 -0.655586 -0.488647
v -0.516907 -0.644873 1.322113
v -2.391541 -0.469149 0.691528
v -1.985962 -0.469296 1.778870
v -0.591370 -0.232922 -2.841003
v -1.439148 -0.233528 -2.526001
v 2.548706 -0.043755 -1.726288
v 2.217224 -0.756232 0.797028
v -0.062439 -0.331303 3.210968
v 0.964050 -0.868399 0.634674
v -1.200623 -0.676363 0.363922
vt 0.174133 0.491241
vt 0.174133 0.491241
vt 0.174133 0.491241
vt 0.174133 0.491241
vt 0.174133 0.491241
vt 0.174133 0.491241
vt 0.174133 0.491241
vt 0.174133 0.491241
vt 0.174133 0.491241
vt 0.174133 0.491241
vt 0.174133 0.491241
vt 0.174133 0.491241
vt 0.174133 0.491241
vt 0.174133 0.491241
vt 0.174133 0.491241
vt 0.174133 0.491241
vt 0.174133 0.491241
vt 0.174133 0.491241
vt 0.174133 0.491241
vt 0.174133 0.491241
vt 0.174133 0.491241
vt 0.174133 0.491241
vt 0.025824 0.146642
vt 0.174133 0.491241
vt 0.174133 0.491241
vt 0.174133 0.491241
vt 0.174133 0.491241
vt 0.174133 0.491241
vt 0.174133 0.491241
vt 0.025824 0.146642
vt 0.025824 0.146642
vt 0.025824 0.146642
vt 0.025824 0.146642
vt 0.025824 0.146642
vt 0.025824 0.146642
vt 0.025824 0.146642
vt 0.025824 0.146642
vt 0.025824 0.146642
vt 0.025824 0.146642
vt 0.025824 0.146642
vt 0.025824 0.146642
vt 0.025824 0.146642
vt 0.025824 0.146642
vt 0.025824 0.146642
vt 0.025824 0.146642
vt 0.025824 0.146642
vt 0.025824 0.146642
vn 0.637435 -0.449589 0.625737
vn 0.637435 -0.449589 0.625737
vn 0.637435 -0.449589 0.625737
vn 0.637435 -0.449589 0.625737
vn 0.141901 -0.387071 -0.911065
vn 0.141901 -0.387071 -0.911065
vn 0.141901 -0.387071 -0.911065
vn 0.276656 -0.856529 -0.435684
vn 0.276656 -0.856529 -0.435684
vn 0.276656 -0.856529 -0.435684
vn 0.547718 -0.476218 -0.687911
vn 0.547718 -0.476218 -0.687911
vn 0.547718 -0.476218 -0.687911
vn 0.547718 -0.476218 -0.687911
vn -0.902215 -0.424584 0.075733
vn -0.902215 -0.424584 0.075733
vn -0.902216 -0.424584 0.075733
vn -0.902215 -0.424584 0.075733
vn -0.543767 -0.479214 0.688964
vn -0.543767 -0.479214 0.688964
vn -0.543767 -0.479214 0.688964
vn -0.543767 -0.479214 0.688964
vn 0.422497 0.791626 0.441390
vn 0.453061 0.796134 0.401132
vn 0.553887 0.795202 0.246705
vn 0.902221 -0.424390 -0.076752
vn 0.902221 -0.424390 -0.076752
vn 0.902221 -0.424390 -0.076752
vn 0.902221 -0.424390 -0.076752
vn 0.510437 -0.846100 0.153520
vn 0.510437 -0.846100 0.153520
vn 0.510437 -0.846101 0.153520
vn 0.510437 -0.846101 0.153520
vn -0.212008 0.815982 -0.537798
vn -0.212008 0.815982 -0.537798
vn -0.212008 0.815982 -0.537798
vn -0.131628 -0.386047 0.913040
vn -0.131628 -0.386046 0.913040
vn -0.131628 -0.386047 0.913040
vn -0.270656 -0.859535 0.433526
vn -0.270656 -0.859535 0.433526
vn -0.270656 -0.859535 0.433526
vn -0.504077 -0.849184 -0.157458
vn -0.504077 -0.849184 -0.157458
vn -0.504077 -0.849184 -0.157458
vn -0.504077 -0.849184 -0.157458
vn -0.631854 -0.448366 -0.632240
vn -0.631854 -0.448366 -0.632240
vn -0.631854 -0.448366 -0.632240
vn -0.631854 -0.448366 -0.632240
vn 0.153914 0.204030 -0.966790
vn 0.153914 0.204030 -0.966790
vn 0.153914 0.204030 -0.966790
vn 0.153914 0.204030 -0.966790
vn 0.744832 0.181676 -0.642042
vn 0.744833 0.181676 -0.642042
vn 0.744832 0.181676 -0.642042
vn 0.744833 0.181676 -0.642042
vn 0.973078 0.178514 -0.145779
vn 0.973078 0.178514 -0.145779
vn 0.973078 0.178514 -0.145779
vn 0.973078 0.178514 -0.145779
vn 0.646321 0.209507 0.733741
vn 0.646321 0.209507 0.733741
vn 0.646321 0.209507 0.733741
vn 0.646321 0.209507 0.733741
vn -0.142867 0.203631 0.968568
vn -0.142867 0.203631 0.968568
vn -0.142867 0.203631 0.968568
vn -0.142867 0.203631 0.968568
vn -0.745783 0.181570 0.640968
vn -0.745783 0.181570 0.640968
vn -0.745783 0.181570 0.640968
vn -0.745783 0.181570 0.640968
vn -0.973180 0.178609 0.144981
vn -0.973180 0.178609 0.144981
vn -0.973180 0.178609 0.144981
vn -0.973180 0.178609 0.144981
vn -0.640612 0.208974 -0.738881
vn -0.640612 0.208974 -0.738881
vn -0.640612 0.208974 -0.738881
vn -0.640612 0.208974 -0.738881
vn 0.648854 0.511213 -0.563605
vn 0.648854 0.511213 -0.563605
vn 0.648854 0.511213 -0.563605
vn 0.648854 0.511213 -0.563605
vn 0.136185 0.533351 -0.834860
vn 0.136185 0.533351 -0.834860
vn 0.136185 0.533351 -0.834860
vn 0.474440 0.814038 0.335035
vn 0.474440 0.814038 0.335035
vn 0.474440 0.814038 0.335035
vn 0.474440 0.814038 0.335035
vn 0.839220 0.527823 -0.130818
vn 0.839220 0.527823 -0.130818
vn 0.839220 0.527823 -0.130818
vn -0.297341 0.796581 -0.526353
vn -0.297341 0.796581 -0.526353
vn -0.297341 0.796581 -0.526353
vn -0.297341 0.796580 -0.526353
vn -0.745313 0.656618 0.115590
vn -0.745313 0.656618 0.115590
vn -0.745313 0.656618 0.115590
vn -0.068271 0.606596 0.792074
vn -0.068271 0.606596 0.792074
vn -0.068271 0.606596 0.792074
vn -0.068271 0.606596 0.792074
vn -0.629754 0.695060 0.346845
vn -0.629754 0.695060 0.346845
vn -0.629754 0.695060 0.346845
vn -0.629754 0.695060 0.346845
vn 0.173315 0.984841 0.007113
vn -0.142237 0.989104 0.037963
vn -0.231601 0.971711 0.046246
vn 0.405409 0.843595 -0.352124
vn 0.405409 0.843595 -0.352124
vn 0.405409 0.843595 -0.352124
vn -0.409147 0.760505 -0.504213
vn -0.409147 0.760505 -0.504213
vn -0.409147 0.760505 -0.504213
vn -0.473511 -0.862881 0.176702
vn -0.473511 -0.862881 0.176702
vn -0.473511 -0.862881 0.176702
vn -0.473511 -0.862881 0.176702
vn 0.308289 0.537375 0.784975
vn 0.308289 0.537375 0.784975
vn 0.308289 0.537375 0.784975
vn 0.119237 0.989745 -0.078662
vn 0.119237 0.989745 -0.078662
vn -0.041066 0.998842 0.025050
vn -0.014618 0.999862 0.007934
vn 0.613744 0.775950 -0.145672
vn 0.613744 0.775950 -0.145672
vn 0.613744 0.775950 -0.145672
vn -0.176165 -0.863367 -0.472824
vn -0.176165 -0.863367 -0.472824
vn -0.176165 -0.863367 -0.472824
vn -0.176165 -0.863367 -0.472824
vn -0.737065 0.648398 0.190563
vn -0.737065 0.648398 0.190563
vn -0.737065 0.648398 0.190563
vn 0.128644 0.968781 0.211929
vn 0.128644 0.968781 0.211929
vn 0.128644 0.968781 0.211929
vn 0.128644 0.968781 0.211929
vn 0.475999 -0.776201 -0.413444
vn 0.475999 -0.776201 -0.413444
vn 0.475999 -0.776201 -0.413444
vn -0.338002 0.568139 -0.750315
vn -0.338002 0.568139 -0.750315
vn -0.338002 0.568139 -0.750315
vn -0.264998 0.936375 0.230168
vn -0.264998 0.936375 0.230168
vn -0.264998 0.936375 0.230168
vn 0.617372 0.273904 0.737447
vn 0.617372 0.273904 0.737447
vn 0.617372 0.273904 0.737447
vn 0.300237 -0.944245 0.135125
vn 0.300237 -0.944245 0.135125
vn 0.300237 -0.944245 0.135125
vn -0.100465 0.990774 0.090965
vn -0.014370 0.983386 0.180956
vn -0.106114 0.984615 0.138828
vn 0.420987 0.837522 -0.348320
vn 0.420987 0.837522 -0.348320
vn 0.420987 0.837522 -0.348320
vn 0.001945 -0.879907 0.475142
vn 0.001945 -0.879907 0.475142
vn 0.001945 -0.879907 0.475142
vn 0.438940 0.863344 -0.248935
vn 0.438940 0.863344 -0.248935
vn 0.438940 0.863344 -0.248935
vn -0.800142 0.592371 0.094178
vn -0.800142 0.592371 0.094178
vn -0.800142 0.592371 0.094178
vn 0.422497 0.791626 0.441390
vn 0.357947 0.776442 0.518663
vn 0.453061 0.796134 0.401132
vn 0.145466 0.956881 0.251433
vn -0.014370 0.983386 0.180956
vn 0.268127 0.922501 0.277670
vn -0.106114 0.984615 0.138828
vn -0.014370 0.983386 0.180956
vn 0.145466 0.956881 0.251433
vn -0.041066 0.998842 0.025050
vn -0.411157 0.872282 0.264714
vn -0.014618 0.999862 0.007934
vn -0.231601 0.971711 0.046246
vn -0.142237 0.989104 0.037963
vn -0.474068 0.877890 0.067584
s off
f 19/1/1 20/2/2 1/3/3 2/4/4
f 15/5/5 16/6/6 17/7/7
f 14/8/8 15/5/9 11/9/10
f 17/7/11 18/10/12 11/9/13 15/5/14
f 7/11/15 8/12/16 22/13/17 23/14/18
f 21/15/19 22/13/20 8/12/21 1/3/22
f 30/42/23 41/31/24 31/41/25
f 2/4/26 11/9/27 18/10/28 19/1/29
f 1/3/30 14/8/31 11/9/32 2/4/33
f 32/40/34 30/42/35 29/47/36
f 1/3/37 20/2/38 21/15/39
f 8/12/40 14/8/41 1/3/42
f 7/11/43 15/5/44 14/8/45 8/12/46
f 23/14/47 16/6/48 15/5/49 7/11/50
f 17/7/51 16/6/52 12/16/53 6/17/54
f 10/18/55 18/10/56 17/7/57 6/17/58
f 19/1/59 18/10/60 10/18/61 4/19/62
f 13/20/63 20/2/64 19/1/65 4/19/66
f 21/15/67 20/2/68 13/20/69 3/21/70
f 9/22/71 22/13/72 21/15/73 3/21/74
f 23/14/75 22/13/76 9/22/77 5/24/78
f 5/24/79 12/16/80 16/6/81 23/14/82
f 10/18/83 6/17/84 24/25/85 26/26/86
f 6/17/87 12/16/88 24/25/89
f 13/20/90 4/19/91 26/26/92 25/27/93
f 4/19/94 10/18/95 26/26/96
f 12/16/97 5/24/98 27/28/99 24/25/100
f 5/24/101 9/22/102 27/28/103
f 3/21/104 13/20/105 25/27/106 28/29/107
f 9/22/108 3/21/109 28/29/110 27/28/111
f 34/38/112 42/30/113 32/40/114
f 29/47/115 30/42/116 31/41/117
f 32/40/118 27/45/119 34/38/120
f 27/45/121 28/46/122 35/37/123 34/38/124
f 28/46/125 33/39/126 35/37/127
f 34/38/128 35/37/129 33/39/130 42/30/131
f 29/47/132 24/23/133 36/36/134
f 24/23/135 27/45/136 37/35/137 36/36/138
f 27/45/139 32/40/140 37/35/141
f 32/40/142 29/47/143 36/36/144 37/35/145
f 26/44/146 24/23/147 38/34/148
f 24/23/149 29/47/150 38/34/151
f 29/47/152 31/41/153 38/34/154
f 31/41/155 26/44/156 38/34/157
f 25/43/158 26/44/159 39/33/160
f 31/41/161 41/31/162 39/33/163
f 26/44/164 31/41/165 39/33/166
f 28/46/167 25/43/168 40/32/169
f 25/43/170 33/39/171 40/32/172
f 33/39/173 28/46/174 40/32/175
f 30/42/176 33/39/177 41/31/178
f 25/43/179 41/31/180 33/39/181
f 39/33/182 41/31/183 25/43/184
f 33/39/185 30/42/186 42/30/187
f 32/40/188 42/30/189 30/42/190
