# This file uses centimeters as units for non-parametric coordinates.

v 88.317337 -23.134445 52.841488
v -28.561911 -23.134445 52.841488
v 88.317337 11.046585 52.841488
v -28.561911 11.046585 52.841488
v 88.317337 11.046585 50.433277
v -28.561911 11.046585 50.433277
v 88.317337 -23.134445 50.433277
v -28.561911 -23.134445 50.433277
v 31.296806 11.046585 52.841488
v 4.496460 11.046585 52.841488
v 19.825871 11.046585 51.520210
v 19.024889 6.947327 52.841488
v 55.203522 11.046585 52.841488
v 40.044502 11.046585 52.841488
v 49.955475 11.046585 51.364346
v 48.810135 8.386688 52.841488
v 88.317337 -10.744858 52.841488
v 88.317337 -6.748550 52.841488
v 88.317337 -7.265198 50.433277
v 88.317337 -10.109085 50.433277
v 85.780815 -9.150192 50.433277
v 82.964386 -8.963730 52.841488
v 75.470337 -23.134445 52.841488
v 53.325539 -23.134445 52.841488
v 64.668861 -20.729675 52.841488
v 64.456635 -23.134445 51.797024
v 37.729282 -23.134445 50.433277
v 17.762665 -23.134445 50.433277
v 28.137381 -23.134445 51.548191
v 28.243166 -20.630463 50.433277
vt 0.328068 0.476376
vt 0.391921 0.356185
vt 0.346249 0.346259
vt 0.016541 0.346259
vt 0.208142 0.470435
vt 0.487138 0.487356
vt 0.332680 0.487356
vt 0.211367 0.487356
vt 0.016541 0.487356
vt 0.245258 0.356595
vt 0.476925 0.403985
vt 0.487138 0.411766
vt 0.487138 0.346259
vt 0.391066 0.346259
vt 0.435411 0.346259
vt 0.487138 0.346259
vt 0.016541 0.346259
vt 0.016541 0.487356
vt 0.487138 0.400027
vt 0.487138 0.397402
vt 0.465585 0.404755
vt 0.257553 0.487356
vt 0.149646 0.487356
vt 0.353810 0.487356
vt 0.292774 0.487356
vt 0.487138 0.413899
vt 0.487138 0.487356
vt 0.283453 0.346259
vt 0.244832 0.346259
vt 0.203060 0.346259
vt 0.472224 0.364052
vt 0.472224 0.364052
vt 0.472226 0.364052
vt 0.472224 0.364052
vt 0.472224 0.364052
vt 0.472224 0.364052
vt 0.472225 0.364052
vt 0.472226 0.364052
vt 0.472224 0.364052
vt 0.472224 0.364052
vn -0.000000 0.000000 1.000000
vn -0.000000 0.000000 1.000000
vn -0.000000 0.000000 1.000000
vn -0.000000 0.000000 1.000000
vn -0.000000 0.000000 1.000000
vn 0.000000 1.000000 0.000001
vn 0.000000 1.000000 0.000001
vn 0.000000 1.000000 0.000001
vn 0.000000 1.000000 0.000001
vn 0.000000 0.000000 -1.000000
vn 0.000000 0.000000 -1.000000
vn 0.000000 0.000000 -1.000000
vn 0.000000 0.000000 -1.000000
vn 0.000000 0.000000 -1.000000
vn 0.000000 -1.000000 -0.000002
vn 0.000000 -1.000000 -0.000002
vn 0.000000 -1.000000 -0.000002
vn 0.000000 -1.000000 -0.000002
vn -1.000000 0.000000 0.000000
vn -1.000000 0.000000 0.000000
vn -1.000000 0.000000 0.000000
vn -1.000000 0.000000 0.000000
vn 0.315930 0.909672 0.269603
vn 0.315930 0.909672 0.269603
vn 0.315930 0.909672 0.269603
vn 0.315930 0.909672 0.269603
vn -0.108253 0.324075 0.939817
vn -0.108253 0.324075 0.939817
vn -0.108253 0.324075 0.939817
vn 0.082154 0.291165 0.953139
vn 0.082154 0.291165 0.953139
vn 0.082154 0.291165 0.953139
vn -0.227038 0.545714 0.806629
vn -0.227038 0.545713 0.806629
vn -0.227038 0.545713 0.806629
vn 0.132595 0.436964 0.889653
vn 0.132595 0.436964 0.889653
vn 0.132595 0.436964 0.889652
vn 1.000000 0.000000 0.000000
vn 1.000000 0.000000 0.000000
vn 1.000000 0.000000 0.000000
vn 1.000000 0.000000 0.000000
vn 1.000000 0.000000 0.000000
vn 1.000000 0.000000 0.000000
vn 1.000000 0.000000 0.000000
vn 1.000000 0.000000 0.000000
vn 0.428281 -0.824091 0.370742
vn 0.428281 -0.824091 0.370742
vn 0.428281 -0.824091 0.370742
vn 0.428281 -0.824091 0.370742
vn -0.086917 -0.390406 0.916531
vn -0.086917 -0.390406 0.916531
vn -0.086917 -0.390406 0.916531
vn 0.085490 -0.403257 0.911085
vn 0.085490 -0.403256 0.911085
vn 0.085490 -0.403257 0.911085
vn -0.105781 -0.400743 -0.910063
vn -0.105781 -0.400743 -0.910064
vn -0.105781 -0.400743 -0.910064
vn 0.097540 -0.408254 -0.907642
vn 0.097540 -0.408254 -0.907642
vn 0.097540 -0.408254 -0.907642
vn 0.000000 0.000000 1.000000
vn 0.000000 0.000000 1.000000
vn 0.000000 0.000000 1.000000
vn 0.000000 0.000000 1.000000
vn 0.000000 0.000000 1.000000
vn 0.000000 0.000000 1.000000
vn 0.000000 0.000000 1.000000
vn 0.000000 0.000000 1.000000
vn 0.000000 0.000000 1.000000
vn 0.000000 0.000000 1.000000
vn 0.000000 0.000000 1.000000
vn 0.000000 0.000000 1.000000
vn 0.000000 0.000000 1.000000
vn 0.000000 0.000000 1.000000
vn 0.000000 0.000000 1.000000
vn 0.000000 0.000000 1.000000
vn 0.000000 0.000000 1.000000
vn 0.000000 0.000000 1.000000
vn 0.000000 0.000000 1.000000
vn 0.000000 0.000000 1.000000
vn 0.000000 0.000000 1.000000
vn 0.000000 -1.000000 -0.000002
vn 0.000000 -1.000000 -0.000002
vn 0.000000 -1.000000 -0.000002
vn 0.000000 -1.000000 -0.000002
vn 0.000000 -1.000000 0.000000
vn 0.000000 -1.000000 0.000000
vn 0.000000 -1.000000 0.000000
vn 0.000000 -1.000000 0.000000
vn 0.000000 -1.000000 0.000000
vn 0.000000 -1.000000 0.000000
vn 0.000000 -1.000000 0.000000
vn 0.000000 -1.000000 0.000000
vn 0.000000 0.000000 -1.000000
vn 0.000000 0.000000 -1.000000
vn 0.000000 0.000000 -1.000000
vn 0.000000 0.000000 -1.000000
vn 0.000000 0.000000 -1.000000
vn 0.000000 0.000000 -1.000000
vn 0.000000 0.000000 -1.000000
vn 0.000000 0.000000 -1.000000
vn 0.000000 0.000000 -1.000000
vn 0.000000 1.000000 0.000000
vn 0.000000 1.000000 0.000000
vn 0.000000 1.000000 0.000000
vn 0.000000 1.000000 0.000000
vn 0.000000 1.000000 0.000000
vn 0.000000 1.000000 0.000000
vn 0.000000 1.000000 0.000000
vn 0.000000 1.000000 0.000000
vn 0.000000 1.000000 -0.000001
vn 0.000000 1.000000 -0.000001
vn 0.000000 1.000000 -0.000001
vn 0.000000 1.000000 -0.000001
s off
f 16/1/1 12/5/2 2/4/3 24/3/4 25/2/5
f 5/6/6 6/9/7 11/8/8 15/7/9
f 5/31/10 19/35/11 21/34/12 30/33/13 6/32/14
f 7/13/15 1/16/16 23/15/17 26/14/18
f 2/4/19 4/18/20 6/9/21 8/17/22
f 20/19/23 21/11/24 22/21/25 17/20/26
f 9/22/27 11/8/28 12/5/29
f 11/8/30 10/23/31 12/5/32
f 13/24/33 15/7/34 16/1/35
f 15/7/36 14/25/37 16/1/38
f 19/12/39 5/6/40 3/27/41 18/26/42
f 7/13/43 20/19/44 17/20/45 1/16/46
f 21/11/47 19/12/48 18/26/49 22/21/50
f 26/14/51 23/15/52 25/2/53
f 24/3/54 26/14/55 25/2/56
f 27/28/57 29/29/58 30/10/59
f 29/29/60 28/30/61 30/10/62
f 12/5/63 10/23/64 4/18/65 2/4/66
f 16/1/67 14/25/68 9/22/69 12/5/70
f 1/16/71 17/20/72 22/21/73 25/2/74 23/15/75
f 22/21/76 18/26/77 3/27/78 13/24/79
f 22/21/80 13/24/81 16/1/82 25/2/83
f 26/14/84 24/3/85 2/4/86 29/29/87
f 7/13/88 26/14/89 29/29/90 27/28/91
f 2/4/92 8/17/93 28/30/94 29/29/95
f 30/33/96 28/37/97 8/36/98 6/32/99
f 21/34/100 20/40/101 7/39/102 27/38/103 30/33/104
f 3/27/105 5/6/106 15/7/107 13/24/108
f 11/8/109 9/22/110 14/25/111 15/7/112
f 6/9/113 4/18/114 10/23/115 11/8/116
