# This file uses centimeters as units for non-parametric coordinates.

v 0.723694 31.201277 0.332581
v 0.267212 32.701721 2.444458
v -1.215576 32.701721 -0.619873
v -1.672058 31.201277 1.491943
v 2.033875 37.408623 -0.810608
v 1.208923 38.226990 1.402527
v 1.081360 39.171001 -1.338257
v -3.019714 37.654793 2.909424
v -3.533264 38.124733 1.260559
v -3.420044 36.093021 1.542297
v 5.795593 41.286167 -1.825989
v 5.313721 41.533600 -0.794373
v 5.124084 41.935120 -2.071960
v -13.222839 33.784126 -1.821533
v -12.382385 34.271111 -2.674377
v -12.575562 33.277584 -3.014282
v -4.706665 37.571133 2.765015
v -6.237793 41.858219 9.586853
v -6.795654 42.798798 9.002869
v -7.396057 41.676743 9.292175
v -2.716797 8.463430 1.416199
v -1.213013 8.390193 -2.907654
v 1.607178 8.134412 2.919983
v 3.111023 8.215228 -1.403931
v -1.617432 20.514837 0.777527
v 0.505859 20.696836 1.515991
v 1.183777 22.014866 -0.432861
v -0.939575 22.054708 -1.171326
v -1.592651 22.546467 0.706299
v 0.530701 22.627800 1.444763
v 1.208557 24.154676 -0.504089
v -0.914795 24.076212 -1.242676
v -1.110779 24.725288 4.797607
v -1.405334 25.792620 3.747803
v -0.346436 26.107649 4.496216
v -1.715210 31.153313 -4.159485
v -0.721924 32.571690 -3.453003
v -2.609863 32.389187 -3.121521
v -4.845093 35.597130 -9.914734
v -4.466309 36.542255 -10.100464
v -5.223877 36.500553 -9.729065
v 17.814941 42.223610 -2.836243
v 3.808716 41.169880 -7.003967
v 5.115051 40.853085 4.255737
v 4.206970 42.386826 -1.330017
v 11.673645 42.095615 3.545044
v 10.777832 43.562496 -2.042786
v 10.367310 42.412491 -7.714722
v -13.080078 41.137508 18.852661
v -0.847107 42.845047 10.774475
v -10.670654 41.577400 4.498474
v -6.060181 43.535927 7.550049
v -14.470581 41.653603 10.066589
v -9.845459 43.547768 13.122437
v -4.647156 42.921261 16.342529
v -24.138611 32.734673 -6.491028
v -13.578308 32.277321 3.653992
v -9.662109 34.695415 -6.709412
v -11.684753 34.847328 -1.208252
v -15.951172 34.949398 -9.043396
v -17.970520 35.035168 -3.557617
v -19.867432 32.531322 1.320251
vt 0.145344 0.301145
vt 0.145344 0.301145
vt 0.145344 0.301145
vt 0.145344 0.301145
vt 0.145344 0.301145
vt 0.145344 0.301145
vt 0.145344 0.301145
vt 0.145344 0.301145
vt 0.145344 0.301145
vt 0.145344 0.301145
vt 0.145344 0.301145
vt 0.145344 0.301145
vt 0.145344 0.301145
vt 0.145344 0.301145
vt 0.145344 0.301145
vt 0.145344 0.301145
vt 0.145344 0.301145
vt 0.145344 0.301145
vt 0.145344 0.301145
vt 0.145344 0.301145
vt 0.145344 0.301145
vt 0.145344 0.301145
vt 0.145344 0.301145
vt 0.145344 0.301145
vt 0.145344 0.301145
vt 0.145344 0.301145
vt 0.145344 0.301145
vt 0.145344 0.301145
vt 0.145344 0.301145
vt 0.145344 0.301145
vt 0.145344 0.301145
vt 0.145344 0.301145
vt 0.145344 0.301145
vt 0.145344 0.301145
vt 0.145344 0.301145
vt 0.145344 0.301145
vt 0.145344 0.301145
vt 0.145344 0.301145
vt 0.145344 0.301145
vt 0.145344 0.301145
vt 0.145344 0.301145
vt 0.145344 0.301145
vt 0.145344 0.301145
vt 0.145344 0.301145
vt 0.145344 0.301145
vt 0.145344 0.301145
vt 0.145344 0.301145
vt 0.145344 0.301145
vt 0.145344 0.301145
vt 0.412400 0.370757
vt 0.384294 0.405325
vt 0.412536 0.405325
vt 0.440778 0.405325
vt 0.412536 0.456891
vt 0.440778 0.456891
vt 0.384294 0.456891
vt 0.512604 0.367315
vt 0.484498 0.401883
vt 0.512740 0.401883
vt 0.540981 0.401883
vt 0.512740 0.453449
vt 0.540981 0.453449
vt 0.484498 0.453449
vt 0.412400 0.370757
vt 0.384294 0.405325
vt 0.412536 0.405325
vt 0.440778 0.405325
vt 0.412536 0.456891
vt 0.440778 0.456891
vt 0.384294 0.456891
vn 0.663112 0.736597 0.133071
vn 0.663112 0.736597 0.133071
vn 0.663112 0.736597 0.133071
vn -0.759645 0.337820 -0.555713
vn -0.759645 0.337820 -0.555713
vn -0.759645 0.337820 -0.555713
vn 0.933646 -0.116088 0.338864
vn 0.933646 -0.116088 0.338864
vn 0.933646 -0.116088 0.338864
vn 0.933646 -0.116088 0.338864
vn -0.909212 0.289419 0.299282
vn -0.909212 0.289419 0.299282
vn -0.909212 0.289419 0.299282
vn -0.909212 0.289419 0.299282
vn 0.247839 -0.209428 -0.945894
vn 0.247839 -0.209428 -0.945894
vn 0.247839 -0.209428 -0.945894
vn 0.247839 -0.209428 -0.945894
vn 0.811788 0.504830 -0.293508
vn 0.811788 0.504830 -0.293508
vn 0.811788 0.504830 -0.293508
vn 0.811788 0.504830 -0.293508
vn -0.464294 -0.281411 0.839785
vn -0.464294 -0.281411 0.839785
vn -0.464294 -0.281411 0.839785
vn -0.464294 -0.281411 0.839785
vn -0.843464 -0.242760 -0.479203
vn -0.843464 -0.242760 -0.479203
vn -0.843464 -0.242760 -0.479203
vn -0.843464 -0.242760 -0.479203
vn 0.693656 -0.553354 0.461129
vn 0.693656 -0.553354 0.461129
vn 0.693656 -0.553354 0.461129
vn 0.693656 -0.553354 0.461129
vn -0.493411 0.812315 0.310950
vn -0.493411 0.812315 0.310950
vn -0.493411 0.812315 0.310950
vn -0.493411 0.812315 0.310950
vn 0.029769 -0.287120 -0.957432
vn 0.029769 -0.287120 -0.957432
vn 0.029769 -0.287120 -0.957432
vn 0.029769 -0.287120 -0.957432
vn -0.419526 0.906777 0.041878
vn -0.419526 0.906777 0.041878
vn -0.419526 0.906777 0.041878
vn -0.419526 0.906777 0.041878
vn -0.028771 -0.776649 0.629276
vn -0.028524 -0.783412 0.620848
vn -0.028524 -0.783412 0.620848
vn -0.028715 -0.778179 0.627386
vn 0.424685 0.006183 -0.905320
vn 0.424685 0.006183 -0.905320
vn 0.424685 0.006183 -0.905320
vn 0.424685 0.006183 -0.905320
vn -0.283488 0.378838 0.880975
vn -0.283488 0.378838 0.880975
vn -0.283488 0.378838 0.880975
vn -0.032314 -0.653617 0.756135
vn -0.028771 -0.776649 0.629276
vn -0.028715 -0.778179 0.627386
vn 0.801907 0.597403 -0.007401
vn 0.801907 0.597403 -0.007401
vn 0.801907 0.597403 -0.007401
vn 0.801907 0.597403 -0.007401
vn -0.003108 -0.846998 0.531586
vn -0.003108 -0.846998 0.531586
vn -0.003108 -0.846998 0.531586
vn -0.003108 -0.846998 0.531586
vn -0.802933 0.296300 -0.517208
vn -0.802933 0.296300 -0.517208
vn -0.802933 0.296300 -0.517208
vn -0.802933 0.296300 -0.517208
vn -0.325889 0.078163 0.942171
vn -0.325889 0.078163 0.942172
vn -0.325889 0.078163 0.942172
vn -0.325889 0.078163 0.942171
vn 0.930432 0.112618 0.348732
vn 0.961180 0.091083 0.260456
vn 0.928831 0.097536 0.357434
vn 0.930432 0.112618 0.348732
vn 0.329729 0.112261 -0.937377
vn 0.330049 0.036695 -0.943250
vn 0.330153 0.061600 -0.941915
vn 0.329729 0.112261 -0.937377
vn -0.949266 0.045880 -0.311109
vn -0.947117 0.063982 -0.314446
vn -0.947117 0.063982 -0.314446
vn -0.955142 0.057436 -0.290525
vn 0.961180 0.091083 0.260456
vn 0.923846 -0.054773 0.378825
vn 0.928831 0.097536 0.357434
vn -0.949266 0.045880 -0.311109
vn -0.955142 0.057436 -0.290525
vn -0.994323 -0.015704 -0.105236
vn 0.961180 0.091083 0.260456
vn 0.976517 -0.032781 -0.212931
vn 0.923846 -0.054773 0.378825
vn -0.440199 -0.000030 -0.897900
vn -0.440199 -0.000030 -0.897900
vn -0.440199 -0.000030 -0.897900
vn -0.965814 -0.070276 -0.249527
vn -0.949266 0.045880 -0.311109
vn -0.994323 -0.015704 -0.105236
vn -0.350695 -0.095230 0.931635
vn -0.350695 -0.095230 0.931635
vn -0.350695 -0.095230 0.931635
vn -0.350695 -0.095230 0.931635
vn 0.976517 -0.032781 -0.212931
vn 0.963021 0.013231 0.269100
vn 0.963021 0.013231 0.269100
vn 0.923846 -0.054773 0.378825
vn 0.413248 0.104953 -0.904550
vn 0.413248 0.104953 -0.904550
vn 0.413248 0.104953 -0.904550
vn 0.413248 0.104953 -0.904550
vn -0.963263 0.000696 -0.268558
vn -0.965814 -0.070276 -0.249527
vn -0.994323 -0.015704 -0.105236
vn -0.963263 0.000696 -0.268558
vn -0.193777 -0.665179 0.721101
vn -0.193777 -0.665179 0.721101
vn -0.193777 -0.665179 0.721101
vn -0.955142 0.057436 -0.290525
vn -0.989988 -0.036895 0.136248
vn -0.989988 -0.036895 0.136248
vn -0.994323 -0.015704 -0.105236
vn 0.246866 0.664375 -0.705453
vn 0.246866 0.664375 -0.705453
vn 0.246866 0.664375 -0.705453
vn 0.246866 0.664375 -0.705453
vn 0.923846 -0.054773 0.378825
vn 0.849653 -0.145367 0.506911
vn 0.849653 -0.145367 0.506911
vn 0.928831 0.097536 0.357434
vn 0.330049 0.036695 -0.943250
vn 0.311495 -0.272426 -0.910360
vn 0.330153 0.061600 -0.941915
vn 0.961180 0.091083 0.260456
vn 0.723420 -0.171097 -0.668871
vn 0.727201 -0.195234 -0.658075
vn 0.976517 -0.032781 -0.212931
vn -0.113948 0.252576 0.960844
vn -0.113948 0.252576 0.960844
vn -0.113948 0.252576 0.960844
vn -0.113948 0.252576 0.960844
vn -0.965814 -0.070276 -0.249527
vn -0.901208 -0.431280 -0.042676
vn -0.929619 -0.354860 -0.099414
vn -0.949266 0.045880 -0.311109
vn 0.723420 -0.171097 -0.668871
vn 0.737341 -0.294047 -0.608166
vn 0.737341 -0.294047 -0.608166
vn 0.727201 -0.195234 -0.658075
vn 0.059245 0.864687 0.498804
vn 0.059245 0.864687 0.498804
vn 0.059245 0.864687 0.498804
vn 0.059245 0.864687 0.498804
vn -0.901208 -0.431280 -0.042676
vn -0.850663 -0.524731 0.032108
vn -0.850663 -0.524731 0.032108
vn -0.929619 -0.354860 -0.099414
vn 0.160245 0.965071 -0.207269
vn 0.160245 0.965071 -0.207269
vn 0.160245 0.965071 -0.207269
vn 0.206040 0.954082 0.217426
vn 0.206040 0.954082 0.217426
vn 0.206040 0.954083 0.217426
vn -0.144705 0.949516 0.278351
vn -0.144705 0.949516 0.278351
vn -0.144705 0.949516 0.278351
vn -0.144705 0.949516 0.278351
vn -0.197496 0.962363 -0.186688
vn -0.197496 0.962363 -0.186688
vn -0.197496 0.962363 -0.186688
vn -0.197496 0.962363 -0.186688
vn -0.097096 0.935828 0.338820
vn -0.097096 0.935828 0.338820
vn -0.097096 0.935828 0.338820
vn -0.444348 0.887446 0.122453
vn -0.444348 0.887446 0.122453
vn -0.444348 0.887446 0.122453
vn -0.268250 0.944406 -0.190106
vn -0.268250 0.944406 -0.190106
vn -0.268250 0.944406 -0.190106
vn -0.268250 0.944406 -0.190106
vn 0.091928 0.994260 0.054733
vn 0.091928 0.994260 0.054733
vn 0.091928 0.994260 0.054733
vn 0.091928 0.994260 0.054733
vn -0.445284 0.855047 0.265738
vn -0.445284 0.855047 0.265738
vn -0.445284 0.855047 0.265738
vn -0.294767 0.947578 -0.123320
vn -0.294767 0.947578 -0.123320
vn -0.294767 0.947578 -0.123320
vn 0.037959 0.999250 -0.007652
vn 0.037959 0.999250 -0.007652
vn 0.037959 0.999250 -0.007652
vn 0.037959 0.999250 -0.007652
vn -0.124742 0.899016 0.419774
vn -0.124742 0.899016 0.419774
vn -0.124742 0.899016 0.419774
vn -0.124742 0.899016 0.419774
vn -0.598164 0.471948 0.647661
vn -0.598164 0.471948 0.647661
vn -0.598164 0.471948 0.647661
s off
f 11/13/1 13/15/2 12/14/3
f 15/16/4 16/18/5 14/17/6
f 1/1/7 5/7/8 6/8/9 2/2/10
f 2/2/11 6/8/12 7/9/13 3/3/14
f 3/3/15 7/9/16 5/7/17 1/1/18
f 3/3/19 9/10/20 8/11/21 2/2/22
f 2/2/23 8/11/24 10/12/25 4/4/26
f 4/4/27 10/12/28 9/10/29 3/3/30
f 5/7/31 11/13/32 12/14/33 6/8/34
f 6/8/35 12/14/36 13/15/37 7/9/38
f 7/9/39 13/15/40 11/13/41 5/7/42
f 9/10/43 15/16/44 14/17/45 17/19/46
f 17/19/47 14/17/48 16/18/49 10/12/50
f 10/12/51 16/18/52 15/16/53 9/10/54
f 19/20/55 20/22/56 18/21/57
f 8/11/58 17/19/59 10/12/60
f 9/10/61 19/20/62 18/21/63 8/11/64
f 8/11/65 18/21/66 20/22/67 17/19/68
f 17/19/69 20/22/70 19/20/71 9/10/72
f 23/27/73 26/31/74 25/30/75 21/24/76
f 24/28/77 27/32/78 26/31/79 23/27/80
f 22/25/81 28/33/82 27/32/83 24/28/84
f 28/34/85 22/26/86 21/23/87 25/29/88
f 27/32/89 30/37/90 26/31/91
f 28/34/92 25/29/93 29/35/94
f 27/32/95 31/38/96 30/37/97
f 39/47/98 41/49/99 40/48/100
f 32/40/101 28/34/102 29/35/103
f 30/37/104 2/2/105 4/5/106 29/36/107
f 31/38/108 1/1/109 2/2/110 30/37/111
f 32/39/112 3/6/113 1/1/114 31/38/115
f 3/3/116 32/40/117 29/35/118 4/4/119
f 26/31/120 33/41/121 25/30/122
f 25/30/123 33/41/124 34/42/125 29/36/126
f 29/36/127 34/42/128 35/43/129 30/37/130
f 30/37/131 35/43/132 33/41/133 26/31/134
f 28/33/135 36/44/136 27/32/137
f 27/32/138 36/44/139 37/45/140 31/38/141
f 31/38/142 37/45/143 38/46/144 32/39/145
f 32/39/146 38/46/147 36/44/148 28/33/149
f 36/44/150 39/47/151 40/48/152 37/45/153
f 37/45/154 40/48/155 41/49/156 38/46/157
f 38/46/158 41/49/159 39/47/160 36/44/161
f 42/50/162 48/51/163 47/52/164
f 42/50/165 47/52/166 46/53/167
f 47/52/168 45/54/169 44/55/170 46/53/171
f 48/51/172 43/56/173 45/54/174 47/52/175
f 49/57/176 55/58/177 54/59/178
f 49/57/179 54/59/180 53/60/181
f 54/59/182 52/61/183 51/62/184 53/60/185
f 55/58/186 50/63/187 52/61/188 54/59/189
f 56/64/190 62/65/191 61/66/192
f 56/64/193 61/66/194 60/67/195
f 61/66/196 59/68/197 58/69/198 60/67/199
f 62/65/200 57/70/201 59/68/202 61/66/203
f 33/41/204 35/43/205 34/42/206
