# This file uses centimeters as units for non-parametric coordinates.

v 2.169478 -25.223646 1.252482
v 2.169478 -25.223646 -1.252615
v 0.000000 -25.223646 -2.505186
v -2.169389 -25.223646 -1.252615
v -2.169389 -25.223646 1.252482
v 0.000000 -25.223646 2.505053
v 2.527318 9.683804 1.459099
v 2.527318 9.683804 -1.459232
v 0.000000 9.683804 -2.918331
v -2.527318 9.683804 -1.459232
v -2.527318 9.683804 1.459099
v 0.000000 9.683804 2.918198
v -4.023709 7.490042 -2.323210
v -4.023709 7.490042 2.323076
v 0.000000 7.490042 4.646194
v 4.023709 7.490042 2.323076
v 4.023709 7.490042 -2.323210
v 0.000000 7.490042 -4.646328
v 0.000000 -27.499512 -0.000045
v 1.160172 9.683804 1.388163
v 1.634501 9.683804 -0.932181
v -0.854343 9.683804 -1.559513
v -1.328761 9.683804 0.760876
v -1.328761 11.737097 0.760876
v 1.160172 12.554260 1.388163
v 1.634501 11.737097 -0.932181
v -0.854343 12.554261 -1.559513
v 1.659170 21.769310 0.822327
v -0.687139 21.697317 -2.717472
v 2.721275 23.743116 -1.854102
v -2.660681 19.247509 0.679615
v 0.214926 16.748684 1.447918
v -1.799346 16.733257 -1.656572
v -0.867707 19.835560 -0.560063
v -0.016476 17.743105 -0.193303
v 0.610032 24.288813 -1.077089
v -5.280848 24.095781 -4.102984
v -6.413830 25.275930 -2.011530
v -4.977855 27.094204 -3.403961
v -4.259022 37.164757 5.972751
v -1.367896 37.021297 6.022573
v -2.703474 37.890049 5.115518
v 5.739822 36.841419 -0.256739
v 3.573578 36.867680 0.812506
v 4.569541 36.020554 1.936874
v 4.612382 33.352554 -5.648343
v 2.418113 33.027374 -7.415648
v 2.920681 34.296970 -5.431276
v 4.565765 -0.709603 2.536676
v 0.636394 -0.709603 4.805328
v -3.292943 -0.709603 2.536676
v -3.292943 -0.709603 -2.000653
v 0.636394 -0.709603 -4.269306
v 4.565765 -0.709603 -2.000653
v -0.253663 -12.768920 -3.938924
v -3.501971 -12.768920 -2.063437
v -3.501971 -12.768920 1.687513
v -0.253663 -12.768920 3.562999
v 2.994725 -12.768920 1.687512
v 2.994725 -12.768920 -2.063437
vt 0.045537 0.167571
vt 0.045537 0.167571
vt 0.045537 0.167571
vt 0.045537 0.167571
vt 0.042534 0.167068
vt 0.045537 0.167571
vt 0.042534 0.167068
vt 0.045537 0.167571
vt 0.045537 0.166218
vt 0.045537 0.167571
vt 0.042534 0.166218
vt 0.045537 0.167571
vt 0.045537 0.164865
vt 0.042534 0.165368
vt 0.045537 0.164865
vt 0.042534 0.165368
vt 0.045537 0.166218
vt 0.042534 0.166218
vt 0.073264 0.165041
vt 0.073264 0.165041
vt 0.056759 0.165111
vt 0.056759 0.165111
vt 0.073264 0.166133
vt 0.056759 0.166432
vt 0.073264 0.167225
vt 0.056759 0.167753
vt 0.073264 0.167225
vt 0.056759 0.167753
vt 0.073264 0.166133
vt 0.056759 0.166432
vt 0.090310 0.166947
vt 0.045537 0.167571
vt 0.045537 0.167571
vt 0.045537 0.167571
vt 0.143746 0.300288
vt 0.143746 0.300288
vt 0.143746 0.300288
vt 0.143746 0.300288
vt 0.143746 0.300288
vt 0.143746 0.300288
vt 0.143746 0.300288
vt 0.143746 0.300288
vt 0.143746 0.300289
vt 0.143746 0.300289
vt 0.143746 0.300289
vt 0.143746 0.300289
vt 0.143746 0.300289
vt 0.143746 0.300289
vt 0.143746 0.300289
vt 0.143746 0.300289
vt 0.143746 0.300289
vt 0.143746 0.300289
vt 0.143746 0.300289
vt 0.143746 0.300289
vt 0.143746 0.300289
vt 0.143746 0.300289
vt 0.143746 0.300289
vt 0.143746 0.300289
vt 0.143746 0.300289
vt 0.143746 0.300289
vt 0.143746 0.300289
vt 0.143746 0.300289
vt 0.143746 0.300289
vt 0.090310 0.166218
vt 0.090310 0.165489
vt 0.090310 0.165489
vt 0.090310 0.166218
vt 0.093425 0.166218
vt 0.090310 0.166947
vt 0.045537 0.167571
vn 0.872365 0.488855 0.000000
vn 0.872365 0.488855 0.000000
vn 0.872365 0.488855 0.000000
vn 0.872365 0.488855 0.000000
vn 0.436174 0.488876 -0.755481
vn 0.436174 0.488876 -0.755481
vn 0.436174 0.488876 -0.755481
vn 0.436174 0.488876 -0.755481
vn -0.436174 0.488876 -0.755481
vn -0.436174 0.488876 -0.755481
vn -0.436174 0.488876 -0.755481
vn -0.436174 0.488876 -0.755481
vn -0.872365 0.488855 0.000000
vn -0.872365 0.488855 0.000000
vn -0.872365 0.488855 0.000000
vn -0.872365 0.488855 0.000000
vn -0.436174 0.488876 0.755481
vn -0.436174 0.488876 0.755481
vn -0.436174 0.488876 0.755481
vn -0.436174 0.488876 0.755481
vn 0.436174 0.488876 0.755481
vn 0.436174 0.488876 0.755481
vn 0.436174 0.488876 0.755481
vn 0.436174 0.488876 0.755481
vn -0.999354 -0.035925 0.000000
vn -0.999384 -0.035093 0.000000
vn -0.999575 -0.029157 0.000000
vn -0.999581 -0.028953 0.000000
vn -0.498930 -0.065814 0.864140
vn -0.498947 -0.065279 0.864170
vn -0.499627 -0.039067 0.865359
vn -0.499627 -0.039078 0.865359
vn 0.497568 -0.098631 0.861800
vn 0.497536 -0.099271 0.861744
vn 0.499452 -0.047015 0.865065
vn 0.499459 -0.046730 0.865076
vn 0.994710 -0.102720 0.000000
vn 0.994753 -0.102304 0.000000
vn 0.998995 -0.044819 0.000000
vn 0.999011 -0.044466 0.000000
vn 0.498691 -0.072480 -0.863744
vn 0.498673 -0.072970 -0.863713
vn 0.499705 -0.034638 -0.865503
vn 0.499705 -0.034617 -0.865503
vn -0.499644 -0.038478 -0.865376
vn -0.499619 -0.039766 -0.865332
vn -0.499828 -0.026890 -0.865707
vn -0.499830 -0.026758 -0.865710
vn 0.849248 -0.527994 0.000000
vn 0.849248 -0.527994 0.000000
vn 0.849248 -0.527994 0.000000
vn 0.424628 -0.527999 -0.735464
vn 0.424628 -0.527999 -0.735464
vn 0.424628 -0.527999 -0.735464
vn -0.424642 -0.527995 -0.735459
vn -0.424642 -0.527995 -0.735459
vn -0.424642 -0.527995 -0.735459
vn -0.849258 -0.527979 0.000000
vn -0.849258 -0.527979 0.000000
vn -0.849258 -0.527979 0.000000
vn -0.424644 -0.527989 0.735463
vn -0.424644 -0.527989 0.735463
vn -0.424644 -0.527989 0.735463
vn 0.424630 -0.527992 0.735468
vn 0.424630 -0.527992 0.735468
vn 0.424630 -0.527992 0.735468
vn 0.000000 1.000000 0.000000
vn 0.000000 1.000000 0.000000
vn 0.000000 1.000000 0.000000
vn 0.000000 1.000000 0.000000
vn 0.000000 1.000000 0.000001
vn 0.000000 1.000000 0.000001
vn 0.000000 1.000000 0.000001
vn 0.000000 1.000000 0.000001
vn 0.000000 1.000000 0.000001
vn 0.000000 1.000000 0.000001
vn 0.000000 1.000000 0.000001
vn 0.000000 1.000000 0.000000
vn 0.000000 1.000000 0.000000
vn 0.000000 1.000000 0.000000
vn 0.000000 1.000000 0.000000
vn 0.000000 1.000000 -0.000000
vn 0.000000 1.000000 -0.000000
vn 0.000000 1.000000 -0.000000
vn 0.000000 1.000000 -0.000000
vn 0.000000 1.000000 -0.000001
vn 0.000000 1.000000 -0.000001
vn 0.000000 1.000000 -0.000001
vn -0.244388 0.000000 0.969678
vn -0.244388 0.000000 0.969678
vn -0.244388 0.000000 0.969678
vn -0.244388 0.000000 0.969678
vn 0.979739 0.000000 0.200280
vn 0.979739 0.000000 0.200280
vn 0.979739 0.000000 0.200280
vn 0.979739 0.000000 0.200280
vn 0.244413 0.000000 -0.969671
vn 0.244413 0.000000 -0.969671
vn 0.244413 0.000000 -0.969671
vn 0.244413 0.000000 -0.969671
vn -0.979732 0.000000 -0.200312
vn -0.979732 0.000000 -0.200312
vn -0.979732 0.000000 -0.200312
vn -0.979732 0.000000 -0.200312
vn -0.899938 0.086190 0.427414
vn -0.899938 0.086190 0.427414
vn -0.899938 0.086190 0.427414
vn -0.899938 0.086190 0.427414
vn 0.959955 -0.048916 0.275850
vn 0.959955 -0.048916 0.275850
vn 0.959955 -0.048916 0.275850
vn 0.959955 -0.048916 0.275850
vn 0.277213 -0.103029 -0.955269
vn 0.277213 -0.103029 -0.955269
vn 0.277213 -0.103029 -0.955269
vn 0.277213 -0.103029 -0.955269
vn -0.190106 -0.003913 0.981756
vn -0.190106 -0.003913 0.981756
vn -0.190106 -0.003913 0.981756
vn -0.190106 -0.003913 0.981756
vn 0.694867 0.085608 -0.714025
vn 0.694867 0.085608 -0.714025
vn 0.694867 0.085608 -0.714025
vn 0.694867 0.085608 -0.714025
vn -0.963577 -0.160598 -0.213842
vn -0.963576 -0.160598 -0.213842
vn -0.963577 -0.160598 -0.213842
vn -0.963577 -0.160598 -0.213842
vn 0.873475 0.099819 -0.476527
vn 0.873475 0.099819 -0.476527
vn 0.873475 0.099819 -0.476527
vn 0.873475 0.099819 -0.476527
vn -0.732928 0.097430 0.673294
vn -0.732928 0.097430 0.673294
vn -0.732928 0.097430 0.673294
vn -0.732928 0.097430 0.673294
vn -0.875264 -0.483528 -0.010650
vn -0.875264 -0.483528 -0.010650
vn -0.875264 -0.483528 -0.010650
vn -0.875264 -0.483528 -0.010650
vn 0.296016 0.516191 0.803692
vn 0.296016 0.516191 0.803693
vn 0.296016 0.516191 0.803692
vn 0.296016 0.516191 0.803693
vn 0.678625 0.097580 -0.727974
vn 0.678625 0.097580 -0.727974
vn 0.678625 0.097580 -0.727974
vn 0.678625 0.097580 -0.727974
vn -0.193058 -0.269562 0.943433
vn -0.193058 -0.269562 0.943433
vn -0.193058 -0.269562 0.943433
vn -0.193058 -0.269562 0.943433
vn 0.800612 0.234500 -0.551390
vn 0.800612 0.234500 -0.551390
vn 0.800612 0.234500 -0.551390
vn 0.800612 0.234500 -0.551390
vn -0.580140 0.185460 -0.793122
vn -0.580140 0.185460 -0.793122
vn -0.580140 0.185460 -0.793122
vn -0.580140 0.185460 -0.793122
vn -0.334476 0.196918 -0.921601
vn -0.334476 0.196918 -0.921601
vn -0.334476 0.196918 -0.921601
vn -0.334476 0.196918 -0.921601
vn -0.790043 0.111786 0.602773
vn -0.790043 0.111786 0.602773
vn -0.790043 0.111786 0.602773
vn -0.790043 0.111786 0.602773
vn 0.927907 -0.230230 0.293227
vn 0.927907 -0.230230 0.293227
vn 0.927907 -0.230230 0.293227
vn 0.927907 -0.230230 0.293227
vn 0.525751 -0.424430 -0.737188
vn 0.525751 -0.424430 -0.737188
vn 0.525751 -0.424430 -0.737188
vn 0.525751 -0.424430 -0.737188
vn -0.941908 0.301803 0.147396
vn -0.941907 0.301803 0.147396
vn -0.941908 0.301803 0.147396
vn -0.941908 0.301803 0.147396
vn 0.369228 0.283348 0.885090
vn 0.369228 0.283348 0.885090
vn 0.369228 0.283348 0.885090
vn 0.369228 0.283348 0.885090
vn 0.499459 -0.046730 0.865076
vn 0.499452 -0.047015 0.865065
vn 0.499510 -0.044514 0.865164
vn 0.499510 -0.044514 0.865164
vn -0.499627 -0.039078 0.865359
vn -0.499627 -0.039067 0.865359
vn -0.499516 -0.044514 0.865161
vn -0.499516 -0.044514 0.865161
vn -0.999581 -0.028953 0.000000
vn -0.999575 -0.029157 0.000000
vn -0.999009 -0.044515 0.000000
vn -0.999009 -0.044515 0.000000
vn -0.499830 -0.026758 -0.865710
vn -0.499828 -0.026890 -0.865707
vn -0.499516 -0.044515 -0.865160
vn -0.499516 -0.044514 -0.865161
vn 0.499705 -0.034617 -0.865503
vn 0.499705 -0.034638 -0.865503
vn 0.499510 -0.044514 -0.865164
vn 0.499510 -0.044514 -0.865164
vn 0.999011 -0.044466 0.000000
vn 0.998995 -0.044819 0.000000
vn 0.999009 -0.044512 0.000000
vn 0.999009 -0.044512 0.000000
vn -0.499516 -0.044514 -0.865161
vn -0.499516 -0.044515 -0.865160
vn -0.499619 -0.039766 -0.865332
vn -0.499644 -0.038478 -0.865376
vn -0.999009 -0.044515 0.000000
vn -0.999009 -0.044515 0.000000
vn -0.999384 -0.035093 0.000000
vn -0.999354 -0.035925 0.000000
vn -0.499516 -0.044514 0.865161
vn -0.499516 -0.044514 0.865161
vn -0.498947 -0.065279 0.864170
vn -0.498930 -0.065814 0.864140
vn 0.499510 -0.044514 0.865164
vn 0.499510 -0.044514 0.865164
vn 0.497536 -0.099271 0.861744
vn 0.497568 -0.098631 0.861800
vn 0.999009 -0.044512 0.000000
vn 0.999009 -0.044512 0.000000
vn 0.994753 -0.102304 0.000000
vn 0.994710 -0.102720 0.000000
vn 0.499510 -0.044514 -0.865164
vn 0.499510 -0.044514 -0.865164
vn 0.498673 -0.072970 -0.863713
vn 0.498691 -0.072480 -0.863744
vn 0.345174 0.748455 -0.566278
vn 0.345174 0.748455 -0.566278
vn 0.345174 0.748455 -0.566278
vn 0.025151 0.740203 0.671913
vn 0.025151 0.740203 0.671913
vn 0.025151 0.740203 0.671913
vn -0.804818 0.210684 -0.554869
vn -0.804818 0.210684 -0.554869
vn -0.804818 0.210684 -0.554869
vn 0.230951 0.864377 0.446670
vn 0.230951 0.864377 0.446670
vn 0.230951 0.864377 0.446670
s off
f 16/1/1 17/2/2 8/5/3 7/7/4
f 17/2/5 18/9/6 9/11/7 8/5/8
f 18/9/9 13/13/10 10/14/11 9/11/12
f 13/13/13 14/15/14 11/16/15 10/14/16
f 14/15/17 15/17/18 12/18/19 11/16/20
f 15/17/21 16/1/22 7/7/23 12/18/24
f 56/19/25 57/20/26 51/21/27 52/22/28
f 57/20/29 58/23/30 50/24/31 51/21/32
f 58/23/33 59/25/34 49/26/35 50/24/36
f 59/25/37 60/27/38 54/28/39 49/26/40
f 60/27/41 55/29/42 53/30/43 54/28/44
f 55/29/45 56/19/46 52/22/47 53/30/48
f 2/31/49 1/69/50 19/68/51
f 3/67/52 2/31/53 19/68/54
f 4/66/55 3/67/56 19/68/57
f 5/65/58 4/66/59 19/68/60
f 6/64/61 5/65/62 19/68/63
f 1/69/64 6/64/65 19/68/66
f 7/3/67 8/4/68 21/6/69 20/8/70
f 8/4/71 9/10/72 22/12/73 21/6/74
f 9/10/75 10/32/76 22/12/77
f 10/32/78 11/33/79 23/34/80 22/12/81
f 11/33/82 12/70/83 20/8/84 23/34/85
f 12/70/86 7/3/87 20/8/88
f 23/35/89 20/36/90 25/37/91 24/38/92
f 20/36/93 21/39/94 26/40/95 25/37/96
f 21/39/97 22/41/98 27/42/99 26/40/100
f 22/41/101 23/35/102 24/38/103 27/42/104
f 27/42/105 35/43/106 36/44/107 29/45/108
f 25/37/109 26/40/110 30/46/111 28/47/112
f 26/40/113 27/42/114 29/45/115 30/46/116
f 24/38/117 25/37/118 32/48/119 31/49/120
f 34/50/121 35/43/122 27/42/123 33/51/124
f 27/42/125 24/38/126 31/49/127 33/51/128
f 25/37/129 35/43/130 34/50/131 32/48/132
f 36/44/133 35/43/134 25/37/135 28/47/136
f 33/51/137 31/49/138 38/52/139 37/53/140
f 31/49/141 34/50/142 39/54/143 38/52/144
f 34/50/145 33/51/146 37/53/147 39/54/148
f 31/49/149 32/48/150 41/55/151 40/56/152
f 32/48/153 34/50/154 42/57/155 41/55/156
f 34/50/157 31/49/158 40/56/159 42/57/160
f 30/46/161 36/44/162 44/58/163 43/59/164
f 36/44/165 28/47/166 45/60/167 44/58/168
f 28/47/169 30/46/170 43/59/171 45/60/172
f 30/46/173 29/45/174 47/61/175 46/62/176
f 29/45/177 36/44/178 48/63/179 47/61/180
f 36/44/181 30/46/182 46/62/183 48/63/184
f 50/24/185 49/26/186 16/1/187 15/17/188
f 51/21/189 50/24/190 15/17/191 14/15/192
f 52/22/193 51/21/194 14/15/195 13/13/196
f 53/30/197 52/22/198 13/13/199 18/9/200
f 54/28/201 53/30/202 18/9/203 17/2/204
f 49/26/205 54/28/206 17/2/207 16/1/208
f 3/67/209 4/66/210 56/19/211 55/29/212
f 4/66/213 5/65/214 57/20/215 56/19/216
f 5/65/217 6/64/218 58/23/219 57/20/220
f 6/64/221 1/69/222 59/25/223 58/23/224
f 1/69/225 2/31/226 60/27/227 59/25/228
f 2/31/229 3/67/230 55/29/231 60/27/232
f 47/61/233 48/63/234 46/62/235
f 41/55/236 42/57/237 40/56/238
f 38/52/239 39/54/240 37/53/241
f 43/59/242 44/58/243 45/60/244
