# This file uses centimeters as units for non-parametric coordinates.

v -20.676514 10.525033 -41.322083
v -20.356689 10.525033 -60.372253
v -15.191833 12.872581 -30.388733
v -14.507996 12.872580 -71.115234
v -9.882477 0.049291 -60.196411
v -10.202271 0.049291 -41.146240
v -8.036987 5.716770 -30.268555
v -3.065918 17.932501 -24.935669
v -2.205841 17.932501 -76.158142
v -7.353241 5.716769 -70.995056
v -20.676514 25.339972 -41.322083
v -20.356689 25.339972 -60.372253
v -15.191833 22.992422 -30.388733
v -14.508026 22.992422 -71.115295
v 4.610626 0.049290 -40.897522
v 4.930481 0.049290 -59.947693
v 2.081482 5.716772 -30.098755
v 2.765259 5.716771 -70.825256
v 15.404694 10.525033 -59.771790
v 15.084869 10.525033 -40.721680
v 9.236206 12.872582 -29.978638
v 9.919952 12.872581 -70.705078
v 15.084869 25.339970 -40.721680
v 15.404694 25.339972 -59.771790
v 9.236206 22.992424 -29.978638
v 9.919952 22.992422 -70.705078
v 4.930420 35.815712 -59.947754
v 4.610596 35.815716 -40.897522
v 2.081482 30.148233 -30.098755
v 2.765198 30.148233 -70.825317
v -10.202209 35.815716 -41.146301
v -9.882355 35.815716 -60.196411
v -8.036987 30.148233 -30.268555
v -7.353241 30.148233 -70.995056
v -5.917297 18.537077 -28.799255
v -1.876282 19.465197 -29.081787
v -5.483276 15.962660 -27.833435
v -2.892212 14.972944 -27.421387
v -5.195496 16.558538 -23.100586
v -2.600220 15.552073 -22.933105
v -4.627747 19.309122 -23.481445
v -1.751801 20.255636 -23.534790
v -0.455658 17.343477 -23.009399
v -0.738403 16.725100 -28.043945
v -5.758423 20.126867 -25.427917
v -6.579407 16.101007 -24.873108
v -2.717773 14.585478 -24.669312
v 0.473785 17.225714 -24.844727
v -1.476837 21.461668 -25.690491
v -4.478851 16.709166 -19.665527
v -3.744049 19.427664 -19.344788
v -0.925201 20.310114 -20.011841
v -2.080231 15.676287 -20.643188
v 0.132965 17.372480 -20.841064
v -3.313202 13.877119 -16.443909
v -1.548981 14.556856 -14.332520
v 1.419464 14.805544 -14.877014
v -1.493835 13.696482 -18.549500
v 1.228027 14.029421 -18.007080
v -2.243408 4.910845 -17.514893
v 0.104767 5.506605 -16.043884
v 2.755066 5.764479 -17.485596
v -1.180695 4.800898 -20.090637
v 1.578522 5.104086 -20.420898
v -2.302979 0.830460 -13.970642
v 0.000000 0.000000 0.000000
v 0.056519 2.182220 -13.171570
v 2.704224 1.468714 -14.456116
v -1.250519 -0.855444 -15.926697
v 1.510376 -0.849049 -16.363770
vt 0.108722 0.109926
vt 0.132675 0.109926
vt 0.132675 0.070023
vt 0.108722 0.070023
vt 0.130013 0.136994
vt 0.111241 0.136994
vt 0.123288 0.151618
vt 0.110812 0.050949
vt 0.130443 0.050949
vt 0.120835 0.033004
vt 0.132675 0.109926
vt 0.108722 0.109926
vt 0.111241 0.136994
vt 0.130013 0.136994
vt 0.108722 0.070023
vt 0.132675 0.070023
vt 0.130443 0.050949
vt 0.110812 0.050949
vt 0.154568 0.108453
vt 0.176297 0.108453
vt 0.176297 0.071496
vt 0.154568 0.071496
vt 0.174336 0.137302
vt 0.157820 0.137302
vt 0.166191 0.150197
vt 0.157466 0.050323
vt 0.173270 0.050323
vt 0.164913 0.031969
vt 0.176297 0.108453
vt 0.154568 0.108453
vt 0.157820 0.137302
vt 0.174336 0.137302
vt 0.154568 0.071496
vt 0.176297 0.071496
vt 0.173270 0.050323
vt 0.157466 0.050323
vt 0.108722 0.073375
vt 0.132675 0.073375
vt 0.132675 0.112874
vt 0.108722 0.112874
vt 0.130013 0.051206
vt 0.111241 0.051206
vt 0.120828 0.033468
vt 0.110812 0.136679
vt 0.130443 0.136679
vt 0.123288 0.151618
vt 0.154568 0.074834
vt 0.176297 0.074834
vt 0.176297 0.111415
vt 0.154568 0.111415
vt 0.173626 0.052300
vt 0.157110 0.052300
vt 0.164579 0.032933
vt 0.158176 0.138060
vt 0.173980 0.138060
vt 0.166202 0.150546
vt 0.176297 0.074834
vt 0.154568 0.074834
vt 0.157110 0.052300
vt 0.173626 0.052300
vt 0.154568 0.111415
vt 0.176297 0.111415
vt 0.173980 0.138060
vt 0.158176 0.138060
vt 0.108722 0.109926
vt 0.132675 0.109926
vt 0.132675 0.070023
vt 0.108722 0.070023
vt 0.130013 0.136994
vt 0.111241 0.136994
vt 0.123288 0.151618
vt 0.110812 0.050949
vt 0.130443 0.050949
vt 0.120835 0.033004
vt 0.132675 0.109926
vt 0.108722 0.109926
vt 0.111241 0.136994
vt 0.130013 0.136994
vt 0.108722 0.070023
vt 0.132675 0.070023
vt 0.130443 0.050949
vt 0.110812 0.050949
vt 0.154568 0.108453
vt 0.176297 0.108453
vt 0.176297 0.071496
vt 0.154568 0.071496
vt 0.174336 0.137302
vt 0.157820 0.137302
vt 0.166191 0.150197
vt 0.157466 0.050323
vt 0.173270 0.050323
vt 0.164913 0.031969
vt 0.176297 0.108453
vt 0.154568 0.108453
vt 0.157820 0.137302
vt 0.174336 0.137302
vt 0.154568 0.071496
vt 0.176297 0.071496
vt 0.173270 0.050323
vt 0.157466 0.050323
vt 0.108722 0.073375
vt 0.132675 0.073375
vt 0.132675 0.112874
vt 0.108722 0.112874
vt 0.130013 0.051206
vt 0.111241 0.051206
vt 0.120828 0.033468
vt 0.110812 0.136679
vt 0.130443 0.136679
vt 0.123288 0.151618
vt 0.154568 0.074834
vt 0.176297 0.074834
vt 0.176297 0.111415
vt 0.154568 0.111415
vt 0.173626 0.052300
vt 0.157110 0.052300
vt 0.164579 0.032933
vt 0.158176 0.138060
vt 0.173980 0.138060
vt 0.166202 0.150546
vt 0.176297 0.074834
vt 0.154568 0.074834
vt 0.157110 0.052300
vt 0.173626 0.052300
vt 0.154568 0.111415
vt 0.176297 0.111415
vt 0.173980 0.138060
vt 0.158176 0.138060
vt 0.145371 0.304581
vt 0.145370 0.304581
vt 0.145370 0.304581
vt 0.145370 0.304581
vt 0.145370 0.304581
vt 0.145370 0.304581
vt 0.145370 0.304581
vt 0.145370 0.304581
vt 0.145370 0.304581
vt 0.145370 0.304581
vt 0.145370 0.304581
vt 0.145370 0.304581
vt 0.145370 0.304581
vt 0.145370 0.304581
vt 0.145370 0.304581
vt 0.145370 0.304581
vt 0.145370 0.304581
vt 0.145370 0.304581
vt 0.145370 0.304581
vt 0.145370 0.304581
vt 0.145370 0.304581
vt 0.145370 0.304581
vt 0.145370 0.304581
vt 0.145370 0.304581
vt 0.145370 0.304581
vt 0.145370 0.304581
vt 0.145370 0.304581
vt 0.145370 0.304581
vt 0.145370 0.304581
vt 0.145370 0.304581
vt 0.145370 0.304581
vt 0.145370 0.304581
vt 0.145370 0.304581
vt 0.145370 0.304581
vt 0.145370 0.304581
vt 0.145370 0.304581
vn -0.707008 -0.707105 -0.011869
vn -0.707009 -0.707106 -0.011869
vn -0.707009 -0.707106 -0.011869
vn -0.707008 -0.707105 -0.011869
vn -0.294532 -0.279142 0.913964
vn -0.294532 -0.279142 0.913964
vn -0.294532 -0.279142 0.913964
vn -0.263680 -0.279148 -0.923336
vn -0.263680 -0.279148 -0.923336
vn -0.263680 -0.279148 -0.923336
vn -0.634317 -0.626627 0.452749
vn -0.634317 -0.626627 0.452749
vn -0.634317 -0.626627 0.452749
vn -0.634317 -0.626627 0.452749
vn -0.618759 -0.626623 -0.473795
vn -0.618759 -0.626623 -0.473795
vn -0.618759 -0.626623 -0.473795
vn -0.618759 -0.626623 -0.473795
vn -0.999859 0.000000 -0.016786
vn -0.999859 0.000000 -0.016786
vn -0.999859 0.000000 -0.016786
vn -0.999859 0.000000 -0.016786
vn -0.410140 0.000000 0.912023
vn -0.410140 0.000000 0.912023
vn -0.410140 0.000000 0.912023
vn -0.379288 -0.000007 -0.925279
vn -0.379288 -0.000007 -0.925279
vn -0.379288 -0.000007 -0.925279
vn -0.893838 0.000000 0.448391
vn -0.893838 0.000000 0.448391
vn -0.893838 0.000000 0.448391
vn -0.893838 0.000000 0.448391
vn -0.878278 -0.000002 -0.478150
vn -0.878278 -0.000002 -0.478150
vn -0.878278 -0.000002 -0.478150
vn -0.878278 -0.000002 -0.478150
vn 0.707008 -0.707106 0.011870
vn 0.707008 -0.707106 0.011870
vn 0.707008 -0.707106 0.011870
vn 0.707008 -0.707106 0.011870
vn 0.263686 -0.279145 0.923335
vn 0.263686 -0.279145 0.923335
vn 0.263686 -0.279145 0.923335
vn 0.294536 -0.279140 -0.913964
vn 0.294536 -0.279140 -0.913964
vn 0.294536 -0.279140 -0.913964
vn 0.618762 -0.626624 0.473789
vn 0.618762 -0.626624 0.473789
vn 0.618762 -0.626624 0.473789
vn 0.618762 -0.626624 0.473789
vn 0.634319 -0.626621 -0.452752
vn 0.634319 -0.626621 -0.452752
vn 0.634319 -0.626621 -0.452752
vn 0.634319 -0.626621 -0.452752
vn -0.000000 -1.000000 -0.000000
vn -0.000000 -1.000000 -0.000000
vn -0.000000 -1.000000 -0.000000
vn -0.000000 -1.000000 -0.000000
vn -0.015416 -0.394772 0.918650
vn -0.015416 -0.394771 0.918650
vn -0.015416 -0.394771 0.918650
vn 0.015416 -0.394771 -0.918650
vn 0.015416 -0.394771 -0.918650
vn 0.015416 -0.394771 -0.918650
vn -0.007777 -0.886184 0.463269
vn -0.007777 -0.886184 0.463269
vn -0.007777 -0.886184 0.463269
vn -0.007777 -0.886184 0.463269
vn 0.007777 -0.886182 -0.463273
vn 0.007777 -0.886182 -0.463273
vn 0.007777 -0.886182 -0.463273
vn 0.007777 -0.886182 -0.463273
vn 0.707007 0.707107 0.011870
vn 0.707007 0.707107 0.011870
vn 0.707007 0.707107 0.011870
vn 0.707007 0.707107 0.011870
vn 0.263686 0.279145 0.923335
vn 0.263686 0.279145 0.923335
vn 0.263686 0.279145 0.923335
vn 0.294537 0.279136 -0.913964
vn 0.294537 0.279136 -0.913964
vn 0.294537 0.279136 -0.913964
vn 0.618762 0.626625 0.473789
vn 0.618762 0.626625 0.473789
vn 0.618762 0.626625 0.473789
vn 0.618761 0.626625 0.473789
vn 0.634319 0.626622 -0.452752
vn 0.634319 0.626622 -0.452752
vn 0.634319 0.626622 -0.452752
vn 0.634319 0.626622 -0.452752
vn 0.999859 0.000000 0.016786
vn 0.999859 0.000000 0.016786
vn 0.999859 0.000000 0.016786
vn 0.999859 0.000000 0.016786
vn 0.379295 0.000000 0.925276
vn 0.379295 0.000000 0.925276
vn 0.379295 0.000000 0.925276
vn 0.410143 0.000000 -0.912021
vn 0.410143 0.000000 -0.912021
vn 0.410143 0.000000 -0.912021
vn 0.878280 0.000000 0.478148
vn 0.878280 0.000000 0.478148
vn 0.878280 0.000000 0.478148
vn 0.878280 0.000000 0.478148
vn 0.893835 0.000000 -0.448397
vn 0.893835 0.000000 -0.448397
vn 0.893835 0.000000 -0.448397
vn 0.893835 0.000000 -0.448397
vn -0.707006 0.707108 -0.011870
vn -0.707006 0.707108 -0.011870
vn -0.707006 0.707108 -0.011870
vn -0.707006 0.707108 -0.011870
vn -0.294531 0.279142 0.913964
vn -0.294531 0.279142 0.913964
vn -0.294531 0.279142 0.913964
vn -0.263674 0.279151 -0.923337
vn -0.263674 0.279151 -0.923337
vn -0.263674 0.279151 -0.923337
vn -0.634316 0.626629 0.452747
vn -0.634316 0.626629 0.452747
vn -0.634316 0.626629 0.452747
vn -0.634316 0.626629 0.452747
vn -0.618757 0.626628 -0.473791
vn -0.618757 0.626628 -0.473791
vn -0.618757 0.626628 -0.473791
vn -0.618757 0.626628 -0.473791
vn 0.000000 1.000000 -0.000000
vn 0.000000 1.000000 -0.000000
vn 0.000000 1.000000 -0.000000
vn 0.000000 1.000000 -0.000000
vn -0.015416 0.394771 0.918650
vn -0.015416 0.394771 0.918650
vn -0.015416 0.394771 0.918650
vn 0.015411 0.394770 -0.918651
vn 0.015411 0.394770 -0.918651
vn 0.015411 0.394770 -0.918651
vn -0.007778 0.886184 0.463268
vn -0.007778 0.886184 0.463268
vn -0.007778 0.886184 0.463268
vn -0.007778 0.886184 0.463268
vn 0.007775 0.886181 -0.463273
vn 0.007775 0.886181 -0.463273
vn 0.007775 0.886182 -0.463273
vn 0.007775 0.886182 -0.463273
vn -0.343619 -0.809718 0.475692
vn -0.343619 -0.809718 0.475692
vn -0.343619 -0.809718 0.475692
vn -0.343619 -0.809718 0.475692
vn -0.526890 0.838865 0.136719
vn -0.526890 0.838865 0.136719
vn -0.526890 0.838866 0.136719
vn -0.249191 0.846881 0.469784
vn -0.249191 0.846881 0.469784
vn -0.249191 0.846881 0.469784
vn -0.249191 0.846881 0.469784
vn 0.818215 0.442134 0.367481
vn 0.818215 0.442134 0.367481
vn 0.818215 0.442134 0.367481
vn 0.818215 0.442134 0.367481
vn -0.793291 0.239843 0.559612
vn -0.793291 0.239843 0.559612
vn -0.793291 0.239842 0.559612
vn -0.793291 0.239842 0.559612
vn 0.607352 -0.711204 0.353994
vn 0.607352 -0.711204 0.353994
vn 0.607352 -0.711204 0.353994
vn 0.607352 -0.711204 0.353994
vn 0.326804 0.932155 0.155839
vn 0.326804 0.932155 0.155839
vn 0.326804 0.932155 0.155839
vn -0.988044 0.022798 -0.152479
vn -0.988044 0.022798 -0.152479
vn -0.988044 0.022798 -0.152479
vn -0.988044 0.022798 -0.152479
vn -0.352113 -0.930875 -0.097409
vn -0.352113 -0.930875 -0.097409
vn -0.352113 -0.930875 -0.097409
vn -0.352113 -0.930875 -0.097409
vn 0.617961 -0.775514 -0.129238
vn 0.617961 -0.775514 -0.129238
vn 0.617961 -0.775514 -0.129238
vn 0.617961 -0.775514 -0.129238
vn 0.892048 0.304848 -0.333644
vn 0.892048 0.304848 -0.333644
vn 0.892048 0.304848 -0.333644
vn 0.892048 0.304848 -0.333644
vn -0.262668 0.861248 -0.435038
vn -0.262668 0.861247 -0.435038
vn -0.262668 0.861248 -0.435039
vn -0.262668 0.861248 -0.435039
vn 0.010671 -0.998548 0.052795
vn 0.010671 -0.998548 0.052795
vn 0.010671 -0.998548 0.052795
vn 0.846162 -0.522438 0.105208
vn 0.846162 -0.522438 0.105208
vn 0.846162 -0.522438 0.105208
vn -0.791482 -0.603831 0.094577
vn -0.791481 -0.603831 0.094577
vn -0.791481 -0.603831 0.094577
vn -0.953930 0.229320 0.193468
vn -0.953930 0.229321 0.193468
vn -0.953930 0.229320 0.193468
vn -0.953930 0.229320 0.193468
vn -0.300240 0.952777 0.045518
vn -0.300240 0.952777 0.045518
vn -0.300240 0.952777 0.045518
vn -0.300240 0.952777 0.045518
vn 0.615002 -0.778364 -0.126180
vn 0.615002 -0.778364 -0.126180
vn 0.615002 -0.778364 -0.126180
vn 0.615002 -0.778364 -0.126180
vn 0.898859 0.373649 -0.228995
vn 0.898859 0.373649 -0.228995
vn 0.898859 0.373649 -0.228995
vn 0.898859 0.373649 -0.228995
vn -0.358241 -0.925648 0.121821
vn -0.358241 -0.925647 0.121821
vn -0.358241 -0.925648 0.121821
vn -0.358241 -0.925648 0.121821
vn -0.816080 0.216672 0.535786
vn -0.816080 0.216672 0.535786
vn -0.816080 0.216672 0.535786
vn -0.816080 0.216672 0.535786
vn 0.011938 0.701813 0.712261
vn 0.011938 0.701813 0.712261
vn 0.011938 0.701813 0.712261
vn 0.011938 0.701813 0.712261
vn 0.297266 -0.596373 -0.745636
vn 0.297266 -0.596373 -0.745636
vn 0.297266 -0.596373 -0.745636
vn 0.297266 -0.596373 -0.745636
vn 0.950391 0.301858 -0.075088
vn 0.950391 0.301858 -0.075088
vn 0.950391 0.301858 -0.075088
vn 0.950391 0.301858 -0.075088
vn -0.539402 -0.705013 -0.460437
vn -0.539402 -0.705013 -0.460437
vn -0.539402 -0.705013 -0.460437
vn -0.539402 -0.705013 -0.460437
vn -0.604343 -0.210046 0.768538
vn -0.604343 -0.210046 0.768538
vn -0.604343 -0.210046 0.768538
vn -0.604343 -0.210046 0.768538
vn 0.341894 -0.164440 0.925239
vn 0.341894 -0.164440 0.925239
vn 0.341894 -0.164440 0.925239
vn 0.341894 -0.164440 0.925239
vn 0.012587 0.217086 -0.976071
vn 0.012587 0.217086 -0.976071
vn 0.012587 0.217086 -0.976071
vn 0.012587 0.217086 -0.976071
vn 0.954056 0.160300 -0.253143
vn 0.954056 0.160300 -0.253143
vn 0.954056 0.160300 -0.253143
vn 0.954056 0.160300 -0.253143
vn -0.851206 0.010832 -0.524720
vn -0.851206 0.010831 -0.524720
vn -0.851206 0.010832 -0.524720
vn -0.851206 0.010832 -0.524720
vn -0.536237 0.557207 0.634011
vn -0.536237 0.557207 0.634011
vn -0.536237 0.557207 0.634011
vn -0.536237 0.557207 0.634011
vn 0.418399 0.552745 0.720705
vn 0.418399 0.552745 0.720705
vn 0.418399 0.552745 0.720705
vn 0.418399 0.552744 0.720705
vn -0.080866 -0.575376 -0.813881
vn -0.080866 -0.575376 -0.813881
vn -0.080866 -0.575376 -0.813881
vn -0.080866 -0.575376 -0.813881
vn 0.922591 -0.226596 -0.312219
vn 0.922591 -0.226595 -0.312219
vn 0.922591 -0.226596 -0.312219
vn 0.922591 -0.226596 -0.312219
vn -0.911880 -0.247254 -0.327630
vn -0.911880 -0.247254 -0.327630
vn -0.911880 -0.247254 -0.327630
vn -0.911880 -0.247254 -0.327630
s off
f 6/1/1 1/2/2 2/3/3 5/4/4
f 3/5/5 7/6/6 8/7/7
f 10/8/8 4/9/9 9/10/10
f 1/11/11 6/12/12 7/13/13 3/14/14
f 5/15/15 2/16/16 4/17/17 10/18/18
f 1/19/19 11/20/20 12/21/21 2/22/22
f 13/23/23 3/24/24 8/25/25
f 4/26/26 14/27/27 9/28/28
f 11/29/29 1/30/30 3/31/31 13/32/32
f 2/33/33 12/34/34 14/35/35 4/36/36
f 20/37/37 15/38/38 16/39/39 19/40/40
f 17/41/41 21/42/42 8/43/43
f 22/44/44 18/45/45 9/46/46
f 15/38/47 20/37/48 21/42/49 17/41/50
f 19/40/51 16/39/52 18/45/53 22/44/54
f 15/47/55 6/48/56 5/49/57 16/50/58
f 7/51/59 17/52/60 8/53/61
f 18/54/62 10/55/63 9/56/64
f 6/57/65 15/58/66 17/59/67 7/60/68
f 16/61/69 5/62/70 10/63/71 18/64/72
f 28/65/73 23/66/74 24/67/75 27/68/76
f 25/69/77 29/70/78 8/71/79
f 30/72/80 26/73/81 9/74/82
f 23/75/83 28/76/84 29/77/85 25/78/86
f 27/79/87 24/80/88 26/81/89 30/82/90
f 23/83/91 20/84/92 19/85/93 24/86/94
f 21/87/95 25/88/96 8/89/97
f 26/90/98 22/91/99 9/92/100
f 20/93/101 23/94/102 25/95/103 21/96/104
f 24/97/105 19/98/106 22/99/107 26/100/108
f 11/101/109 31/102/110 32/103/111 12/104/112
f 33/105/113 13/106/114 8/107/115
f 14/108/116 34/109/117 9/110/118
f 31/102/119 11/101/120 13/106/121 33/105/122
f 12/104/123 32/103/124 34/109/125 14/108/126
f 31/111/127 28/112/128 27/113/129 32/114/130
f 29/115/131 33/116/132 8/117/133
f 34/118/134 30/119/135 9/120/136
f 28/121/137 31/122/138 33/123/139 29/124/140
f 32/125/141 27/126/142 30/127/143 34/128/144
f 46/129/145 47/130/146 40/131/147 39/132/148
f 65/133/149 66/134/150 67/135/151
f 41/136/152 42/137/153 49/138/154 45/139/155
f 48/140/156 49/138/157 42/137/158 43/141/159
f 41/136/160 45/139/161 46/129/162 39/132/163
f 47/130/164 48/140/165 43/141/166 40/131/167
f 67/135/168 66/134/169 68/142/170
f 46/129/171 45/139/172 35/143/173 37/144/174
f 37/144/175 38/145/176 47/130/177 46/129/178
f 44/146/179 48/140/180 47/130/181 38/145/182
f 36/147/183 49/138/184 48/140/185 44/146/186
f 45/139/187 49/138/188 36/147/189 35/143/190
f 66/134/191 69/148/192 70/149/193
f 68/142/194 66/134/195 70/149/196
f 65/133/197 69/148/198 66/134/199
f 41/136/200 39/132/201 50/150/202 51/151/203
f 42/137/204 41/136/205 51/151/206 52/152/207
f 40/131/208 43/141/209 54/153/210 53/154/211
f 43/141/212 42/137/213 52/152/214 54/153/215
f 39/132/216 40/131/217 53/154/218 50/150/219
f 51/151/220 50/150/221 55/155/222 56/156/223
f 52/152/224 51/151/225 56/156/226 57/157/227
f 54/153/228 59/158/229 58/159/230 53/154/231
f 52/152/232 57/157/233 59/158/234 54/153/235
f 53/154/236 58/159/237 55/155/238 50/150/239
f 56/156/240 55/155/241 60/160/242 61/161/243
f 57/157/244 56/156/245 61/161/246 62/162/247
f 59/158/248 64/163/249 63/164/250 58/159/251
f 57/157/252 62/162/253 64/163/254 59/158/255
f 58/159/256 63/164/257 60/160/258 55/155/259
f 61/161/260 60/160/261 65/133/262 67/135/263
f 62/162/264 61/161/265 67/135/266 68/142/267
f 63/164/268 64/163/269 70/149/270 69/148/271
f 64/163/272 62/162/273 68/142/274 70/149/275
f 60/160/276 63/164/277 69/148/278 65/133/279
