# This file uses centimeters as units for non-parametric coordinates.

v -2.720011 0.856034 29.126419
v -2.720012 0.035091 29.126419
v -0.990937 0.901481 27.981741
v -0.990936 -0.010356 27.981741
v -0.730462 0.816467 3.346176
v -0.730462 -0.095370 3.346176
v -2.459537 0.771020 2.201496
v -2.459537 -0.049923 2.201496
v -5.237327 1.355762 22.031357
v -1.691025 1.277366 21.517191
v -1.691025 0.155133 21.517191
v -5.237328 0.092243 22.031357
v -1.384064 -0.432296 9.495698
v -1.384064 0.689937 9.495698
v -4.959245 0.760580 8.870283
v -4.959245 -0.502939 8.870283
v -1.546949 0.812839 29.780342
v -1.546950 0.078285 29.780342
v -0.737859 0.119354 29.050915
v -0.737859 0.771771 29.050915
v -0.248691 0.879689 1.934958
v -0.025488 -0.336498 1.747172
v -1.345898 -0.359084 1.091126
v -1.122694 0.895882 0.903344
v 0.655535 2.486711 1.118051
v 1.648943 0.549327 0.949291
v 0.000000 1.986551 -0.000000
v 0.123186 0.598363 -1.964257
v 1.220392 -1.600345 -1.120429
v -0.100018 -1.504552 -1.776474
v -1.422092 1.419171 2.888303
v -2.814137 1.470062 9.245529
v -3.432129 2.065244 21.854345
v -1.855474 1.504185 28.554081
v -1.142405 1.060999 29.415628
v -1.142404 -0.169874 29.415628
v -1.855474 -0.613061 28.554081
v -3.432129 -0.617239 21.854345
v -3.171654 -1.212421 9.182988
v -1.594999 -0.698075 2.773834
vt 0.144494 0.303414
vt 0.144494 0.303414
vt 0.144494 0.303414
vt 0.144494 0.303414
vt 0.144494 0.303414
vt 0.144494 0.303414
vt 0.144494 0.303414
vt 0.144494 0.303414
vt 0.144494 0.303414
vt 0.144494 0.303414
vt 0.144494 0.303414
vt 0.144494 0.303414
vt 0.144494 0.303414
vt 0.144494 0.303414
vt 0.144494 0.303414
vt 0.144494 0.303414
vt 0.144494 0.303414
vt 0.144494 0.303414
vt 0.144494 0.303414
vt 0.144494 0.303414
vt 0.144494 0.303414
vt 0.144494 0.303414
vt 0.144494 0.303414
vt 0.144494 0.303414
vt 0.144494 0.303414
vt 0.144494 0.303414
vt 0.144494 0.303414
vt 0.144494 0.303414
vt 0.144494 0.303414
vt 0.144494 0.303414
vt 0.144494 0.303414
vt 0.144494 0.303414
vt 0.144494 0.303414
vt 0.144494 0.303414
vt 0.144494 0.303414
vt 0.144494 0.303414
vt 0.144494 0.303414
vt 0.144494 0.303414
vt 0.144494 0.303414
vt 0.144494 0.303414
vt 0.144494 0.303414
vt 0.144494 0.303414
vt 0.144494 0.303414
vt 0.144494 0.303414
vt 0.144494 0.303414
vt 0.144494 0.303414
vt 0.144494 0.303414
vt 0.144494 0.303414
vt 0.144494 0.303414
vt 0.144494 0.303414
vt 0.144494 0.303414
vt 0.144494 0.303414
vt 0.144494 0.303414
vt 0.144494 0.303414
vt 0.144494 0.303414
vt 0.144494 0.303414
vn 0.669598 0.000000 0.742724
vn 0.669598 0.000000 0.742724
vn 0.669598 0.000000 0.742724
vn 0.669598 0.000000 0.742724
vn 0.999674 0.000000 0.025526
vn 0.999674 0.000000 0.025526
vn 0.999674 0.000000 0.025526
vn 0.999674 0.000000 0.025526
vn 0.434093 -0.125732 -0.892051
vn 0.434093 -0.125732 -0.892051
vn 0.434093 -0.125732 -0.892051
vn -0.999777 0.000000 -0.021124
vn -0.999777 0.000000 -0.021124
vn -0.999777 0.000000 -0.021124
vn -0.999777 0.000000 -0.021124
vn 0.402452 -0.913905 0.053018
vn 0.402452 -0.913904 0.053018
vn 0.402452 -0.913905 0.053018
vn 0.402452 -0.913905 0.053018
vn 0.442495 0.896381 -0.026422
vn 0.442495 0.896381 -0.026422
vn 0.442495 0.896381 -0.026422
vn 0.442495 0.896381 -0.026422
vn 0.465959 0.884631 -0.017625
vn 0.465959 0.884631 -0.017625
vn 0.465959 0.884631 -0.017625
vn 0.465959 0.884631 -0.017625
vn 0.994187 0.000000 -0.107667
vn 0.994187 0.000000 -0.107667
vn 0.994187 0.000000 -0.107667
vn 0.994187 0.000000 -0.107667
vn 0.440968 -0.893276 -0.087211
vn 0.440968 -0.893276 -0.087211
vn 0.440968 -0.893276 -0.087211
vn 0.440968 -0.893276 -0.087211
vn -0.942440 0.000000 0.334376
vn -0.942440 0.000000 0.334376
vn -0.942440 0.000000 0.334376
vn -0.942440 0.000000 0.334376
vn 0.994399 0.000000 0.105690
vn 0.994399 0.000000 0.105690
vn 0.994399 0.000000 0.105690
vn 0.994399 0.000000 0.105690
vn 0.522388 0.847884 0.090571
vn 0.522388 0.847884 0.090571
vn 0.522388 0.847884 0.090571
vn 0.522388 0.847884 0.090571
vn -0.936379 0.000000 -0.350990
vn -0.936379 0.000000 -0.350990
vn -0.936379 0.000000 -0.350990
vn -0.936379 0.000000 -0.350990
vn 0.456758 -0.889347 0.020831
vn 0.456758 -0.889347 0.020831
vn 0.456757 -0.889347 0.020831
vn 0.456758 -0.889347 0.020831
vn -0.486905 0.000000 0.873455
vn -0.486905 0.000000 0.873455
vn -0.486905 0.000000 0.873455
vn -0.486905 0.000000 0.873455
vn 0.558127 -0.829088 -0.033278
vn 0.558127 -0.829088 -0.033278
vn 0.558127 -0.829088 -0.033278
vn 0.558127 -0.829088 -0.033278
vn 0.973110 0.000000 -0.230339
vn 0.973110 0.000000 -0.230339
vn 0.973110 0.000000 -0.230339
vn 0.973110 0.000000 -0.230339
vn 0.558127 0.829088 -0.033278
vn 0.558127 0.829088 -0.033278
vn 0.558127 0.829088 -0.033278
vn 0.558127 0.829088 -0.033278
vn 0.929630 0.065507 0.362624
vn 0.929630 0.065507 0.362624
vn 0.929630 0.065507 0.362624
vn 0.929630 0.065507 0.362624
vn 0.399484 -0.864014 0.306418
vn 0.399484 -0.864014 0.306418
vn 0.399484 -0.864014 0.306418
vn -0.700522 0.010775 -0.713550
vn -0.700522 0.010775 -0.713550
vn -0.700522 0.010775 -0.713550
vn -0.700522 0.010775 -0.713550
vn 0.394859 0.918129 -0.033552
vn 0.394859 0.918129 -0.033552
vn 0.394859 0.918129 -0.033552
vn 0.394859 0.918129 -0.033552
vn 0.695952 0.408309 -0.590707
vn 0.695952 0.408309 -0.590707
vn 0.695952 0.408309 -0.590707
vn 0.470623 0.082238 0.878494
vn 0.470623 0.082238 0.878494
vn 0.470623 0.082238 0.878494
vn 0.470623 0.082238 0.878494
vn -0.061730 -0.599496 -0.797994
vn -0.061730 -0.599496 -0.797994
vn -0.061730 -0.599496 -0.797994
vn -0.061730 -0.599496 -0.797994
vn -0.654362 0.689560 0.310350
vn -0.654362 0.689560 0.310350
vn -0.654362 0.689560 0.310350
vn -0.654362 0.689560 0.310350
vn 0.785922 0.591409 0.180451
vn 0.785922 0.591409 0.180451
vn 0.785922 0.591409 0.180451
vn 0.785922 0.591409 0.180451
vn -0.181305 -0.932324 0.312891
vn -0.181305 -0.932324 0.312891
vn -0.181305 -0.932324 0.312891
vn -0.181305 -0.932324 0.312891
vn -0.907646 0.074464 -0.413078
vn -0.907646 0.074464 -0.413078
vn -0.907646 0.074464 -0.413078
vn -0.907646 0.074464 -0.413078
vn -0.362754 0.886158 -0.288330
vn -0.362754 0.886158 -0.288330
vn -0.362754 0.886158 -0.288330
vn -0.358698 0.926944 -0.110046
vn -0.358698 0.926944 -0.110046
vn -0.358698 0.926944 -0.110046
vn -0.358698 0.926944 -0.110046
vn -0.335092 0.940573 -0.055099
vn -0.335092 0.940573 -0.055099
vn -0.335092 0.940573 -0.055099
vn -0.335092 0.940573 -0.055099
vn -0.402645 0.895763 0.188378
vn -0.402645 0.895763 0.188378
vn -0.402646 0.895763 0.188378
vn -0.402645 0.895763 0.188378
vn -0.203035 0.830219 0.519147
vn -0.203035 0.830219 0.519147
vn -0.203035 0.830219 0.519147
vn -0.203035 0.830219 0.519147
vn 0.669595 0.000000 0.742727
vn 0.669595 0.000000 0.742727
vn 0.669595 0.000000 0.742727
vn 0.669595 0.000000 0.742727
vn -0.203034 -0.830219 0.519147
vn -0.203034 -0.830219 0.519147
vn -0.203034 -0.830219 0.519147
vn -0.203034 -0.830219 0.519147
vn -0.422495 -0.898125 0.121938
vn -0.422495 -0.898125 0.121938
vn -0.422495 -0.898125 0.121938
vn -0.422495 -0.898125 0.121938
vn -0.368257 -0.929060 0.035134
vn -0.368257 -0.929060 0.035134
vn -0.368257 -0.929060 0.035134
vn -0.368257 -0.929060 0.035134
vn -0.396393 -0.898207 -0.189994
vn -0.396393 -0.898207 -0.189994
vn -0.396392 -0.898207 -0.189994
vn -0.396392 -0.898207 -0.189994
vn -0.153994 -0.963951 -0.216990
vn -0.153994 -0.963951 -0.216990
vn -0.153994 -0.963951 -0.216990
vn -0.153994 -0.963951 -0.216990
s off
f 35/50/1 36/51/2 19/33/3 20/34/4
f 10/18/5 11/19/6 13/23/7 14/26/8
f 28/42/9 29/43/10 30/44/11
f 15/28/12 16/29/13 12/21/14 9/16/15
f 11/20/16 38/53/17 39/54/18 13/24/19
f 14/25/20 32/47/21 33/48/22 10/17/23
f 10/17/24 33/48/25 34/49/26 3/3/27
f 3/3/28 4/4/29 11/19/30 10/18/31
f 37/52/32 38/53/33 11/20/34 4/4/35
f 9/16/36 12/21/37 2/10/38 1/9/39
f 14/26/40 13/23/41 6/6/42 5/5/43
f 31/45/44 32/47/45 14/25/46 5/14/47
f 7/7/48 8/8/49 16/29/50 15/28/51
f 13/24/52 39/54/53 40/56/54 6/12/55
f 1/1/56 2/2/57 18/32/58 17/31/59
f 36/51/60 37/52/61 4/4/62 19/33/63
f 4/4/64 3/3/65 20/34/66 19/33/67
f 3/3/68 34/49/69 35/50/70 20/34/71
f 5/5/72 6/6/73 22/36/74 21/35/75
f 6/6/76 40/55/77 22/36/78
f 8/8/79 7/7/80 24/38/81 23/37/82
f 24/38/83 31/46/84 5/5/85 21/35/86
f 25/39/87 26/40/88 27/41/89
f 21/35/90 22/36/91 26/40/92 25/39/93
f 22/36/94 24/38/95 27/41/96 26/40/97
f 24/38/98 21/35/99 25/39/100 27/41/101
f 24/38/102 22/36/103 29/43/104 28/42/105
f 22/36/106 23/37/107 30/44/108 29/43/109
f 23/37/110 24/38/111 28/42/112 30/44/113
f 7/7/114 31/46/115 24/38/116
f 7/13/117 15/27/118 32/47/119 31/45/120
f 33/48/121 32/47/122 15/27/123 9/15/124
f 34/49/125 33/48/126 9/15/127 1/1/128
f 35/50/129 34/49/130 1/1/131 17/31/132
f 17/31/133 18/32/134 36/51/135 35/50/136
f 2/2/137 37/52/138 36/51/139 18/32/140
f 2/2/141 12/22/142 38/53/143 37/52/144
f 39/54/145 38/53/146 12/22/147 16/30/148
f 40/56/149 39/54/150 16/30/151 8/11/152
f 22/36/153 40/55/154 8/8/155 23/37/156
