# This file uses centimeters as units for non-parametric coordinates.

v 16.310791 -134.184952 11.977838
v 14.812295 -134.232117 11.939396
v 17.169205 -127.425903 2.284917
v 14.032271 -127.535416 2.196114
v 17.359268 -129.569748 0.452674
v 14.222333 -129.679245 0.363868
v 16.387611 -135.468323 11.938415
v 14.889113 -135.515488 11.899973
v 23.623524 -133.443649 12.582322
v 22.128342 -133.522324 12.516234
v 24.506359 -126.963585 2.670048
v 21.377041 -127.146698 2.518642
v 24.825527 -129.091125 0.828460
v 21.696213 -129.274246 0.677047
v 23.752548 -134.718140 12.535072
v 22.257362 -134.796814 12.468980
v 8.420803 -134.687103 11.570654
v 6.922295 -134.734451 11.532602
v 9.279230 -127.791306 1.985597
v 6.142281 -127.901093 1.897383
v 9.469255 -129.939270 0.160251
v 6.332307 -130.049042 0.072029
v 8.497600 -135.973221 11.535824
v 6.999092 -136.020569 11.497769
v -0.750152 -135.163681 11.181108
v 0.750146 -135.163681 11.181108
v -1.570546 -128.045273 1.771352
v 1.570540 -128.045273 1.771352
v -1.570546 -130.205338 -0.044552
v 1.570540 -130.205338 -0.044552
v -0.750152 -136.456787 11.153451
v 0.750146 -136.456787 11.153451
v -16.310799 -134.184952 11.977838
v -14.812301 -134.232117 11.939396
v -17.169212 -127.425903 2.284917
v -14.032277 -127.535416 2.196114
v -17.359272 -129.569748 0.452674
v -14.222339 -129.679245 0.363868
v -16.387615 -135.468323 11.938416
v -14.889119 -135.515488 11.899973
v -23.623531 -133.443649 12.582322
v -22.128349 -133.522324 12.516234
v -24.506363 -126.963585 2.670048
v -21.377048 -127.146698 2.518642
v -24.825535 -129.091125 0.828460
v -21.696220 -129.274246 0.677047
v -23.752556 -134.718140 12.535071
v -22.257370 -134.796814 12.468980
v -8.420809 -134.687103 11.570654
v -6.922301 -134.734451 11.532602
v -9.279236 -127.791306 1.985597
v -6.142286 -127.901093 1.897383
v -9.469261 -129.939270 0.160251
v -6.332313 -130.049042 0.072029
v -8.497605 -135.973221 11.535824
v -6.999098 -136.020569 11.497769
v 0.918213 2.140442 -2.008354
v -0.918218 2.140442 -2.008355
v -1.836434 2.140442 -0.053427
v -0.848783 2.140442 1.180650
v 0.848777 2.140442 1.180651
v 1.836428 2.140442 -0.053426
v -0.000003 2.921661 0.057326
v -1.200370 -120.483597 -2.498318
v -2.400738 -120.483597 0.057326
v -1.109599 -120.483597 1.670614
v 1.109593 -120.483597 1.670614
v 2.400733 -120.483597 0.057326
v 1.200365 -120.483597 -2.498318
v -3.393045 -121.384644 -0.057686
v -1.696523 -121.384644 -2.996147
v -1.275808 -121.384644 2.039739
v 1.275802 -121.384644 2.039739
v 3.393040 -121.384644 -0.057685
v 1.696519 -121.384644 -2.996145
v -3.069927 -125.073868 1.863215
v 3.069922 -125.073868 1.863216
v 1.696519 -128.924454 -2.695646
v -1.696523 -128.924454 -2.695647
v 25.552368 -128.288910 -0.439062
v 24.828537 -125.050171 2.162021
v -25.552368 -128.288910 -0.439062
v -24.828552 -125.050171 2.162021
v 2.400733 0.000000 0.057326
v 1.109593 0.000000 1.670614
v -1.109599 0.000000 1.670614
v -2.400738 0.000000 0.057326
v -1.200370 0.000000 -2.498318
v 1.200365 0.000000 -2.498318
v -3.597032 -127.042923 3.007438
v 3.597025 -127.042923 3.007438
v 25.112617 -126.985664 4.190041
v 25.844723 -130.004761 1.765355
v -25.112633 -126.985664 4.190041
v -25.844723 -130.004761 1.765355
v -4.417343 -131.239944 0.208648
v 4.417336 -131.239944 0.208649
vt 0.100808 0.300890
vt 0.100808 0.300890
vt 0.100808 0.300890
vt 0.100808 0.300890
vt 0.100808 0.300890
vt 0.100808 0.300890
vt 0.100808 0.300890
vt 0.100808 0.300890
vt 0.100808 0.300890
vt 0.100808 0.300890
vt 0.100808 0.300890
vt 0.100808 0.300890
vt 0.100808 0.300890
vt 0.100808 0.300890
vt 0.100808 0.300890
vt 0.100808 0.300890
vt 0.100808 0.300890
vt 0.100808 0.300890
vt 0.100808 0.300890
vt 0.100808 0.300890
vt 0.100808 0.300890
vt 0.100808 0.300890
vt 0.100808 0.300890
vt 0.100808 0.300890
vt 0.100808 0.300890
vt 0.100808 0.300890
vt 0.100808 0.300890
vt 0.100808 0.300890
vt 0.100808 0.300890
vt 0.100808 0.300890
vt 0.100808 0.300890
vt 0.100808 0.300890
vt 0.100808 0.300890
vt 0.100808 0.300890
vt 0.100808 0.300890
vt 0.100808 0.300890
vt 0.100808 0.300890
vt 0.100808 0.300890
vt 0.100808 0.300890
vt 0.100808 0.300890
vt 0.100808 0.300890
vt 0.100808 0.300890
vt 0.100808 0.300890
vt 0.100808 0.300890
vt 0.100808 0.300890
vt 0.100808 0.300890
vt 0.100808 0.300890
vt 0.100808 0.300890
vt 0.100808 0.300890
vt 0.100808 0.300890
vt 0.100808 0.300890
vt 0.100808 0.300890
vt 0.100808 0.300890
vt 0.100808 0.300890
vt 0.100808 0.300890
vt 0.100808 0.300890
vt 0.100808 0.300890
vt 0.100808 0.300890
vt 0.100808 0.300890
vt 0.100808 0.300890
vt 0.100808 0.300890
vt 0.100808 0.300890
vt 0.100808 0.300890
vt 0.100808 0.300890
vt 0.100808 0.300890
vt 0.100808 0.300890
vt 0.100808 0.300890
vt 0.100808 0.300890
vt 0.100808 0.300890
vt 0.100808 0.300890
vt 0.100808 0.300890
vt 0.100808 0.300890
vt 0.100808 0.300890
vt 0.100808 0.300890
vt 0.100808 0.300890
vt 0.100808 0.300890
vt 0.100808 0.300890
vt 0.100808 0.300890
vt 0.100808 0.300890
vt 0.100808 0.300890
vt 0.100808 0.300890
vt 0.100808 0.300890
vt 0.100808 0.300890
vt 0.100808 0.300890
vt 0.100808 0.300890
vt 0.100808 0.300890
vt 0.100808 0.300890
vt 0.100808 0.300890
vt 0.100808 0.300890
vt 0.100808 0.300890
vt 0.100808 0.300890
vt 0.100808 0.300890
vt 0.100808 0.300890
vt 0.100808 0.300890
vt 0.100808 0.300890
vt 0.100808 0.300890
vt 0.100808 0.300890
vt 0.100808 0.300890
vt 0.249050 0.384937
vt 0.249049 0.384937
vt 0.249049 0.384948
vt 0.249050 0.384948
vt 0.249050 0.384937
vt 0.249050 0.384948
vt 0.249049 0.384937
vt 0.249049 0.384948
vt 0.249050 0.384937
vt 0.249050 0.384948
vt 0.249050 0.384937
vt 0.249050 0.384948
vt 0.249050 0.384949
vt 0.249049 0.384949
vt 0.249050 0.384949
vt 0.249050 0.384949
vt 0.249049 0.384949
vt 0.249050 0.384949
vt 0.249050 0.384949
vt 0.101619 0.301701
vt 0.101619 0.301701
vt 0.101619 0.301701
vt 0.101619 0.301701
vt 0.101619 0.301701
vt 0.101619 0.301701
vt 0.101619 0.301701
vt 0.101619 0.301701
vt 0.101619 0.301701
vt 0.101619 0.301701
vt 0.101619 0.301701
vt 0.101619 0.301701
vt 0.101619 0.301701
vt 0.101619 0.301701
vt 0.101619 0.301701
vt 0.101619 0.301701
vt 0.101619 0.301701
vt 0.101619 0.301701
vt 0.101619 0.301701
vt 0.101619 0.301701
vt 0.101619 0.301701
vt 0.101619 0.301701
vt 0.099936 0.299730
vt 0.099936 0.299730
vt 0.099936 0.299730
vt 0.099936 0.299730
vt 0.099936 0.299730
vt 0.099936 0.299730
vt 0.099936 0.299730
vt 0.099936 0.299730
vt 0.099936 0.299730
vt 0.099936 0.299730
vt 0.099936 0.299730
vt 0.099936 0.299730
vt 0.099936 0.299730
vt 0.099936 0.299730
vt 0.101619 0.301701
vt 0.101619 0.301701
vt 0.101619 0.301701
vt 0.101619 0.301701
vt 0.101619 0.301701
vt 0.101619 0.301701
vt 0.101619 0.301701
vt 0.101619 0.301701
vt 0.101619 0.301701
vt 0.101619 0.301701
vt 0.101619 0.301701
vt 0.101619 0.301701
vt 0.101619 0.301701
vt 0.101619 0.301701
vt 0.101619 0.301701
vt 0.101619 0.301701
vt 0.101619 0.301701
vt 0.101619 0.301701
vt 0.101619 0.301701
vt 0.101619 0.301701
vt 0.101619 0.301701
vt 0.101619 0.301701
vt 0.101619 0.301701
vt 0.101619 0.301701
vt 0.101619 0.301701
vt 0.101619 0.301701
vt 0.101619 0.301701
vt 0.101619 0.301701
vt 0.101619 0.301701
vt 0.101619 0.301701
vt 0.101619 0.301701
vt 0.101619 0.301701
vt 0.101619 0.301701
vt 0.101619 0.301701
vt 0.101619 0.301701
vt 0.101619 0.301701
vt 0.101619 0.301701
vt 0.101619 0.301701
vt 0.101619 0.301701
vt 0.101619 0.301701
vt 0.101619 0.301701
vn -0.043374 0.821503 0.568553
vn -0.043374 0.821503 0.568553
vn -0.043374 0.821503 0.568553
vn -0.043374 0.821503 0.568553
vn 0.042534 -0.890356 -0.453274
vn 0.042534 -0.890356 -0.453274
vn 0.042534 -0.890356 -0.453274
vn 0.042534 -0.890356 -0.453274
vn -0.024620 -0.032166 0.999179
vn -0.024620 -0.032166 0.999179
vn -0.024620 -0.032166 0.999179
vn -0.024620 -0.032166 0.999179
vn -0.996097 -0.086674 0.016677
vn -0.996097 -0.086674 0.016677
vn -0.996097 -0.086674 0.016677
vn -0.996097 -0.086674 0.016677
vn 0.994750 0.023010 0.099710
vn 0.994750 0.023010 0.099710
vn 0.994750 0.023010 0.099710
vn 0.994750 0.023010 0.099710
vn -0.072870 0.838079 0.540661
vn -0.072870 0.838079 0.540661
vn -0.072870 0.838079 0.540661
vn -0.072870 0.838079 0.540661
vn 0.071101 -0.901772 -0.426325
vn 0.071101 -0.901772 -0.426324
vn 0.071101 -0.901772 -0.426324
vn 0.071101 -0.901772 -0.426324
vn -0.041954 -0.041258 0.998267
vn -0.041954 -0.041258 0.998267
vn -0.041954 -0.041258 0.998267
vn -0.041954 -0.041258 0.998267
vn -0.992023 -0.125744 -0.008910
vn -0.992023 -0.125744 -0.008910
vn -0.992023 -0.125744 -0.008910
vn -0.992023 -0.125744 -0.008910
vn 0.990359 0.061581 0.124083
vn 0.990359 0.061581 0.124083
vn 0.990359 0.061581 0.124083
vn 0.990359 0.061581 0.124083
vn -0.043376 0.813044 0.580585
vn -0.043376 0.813044 0.580585
vn -0.043376 0.813044 0.580585
vn -0.043376 0.813044 0.580585
vn 0.042640 -0.884272 -0.465021
vn 0.042640 -0.884272 -0.465021
vn 0.042640 -0.884272 -0.465021
vn 0.042640 -0.884272 -0.465021
vn -0.024475 -0.028525 0.999293
vn -0.024475 -0.028525 0.999293
vn -0.024475 -0.028525 0.999293
vn -0.024475 -0.028525 0.999293
vn -0.996156 -0.086110 0.016078
vn -0.996156 -0.086110 0.016078
vn -0.996156 -0.086110 0.016078
vn -0.996156 -0.086110 0.016078
vn 0.994646 0.022667 0.100825
vn 0.994646 0.022667 0.100825
vn 0.994646 0.022667 0.100825
vn 0.994646 0.022667 0.100825
vn 0.000000 0.797508 0.603308
vn 0.000000 0.797508 0.603308
vn 0.000000 0.797508 0.603308
vn 0.000000 0.797508 0.603308
vn 0.000000 -0.873151 -0.487449
vn 0.000000 -0.873151 -0.487449
vn 0.000000 -0.873151 -0.487449
vn 0.000000 -0.873151 -0.487449
vn 0.000000 -0.021384 0.999771
vn 0.000000 -0.021384 0.999771
vn 0.000000 -0.021384 0.999771
vn 0.000000 -0.021384 0.999771
vn 0.997761 -0.031501 0.059004
vn 0.997761 -0.031501 0.059004
vn 0.997761 -0.031501 0.059004
vn 0.997761 -0.031501 0.059004
vn -0.997761 -0.031501 0.059004
vn -0.997761 -0.031501 0.059004
vn -0.997761 -0.031501 0.059004
vn -0.997761 -0.031501 0.059004
vn 0.043374 0.821503 0.568553
vn 0.043374 0.821503 0.568553
vn 0.043374 0.821503 0.568553
vn 0.043374 0.821503 0.568553
vn -0.042534 -0.890356 -0.453274
vn -0.042534 -0.890356 -0.453274
vn -0.042534 -0.890356 -0.453274
vn -0.042534 -0.890356 -0.453274
vn 0.024620 -0.032166 0.999179
vn 0.024620 -0.032166 0.999179
vn 0.024620 -0.032166 0.999179
vn 0.024620 -0.032166 0.999179
vn 0.996097 -0.086675 0.016677
vn 0.996097 -0.086674 0.016677
vn 0.996097 -0.086675 0.016677
vn 0.996097 -0.086675 0.016677
vn -0.994751 0.023008 0.099709
vn -0.994751 0.023008 0.099709
vn -0.994751 0.023008 0.099709
vn -0.994751 0.023008 0.099709
vn 0.072870 0.838079 0.540661
vn 0.072870 0.838079 0.540661
vn 0.072870 0.838079 0.540661
vn 0.072870 0.838079 0.540661
vn -0.071101 -0.901771 -0.426325
vn -0.071101 -0.901771 -0.426325
vn -0.071101 -0.901772 -0.426325
vn -0.071101 -0.901771 -0.426325
vn 0.041954 -0.041259 0.998267
vn 0.041954 -0.041259 0.998267
vn 0.041954 -0.041259 0.998267
vn 0.041954 -0.041259 0.998267
vn 0.992023 -0.125744 -0.008910
vn 0.992023 -0.125744 -0.008910
vn 0.992023 -0.125744 -0.008910
vn 0.992023 -0.125744 -0.008910
vn -0.990359 0.061581 0.124083
vn -0.990359 0.061581 0.124083
vn -0.990359 0.061581 0.124083
vn -0.990359 0.061581 0.124083
vn 0.043376 0.813044 0.580585
vn 0.043376 0.813044 0.580585
vn 0.043376 0.813044 0.580585
vn 0.043376 0.813044 0.580585
vn -0.042640 -0.884272 -0.465021
vn -0.042640 -0.884272 -0.465021
vn -0.042640 -0.884272 -0.465021
vn -0.042640 -0.884272 -0.465021
vn 0.024475 -0.028525 0.999293
vn 0.024475 -0.028525 0.999293
vn 0.024475 -0.028525 0.999293
vn 0.024475 -0.028525 0.999293
vn 0.996156 -0.086110 0.016078
vn 0.996156 -0.086110 0.016078
vn 0.996156 -0.086110 0.016078
vn 0.996156 -0.086110 0.016078
vn -0.994646 0.022667 0.100825
vn -0.994646 0.022667 0.100825
vn -0.994646 0.022667 0.100825
vn -0.994646 0.022667 0.100825
vn 0.000000 0.000000 -1.000000
vn 0.000000 0.000000 -1.000000
vn 0.000000 0.000000 -1.000000
vn 0.000000 0.000000 -1.000000
vn -0.905131 0.000000 -0.425134
vn -0.905131 0.000000 -0.425134
vn -0.905131 0.000000 -0.425134
vn -0.905131 0.000000 -0.425134
vn -0.780749 0.000000 0.624845
vn -0.780749 0.000000 0.624845
vn -0.780749 0.000000 0.624845
vn -0.780749 0.000000 0.624845
vn -0.000000 0.000000 1.000000
vn -0.000000 0.000000 1.000000
vn -0.000000 0.000000 1.000000
vn -0.000000 0.000000 1.000000
vn 0.780749 0.000000 0.624845
vn 0.780749 0.000000 0.624845
vn 0.780749 0.000000 0.624845
vn 0.780749 0.000000 0.624845
vn 0.905131 0.000000 -0.425133
vn 0.905131 0.000000 -0.425133
vn 0.905131 0.000000 -0.425133
vn 0.905131 0.000000 -0.425133
vn 0.000000 0.935345 -0.353738
vn 0.000000 0.935345 -0.353738
vn 0.000000 0.935345 -0.353738
vn -0.376248 0.909509 -0.176721
vn -0.376248 0.909509 -0.176721
vn -0.376248 0.909509 -0.176721
vn -0.387904 0.867844 0.310446
vn -0.387904 0.867844 0.310446
vn -0.387904 0.867844 0.310446
vn -0.000000 0.820982 0.570954
vn -0.000000 0.820982 0.570954
vn -0.000000 0.820982 0.570954
vn 0.387904 0.867844 0.310446
vn 0.387904 0.867844 0.310446
vn 0.387904 0.867844 0.310446
vn 0.376248 0.909509 -0.176721
vn 0.376248 0.909509 -0.176721
vn 0.376248 0.909509 -0.176721
vn -0.937285 -0.093404 -0.335817
vn -0.937285 -0.093404 -0.335817
vn -0.937285 -0.093404 -0.335817
vn -0.937285 -0.093404 -0.335817
vn -0.672544 0.294583 0.678900
vn -0.672544 0.294583 0.678900
vn -0.672544 0.294583 0.678900
vn -0.000000 -0.047794 0.998857
vn -0.000000 -0.047794 0.998857
vn -0.000000 -0.047794 0.998857
vn -0.000000 -0.047794 0.998857
vn 0.672545 0.294584 0.678899
vn 0.672545 0.294584 0.678899
vn 0.672545 0.294584 0.678899
vn 0.937285 -0.093404 -0.335817
vn 0.937285 -0.093404 -0.335817
vn 0.937285 -0.093404 -0.335817
vn 0.937285 -0.093404 -0.335817
vn 0.000000 -0.039823 -0.999207
vn 0.000000 -0.039823 -0.999207
vn 0.000000 -0.039823 -0.999207
vn 0.000000 -0.039823 -0.999207
vn -0.661023 0.664507 -0.348539
vn -0.661023 0.664507 -0.348539
vn -0.661023 0.664507 -0.348539
vn -0.661023 0.664507 -0.348539
vn -0.640149 0.494446 0.587990
vn -0.640149 0.494446 0.587990
vn -0.640149 0.494446 0.587990
vn -0.640149 0.494446 0.587990
vn 0.000000 0.379089 0.925360
vn 0.000000 0.379089 0.925360
vn 0.000000 0.379089 0.925360
vn 0.000000 0.379089 0.925360
vn 0.640150 0.494448 0.587987
vn 0.640150 0.494448 0.587987
vn 0.640150 0.494448 0.587987
vn 0.640150 0.494448 0.587987
vn 0.661023 0.664508 -0.348536
vn 0.661023 0.664508 -0.348536
vn 0.661023 0.664508 -0.348536
vn 0.661023 0.664508 -0.348536
vn 0.000000 0.483602 -0.875288
vn 0.000000 0.483602 -0.875288
vn 0.000000 0.483602 -0.875288
vn 0.000000 0.483602 -0.875288
vn 0.013480 0.749452 -0.661922
vn 0.008050 0.762737 -0.646659
vn 0.047722 0.657673 -0.751790
vn 0.000000 -0.781911 -0.623391
vn 0.000000 -0.781911 -0.623391
vn 0.000000 -0.781911 -0.623391
vn 0.000000 -0.781911 -0.623391
vn -0.008050 0.762735 -0.646661
vn -0.013480 0.749450 -0.661923
vn -0.047722 0.657674 -0.751789
vn 0.759505 0.231687 0.607844
vn 0.759505 0.231687 0.607844
vn 0.759505 0.231687 0.607844
vn 0.759505 0.231687 0.607844
vn -0.000000 0.223136 0.974787
vn -0.000000 0.223136 0.974787
vn -0.000000 0.223136 0.974787
vn -0.000000 0.223136 0.974787
vn -0.759505 0.231687 0.607843
vn -0.759505 0.231687 0.607843
vn -0.759505 0.231687 0.607844
vn -0.759505 0.231687 0.607844
vn -0.884612 0.211719 -0.415496
vn -0.884612 0.211719 -0.415496
vn -0.884612 0.211719 -0.415496
vn -0.884612 0.211719 -0.415496
vn 0.000000 0.223136 -0.974787
vn 0.000000 0.223136 -0.974787
vn 0.000000 0.223136 -0.974787
vn 0.000000 0.223136 -0.974787
vn 0.884612 0.211719 -0.415496
vn 0.884612 0.211719 -0.415496
vn 0.884612 0.211719 -0.415496
vn 0.884612 0.211719 -0.415496
vn 0.085827 -0.756886 -0.647887
vn 0.085827 -0.756886 -0.647887
vn 0.085827 -0.756886 -0.647887
vn 0.085827 -0.756886 -0.647887
vn -0.000000 0.502429 0.864618
vn -0.000000 0.502429 0.864618
vn -0.000000 0.502429 0.864618
vn -0.000000 0.502429 0.864618
vn -0.027828 0.626834 0.778656
vn -0.027828 0.626834 0.778656
vn -0.027828 0.626834 0.778656
vn -0.027828 0.626834 0.778656
vn 0.027828 0.626835 0.778655
vn 0.027828 0.626835 0.778655
vn 0.027828 0.626835 0.778655
vn 0.027828 0.626835 0.778655
vn -0.033643 -0.590771 0.806138
vn -0.033643 -0.590771 0.806138
vn -0.033643 -0.590771 0.806138
vn -0.033643 -0.590771 0.806138
vn 0.033643 -0.590772 0.806137
vn 0.033643 -0.590772 0.806137
vn 0.033643 -0.590772 0.806137
vn 0.033643 -0.590772 0.806137
vn -0.085827 -0.756888 -0.647884
vn -0.085827 -0.756888 -0.647884
vn -0.085827 -0.756888 -0.647884
vn -0.085827 -0.756888 -0.647884
vn 0.979509 0.197909 0.037332
vn 0.979509 0.197909 0.037332
vn 0.979509 0.197909 0.037332
vn 0.979509 0.197909 0.037332
vn -0.979510 0.197905 0.037329
vn -0.979510 0.197905 0.037329
vn -0.979510 0.197905 0.037329
vn -0.979510 0.197905 0.037329
vn -0.000000 -0.554807 0.831979
vn -0.000000 -0.554807 0.831979
vn -0.000000 -0.554807 0.831979
vn -0.000000 -0.554807 0.831979
vn 0.013480 0.749452 -0.661922
vn 0.047722 0.657673 -0.751790
vn 0.056194 0.632787 -0.772284
vn -0.047722 0.657674 -0.751789
vn -0.013480 0.749450 -0.661923
vn -0.056194 0.632788 -0.772284
s off
f 1/1/1 3/3/2 4/4/3 2/2/4
f 5/5/5 7/7/6 8/8/7 6/6/8
f 7/7/9 1/9/10 2/10/11 8/8/12
f 2/2/13 4/4/14 6/12/15 8/11/16
f 7/13/17 5/14/18 3/3/19 1/1/20
f 9/15/21 11/18/22 12/17/23 10/16/24
f 13/19/25 15/22/26 16/21/27 14/20/28
f 15/22/29 9/24/30 10/23/31 16/21/32
f 10/16/33 12/17/34 14/26/35 16/25/36
f 15/27/37 13/28/38 11/18/39 9/15/40
f 17/29/41 19/32/42 20/31/43 18/30/44
f 21/33/45 23/36/46 24/35/47 22/34/48
f 23/36/49 17/38/50 18/37/51 24/35/52
f 18/30/53 20/31/54 22/40/55 24/39/56
f 23/41/57 21/42/58 19/32/59 17/29/60
f 25/43/61 26/44/62 28/45/63 27/46/64
f 29/47/65 30/48/66 32/49/67 31/50/68
f 31/50/69 32/49/70 26/51/71 25/52/72
f 26/44/73 32/53/74 30/54/75 28/45/76
f 31/55/77 25/43/78 27/46/79 29/56/80
f 33/57/81 34/58/82 36/59/83 35/60/84
f 37/61/85 38/62/86 40/63/87 39/64/88
f 39/64/89 40/63/90 34/65/91 33/66/92
f 34/58/93 40/67/94 38/68/95 36/59/96
f 39/69/97 33/57/98 35/60/99 37/70/100
f 41/71/101 42/72/102 44/73/103 43/74/104
f 45/75/105 46/76/106 48/77/107 47/78/108
f 47/78/109 48/77/110 42/79/111 41/80/112
f 42/72/113 48/81/114 46/82/115 44/73/116
f 47/83/117 41/71/118 43/74/119 45/84/120
f 49/85/121 50/86/122 52/87/123 51/88/124
f 53/89/125 54/90/126 56/91/127 55/92/128
f 55/92/129 56/91/130 50/93/131 49/94/132
f 50/86/133 56/95/134 54/96/135 52/87/136
f 55/97/137 49/85/138 51/88/139 53/98/140
f 69/99/141 64/100/142 88/101/143 89/102/144
f 64/100/145 65/103/146 87/104/147 88/101/148
f 65/103/149 66/105/150 86/106/151 87/104/152
f 66/105/153 67/107/154 85/108/155 86/106/156
f 67/107/157 68/109/158 84/110/159 85/108/160
f 68/109/161 69/99/162 89/102/163 84/110/164
f 57/111/165 58/112/166 63/113/167
f 58/112/168 59/114/169 63/113/170
f 59/114/171 60/115/172 63/113/173
f 60/115/174 61/116/175 63/113/176
f 61/116/177 62/117/178 63/113/179
f 62/117/180 57/111/181 63/113/182
f 79/118/183 76/119/184 70/120/185 71/121/186
f 76/122/187 72/123/188 70/124/189
f 76/125/190 77/126/191 73/127/192 72/128/193
f 77/129/194 74/130/195 73/131/196
f 77/132/197 78/133/198 75/134/199 74/135/200
f 78/136/201 79/137/202 71/138/203 75/139/204
f 65/140/205 64/141/206 71/142/207 70/143/208
f 66/144/209 65/140/210 70/143/211 72/145/212
f 67/146/213 66/144/214 72/145/215 73/147/216
f 68/148/217 67/146/218 73/147/219 74/149/220
f 69/150/221 68/148/222 74/149/223 75/151/224
f 64/141/225 69/152/226 75/153/227 71/142/228
f 78/154/229 77/155/230 81/156/231
f 96/158/232 79/159/233 78/160/234 97/161/235
f 76/162/236 79/163/237 83/165/238
f 85/108/239 84/110/240 62/117/241 61/116/242
f 86/106/243 85/108/244 61/116/245 60/115/246
f 87/104/247 86/106/248 60/115/249 59/114/250
f 88/101/251 87/104/252 59/114/253 58/112/254
f 89/102/255 88/101/256 58/112/257 57/111/258
f 84/110/259 89/102/260 57/111/261 62/117/262
f 97/166/263 78/167/264 80/168/265 93/169/266
f 77/170/267 76/171/268 90/172/269 91/173/270
f 81/174/271 77/175/272 91/176/273 92/177/274
f 76/178/275 83/179/276 94/180/277 90/181/278
f 91/182/279 97/183/280 93/184/281 92/185/282
f 96/186/283 90/187/284 94/188/285 95/189/286
f 82/190/287 79/191/288 96/192/289 95/193/290
f 80/157/291 81/174/292 92/185/293 93/169/294
f 83/165/295 82/194/296 95/189/297 94/180/298
f 91/173/299 90/187/300 96/158/301 97/183/302
f 78/154/303 81/156/304 80/157/305
f 83/165/306 79/163/307 82/164/308
