# This file uses centimeters as units for non-parametric coordinates.

v -0.084015 7.834926 0.918461
v -0.717422 7.834926 -0.572911
v 0.719879 7.834926 -0.506765
v -0.444061 9.468488 -0.276787
v -0.043869 9.468488 0.596881
v 0.448273 9.468488 -0.235715
v 2.074966 0.213888 -1.355696
v 0.127701 0.000000 -2.487035
v -1.893097 0.114108 -1.433034
v -2.074982 0.000000 1.355699
v -0.004807 0.785035 1.622344
v 1.893082 0.000000 1.433038
v 3.809570 2.132556 -2.316443
v 0.295135 1.863701 -4.890173
v -3.335068 2.063284 -2.955587
v -3.713989 1.863701 2.370924
v -0.164200 2.477690 4.220419
v 3.437088 1.863701 2.656621
v 4.265594 5.520968 -2.492302
v 0.334290 5.520968 -5.234907
v -3.855270 5.242798 -3.198356
v -4.335464 5.068721 2.667338
v -0.153610 5.374999 4.388000
v 3.852600 5.520968 2.795145
v 3.077042 8.117708 -2.106236
v 0.221008 8.010246 -4.184164
v -3.114807 7.870317 -2.341434
v -3.417725 7.870317 2.361861
v -0.150711 7.179418 3.574660
v 2.774139 7.969975 2.363608
v 1.787460 8.928050 -1.211334
v 0.159607 8.963730 -2.443590
v -1.618317 9.120434 -1.218480
v -1.774704 9.120434 1.179529
v -0.081635 7.990510 1.533996
v 1.631073 8.921736 1.186671
v 0.000000 0.426050 -0.115472
v 0.000000 8.000144 0.000000
v -0.693970 0.326149 -0.549074
v 0.536972 0.274551 -0.794139
v 0.049194 0.516618 0.621576
v -0.629028 8.876002 1.992223
v -1.347305 7.838784 3.996253
v -1.657974 5.520968 5.230573
v -1.464355 2.082646 4.709939
v -0.755020 0.163986 2.354885
v 0.653122 0.096112 2.116235
v 1.097580 2.053255 4.325236
v 0.937225 5.520968 4.819365
v 0.700287 7.738668 3.787326
v 0.442947 8.693430 1.962945
vt 0.035582 0.229351
vt 0.035582 0.229351
vt 0.035582 0.229351
vt 0.035582 0.229351
vt 0.035582 0.229351
vt 0.035582 0.229351
vt 0.035582 0.229351
vt 0.035582 0.229351
vt 0.035582 0.229351
vt 0.035582 0.229351
vt 0.177948 0.188877
vt 0.177948 0.188877
vt 0.177948 0.188877
vt 0.177948 0.188877
vt 0.177948 0.188877
vt 0.177948 0.188877
vt 0.177948 0.188877
vt 0.177948 0.188877
vt 0.177948 0.188877
vt 0.177948 0.188877
vt 0.177948 0.188877
vt 0.177948 0.188877
vt 0.177948 0.188877
vt 0.177948 0.188877
vt 0.177948 0.188877
vt 0.177948 0.188877
vt 0.177948 0.188877
vt 0.177948 0.188877
vt 0.177948 0.188877
vt 0.177948 0.188877
vt 0.177948 0.188877
vt 0.177948 0.188877
vt 0.177948 0.188877
vt 0.177948 0.188877
vt 0.177948 0.188877
vt 0.177948 0.188877
vt 0.177948 0.188877
vt 0.177948 0.188877
vt 0.177948 0.188877
vt 0.177948 0.188877
vt 0.177948 0.188877
vt 0.177948 0.188877
vt 0.177948 0.188877
vt 0.177948 0.188877
vt 0.177948 0.188877
vt 0.016557 0.252766
vt 0.016557 0.252766
vt 0.016557 0.252766
vt 0.177948 0.188877
vt 0.177948 0.188877
vt 0.177948 0.188877
vt 0.177948 0.188877
vt 0.177948 0.188877
vt 0.016557 0.252766
vt 0.177948 0.188877
vt 0.177948 0.188877
vt 0.177948 0.188877
vt 0.177948 0.188877
vt 0.177948 0.188877
vt 0.177948 0.188877
vt 0.177948 0.188877
vt 0.177948 0.188877
vt 0.177948 0.188877
vt 0.177948 0.188877
vt 0.177948 0.188877
vt 0.177948 0.188877
vt 0.177948 0.188877
vt 0.177948 0.188877
vt 0.177948 0.188877
vt 0.177948 0.188877
vt 0.177948 0.188877
vt 0.177948 0.188877
vt 0.177948 0.188877
vt 0.177948 0.188877
vt 0.177948 0.188877
vn -0.912540 0.090673 0.398810
vn -0.912540 0.090673 0.398810
vn -0.912540 0.090673 0.398810
vn -0.912540 0.090673 0.398810
vn 0.865208 0.068977 0.496647
vn 0.865208 0.068977 0.496647
vn 0.865208 0.068977 0.496647
vn 0.865208 0.068977 0.496647
vn 0.045299 0.170843 -0.984256
vn 0.045299 0.170843 -0.984257
vn 0.045299 0.170843 -0.984256
vn 0.045299 0.170843 -0.984257
vn 0.437027 -0.710400 -0.551669
vn 0.437028 -0.710400 -0.551669
vn 0.437027 -0.710400 -0.551669
vn 0.437027 -0.710400 -0.551669
vn -0.352612 -0.725890 -0.590549
vn -0.352612 -0.725890 -0.590549
vn -0.352612 -0.725890 -0.590549
vn -0.352612 -0.725890 -0.590549
vn -0.770376 -0.632838 -0.077699
vn -0.770376 -0.632838 -0.077699
vn -0.770376 -0.632838 -0.077699
vn -0.770376 -0.632838 -0.077699
vn 0.608969 -0.586278 0.534261
vn 0.608969 -0.586278 0.534261
vn 0.608969 -0.586278 0.534261
vn 0.608969 -0.586278 0.534261
vn -0.543259 -0.652842 0.527890
vn -0.543259 -0.652842 0.527889
vn -0.543259 -0.652842 0.527889
vn -0.543259 -0.652842 0.527889
vn 0.755116 -0.655459 0.013166
vn 0.755116 -0.655459 0.013166
vn 0.755116 -0.655459 0.013166
vn 0.755116 -0.655459 0.013166
vn 0.580549 -0.100503 -0.807999
vn 0.580549 -0.100503 -0.807999
vn 0.580549 -0.100503 -0.807999
vn 0.580549 -0.100503 -0.807999
vn -0.449291 -0.107823 -0.886855
vn -0.449291 -0.107823 -0.886855
vn -0.449291 -0.107823 -0.886855
vn -0.449291 -0.107823 -0.886855
vn -0.981256 -0.174786 -0.081157
vn -0.981256 -0.174786 -0.081157
vn -0.981256 -0.174786 -0.081157
vn -0.981256 -0.174786 -0.081157
vn 0.433636 -0.084919 0.897078
vn 0.433636 -0.084919 0.897078
vn 0.433636 -0.084919 0.897078
vn 0.433636 -0.084919 0.897078
vn -0.232867 -0.105979 0.966717
vn -0.232867 -0.105979 0.966717
vn -0.232867 -0.105979 0.966717
vn -0.232867 -0.105979 0.966717
vn 0.989865 -0.122060 0.072579
vn 0.989866 -0.122060 0.072579
vn 0.989865 -0.122060 0.072579
vn 0.989866 -0.122060 0.072579
vn 0.537853 0.353838 -0.765188
vn 0.537853 0.353838 -0.765188
vn 0.537853 0.353838 -0.765188
vn 0.537853 0.353838 -0.765188
vn -0.443154 0.360345 -0.820833
vn -0.443154 0.360345 -0.820833
vn -0.443154 0.360345 -0.820833
vn -0.443154 0.360345 -0.820832
vn -0.952438 0.297571 -0.065670
vn -0.952438 0.297571 -0.065670
vn -0.952438 0.297571 -0.065670
vn -0.952438 0.297571 -0.065670
vn 0.481404 0.360286 0.799027
vn 0.481404 0.360286 0.799027
vn 0.481404 0.360286 0.799027
vn 0.481404 0.360286 0.799027
vn -0.409014 0.360766 0.838186
vn -0.409014 0.360766 0.838186
vn -0.409014 0.360766 0.838186
vn -0.409014 0.360766 0.838186
vn 0.909488 0.409283 0.072926
vn 0.909488 0.409283 0.072926
vn 0.909488 0.409283 0.072926
vn 0.909488 0.409283 0.072926
vn 0.297195 0.856915 -0.421155
vn 0.297195 0.856915 -0.421155
vn 0.297195 0.856915 -0.421155
vn 0.297195 0.856915 -0.421155
vn -0.290107 0.823176 -0.488077
vn -0.290107 0.823176 -0.488077
vn -0.290107 0.823176 -0.488077
vn -0.290107 0.823176 -0.488077
vn -0.622926 0.781243 -0.040290
vn -0.622926 0.781243 -0.040290
vn -0.622926 0.781243 -0.040290
vn -0.622926 0.781243 -0.040290
vn 0.712394 0.575474 0.401652
vn 0.712394 0.575474 0.401652
vn 0.712394 0.575474 0.401652
vn 0.712394 0.575474 0.401652
vn -0.717240 0.619945 0.318175
vn -0.717240 0.619945 0.318175
vn -0.717240 0.619945 0.318175
vn -0.717240 0.619945 0.318175
vn 0.581320 0.811670 0.057082
vn 0.581320 0.811670 0.057082
vn 0.581320 0.811670 0.057082
vn 0.581320 0.811670 0.057082
vn 0.002923 -0.975480 0.220069
vn 0.002923 -0.975480 0.220069
vn 0.002923 -0.975480 0.220069
vn 0.069449 -0.990689 0.117100
vn 0.069449 -0.990689 0.117100
vn 0.069449 -0.990689 0.117100
vn -0.115205 -0.984966 0.128722
vn -0.115205 -0.984966 0.128722
vn -0.115205 -0.984966 0.128722
vn -0.239428 0.908461 0.342597
vn -0.239428 0.908461 0.342597
vn -0.239428 0.908461 0.342597
vn 0.328290 0.871211 0.364989
vn 0.328290 0.871211 0.364989
vn 0.328290 0.871211 0.364989
vn 0.550403 0.834127 0.035895
vn 0.550403 0.834127 0.035895
vn 0.550403 0.834127 0.035895
vn 0.860714 0.506727 0.048987
vn 0.860714 0.506727 0.048987
vn 0.860714 0.506727 0.048987
vn -0.789536 0.612516 -0.038171
vn -0.789536 0.612516 -0.038171
vn -0.789536 0.612516 -0.038171
vn -0.475808 0.879080 -0.028715
vn -0.475808 0.879080 -0.028715
vn -0.475808 0.879080 -0.028715
vn 0.019291 -0.984578 0.173879
vn 0.019291 -0.984578 0.173879
vn 0.019291 -0.984578 0.173879
vn 0.019291 -0.984578 0.173879
vn 0.017943 -0.987621 0.155833
vn 0.017943 -0.987621 0.155833
vn 0.017943 -0.987620 0.155833
vn -0.166797 -0.985789 -0.019960
vn -0.166797 -0.985789 -0.019960
vn -0.166797 -0.985789 -0.019960
vn -0.166797 -0.985789 -0.019960
vn -0.761745 -0.634869 0.129175
vn -0.761745 -0.634869 0.129175
vn -0.761745 -0.634869 0.129175
vn 0.737581 -0.641191 0.211774
vn 0.737581 -0.641191 0.211774
vn 0.737581 -0.641191 0.211774
vn 0.193681 -0.980679 -0.027495
vn 0.193681 -0.980679 -0.027495
vn 0.193681 -0.980679 -0.027495
vn 0.379777 0.885046 -0.269189
vn 0.379777 0.885046 -0.269189
vn 0.379777 0.885046 -0.269189
vn -0.254667 0.865046 0.432251
vn -0.254667 0.865046 0.432251
vn -0.254667 0.865046 0.432251
vn -0.254667 0.865046 0.432251
vn -0.636022 0.358195 0.683500
vn -0.636022 0.358195 0.683500
vn -0.636022 0.358195 0.683500
vn -0.636022 0.358195 0.683500
vn -0.683098 -0.171132 0.709994
vn -0.683098 -0.171132 0.709994
vn -0.683098 -0.171132 0.709994
vn -0.683098 -0.171132 0.709994
vn -0.419356 -0.735067 0.532745
vn -0.419356 -0.735067 0.532745
vn -0.419356 -0.735067 0.532745
vn -0.419356 -0.735067 0.532745
vn 0.219748 -0.974285 -0.049786
vn 0.219748 -0.974285 -0.049786
vn 0.219748 -0.974285 -0.049786
vn 0.219748 -0.974285 -0.049786
vn -0.183176 -0.963148 -0.196958
vn -0.183176 -0.963148 -0.196958
vn -0.183176 -0.963148 -0.196958
vn 0.339885 -0.720216 0.604787
vn 0.339885 -0.720216 0.604787
vn 0.339885 -0.720216 0.604787
vn 0.339885 -0.720216 0.604787
vn 0.570237 -0.092895 0.816211
vn 0.570236 -0.092895 0.816211
vn 0.570237 -0.092895 0.816211
vn 0.570237 -0.092895 0.816211
vn 0.512514 0.385152 0.767455
vn 0.512514 0.385152 0.767455
vn 0.512514 0.385152 0.767455
vn 0.512514 0.385152 0.767455
vn 0.189485 0.866421 0.461963
vn 0.189485 0.866421 0.461963
vn 0.189485 0.866421 0.461963
vn 0.189485 0.866421 0.461963
vn -0.335240 0.909559 -0.245596
vn -0.335240 0.909559 -0.245596
vn -0.335240 0.909559 -0.245596
vn 0.000000 1.000000 0.000001
vn 0.000000 1.000000 0.000001
vn 0.000000 1.000000 0.000001
s off
f 2/5/1 1/1/2 5/8/3 4/6/4
f 6/10/5 5/8/6 1/1/7 3/4/8
f 4/7/9 6/9/10 3/3/11 2/2/12
f 7/11/13 8/12/14 14/13/15 13/14/16
f 8/12/17 9/15/18 15/16/19 14/13/20
f 9/15/21 10/17/22 16/18/23 15/16/24
f 45/68/25 46/69/26 11/19/27 17/20/28
f 11/19/29 47/70/30 48/71/31 17/20/32
f 12/21/33 7/23/34 13/24/35 18/22/36
f 13/14/37 14/13/38 20/25/39 19/26/40
f 14/13/41 15/16/42 21/27/43 20/25/44
f 15/16/45 16/18/46 22/28/47 21/27/48
f 44/67/49 45/68/50 17/20/51 23/29/52
f 17/20/53 48/71/54 49/73/55 23/29/56
f 18/22/57 13/24/58 19/31/59 24/30/60
f 19/32/61 20/33/62 26/34/63 25/35/64
f 20/33/65 21/36/66 27/37/67 26/34/68
f 21/36/69 22/38/70 28/39/71 27/37/72
f 43/65/73 44/66/74 23/40/75 29/41/76
f 23/40/77 49/72/78 50/74/79 29/41/80
f 24/42/81 19/32/82 25/35/83 30/43/84
f 25/35/85 26/34/86 32/44/87 31/45/88
f 26/34/89 27/37/90 33/49/91 32/44/92
f 27/37/93 28/39/94 34/50/95 33/49/96
f 42/64/97 43/65/98 29/41/99 35/51/100
f 29/41/101 50/74/102 51/75/103 35/51/104
f 30/43/105 25/35/106 31/45/107 36/52/108
f 39/46/109 40/47/110 37/48/111
f 41/54/112 39/46/113 37/48/114
f 40/47/115 41/54/116 37/48/117
f 31/45/118 32/44/119 38/53/120
f 32/44/121 33/49/122 38/53/123
f 33/49/124 34/50/125 38/53/126
f 38/53/127 42/64/128 35/51/129
f 35/51/130 51/75/131 38/53/132
f 36/52/133 31/45/134 38/53/135
f 9/15/136 8/12/137 40/58/138 39/55/139
f 8/12/140 7/11/141 40/57/142
f 7/23/143 12/21/144 41/61/145 40/59/146
f 41/60/147 47/70/148 11/19/149
f 11/19/150 46/69/151 41/62/152
f 10/17/153 9/15/154 39/56/155
f 34/50/156 42/64/157 38/53/158
f 28/39/159 43/65/160 42/64/161 34/50/162
f 22/38/163 44/66/164 43/65/165 28/39/166
f 16/18/167 45/68/168 44/67/169 22/28/170
f 10/17/171 46/69/172 45/68/173 16/18/174
f 41/62/175 46/69/176 10/17/177 39/63/178
f 12/21/179 47/70/180 41/60/181
f 48/71/182 47/70/183 12/21/184 18/22/185
f 49/73/186 48/71/187 18/22/188 24/30/189
f 50/74/190 49/72/191 24/42/192 30/43/193
f 51/75/194 50/74/195 30/43/196 36/52/197
f 38/53/198 51/75/199 36/52/200
f 5/8/201 6/9/202 4/6/203
