# This file uses centimeters as units for non-parametric coordinates.

v 23.292984 7.231979 -49.341431
v 23.162323 8.827648 -49.122192
v 24.924118 7.099051 -49.486267
v 25.925110 8.538546 -49.410889
v 24.501221 9.738102 -49.214600
v 25.410507 6.136978 -48.380127
v 23.025314 6.336679 -48.166260
v 22.826309 8.708580 -47.806396
v 24.812531 10.060228 -47.898254
v 26.882309 8.270285 -48.133179
v 24.349808 8.357128 -49.571777
v 25.690918 4.352049 -20.772949
v 24.484604 8.060432 -49.083069
v 27.488220 11.739649 -26.223145
v 27.376740 16.712696 -43.748535
v 27.050308 9.381479 -22.459717
v 26.386459 14.118864 -47.186035
v 19.895630 15.915298 -43.575317
v 22.131470 11.168669 -26.099487
v 23.226883 8.973974 -22.371338
v 21.446564 13.594740 -47.092773
v 23.711426 -1.228737 -27.571411
v 21.762436 -2.041884 -45.608887
v 24.181076 -0.203310 -23.410767
v 22.690338 1.766680 -48.389038
v 16.446411 3.096955 -44.727966
v 19.288895 1.672865 -27.041382
v 21.198151 2.196484 -23.043701
v 18.850342 4.841684 -47.879517
v 18.735046 6.998899 -26.438110
v 15.152283 10.091945 -44.048645
v 21.351212 5.867626 -22.955200
v 18.330673 9.739977 -47.354858
v 29.243683 -1.244505 -45.782043
v 28.825073 -1.118484 -27.679321
v 28.004379 0.204218 -23.499146
v 27.607620 2.282829 -48.514099
v 31.267548 8.194294 -26.847046
v 33.213425 12.017008 -44.466492
v 30.033173 6.981693 -22.826660
v 30.239868 11.019047 -47.663269
v 32.221390 3.051310 -27.340576
v 33.986771 4.578882 -45.308899
v 30.428452 3.180328 -23.257324
v 30.298569 6.239172 -47.920654
v 23.311340 -1.306713 -34.842712
v 29.048035 -0.695255 -34.975464
v 32.685196 3.770216 -34.612610
v 32.092209 9.473909 -33.966614
v 27.616440 13.074667 -33.416016
v 21.879700 12.463215 -33.283203
v 18.242706 7.997707 -33.646179
v 18.835526 2.294052 -34.292053
v 22.384659 -2.071749 -39.927429
v 29.547211 -1.309898 -40.094482
v 34.086273 4.266621 -39.639282
v 33.341736 11.383627 -38.829834
v 27.756653 15.871599 -38.140625
v 20.729706 14.532526 -38.040466
v 16.065506 9.540692 -38.428345
v 16.801865 2.425534 -39.236206
v 21.573441 6.841816 -22.738159
v 20.984985 4.956705 -22.924072
v 22.473877 -0.937965 -27.438477
v 23.427139 -1.569853 -31.615173
v 24.869827 -1.558923 -27.590088
v 31.855743 7.356953 -26.855957
v 31.828262 8.765612 -31.277344
v 30.898315 9.098888 -26.631470
v 30.052292 5.665520 -48.240479
v 30.422684 6.921350 -48.117859
v 15.802567 4.089429 -44.729248
v 16.820953 2.067822 -44.986450
v 21.966034 15.427624 -37.985596
v 19.536346 13.928209 -38.065674
v 28.590622 6.097467 -24.427002
v 26.657303 1.859409 -25.029053
v 25.885895 7.491396 -23.627075
v 23.166306 5.869808 -23.497803
v 25.591675 6.752531 -18.285156
v 22.886429 5.142485 -18.432007
v 27.683197 4.336250 -18.503906
v 26.540924 1.118803 -18.739380
v 22.999786 1.987322 -18.545410
v 23.310501 2.741589 -24.229004
v 29.443771 4.800220 -20.506714
v 26.376022 8.327967 -20.190186
v 22.340897 5.945343 -20.461426
v 22.495071 1.268629 -20.702637
v 27.701752 0.064503 -21.069824
v 21.477539 5.418961 -11.329590
v 23.955719 3.719397 -10.220215
v 24.299347 0.435099 -11.118774
v 20.077606 3.232761 -13.116577
v 21.264984 0.305216 -13.145264
v 15.199249 5.320756 -7.296509
v 16.409500 3.278769 -5.145508
v 16.411621 -0.079052 -5.806641
v 14.380280 3.293975 -9.566650
v 14.764771 0.200438 -9.053223
v -0.000031 0.000007 0.000000
vt 0.154709 0.302352
vt 0.154709 0.302352
vt 0.154709 0.302352
vt 0.154709 0.302352
vt 0.154709 0.302352
vt 0.154709 0.302352
vt 0.154709 0.302352
vt 0.154709 0.302352
vt 0.154709 0.302352
vt 0.154709 0.302352
vt 0.154709 0.302352
vt 0.177237 0.375312
vt 0.177237 0.375312
vt 0.177237 0.375312
vt 0.177237 0.375312
vt 0.177237 0.375312
vt 0.177237 0.375312
vt 0.177237 0.375312
vt 0.177237 0.375312
vt 0.177237 0.375312
vt 0.177237 0.375312
vt 0.177237 0.375312
vt 0.177237 0.375312
vt 0.177237 0.375312
vt 0.177237 0.375312
vt 0.177237 0.375312
vt 0.177237 0.375312
vt 0.177237 0.375312
vt 0.177237 0.375312
vt 0.177237 0.375312
vt 0.177237 0.375312
vt 0.177237 0.375312
vt 0.177237 0.375312
vt 0.177237 0.375312
vt 0.177237 0.375312
vt 0.177237 0.375312
vt 0.177237 0.375312
vt 0.177237 0.375312
vt 0.177237 0.375312
vt 0.177237 0.375312
vt 0.177237 0.375312
vt 0.177237 0.375312
vt 0.177237 0.375312
vt 0.177237 0.375312
vt 0.177237 0.375312
vt 0.177237 0.375312
vt 0.177237 0.375312
vt 0.177237 0.375312
vt 0.177237 0.375312
vt 0.177237 0.375312
vt 0.177237 0.375312
vt 0.177237 0.375312
vt 0.177237 0.375312
vt 0.177237 0.375312
vt 0.177237 0.375312
vt 0.177237 0.375312
vt 0.177237 0.375312
vt 0.177237 0.375312
vt 0.177237 0.375312
vt 0.177237 0.375312
vt 0.177237 0.375312
vt 0.177237 0.375312
vt 0.177237 0.375312
vt 0.177237 0.375312
vt 0.177237 0.375312
vt 0.177237 0.375312
vt 0.177237 0.375312
vt 0.177237 0.375312
vt 0.177237 0.375312
vt 0.177237 0.375312
vt 0.177237 0.375312
vt 0.177237 0.375312
vt 0.177237 0.375312
vt 0.177237 0.375312
vt 0.177237 0.375312
vt 0.177237 0.375312
vt 0.177237 0.375312
vt 0.177237 0.375312
vt 0.177237 0.375312
vt 0.177237 0.375312
vt 0.177237 0.375312
vt 0.177237 0.375312
vt 0.177237 0.375312
vt 0.177237 0.375312
vt 0.177237 0.375312
vt 0.177237 0.375312
vt 0.177237 0.375312
vt 0.177237 0.375312
vt 0.177237 0.375312
vt 0.145370 0.257196
vt 0.145370 0.257196
vt 0.145370 0.257196
vt 0.145370 0.257196
vt 0.145370 0.257196
vt 0.145370 0.257196
vt 0.145370 0.257196
vt 0.145370 0.257196
vt 0.145370 0.257196
vt 0.145370 0.257196
vt 0.145370 0.257196
vt 0.145370 0.257196
vt 0.145370 0.257196
vt 0.145370 0.257196
vt 0.145370 0.257196
vt 0.145370 0.257196
vt 0.145370 0.257196
vt 0.145370 0.257196
vt 0.145370 0.257196
vt 0.145371 0.257196
vt 0.145370 0.257196
vt 0.145370 0.257196
vt 0.145370 0.257196
vt 0.145370 0.257196
vt 0.145370 0.257196
vt 0.145370 0.257196
vn -0.966742 -0.043542 -0.252021
vn -0.966742 -0.043542 -0.252021
vn -0.966742 -0.043542 -0.252021
vn -0.966742 -0.043542 -0.252021
vn -0.096905 -0.111460 -0.989033
vn -0.096905 -0.111460 -0.989033
vn -0.096905 -0.111460 -0.989033
vn 0.671561 -0.409061 -0.617798
vn 0.671561 -0.409061 -0.617798
vn 0.671561 -0.409061 -0.617798
vn 0.671561 -0.409061 -0.617798
vn 0.596567 0.741475 -0.307121
vn 0.596567 0.741475 -0.307121
vn 0.596567 0.741475 -0.307121
vn 0.596567 0.741475 -0.307121
vn -0.119592 -0.775498 -0.619920
vn -0.119592 -0.775498 -0.619920
vn -0.119592 -0.775498 -0.619920
vn -0.119592 -0.775498 -0.619920
vn -0.563756 0.823072 -0.068788
vn -0.563756 0.823072 -0.068788
vn -0.563756 0.823072 -0.068788
vn -0.563756 0.823072 -0.068788
vn 0.103882 -0.020166 -0.994385
vn 0.103882 -0.020166 -0.994385
vn 0.103882 -0.020166 -0.994385
vn -0.246466 0.267918 -0.931383
vn -0.246466 0.267918 -0.931383
vn -0.246466 0.267918 -0.931383
vn 0.070895 0.242479 -0.967563
vn 0.070895 0.242479 -0.967563
vn 0.070895 0.242479 -0.967563
vn -0.315966 0.103703 -0.943086
vn -0.315966 0.103703 -0.943086
vn -0.315966 0.103703 -0.943086
vn 0.599278 0.680845 0.421090
vn 0.599278 0.680845 0.421090
vn 0.599278 0.680845 0.421090
vn 0.599278 0.680845 0.421090
vn 0.891323 0.278578 0.357684
vn 0.891323 0.278578 0.357684
vn 0.891323 0.278578 0.357684
vn 0.445531 0.648449 -0.617265
vn 0.445531 0.648449 -0.617265
vn 0.445531 0.648449 -0.617265
vn 0.445531 0.648449 -0.617265
vn -0.917386 -0.137480 0.373500
vn -0.917386 -0.137480 0.373500
vn -0.917386 -0.137480 0.373500
vn -0.917386 -0.137480 0.373500
vn -0.710300 0.307212 0.633321
vn -0.710300 0.307212 0.633321
vn -0.710300 0.307212 0.633321
vn -0.719814 -0.000504 -0.694167
vn -0.719814 -0.000504 -0.694167
vn -0.719814 -0.000504 -0.694167
vn -0.719814 -0.000504 -0.694167
vn -0.411965 0.794941 0.445369
vn -0.411965 0.794941 0.445369
vn -0.411966 0.794941 0.445369
vn -0.791704 0.044864 0.609255
vn -0.791704 0.044864 0.609255
vn -0.791704 0.044864 0.609255
vn -0.589217 0.525140 -0.614046
vn -0.589217 0.525140 -0.614046
vn -0.589217 0.525140 -0.614046
vn -0.589217 0.525140 -0.614046
vn 0.107943 -0.985782 0.128768
vn 0.107943 -0.985782 0.128768
vn 0.107943 -0.985783 0.128768
vn 0.107943 -0.985783 0.128768
vn -0.260929 -0.930056 0.258673
vn -0.260929 -0.930056 0.258673
vn -0.260929 -0.930056 0.258673
vn 0.044032 -0.597414 -0.800723
vn 0.044032 -0.597414 -0.800723
vn 0.044032 -0.597414 -0.800723
vn 0.044032 -0.597414 -0.800723
vn -0.594200 -0.772440 0.224195
vn -0.594200 -0.772440 0.224195
vn -0.594200 -0.772440 0.224195
vn -0.594200 -0.772440 0.224195
vn -0.195059 -0.946954 0.255403
vn -0.195059 -0.946954 0.255403
vn -0.195059 -0.946954 0.255403
vn -0.465361 -0.448568 -0.763037
vn -0.465361 -0.448568 -0.763037
vn -0.465361 -0.448568 -0.763037
vn -0.465361 -0.448568 -0.763037
vn 0.959286 0.068986 0.273883
vn 0.959286 0.068986 0.273883
vn 0.959286 0.068986 0.273883
vn 0.959286 0.068986 0.273883
vn 0.453308 -0.053664 0.889737
vn 0.453308 -0.053664 0.889737
vn 0.453308 -0.053664 0.889737
vn 0.755222 0.526354 0.390630
vn 0.755222 0.526354 0.390630
vn 0.755222 0.526354 0.390630
vn 0.685271 0.137216 -0.715245
vn 0.685271 0.137216 -0.715245
vn 0.685271 0.137216 -0.715245
vn 0.685271 0.137216 -0.715245
vn 0.760701 -0.631572 0.149837
vn 0.760701 -0.631572 0.149837
vn 0.760701 -0.631572 0.149837
vn 0.760701 -0.631572 0.149837
vn 0.717270 -0.611380 0.334272
vn 0.717270 -0.611380 0.334272
vn 0.717270 -0.611380 0.334272
vn 0.717270 -0.611380 0.334272
vn 0.517060 -0.339982 -0.785532
vn 0.517060 -0.339982 -0.785532
vn 0.517060 -0.339982 -0.785532
vn 0.517060 -0.339982 -0.785532
vn -0.271260 -0.957316 0.099826
vn -0.271260 -0.957316 0.099826
vn -0.271260 -0.957316 0.099826
vn -0.217736 -0.971153 0.097230
vn -0.217736 -0.971153 0.097230
vn -0.217736 -0.971153 0.097230
vn -0.992626 -0.109163 0.052694
vn -0.992626 -0.109163 0.052694
vn -0.992626 -0.109163 0.052694
vn -0.992626 -0.109163 0.052694
vn -0.773358 0.618641 0.138567
vn -0.773358 0.618641 0.138567
vn -0.773358 0.618641 0.138567
vn -0.773358 0.618641 0.138567
vn 0.926590 0.339824 0.161095
vn 0.926590 0.339824 0.161095
vn 0.926590 0.339824 0.161095
vn 0.806547 0.564704 0.174902
vn 0.806547 0.564704 0.174902
vn 0.806548 0.564704 0.174902
vn 0.775800 -0.630847 -0.012886
vn 0.775800 -0.630847 -0.012886
vn 0.775800 -0.630847 -0.012886
vn 0.775800 -0.630847 -0.012886
vn -0.051115 0.313004 -0.948375
vn -0.051115 0.313004 -0.948375
vn -0.051115 0.313004 -0.948375
vn 0.097941 0.269251 -0.958077
vn 0.097941 0.269251 -0.958077
vn 0.097941 0.269251 -0.958077
vn -0.078404 0.848865 0.522763
vn -0.078404 0.848865 0.522763
vn -0.078404 0.848865 0.522763
vn -0.078404 0.848865 0.522763
vn -0.100147 0.978583 0.179849
vn -0.100147 0.978583 0.179849
vn -0.100147 0.978583 0.179849
vn -0.100147 0.978583 0.179849
vn -0.538787 0.717080 0.442159
vn -0.538787 0.717080 0.442159
vn -0.538787 0.717080 0.442159
vn -0.098502 0.808959 -0.579553
vn -0.098502 0.808959 -0.579553
vn -0.098502 0.808959 -0.579553
vn -0.098502 0.808959 -0.579553
vn 0.298860 0.229852 0.926203
vn 0.298860 0.229852 0.926203
vn 0.298860 0.229852 0.926203
vn -0.012315 0.320940 0.947020
vn -0.012315 0.320940 0.947020
vn -0.012315 0.320940 0.947020
vn -0.471830 -0.087822 0.877305
vn -0.471830 -0.087822 0.877305
vn -0.471830 -0.087822 0.877305
vn -0.014204 -0.105596 -0.994308
vn -0.014204 -0.105596 -0.994308
vn -0.014204 -0.105596 -0.994308
vn -0.176778 -0.057951 -0.982543
vn -0.176778 -0.057951 -0.982543
vn -0.176778 -0.057951 -0.982543
vn -0.388426 0.186995 0.902307
vn -0.388426 0.186995 0.902307
vn -0.388426 0.186995 0.902307
vn -0.236212 -0.427111 0.872800
vn -0.236212 -0.427111 0.872800
vn -0.236212 -0.427111 0.872800
vn -0.250076 0.076849 -0.965172
vn -0.250076 0.076849 -0.965172
vn -0.250076 0.076849 -0.965172
vn -0.204446 0.229951 -0.951485
vn -0.204446 0.229951 -0.951485
vn -0.204446 0.229951 -0.951485
vn 0.074927 -0.518182 0.851982
vn 0.074927 -0.518182 0.851982
vn 0.074927 -0.518182 0.851982
vn 0.360563 -0.363478 0.858998
vn 0.360563 -0.363478 0.858998
vn 0.360563 -0.363478 0.858998
vn 0.181067 0.116415 -0.976556
vn 0.181067 0.116415 -0.976556
vn 0.181067 0.116415 -0.976556
vn 0.140546 -0.021507 -0.989841
vn 0.140546 -0.021507 -0.989841
vn 0.140546 -0.021507 -0.989841
vn 0.105475 -0.994278 -0.016919
vn 0.105475 -0.994278 -0.016919
vn 0.105475 -0.994278 -0.016919
vn 0.105475 -0.994278 -0.016919
vn 0.776474 -0.628284 -0.048447
vn 0.776474 -0.628284 -0.048447
vn 0.776474 -0.628284 -0.048447
vn 0.776474 -0.628284 -0.048447
vn 0.994411 0.104980 -0.011256
vn 0.994411 0.104980 -0.011256
vn 0.994411 0.104980 -0.011256
vn 0.994411 0.104980 -0.011256
vn 0.630388 0.772854 0.072851
vn 0.630388 0.772854 0.072851
vn 0.630388 0.772854 0.072851
vn 0.630388 0.772854 0.072851
vn -0.571250 0.771926 0.278934
vn -0.571250 0.771926 0.278934
vn -0.571250 0.771926 0.278934
vn -0.438466 0.854190 0.279477
vn -0.438466 0.854190 0.279477
vn -0.438466 0.854190 0.279477
vn -0.982089 -0.120272 0.145037
vn -0.982089 -0.120272 0.145037
vn -0.982089 -0.120272 0.145037
vn -0.982089 -0.120272 0.145037
vn -0.627947 -0.776283 0.055393
vn -0.627947 -0.776283 0.055393
vn -0.627947 -0.776282 0.055393
vn -0.627947 -0.776283 0.055393
vn -0.365118 0.124412 0.922610
vn -0.365118 0.124412 0.922610
vn -0.365118 0.124412 0.922611
vn -0.692405 0.496206 0.523789
vn -0.692405 0.496206 0.523789
vn -0.692405 0.496206 0.523789
vn -0.692405 0.496206 0.523789
vn -0.878492 -0.124563 0.461234
vn -0.878492 -0.124563 0.461234
vn -0.878492 -0.124563 0.461234
vn -0.878492 -0.124563 0.461234
vn -0.422275 -0.071774 0.903622
vn -0.422275 -0.071774 0.903622
vn -0.422275 -0.071774 0.903621
vn -0.558340 -0.743445 0.368165
vn -0.558340 -0.743445 0.368165
vn -0.558340 -0.743445 0.368165
vn -0.558340 -0.743445 0.368165
vn -0.634918 -0.772105 -0.027052
vn -0.634918 -0.772105 -0.027052
vn -0.634918 -0.772105 -0.027052
vn -0.634918 -0.772105 -0.027052
vn 0.118578 -0.991740 -0.048893
vn 0.118578 -0.991740 -0.048893
vn 0.118578 -0.991740 -0.048893
vn 0.118578 -0.991740 -0.048893
vn 0.109874 -0.940614 0.321205
vn 0.109874 -0.940614 0.321205
vn 0.109874 -0.940614 0.321205
vn 0.109874 -0.940614 0.321205
vn -0.629343 -0.776061 -0.040692
vn -0.629343 -0.776061 -0.040692
vn -0.629343 -0.776061 -0.040692
vn 0.103673 -0.991014 -0.084516
vn 0.103673 -0.991014 -0.084516
vn 0.103673 -0.991014 -0.084516
vn 0.912233 0.039587 0.407755
vn 0.912233 0.039587 0.407755
vn 0.912233 0.039587 0.407755
vn 0.912233 0.039587 0.407755
vn 0.992623 0.107250 0.056552
vn 0.992622 0.107250 0.056552
vn 0.992623 0.107250 0.056552
vn 0.992622 0.107250 0.056552
vn 0.653556 0.747042 0.121627
vn 0.653556 0.747042 0.121627
vn 0.653556 0.747042 0.121627
vn 0.653556 0.747042 0.121627
vn 0.576368 0.656078 0.487198
vn 0.576368 0.656078 0.487198
vn 0.576368 0.656078 0.487198
vn 0.576368 0.656078 0.487198
vn 0.988701 0.089141 0.120517
vn 0.988701 0.089141 0.120517
vn 0.988701 0.089141 0.120517
vn 0.624901 0.737670 0.255620
vn 0.624901 0.737671 0.255620
vn 0.624901 0.737671 0.255620
vn 0.291623 0.367225 -0.883234
vn 0.291623 0.367225 -0.883234
vn 0.291623 0.367225 -0.883234
vn 0.618070 0.163366 -0.768961
vn 0.618070 0.163366 -0.768961
vn 0.618070 0.163366 -0.768961
vn 0.446039 -0.322505 -0.834889
vn 0.446039 -0.322505 -0.834889
vn 0.446039 -0.322505 -0.834889
vn 0.098419 -0.292846 -0.951081
vn 0.098419 -0.292846 -0.951081
vn 0.098419 -0.292846 -0.951081
vn -0.610480 -0.396919 -0.685397
vn -0.610480 -0.396919 -0.685397
vn -0.610480 -0.396919 -0.685397
vn -0.838861 -0.544208 -0.012239
vn -0.838861 -0.544208 -0.012239
vn -0.838861 -0.544208 -0.012239
vn -0.938047 -0.346018 0.018411
vn -0.938047 -0.346018 0.018411
vn -0.938047 -0.346018 0.018411
vn -0.758198 -0.114726 -0.641852
vn -0.758198 -0.114727 -0.641852
vn -0.758198 -0.114727 -0.641852
vn -0.065056 0.852153 0.519232
vn -0.065057 0.852153 0.519233
vn -0.065056 0.852153 0.519233
vn -0.065057 0.852153 0.519233
vn -0.088908 0.986638 0.136535
vn -0.088908 0.986637 0.136535
vn -0.088908 0.986637 0.136535
vn -0.088908 0.986638 0.136535
vn -0.773878 0.608043 0.177189
vn -0.773878 0.608043 0.177189
vn -0.773878 0.608043 0.177189
vn -0.773878 0.608043 0.177189
vn -0.697643 0.519694 0.493167
vn -0.697643 0.519694 0.493167
vn -0.697643 0.519694 0.493167
vn -0.697643 0.519694 0.493167
vn -0.479214 0.763707 0.432558
vn -0.479214 0.763707 0.432558
vn -0.479214 0.763707 0.432558
vn -0.479214 0.763707 0.432558
vn 0.760598 -0.331867 0.557993
vn 0.760598 -0.331867 0.557993
vn 0.760598 -0.331867 0.557993
vn 0.760598 -0.331867 0.557993
vn -0.196794 -0.921352 0.335237
vn -0.196794 -0.921352 0.335237
vn -0.196794 -0.921352 0.335237
vn -0.196794 -0.921352 0.335237
vn 0.607478 0.469582 0.640674
vn 0.607478 0.469582 0.640674
vn 0.607478 0.469582 0.640674
vn 0.607478 0.469582 0.640674
vn -0.969213 -0.044076 0.242247
vn -0.969213 -0.044076 0.242247
vn -0.969213 -0.044076 0.242247
vn -0.969213 -0.044076 0.242247
vn 0.639522 0.765686 -0.068820
vn 0.639522 0.765686 -0.068820
vn 0.639522 0.765686 -0.068820
vn 0.639522 0.765686 -0.068820
vn -0.502190 0.852325 -0.146106
vn -0.502190 0.852325 -0.146106
vn -0.502190 0.852325 -0.146106
vn -0.502190 0.852325 -0.146106
vn -0.969779 -0.006687 -0.243891
vn -0.969780 -0.006687 -0.243891
vn -0.969779 -0.006687 -0.243891
vn -0.969779 -0.006687 -0.243891
vn -0.267767 -0.885986 -0.378589
vn -0.267767 -0.885986 -0.378589
vn -0.267767 -0.885986 -0.378589
vn -0.267767 -0.885986 -0.378589
vn 0.885422 -0.318711 -0.338305
vn 0.885422 -0.318711 -0.338305
vn 0.885422 -0.318711 -0.338305
vn 0.885422 -0.318711 -0.338305
vn 0.574040 0.721232 0.387690
vn 0.574040 0.721232 0.387690
vn 0.574040 0.721232 0.387690
vn 0.574040 0.721232 0.387690
vn 0.926817 -0.172062 0.333774
vn 0.926817 -0.172062 0.333774
vn 0.926817 -0.172062 0.333774
vn 0.926817 -0.172062 0.333774
vn -0.882897 -0.178656 -0.434252
vn -0.882897 -0.178656 -0.434252
vn -0.882897 -0.178656 -0.434252
vn -0.882897 -0.178656 -0.434252
vn -0.055676 -0.979237 -0.194925
vn -0.055676 -0.979237 -0.194925
vn -0.055676 -0.979237 -0.194925
vn -0.055676 -0.979237 -0.194925
vn -0.630508 0.760614 -0.154681
vn -0.630508 0.760614 -0.154681
vn -0.630508 0.760614 -0.154681
vn -0.630508 0.760614 -0.154681
vn 0.321313 0.782062 0.533982
vn 0.321313 0.782062 0.533982
vn 0.321313 0.782062 0.533982
vn 0.321313 0.782062 0.533982
vn 0.557823 -0.162100 0.813976
vn 0.557823 -0.162100 0.813976
vn 0.557823 -0.162100 0.813976
vn 0.557823 -0.162100 0.813976
vn -0.519411 -0.202435 -0.830200
vn -0.519411 -0.202435 -0.830200
vn -0.519411 -0.202435 -0.830200
vn -0.519411 -0.202435 -0.830200
vn 0.015471 -0.998995 -0.042078
vn 0.015471 -0.998995 -0.042078
vn 0.015471 -0.998995 -0.042078
vn 0.015471 -0.998995 -0.042078
vn -0.362356 0.738465 -0.568655
vn -0.362356 0.738465 -0.568655
vn -0.362356 0.738465 -0.568655
vn -0.362356 0.738465 -0.568655
vn 0.061641 0.740954 0.668721
vn 0.061641 0.740954 0.668721
vn 0.061641 0.740954 0.668721
vn 0.327177 -0.182353 0.927202
vn 0.327177 -0.182353 0.927202
vn 0.327177 -0.182353 0.927202
vn -0.509935 -0.202148 -0.836123
vn -0.509935 -0.202148 -0.836123
vn -0.509935 -0.202148 -0.836123
vn -0.029820 -0.997051 -0.070707
vn -0.029820 -0.997051 -0.070707
vn -0.029820 -0.997051 -0.070707
vn -0.485695 0.731782 -0.478117
vn -0.485695 0.731782 -0.478117
vn -0.485695 0.731782 -0.478117
s off
f 7/1/1 8/2/2 2/3/3 1/4/4
f 1/4/5 11/5/6 3/6/7
f 3/6/8 4/7/9 10/8/10 6/9/11
f 9/10/12 10/8/13 4/7/14 5/11/15
f 3/6/16 6/9/17 7/1/18 1/4/19
f 8/2/20 9/10/21 5/11/22 2/3/23
f 3/6/24 11/5/25 4/7/26
f 11/5/27 2/3/28 5/11/29
f 4/7/30 11/5/31 5/11/32
f 1/4/33 2/3/34 11/5/35
f 50/16/36 49/63/37 57/64/38 58/17/39
f 40/60/40 38/62/41 69/83/42
f 39/65/43 41/66/44 17/13/45 15/18/46
f 53/39/47 52/48/48 60/49/49 61/40/50
f 32/47/51 30/46/52 63/77/53
f 31/50/54 33/45/55 29/42/56 72/86/57
f 75/89/58 51/21/59 59/20/60
f 62/76/61 30/46/62 32/47/63
f 18/25/64 21/26/65 33/45/66 31/50/67
f 47/55/68 46/32/69 54/33/70 55/56/71
f 24/31/72 22/30/73 66/80/74
f 23/34/75 25/29/76 37/58/77 34/57/78
f 46/32/79 53/39/80 61/40/81 54/33/82
f 24/31/83 64/78/84 22/30/85
f 73/87/86 29/42/87 25/29/88 23/34/89
f 49/63/90 48/72/91 56/73/92 57/64/93
f 12/75/94 44/71/95 40/60/96
f 40/60/97 67/81/98 38/62/99
f 43/74/100 71/85/101 41/66/102 39/65/103
f 48/72/104 47/55/105 55/56/106 56/73/107
f 36/53/108 35/54/109 42/70/110 44/71/111
f 34/57/112 37/58/113 70/84/114 43/74/115
f 65/79/116 66/80/117 22/30/118
f 22/30/119 64/78/120 65/79/121
f 27/38/122 30/46/123 52/48/124 53/39/125
f 30/46/126 19/24/127 51/21/128 52/48/129
f 68/82/130 69/83/131 38/62/132
f 38/62/133 67/81/134 68/82/135
f 42/70/136 35/54/137 47/55/138 48/72/139
f 21/26/140 17/13/141 13/27/142
f 13/12/143 17/13/144 41/66/145
f 20/23/146 16/15/147 14/14/148 19/24/149
f 19/24/150 14/14/151 50/16/152 51/21/153
f 51/21/154 74/88/155 59/20/156
f 15/18/157 17/13/158 21/26/159 18/25/160
f 40/60/161 16/15/162 12/61/163
f 12/19/164 16/15/165 20/23/166
f 12/22/167 62/76/168 32/47/169
f 25/29/170 13/59/171 37/58/172
f 13/28/173 25/29/174 29/42/175
f 32/47/176 63/77/177 12/51/178
f 12/36/179 28/37/180 24/31/181
f 33/45/182 13/43/183 29/42/184
f 13/44/185 33/45/186 21/26/187
f 24/31/188 36/53/189 12/35/190
f 12/52/191 36/53/192 44/71/193
f 71/85/194 13/67/195 41/66/196
f 13/68/197 70/84/198 37/58/199
f 23/34/200 34/57/201 55/56/202 54/33/203
f 34/57/204 43/74/205 56/73/206 55/56/207
f 43/74/208 39/65/209 57/64/210 56/73/211
f 39/65/212 15/18/213 58/17/214 57/64/215
f 74/88/216 18/25/217 59/20/218
f 18/25/219 75/89/220 59/20/221
f 31/50/222 72/86/223 61/40/224 60/49/225
f 61/40/226 73/87/227 23/34/228 54/33/229
f 12/22/230 20/23/231 62/76/232
f 20/23/233 19/24/234 30/46/235 62/76/236
f 63/77/237 30/46/238 27/38/239 28/37/240
f 12/51/241 63/77/242 28/37/243
f 28/37/244 27/38/245 64/78/246 24/31/247
f 65/79/248 64/78/249 27/38/250 53/39/251
f 35/54/252 66/80/253 65/79/254 47/55/255
f 24/31/256 66/80/257 35/54/258 36/53/259
f 65/79/260 53/39/261 46/32/262
f 47/55/263 65/79/264 46/32/265
f 44/71/266 42/70/267 67/81/268 40/60/269
f 68/82/270 67/81/271 42/70/272 48/72/273
f 14/14/274 69/83/275 68/82/276 50/16/277
f 40/60/278 69/83/279 14/14/280 16/15/281
f 68/82/282 48/72/283 49/63/284
f 50/16/285 68/82/286 49/63/287
f 13/68/288 45/69/289 70/84/290
f 43/74/291 70/84/292 45/69/293
f 43/74/294 45/69/295 71/85/296
f 45/69/297 13/67/298 71/85/299
f 72/86/300 29/42/301 26/41/302
f 61/40/303 72/86/304 26/41/305
f 26/41/306 73/87/307 61/40/308
f 26/41/309 29/42/310 73/87/311
f 51/21/312 50/16/313 58/17/314 74/88/315
f 15/18/316 18/25/317 74/88/318 58/17/319
f 18/25/320 31/50/321 60/49/322 75/89/323
f 52/48/324 51/21/325 75/89/326 60/49/327
f 87/109/328 88/110/329 81/111/330 80/112/331
f 82/113/332 83/114/333 90/115/334 86/108/335
f 89/107/336 90/115/337 83/114/338 84/106/339
f 82/113/340 86/108/341 87/109/342 80/112/343
f 88/110/344 89/107/345 84/106/346 81/111/347
f 87/109/348 86/108/349 76/105/350 78/104/351
f 78/104/352 79/103/353 88/110/354 87/109/355
f 85/102/356 89/107/357 88/110/358 79/103/359
f 77/101/360 90/115/361 89/107/362 85/102/363
f 86/108/364 90/115/365 77/101/366 76/105/367
f 82/113/368 80/112/369 91/100/370 92/99/371
f 83/114/372 82/113/373 92/99/374 93/98/375
f 81/111/376 84/106/377 95/97/378 94/96/379
f 84/106/380 83/114/381 93/98/382 95/97/383
f 80/112/384 81/111/385 94/96/386 91/100/387
f 92/99/388 91/100/389 96/95/390 97/94/391
f 93/98/392 92/99/393 97/94/394 98/93/395
f 94/96/396 95/97/397 100/92/398 99/91/399
f 95/97/400 93/98/401 98/93/402 100/92/403
f 91/100/404 94/96/405 99/91/406 96/95/407
f 97/94/408 96/95/409 101/90/410
f 98/93/411 97/94/412 101/90/413
f 100/92/414 101/90/415 99/91/416
f 98/93/417 101/90/418 100/92/419
f 99/91/420 101/90/421 96/95/422
