# This file uses centimeters as units for non-parametric coordinates.

v 0.000000 103.629082 13.037796
v 250.000031 103.629082 13.037796
v 0.000000 118.754288 13.037796
v 250.000031 118.754288 13.037796
v 0.000000 118.754288 8.125076
v 250.000031 118.754288 8.125076
v 0.000000 103.629082 8.125076
v 250.000031 103.629082 8.125076
v 117.276642 117.810883 13.037872
v 116.356293 115.042236 8.125153
v 190.200684 103.629082 8.125153
v 189.215500 105.591003 13.037872
v 0.000000 72.234856 13.037796
v 250.000031 72.234856 13.037796
v 0.000000 87.360062 13.037796
v 250.000031 87.360062 13.037796
v 0.000000 87.360062 8.125076
v 250.000031 87.360062 8.125076
v 0.000000 72.234856 8.125076
v 250.000031 72.234856 8.125076
v 105.446777 87.360062 13.037872
v 105.446777 87.360062 8.125076
v 63.640030 76.382210 8.125076
v 59.201920 73.673569 13.037872
v 115.883736 83.314514 13.037796
v 113.921684 86.138710 8.125076
v 169.040894 72.234856 8.125076
v 169.040894 72.234856 13.037796
v 0.000000 39.124195 13.037796
v 250.000031 39.124195 13.037796
v 0.000000 54.249409 13.037796
v 250.000031 54.249409 13.037796
v 0.000000 54.249409 8.125076
v 250.000031 54.249409 8.125076
v 0.000000 39.124195 8.125076
v 250.000031 39.124195 8.125076
v 71.728874 50.937733 13.037796
v 73.207962 54.249413 8.125076
v 73.207962 39.124195 8.125076
v 73.207962 39.124195 13.037796
v 177.624191 54.249413 13.037796
v 176.419022 51.811337 8.125076
v 177.625015 40.185509 8.125076
v 177.928314 42.986103 13.037796
v 0.000000 6.368784 13.037796
v 250.000031 6.368784 13.037796
v 0.000000 21.493992 13.037796
v 250.000031 21.493992 13.037796
v 0.000000 21.493992 8.125076
v 250.000031 21.493992 8.125076
v 0.000000 6.368784 8.125076
v 250.000031 6.368784 8.125076
v 58.946217 20.320623 13.037720
v 57.679359 18.046600 8.125076
v 59.553032 6.368784 8.125076
v 59.553032 6.368784 13.037720
v 65.775772 21.493992 13.037720
v 65.775772 21.493992 8.125076
v 167.708298 5.483728 8.125076
v 167.254837 8.735933 13.037720
vt 0.133772 0.359288
vt 0.133772 0.359288
vt 0.133772 0.359288
vt 0.133772 0.359288
vt 0.133772 0.359288
vt 0.133772 0.359288
vt 0.133772 0.359288
vt 0.133772 0.359288
vt 0.133772 0.359288
vt 0.133772 0.359288
vt 0.133772 0.359288
vt 0.133772 0.359288
vt 0.133772 0.359288
vt 0.133772 0.359288
vt 0.133772 0.359288
vt 0.133772 0.359288
vt 0.133772 0.359288
vt 0.133772 0.359288
vt 0.133772 0.359288
vt 0.133772 0.359288
vt 0.133772 0.359288
vt 0.133772 0.359288
vt 0.133772 0.359288
vt 0.133772 0.359288
vt 0.133772 0.359288
vt 0.133772 0.359288
vt 0.133772 0.359288
vt 0.133772 0.359288
vt 0.133772 0.359288
vt 0.133772 0.359288
vt 0.133772 0.359288
vt 0.133772 0.359288
vt 0.133772 0.359288
vt 0.133772 0.359288
vt 0.133772 0.359288
vt 0.133772 0.359288
vt 0.133772 0.359288
vt 0.133772 0.359288
vt 0.133772 0.359288
vt 0.133772 0.359288
vt 0.133772 0.359288
vt 0.133772 0.359288
vt 0.133772 0.359288
vt 0.133772 0.359288
vt 0.133772 0.359288
vt 0.133772 0.359288
vt 0.133772 0.359288
vt 0.133772 0.359288
vt 0.133772 0.359288
vt 0.133772 0.359288
vt 0.133772 0.359288
vt 0.133772 0.359288
vt 0.133772 0.359288
vt 0.133772 0.359288
vt 0.133772 0.359288
vt 0.133772 0.359288
vt 0.133772 0.359288
vt 0.133772 0.359288
vt 0.133772 0.359288
vt 0.133772 0.359288
vt 0.133772 0.359288
vt 0.133772 0.359288
vt 0.133772 0.359288
vt 0.133772 0.359288
vt 0.133772 0.359288
vt 0.133772 0.359288
vt 0.133772 0.359288
vt 0.133772 0.359288
vt 0.133772 0.359288
vt 0.133772 0.359288
vt 0.133772 0.359288
vt 0.133772 0.359288
vt 0.133772 0.359288
vt 0.133772 0.359288
vt 0.133772 0.359288
vt 0.133772 0.359288
vt 0.133772 0.359288
vt 0.133772 0.359288
vt 0.133772 0.359288
vt 0.133772 0.359288
vt 0.133772 0.359288
vt 0.133772 0.359288
vt 0.133772 0.359288
vt 0.133772 0.359288
vt 0.133772 0.359288
vt 0.133772 0.359288
vt 0.133772 0.359288
vt 0.133772 0.359288
vt 0.133772 0.359288
vt 0.133772 0.359288
vt 0.133772 0.359288
vn -0.000000 -0.000001 1.000000
vn 0.000001 0.000002 1.000000
vn -0.000000 -0.000001 1.000000
vn -0.000000 -0.000001 1.000000
vn 0.019167 0.961870 -0.272833
vn -0.001827 0.962560 -0.271062
vn 0.001864 0.962470 -0.271382
vn 0.019167 0.961870 -0.272833
vn 0.000001 0.000001 -1.000000
vn 0.000000 0.000001 -1.000000
vn -0.000001 -0.000002 -1.000000
vn 0.000001 0.000001 -1.000000
vn 0.005070 -0.980531 0.196299
vn -0.000960 -0.980659 0.195720
vn 0.000872 -0.980624 0.195897
vn 0.005070 -0.980531 0.196299
vn 1.000000 0.000000 0.000000
vn 1.000000 0.000000 0.000000
vn 1.000000 0.000000 0.000000
vn 1.000000 0.000000 0.000000
vn -1.000000 0.000000 0.000000
vn -1.000000 0.000000 0.000000
vn -1.000000 0.000000 0.000000
vn -1.000000 0.000000 0.000000
vn -0.001827 0.962560 -0.271062
vn -0.016827 0.962791 -0.269722
vn -0.016827 0.962791 -0.269722
vn 0.001864 0.962470 -0.271382
vn -0.000001 -0.000002 -1.000000
vn 0.000000 0.000001 -1.000000
vn -0.000001 -0.000002 -1.000000
vn -0.000001 -0.000002 -1.000000
vn 0.000872 -0.980624 0.195897
vn -0.000960 -0.980659 0.195720
vn -0.015958 -0.980822 0.194249
vn -0.015958 -0.980822 0.194249
vn -0.000000 -0.000001 1.000000
vn 0.000001 0.000002 1.000000
vn 0.000001 0.000002 1.000000
vn 0.000001 0.000002 1.000000
vn -0.000001 0.000002 1.000000
vn -0.000001 0.000001 1.000000
vn 0.000001 0.000001 1.000000
vn -0.000001 0.000002 1.000000
vn 0.000000 1.000000 0.000000
vn 0.022909 0.999556 0.019069
vn 0.022909 0.999556 0.019069
vn 0.000000 1.000000 0.000000
vn -0.000000 0.000000 -1.000000
vn 0.000000 0.000000 -1.000000
vn -0.000000 0.000000 -1.000000
vn -0.000000 0.000000 -1.000000
vn 0.044020 -0.968021 -0.246975
vn -0.012400 -0.962516 -0.270942
vn 0.015357 -0.965681 -0.259277
vn 0.044020 -0.968021 -0.246975
vn 1.000000 0.000000 0.000000
vn 1.000000 0.000000 0.000000
vn 1.000000 0.000000 0.000000
vn 1.000000 0.000000 0.000000
vn -1.000000 0.000000 0.000000
vn -1.000000 0.000000 0.000000
vn -1.000000 0.000000 0.000000
vn -1.000000 0.000000 0.000000
vn 0.022909 0.999556 0.019069
vn -0.007755 0.960644 0.277673
vn 0.009923 0.961563 0.274407
vn 0.022909 0.999556 0.019069
vn -0.000000 0.000000 -1.000000
vn 0.000000 0.000000 -1.000000
vn 0.000000 0.000000 -1.000000
vn 0.000000 0.000000 -1.000000
vn 0.015357 -0.965681 -0.259277
vn -0.012400 -0.962516 -0.270942
vn -0.014614 -0.986710 -0.161835
vn -0.014614 -0.986710 -0.161835
vn 0.000001 0.000001 1.000000
vn -0.000001 0.000001 1.000000
vn 0.000000 0.000000 1.000000
vn 0.000001 0.000000 1.000000
vn -0.007755 0.960644 0.277673
vn -0.018712 0.959919 0.279652
vn -0.018712 0.959919 0.279652
vn 0.009923 0.961563 0.274407
vn 0.000000 0.000000 -1.000000
vn 0.000000 0.000000 -1.000000
vn 0.000000 0.000000 -1.000000
vn 0.000000 0.000000 -1.000000
vn -0.014614 -0.986710 -0.161835
vn -0.014614 -0.986710 -0.161835
vn 0.000000 -1.000000 0.000000
vn 0.000000 -1.000000 0.000000
vn 0.000001 0.000000 1.000000
vn 0.000000 0.000000 1.000000
vn -0.000000 0.000000 1.000000
vn -0.000000 0.000000 1.000000
vn 0.000000 0.000000 1.000000
vn 0.000000 0.000000 1.000000
vn 0.000000 0.000000 1.000000
vn 0.000000 0.000000 1.000000
vn 0.021625 0.946409 0.322245
vn 0.008779 0.978366 0.206695
vn 0.004878 0.985217 0.171240
vn 0.021625 0.946409 0.322245
vn 0.000000 0.000000 -1.000000
vn 0.000000 0.000000 -1.000000
vn 0.000000 0.000000 -1.000000
vn 0.000000 0.000000 -1.000000
vn 0.000000 -1.000000 0.000000
vn 0.013656 -0.986212 0.164925
vn 0.013656 -0.986212 0.164925
vn 0.000000 -1.000000 0.000000
vn 1.000000 0.000000 0.000000
vn 1.000000 0.000000 0.000000
vn 1.000000 0.000000 0.000000
vn 1.000000 0.000000 0.000000
vn -1.000000 0.000000 0.000000
vn -1.000000 0.000000 0.000000
vn -1.000000 0.000000 0.000000
vn -1.000000 0.000000 0.000000
vn 0.008779 0.978366 0.206695
vn -0.010188 0.997322 -0.072418
vn -0.008494 0.999608 -0.026688
vn 0.004878 0.985217 0.171240
vn 0.000000 0.000000 -1.000000
vn 0.000000 0.000000 -1.000000
vn 0.000000 0.000000 -1.000000
vn -0.000000 0.000000 -1.000000
vn 0.013656 -0.986212 0.164925
vn 0.013656 -0.986212 0.164925
vn 0.000886 -0.961703 0.274091
vn -0.000860 -0.961689 0.274141
vn 0.000000 0.000000 1.000000
vn 0.000000 0.000000 1.000000
vn -0.000000 0.000000 1.000000
vn -0.000000 0.000000 1.000000
vn -0.010188 0.997322 -0.072418
vn -0.016218 0.970901 -0.238930
vn -0.016218 0.970901 -0.238930
vn -0.008494 0.999608 -0.026688
vn -0.000000 0.000000 -1.000000
vn 0.000000 0.000000 -1.000000
vn -0.000000 0.000000 -1.000000
vn -0.000000 0.000000 -1.000000
vn -0.000860 -0.961689 0.274141
vn 0.000886 -0.961703 0.274091
vn -0.032751 -0.960914 0.274905
vn -0.032751 -0.960914 0.274905
vn -0.000000 0.000000 1.000000
vn -0.000000 0.000000 1.000000
vn -0.000000 0.000000 1.000000
vn -0.000000 0.000000 1.000000
vn 0.000001 0.000000 1.000000
vn 0.000001 0.000000 1.000000
vn 0.000001 0.000000 1.000000
vn 0.000001 0.000000 1.000000
vn 0.038528 0.972421 -0.230029
vn -0.012632 0.974526 -0.223920
vn 0.011676 0.973849 -0.226897
vn 0.038528 0.972421 -0.230029
vn -0.000000 0.000000 -1.000000
vn -0.000000 0.000000 -1.000000
vn -0.000000 0.000000 -1.000000
vn -0.000000 0.000000 -1.000000
vn -0.000000 -1.000000 0.000000
vn 0.004327 -0.977949 0.208801
vn 0.004327 -0.977949 0.208801
vn -0.000000 -1.000000 0.000000
vn 1.000000 0.000000 0.000000
vn 1.000000 0.000000 0.000000
vn 1.000000 0.000000 0.000000
vn 1.000000 0.000000 0.000000
vn -1.000000 0.000000 0.000000
vn -1.000000 0.000000 0.000000
vn -1.000000 0.000000 0.000000
vn -1.000000 0.000000 0.000000
vn -0.012632 0.974526 -0.223920
vn -0.012052 0.999900 -0.007456
vn -0.012052 0.999900 -0.007456
vn 0.011676 0.973849 -0.226897
vn -0.000000 0.000000 -1.000000
vn -0.000000 0.000000 -1.000000
vn 0.000000 0.000000 -1.000000
vn 0.000000 0.000000 -1.000000
vn 0.004327 -0.977949 0.208801
vn 0.004327 -0.977949 0.208801
vn -0.000362 -0.949350 0.314220
vn 0.000371 -0.949340 0.314251
vn 0.000001 0.000000 1.000000
vn 0.000001 0.000000 1.000000
vn -0.000001 -0.000002 1.000000
vn -0.000000 -0.000000 1.000000
vn -0.012052 0.999900 -0.007456
vn 0.000000 1.000000 0.000000
vn 0.000000 1.000000 0.000000
vn -0.012052 0.999900 -0.007456
vn 0.000000 0.000000 -1.000000
vn 0.000000 0.000000 -1.000000
vn 0.000000 0.000000 -1.000000
vn 0.000000 0.000000 -1.000000
vn 0.000371 -0.949340 0.314251
vn -0.000362 -0.949350 0.314220
vn -0.008526 -0.949428 0.313868
vn -0.008526 -0.949428 0.313868
vn -0.000000 -0.000000 1.000000
vn -0.000001 -0.000002 1.000000
vn -0.000001 -0.000002 1.000000
vn -0.000001 -0.000002 1.000000
s off
f 1/1/1 12/18/2 9/15/3 3/4/4
f 3/4/5 9/15/6 10/16/7 5/6/8
f 5/6/9 10/16/10 11/17/11 7/8/12
f 7/8/13 11/17/14 12/19/15 1/10/16
f 2/2/17 8/11/18 6/12/19 4/3/20
f 7/13/21 1/1/22 3/4/23 5/14/24
f 9/15/25 4/3/26 6/5/27 10/16/28
f 11/17/29 10/16/30 6/5/31 8/7/32
f 12/19/33 11/17/34 8/7/35 2/9/36
f 9/15/37 12/18/38 2/2/39 4/3/40
f 13/20/41 24/21/42 21/22/43 15/23/44
f 15/23/45 21/22/46 22/24/47 17/25/48
f 17/25/49 22/24/50 23/26/51 19/27/52
f 19/27/53 23/26/54 24/28/55 13/29/56
f 14/30/57 20/31/58 18/32/59 16/33/60
f 19/34/61 13/20/62 15/23/63 17/35/64
f 21/22/65 25/36/66 26/37/67 22/24/68
f 23/26/69 22/24/70 26/37/71 27/38/72
f 24/28/73 23/26/74 27/38/75 28/39/76
f 21/22/77 24/21/78 28/40/79 25/36/80
f 25/36/81 16/33/82 18/41/83 26/37/84
f 27/38/85 26/37/86 18/41/87 20/42/88
f 28/39/89 27/38/90 20/42/91 14/43/92
f 25/36/93 28/40/94 14/30/95 16/33/96
f 29/44/97 40/45/98 37/46/99 31/47/100
f 31/47/101 37/46/102 38/48/103 33/49/104
f 33/49/105 38/48/106 39/50/107 35/51/108
f 35/51/109 39/50/110 40/52/111 29/53/112
f 30/54/113 36/55/114 34/56/115 32/57/116
f 35/58/117 29/44/118 31/47/119 33/59/120
f 37/46/121 41/60/122 42/61/123 38/48/124
f 39/50/125 38/48/126 42/61/127 43/62/128
f 40/52/129 39/50/130 43/62/131 44/63/132
f 37/46/133 40/45/134 44/64/135 41/60/136
f 41/60/137 32/57/138 34/65/139 42/61/140
f 43/62/141 42/61/142 34/65/143 36/66/144
f 44/63/145 43/62/146 36/66/147 30/67/148
f 41/60/149 44/64/150 30/54/151 32/57/152
f 45/68/153 56/69/154 53/70/155 47/71/156
f 47/71/157 53/70/158 54/72/159 49/73/160
f 49/73/161 54/72/162 55/74/163 51/75/164
f 51/75/165 55/74/166 56/76/167 45/77/168
f 46/78/169 52/79/170 50/80/171 48/81/172
f 51/82/173 45/68/174 47/71/175 49/83/176
f 53/70/177 57/84/178 58/85/179 54/72/180
f 55/74/181 54/72/182 58/85/183 59/86/184
f 56/76/185 55/74/186 59/86/187 60/87/188
f 53/70/189 56/69/190 60/88/191 57/84/192
f 57/84/193 48/81/194 50/89/195 58/85/196
f 59/86/197 58/85/198 50/89/199 52/90/200
f 60/87/201 59/86/202 52/90/203 46/91/204
f 57/84/205 60/88/206 46/78/207 48/81/208
