# This file uses centimeters as units for non-parametric coordinates.

v 299.331757 2.657262 8.879929
v 310.704254 123.650146 8.879929
v 290.909210 3.448921 8.879929
v 302.281677 124.441818 8.879929
v 290.909210 3.448921 0.420303
v 302.281677 124.441818 0.420303
v 299.331757 2.657262 0.420303
v 310.704254 123.650146 0.420303
v 110.081856 2.841928 10.412979
v 112.828461 124.287346 6.938171
v 101.633842 3.044315 10.808868
v 104.380470 124.489738 7.334061
v 101.232437 2.811709 2.361908
v 103.979050 124.257133 -1.112900
v 109.680450 2.609322 1.966019
v 112.427055 124.054741 -1.508789
v 208.249313 3.948587 8.879929
v 191.506927 124.315956 8.879929
v 199.870270 2.783113 8.879929
v 183.127884 123.150482 8.879929
v 199.870270 2.783113 0.420303
v 183.127884 123.150482 0.420303
v 208.249313 3.948587 0.420303
v 191.506927 124.315956 0.420303
v 0.000000 17.650232 0.608368
v 500.000000 17.650232 0.608368
v 0.000000 18.866905 0.608368
v 500.000000 18.866905 0.608368
v 0.000000 18.866905 -0.608368
v 500.000000 18.866905 -0.608368
v 0.000000 17.650232 -0.608368
v 500.000000 17.650232 -0.608368
v 249.522720 19.203485 0.837936
v 249.522720 20.236315 0.194855
v 249.522720 19.593231 -0.837936
v 249.522720 18.560402 -0.194855
v 373.621094 18.866905 0.608368
v 373.621094 18.866905 -0.608368
v 373.621094 17.650232 -0.608368
v 373.621094 17.650232 0.608368
v 0.000000 48.082237 0.608368
v 500.000000 51.761433 0.608368
v 0.000000 49.298904 0.608368
v 500.000000 52.978100 0.608368
v 0.000000 49.298904 -0.608368
v 500.000000 52.978100 -0.608368
v 0.000000 48.082237 -0.608368
v 500.000000 51.761433 -0.608368
v 108.274002 52.978100 0.608368
v 108.274002 52.978100 -0.608368
v 108.274002 51.761433 -0.608368
v 108.274002 51.761433 0.608368
v 206.431320 54.243805 0.321350
v 206.431320 53.767097 -0.798035
v 206.431320 52.647705 -0.321350
v 206.431320 53.124401 0.798035
v 0.000000 83.552635 0.608368
v 500.000000 85.153831 0.608368
v 0.000000 84.769302 0.608368
v 500.000000 86.370522 0.608368
v 0.000000 84.769302 -0.608368
v 500.000000 86.370522 -0.608368
v 0.000000 83.552635 -0.608368
v 500.000000 85.153831 -0.608368
v 353.374084 83.592194 0.747070
v 353.374084 83.912514 -0.426712
v 353.374084 82.738777 -0.747070
v 353.374084 82.418434 0.426712
v 208.025482 85.153831 0.608368
v 208.025482 86.370522 0.608368
v 208.025482 86.370522 -0.608368
v 208.025482 85.153831 -0.608368
v 0.000000 115.341927 0.608368
v 500.000000 115.341927 0.608368
v 0.000000 116.558601 0.608368
v 500.000000 116.558601 0.608368
v 0.000000 116.558601 -0.608368
v 500.000000 116.558601 -0.608368
v 0.000000 115.341927 -0.608368
v 500.000000 115.341927 -0.608368
v 110.946419 116.558601 0.608368
v 110.946419 116.558601 -0.608368
v 110.946419 115.341927 -0.608368
v 110.946419 115.341927 0.608368
v 392.709625 116.558601 0.608368
v 392.709625 116.558601 -0.608368
v 392.709625 115.341927 -0.608368
v 392.709625 115.341927 0.608368
v 239.044678 113.382446 0.849991
v 239.044678 114.099792 -0.132675
v 239.044678 113.117073 -0.849991
v 239.044678 112.399742 0.132675
v 409.683716 3.624260 13.053284
v 401.348541 124.604263 5.117645
v 401.257446 3.014817 12.612686
v 392.922302 123.994820 4.676971
v 401.735870 2.494807 4.182587
v 393.400757 123.474808 -3.753052
v 410.162109 3.104252 4.623260
v 401.826996 124.084251 -3.312454
vt 0.038589 0.253958
vt 0.038589 0.253958
vt 0.038589 0.253958
vt 0.038589 0.253958
vt 0.038589 0.253958
vt 0.038589 0.253958
vt 0.038589 0.253958
vt 0.038589 0.253958
vt 0.038589 0.253958
vt 0.038589 0.253958
vt 0.038589 0.253958
vt 0.038589 0.253958
vt 0.038589 0.253958
vt 0.038589 0.253958
vt 0.038589 0.253958
vt 0.038589 0.253958
vt 0.038589 0.253958
vt 0.038589 0.253958
vt 0.038589 0.253958
vt 0.038589 0.253958
vt 0.038589 0.253958
vt 0.038589 0.253958
vt 0.038589 0.253958
vt 0.038589 0.253958
vt 0.038589 0.253958
vt 0.038589 0.253958
vt 0.038589 0.253958
vt 0.038589 0.253958
vt 0.038589 0.253958
vt 0.038589 0.253958
vt 0.038589 0.253958
vt 0.038589 0.253958
vt 0.038589 0.253958
vt 0.038589 0.253958
vt 0.038589 0.253958
vt 0.038589 0.253958
vt 0.038589 0.253958
vt 0.038589 0.253958
vt 0.038589 0.253958
vt 0.038589 0.253958
vt 0.038589 0.253958
vt 0.038589 0.253958
vt 0.089539 0.276455
vt 0.089539 0.276455
vt 0.089539 0.276455
vt 0.089539 0.276455
vt 0.089539 0.276455
vt 0.089539 0.276455
vt 0.089539 0.276455
vt 0.089539 0.276455
vt 0.089539 0.276455
vt 0.089539 0.276455
vt 0.089539 0.276455
vt 0.089539 0.276455
vt 0.089539 0.276455
vt 0.089539 0.276455
vt 0.089539 0.276455
vt 0.089539 0.276455
vt 0.089539 0.276455
vt 0.089539 0.276455
vt 0.089539 0.276455
vt 0.089539 0.276455
vt 0.089539 0.276455
vt 0.089539 0.276455
vt 0.089539 0.276455
vt 0.089539 0.276455
vt 0.089539 0.276455
vt 0.089539 0.276455
vt 0.089539 0.276455
vt 0.089539 0.276455
vt 0.089539 0.276455
vt 0.089539 0.276455
vt 0.089539 0.276455
vt 0.089539 0.276455
vt 0.089539 0.276455
vt 0.089539 0.276455
vt 0.089539 0.276455
vt 0.089539 0.276455
vt 0.089539 0.276455
vt 0.089539 0.276455
vt 0.089539 0.276455
vt 0.089539 0.276455
vt 0.089539 0.276455
vt 0.089539 0.276455
vt 0.089539 0.276455
vt 0.089539 0.276455
vt 0.089539 0.276455
vt 0.089539 0.276455
vt 0.089539 0.276455
vt 0.089539 0.276455
vt 0.089539 0.276455
vt 0.089539 0.276455
vt 0.089539 0.276455
vt 0.089539 0.276455
vt 0.089539 0.276455
vt 0.089539 0.276455
vt 0.089539 0.276455
vt 0.089539 0.276455
vt 0.089539 0.276455
vt 0.089539 0.276455
vt 0.089539 0.276455
vt 0.089539 0.276455
vt 0.089539 0.276455
vt 0.089539 0.276455
vt 0.089539 0.276455
vt 0.089539 0.276455
vt 0.089539 0.276455
vt 0.089539 0.276455
vt 0.089539 0.276455
vt 0.089539 0.276455
vt 0.089539 0.276455
vt 0.089539 0.276455
vt 0.089539 0.276455
vt 0.089539 0.276455
vt 0.089539 0.276455
vt 0.089539 0.276455
vt 0.089539 0.276455
vt 0.089539 0.276455
vt 0.089539 0.276455
vt 0.089539 0.276455
vt 0.089539 0.276455
vt 0.089539 0.276455
vt 0.089539 0.276455
vt 0.089539 0.276455
vt 0.089539 0.276455
vt 0.089539 0.276455
vt 0.089539 0.276455
vt 0.089539 0.276455
vt 0.089539 0.276455
vt 0.089539 0.276455
vt 0.089539 0.276455
vt 0.089539 0.276455
vt 0.089539 0.276455
vt 0.089539 0.276455
vt 0.089539 0.276455
vt 0.089539 0.276455
vt 0.089539 0.276455
vt 0.089539 0.276455
vt 0.089539 0.276455
vt 0.089539 0.276455
vt 0.089539 0.276455
vt 0.089539 0.276455
vt 0.089539 0.276455
vt 0.038589 0.253958
vt 0.038589 0.253958
vt 0.038589 0.253958
vt 0.038589 0.253958
vt 0.038589 0.253958
vt 0.038589 0.253958
vt 0.038589 0.253958
vt 0.038589 0.253958
vt 0.038589 0.253958
vt 0.038589 0.253958
vt 0.038589 0.253958
vt 0.038589 0.253958
vt 0.038589 0.253958
vt 0.038589 0.253958
vn -0.000000 0.000000 1.000000
vn -0.000000 0.000000 1.000000
vn -0.000000 0.000000 1.000000
vn -0.000000 0.000000 1.000000
vn -0.995612 0.093580 0.000000
vn -0.995612 0.093580 0.000000
vn -0.995612 0.093580 0.000000
vn -0.995612 0.093580 0.000000
vn -0.000000 0.000000 -1.000000
vn -0.000000 0.000000 -1.000000
vn -0.000000 0.000000 -1.000000
vn -0.000000 0.000000 -1.000000
vn 0.995612 -0.093581 0.000000
vn 0.995612 -0.093581 0.000000
vn 0.995612 -0.093581 0.000000
vn 0.995612 -0.093581 0.000000
vn 0.093581 0.995612 0.000000
vn 0.093581 0.995612 0.000000
vn 0.093581 0.995612 0.000000
vn 0.093581 0.995612 0.000000
vn -0.093581 -0.995612 0.000000
vn -0.093581 -0.995612 0.000000
vn -0.093581 -0.995612 0.000000
vn -0.093581 -0.995612 0.000000
vn 0.047450 0.027496 0.998495
vn 0.047450 0.027496 0.998495
vn 0.047450 0.027496 0.998495
vn 0.047450 0.027496 0.998495
vn -0.998618 0.023924 0.046797
vn -0.998618 0.023924 0.046797
vn -0.998618 0.023924 0.046797
vn -0.998618 0.023924 0.046797
vn -0.047450 -0.027496 -0.998495
vn -0.047450 -0.027496 -0.998495
vn -0.047450 -0.027496 -0.998495
vn -0.047450 -0.027496 -0.998495
vn 0.998618 -0.023924 -0.046796
vn 0.998618 -0.023924 -0.046796
vn 0.998618 -0.023924 -0.046796
vn 0.998618 -0.023924 -0.046796
vn 0.022602 0.999336 -0.028593
vn 0.022602 0.999336 -0.028593
vn 0.022602 0.999336 -0.028593
vn 0.022602 0.999336 -0.028593
vn -0.022601 -0.999336 0.028593
vn -0.022601 -0.999336 0.028593
vn -0.022601 -0.999336 0.028593
vn -0.022601 -0.999336 0.028593
vn 0.000000 0.000000 1.000000
vn 0.000000 0.000000 1.000000
vn 0.000000 0.000000 1.000000
vn 0.000000 0.000000 1.000000
vn -0.990465 -0.137768 0.000000
vn -0.990465 -0.137768 0.000000
vn -0.990465 -0.137768 0.000000
vn -0.990465 -0.137768 0.000000
vn -0.000000 0.000000 -1.000000
vn -0.000000 0.000000 -1.000000
vn -0.000000 0.000000 -1.000000
vn -0.000000 0.000000 -1.000000
vn 0.990465 0.137768 0.000000
vn 0.990465 0.137768 0.000000
vn 0.990465 0.137768 0.000000
vn 0.990465 0.137768 0.000000
vn -0.137768 0.990465 0.000000
vn -0.137768 0.990465 0.000000
vn -0.137768 0.990465 0.000000
vn -0.137768 0.990465 0.000000
vn 0.137768 -0.990465 0.000000
vn 0.137768 -0.990465 0.000000
vn 0.137768 -0.990465 0.000000
vn 0.137768 -0.990465 0.000000
vn 0.002218 -0.485495 0.874236
vn 0.000001 -0.485497 0.874238
vn 0.000001 -0.485497 0.874239
vn 0.002218 -0.485495 0.874236
vn -0.003993 0.874230 0.485495
vn 0.000001 0.874237 0.485499
vn -0.000005 0.874237 0.485499
vn -0.003993 0.874230 0.485495
vn -0.002218 0.485495 -0.874236
vn -0.000005 0.485496 -0.874239
vn 0.000003 0.485496 -0.874239
vn -0.002218 0.485495 -0.874236
vn 0.003993 -0.874230 -0.485495
vn 0.000012 -0.874237 -0.485499
vn -0.000008 -0.874237 -0.485499
vn 0.003993 -0.874230 -0.485495
vn 1.000000 0.000000 0.000000
vn 1.000000 0.000000 0.000000
vn 1.000000 0.000000 0.000000
vn 1.000000 0.000000 0.000000
vn -1.000000 0.000000 0.000000
vn -1.000000 0.000000 0.000000
vn -1.000000 0.000000 0.000000
vn -1.000000 0.000000 0.000000
vn 0.000001 0.874237 0.485499
vn 0.003833 0.972765 0.231761
vn 0.003822 0.972923 0.231096
vn -0.000005 0.874237 0.485499
vn 0.000003 0.485496 -0.874239
vn -0.000005 0.485496 -0.874239
vn 0.002135 0.232492 -0.972596
vn 0.002116 0.230361 -0.973103
vn -0.000008 -0.874237 -0.485499
vn 0.000012 -0.874237 -0.485499
vn -0.003833 -0.972766 -0.231760
vn -0.003822 -0.972924 -0.231095
vn 0.000001 -0.485497 0.874239
vn 0.000001 -0.485497 0.874238
vn -0.002122 -0.231029 0.972944
vn -0.002129 -0.231831 0.972754
vn 0.003833 0.972765 0.231761
vn 0.000000 1.000000 0.000000
vn 0.000000 1.000000 0.000000
vn 0.003822 0.972923 0.231096
vn 0.002116 0.230361 -0.973103
vn 0.002135 0.232492 -0.972596
vn 0.000000 0.000000 -1.000000
vn 0.000000 0.000000 -1.000000
vn -0.003822 -0.972924 -0.231095
vn -0.003833 -0.972766 -0.231760
vn 0.000000 -1.000000 0.000000
vn 0.000000 -1.000000 0.000000
vn -0.002129 -0.231831 0.972754
vn -0.002122 -0.231029 0.972944
vn 0.000000 0.000000 1.000000
vn 0.000000 0.000000 1.000000
vn 0.000000 0.000000 1.000000
vn -0.001019 0.093013 0.995664
vn -0.001053 0.096034 0.995378
vn 0.000000 0.000000 1.000000
vn -0.033961 0.999423 0.000000
vn -0.023170 0.995264 -0.094411
vn -0.023152 0.995249 -0.094566
vn -0.033961 0.999423 0.000000
vn 0.000000 0.000000 -1.000000
vn 0.001051 -0.095880 -0.995392
vn 0.001021 -0.093169 -0.995650
vn 0.000000 0.000000 -1.000000
vn 0.033961 -0.999423 0.000000
vn 0.023170 -0.995264 0.094410
vn 0.023152 -0.995250 0.094564
vn 0.033961 -0.999423 0.000000
vn 1.000000 0.000000 0.000000
vn 1.000000 0.000000 0.000000
vn 1.000000 0.000000 0.000000
vn 1.000000 0.000000 0.000000
vn -1.000000 0.000000 0.000000
vn -1.000000 0.000000 0.000000
vn -1.000000 0.000000 0.000000
vn -1.000000 0.000000 0.000000
vn -0.023170 0.995264 -0.094411
vn 0.000003 0.979808 -0.199943
vn -0.000002 0.979808 -0.199943
vn -0.023152 0.995249 -0.094566
vn 0.001021 -0.093169 -0.995650
vn 0.001051 -0.095880 -0.995392
vn -0.000002 -0.199935 -0.979809
vn 0.000002 -0.199935 -0.979809
vn 0.023152 -0.995250 0.094564
vn 0.023170 -0.995264 0.094410
vn 0.000007 -0.979809 0.199936
vn -0.000008 -0.979809 0.199936
vn -0.001053 0.096034 0.995378
vn -0.001019 0.093013 0.995664
vn -0.000003 0.199934 0.979809
vn 0.000003 0.199934 0.979810
vn 0.000003 0.979808 -0.199943
vn 0.003591 0.979801 -0.199942
vn 0.003591 0.979801 -0.199942
vn -0.000002 0.979808 -0.199943
vn 0.000002 -0.199935 -0.979809
vn -0.000002 -0.199935 -0.979809
vn -0.000733 -0.199935 -0.979809
vn -0.000733 -0.199935 -0.979809
vn -0.000008 -0.979809 0.199936
vn 0.000007 -0.979809 0.199936
vn -0.003591 -0.979803 0.199934
vn -0.003591 -0.979803 0.199934
vn 0.000003 0.199934 0.979810
vn -0.000003 0.199934 0.979809
vn 0.000733 0.199934 0.979809
vn 0.000733 0.199934 0.979809
vn 0.000000 0.000000 1.000000
vn -0.000977 -0.054692 0.998503
vn -0.000969 -0.054230 0.998528
vn 0.000000 0.000000 1.000000
vn -0.007697 0.999970 0.000000
vn 0.002707 0.998511 0.054477
vn 0.002698 0.998514 0.054432
vn -0.007697 0.999970 0.000000
vn 0.000000 0.000000 -1.000000
vn 0.000970 0.054275 -0.998526
vn 0.000976 0.054647 -0.998505
vn 0.000000 0.000000 -1.000000
vn 0.007697 -0.999970 0.000000
vn -0.002707 -0.998511 -0.054479
vn -0.002698 -0.998514 -0.054434
vn 0.007697 -0.999970 0.000000
vn 1.000000 0.000000 0.000000
vn 1.000000 0.000000 0.000000
vn 1.000000 0.000000 0.000000
vn 1.000000 0.000000 0.000000
vn -1.000000 0.000000 0.000000
vn -1.000000 0.000000 0.000000
vn -1.000000 0.000000 0.000000
vn -1.000000 0.000000 0.000000
vn -0.000000 0.991141 0.132812
vn -0.017550 0.990988 0.132793
vn -0.017550 0.990988 0.132793
vn 0.000000 0.991141 0.132812
vn -0.000000 0.132830 -0.991139
vn 0.000000 0.132830 -0.991139
vn -0.002352 0.132829 -0.991136
vn -0.002352 0.132829 -0.991136
vn 0.000000 -0.991141 -0.132817
vn -0.000000 -0.991141 -0.132817
vn 0.017550 -0.990988 -0.132798
vn 0.017550 -0.990988 -0.132798
vn -0.000000 -0.132829 0.991139
vn 0.000000 -0.132829 0.991139
vn 0.002352 -0.132829 0.991136
vn 0.002352 -0.132829 0.991136
vn -0.000977 -0.054692 0.998503
vn 0.000000 -0.132829 0.991139
vn -0.000000 -0.132829 0.991139
vn -0.000969 -0.054230 0.998528
vn 0.002698 0.998514 0.054432
vn 0.002707 0.998511 0.054477
vn -0.000000 0.991141 0.132812
vn 0.000000 0.991141 0.132812
vn 0.000976 0.054647 -0.998505
vn 0.000970 0.054275 -0.998526
vn 0.000000 0.132830 -0.991139
vn -0.000000 0.132830 -0.991139
vn -0.002698 -0.998514 -0.054434
vn -0.002707 -0.998511 -0.054479
vn -0.000000 -0.991141 -0.132817
vn 0.000000 -0.991141 -0.132817
vn 0.000000 0.000000 1.000000
vn -0.003487 -0.165420 0.986217
vn -0.003437 -0.163041 0.986613
vn 0.000000 0.000000 1.000000
vn 0.000000 1.000000 0.000000
vn 0.010625 0.986341 0.164373
vn 0.010606 0.986388 0.164094
vn 0.000000 1.000000 0.000000
vn 0.000000 0.000000 -1.000000
vn 0.003443 0.163323 -0.986567
vn 0.003482 0.165145 -0.986263
vn 0.000000 0.000000 -1.000000
vn 0.000000 -1.000000 0.000000
vn -0.010624 -0.986342 -0.164370
vn -0.010606 -0.986388 -0.164091
vn 0.000000 -1.000000 0.000000
vn 1.000000 0.000000 0.000000
vn 1.000000 0.000000 0.000000
vn 1.000000 0.000000 0.000000
vn 1.000000 0.000000 0.000000
vn -1.000000 0.000000 0.000000
vn -1.000000 0.000000 0.000000
vn -1.000000 0.000000 0.000000
vn -1.000000 0.000000 0.000000
vn 0.010625 0.986341 0.164373
vn -0.000016 0.950711 0.310078
vn 0.000014 0.950711 0.310078
vn 0.010606 0.986388 0.164094
vn 0.003482 0.165145 -0.986263
vn 0.003443 0.163323 -0.986567
vn 0.000004 0.310069 -0.950714
vn -0.000005 0.310069 -0.950714
vn -0.010606 -0.986388 -0.164091
vn -0.010624 -0.986342 -0.164370
vn -0.000008 -0.950712 -0.310076
vn 0.000010 -0.950712 -0.310076
vn -0.003437 -0.163041 0.986613
vn -0.003487 -0.165420 0.986217
vn 0.000007 -0.310070 0.950714
vn -0.000006 -0.310070 0.950714
vn -0.009755 0.983428 0.181036
vn 0.000000 1.000000 0.000000
vn 0.000000 1.000000 0.000000
vn -0.009742 0.983470 0.180809
vn -0.003193 0.181664 -0.983356
vn -0.003167 0.180183 -0.983628
vn 0.000000 0.000000 -1.000000
vn 0.000000 0.000000 -1.000000
vn 0.009742 -0.983470 -0.180809
vn 0.009755 -0.983428 -0.181036
vn 0.000000 -1.000000 0.000000
vn 0.000000 -1.000000 0.000000
vn 0.003162 -0.179953 0.983670
vn 0.003196 -0.181888 0.983314
vn 0.000000 0.000000 1.000000
vn 0.000000 0.000000 1.000000
vn -0.000016 0.950711 0.310078
vn -0.009755 0.983428 0.181036
vn -0.009742 0.983470 0.180809
vn 0.000014 0.950711 0.310078
vn -0.000005 0.310069 -0.950714
vn 0.000004 0.310069 -0.950714
vn -0.003167 0.180183 -0.983628
vn -0.003193 0.181664 -0.983356
vn 0.000010 -0.950712 -0.310076
vn -0.000008 -0.950712 -0.310076
vn 0.009755 -0.983428 -0.181036
vn 0.009742 -0.983470 -0.180809
vn -0.000006 -0.310070 0.950714
vn 0.000007 -0.310070 0.950714
vn 0.003196 -0.181888 0.983314
vn 0.003162 -0.179953 0.983670
vn -0.056556 0.061469 0.996505
vn -0.056556 0.061469 0.996505
vn -0.056556 0.061469 0.996505
vn -0.056556 0.061469 0.996505
vn -0.996041 -0.072040 -0.052085
vn -0.996041 -0.072040 -0.052085
vn -0.996041 -0.072040 -0.052085
vn -0.996041 -0.072040 -0.052085
vn 0.056556 -0.061470 -0.996505
vn 0.056556 -0.061470 -0.996505
vn 0.056556 -0.061470 -0.996505
vn 0.056556 -0.061470 -0.996505
vn 0.996041 0.072041 0.052084
vn 0.996041 0.072041 0.052084
vn 0.996041 0.072041 0.052084
vn 0.996041 0.072041 0.052084
vn -0.068587 0.995506 -0.065303
vn -0.068587 0.995506 -0.065303
vn -0.068587 0.995506 -0.065303
vn -0.068587 0.995506 -0.065303
vn 0.068587 -0.995506 0.065300
vn 0.068587 -0.995506 0.065300
vn 0.068587 -0.995506 0.065300
vn 0.068587 -0.995506 0.065300
s off
f 1/1/1 2/2/2 4/3/3 3/4/4
f 3/4/5 4/3/6 6/5/7 5/6/8
f 5/6/9 6/5/10 8/7/11 7/8/12
f 7/8/13 8/7/14 2/9/15 1/10/16
f 2/2/17 8/11/18 6/12/19 4/3/20
f 7/13/21 1/1/22 3/4/23 5/14/24
f 9/15/25 10/16/26 12/17/27 11/18/28
f 11/18/29 12/17/30 14/19/31 13/20/32
f 13/20/33 14/19/34 16/21/35 15/22/36
f 15/22/37 16/21/38 10/23/39 9/24/40
f 10/16/41 16/25/42 14/26/43 12/17/44
f 15/27/45 9/15/46 11/18/47 13/28/48
f 17/29/49 18/30/50 20/31/51 19/32/52
f 19/32/53 20/31/54 22/33/55 21/34/56
f 21/34/57 22/33/58 24/35/59 23/36/60
f 23/36/61 24/35/62 18/37/63 17/38/64
f 18/30/65 24/39/66 22/40/67 20/31/68
f 23/41/69 17/29/70 19/32/71 21/42/72
f 25/43/73 36/44/74 33/45/75 27/46/76
f 27/46/77 33/45/78 34/47/79 29/48/80
f 29/48/81 34/47/82 35/49/83 31/50/84
f 31/50/85 35/49/86 36/51/87 25/52/88
f 26/53/89 32/54/90 30/55/91 28/56/92
f 31/57/93 25/43/94 27/46/95 29/58/96
f 33/45/97 37/59/98 38/60/99 34/47/100
f 35/49/101 34/47/102 38/60/103 39/61/104
f 36/51/105 35/49/106 39/61/107 40/62/108
f 33/45/109 36/44/110 40/63/111 37/59/112
f 37/59/113 28/56/114 30/64/115 38/60/116
f 39/61/117 38/60/118 30/64/119 32/65/120
f 40/62/121 39/61/122 32/65/123 26/66/124
f 37/59/125 40/63/126 26/53/127 28/56/128
f 41/67/129 52/68/130 49/69/131 43/70/132
f 43/70/133 49/69/134 50/71/135 45/72/136
f 45/72/137 50/71/138 51/73/139 47/74/140
f 47/74/141 51/73/142 52/75/143 41/76/144
f 42/77/145 48/78/146 46/79/147 44/80/148
f 47/81/149 41/67/150 43/70/151 45/82/152
f 49/69/153 53/83/154 54/84/155 50/71/156
f 51/73/157 50/71/158 54/84/159 55/85/160
f 52/75/161 51/73/162 55/85/163 56/86/164
f 49/69/165 52/68/166 56/87/167 53/83/168
f 53/83/169 44/80/170 46/88/171 54/84/172
f 55/85/173 54/84/174 46/88/175 48/89/176
f 56/86/177 55/85/178 48/89/179 42/90/180
f 53/83/181 56/87/182 42/77/183 44/80/184
f 57/91/185 69/92/186 70/93/187 59/94/188
f 59/94/189 70/93/190 71/95/191 61/96/192
f 61/96/193 71/95/194 72/97/195 63/98/196
f 63/98/197 72/97/198 69/99/199 57/100/200
f 58/101/201 64/102/202 62/103/203 60/104/204
f 63/105/205 57/91/206 59/94/207 61/106/208
f 65/107/209 60/104/210 62/108/211 66/109/212
f 67/110/213 66/109/214 62/108/215 64/111/216
f 68/112/217 67/110/218 64/111/219 58/113/220
f 65/107/221 68/114/222 58/101/223 60/104/224
f 69/92/225 68/114/226 65/107/227 70/93/228
f 71/95/229 70/93/230 65/107/231 66/109/232
f 72/97/233 71/95/234 66/109/235 67/110/236
f 69/99/237 72/97/238 67/110/239 68/112/240
f 73/115/241 84/116/242 81/117/243 75/118/244
f 75/118/245 81/117/246 82/119/247 77/120/248
f 77/120/249 82/119/250 83/121/251 79/122/252
f 79/122/253 83/121/254 84/123/255 73/124/256
f 74/125/257 80/126/258 78/127/259 76/128/260
f 79/129/261 73/115/262 75/118/263 77/130/264
f 81/117/265 89/131/266 90/132/267 82/119/268
f 83/121/269 82/119/270 90/132/271 91/133/272
f 84/123/273 83/121/274 91/133/275 92/134/276
f 81/117/277 84/116/278 92/135/279 89/131/280
f 85/136/281 76/128/282 78/137/283 86/138/284
f 87/139/285 86/138/286 78/137/287 80/140/288
f 88/141/289 87/139/290 80/140/291 74/142/292
f 85/136/293 88/143/294 74/125/295 76/128/296
f 89/131/297 85/136/298 86/138/299 90/132/300
f 91/133/301 90/132/302 86/138/303 87/139/304
f 92/134/305 91/133/306 87/139/307 88/141/308
f 89/131/309 92/135/310 88/143/311 85/136/312
f 93/144/313 94/145/314 96/146/315 95/147/316
f 95/147/317 96/146/318 98/148/319 97/149/320
f 97/149/321 98/148/322 100/150/323 99/151/324
f 99/151/325 100/150/326 94/152/327 93/153/328
f 94/145/329 100/154/330 98/155/331 96/146/332
f 99/156/333 93/144/334 95/147/335 97/157/336
