# This file uses centimeters as units for non-parametric coordinates.

v 0.021435 -2.756524 2.533060
v 1.805538 -1.966558 1.844768
v -2.238673 3.919219 2.238677
v 2.549032 3.919219 2.549032
v -2.549032 3.919219 -2.549032
v 2.238673 3.919219 -2.238669
v -1.805538 -1.966559 -1.844768
v -2.247222 -2.582159 -0.004197
v -3.073931 3.919219 -0.005097
v 3.073931 3.919219 -0.005097
v 2.247222 -2.582159 -0.004197
v 0.030262 3.919219 -3.500084
v 0.030262 3.919219 3.500084
v 0.021435 -3.824349 -0.004197
v 0.021435 -2.756524 -2.533060
v 0.036672 1.312959 -4.333601
v 2.749608 1.312959 -2.809355
v 3.775499 1.312959 -0.006368
v 3.088959 1.312959 3.156052
v 0.036672 1.312960 4.333601
v -2.749607 1.312959 2.809355
v -3.775499 1.312959 -0.006368
v -3.088959 1.312960 -3.156052
v 1.362055 4.638134 -1.362056
v 0.016170 4.638134 1.870241
v 1.870244 4.638134 -0.003103
v -1.362055 4.638134 -1.362056
v -1.362055 4.638134 1.362056
v 0.870959 5.005414 -1.075504
v 0.016406 4.180705 -0.003148
v 1.305190 5.005414 0.085676
v -1.015269 5.098390 -0.909928
v -0.930286 5.109103 1.054640
v -2.465952 5.284827 -0.191837
v -2.466287 5.284681 0.968700
v 0.456116 5.521055 -2.871581
v -0.448324 5.520448 -2.872974
v 3.007931 5.710222 -0.728930
v 1.814854 4.997744 1.519054
v -1.165151 5.422673 2.983170
v 0.697558 4.885578 0.928587
v -1.235661 5.077614 -0.082169
vt 0.008881 0.147748
vt 0.008881 0.147748
vt 0.008881 0.147748
vt 0.008881 0.147748
vt 0.008881 0.147748
vt 0.008881 0.147748
vt 0.008881 0.147748
vt 0.008881 0.147748
vt 0.008881 0.147748
vt 0.008881 0.147748
vt 0.008881 0.147748
vt 0.008881 0.147748
vt 0.008881 0.147748
vt 0.008881 0.147748
vt 0.008881 0.147748
vt 0.008881 0.147748
vt 0.008881 0.147748
vt 0.008881 0.147748
vt 0.008881 0.147748
vt 0.008881 0.147748
vt 0.008881 0.147748
vt 0.008881 0.147748
vt 0.025824 0.146642
vt 0.008881 0.147748
vt 0.008881 0.147748
vt 0.008881 0.147748
vt 0.008881 0.147748
vt 0.008881 0.147748
vt 0.008881 0.147748
vt 0.008881 0.147748
vt 0.008881 0.147748
vt 0.008881 0.147748
vt 0.008881 0.147748
vt 0.008881 0.147748
vt 0.008881 0.147748
vt 0.008881 0.147748
vt 0.008881 0.147748
vt 0.008881 0.147748
vt 0.008881 0.147748
vt 0.008881 0.147748
vt 0.008881 0.147748
vt 0.025824 0.146642
vt 0.025824 0.146642
vt 0.025824 0.146642
vt 0.025824 0.146642
vt 0.025824 0.146642
vt 0.025824 0.146642
vt 0.025824 0.146642
vt 0.025824 0.146642
vt 0.025824 0.146642
vt 0.025824 0.146642
vt 0.025824 0.146642
vt 0.025824 0.146642
vt 0.025824 0.146642
vt 0.025824 0.146642
vt 0.025824 0.146642
vt 0.025824 0.146642
vt 0.025824 0.146642
vt 0.025824 0.146642
vn 0.385643 -0.416712 0.823183
vn 0.385643 -0.416712 0.823183
vn 0.385643 -0.416712 0.823183
vn 0.385643 -0.416712 0.823183
vn 0.456724 -0.361378 -0.812902
vn 0.456724 -0.361378 -0.812902
vn 0.456724 -0.361378 -0.812902
vn 0.457242 -0.819297 -0.345952
vn 0.457242 -0.819297 -0.345952
vn 0.457242 -0.819297 -0.345952
vn 0.776557 -0.431074 -0.459493
vn 0.776557 -0.431074 -0.459493
vn 0.776557 -0.431074 -0.459493
vn 0.776557 -0.431074 -0.459493
vn -0.885496 -0.392536 -0.248621
vn -0.885496 -0.392536 -0.248621
vn -0.885496 -0.392536 -0.248621
vn -0.885496 -0.392536 -0.248621
vn -0.773671 -0.433533 0.462042
vn -0.773671 -0.433533 0.462042
vn -0.773671 -0.433533 0.462042
vn -0.773671 -0.433533 0.462042
vn -0.120926 0.832182 -0.541156
vn -0.201173 0.846336 -0.493198
vn -0.509549 0.823237 -0.250282
vn 0.885857 -0.392346 0.247631
vn 0.885858 -0.392346 0.247631
vn 0.885857 -0.392346 0.247631
vn 0.885858 -0.392346 0.247631
vn 0.470290 -0.807037 0.357097
vn 0.470290 -0.807037 0.357097
vn 0.470290 -0.807037 0.357097
vn 0.470290 -0.807037 0.357097
vn 0.094365 0.751396 0.653069
vn 0.094365 0.751396 0.653069
vn 0.094365 0.751396 0.653069
vn -0.447680 -0.360401 0.818348
vn -0.447680 -0.360401 0.818348
vn -0.447680 -0.360401 0.818348
vn -0.450547 -0.822850 0.346303
vn -0.450547 -0.822850 0.346303
vn -0.450547 -0.822850 0.346303
vn -0.462556 -0.810624 -0.359069
vn -0.462556 -0.810624 -0.359069
vn -0.462556 -0.810624 -0.359069
vn -0.462556 -0.810624 -0.359069
vn -0.377967 -0.415542 -0.827324
vn -0.377967 -0.415542 -0.827324
vn -0.377967 -0.415542 -0.827324
vn -0.377967 -0.415542 -0.827324
vn 0.473942 0.272599 -0.837299
vn 0.473942 0.272599 -0.837299
vn 0.473942 0.272599 -0.837299
vn 0.473942 0.272599 -0.837299
vn 0.908653 0.248208 -0.335772
vn 0.908653 0.248208 -0.335772
vn 0.908653 0.248208 -0.335772
vn 0.908653 0.248208 -0.335772
vn 0.947463 0.248996 0.200784
vn 0.947463 0.248996 0.200784
vn 0.947463 0.248996 0.200784
vn 0.947463 0.248996 0.200784
vn 0.342279 0.283446 0.895826
vn 0.342279 0.283446 0.895826
vn 0.342279 0.283446 0.895826
vn 0.342279 0.283446 0.895826
vn -0.464426 0.271996 0.842809
vn -0.464426 0.271996 0.842809
vn -0.464426 0.271996 0.842809
vn -0.464426 0.271996 0.842809
vn -0.909191 0.248025 0.334449
vn -0.909191 0.248025 0.334448
vn -0.909191 0.248025 0.334448
vn -0.909191 0.248025 0.334449
vn -0.947264 0.249136 -0.201551
vn -0.947264 0.249136 -0.201551
vn -0.947264 0.249136 -0.201551
vn -0.947264 0.249136 -0.201551
vn -0.335318 0.282685 -0.898694
vn -0.335318 0.282685 -0.898694
vn -0.335318 0.282685 -0.898694
vn -0.335318 0.282685 -0.898694
vn 0.503369 0.843319 -0.188238
vn 0.503369 0.843319 -0.188238
vn 0.503369 0.843319 -0.188238
vn 0.503369 0.843319 -0.188238
vn 0.255527 0.857073 -0.447361
vn 0.255527 0.857073 -0.447361
vn 0.255527 0.857073 -0.447361
vn 0.188153 0.937944 0.291306
vn 0.188153 0.937944 0.291306
vn 0.188153 0.937944 0.291306
vn 0.188153 0.937944 0.291306
vn 0.510068 0.853723 0.104824
vn 0.510068 0.853723 0.104824
vn 0.510068 0.853723 0.104824
vn -0.063675 0.932666 -0.355076
vn -0.063675 0.932666 -0.355076
vn -0.063675 0.932666 -0.355076
vn -0.063675 0.932666 -0.355076
vn -0.446785 0.889879 -0.092187
vn -0.446785 0.889879 -0.092187
vn -0.446785 0.889879 -0.092187
vn -0.209305 0.877554 0.431381
vn -0.209305 0.877554 0.431381
vn -0.209305 0.877554 0.431381
vn -0.209305 0.877554 0.431381
vn -0.435281 0.897315 0.073184
vn -0.435281 0.897315 0.073184
vn -0.435281 0.897315 0.073184
vn -0.435281 0.897315 0.073184
vn 0.159875 0.984841 0.067285
vn 0.374533 0.919048 0.122787
vn 0.425882 0.894523 0.135843
vn -0.537785 0.818745 0.201108
vn -0.537785 0.818745 0.201108
vn -0.537785 0.818745 0.201108
vn -0.206922 0.760511 -0.615472
vn -0.206922 0.760511 -0.615472
vn -0.206922 0.760511 -0.615472
vn -0.505397 -0.862887 -0.000076
vn -0.505397 -0.862887 -0.000076
vn -0.505397 -0.862887 -0.000076
vn -0.505397 -0.862887 -0.000076
vn 0.014244 0.537351 0.843239
vn 0.014244 0.537351 0.843239
vn 0.014244 0.537351 0.843239
vn 0.139220 0.989745 -0.031988
vn 0.139220 0.989745 -0.031988
vn 0.289465 0.953731 -0.081278
vn 0.268400 0.960434 -0.074345
vn 0.625937 0.775944 0.078195
vn 0.625937 0.775944 0.078195
vn 0.625937 0.775944 0.078195
vn 0.000338 -0.863367 -0.504576
vn 0.000338 -0.863367 -0.504576
vn 0.000338 -0.863367 -0.504576
vn 0.000338 -0.863367 -0.504576
vn -0.757177 0.648382 -0.079276
vn -0.757177 0.648382 -0.079276
vn -0.757177 0.648382 -0.079277
vn 0.046394 0.968782 0.243536
vn 0.046394 0.968782 0.243536
vn 0.046394 0.968782 0.243536
vn 0.046394 0.968782 0.243536
vn 0.590549 -0.776197 -0.220839
vn 0.590550 -0.776197 -0.220839
vn 0.590549 -0.776197 -0.220839
vn -0.054216 0.568156 -0.821133
vn -0.054216 0.568156 -0.821133
vn -0.054216 0.568156 -0.821133
vn -0.328771 0.936373 0.122945
vn -0.328771 0.936373 0.122945
vn -0.328771 0.936373 0.122945
vn 0.320473 0.273849 0.906810
vn 0.320473 0.273849 0.906810
vn 0.320473 0.273849 0.906810
vn 0.234002 -0.944250 0.231595
vn 0.234002 -0.944250 0.231595
vn 0.234002 -0.944250 0.231595
vn -0.125929 0.990775 0.050077
vn -0.076751 0.983387 0.164499
vn -0.147965 0.984616 0.092944
vn 0.516240 0.837513 -0.179077
vn 0.516240 0.837513 -0.179077
vn 0.516240 0.837513 -0.179077
vn -0.164377 -0.879911 0.445799
vn -0.164377 -0.879911 0.445799
vn -0.164377 -0.879911 0.445799
vn 0.498285 0.863343 -0.079692
vn 0.498285 0.863343 -0.079692
vn 0.498285 0.863343 -0.079692
vn -0.782561 0.592351 -0.191618
vn -0.782561 0.592351 -0.191618
vn -0.782561 0.592351 -0.191618
vn -0.120926 0.832182 -0.541156
vn 0.057777 0.775390 -0.628834
vn -0.201173 0.846336 -0.493198
vn 0.048329 0.956885 0.286419
vn -0.076751 0.983387 0.164499
vn 0.154077 0.922503 0.353904
vn -0.147965 0.984616 0.092944
vn -0.076751 0.983387 0.164499
vn 0.048329 0.956885 0.286419
vn 0.289465 0.953731 -0.081278
vn 0.580449 0.794619 -0.177934
vn 0.268400 0.960434 -0.074345
vn 0.425882 0.894523 0.135843
vn 0.374533 0.919048 0.122787
vn 0.566600 0.806036 0.171089
s off
f 19/31/1 20/32/2 1/1/3 2/2/4
f 15/26/5 16/27/6 17/28/7
f 14/25/8 15/26/9 11/20/10
f 17/29/11 18/30/12 11/21/13 15/10/14
f 7/12/15 8/14/16 22/34/17 23/35/18
f 21/33/19 22/34/20 8/14/21 1/1/22
f 30/42/23 41/58/24 31/48/25
f 2/2/26 11/21/27 18/30/28 19/31/29
f 1/8/30 14/25/31 11/20/32 2/9/33
f 32/49/34 30/42/35 29/47/36
f 1/1/37 20/32/38 21/33/39
f 8/15/40 14/25/41 1/8/42
f 7/7/43 15/26/44 14/25/45 8/15/46
f 23/36/47 16/27/48 15/26/49 7/7/50
f 17/28/51 16/27/52 12/22/53 6/6/54
f 10/19/55 18/30/56 17/29/57 6/11/58
f 19/31/59 18/30/60 10/19/61 4/4/62
f 13/24/63 20/32/64 19/31/65 4/4/66
f 21/33/67 20/32/68 13/24/69 3/3/70
f 9/16/71 22/34/72 21/33/73 3/3/74
f 23/35/75 22/34/76 9/16/77 5/13/78
f 5/5/79 12/22/80 16/27/81 23/36/82
f 10/18/83 6/6/84 24/37/85 26/39/86
f 6/6/87 12/22/88 24/37/89
f 13/24/90 4/4/91 26/39/92 25/38/93
f 4/4/94 10/18/95 26/39/96
f 12/22/97 5/5/98 27/40/99 24/37/100
f 5/5/101 9/17/102 27/40/103
f 3/3/104 13/24/105 25/38/106 28/41/107
f 9/17/108 3/3/109 28/41/110 27/40/111
f 34/51/112 42/59/113 32/49/114
f 29/47/115 30/42/116 31/48/117
f 32/49/118 27/45/119 34/51/120
f 27/45/121 28/46/122 35/52/123 34/51/124
f 28/46/125 33/50/126 35/52/127
f 34/51/128 35/52/129 33/50/130 42/59/131
f 29/47/132 24/23/133 36/53/134
f 24/23/135 27/45/136 37/54/137 36/53/138
f 27/45/139 32/49/140 37/54/141
f 32/49/142 29/47/143 36/53/144 37/54/145
f 26/44/146 24/23/147 38/55/148
f 24/23/149 29/47/150 38/55/151
f 29/47/152 31/48/153 38/55/154
f 31/48/155 26/44/156 38/55/157
f 25/43/158 26/44/159 39/56/160
f 31/48/161 41/58/162 39/56/163
f 26/44/164 31/48/165 39/56/166
f 28/46/167 25/43/168 40/57/169
f 25/43/170 33/50/171 40/57/172
f 33/50/173 28/46/174 40/57/175
f 30/42/176 33/50/177 41/58/178
f 25/43/179 41/58/180 33/50/181
f 39/56/182 41/58/183 25/43/184
f 33/50/185 30/42/186 42/59/187
f 32/49/188 42/59/189 30/42/190
