# This file uses centimeters as units for non-parametric coordinates.

v 8.415608 20.339378 8.415527
v 8.415608 132.440628 8.415527
v -8.415608 20.339378 8.415527
v -8.415608 132.576920 8.415527
v -8.415608 20.339378 -8.415527
v -8.415606 132.576920 -5.389404
v 8.415608 20.552614 -8.415527
v 8.415608 132.440628 -8.415527
v 8.415608 78.074097 8.415527
v 8.415608 100.839867 8.415527
v 8.415608 85.447479 5.924683
v 6.516520 85.364975 8.415527
v -4.501593 132.576920 -8.415527
v -8.415608 108.326347 -8.415527
v 7.541023 78.431114 -7.914734
v 4.742279 59.008045 -8.415527
v 8.415606 57.802971 -6.959839
v -8.415608 27.492046 8.415527
v -8.415608 63.967712 8.415527
v -6.238914 49.520676 8.415527
v -8.415608 50.437325 5.449829
v 8.415608 -33.810257 -8.415527
v 8.415608 -33.810257 8.415527
v -8.415608 -33.810257 8.415527
v -8.415608 -33.810257 -8.415527
v 2.578880 17.059027 8.415527
v 8.415608 24.035717 -3.145142
v -0.035632 18.304169 -8.415527
v -8.415608 23.452431 -1.852112
v -7.179002 90.173111 8.415527
v 6.413837 135.682083 -6.413879
v 6.413837 135.682083 6.413879
v -3.430826 135.785965 -6.413879
v -6.413837 135.785965 -3.632202
v -6.413837 135.785965 6.413879
vt 0.133758 0.351332
vt 0.133758 0.351332
vt 0.133758 0.351332
vt 0.133758 0.351332
vt 0.133758 0.351332
vt 0.133758 0.351332
vt 0.133758 0.351332
vt 0.133758 0.351332
vt 0.133758 0.351332
vt 0.133758 0.351332
vt 0.133758 0.351332
vt 0.133758 0.351332
vt 0.133758 0.351332
vt 0.133758 0.351332
vt 0.133758 0.351332
vt 0.133758 0.351332
vt 0.133758 0.351332
vt 0.133758 0.351332
vt 0.133758 0.351332
vt 0.133758 0.351332
vt 0.133758 0.351332
vt 0.133758 0.351332
vt 0.133758 0.351332
vt 0.133758 0.351332
vt 0.133758 0.351332
vt 0.133758 0.351332
vt 0.133758 0.351332
vt 0.133758 0.351332
vt 0.132593 0.326786
vt 0.132593 0.326786
vt 0.132593 0.326786
vt 0.132593 0.326786
vt 0.132593 0.326786
vt 0.132593 0.326786
vt 0.132593 0.326786
vt 0.132593 0.326786
vt 0.132593 0.326786
vt 0.132593 0.326786
vt 0.132593 0.326786
vt 0.132593 0.326786
vt 0.133758 0.351332
vt 0.133758 0.351332
vt 0.133758 0.351332
vt 0.133758 0.351332
vt 0.133758 0.351332
vt 0.133758 0.351332
vt 0.133758 0.351332
vt 0.133758 0.351332
vt 0.133758 0.351332
vt 0.133758 0.351332
vt 0.133758 0.351332
vt 0.133758 0.351332
vt 0.133758 0.351332
vn 0.000000 0.000000 1.000000
vn 0.000000 0.000000 1.000000
vn 0.000000 0.000000 1.000000
vn -0.608698 0.098243 -0.787296
vn -0.608698 0.098243 -0.787296
vn -0.608698 0.098243 -0.787296
vn 0.999903 0.005881 -0.012617
vn 0.999881 0.006515 -0.013978
vn 0.999838 0.001626 -0.017949
vn 0.999783 -0.001909 -0.020745
vn 0.999880 0.006551 -0.014055
vn 0.999880 0.006551 -0.014055
vn 0.008307 0.999965 0.000966
vn 0.008307 0.999965 0.000966
vn 0.008307 0.999965 0.000966
vn 0.008307 0.999965 0.000966
vn 0.008307 0.999965 0.000966
vn 0.793008 -0.097318 0.601388
vn 0.793008 -0.097318 0.601388
vn 0.793008 -0.097318 0.601388
vn 0.775597 0.202023 0.598027
vn 0.775597 0.202023 0.598027
vn 0.775597 0.202023 0.598027
vn 0.012651 0.002278 -0.999917
vn 0.010746 -0.004524 -0.999932
vn 0.010048 -0.007013 -0.999925
vn 0.010048 -0.007013 -0.999925
vn -1.000000 -0.000000 0.000000
vn -1.000000 -0.000000 0.000000
vn -0.999989 0.001652 0.004355
vn -0.999530 -0.012309 0.028088
vn -1.000000 -0.000000 0.000000
vn 0.360350 -0.027884 -0.932400
vn 0.360350 -0.027884 -0.932400
vn 0.360350 -0.027884 -0.932400
vn 0.378397 0.036145 -0.924937
vn 0.378397 0.036145 -0.924937
vn 0.378397 0.036145 -0.924937
vn -0.817805 -0.123216 0.562150
vn -0.817805 -0.123216 0.562150
vn -0.817805 -0.123216 0.562150
vn -0.792001 0.078259 0.605483
vn -0.792001 0.078259 0.605483
vn -0.792001 0.078259 0.605483
vn 1.000000 0.000000 0.000000
vn 1.000000 0.000000 0.000000
vn 1.000000 0.000000 0.000000
vn 1.000000 0.000000 0.000000
vn 1.000000 0.000000 0.000000
vn 0.000000 0.000000 1.000000
vn 0.000000 0.000000 1.000000
vn 0.000000 0.000000 1.000000
vn 0.000000 0.000000 1.000000
vn 0.000000 0.000000 1.000000
vn -1.000000 0.000000 0.000000
vn -1.000000 0.000000 0.000000
vn -1.000000 0.000000 0.000000
vn -1.000000 0.000000 0.000000
vn -1.000000 0.000000 0.000000
vn 0.000000 0.000000 -1.000000
vn 0.000000 0.000000 -1.000000
vn 0.000000 0.000000 -1.000000
vn 0.000000 0.000000 -1.000000
vn 0.000000 0.000000 -1.000000
vn 0.000000 0.000000 1.000000
vn 0.000000 0.000000 1.000000
vn 0.000000 0.000000 1.000000
vn 0.000000 0.000000 1.000000
vn 1.000000 0.000000 -0.000000
vn 0.999881 0.006515 -0.013978
vn 0.999903 0.005881 -0.012617
vn 0.011346 0.003027 -0.999931
vn 0.012830 0.003423 -0.999912
vn 0.000000 0.000000 -1.000000
vn -1.000000 0.000000 0.000000
vn -1.000000 0.000000 0.000000
vn -1.000000 -0.000000 0.000000
vn -1.000000 -0.000000 0.000000
vn 0.000000 0.000000 1.000000
vn 0.000000 0.000000 1.000000
vn 0.000000 0.000000 1.000000
vn 0.000000 0.000000 1.000000
vn 0.000000 0.000000 1.000000
vn -0.999530 -0.012309 0.028088
vn -0.996360 0.018524 0.083213
vn -0.999395 -0.019839 0.028584
vn -0.999395 -0.019839 0.028584
vn 0.000000 0.000000 1.000000
vn 0.000000 0.000000 1.000000
vn 0.000000 0.000000 1.000000
vn 0.000000 0.000000 1.000000
vn 0.000000 0.000000 1.000000
vn 0.000000 0.000000 1.000000
vn -0.999530 -0.012309 0.028088
vn -0.999989 0.001652 0.004355
vn -0.996360 0.018524 0.083213
vn 0.012983 0.003464 -0.999910
vn 0.010746 -0.004524 -0.999932
vn 0.012651 0.002278 -0.999917
vn 0.012830 0.003423 -0.999912
vn 0.011346 0.003027 -0.999931
vn 0.999783 -0.001909 -0.020745
vn 0.999838 0.001626 -0.017949
vn 0.999649 -0.007736 -0.025351
vn 0.999649 -0.007736 -0.025351
vn 0.999649 -0.007736 -0.025351
vn 0.850834 0.525435 0.000000
vn 0.850834 0.525435 0.000000
vn 0.850834 0.525435 0.000000
vn 0.850834 0.525435 0.000000
vn 0.005570 0.527891 -0.849294
vn 0.005570 0.527891 -0.849294
vn 0.005570 0.527891 -0.849294
vn 0.005570 0.527891 -0.849294
vn -0.513727 0.603236 -0.610074
vn -0.513727 0.603236 -0.610074
vn -0.513727 0.603236 -0.610074
vn -0.513727 0.603236 -0.610074
vn -0.848459 0.529261 -0.000001
vn -0.848459 0.529261 -0.000001
vn -0.848459 0.529261 -0.000001
vn -0.848459 0.529260 -0.000001
vn 0.004270 0.527314 0.849660
vn 0.004270 0.527313 0.849660
vn 0.004270 0.527314 0.849660
vn 0.004270 0.527314 0.849660
vn 0.000000 -1.000000 0.000000
vn 0.000000 -1.000000 0.000000
vn 0.000000 -1.000000 0.000000
vn 0.000000 -1.000000 0.000000
s off
f 19/1/1 12/2/2 30/3/3
f 13/4/4 14/5/5 6/6/6
f 27/7/7 17/8/8 15/9/9 11/10/10 9/11/11 1/12/12
f 32/45/13 31/44/14 33/43/15 34/42/16 35/41/17
f 12/18/18 11/10/19 10/19/20
f 9/11/21 11/10/22 12/18/23
f 15/9/24 14/5/25 13/4/26 8/20/27
f 29/21/28 21/22/29 19/1/30 14/5/31 5/23/32
f 17/8/33 16/25/34 15/9/35
f 7/26/36 16/25/37 17/8/38
f 19/1/39 21/22/40 20/27/41
f 20/27/42 21/22/43 18/28/44
f 7/29/45 27/30/46 1/31/47 23/32/48 22/33/49
f 1/31/50 26/34/51 3/35/52 24/36/53 23/32/54
f 3/35/55 29/37/56 5/38/57 25/39/58 24/36/59
f 5/38/60 28/40/61 7/29/62 22/33/63 25/39/64
f 26/49/65 20/27/66 18/28/67 3/50/68
f 7/26/69 17/8/70 27/7/71
f 28/51/72 16/25/73 7/26/74
f 3/50/75 18/28/76 21/22/77 29/21/78
f 30/3/79 12/2/80 10/52/81 2/13/82 4/17/83
f 14/5/84 30/3/85 4/17/86 6/6/87
f 1/53/88 9/48/89 12/2/90 19/1/91 20/27/92 26/49/93
f 14/5/94 19/1/95 30/3/96
f 5/23/97 14/5/98 15/9/99 16/25/100 28/51/101
f 11/10/102 15/9/103 8/20/104 2/47/105 10/19/106
f 2/14/107 8/15/108 31/44/109 32/45/110
f 8/15/111 13/16/112 33/43/113 31/44/114
f 13/16/115 6/24/116 34/42/117 33/43/118
f 6/24/119 4/46/120 35/41/121 34/42/122
f 4/46/123 2/14/124 32/45/125 35/41/126
f 25/39/127 22/33/128 23/32/129 24/36/130
