# This file uses centimeters as units for non-parametric coordinates.

v 33.808975 58.500343 5.329941
v 26.052078 -0.973602 -0.396881
v -20.734833 -0.900475 -2.716766
v -20.734833 58.851685 3.692215
v -20.734833 -1.120186 -0.668350
v -20.734833 58.363762 8.241333
v -13.012802 58.722622 3.316406
v -13.012802 58.157928 8.581207
v -13.012802 -1.259346 2.208191
v -13.012802 -0.694656 -3.056641
v 33.808975 58.716110 3.318237
v 31.484909 58.151955 8.578049
v 26.052078 58.716110 3.318237
v 26.052078 58.151955 8.578049
v 33.808975 -1.252838 2.206345
v 28.006744 -1.252838 2.206345
v 33.808975 -0.688667 -3.053467
v 26.052078 -0.688667 -3.053467
v 33.808975 33.136581 5.894897
v 26.052078 15.574654 4.011246
v -17.592072 -1.356133 1.926346
v -20.734833 13.102089 3.386597
v 40.308365 12.643356 -6.346634
v 36.213821 27.644859 -5.861938
v 36.213821 26.957901 -1.037384
v -24.215179 26.957901 -1.037384
v -24.215179 27.644859 -5.861938
v 36.213821 44.865479 -3.409943
v 36.213821 44.178520 1.414627
v -24.215179 44.178520 1.414627
v -24.215179 44.865479 -3.409943
v -27.393433 60.508743 -1.700943
v 40.467621 60.508743 -1.700943
v -27.393433 60.134270 0.929077
v 40.467621 59.677094 4.139832
v 40.314117 46.162277 -4.212463
v 40.314117 45.199787 2.547195
v -27.239929 45.199787 2.547195
v -27.239929 46.162277 -4.212463
v 40.308365 13.011124 -8.929489
v 40.308365 14.715111 -1.796722
v 40.308365 26.685886 -6.982407
v 40.308365 25.724312 -0.229141
v -27.234177 12.049545 -2.176239
v -27.234177 24.259613 -0.437714
v -27.234177 13.011124 -8.929489
v -27.234177 26.685886 -6.982407
v 38.025085 28.873566 -6.496674
v 38.025085 27.960609 -0.084915
v 38.025085 43.862755 -4.362396
v 38.025085 40.806133 1.744125
v -26.460342 27.960609 -0.084915
v -26.460342 42.949791 2.049362
v -26.460342 28.873566 -6.496674
v -26.460342 43.862755 -4.362396
v 22.130478 42.949791 2.049362
v 38.025085 43.472855 -1.624161
v 17.371735 12.049545 -2.176239
v -11.805008 25.724312 -0.229141
v -27.234177 26.200222 -3.571548
v -27.355042 56.056221 3.741486
v -14.107071 59.677094 4.139832
vt 0.248706 0.384551
vt 0.248706 0.384551
vt 0.248706 0.384551
vt 0.248706 0.384551
vt 0.248706 0.384551
vt 0.248706 0.384551
vt 0.248706 0.384551
vt 0.248706 0.384551
vt 0.248706 0.384551
vt 0.248706 0.384551
vt 0.248706 0.384551
vt 0.248706 0.384551
vt 0.248706 0.384551
vt 0.248706 0.384551
vt 0.248706 0.384551
vt 0.248706 0.384551
vt 0.248706 0.384551
vt 0.248706 0.384551
vt 0.248706 0.384551
vt 0.248706 0.384551
vt 0.248706 0.384551
vt 0.248706 0.384551
vt 0.248706 0.384551
vt 0.248706 0.384551
vt 0.248706 0.384551
vt 0.248706 0.384551
vt 0.248706 0.384551
vt 0.248706 0.384551
vt 0.248706 0.384551
vt 0.248706 0.384551
vt 0.248706 0.384551
vt 0.248706 0.384551
vt 0.248706 0.384551
vt 0.248706 0.384551
vt 0.248706 0.384551
vt 0.248706 0.384551
vt 0.248706 0.384551
vt 0.248706 0.384551
vt 0.248706 0.384551
vt 0.248706 0.384551
vt 0.248706 0.384551
vt 0.248706 0.384551
vt 0.248706 0.384551
vt 0.248706 0.384551
vt 0.248706 0.384551
vt 0.248706 0.384551
vt 0.248706 0.384551
vt 0.248706 0.384551
vt 0.248706 0.384551
vt 0.248706 0.384551
vt 0.248706 0.384551
vt 0.248706 0.384551
vt 0.248706 0.384551
vt 0.248706 0.384551
vt 0.248706 0.384551
vt 0.248706 0.384551
vt 0.248706 0.384551
vt 0.248706 0.384551
vt 0.248706 0.384551
vt 0.248706 0.384551
vt 0.248706 0.384551
vt 0.248706 0.384551
vt 0.248706 0.384551
vt 0.248706 0.384551
vt 0.248706 0.384551
vt 0.248706 0.384551
vt 0.248706 0.384551
vt 0.248706 0.384551
vt 0.248706 0.384551
vt 0.248706 0.384551
vt 0.248706 0.384551
vt 0.248706 0.384551
vt 0.248706 0.384551
vt 0.248706 0.384551
vt 0.248706 0.384551
vt 0.248706 0.384551
vt 0.248706 0.384551
vt 0.248706 0.384551
vt 0.248706 0.384551
vt 0.248706 0.384551
vt 0.248706 0.384551
vt 0.248706 0.384551
vt 0.248706 0.384551
vt 0.248706 0.384551
vt 0.248706 0.384551
vt 0.248706 0.384551
vt 0.248706 0.384551
vt 0.248706 0.384551
vt 0.248706 0.384551
vt 0.248706 0.384551
vt 0.248706 0.384551
vt 0.248706 0.384551
vt 0.248706 0.384551
vt 0.248706 0.384551
vt 0.248706 0.384551
vt 0.248706 0.384551
vt 0.248706 0.384551
vt 0.248706 0.384551
vt 0.248706 0.384551
vt 0.248706 0.384551
vt 0.248706 0.384551
vt 0.248706 0.384551
vt 0.248706 0.384551
vt 0.248706 0.384551
vt 0.248706 0.384551
vt 0.248706 0.384551
vt 0.248706 0.384551
vt 0.248706 0.384551
vt 0.248706 0.384551
vt 0.248706 0.384551
vt 0.248706 0.384551
vt 0.248706 0.384551
vt 0.248706 0.384551
vt 0.248706 0.384551
vt 0.248706 0.384551
vt 0.248706 0.384551
vt 0.248706 0.384551
vt 0.248706 0.384551
vt 0.248706 0.384551
vt 0.248706 0.384551
vt 0.248706 0.384551
vt 0.248706 0.384551
vt 0.248706 0.384551
vt 0.248706 0.384551
vt 0.248706 0.384551
vt 0.248706 0.384551
vt 0.248706 0.384551
vt 0.248706 0.384551
vt 0.248706 0.384551
vn -0.000000 0.994297 0.106646
vn -0.000000 0.994297 0.106646
vn -0.000000 0.994297 0.106646
vn -0.000000 0.994297 0.106646
vn -0.000000 0.994297 0.106646
vn 0.000000 0.106647 -0.994297
vn 0.000000 0.106647 -0.994297
vn 0.000000 0.106647 -0.994297
vn 0.000000 0.106647 -0.994297
vn 0.021804 0.994061 0.106621
vn 0.021804 0.994061 0.106621
vn 0.021804 0.994061 0.106621
vn 0.021804 0.994061 0.106621
vn -0.047479 -0.107019 0.993123
vn -0.047479 -0.107019 0.993123
vn -0.047479 -0.107019 0.993123
vn -0.047479 -0.107019 0.993123
vn -0.047479 -0.107019 0.993123
vn 0.022921 -0.993711 -0.109606
vn 0.022921 -0.993711 -0.109606
vn 0.022921 -0.993711 -0.109606
vn 0.022921 -0.993711 -0.109606
vn 0.022921 -0.993711 -0.109606
vn -0.046556 0.106532 -0.993219
vn -0.046556 0.106532 -0.993219
vn -0.046556 0.106532 -0.993219
vn -0.046556 0.106532 -0.993219
vn -0.797904 -0.155159 0.582473
vn -0.797904 -0.155159 0.582473
vn -0.797904 -0.155159 0.582473
vn -1.000000 -0.000000 0.000000
vn -1.000000 -0.000000 0.000000
vn -1.000000 -0.000000 0.000000
vn -1.000000 -0.000000 0.000000
vn -1.000000 -0.000000 0.000000
vn 0.812533 0.012981 0.582771
vn 0.812533 0.012981 0.582771
vn 0.812533 0.012981 0.582771
vn -0.000001 -0.994297 -0.106649
vn -0.000001 -0.994297 -0.106649
vn -0.000001 -0.994297 -0.106649
vn -0.000001 -0.994297 -0.106649
vn -0.000001 -0.994297 -0.106649
vn 0.000002 -0.106647 0.994297
vn 0.000002 -0.106647 0.994297
vn 0.000002 -0.106647 0.994297
vn 0.000002 -0.106647 0.994297
vn 0.000002 -0.106647 0.994297
vn 0.000002 -0.106647 0.994297
vn -0.631552 -0.212585 0.745620
vn -0.631552 -0.212585 0.745620
vn -0.631552 -0.212585 0.745620
vn 1.000000 0.000000 0.000000
vn 1.000000 0.000000 0.000000
vn 1.000000 0.000000 0.000000
vn 1.000000 0.000000 0.000000
vn 1.000000 0.000000 0.000000
vn 1.000000 0.000000 0.000000
vn 1.000000 0.000000 0.000000
vn 1.000000 0.000000 0.000000
vn 1.000000 0.000000 0.000000
vn -1.000000 -0.000000 0.000000
vn -1.000000 -0.000000 0.000000
vn -1.000000 -0.000000 0.000000
vn -1.000000 -0.000000 0.000000
vn -1.000000 -0.000000 0.000000
vn 1.000000 0.000000 0.000000
vn 1.000000 0.000000 0.000000
vn 1.000000 0.000000 0.000000
vn 1.000000 0.000000 0.000000
vn 1.000000 0.000000 0.000000
vn 0.000000 0.140963 -0.990015
vn 0.000000 0.140963 -0.990015
vn 0.000000 0.140963 -0.990015
vn 0.000000 0.140963 -0.990015
vn 0.000000 -0.140966 0.990014
vn 0.000000 -0.140966 0.990014
vn 0.000000 -0.140966 0.990014
vn 0.000000 -0.140966 0.990014
vn 0.000000 -0.140966 0.990014
vn -1.000000 0.000000 0.000000
vn -1.000000 0.000000 0.000000
vn -1.000000 0.000000 0.000000
vn -1.000000 0.000000 0.000000
vn 0.000000 0.140966 -0.990014
vn 0.000000 0.140966 -0.990014
vn 0.000000 0.140966 -0.990014
vn 0.000000 0.140966 -0.990014
vn 0.999944 -0.010439 -0.001486
vn 0.999944 -0.010439 -0.001486
vn 0.999944 -0.010439 -0.001486
vn 0.999944 -0.010439 -0.001486
vn -0.000000 -0.109349 0.994003
vn -0.000000 -0.109349 0.994003
vn -0.000000 -0.109349 0.994003
vn -0.000000 -0.109349 0.994003
vn -0.000000 -0.109349 0.994003
vn -0.999944 -0.010439 -0.001486
vn -0.999944 -0.010439 -0.001486
vn -0.999944 -0.010439 -0.001486
vn -0.999944 -0.010439 -0.001486
vn -0.999944 -0.010439 -0.001486
vn 0.000000 0.172440 -0.985020
vn 0.000000 0.172440 -0.985020
vn 0.000000 0.172440 -0.985020
vn 0.000000 0.172440 -0.985020
vn 0.274550 -0.951971 -0.135548
vn 0.274550 -0.951971 -0.135549
vn 0.274550 -0.951971 -0.135548
vn 0.274550 -0.951971 -0.135549
vn 0.000000 -0.742657 0.669672
vn 0.000000 -0.742657 0.669672
vn 0.000000 -0.742657 0.669672
vn 0.000000 -0.742657 0.669672
vn -0.360954 -0.923271 -0.131462
vn -0.360954 -0.923271 -0.131462
vn -0.360954 -0.923271 -0.131462
vn -0.360954 -0.923271 -0.131462
vn 0.000000 -0.526231 -0.850342
vn 0.000000 -0.526230 -0.850342
vn 0.000000 -0.526230 -0.850342
vn 0.000000 -0.526231 -0.850342
vn 0.261064 0.955682 0.136077
vn 0.261064 0.955682 0.136077
vn 0.261064 0.955682 0.136077
vn 0.261064 0.955682 0.136077
vn -0.037405 0.256496 0.965821
vn -0.037405 0.256496 0.965821
vn -0.037405 0.256496 0.965821
vn -0.548101 0.711110 0.440350
vn -0.548101 0.711110 0.440350
vn -0.548101 0.711110 0.440350
vn 0.000000 0.759735 -0.650233
vn 0.000000 0.759735 -0.650233
vn 0.000000 0.759735 -0.650233
vn 0.000000 0.759735 -0.650233
vn 0.528286 -0.840588 -0.119689
vn 0.528286 -0.840588 -0.119689
vn 0.528286 -0.840588 -0.119689
vn 0.528286 -0.840588 -0.119689
vn 0.802893 0.467376 0.370029
vn 0.802893 0.467376 0.370029
vn 0.802893 0.467376 0.370029
vn 0.000000 -0.688710 0.725037
vn 0.000000 -0.688710 0.725037
vn 0.000000 -0.688710 0.725037
vn 0.000000 -0.688710 0.725037
vn 0.000000 0.458959 0.888457
vn 0.000000 0.458959 0.888457
vn 0.000000 0.458959 0.888458
vn 0.000000 0.458959 0.888457
vn -0.448608 -0.884804 -0.125985
vn -0.448608 -0.884804 -0.125985
vn -0.448608 -0.884804 -0.125986
vn -0.448608 -0.884804 -0.125986
vn -0.448614 0.884802 0.125985
vn -0.448614 0.884801 0.125985
vn -0.448614 0.884801 0.125985
vn -0.448614 0.884801 0.125985
vn 0.000000 -0.458966 -0.888454
vn 0.000000 -0.458966 -0.888454
vn 0.000000 -0.458966 -0.888454
vn 0.000000 -0.458966 -0.888454
vn 0.000000 0.688698 -0.725048
vn 0.000000 0.688698 -0.725048
vn 0.000000 0.688698 -0.725048
vn 0.000000 0.688698 -0.725048
vn 0.000000 0.990015 0.140965
vn 0.000000 0.990015 0.140965
vn 0.000000 0.990015 0.140965
vn 0.000000 0.990015 0.140965
vn 0.000000 0.990015 0.140965
vn 0.034654 0.115603 0.992691
vn 0.034654 0.115603 0.992691
vn 0.034654 0.115603 0.992691
vn 1.000000 0.000000 0.000000
vn 1.000000 0.000000 0.000000
vn 1.000000 0.000000 0.000000
vn 1.000000 0.000000 0.000000
vn 1.000000 0.000000 0.000000
vn 0.528293 0.840584 0.119690
vn 0.528293 0.840584 0.119689
vn 0.528293 0.840584 0.119690
vn 0.528293 0.840584 0.119690
vn 0.098429 -0.905675 0.412389
vn 0.098429 -0.905675 0.412389
vn 0.098429 -0.905675 0.412389
vn 0.000000 0.548039 0.836452
vn 0.000000 0.548039 0.836452
vn 0.000000 0.548039 0.836452
vn 0.000000 0.548039 0.836452
vn -0.344359 0.929463 0.132344
vn -0.344359 0.929463 0.132344
vn -0.344359 0.929463 0.132344
vn -0.344359 0.929463 0.132344
vn -1.000000 -0.000000 0.000000
vn -1.000000 -0.000000 0.000000
vn -1.000000 -0.000000 0.000000
vn -1.000000 -0.000000 0.000000
vn -1.000000 -0.000000 0.000000
vn 0.000000 -0.140965 0.990015
vn 0.000000 -0.140965 0.990015
vn 0.000000 -0.140965 0.990015
vn 0.000000 -0.140965 0.990015
vn 0.000000 -0.140965 0.990015
vn 0.000000 -0.140965 0.990015
vn -0.176802 0.557656 0.811025
vn -0.176802 0.557656 0.811025
vn -0.176802 0.557656 0.811025
vn -0.000000 -0.990015 -0.140966
vn -0.000000 -0.990014 -0.140966
vn -0.000000 -0.990014 -0.140966
vn -0.000000 -0.990014 -0.140966
vn -0.000000 -0.990015 -0.140966
s off
f 12/1/1 1/2/2 11/3/3 13/4/4 14/5/5
f 17/6/6 18/7/7 13/8/8 11/9/9
f 8/10/10 7/11/11 4/12/12 6/13/13
f 6/13/14 22/14/15 21/15/16 9/16/17 8/10/18
f 10/17/19 9/16/20 21/15/21 5/18/22 3/19/23
f 10/17/24 3/19/25 4/20/26 7/21/27
f 20/22/28 2/23/29 16/24/30
f 22/25/31 6/13/32 4/12/33 3/26/34 5/27/35
f 19/28/36 1/29/37 12/30/38
f 17/6/39 15/31/40 16/32/41 2/33/42 18/7/43
f 20/34/44 16/35/45 15/36/46 19/37/47 12/1/48 14/5/49
f 21/15/50 22/14/51 5/18/52
f 19/37/53 15/31/54 17/6/55 11/3/56 1/29/57
f 8/10/58 9/16/59 10/17/60 7/11/61
f 14/5/62 13/8/63 18/7/64 2/23/65 20/34/66
f 41/38/67 23/39/68 40/40/69 42/41/70 43/42/71
f 46/43/72 47/44/73 42/45/74 40/46/75
f 53/47/76 52/48/77 49/49/78 51/50/79 56/51/80
f 54/52/81 52/48/82 53/47/83 55/53/84
f 54/52/85 55/53/86 50/54/87 48/55/88
f 37/56/89 36/57/90 33/58/91 35/59/92
f 35/59/93 62/60/94 61/61/95 38/62/96 37/56/97
f 39/63/98 38/62/99 61/61/100 34/64/101 32/65/102
f 39/63/103 32/65/104 33/66/105 36/67/106
f 29/68/107 28/69/108 36/70/109 37/71/110
f 38/72/111 30/73/112 29/68/113 37/71/114
f 31/74/115 30/75/116 38/76/117 39/77/118
f 31/74/119 39/78/120 36/79/121 28/69/122
f 24/80/123 25/81/124 43/82/125 42/83/126
f 59/84/127 26/85/128 45/86/129
f 26/87/130 60/88/131 45/89/132
f 47/90/133 27/91/134 24/92/135 42/93/136
f 25/94/137 24/95/138 48/96/139 49/49/140
f 57/97/141 29/98/142 51/50/143
f 52/48/144 26/99/145 25/100/146 49/49/147
f 30/101/148 53/47/149 56/51/150 29/102/151
f 27/103/152 26/104/153 52/48/154 54/52/155
f 30/105/156 31/106/157 55/53/158 53/47/159
f 27/107/160 54/52/161 48/55/162 24/108/163
f 55/53/164 31/106/165 28/109/166 50/54/167
f 62/110/168 35/59/169 33/58/170 32/111/171 34/112/172
f 29/113/173 56/51/174 51/50/175
f 49/49/176 48/96/177 50/114/178 57/97/179 51/50/180
f 28/115/181 29/116/182 57/97/183 50/114/184
f 58/117/185 23/118/186 41/119/187
f 26/85/188 59/84/189 43/120/190 25/81/191
f 26/87/192 27/121/193 47/122/194 60/88/195
f 46/43/196 44/123/197 45/124/198 60/125/199 47/44/200
f 59/126/201 45/127/202 44/128/203 58/129/204 41/38/205 43/42/206
f 61/61/207 62/60/208 34/64/209
f 58/129/210 44/123/211 46/43/212 40/40/213 23/118/214
