# This file uses centimeters as units for non-parametric coordinates.

v 8.686218 2.173289 14.816912
v 7.739914 2.280477 13.566078
v 1.978714 1.202328 16.405079
v 8.676514 -0.594658 24.548370
v 15.479340 2.189092 16.497828
v 9.692810 2.549499 13.247381
v 4.865997 2.372982 12.533443
v 3.429031 -0.211087 20.738831
v 14.492645 0.584312 20.538651
v 12.462860 2.486012 13.037113
v 8.811340 2.397831 16.344824
v 4.584320 2.635129 16.364950
v 5.709686 2.507178 19.981377
v 8.879562 2.200358 22.255203
v 12.001648 3.074518 19.856205
v 12.909515 3.366502 16.424717
v 0.946701 -10.685325 13.129475
v 1.628815 -7.298793 12.692535
v 4.966080 -7.298793 11.473392
v 5.649399 -10.685325 10.856152
v 10.641953 -10.685325 12.893820
v 9.195877 -10.685325 16.698841
v 10.349609 -7.298793 13.412672
v 9.052383 -7.298793 16.026810
v 14.257202 -10.685325 13.211988
v 16.671463 -10.685325 15.455654
v 14.642242 -7.298793 13.239885
v 16.095123 -7.298793 14.900557
v 20.759201 -10.685325 7.294085
v 21.012787 -10.685325 10.260521
v 20.058777 -9.149414 9.112526
v 20.048981 -9.149414 10.673388
v 0.969910 -10.685325 4.830549
v -1.593887 -10.685325 8.183794
v -0.303772 -7.298793 7.991232
v 0.288345 -7.298793 6.504959
v -11.317978 -10.685325 3.151920
v -7.222168 -10.685325 6.393435
v -6.224991 -9.149415 5.748507
v -8.858810 -9.149415 3.664014
v 9.483398 2.412647 17.395329
v 7.756683 2.014419 16.312693
v 8.432724 2.045693 15.834484
v 6.689606 -7.481018 14.081652
v 7.468582 -7.481018 12.733181
v 8.868912 -7.481018 14.791622
vt 0.153809 0.327263
vt 0.153809 0.327263
vt 0.153809 0.327263
vt 0.153809 0.327263
vt 0.153809 0.327263
vt 0.153809 0.327263
vt 0.153809 0.327263
vt 0.153809 0.327263
vt 0.153809 0.327263
vt 0.153809 0.327263
vt 0.153809 0.327263
vt 0.153809 0.327263
vt 0.153809 0.327263
vt 0.153809 0.327263
vt 0.153809 0.327263
vt 0.153809 0.327263
vt 0.144433 0.351639
vt 0.144433 0.351639
vt 0.144433 0.351639
vt 0.144433 0.351639
vt 0.144433 0.351639
vt 0.144433 0.351639
vt 0.144433 0.351639
vt 0.144433 0.351639
vt 0.144433 0.351639
vt 0.144433 0.351639
vt 0.144433 0.351639
vt 0.144433 0.351639
vt 0.144433 0.351639
vt 0.144433 0.351639
vt 0.144433 0.351639
vt 0.144433 0.351639
vt 0.144433 0.351639
vt 0.144433 0.351639
vt 0.144433 0.351639
vt 0.144433 0.351639
vt 0.144433 0.351639
vt 0.144433 0.351639
vt 0.144433 0.351639
vt 0.144433 0.351639
vt 0.144433 0.351639
vt 0.144433 0.351639
vt 0.146308 0.352576
vt 0.146308 0.352576
vt 0.146308 0.352576
vt 0.146308 0.352576
vt 0.146308 0.352576
vt 0.146308 0.352576
vt 0.146308 0.352576
vt 0.146308 0.352576
vn -0.262126 0.964646 -0.027362
vn -0.262126 0.964646 -0.027362
vn -0.262126 0.964646 -0.027362
vn -0.262126 0.964646 -0.027362
vn 0.056126 0.998264 0.017854
vn 0.056126 0.998264 0.017854
vn 0.056126 0.998264 0.017854
vn 0.083844 0.993705 -0.074296
vn 0.083844 0.993705 -0.074296
vn 0.083844 0.993705 -0.074296
vn 0.083844 0.993705 -0.074296
vn 0.073198 0.996789 0.032459
vn 0.073198 0.996789 0.032459
vn 0.073198 0.996789 0.032459
vn -0.230376 0.972857 0.021829
vn -0.230376 0.972857 0.021829
vn -0.230376 0.972857 0.021829
vn -0.244285 0.969064 0.035197
vn -0.244285 0.969064 0.035197
vn -0.244285 0.969065 0.035197
vn -0.222599 0.971385 -0.082826
vn -0.222599 0.971385 -0.082826
vn -0.222599 0.971385 -0.082826
vn -0.222599 0.971385 -0.082826
vn -0.578688 0.744953 0.331912
vn -0.578688 0.744952 0.331912
vn -0.578688 0.744952 0.331912
vn -0.578688 0.744952 0.331912
vn -0.445989 0.578712 0.682778
vn -0.445989 0.578712 0.682778
vn -0.445989 0.578712 0.682778
vn -0.445989 0.578712 0.682778
vn 0.386084 0.573789 0.722292
vn 0.386084 0.573789 0.722292
vn 0.386084 0.573789 0.722292
vn 0.386084 0.573789 0.722292
vn 0.520621 0.786720 0.331701
vn 0.520621 0.786720 0.331701
vn 0.520621 0.786720 0.331701
vn 0.520621 0.786720 0.331701
vn 0.211195 0.938873 -0.271873
vn 0.211195 0.938873 -0.271873
vn 0.211195 0.938873 -0.271873
vn 0.211195 0.938873 -0.271873
vn 0.863762 0.501750 -0.046513
vn 0.863762 0.501750 -0.046513
vn 0.863762 0.501750 -0.046513
vn 0.863762 0.501750 -0.046513
vn -0.500720 0.590758 0.632680
vn -0.500720 0.590758 0.632680
vn -0.500720 0.590758 0.632680
vn -0.500720 0.590758 0.632680
vn 0.350380 0.203811 -0.914163
vn 0.350380 0.203811 -0.914163
vn 0.350381 0.203811 -0.914163
vn 0.350380 0.203811 -0.914163
vn 0.000000 1.000000 0.000000
vn 0.000000 1.000000 0.000000
vn 0.000000 1.000000 0.000000
vn 0.000000 1.000000 0.000000
vn -0.396604 0.178960 0.900377
vn -0.396604 0.178960 0.900377
vn -0.396604 0.178960 0.900377
vn -0.396604 0.178960 0.900377
vn 0.018322 0.080200 -0.996610
vn 0.018322 0.080200 -0.996610
vn 0.018322 0.080200 -0.996610
vn 0.018322 0.080200 -0.996610
vn 0.000000 1.000000 0.000000
vn 0.000000 1.000000 0.000000
vn 0.000000 1.000000 0.000000
vn 0.000000 1.000000 0.000000
vn 0.158067 0.192275 0.968527
vn 0.158067 0.192275 0.968527
vn 0.158067 0.192275 0.968527
vn 0.158067 0.192275 0.968527
vn -0.601950 0.246343 -0.759586
vn -0.601950 0.246343 -0.759586
vn -0.601950 0.246343 -0.759586
vn -0.601950 0.246343 -0.759586
vn 0.269659 0.955350 -0.120794
vn 0.269659 0.955350 -0.120794
vn 0.269659 0.955350 -0.120794
vn 0.269659 0.955350 -0.120794
vn 0.750320 0.252417 0.610988
vn 0.750320 0.252417 0.610988
vn 0.750320 0.252417 0.610988
vn 0.750320 0.252417 0.610988
vn -0.868171 0.290215 0.402559
vn -0.868171 0.290215 0.402559
vn -0.868171 0.290215 0.402559
vn -0.868171 0.290215 0.402559
vn 0.000000 1.000000 -0.000000
vn 0.000000 1.000000 -0.000000
vn 0.000000 1.000000 -0.000000
vn 0.000000 1.000000 -0.000000
vn 0.713557 0.349279 -0.607322
vn 0.713557 0.349279 -0.607322
vn 0.713557 0.349279 -0.607322
vn 0.713557 0.349279 -0.607322
vn -0.357508 0.315663 0.878945
vn -0.357508 0.315663 0.878946
vn -0.357508 0.315663 0.878946
vn -0.357508 0.315663 0.878945
vn -0.287201 0.943689 0.164216
vn -0.287201 0.943689 0.164216
vn -0.287201 0.943689 0.164216
vn -0.287201 0.943689 0.164216
vn 0.164187 0.350311 -0.922131
vn 0.164187 0.350311 -0.922131
vn 0.164187 0.350311 -0.922131
vn 0.164187 0.350311 -0.922131
vn -0.393414 -0.190169 0.899478
vn -0.393414 -0.190169 0.899478
vn -0.393414 -0.190169 0.899478
vn -0.393414 -0.190169 0.899478
vn -0.759529 0.249500 -0.600721
vn -0.759529 0.249500 -0.600721
vn -0.759529 0.249500 -0.600721
vn -0.759529 0.249500 -0.600721
vn 0.819200 0.099339 -0.564839
vn 0.819200 0.099339 -0.564839
vn 0.819200 0.099339 -0.564839
vn 0.819200 0.099339 -0.564839
s off
f 1/1/1 11/2/2 16/3/3 6/4/4
f 12/5/5 13/6/6 11/2/7
f 2/7/8 12/5/9 11/2/10 1/1/11
f 11/2/12 13/6/13 14/8/14
f 11/2/15 15/9/16 16/3/17
f 11/2/18 14/8/19 15/9/20
f 3/10/21 12/5/22 2/7/23 7/11/24
f 3/10/25 8/12/26 13/6/27 12/5/28
f 14/8/29 13/6/30 8/12/31 4/13/32
f 15/9/33 14/8/34 4/13/35 9/14/36
f 16/3/37 15/9/38 9/14/39 5/15/40
f 6/4/41 16/3/42 5/15/43 10/16/44
f 30/21/45 29/22/46 31/23/47 32/24/48
f 37/25/49 38/26/50 39/27/51 40/28/52
f 20/29/53 19/30/54 23/31/55 21/32/56
f 19/30/57 18/18/58 24/33/59 23/31/60
f 18/18/61 17/17/62 22/34/63 24/33/64
f 21/32/65 23/31/66 27/35/67 25/36/68
f 23/31/69 24/33/70 28/37/71 27/35/72
f 24/33/73 22/34/74 26/38/75 28/37/76
f 29/22/77 25/36/78 27/35/79 31/23/80
f 27/35/81 28/37/82 32/24/83 31/23/84
f 28/37/85 26/38/86 30/21/87 32/24/88
f 18/18/89 35/39/90 34/40/91 17/17/92
f 19/19/93 36/41/94 35/39/95 18/18/96
f 20/20/97 33/42/98 36/41/99 19/19/100
f 34/40/101 35/39/102 39/27/103 38/26/104
f 35/39/105 36/41/106 40/28/107 39/27/108
f 36/41/109 33/42/110 37/25/111 40/28/112
f 41/43/113 42/44/114 44/45/115 46/46/116
f 43/47/117 45/48/118 44/45/119 42/49/120
f 41/43/121 46/46/122 45/48/123 43/50/124
