# This file uses centimeters as units for non-parametric coordinates.

v -0.705223 10.590596 0.705219
v 0.705223 10.590596 0.705219
v -0.749496 12.808069 0.590519
v -0.047508 12.910378 0.576706
v -0.771835 12.865932 -0.116297
v -0.069855 12.968242 -0.130112
v -0.705223 10.590596 -0.705219
v 0.705223 10.590596 -0.705219
v -0.451378 11.830760 -0.112242
v -0.432434 11.781701 0.487024
v 0.162735 11.868443 0.475311
v 0.143791 11.917500 -0.123955
v 1.754051 0.000000 -3.038097
v -1.754044 0.000000 -3.038099
v -3.508095 0.000000 0.000000
v -1.754044 0.000000 3.038097
v 1.754044 0.000000 3.038097
v 3.508095 0.000000 0.000000
v 3.038101 1.854669 -5.262140
v -3.038094 1.854669 -5.262140
v -6.076195 1.854669 0.000000
v -3.038101 1.854669 5.262140
v 3.038101 1.854669 5.262140
v 6.076195 1.854669 0.000000
v 3.508095 4.706495 -6.076197
v -3.508095 4.706495 -6.076197
v -7.016190 4.706495 -0.000002
v -3.508095 4.706495 6.076195
v 3.508095 4.706495 6.076197
v 7.016190 4.706495 0.000000
v 3.038101 7.964235 -5.262140
v -3.038094 7.964235 -5.262140
v -6.076195 7.964235 0.000000
v -3.038101 7.964235 5.262140
v 3.038101 7.964235 5.262140
v 6.076195 7.964235 0.000000
v 2.044540 10.198843 -3.060797
v -1.973656 9.973509 -3.585888
v -3.508095 10.414048 0.000000
v -2.016075 9.811913 3.362770
v 2.002724 10.132025 3.099604
v 3.508095 10.414048 0.000000
v 0.000000 -0.503493 0.000000
v 1.146881 10.740751 0.085030
v -1.748474 10.594496 1.134966
v 0.026810 10.622105 2.036566
v -0.065712 10.627044 -1.565016
v -1.298393 10.625557 -0.901783
v 0.000824 11.196636 0.003784
vt 0.154934 0.304274
vt 0.154934 0.304274
vt 0.154934 0.304274
vt 0.154934 0.304274
vt 0.154934 0.304274
vt 0.154934 0.304274
vt 0.154934 0.304274
vt 0.154934 0.304274
vt 0.154934 0.304274
vt 0.154934 0.304274
vt 0.154934 0.304274
vt 0.154934 0.304274
vt 0.154934 0.304274
vt 0.154934 0.304274
vt 0.154934 0.304274
vt 0.154934 0.304274
vt 0.154934 0.304274
vt 0.154934 0.304274
vt 0.137649 0.420745
vt 0.137649 0.420745
vt 0.137649 0.420745
vt 0.137649 0.420745
vt 0.137649 0.420745
vt 0.137649 0.420745
vt 0.137649 0.420745
vt 0.137649 0.420745
vt 0.137649 0.420745
vt 0.137649 0.420745
vt 0.137649 0.420745
vt 0.137649 0.420745
vt 0.137649 0.420745
vt 0.137649 0.420745
vt 0.137649 0.420745
vt 0.137649 0.420745
vt 0.137649 0.420745
vt 0.137649 0.420745
vt 0.137649 0.420745
vt 0.137649 0.420745
vt 0.137649 0.420745
vt 0.137649 0.420745
vt 0.137649 0.420745
vt 0.137649 0.420745
vt 0.137649 0.420745
vt 0.137649 0.420745
vt 0.137649 0.420745
vt 0.137649 0.420745
vt 0.137649 0.420745
vt 0.137649 0.420745
vt 0.137649 0.420745
vt 0.137649 0.420745
vt 0.137649 0.420745
vt 0.137649 0.420745
vt 0.137649 0.420745
vt 0.137649 0.420745
vt 0.137649 0.420745
vt 0.137649 0.420745
vt 0.137649 0.420745
vt 0.137649 0.420745
vt 0.137649 0.420745
vt 0.155147 0.304091
vt 0.137649 0.420745
vt 0.137649 0.420745
vt 0.137649 0.420745
vt 0.137649 0.420745
vt 0.137649 0.420745
vt 0.137649 0.420745
vt 0.155147 0.304091
vt 0.155147 0.304091
vt 0.155147 0.304091
vt 0.155147 0.304091
vt 0.155147 0.304091
vt 0.155147 0.304091
vt 0.155147 0.304091
vt 0.155147 0.304091
vt 0.155147 0.304091
vt 0.155147 0.304091
vn 0.009565 0.090455 0.995855
vn 0.009040 0.094486 0.995485
vn 0.032742 -0.090257 0.995380
vn 0.032742 -0.090257 0.995380
vn -0.142051 0.986184 0.085226
vn -0.142051 0.986184 0.085226
vn -0.142051 0.986184 0.085226
vn -0.142051 0.986184 0.085226
vn -0.018280 -0.009575 -0.999787
vn -0.018280 -0.009575 -0.999787
vn -0.022199 0.295837 -0.954980
vn -0.022113 0.287151 -0.957630
vn 0.942378 0.334528 -0.003804
vn 0.942763 0.333442 -0.003893
vn 0.979860 0.199147 -0.014674
vn 0.979860 0.199147 -0.014674
vn -0.998872 0.045963 0.011949
vn -0.998926 0.044776 0.011930
vn -0.955263 -0.295698 0.005987
vn -0.955263 -0.295698 0.005987
vn -0.977689 0.209567 0.014332
vn -0.977689 0.209567 0.014332
vn -0.998926 0.044776 0.011930
vn -0.998872 0.045963 0.011949
vn -0.001968 0.178369 0.983962
vn -0.001968 0.178369 0.983962
vn 0.009040 0.094486 0.995485
vn 0.009565 0.090455 0.995855
vn 0.920765 0.390116 0.000844
vn 0.920765 0.390116 0.000844
vn 0.942763 0.333442 -0.003893
vn 0.942378 0.334528 -0.003804
vn -0.022113 0.287151 -0.957630
vn -0.022199 0.295837 -0.954980
vn -0.023202 0.413560 -0.910181
vn -0.023202 0.413560 -0.910181
vn 0.000000 -0.768000 -0.640449
vn 0.000000 -0.768000 -0.640449
vn 0.000000 -0.768000 -0.640449
vn 0.000000 -0.768000 -0.640449
vn -0.554646 -0.768000 -0.320225
vn -0.554646 -0.768000 -0.320225
vn -0.554646 -0.768000 -0.320225
vn -0.554646 -0.768000 -0.320225
vn -0.554645 -0.768001 0.320225
vn -0.554645 -0.768001 0.320225
vn -0.554645 -0.768001 0.320225
vn -0.554645 -0.768001 0.320225
vn 0.000000 -0.768001 0.640449
vn 0.000000 -0.768001 0.640449
vn 0.000000 -0.768000 0.640449
vn 0.000000 -0.768000 0.640449
vn 0.554645 -0.768001 0.320225
vn 0.554645 -0.768001 0.320225
vn 0.554645 -0.768001 0.320225
vn 0.554645 -0.768001 0.320225
vn 0.554646 -0.768000 -0.320224
vn 0.554646 -0.768000 -0.320224
vn 0.554646 -0.768000 -0.320224
vn 0.554646 -0.768000 -0.320224
vn 0.000000 -0.274487 -0.961591
vn 0.000000 -0.274487 -0.961591
vn 0.000000 -0.274487 -0.961591
vn 0.000000 -0.274487 -0.961591
vn -0.832762 -0.274488 -0.480796
vn -0.832762 -0.274488 -0.480796
vn -0.832762 -0.274488 -0.480796
vn -0.832762 -0.274488 -0.480795
vn -0.832762 -0.274487 0.480795
vn -0.832762 -0.274487 0.480795
vn -0.832762 -0.274487 0.480795
vn -0.832762 -0.274487 0.480795
vn -0.000000 -0.274487 0.961591
vn -0.000000 -0.274487 0.961591
vn -0.000000 -0.274487 0.961591
vn -0.000000 -0.274487 0.961591
vn 0.832762 -0.274487 0.480795
vn 0.832762 -0.274487 0.480795
vn 0.832762 -0.274487 0.480795
vn 0.832762 -0.274487 0.480795
vn 0.832762 -0.274487 -0.480795
vn 0.832762 -0.274487 -0.480795
vn 0.832762 -0.274487 -0.480795
vn 0.832762 -0.274487 -0.480795
vn 0.000000 0.242430 -0.970169
vn 0.000000 0.242430 -0.970169
vn 0.000000 0.242430 -0.970169
vn 0.000000 0.242430 -0.970169
vn -0.840191 0.242431 -0.485085
vn -0.840191 0.242431 -0.485085
vn -0.840191 0.242431 -0.485085
vn -0.840191 0.242431 -0.485085
vn -0.840191 0.242429 0.485084
vn -0.840191 0.242429 0.485084
vn -0.840191 0.242429 0.485084
vn -0.840191 0.242429 0.485084
vn -0.000000 0.242429 0.970169
vn -0.000000 0.242429 0.970169
vn -0.000000 0.242429 0.970169
vn -0.000000 0.242429 0.970169
vn 0.840191 0.242430 0.485084
vn 0.840191 0.242430 0.485084
vn 0.840191 0.242430 0.485084
vn 0.840191 0.242430 0.485084
vn 0.840191 0.242430 -0.485084
vn 0.840191 0.242430 -0.485084
vn 0.840191 0.242430 -0.485084
vn 0.840191 0.242430 -0.485084
vn 0.023353 0.674134 -0.738240
vn 0.023353 0.674134 -0.738240
vn 0.023353 0.674134 -0.738240
vn 0.023353 0.674134 -0.738240
vn -0.648246 0.666494 -0.368189
vn -0.648246 0.666494 -0.368189
vn -0.648246 0.666494 -0.368189
vn -0.648246 0.666494 -0.368189
vn -0.623064 0.686323 0.375170
vn -0.623064 0.686323 0.375170
vn -0.623064 0.686323 0.375170
vn -0.623064 0.686323 0.375170
vn -0.004223 0.711147 0.703031
vn -0.004223 0.711147 0.703031
vn -0.004223 0.711147 0.703031
vn -0.004223 0.711147 0.703031
vn 0.640105 0.673043 0.370510
vn 0.640105 0.673043 0.370510
vn 0.640105 0.673043 0.370510
vn 0.640105 0.673043 0.370510
vn 0.648661 0.666156 -0.368068
vn 0.648661 0.666156 -0.368068
vn 0.648661 0.666156 -0.368068
vn 0.648661 0.666156 -0.368068
vn 0.000000 -0.986544 -0.163496
vn 0.000000 -0.986544 -0.163496
vn 0.000000 -0.986544 -0.163496
vn -0.141592 -0.986544 -0.081748
vn -0.141592 -0.986544 -0.081748
vn -0.141592 -0.986544 -0.081748
vn -0.141592 -0.986544 0.081748
vn -0.141592 -0.986544 0.081748
vn -0.141592 -0.986544 0.081748
vn 0.000000 -0.986544 0.163497
vn 0.000000 -0.986544 0.163497
vn 0.000000 -0.986544 0.163496
vn 0.141592 -0.986544 0.081748
vn 0.141592 -0.986544 0.081748
vn 0.141592 -0.986544 0.081748
vn 0.141592 -0.986544 -0.081748
vn 0.141592 -0.986544 -0.081748
vn 0.141592 -0.986544 -0.081748
vn -0.049652 0.939477 -0.338995
vn -0.049652 0.939477 -0.338995
vn -0.049652 0.939477 -0.338995
vn -0.248728 0.939479 -0.235614
vn -0.259628 0.940213 -0.220439
vn -0.207988 0.933970 -0.290589
vn -0.214324 0.960103 0.179634
vn -0.214324 0.960103 0.179634
vn -0.214324 0.960103 0.179634
vn -0.057520 0.960517 0.272210
vn -0.061098 0.960301 0.272194
vn 0.092623 0.958476 0.269714
vn 0.369108 0.929351 0.008100
vn 0.363137 0.927916 0.084277
vn 0.368648 0.929446 0.015123
vn 0.372353 0.926556 -0.053360
vn 0.369108 0.929351 0.008100
vn 0.368648 0.929446 0.015123
vn -0.279748 0.915825 0.288108
vn -0.279748 0.915825 0.288108
vn -0.279748 0.915825 0.288108
vn -0.038724 0.878149 0.476818
vn -0.038724 0.878149 0.476818
vn -0.038724 0.878149 0.476818
vn 0.140907 0.977436 0.157368
vn 0.140907 0.977436 0.157368
vn 0.140907 0.977436 0.157368
vn 0.131201 0.982553 -0.131819
vn 0.131201 0.982553 -0.131819
vn 0.131201 0.982553 -0.131819
vn -0.015061 0.955451 -0.294766
vn -0.015061 0.955451 -0.294766
vn -0.015061 0.955451 -0.294766
vn -0.170787 0.966457 -0.191814
vn -0.170787 0.966457 -0.191814
vn -0.170787 0.966457 -0.191814
vn 0.041306 0.938597 -0.342534
vn 0.041306 0.938597 -0.342534
vn 0.041306 0.938597 -0.342534
vn -0.259628 0.940213 -0.220439
vn -0.248728 0.939479 -0.235614
vn -0.307841 0.939417 -0.150765
vn -0.119450 0.941125 0.316251
vn -0.119450 0.941125 0.316251
vn -0.119450 0.941125 0.316251
vn -0.061098 0.960301 0.272194
vn -0.057520 0.960517 0.272210
vn -0.199173 0.942353 0.268887
s off
f 10/15/1 11/16/2 4/4/3 3/3/4
f 3/3/5 4/4/6 6/6/7 5/5/8
f 5/5/9 6/6/10 12/17/11 9/14/12
f 11/16/13 12/18/14 6/10/15 4/4/16
f 9/13/17 10/15/18 3/3/19 5/12/20
f 7/11/21 1/1/22 10/15/23 9/13/24
f 1/1/25 2/2/26 11/16/27 10/15/28
f 2/2/29 8/9/30 12/18/31 11/16/32
f 9/14/33 12/17/34 8/8/35 7/7/36
f 13/19/37 14/20/38 20/21/39 19/22/40
f 14/20/41 15/23/42 21/24/43 20/21/44
f 15/23/45 16/25/46 22/26/47 21/24/48
f 16/25/49 17/27/50 23/28/51 22/26/52
f 17/27/53 18/29/54 24/30/55 23/28/56
f 18/29/57 13/31/58 19/32/59 24/30/60
f 19/22/61 20/21/62 26/33/63 25/34/64
f 20/21/65 21/24/66 27/35/67 26/33/68
f 21/24/69 22/26/70 28/36/71 27/35/72
f 22/26/73 23/28/74 29/37/75 28/36/76
f 23/28/77 24/30/78 30/38/79 29/37/80
f 24/30/81 19/32/82 25/39/83 30/38/84
f 25/34/85 26/33/86 32/40/87 31/41/88
f 26/33/89 27/35/90 33/42/91 32/40/92
f 27/35/93 28/36/94 34/43/95 33/42/96
f 28/36/97 29/37/98 35/44/99 34/43/100
f 29/37/101 30/38/102 36/45/103 35/44/104
f 30/38/105 25/39/106 31/46/107 36/45/108
f 31/41/109 32/40/110 38/47/111 37/48/112
f 32/40/113 33/42/114 39/49/115 38/47/116
f 33/42/117 34/43/118 40/50/119 39/49/120
f 34/43/121 35/44/122 41/51/123 40/50/124
f 35/44/125 36/45/126 42/52/127 41/51/128
f 36/45/129 31/46/130 37/53/131 42/52/132
f 14/20/133 13/19/134 43/54/135
f 15/23/136 14/20/137 43/55/138
f 16/25/139 15/23/140 43/56/141
f 17/27/142 16/25/143 43/57/144
f 18/29/145 17/27/146 43/58/147
f 13/31/148 18/29/149 43/59/150
f 49/60/151 37/67/152 47/68/153
f 49/60/154 48/69/155 39/70/156
f 49/60/157 39/70/158 45/71/159
f 49/60/160 46/72/161 41/73/162
f 49/60/163 41/73/164 44/74/165
f 37/67/166 49/60/167 44/74/168
f 39/49/169 40/50/170 45/61/171
f 40/50/172 41/51/173 46/62/174
f 41/51/175 42/52/176 44/63/177
f 42/52/178 37/53/179 44/64/180
f 37/48/181 38/47/182 47/65/183
f 38/47/184 39/49/185 48/66/186
f 49/60/187 47/68/188 38/75/189
f 48/69/190 49/60/191 38/75/192
f 49/60/193 45/71/194 40/76/195
f 46/72/196 49/60/197 40/76/198
