# This file uses centimeters as units for non-parametric coordinates.

v -13.556816 -23.134453 52.841488
v 73.312248 -21.571051 52.841488
v -13.556816 5.180108 51.809437
v 73.312248 5.180108 52.841488
v -13.556816 5.180108 50.433277
v 73.312248 5.180108 50.433277
v -13.556816 -23.134453 50.433277
v 73.312248 -21.735851 50.433277
v 70.857513 -23.134453 52.841488
v 71.116272 -23.134453 50.433277
v 39.562927 -23.134453 52.841488
v 55.283321 -23.134453 52.841488
v 47.753822 -21.526659 52.841488
v 48.064003 -23.134453 51.661457
v -10.541207 5.180108 52.841488
v -13.556816 2.555379 52.841488
v 2.892366 5.180108 52.841488
v 10.535864 5.180108 52.841488
v 6.706942 5.180108 51.767117
v 6.680072 4.164087 52.841488
v 33.208191 5.180108 50.433277
v 42.345856 5.180108 50.433277
v 36.725647 5.180108 51.611832
v 37.021984 3.660958 50.433277
vt 0.533528 0.879213
vt 0.533528 0.879213
vt 0.533528 0.879213
vt 0.533528 0.879213
vt 0.533528 0.879213
vt 0.533528 0.879213
vt 0.533528 0.879213
vt 0.533528 0.879213
vt 0.533528 0.879213
vt 0.533528 0.879213
vt 0.533528 0.879213
vt 0.533528 0.879213
vt 0.533528 0.879213
vt 0.533528 0.879213
vt 0.518726 0.847491
vt 0.964547 0.851364
vt 0.964547 0.987801
vt 0.518726 0.987801
vt 0.951949 0.847491
vt 0.533528 0.879213
vt 0.533528 0.879213
vt 0.791342 0.847491
vt 0.533528 0.879213
vt 0.872020 0.847491
vt 0.533528 0.879213
vt 0.833378 0.855458
vt 0.533528 0.879213
vt 0.835343 0.847491
vt 0.533528 0.879213
vt 0.534203 0.987801
vt 0.533528 0.879213
vt 0.518726 0.974794
vt 0.533528 0.879213
vt 0.603145 0.987801
vt 0.533528 0.879213
vt 0.642372 0.987801
vt 0.533528 0.879213
vt 0.622584 0.982766
vt 0.623049 0.987801
vt 0.533528 0.879213
vt 0.533528 0.879213
vt 0.533528 0.879213
vt 0.533528 0.879213
vn -0.303479 0.348673 0.886751
vn -0.303479 0.348673 0.886751
vn -0.303479 0.348673 0.886751
vn -0.000000 0.000000 -1.000000
vn -0.000000 0.000000 -1.000000
vn -0.000000 0.000000 -1.000000
vn -0.000000 0.000000 -1.000000
vn -0.000000 0.000000 -1.000000
vn 0.000000 -1.000000 0.000000
vn 0.000000 -1.000000 0.000000
vn 0.000000 -1.000000 0.000000
vn 0.000000 -1.000000 0.000000
vn 0.536301 -0.842058 0.057624
vn 0.536301 -0.842058 0.057624
vn 0.536301 -0.842058 0.057624
vn 0.536301 -0.842058 0.057624
vn 1.000000 0.000000 0.000000
vn 1.000000 0.000000 0.000000
vn 1.000000 0.000000 0.000000
vn 1.000000 0.000000 0.000000
vn 0.112613 -0.573708 0.811281
vn 0.112613 -0.573708 0.811281
vn 0.112613 -0.573708 0.811281
vn -0.128713 -0.602780 0.787458
vn -0.128713 -0.602780 0.787458
vn -0.128713 -0.602780 0.787458
vn 0.000000 1.000000 0.000000
vn 0.000000 1.000000 0.000000
vn 0.000000 1.000000 0.000000
vn 0.000000 1.000000 0.000000
vn -1.000000 0.000000 0.000000
vn -1.000000 0.000000 0.000000
vn -1.000000 0.000000 0.000000
vn -1.000000 0.000000 0.000000
vn -1.000000 0.000000 0.000000
vn 0.000000 0.000000 1.000000
vn 0.000000 0.000000 1.000000
vn 0.000000 0.000000 1.000000
vn 0.000000 0.000000 1.000000
vn 0.000000 0.000000 1.000000
vn 0.190678 0.710846 0.677008
vn 0.190678 0.710846 0.677008
vn 0.190678 0.710846 0.677008
vn -0.188635 0.715869 0.672272
vn -0.188635 0.715869 0.672272
vn -0.188635 0.715869 0.672272
vn -0.166615 0.583903 -0.794542
vn -0.166615 0.583903 -0.794542
vn -0.166615 0.583903 -0.794542
vn 0.248376 0.623540 -0.741287
vn 0.248376 0.623540 -0.741287
vn 0.248376 0.623540 -0.741287
vn 0.000000 0.000000 1.000000
vn 0.000000 0.000000 1.000000
vn 0.000000 0.000000 1.000000
vn 0.000000 0.000000 1.000000
vn -0.000000 0.000000 1.000000
vn -0.000000 0.000000 1.000000
vn -0.000000 0.000000 1.000000
vn -0.000000 0.000000 1.000000
vn -0.000000 0.000000 1.000000
vn -0.000000 0.000000 1.000000
vn -0.000000 0.000000 1.000000
vn -0.000000 0.000000 1.000000
vn -0.000000 0.000000 1.000000
vn 0.000000 -1.000000 -0.000001
vn 0.000000 -1.000000 -0.000001
vn 0.000000 -1.000000 -0.000001
vn 0.000000 -1.000000 -0.000001
vn 0.000000 -1.000000 0.000000
vn 0.000000 -1.000000 0.000000
vn 0.000000 -1.000000 0.000000
vn 0.000000 1.000000 -0.000000
vn 0.000000 1.000000 -0.000000
vn 0.000000 1.000000 -0.000000
vn 0.000000 1.000000 -0.000000
vn 0.000000 1.000000 0.000000
vn 0.000000 1.000000 0.000000
vn 0.000000 1.000000 0.000000
vn 0.000000 1.000000 0.000000
vn 0.000000 1.000000 0.000000
vn 0.000000 1.000000 -0.000000
vn 0.000000 1.000000 -0.000000
vn 0.000000 1.000000 -0.000000
vn 0.000000 1.000000 -0.000000
vn 0.000000 0.000000 -1.000000
vn 0.000000 0.000000 -1.000000
vn 0.000000 0.000000 -1.000000
vn 0.000000 0.000000 -1.000000
vn 0.000000 0.000000 -1.000000
vn 0.000000 0.000000 -1.000000
vn 0.000000 0.000000 -1.000000
s off
f 16/32/1 15/30/2 3/18/3
f 10/21/4 24/43/5 22/41/6 6/6/7 8/8/8
f 7/7/9 14/27/10 11/23/11 1/9/12
f 9/20/13 10/21/14 8/8/15 2/10/16
f 2/2/17 8/11/18 6/12/19 4/4/20
f 14/28/21 13/26/22 11/22/23
f 12/24/24 13/26/25 14/28/26
f 23/42/27 19/37/28 18/35/29 4/4/30
f 7/13/31 1/1/32 16/31/33 3/3/34 5/14/35
f 4/17/36 13/26/37 12/24/38 9/19/39 2/16/40
f 17/34/41 20/38/42 19/39/43
f 19/39/44 20/38/45 18/36/46
f 22/41/47 24/43/48 23/42/49
f 23/42/50 24/43/51 21/40/52
f 1/15/53 11/22/54 13/26/55 20/38/56
f 20/38/57 13/26/58 4/17/59 18/36/60
f 1/15/61 20/38/62 17/34/63 15/30/64 16/32/65
f 14/27/66 10/21/67 9/20/68 12/25/69
f 7/7/70 10/21/71 14/27/72
f 23/42/73 4/4/74 6/6/75 22/41/76
f 3/3/77 15/29/78 17/33/79 19/37/80 5/5/81
f 5/5/82 19/37/83 23/42/84 21/40/85
f 5/5/86 21/40/87 24/43/88 7/7/89
f 7/7/90 24/43/91 10/21/92
