# This file uses centimeters as units for non-parametric coordinates.

v 0.032029 100.959534 2.456360
v 249.961349 100.959534 2.456360
v 0.032029 119.799484 2.456360
v 249.961349 119.799484 2.456360
v 0.032029 119.799484 -2.456360
v 249.961349 119.799484 -2.456360
v 0.032029 100.959534 -2.456360
v 249.961349 100.959534 -2.456360
v 173.741318 119.799484 2.456360
v 173.741318 119.799484 -2.456360
v 177.140930 102.532425 -2.456360
v 177.140930 102.532425 2.456360
v 60.096104 117.357796 2.456360
v 60.096104 115.818161 -2.456360
v 58.750000 100.959534 -2.456360
v 58.750000 100.959534 2.456360
v 0.032029 58.139511 2.456360
v 249.961349 58.139511 2.456360
v 0.032029 76.979454 2.456360
v 249.961349 76.979454 2.456360
v 0.032029 76.979454 -2.456360
v 249.961349 76.979454 -2.456360
v 0.032029 58.139511 -2.456360
v 249.961349 58.139511 -2.456360
v 120.902283 74.573616 2.456360
v 120.902283 75.853203 -2.456360
v 53.978771 59.525055 -2.456360
v 53.978771 59.525055 2.456360
v 0.032029 16.251333 2.456360
v 249.961349 16.251333 2.456360
v 0.032029 35.091278 2.456360
v 249.961349 35.091278 2.456360
v 0.032029 35.091278 -2.456360
v 249.961349 35.091278 -2.456360
v 0.032029 16.251333 -2.456360
v 249.961349 16.251333 -2.456360
v 199.548767 35.091278 2.456360
v 199.548767 35.091278 -2.456360
v 199.548767 18.027351 -2.456360
v 199.548767 18.027351 2.456360
v 191.566299 33.041801 2.456360
v 191.566299 31.709848 -2.456360
v 58.750000 16.251333 -2.456360
v 58.750000 16.251333 2.456360
vt 0.038589 0.253958
vt 0.038589 0.253958
vt 0.038589 0.253958
vt 0.038589 0.253958
vt 0.038589 0.253958
vt 0.038589 0.253958
vt 0.038589 0.253958
vt 0.038589 0.253958
vt 0.038589 0.253958
vt 0.038589 0.253958
vt 0.038589 0.253958
vt 0.038589 0.253958
vt 0.038589 0.253958
vt 0.038589 0.253958
vt 0.038589 0.253958
vt 0.038589 0.253958
vt 0.038589 0.253958
vt 0.038589 0.253958
vt 0.038589 0.253958
vt 0.038589 0.253958
vt 0.038589 0.253958
vt 0.038589 0.253958
vt 0.038589 0.253958
vt 0.038589 0.253958
vt 0.038589 0.253958
vt 0.038589 0.253958
vt 0.038589 0.253958
vt 0.038589 0.253958
vt 0.038589 0.253958
vt 0.038589 0.253958
vt 0.038589 0.253958
vt 0.038589 0.253958
vt 0.038589 0.253958
vt 0.038589 0.253958
vt 0.038589 0.253958
vt 0.038589 0.253958
vt 0.038589 0.253958
vt 0.038589 0.253958
vt 0.038589 0.253958
vt 0.038589 0.253958
vt 0.038589 0.253958
vt 0.038589 0.253958
vt 0.038589 0.253958
vt 0.038589 0.253958
vt 0.038589 0.253958
vt 0.038589 0.253958
vt 0.038589 0.253958
vt 0.038589 0.253958
vt 0.038589 0.253958
vt 0.038589 0.253958
vt 0.038589 0.253958
vt 0.038589 0.253958
vt 0.038589 0.253958
vt 0.038589 0.253958
vt 0.038589 0.253958
vt 0.038589 0.253958
vt 0.038589 0.253958
vt 0.038589 0.253958
vt 0.038589 0.253958
vt 0.038589 0.253958
vt 0.038589 0.253958
vt 0.038589 0.253958
vt 0.038589 0.253958
vt 0.038589 0.253958
vt 0.038589 0.253958
vt 0.038589 0.253958
vt 0.038589 0.253958
vn 0.000000 0.000000 1.000000
vn 0.000000 0.000000 1.000000
vn 0.000000 0.000000 1.000000
vn 0.000000 0.000000 1.000000
vn 0.052750 0.986569 -0.154594
vn 0.000066 0.987944 -0.154810
vn -0.000109 0.987944 -0.154810
vn 0.052750 0.986569 -0.154594
vn 0.000000 0.000000 -1.000000
vn -0.000000 0.000000 -1.000000
vn -0.000000 0.000000 -1.000000
vn 0.000000 0.000000 -1.000000
vn 0.000000 -1.000000 0.000000
vn 0.008881 -0.999961 0.000000
vn 0.008881 -0.999961 0.000000
vn 0.000000 -1.000000 0.000000
vn 1.000000 0.000000 0.000000
vn 1.000000 0.000000 0.000000
vn 1.000000 0.000000 0.000000
vn 1.000000 0.000000 0.000000
vn -1.000000 0.000000 0.000000
vn -1.000000 0.000000 0.000000
vn -1.000000 0.000000 0.000000
vn -1.000000 0.000000 0.000000
vn -0.016838 0.995489 -0.093370
vn 0.000000 1.000000 0.000000
vn 0.000000 1.000000 0.000000
vn -0.016838 0.995489 -0.093370
vn 0.000000 0.000000 -1.000000
vn -0.000000 0.000000 -1.000000
vn 0.000000 0.000000 -1.000000
vn 0.000000 0.000000 -1.000000
vn -0.000000 -1.000000 0.000000
vn -0.000000 -1.000000 0.000000
vn -0.021595 -0.999767 0.000000
vn -0.021595 -0.999767 0.000000
vn 0.000000 0.000000 1.000000
vn 0.000000 0.000000 1.000000
vn 0.000000 0.000000 1.000000
vn 0.000000 0.000000 1.000000
vn 0.000066 0.987944 -0.154810
vn -0.016838 0.995489 -0.093370
vn -0.016838 0.995489 -0.093370
vn -0.000109 0.987944 -0.154810
vn -0.000000 0.000000 -1.000000
vn -0.000000 0.000000 -1.000000
vn -0.000000 0.000000 -1.000000
vn 0.000000 0.000000 -1.000000
vn 0.008881 -0.999961 0.000000
vn 0.008881 -0.999961 0.000000
vn -0.000000 -1.000000 0.000000
vn -0.000000 -1.000000 0.000000
vn 0.000000 0.000000 1.000000
vn 0.000000 0.000000 1.000000
vn 0.000000 0.000000 1.000000
vn 0.000000 0.000000 1.000000
vn 0.000000 0.000000 1.000000
vn 0.000000 0.000000 1.000000
vn -0.000000 0.000000 1.000000
vn 0.000000 0.000000 1.000000
vn 0.014487 0.991522 0.129128
vn -0.000001 0.991626 0.129142
vn 0.000001 0.991626 0.129142
vn 0.014487 0.991522 0.129128
vn 0.000000 0.000000 -1.000000
vn 0.000000 0.000000 -1.000000
vn 0.000000 0.000000 -1.000000
vn 0.000000 0.000000 -1.000000
vn 0.025675 -0.999670 0.000000
vn 0.000000 -1.000000 0.000000
vn 0.000000 -1.000000 0.000000
vn 0.025675 -0.999670 0.000000
vn 1.000000 0.000000 0.000000
vn 1.000000 0.000000 0.000000
vn 1.000000 0.000000 0.000000
vn 1.000000 0.000000 0.000000
vn -1.000000 0.000000 0.000000
vn -1.000000 0.000000 0.000000
vn -1.000000 0.000000 0.000000
vn -1.000000 0.000000 0.000000
vn -0.000001 0.991626 0.129142
vn -0.013568 0.991535 0.129130
vn -0.013568 0.991535 0.129130
vn 0.000001 0.991626 0.129142
vn 0.000000 0.000000 -1.000000
vn 0.000000 0.000000 -1.000000
vn 0.000000 0.000000 -1.000000
vn 0.000000 0.000000 -1.000000
vn 0.000000 -1.000000 0.000000
vn 0.000000 -1.000000 0.000000
vn -0.007070 -0.999975 0.000000
vn -0.007070 -0.999975 0.000000
vn -0.000000 0.000000 1.000000
vn 0.000000 0.000000 1.000000
vn -0.000000 0.000000 1.000000
vn -0.000000 0.000000 1.000000
vn 0.000000 0.000000 1.000000
vn -0.000000 0.000000 1.000000
vn -0.000000 0.000000 1.000000
vn 0.000000 0.000000 1.000000
vn 0.014047 0.990838 -0.134320
vn -0.000533 0.990936 -0.134333
vn 0.000843 0.990936 -0.134333
vn 0.014047 0.990838 -0.134320
vn 0.000000 0.000000 -1.000000
vn -0.000000 0.000000 -1.000000
vn -0.000000 0.000000 -1.000000
vn 0.000000 0.000000 -1.000000
vn 0.000000 -1.000000 0.000000
vn 0.008901 -0.999960 0.000000
vn 0.008901 -0.999960 0.000000
vn 0.000000 -1.000000 0.000000
vn 1.000000 0.000000 0.000000
vn 1.000000 0.000000 0.000000
vn 1.000000 0.000000 0.000000
vn 1.000000 0.000000 0.000000
vn -1.000000 0.000000 0.000000
vn -1.000000 0.000000 0.000000
vn -1.000000 0.000000 0.000000
vn -1.000000 0.000000 0.000000
vn -0.046443 0.998750 -0.018508
vn 0.000000 1.000000 0.000000
vn 0.000000 1.000000 0.000000
vn -0.046443 0.998750 -0.018508
vn 0.000000 0.000000 -1.000000
vn 0.000000 0.000000 -1.000000
vn 0.000000 0.000000 -1.000000
vn 0.000000 0.000000 -1.000000
vn -0.000000 -1.000000 0.000000
vn -0.000000 -1.000000 0.000000
vn -0.035208 -0.999380 0.000000
vn -0.035208 -0.999380 0.000000
vn 0.000000 0.000000 1.000000
vn 0.000000 0.000000 1.000000
vn 0.000000 0.000000 1.000000
vn 0.000000 0.000000 1.000000
vn -0.000533 0.990936 -0.134333
vn -0.046443 0.998750 -0.018508
vn -0.046443 0.998750 -0.018508
vn 0.000843 0.990936 -0.134333
vn -0.000000 0.000000 -1.000000
vn -0.000000 0.000000 -1.000000
vn 0.000000 0.000000 -1.000000
vn 0.000000 0.000000 -1.000000
vn 0.008901 -0.999960 0.000000
vn 0.008901 -0.999960 0.000000
vn -0.000000 -1.000000 0.000000
vn -0.000000 -1.000000 0.000000
vn -0.000000 0.000000 1.000000
vn -0.000000 0.000000 1.000000
vn 0.000000 0.000000 1.000000
vn 0.000000 0.000000 1.000000
s off
f 1/1/1 16/2/2 13/3/3 3/4/4
f 3/4/5 13/3/6 14/5/7 5/6/8
f 5/6/9 14/5/10 15/7/11 7/8/12
f 7/8/13 15/7/14 16/9/15 1/10/16
f 2/11/17 8/12/18 6/13/19 4/14/20
f 7/15/21 1/1/22 3/4/23 5/16/24
f 9/17/25 4/14/26 6/18/27 10/19/28
f 11/20/29 10/19/30 6/18/31 8/21/32
f 12/22/33 11/20/34 8/21/35 2/23/36
f 9/17/37 12/24/38 2/11/39 4/14/40
f 13/3/41 9/17/42 10/19/43 14/5/44
f 15/7/45 14/5/46 10/19/47 11/20/48
f 16/9/49 15/7/50 11/20/51 12/22/52
f 13/3/53 16/2/54 12/24/55 9/17/56
f 17/25/57 28/26/58 25/27/59 19/28/60
f 19/28/61 25/27/62 26/29/63 21/30/64
f 21/30/65 26/29/66 27/31/67 23/32/68
f 23/32/69 27/31/70 28/33/71 17/34/72
f 18/35/73 24/36/74 22/37/75 20/38/76
f 23/39/77 17/25/78 19/28/79 21/40/80
f 25/27/81 20/38/82 22/41/83 26/29/84
f 27/31/85 26/29/86 22/41/87 24/42/88
f 28/33/89 27/31/90 24/42/91 18/43/92
f 25/27/93 28/26/94 18/35/95 20/38/96
f 29/44/97 44/45/98 41/46/99 31/47/100
f 31/47/101 41/46/102 42/48/103 33/49/104
f 33/49/105 42/48/106 43/50/107 35/51/108
f 35/51/109 43/50/110 44/52/111 29/53/112
f 30/54/113 36/55/114 34/56/115 32/57/116
f 35/58/117 29/44/118 31/47/119 33/59/120
f 37/60/121 32/57/122 34/61/123 38/62/124
f 39/63/125 38/62/126 34/61/127 36/64/128
f 40/65/129 39/63/130 36/64/131 30/66/132
f 37/60/133 40/67/134 30/54/135 32/57/136
f 41/46/137 37/60/138 38/62/139 42/48/140
f 43/50/141 42/48/142 38/62/143 39/63/144
f 44/52/145 43/50/146 39/63/147 40/65/148
f 41/46/149 44/45/150 40/67/151 37/60/152
