# This file uses centimeters as units for non-parametric coordinates.

v -0.944061 15.464302 6.108170
v 0.298233 23.310493 6.108170
v 0.919342 27.233589 12.987823
v 4.226990 23.284378 19.867477
v -0.944061 15.464304 19.867477
v -1.565247 11.541206 12.987823
v 248.793488 19.976847 6.108170
v 251.206512 27.545380 6.108170
v 252.413177 31.329647 12.987823
v 245.797272 26.673990 19.867477
v 248.793488 19.976849 19.867477
v 247.586823 16.192585 12.987823
v -0.322952 19.387400 12.987823
v 250.000000 23.761116 12.987823
v 53.461380 27.733080 19.867477
v 53.461380 31.705048 12.987823
v 53.461380 27.733078 6.108170
v 53.461380 19.789148 6.108170
v 53.461380 15.817184 12.987823
v 46.221695 19.171011 19.867477
v 119.111099 29.351534 15.897369
v 113.240814 33.575310 9.017715
v 113.240814 29.603344 2.138062
v 116.274796 24.136868 2.138062
v 113.240814 17.687449 9.017715
v 113.240814 21.659414 15.897369
v 206.919708 25.080830 18.943329
v 201.586761 29.231163 12.987823
v 201.586761 25.792746 7.032318
v 201.586761 18.915909 7.032318
v 201.586761 15.477497 12.987823
v 201.586761 18.915915 18.943329
v 187.220764 27.733080 19.867477
v 187.220764 31.705048 12.987823
v 185.040283 25.812302 6.108170
v 187.220764 19.789148 6.108170
v 187.220764 15.817184 12.987823
v 187.220764 19.789150 19.867477
v 2.782364 53.630337 6.108170
v 1.800385 61.513336 6.108170
v 1.309357 65.454834 12.987823
v 1.800385 61.513336 19.867477
v 7.360535 55.366016 19.867477
v 3.273392 49.688839 12.987823
v 250.496826 59.955631 6.108170
v 249.503174 67.837189 6.108170
v 249.006500 71.777962 12.987823
v 244.312286 67.432404 19.867477
v 250.496826 59.955631 19.867477
v 250.993500 56.014858 12.987823
v 2.291336 57.571838 12.987823
v 250.000000 63.896408 12.987823
v 144.815826 58.976101 19.867477
v 149.297546 64.944221 12.987823
v 147.369141 59.049297 6.108170
v 149.297546 53.028328 6.108170
v 149.297546 49.056362 12.987823
v 149.297546 53.028328 19.867477
v -2.429047 93.179245 6.108170
v -0.264435 100.822571 6.108170
v 0.817947 104.644226 12.987823
v -0.264435 100.822571 19.867477
v -0.839310 94.097878 19.867477
v -3.511353 89.357590 12.987823
v 254.999847 96.480957 6.108170
v 256.456451 104.290192 6.108170
v 257.184753 108.194817 12.987823
v 256.456451 104.290192 19.867477
v 251.629333 96.703880 19.867477
v 254.271545 92.576347 12.987823
v -1.346741 97.000900 12.987823
v 255.728149 100.385582 12.987823
v 85.211563 102.144646 23.124619
v 78.956680 107.982262 16.244965
v 78.956680 104.010300 9.365311
v 81.776657 98.279663 9.365311
v 78.956680 92.094406 16.244965
v 78.956680 96.066368 23.124619
v 165.157471 102.817673 19.867477
v 165.157471 106.789635 12.987823
v 163.784485 100.628502 6.108170
v 165.157471 94.873741 6.108170
v 165.157471 90.901779 12.987823
v 162.019501 94.416199 19.867477
vt 0.032678 0.255483
vt 0.032678 0.255483
vt 0.032678 0.255483
vt 0.032678 0.255483
vt 0.032677 0.255483
vt 0.032677 0.255483
vt 0.032678 0.255483
vt 0.032678 0.255483
vt 0.032677 0.255483
vt 0.032677 0.255483
vt 0.032677 0.255483
vt 0.032677 0.255483
vt 0.032677 0.255483
vt 0.032677 0.255483
vt 0.037163 0.278669
vt 0.037163 0.278669
vt 0.037163 0.278669
vt 0.037163 0.278669
vt 0.037163 0.278669
vt 0.037163 0.278669
vt 0.037163 0.278669
vt 0.037170 0.278669
vt 0.037170 0.278669
vt 0.037170 0.278669
vt 0.037170 0.278669
vt 0.037170 0.278669
vt 0.037170 0.278669
vt 0.037170 0.278669
vt 0.032678 0.255483
vt 0.032677 0.255483
vt 0.032678 0.255483
vt 0.032678 0.255483
vt 0.032677 0.255483
vt 0.032677 0.255483
vt 0.032677 0.255483
vt 0.032678 0.255483
vt 0.032677 0.255483
vt 0.032678 0.255483
vt 0.032678 0.255483
vt 0.032677 0.255483
vt 0.032677 0.255483
vt 0.032677 0.255483
vt 0.032677 0.255483
vt 0.032678 0.255483
vt 0.032678 0.255483
vt 0.032677 0.255483
vt 0.032678 0.255483
vt 0.032678 0.255483
vt 0.032678 0.255483
vt 0.032678 0.255483
vt 0.032677 0.255483
vt 0.032677 0.255483
vt 0.032677 0.255483
vt 0.032677 0.255483
vt 0.032677 0.255483
vt 0.032677 0.255483
vt 0.032678 0.255483
vt 0.032678 0.255483
vt 0.032678 0.255483
vt 0.032678 0.255483
vt 0.032677 0.255483
vt 0.032677 0.255483
vt 0.032678 0.255483
vt 0.032678 0.255483
vt 0.032677 0.255483
vt 0.032677 0.255483
vt 0.032677 0.255483
vt 0.032677 0.255483
vt 0.032677 0.255483
vt 0.032677 0.255483
vt 0.037163 0.278669
vt 0.037163 0.278669
vt 0.037163 0.278669
vt 0.037163 0.278669
vt 0.037163 0.278669
vt 0.037163 0.278669
vt 0.037163 0.278669
vt 0.037170 0.278669
vt 0.037170 0.278669
vt 0.037170 0.278669
vt 0.037170 0.278669
vt 0.037170 0.278669
vt 0.037170 0.278669
vt 0.037170 0.278669
vt 0.032678 0.255483
vt 0.032677 0.255483
vt 0.032678 0.255483
vt 0.032678 0.255483
vt 0.032677 0.255483
vt 0.032677 0.255483
vt 0.032677 0.255483
vt 0.032678 0.255483
vt 0.032678 0.255483
vt 0.032678 0.255483
vt 0.032678 0.255483
vt 0.032677 0.255483
vt 0.032677 0.255483
vt 0.032678 0.255483
vt 0.032678 0.255483
vt 0.032677 0.255483
vt 0.032677 0.255483
vt 0.032677 0.255483
vt 0.032677 0.255483
vt 0.032677 0.255483
vt 0.032677 0.255483
vt 0.037163 0.278669
vt 0.037163 0.278669
vt 0.037163 0.278669
vt 0.037163 0.278669
vt 0.037163 0.278669
vt 0.037163 0.278669
vt 0.037163 0.278669
vt 0.037170 0.278669
vt 0.037170 0.278669
vt 0.037170 0.278669
vt 0.037170 0.278669
vt 0.037170 0.278669
vt 0.037170 0.278669
vt 0.037170 0.278669
vt 0.032678 0.255483
vt 0.032677 0.255483
vt 0.032678 0.255483
vt 0.032678 0.255483
vt 0.032677 0.255483
vt 0.032677 0.255483
vt 0.032677 0.255483
vt 0.032678 0.255483
vt 0.032677 0.255483
vt 0.032678 0.255483
vt 0.032678 0.255483
vt 0.032677 0.255483
vt 0.032677 0.255483
vt 0.032677 0.255483
vn -0.000000 0.000000 -1.000000
vn -0.000000 0.000000 -1.000000
vn -0.000000 0.000000 -1.000000
vn -0.000000 0.000000 -1.000000
vn -0.072904 0.866465 -0.493885
vn -0.072904 0.866465 -0.493885
vn -0.072904 0.866466 -0.493885
vn -0.072904 0.866465 -0.493885
vn -0.075050 0.856294 0.511007
vn -0.075050 0.856294 0.511007
vn -0.075050 0.856294 0.511007
vn -0.075050 0.856294 0.511007
vn 0.000000 0.000000 1.000000
vn 0.000000 0.000000 1.000000
vn 0.000000 0.000000 1.000000
vn 0.000000 0.000000 1.000000
vn 0.067811 -0.868101 0.491734
vn 0.067811 -0.868101 0.491734
vn 0.067811 -0.868101 0.491734
vn 0.067811 -0.868101 0.491734
vn 0.068116 -0.866667 -0.494216
vn 0.068116 -0.866667 -0.494216
vn 0.068116 -0.866667 -0.494216
vn 0.068116 -0.866667 -0.494216
vn -0.987697 0.156383 -0.000005
vn -0.987697 0.156383 -0.000005
vn -0.987697 0.156383 -0.000005
vn -0.987696 0.156383 -0.000006
vn -0.987696 0.156383 -0.000006
vn -0.987696 0.156383 -0.000006
vn -0.860064 0.136175 0.491678
vn -0.860064 0.136175 0.491678
vn -0.860064 0.136175 0.491678
vn -0.811239 0.536434 0.232659
vn -0.811239 0.536434 0.232659
vn -0.811239 0.536434 0.232659
vn -0.987697 0.156383 0.000005
vn -0.987697 0.156383 0.000005
vn -0.987697 0.156383 0.000005
vn -0.987697 0.156383 -0.000006
vn -0.987697 0.156383 -0.000006
vn -0.987697 0.156383 -0.000006
vn 0.952749 -0.303760 0.000000
vn 0.952749 -0.303759 0.000000
vn 0.952749 -0.303759 0.000000
vn 0.952744 -0.303776 -0.000010
vn 0.952744 -0.303776 -0.000010
vn 0.952744 -0.303776 -0.000010
vn 0.776615 -0.247618 0.579271
vn 0.776615 -0.247618 0.579271
vn 0.776615 -0.247618 0.579271
vn 0.851938 0.381148 0.359064
vn 0.851938 0.381148 0.359064
vn 0.851938 0.381148 0.359064
vn 0.952744 -0.303776 -0.000011
vn 0.952744 -0.303776 -0.000011
vn 0.952744 -0.303776 -0.000011
vn 0.952744 -0.303776 0.000011
vn 0.952744 -0.303776 0.000011
vn 0.952744 -0.303776 0.000011
vn 0.008291 0.860659 0.509115
vn 0.008291 0.860659 0.509115
vn 0.008291 0.860659 0.509115
vn 0.008291 0.860659 0.509115
vn -0.060191 0.864455 -0.499093
vn -0.060191 0.864455 -0.499093
vn -0.060191 0.864455 -0.499093
vn -0.060191 0.864455 -0.499093
vn -0.063897 -0.014456 -0.997852
vn -0.063897 -0.014456 -0.997852
vn -0.063897 -0.014456 -0.997852
vn -0.063897 -0.014456 -0.997852
vn 0.001346 -0.797299 -0.603583
vn 0.001346 -0.797299 -0.603583
vn 0.001346 -0.797299 -0.603583
vn 0.001346 -0.797299 -0.603583
vn 0.060741 -0.867446 0.493810
vn 0.060741 -0.867446 0.493810
vn 0.060741 -0.867446 0.493810
vn 0.060741 -0.867446 0.493810
vn 0.061192 -0.049355 0.996905
vn 0.061192 -0.049355 0.996905
vn 0.061192 -0.049355 0.996905
vn 0.061192 -0.049355 0.996905
vn -0.007673 0.857669 0.514145
vn -0.007673 0.857669 0.514145
vn -0.007673 0.857669 0.514145
vn -0.007673 0.857669 0.514145
vn 0.063345 0.806296 -0.588111
vn 0.063345 0.806296 -0.588111
vn 0.063345 0.806296 -0.588111
vn 0.063345 0.806296 -0.588111
vn 0.056991 0.025865 -0.998040
vn 0.056991 0.025865 -0.998040
vn 0.056991 0.025865 -0.998040
vn 0.056991 0.025865 -0.998040
vn -0.001109 -0.797039 -0.603927
vn -0.001109 -0.797039 -0.603927
vn -0.001109 -0.797039 -0.603927
vn -0.001109 -0.797039 -0.603927
vn -0.048668 -0.864999 0.499407
vn -0.048668 -0.864999 0.499407
vn -0.048668 -0.864999 0.499407
vn -0.048668 -0.864999 0.499407
vn -0.055275 0.020752 0.998255
vn -0.055275 0.020752 0.998256
vn -0.055275 0.020752 0.998255
vn -0.055275 0.020752 0.998256
vn -0.039780 0.825785 0.562581
vn -0.039780 0.825785 0.562581
vn -0.039780 0.825785 0.562581
vn -0.039780 0.825785 0.562581
vn -0.037931 0.872384 -0.487347
vn -0.037931 0.872384 -0.487347
vn -0.037931 0.872384 -0.487347
vn -0.037931 0.872384 -0.487347
vn -0.019178 0.003204 -0.999811
vn -0.019178 0.003204 -0.999811
vn -0.019178 0.003204 -0.999811
vn -0.019178 0.003204 -0.999811
vn 0.011760 -0.871903 -0.489537
vn 0.011760 -0.871904 -0.489537
vn 0.011760 -0.871903 -0.489537
vn 0.011760 -0.871904 -0.489537
vn 0.011760 -0.871903 0.489537
vn 0.011760 -0.871903 0.489537
vn 0.011760 -0.871903 0.489537
vn 0.011760 -0.871903 0.489537
vn -0.021587 0.003922 0.999759
vn -0.021587 0.003922 0.999759
vn -0.021587 0.003922 0.999759
vn -0.021587 0.003922 0.999759
vn 0.142919 0.862099 0.486168
vn 0.142919 0.862099 0.486168
vn 0.142919 0.862099 0.486168
vn 0.142919 0.862099 0.486168
vn 0.082273 0.799400 -0.595140
vn 0.082273 0.799400 -0.595140
vn 0.082273 0.799400 -0.595140
vn 0.082273 0.799400 -0.595140
vn 0.059973 0.010137 -0.998149
vn 0.059973 0.010137 -0.998149
vn 0.059973 0.010137 -0.998149
vn 0.059973 0.010137 -0.998149
vn -0.020473 -0.865844 -0.499895
vn -0.020473 -0.865844 -0.499895
vn -0.020473 -0.865844 -0.499895
vn -0.020473 -0.865844 -0.499895
vn -0.020473 -0.865844 0.499895
vn -0.020473 -0.865844 0.499895
vn -0.020473 -0.865844 0.499895
vn -0.020473 -0.865844 0.499895
vn 0.052134 -0.019706 0.998446
vn 0.052134 -0.019706 0.998446
vn 0.052134 -0.019706 0.998446
vn 0.052134 -0.019706 0.998446
vn 0.000000 0.000000 -1.000000
vn 0.000000 0.000000 -1.000000
vn 0.000000 0.000000 -1.000000
vn 0.000000 0.000000 -1.000000
vn 0.008239 0.813065 -0.582114
vn 0.008239 0.813065 -0.582114
vn 0.008239 0.813065 -0.582114
vn 0.008239 0.813065 -0.582114
vn 0.008486 0.810255 0.586015
vn 0.008486 0.810255 0.586015
vn 0.008486 0.810255 0.586015
vn 0.008486 0.810255 0.586015
vn 0.000000 0.000000 1.000000
vn 0.000000 0.000000 1.000000
vn 0.000000 0.000000 1.000000
vn 0.000000 0.000000 1.000000
vn -0.008432 -0.817531 0.575824
vn -0.008432 -0.817530 0.575824
vn -0.008432 -0.817530 0.575824
vn -0.008432 -0.817531 0.575824
vn -0.003658 -0.866906 -0.498458
vn -0.003658 -0.866906 -0.498458
vn -0.003658 -0.866906 -0.498458
vn -0.003658 -0.866906 -0.498458
vn -0.992330 -0.123614 -0.000006
vn -0.992330 -0.123614 -0.000006
vn -0.992330 -0.123614 -0.000006
vn -0.992330 -0.123614 -0.000005
vn -0.992330 -0.123614 -0.000005
vn -0.992330 -0.123614 -0.000005
vn -0.992330 -0.123614 0.000006
vn -0.992330 -0.123614 0.000006
vn -0.992330 -0.123614 0.000006
vn -0.703989 -0.636747 0.314567
vn -0.703989 -0.636747 0.314567
vn -0.703989 -0.636747 0.314567
vn -0.816175 -0.101678 0.568788
vn -0.816175 -0.101678 0.568788
vn -0.816175 -0.101678 0.568788
vn -0.992329 -0.123623 0.000000
vn -0.992329 -0.123623 0.000000
vn -0.992329 -0.123623 0.000000
vn 0.992146 0.125082 -0.000000
vn 0.992146 0.125082 -0.000000
vn 0.992146 0.125082 -0.000000
vn 0.992149 0.125065 -0.000011
vn 0.992149 0.125065 -0.000011
vn 0.992149 0.125065 -0.000011
vn 0.791444 0.099765 0.603045
vn 0.791444 0.099765 0.603045
vn 0.791444 0.099765 0.603045
vn 0.736114 0.608887 0.295623
vn 0.736114 0.608887 0.295623
vn 0.736114 0.608887 0.295623
vn 0.992149 0.125065 -0.000011
vn 0.992149 0.125065 -0.000011
vn 0.992149 0.125065 -0.000011
vn 0.992149 0.125065 0.000011
vn 0.992149 0.125065 0.000011
vn 0.992149 0.125065 0.000011
vn -0.062804 0.818233 0.571446
vn -0.062804 0.818233 0.571446
vn -0.062804 0.818233 0.571446
vn -0.062804 0.818233 0.571446
vn -0.063076 0.814994 -0.576026
vn -0.063076 0.814994 -0.576026
vn -0.063076 0.814994 -0.576026
vn -0.063076 0.814994 -0.576026
vn 0.000000 0.000000 -1.000000
vn 0.000000 0.000000 -1.000000
vn 0.000000 0.000000 -1.000000
vn 0.000000 0.000000 -1.000000
vn 0.059160 -0.864433 -0.499256
vn 0.059160 -0.864433 -0.499256
vn 0.059160 -0.864433 -0.499256
vn 0.059160 -0.864433 -0.499256
vn 0.059160 -0.864433 0.499256
vn 0.059160 -0.864433 0.499256
vn 0.059160 -0.864433 0.499256
vn 0.059160 -0.864433 0.499256
vn 0.000000 0.000000 1.000000
vn 0.000000 0.000000 1.000000
vn 0.000000 0.000000 1.000000
vn 0.000000 0.000000 1.000000
vn 0.039730 0.001947 -0.999209
vn 0.039730 0.001947 -0.999209
vn 0.039730 0.001947 -0.999209
vn 0.039730 0.001947 -0.999209
vn -0.015740 0.870535 -0.491856
vn -0.015740 0.870535 -0.491856
vn -0.015740 0.870535 -0.491856
vn -0.015740 0.870535 -0.491856
vn -0.046365 0.809295 0.585570
vn -0.046365 0.809295 0.585570
vn -0.046365 0.809295 0.585570
vn -0.046365 0.809295 0.585570
vn -0.039798 0.021230 0.998982
vn -0.039798 0.021230 0.998982
vn -0.039798 0.021230 0.998982
vn -0.039798 0.021230 0.998982
vn 0.003047 -0.845137 0.534541
vn 0.003047 -0.845137 0.534541
vn 0.003047 -0.845137 0.534541
vn 0.003047 -0.845137 0.534541
vn 0.060842 -0.815363 -0.575744
vn 0.060842 -0.815363 -0.575744
vn 0.060842 -0.815363 -0.575744
vn 0.060842 -0.815363 -0.575744
vn -0.962160 0.272486 0.000000
vn -0.962160 0.272486 0.000000
vn -0.962160 0.272486 0.000000
vn -0.962157 0.272495 0.000006
vn -0.962157 0.272495 0.000006
vn -0.962157 0.272495 0.000006
vn -0.962157 0.272495 -0.000006
vn -0.962157 0.272495 -0.000006
vn -0.962157 0.272495 -0.000006
vn -0.990453 0.084671 0.108783
vn -0.990453 0.084671 0.108783
vn -0.990453 0.084671 0.108783
vn -0.945945 0.267895 0.182815
vn -0.945945 0.267895 0.182815
vn -0.945944 0.267895 0.182815
vn -0.962160 0.272487 0.000000
vn -0.962160 0.272487 0.000000
vn -0.962160 0.272487 0.000000
vn 0.983046 -0.183358 0.000000
vn 0.983046 -0.183358 0.000000
vn 0.983046 -0.183358 0.000000
vn 0.983045 -0.183366 -0.000000
vn 0.983045 -0.183366 -0.000000
vn 0.983045 -0.183366 -0.000000
vn 0.983045 -0.183366 0.000000
vn 0.983045 -0.183366 0.000000
vn 0.983045 -0.183366 0.000000
vn 0.824778 -0.524798 0.210542
vn 0.824778 -0.524798 0.210542
vn 0.824778 -0.524798 0.210542
vn 0.883616 -0.164816 0.438245
vn 0.883616 -0.164816 0.438245
vn 0.883616 -0.164816 0.438245
vn 0.983046 -0.183362 0.000000
vn 0.983045 -0.183362 0.000000
vn 0.983045 -0.183362 0.000000
vn 0.025019 0.819337 0.572766
vn 0.025019 0.819337 0.572766
vn 0.025019 0.819337 0.572766
vn 0.025019 0.819337 0.572766
vn -0.001046 0.805254 -0.592929
vn -0.001046 0.805254 -0.592929
vn -0.001046 0.805254 -0.592929
vn -0.001046 0.805254 -0.592929
vn -0.039272 -0.014337 -0.999126
vn -0.039272 -0.014337 -0.999126
vn -0.039272 -0.014337 -0.999126
vn -0.039272 -0.014337 -0.999126
vn -0.044694 -0.799328 -0.599230
vn -0.044694 -0.799328 -0.599230
vn -0.044694 -0.799328 -0.599230
vn -0.044694 -0.799328 -0.599230
vn 0.003672 -0.878039 0.478575
vn 0.003672 -0.878039 0.478575
vn 0.003672 -0.878039 0.478575
vn 0.003672 -0.878039 0.478575
vn 0.039763 -0.025794 0.998876
vn 0.039763 -0.025794 0.998876
vn 0.039763 -0.025794 0.998876
vn 0.039763 -0.025794 0.998876
vn -0.013627 0.868089 0.496221
vn -0.013627 0.868089 0.496221
vn -0.013627 0.868089 0.496221
vn -0.013627 0.868089 0.496221
vn -0.022180 0.808500 -0.588078
vn -0.022180 0.808500 -0.588078
vn -0.022180 0.808500 -0.588078
vn -0.022180 0.808500 -0.588078
vn 0.000000 0.000000 -1.000000
vn 0.000000 0.000000 -1.000000
vn 0.000000 0.000000 -1.000000
vn 0.000000 0.000000 -1.000000
vn 0.015920 -0.868112 -0.496113
vn 0.015920 -0.868112 -0.496113
vn 0.015920 -0.868112 -0.496113
vn 0.015920 -0.868112 -0.496113
vn 0.019301 -0.870587 0.491636
vn 0.019301 -0.870587 0.491636
vn 0.019301 -0.870587 0.491636
vn 0.019301 -0.870587 0.491636
vn -0.000000 0.000000 1.000000
vn -0.000000 0.000000 1.000000
vn -0.000000 0.000000 1.000000
vn -0.000000 0.000000 1.000000
s off
f 1/1/1 2/2/2 17/3/3 18/4/4
f 2/2/5 3/5/6 16/6/7 17/3/8
f 3/5/9 4/7/10 15/8/11 16/6/12
f 4/7/13 5/9/14 20/10/15 15/8/16
f 5/9/17 6/11/18 19/12/19 20/10/20
f 6/11/21 1/13/22 18/14/23 19/12/24
f 2/15/25 1/16/26 13/17/27
f 3/18/28 2/15/29 13/17/30
f 4/19/31 3/18/32 13/17/33
f 5/20/34 4/19/35 13/17/36
f 6/21/37 5/20/38 13/17/39
f 1/16/40 6/21/41 13/17/42
f 7/22/43 8/23/44 14/24/45
f 8/23/46 9/25/47 14/24/48
f 9/25/49 10/26/50 14/24/51
f 10/26/52 11/27/53 14/24/54
f 11/27/55 12/28/56 14/24/57
f 12/28/58 7/22/59 14/24/60
f 16/6/61 15/8/62 21/29/63 22/30/64
f 17/3/65 16/6/66 22/30/67 23/31/68
f 18/4/69 17/3/70 23/31/71 24/32/72
f 19/12/73 18/14/74 24/33/75 25/34/76
f 20/10/77 19/12/78 25/34/79 26/35/80
f 15/8/81 20/10/82 26/35/83 21/29/84
f 22/30/85 21/29/86 33/36/87 34/37/88
f 23/31/89 22/30/90 34/37/91 35/38/92
f 24/32/93 23/31/94 35/38/95 36/39/96
f 25/34/97 24/33/98 36/40/99 37/41/100
f 26/35/101 25/34/102 37/41/103 38/42/104
f 21/29/105 26/35/106 38/42/107 33/36/108
f 28/43/109 27/44/110 10/45/111 9/46/112
f 29/47/113 28/43/114 9/46/115 8/48/116
f 30/49/117 29/47/118 8/48/119 7/50/120
f 31/51/121 30/52/122 7/53/123 12/54/124
f 32/55/125 31/51/126 12/54/127 11/56/128
f 27/44/129 32/55/130 11/56/131 10/45/132
f 34/37/133 33/36/134 27/44/135 28/43/136
f 35/38/137 34/37/138 28/43/139 29/47/140
f 36/39/141 35/38/142 29/47/143 30/49/144
f 37/41/145 36/40/146 30/52/147 31/51/148
f 38/42/149 37/41/150 31/51/151 32/55/152
f 33/36/153 38/42/154 32/55/155 27/44/156
f 39/57/157 40/58/158 55/59/159 56/60/160
f 40/58/161 41/61/162 54/62/163 55/59/164
f 41/61/165 42/63/166 53/64/167 54/62/168
f 42/63/169 43/65/170 58/66/171 53/64/172
f 43/65/173 44/67/174 57/68/175 58/66/176
f 44/67/177 39/69/178 56/70/179 57/68/180
f 40/71/181 39/72/182 51/73/183
f 41/74/184 40/71/185 51/73/186
f 42/75/187 41/74/188 51/73/189
f 43/76/190 42/75/191 51/73/192
f 44/77/193 43/76/194 51/73/195
f 39/72/196 44/77/197 51/73/198
f 45/78/199 46/79/200 52/80/201
f 46/79/202 47/81/203 52/80/204
f 47/81/205 48/82/206 52/80/207
f 48/82/208 49/83/209 52/80/210
f 49/83/211 50/84/212 52/80/213
f 50/84/214 45/78/215 52/80/216
f 54/62/217 53/64/218 48/85/219 47/86/220
f 55/59/221 54/62/222 47/86/223 46/87/224
f 56/60/225 55/59/226 46/87/227 45/88/228
f 57/68/229 56/70/230 45/89/231 50/90/232
f 58/66/233 57/68/234 50/90/235 49/91/236
f 53/64/237 58/66/238 49/91/239 48/85/240
f 59/92/241 60/93/242 75/94/243 76/95/244
f 60/93/245 61/96/246 74/97/247 75/94/248
f 61/96/249 62/98/250 73/99/251 74/97/252
f 62/98/253 63/100/254 78/101/255 73/99/256
f 63/100/257 64/102/258 77/103/259 78/101/260
f 64/102/261 59/104/262 76/105/263 77/103/264
f 60/106/265 59/107/266 71/108/267
f 61/109/268 60/106/269 71/108/270
f 62/110/271 61/109/272 71/108/273
f 63/111/274 62/110/275 71/108/276
f 64/112/277 63/111/278 71/108/279
f 59/107/280 64/112/281 71/108/282
f 65/113/283 66/114/284 72/115/285
f 66/114/286 67/116/287 72/115/288
f 67/116/289 68/117/290 72/115/291
f 68/117/292 69/118/293 72/115/294
f 69/118/295 70/119/296 72/115/297
f 70/119/298 65/113/299 72/115/300
f 74/97/301 73/99/302 79/120/303 80/121/304
f 75/94/305 74/97/306 80/121/307 81/122/308
f 76/95/309 75/94/310 81/122/311 82/123/312
f 77/103/313 76/105/314 82/124/315 83/125/316
f 78/101/317 77/103/318 83/125/319 84/126/320
f 73/99/321 78/101/322 84/126/323 79/120/324
f 80/121/325 79/120/326 68/127/327 67/128/328
f 81/122/329 80/121/330 67/128/331 66/129/332
f 82/123/333 81/122/334 66/129/335 65/130/336
f 83/125/337 82/124/338 65/131/339 70/132/340
f 84/126/341 83/125/342 70/132/343 69/133/344
f 79/120/345 84/126/346 69/133/347 68/127/348
