# This file uses centimeters as units for non-parametric coordinates.

v 0.443958 7.573442 1.818296
v 1.906739 7.678367 0.361828
v -0.807630 7.585144 1.017022
v -0.777492 7.652681 -0.475435
v -0.274795 2.841009 0.174201
v -0.129131 3.172796 -0.426809
v 0.465230 2.767469 0.668144
v 0.918115 3.247674 0.079209
v 0.524629 3.380640 -0.548046
v 0.592117 7.708395 -1.126164
v 0.320768 6.184594 0.995937
v -0.475491 6.367226 0.394749
v -0.184672 6.467988 -0.303924
v 0.562786 6.331047 -0.417466
v 0.900295 6.154840 0.324037
v -0.944376 0.382495 0.312922
v 0.000023 -0.000001 -0.000020
v 0.327357 0.295481 1.190445
v 1.042645 0.287622 0.047194
v -0.567253 0.433219 -0.787066
v 0.502410 0.374798 -1.042987
v 0.271392 18.767921 1.786451
v 0.022039 18.430487 2.363966
v -0.670156 18.261745 2.407654
v -1.112956 18.430487 1.874132
v -0.863770 18.767921 1.296618
v -0.171576 18.936636 1.252960
v 1.972054 7.131188 0.172372
v 1.267336 7.131188 1.804971
v -0.498788 7.131188 2.011017
v -1.560317 7.131188 0.584494
v -0.855553 7.131188 -1.048105
v 0.910708 7.131188 -1.254150
v -0.690841 19.053848 2.455872
v 0.205975 6.833141 0.378448
v 1.740159 8.771345 2.440555
v -0.812772 8.771345 2.738220
v -2.346894 8.771345 0.676114
v -1.328254 8.771345 -1.683688
v 1.224584 8.771345 -1.981354
v 2.758920 8.771345 0.080722
v 1.408739 11.873119 1.591459
v -0.409240 11.873119 1.803711
v -1.501936 11.873119 0.335176
v -0.776258 11.873119 -1.345274
v 1.041812 11.873119 -1.557098
v 2.134158 11.873119 -0.088899
v 0.996320 15.454228 1.864818
v -0.511451 15.436179 2.040252
v -1.417788 15.454228 0.822682
v -0.816094 15.490373 -0.570690
v 0.691510 15.508437 -0.746124
v 1.597694 15.490373 0.471447
vt 0.144191 0.303631
vt 0.144191 0.303631
vt 0.144192 0.303631
vt 0.144191 0.303631
vt 0.144191 0.303631
vt 0.144192 0.303631
vt 0.144191 0.303631
vt 0.144191 0.303631
vt 0.144191 0.303631
vt 0.144191 0.303631
vt 0.144191 0.303631
vt 0.144191 0.303632
vt 0.144192 0.303632
vt 0.144191 0.303632
vt 0.144192 0.303632
vt 0.144192 0.303632
vt 0.144192 0.303631
vt 0.144191 0.303631
vt 0.144191 0.303631
vt 0.144192 0.303631
vt 0.144191 0.303631
vt 0.173833 0.476744
vt 0.173833 0.476744
vt 0.173833 0.476744
vt 0.173833 0.476744
vt 0.173833 0.476744
vt 0.173833 0.476744
vt 0.173833 0.476744
vt 0.173833 0.476744
vt 0.173833 0.476744
vt 0.173833 0.476744
vt 0.173833 0.476744
vt 0.173833 0.476744
vt 0.173833 0.476744
vt 0.173833 0.476744
vt 0.173833 0.476744
vt 0.173833 0.476744
vt 0.173833 0.476744
vt 0.173833 0.476744
vt 0.173833 0.476744
vt 0.173833 0.476744
vt 0.173833 0.476744
vt 0.173833 0.476744
vt 0.173833 0.476744
vt 0.173833 0.476744
vt 0.173833 0.476744
vt 0.173833 0.476744
vt 0.173833 0.476744
vt 0.173833 0.476744
vt 0.173833 0.476744
vt 0.173833 0.476744
vt 0.173833 0.476744
vt 0.173833 0.476744
vt 0.173833 0.476744
vt 0.173833 0.476744
vt 0.173833 0.476744
vt 0.173833 0.476744
vt 0.173833 0.476744
vt 0.173833 0.476744
vt 0.173833 0.476744
vt 0.173833 0.476744
vt 0.173833 0.476744
vt 0.173833 0.476744
vt 0.173833 0.476744
vt 0.173833 0.476744
vt 0.173833 0.476744
vt 0.173833 0.476744
vt 0.173833 0.476744
vt 0.173833 0.476744
vt 0.173833 0.476744
vn -0.945846 -0.019215 -0.324047
vn -0.945846 -0.019215 -0.324047
vn -0.945846 -0.019215 -0.324047
vn -0.945846 -0.019215 -0.324047
vn -0.270481 -0.914355 0.301322
vn -0.270481 -0.914355 0.301322
vn -0.270481 -0.914355 0.301322
vn 0.779563 -0.036609 0.625253
vn 0.779563 -0.036609 0.625253
vn 0.779563 -0.036609 0.625253
vn 0.779563 -0.036609 0.625253
vn 0.884274 0.026808 -0.466198
vn 0.884274 0.026808 -0.466198
vn 0.884274 0.026808 -0.466198
vn 0.884274 0.026808 -0.466198
vn -0.588164 -0.092686 0.803413
vn -0.588164 -0.092686 0.803413
vn -0.588164 -0.092686 0.803413
vn -0.588164 -0.092686 0.803413
vn -0.167066 0.039515 -0.985154
vn -0.167066 0.039515 -0.985154
vn -0.167066 0.039515 -0.985154
vn -0.167066 0.039515 -0.985154
vn 0.255230 -0.952483 0.166234
vn 0.255230 -0.952483 0.166234
vn 0.255230 -0.952483 0.166234
vn -0.535044 -0.441916 0.720027
vn -0.535044 -0.441916 0.720027
vn -0.535044 -0.441916 0.720027
vn -0.535044 -0.441916 0.720027
vn -0.930758 -0.328018 -0.161533
vn -0.930758 -0.328018 -0.161533
vn -0.930758 -0.328018 -0.161533
vn -0.930758 -0.328018 -0.161533
vn -0.327918 -0.370657 -0.868955
vn -0.327918 -0.370657 -0.868955
vn -0.327918 -0.370657 -0.868955
vn -0.327918 -0.370657 -0.868955
vn 0.722205 -0.389985 -0.571254
vn 0.722205 -0.389985 -0.571254
vn 0.722205 -0.389985 -0.571254
vn 0.722205 -0.389985 -0.571254
vn 0.656866 -0.436386 0.614894
vn 0.656866 -0.436386 0.614894
vn 0.656866 -0.436386 0.614894
vn 0.656866 -0.436386 0.614894
vn -0.144148 -0.907120 -0.395416
vn -0.144148 -0.907120 -0.395417
vn -0.144148 -0.907120 -0.395416
vn 0.268852 -0.940361 -0.208423
vn 0.268852 -0.940361 -0.208423
vn 0.268852 -0.940361 -0.208423
vn -0.421022 -0.887924 -0.185289
vn -0.421022 -0.887924 -0.185289
vn -0.421022 -0.887924 -0.185289
vn -0.541262 0.198196 0.817162
vn -0.541262 0.198196 0.817162
vn -0.541262 0.198196 0.817162
vn -0.541262 0.198196 0.817162
vn 0.821805 0.049216 0.567639
vn 0.821805 0.049216 0.567640
vn 0.821805 0.049216 0.567639
vn 0.821805 0.049216 0.567639
vn -0.224296 0.161033 -0.961124
vn -0.224296 0.161033 -0.961124
vn -0.224296 0.161033 -0.961124
vn -0.224296 0.161033 -0.961124
vn 0.880172 0.056719 -0.471254
vn 0.880172 0.056719 -0.471254
vn 0.880172 0.056719 -0.471254
vn 0.880172 0.056719 -0.471254
vn -0.946507 0.212064 -0.243213
vn -0.946507 0.212064 -0.243213
vn -0.946507 0.212064 -0.243213
vn -0.946507 0.212064 -0.243213
vn 0.846995 -0.385888 0.365637
vn 0.846995 -0.385888 0.365637
vn 0.846995 -0.385888 0.365636
vn 0.846995 -0.385888 0.365637
vn 0.106869 -0.385865 0.916345
vn 0.106869 -0.385865 0.916345
vn 0.106869 -0.385865 0.916345
vn 0.106869 -0.385865 0.916345
vn -0.740180 -0.385802 0.550718
vn -0.740180 -0.385802 0.550718
vn -0.740180 -0.385802 0.550718
vn -0.740180 -0.385802 0.550718
vn -0.847034 -0.385800 -0.365640
vn -0.847034 -0.385800 -0.365640
vn -0.847034 -0.385800 -0.365640
vn -0.847034 -0.385800 -0.365640
vn -0.106868 -0.385864 -0.916345
vn -0.106868 -0.385864 -0.916345
vn -0.106868 -0.385864 -0.916345
vn -0.106868 -0.385864 -0.916345
vn 0.740162 -0.385842 -0.550715
vn 0.740162 -0.385842 -0.550715
vn 0.740162 -0.385842 -0.550715
vn 0.740162 -0.385842 -0.550715
vn 0.575988 0.572701 0.583311
vn 0.575988 0.572701 0.583311
vn 0.575988 0.572701 0.583311
vn 0.077097 -0.058574 0.995302
vn 0.077097 -0.058574 0.995302
vn 0.077097 -0.058574 0.995302
vn -0.777187 -0.058434 0.626551
vn -0.777187 -0.058434 0.626551
vn -0.777187 -0.058434 0.626551
vn -0.819548 0.572695 -0.018999
vn -0.819548 0.572695 -0.018999
vn -0.819548 0.572695 -0.018999
vn -0.243885 0.949420 -0.197791
vn -0.243885 0.949420 -0.197791
vn -0.243885 0.949420 -0.197791
vn 0.311222 0.949416 0.041840
vn 0.311222 0.949416 0.041840
vn 0.311222 0.949416 0.041840
vn 0.174474 -0.981777 0.075313
vn 0.174474 -0.981777 0.075313
vn 0.174474 -0.981777 0.075313
vn 0.022020 -0.981780 0.188743
vn 0.022020 -0.981780 0.188743
vn 0.022020 -0.981780 0.188743
vn -0.152435 -0.981782 0.113432
vn -0.152435 -0.981782 0.113432
vn -0.152435 -0.981782 0.113432
vn -0.174452 -0.981782 -0.075308
vn -0.174452 -0.981782 -0.075308
vn -0.174452 -0.981782 -0.075308
vn -0.022017 -0.981781 -0.188738
vn -0.022017 -0.981781 -0.188738
vn -0.022017 -0.981781 -0.188738
vn 0.152452 -0.981781 -0.113426
vn 0.152452 -0.981781 -0.113426
vn 0.152452 -0.981781 -0.113426
vn 0.111461 0.273401 0.955421
vn 0.111461 0.273401 0.955421
vn 0.111461 0.273401 0.955421
vn 0.111461 0.273401 0.955421
vn -0.771742 0.273368 0.574181
vn -0.771742 0.273368 0.574181
vn -0.771742 0.273368 0.574181
vn -0.771742 0.273368 0.574181
vn -0.899106 0.202308 -0.388176
vn -0.899106 0.202308 -0.388176
vn -0.899106 0.202308 -0.388176
vn -0.899106 0.202308 -0.388176
vn -0.114828 0.127945 -0.985111
vn -0.114828 0.127945 -0.985111
vn -0.114828 0.127945 -0.985111
vn -0.114828 0.127945 -0.985111
vn 0.795701 0.127880 -0.592037
vn 0.795701 0.127880 -0.592037
vn 0.795701 0.127880 -0.592037
vn 0.795701 0.127880 -0.592037
vn 0.899112 0.202325 0.388153
vn 0.899112 0.202325 0.388153
vn 0.899112 0.202325 0.388153
vn 0.899112 0.202325 0.388153
vn 0.115896 -0.062403 0.991299
vn 0.115896 -0.062403 0.991299
vn 0.115896 -0.062403 0.991299
vn 0.115896 -0.062403 0.991299
vn -0.800861 -0.062387 0.595592
vn -0.800861 -0.062387 0.595592
vn -0.800861 -0.062387 0.595592
vn -0.800861 -0.062387 0.595592
vn -0.915805 0.074822 -0.394593
vn -0.915805 0.074822 -0.394593
vn -0.915804 0.074822 -0.394593
vn -0.915804 0.074822 -0.394593
vn -0.114281 0.206306 -0.971791
vn -0.114281 0.206306 -0.971791
vn -0.114281 0.206306 -0.971791
vn -0.114281 0.206306 -0.971791
vn 0.785659 0.206340 -0.583235
vn 0.785659 0.206340 -0.583235
vn 0.785659 0.206340 -0.583235
vn 0.785659 0.206340 -0.583235
vn 0.915225 0.074787 0.395942
vn 0.915225 0.074787 0.395942
vn 0.915225 0.074787 0.395942
vn 0.915225 0.074787 0.395942
vn 0.108910 -0.126004 0.986033
vn 0.108910 -0.126004 0.986033
vn 0.108910 -0.126004 0.986033
vn 0.108910 -0.126004 0.986033
vn -0.792293 -0.126038 0.596981
vn -0.792293 -0.126038 0.596981
vn -0.792293 -0.126038 0.596981
vn -0.792293 -0.126038 0.596981
vn -0.912349 0.203358 -0.355337
vn -0.912349 0.203358 -0.355337
vn -0.912349 0.203358 -0.355337
vn -0.912349 0.203358 -0.355337
vn -0.127275 0.482407 -0.866652
vn -0.127275 0.482407 -0.866652
vn -0.127275 0.482406 -0.866652
vn -0.127275 0.482407 -0.866652
vn 0.718008 0.482400 -0.501753
vn 0.718008 0.482400 -0.501753
vn 0.718008 0.482400 -0.501753
vn 0.718008 0.482400 -0.501753
vn 0.884312 0.203398 0.420264
vn 0.884312 0.203398 0.420264
vn 0.884312 0.203398 0.420264
vn 0.884312 0.203398 0.420264
s off
f 12/1/1 13/2/2 6/3/3 5/4/4
f 16/18/5 17/5/6 18/17/7
f 7/6/8 8/7/9 15/8/10 11/9/11
f 14/10/12 15/8/13 8/7/14 9/11/15
f 7/6/16 11/9/17 12/1/18 5/4/19
f 13/2/20 14/10/21 9/11/22 6/3/23
f 18/17/24 17/5/25 19/19/26
f 12/1/27 11/9/28 1/12/29 3/13/30
f 3/13/31 4/14/32 13/2/33 12/1/34
f 10/15/35 14/10/36 13/2/37 4/14/38
f 2/16/39 15/8/40 14/10/41 10/15/42
f 11/9/43 15/8/44 2/16/45 1/12/46
f 17/5/47 20/20/48 21/21/49
f 19/19/50 17/5/51 21/21/52
f 16/18/53 20/20/54 17/5/55
f 7/6/56 5/4/57 16/18/58 18/17/59
f 8/7/60 7/6/61 18/17/62 19/19/63
f 6/3/64 9/11/65 21/21/66 20/20/67
f 9/11/68 8/7/69 19/19/70 21/21/71
f 5/4/72 6/3/73 20/20/74 16/18/75
f 41/22/76 36/23/77 29/24/78 28/25/79
f 36/23/80 37/26/81 30/27/82 29/24/83
f 37/26/84 38/28/85 31/29/86 30/27/87
f 38/28/88 39/30/89 32/31/90 31/29/91
f 39/30/92 40/32/93 33/33/94 32/31/95
f 40/32/96 41/34/97 28/35/98 33/33/99
f 23/36/100 22/37/101 34/38/102
f 24/39/103 23/36/104 34/38/105
f 25/40/106 24/39/107 34/38/108
f 26/41/109 25/40/110 34/38/111
f 27/42/112 26/41/113 34/38/114
f 22/37/115 27/42/116 34/38/117
f 28/43/118 29/44/119 35/45/120
f 29/44/121 30/46/122 35/45/123
f 30/46/124 31/47/125 35/45/126
f 31/47/127 32/48/128 35/45/129
f 32/48/130 33/49/131 35/45/132
f 33/49/133 28/43/134 35/45/135
f 42/50/136 43/51/137 37/26/138 36/23/139
f 43/51/140 44/52/141 38/28/142 37/26/143
f 44/52/144 45/53/145 39/30/146 38/28/147
f 45/53/148 46/54/149 40/32/150 39/30/151
f 46/54/152 47/55/153 41/34/154 40/32/155
f 47/56/156 42/50/157 36/23/158 41/22/159
f 48/57/160 49/58/161 43/51/162 42/50/163
f 49/58/164 50/59/165 44/52/166 43/51/167
f 50/59/168 51/60/169 45/53/170 44/52/171
f 51/60/172 52/61/173 46/54/174 45/53/175
f 52/61/176 53/62/177 47/55/178 46/54/179
f 53/63/180 48/57/181 42/50/182 47/56/183
f 23/64/184 24/65/185 49/58/186 48/57/187
f 24/65/188 25/66/189 50/59/190 49/58/191
f 25/66/192 26/67/193 51/60/194 50/59/195
f 26/67/196 27/68/197 52/61/198 51/60/199
f 27/68/200 22/69/201 53/62/202 52/61/203
f 22/70/204 23/64/205 48/57/206 53/63/207
