# This file uses centimeters as units for non-parametric coordinates.

v 65.255295 -33.810249 8.415527
v 65.255295 132.576935 8.415527
v 48.424076 -33.810249 8.415527
v 48.424076 132.576935 8.415527
v 48.424076 -33.810249 -8.415527
v 48.424076 132.576935 -8.415527
v 65.255295 -33.810249 -8.415527
v 65.255295 132.576935 -8.415527
v 198.069565 -33.810249 8.415527
v 198.069565 132.576935 8.415527
v 181.238358 -33.810249 8.415527
v 181.238358 132.576935 8.415527
v 181.238358 -33.810249 -8.415527
v 181.238358 132.576935 -8.415527
v 198.069565 -33.810249 -8.415527
v 198.069565 132.576935 -8.415527
v -0.000000 103.629082 13.037720
v 63.384415 107.160408 13.037720
v 0.000000 118.754288 13.037720
v 62.055191 117.947510 13.037720
v -0.000000 118.754288 8.125000
v 65.255295 120.416206 8.125000
v -0.000000 103.629082 8.125000
v 65.255295 105.291000 8.125000
v -0.000000 72.234856 13.037720
v 65.255295 69.429733 13.037720
v -0.000000 87.360062 13.037720
v 65.255295 84.554932 13.037720
v -0.000000 87.360062 8.125000
v 65.255295 84.554932 8.125000
v -0.000000 72.234856 8.125000
v 65.255295 69.429733 8.125000
v -0.000000 39.124195 13.037720
v 62.544643 40.623436 13.037720
v -0.000000 54.249409 13.037720
v 65.255295 54.249409 13.037720
v -0.000000 54.249409 8.125000
v 65.255295 54.249409 8.125000
v -0.000000 39.124195 8.125000
v 65.255295 39.124195 8.125000
v -0.000000 6.368784 13.037720
v 65.255295 6.368784 13.037720
v -0.000000 21.493992 13.037720
v 65.255295 19.529188 13.037720
v -0.000000 21.493992 8.125000
v 65.255295 19.529188 8.125000
v -0.000000 6.368784 8.125000
v 65.255295 6.368784 8.125000
v 181.238358 103.629082 13.037720
v 250.000000 103.629082 13.037720
v 181.238358 118.754288 13.037720
v 250.000000 118.754288 13.037720
v 181.238358 118.754288 8.125000
v 250.000000 118.754288 8.125000
v 181.238358 103.629082 8.125000
v 250.000000 103.629082 8.125000
v 181.238358 72.234856 13.037720
v 250.000000 72.234856 13.037720
v 183.740173 85.145126 13.037720
v 250.000000 87.360062 13.037720
v 181.238358 87.360062 8.125000
v 250.000000 87.360062 8.125000
v 181.238358 72.234856 8.125000
v 250.000000 72.234856 8.125000
v 181.238358 41.838146 13.037720
v 250.000000 39.124195 13.037720
v 181.238358 56.963352 13.037720
v 250.000000 54.249409 13.037720
v 181.238358 56.963352 8.125000
v 250.000000 54.249409 8.125000
v 181.238358 41.838146 8.125000
v 250.000000 39.124195 8.125000
v 184.367813 9.201986 13.037720
v 250.000000 6.368784 13.037720
v 183.419800 20.072025 13.037720
v 250.000000 21.493992 13.037720
v 181.534439 20.072025 8.125000
v 250.000000 21.493992 8.125000
v 181.238358 6.368784 8.125000
v 250.000000 6.368784 8.125000
vt 0.133772 0.359288
vt 0.133772 0.359288
vt 0.133772 0.359288
vt 0.133772 0.359288
vt 0.133772 0.359288
vt 0.133772 0.359288
vt 0.133772 0.359288
vt 0.133772 0.359288
vt 0.133772 0.359288
vt 0.133772 0.359288
vt 0.134171 0.383356
vt 0.134171 0.383356
vt 0.134171 0.383356
vt 0.134171 0.383356
vt 0.133772 0.359288
vt 0.133772 0.359288
vt 0.133772 0.359288
vt 0.133772 0.359288
vt 0.133772 0.359288
vt 0.133772 0.359288
vt 0.133772 0.359288
vt 0.133772 0.359288
vt 0.133772 0.359288
vt 0.133772 0.359288
vt 0.133772 0.359288
vt 0.133772 0.359288
vt 0.134171 0.383356
vt 0.134171 0.383356
vt 0.134171 0.383356
vt 0.134171 0.383356
vt 0.133772 0.359288
vt 0.133772 0.359288
vt 0.133772 0.359288
vt 0.133772 0.359288
vt 0.133772 0.359288
vt 0.133772 0.359288
vt 0.133772 0.359288
vt 0.133772 0.359288
vt 0.133772 0.359288
vt 0.133772 0.359288
vt 0.133772 0.359288
vt 0.133772 0.359288
vt 0.133772 0.359288
vt 0.133772 0.359288
vt 0.133772 0.359288
vt 0.133772 0.359288
vt 0.133772 0.359288
vt 0.133772 0.359288
vt 0.133772 0.359288
vt 0.133772 0.359288
vt 0.133772 0.359288
vt 0.133772 0.359288
vt 0.133772 0.359288
vt 0.133772 0.359288
vt 0.133772 0.359288
vt 0.133772 0.359288
vt 0.133772 0.359288
vt 0.133772 0.359288
vt 0.133772 0.359288
vt 0.133772 0.359288
vt 0.133772 0.359288
vt 0.133772 0.359288
vt 0.133772 0.359288
vt 0.133772 0.359288
vt 0.133772 0.359288
vt 0.133772 0.359288
vt 0.133772 0.359288
vt 0.133772 0.359288
vt 0.133772 0.359288
vt 0.133772 0.359288
vt 0.133772 0.359288
vt 0.133772 0.359288
vt 0.133772 0.359288
vt 0.133772 0.359288
vt 0.133772 0.359288
vt 0.133772 0.359288
vt 0.133772 0.359288
vt 0.133772 0.359288
vt 0.133772 0.359288
vt 0.133772 0.359288
vt 0.133772 0.359288
vt 0.133772 0.359288
vt 0.133772 0.359288
vt 0.133772 0.359288
vt 0.133772 0.359288
vt 0.133772 0.359288
vt 0.133772 0.359288
vt 0.133772 0.359288
vt 0.133772 0.359288
vt 0.133772 0.359288
vt 0.133772 0.359288
vt 0.133772 0.359288
vt 0.133772 0.359288
vt 0.133772 0.359288
vt 0.133772 0.359288
vt 0.133772 0.359288
vt 0.133772 0.359288
vt 0.133772 0.359288
vt 0.133772 0.359288
vt 0.133772 0.359288
vt 0.133772 0.359288
vt 0.133772 0.359288
vt 0.133772 0.359288
vt 0.133772 0.359288
vt 0.133772 0.359288
vt 0.133772 0.359288
vt 0.133772 0.359288
vt 0.133772 0.359288
vt 0.133772 0.359288
vt 0.133772 0.359288
vt 0.133772 0.359288
vt 0.133772 0.359288
vt 0.133772 0.359288
vt 0.133772 0.359288
vt 0.133772 0.359288
vt 0.133772 0.359288
vt 0.133772 0.359288
vt 0.133772 0.359288
vt 0.133772 0.359288
vt 0.133772 0.359288
vt 0.133772 0.359288
vt 0.133772 0.359288
vt 0.133772 0.359288
vt 0.133772 0.359288
vt 0.133772 0.359288
vt 0.133772 0.359288
vt 0.133772 0.359288
vt 0.133772 0.359288
vt 0.133772 0.359288
vt 0.133772 0.359288
vt 0.133772 0.359288
vt 0.133772 0.359288
vt 0.133772 0.359288
vt 0.133772 0.359288
vt 0.133772 0.359288
vt 0.133772 0.359288
vt 0.133772 0.359288
vt 0.133772 0.359288
vt 0.133772 0.359288
vt 0.133772 0.359288
vt 0.133772 0.359288
vt 0.133772 0.359288
vt 0.133772 0.359288
vt 0.133772 0.359288
vn 0.000000 0.000000 1.000000
vn 0.000000 0.000000 1.000000
vn 0.000000 0.000000 1.000000
vn 0.000000 0.000000 1.000000
vn -1.000000 0.000000 0.000000
vn -1.000000 0.000000 0.000000
vn -1.000000 0.000000 0.000000
vn -1.000000 0.000000 0.000000
vn 0.000000 0.000000 -1.000000
vn 0.000000 0.000000 -1.000000
vn 0.000000 0.000000 -1.000000
vn 0.000000 0.000000 -1.000000
vn 1.000000 0.000000 0.000000
vn 1.000000 0.000000 0.000000
vn 1.000000 0.000000 0.000000
vn 1.000000 0.000000 0.000000
vn 0.000000 1.000000 0.000000
vn 0.000000 1.000000 0.000000
vn 0.000000 1.000000 0.000000
vn 0.000000 1.000000 0.000000
vn 0.000000 -1.000000 0.000000
vn 0.000000 -1.000000 0.000000
vn 0.000000 -1.000000 0.000000
vn 0.000000 -1.000000 0.000000
vn 0.000000 0.000000 1.000000
vn 0.000000 0.000000 1.000000
vn 0.000000 0.000000 1.000000
vn 0.000000 0.000000 1.000000
vn -1.000000 0.000000 0.000000
vn -1.000000 0.000000 0.000000
vn -1.000000 0.000000 0.000000
vn -1.000000 0.000000 0.000000
vn 0.000000 0.000000 -1.000000
vn 0.000000 0.000000 -1.000000
vn 0.000000 0.000000 -1.000000
vn 0.000000 0.000000 -1.000000
vn 1.000000 0.000000 0.000000
vn 1.000000 0.000000 0.000000
vn 1.000000 0.000000 0.000000
vn 1.000000 0.000000 0.000000
vn 0.000000 1.000000 0.000000
vn 0.000000 1.000000 0.000000
vn 0.000000 1.000000 0.000000
vn 0.000000 1.000000 0.000000
vn 0.000000 -1.000000 0.000000
vn 0.000000 -1.000000 0.000000
vn 0.000000 -1.000000 0.000000
vn 0.000000 -1.000000 0.000000
vn 0.000000 0.000000 1.000000
vn 0.000000 0.000000 1.000000
vn 0.000000 0.000000 1.000000
vn 0.000000 0.000000 1.000000
vn -0.006518 0.970334 0.241681
vn -0.006518 0.970334 0.241681
vn -0.006518 0.970334 0.241681
vn -0.006518 0.970334 0.241681
vn -0.000000 0.000000 -1.000000
vn -0.000000 0.000000 -1.000000
vn -0.000000 0.000000 -1.000000
vn -0.000000 0.000000 -1.000000
vn 0.039571 -0.980197 0.194030
vn 0.039571 -0.980197 0.194030
vn 0.039571 -0.980197 0.194030
vn 0.039571 -0.980197 0.194030
vn 0.886576 0.045479 0.460342
vn 0.886576 0.045479 0.460342
vn 0.886576 0.045479 0.460342
vn 0.886576 0.045479 0.460342
vn -1.000000 0.000000 0.000000
vn -1.000000 0.000000 0.000000
vn -1.000000 0.000000 0.000000
vn -1.000000 0.000000 0.000000
vn 0.000000 0.000000 1.000000
vn 0.000000 0.000000 1.000000
vn 0.000000 0.000000 1.000000
vn 0.000000 0.000000 1.000000
vn 0.042947 0.999077 0.000000
vn 0.042947 0.999077 0.000000
vn 0.042947 0.999077 0.000000
vn 0.042947 0.999077 0.000000
vn 0.000000 0.000000 -1.000000
vn 0.000000 0.000000 -1.000000
vn 0.000000 0.000000 -1.000000
vn 0.000000 0.000000 -1.000000
vn -0.042947 -0.999077 0.000000
vn -0.042947 -0.999077 0.000000
vn -0.042947 -0.999077 0.000000
vn -0.042947 -0.999077 0.000000
vn 1.000000 0.000000 0.000000
vn 1.000000 0.000000 0.000000
vn 1.000000 0.000000 0.000000
vn 1.000000 0.000000 0.000000
vn -1.000000 0.000000 0.000000
vn -1.000000 0.000000 0.000000
vn -1.000000 0.000000 0.000000
vn -1.000000 0.000000 0.000000
vn 0.000000 0.000000 1.000000
vn 0.000000 0.000000 1.000000
vn 0.000000 0.000000 1.000000
vn 0.000000 0.000000 1.000000
vn 0.000000 1.000000 0.000000
vn 0.000000 1.000000 0.000000
vn 0.000000 1.000000 0.000000
vn 0.000000 1.000000 0.000000
vn 0.000000 0.000000 -1.000000
vn 0.000000 0.000000 -1.000000
vn 0.000000 0.000000 -1.000000
vn 0.000000 0.000000 -1.000000
vn 0.011590 -0.988010 0.153957
vn 0.011590 -0.988010 0.153957
vn 0.011590 -0.988010 0.153957
vn 0.011590 -0.988010 0.153957
vn 0.956448 -0.090173 0.277625
vn 0.956448 -0.090173 0.277625
vn 0.956448 -0.090173 0.277625
vn 0.956448 -0.090173 0.277625
vn -1.000000 0.000000 0.000000
vn -1.000000 0.000000 0.000000
vn -1.000000 0.000000 0.000000
vn -1.000000 0.000000 0.000000
vn 0.000000 0.000000 1.000000
vn 0.000000 0.000000 1.000000
vn 0.000000 0.000000 1.000000
vn 0.000000 0.000000 1.000000
vn 0.030096 0.999547 0.000000
vn 0.030096 0.999547 0.000000
vn 0.030096 0.999547 0.000000
vn 0.030096 0.999547 0.000000
vn 0.000000 0.000000 -1.000000
vn 0.000000 0.000000 -1.000000
vn 0.000000 0.000000 -1.000000
vn 0.000000 0.000000 -1.000000
vn 0.000000 -1.000000 0.000000
vn 0.000000 -1.000000 0.000000
vn 0.000000 -1.000000 0.000000
vn 0.000000 -1.000000 0.000000
vn 1.000000 0.000000 0.000000
vn 1.000000 0.000000 0.000000
vn 1.000000 0.000000 0.000000
vn 1.000000 0.000000 0.000000
vn -1.000000 0.000000 0.000000
vn -1.000000 0.000000 0.000000
vn -1.000000 0.000000 0.000000
vn -1.000000 0.000000 0.000000
vn 0.000000 0.000000 1.000000
vn 0.000000 0.000000 1.000000
vn 0.000000 0.000000 1.000000
vn 0.000000 0.000000 1.000000
vn 0.000000 1.000000 0.000000
vn 0.000000 1.000000 0.000000
vn 0.000000 1.000000 0.000000
vn 0.000000 1.000000 0.000000
vn 0.000000 0.000000 -1.000000
vn 0.000000 0.000000 -1.000000
vn 0.000000 0.000000 -1.000000
vn 0.000000 0.000000 -1.000000
vn 0.000000 -1.000000 0.000000
vn 0.000000 -1.000000 0.000000
vn 0.000000 -1.000000 0.000000
vn 0.000000 -1.000000 0.000000
vn 1.000000 0.000000 0.000000
vn 1.000000 0.000000 0.000000
vn 1.000000 0.000000 0.000000
vn 1.000000 0.000000 0.000000
vn -1.000000 0.000000 0.000000
vn -1.000000 0.000000 0.000000
vn -1.000000 0.000000 0.000000
vn -1.000000 0.000000 0.000000
vn 0.000000 0.000000 1.000000
vn 0.000000 0.000000 1.000000
vn 0.000000 0.000000 1.000000
vn 0.000000 0.000000 1.000000
vn -0.015986 0.974514 0.223754
vn -0.015986 0.974515 0.223754
vn -0.015986 0.974515 0.223754
vn -0.015986 0.974515 0.223754
vn 0.000000 0.000000 -1.000000
vn 0.000000 0.000000 -1.000000
vn 0.000000 0.000000 -1.000000
vn 0.000000 0.000000 -1.000000
vn 0.000000 -1.000000 0.000000
vn 0.000000 -1.000000 0.000000
vn 0.000000 -1.000000 0.000000
vn 0.000000 -1.000000 0.000000
vn 1.000000 0.000000 0.000000
vn 1.000000 0.000000 0.000000
vn 1.000000 0.000000 0.000000
vn 1.000000 0.000000 0.000000
vn -0.960719 0.085732 0.263951
vn -0.960719 0.085732 0.263951
vn -0.960719 0.085732 0.263951
vn -0.960719 0.085732 0.263951
vn 0.000000 0.000000 1.000000
vn 0.000000 0.000000 1.000000
vn 0.000000 0.000000 1.000000
vn 0.000000 0.000000 1.000000
vn 0.039438 0.999222 0.000000
vn 0.039438 0.999222 0.000000
vn 0.039438 0.999222 0.000000
vn 0.039438 0.999222 0.000000
vn 0.000000 0.000000 -1.000000
vn 0.000000 0.000000 -1.000000
vn 0.000000 0.000000 -1.000000
vn 0.000000 0.000000 -1.000000
vn -0.039438 -0.999222 0.000000
vn -0.039438 -0.999222 0.000000
vn -0.039438 -0.999222 0.000000
vn -0.039438 -0.999222 0.000000
vn 1.000000 0.000000 0.000000
vn 1.000000 0.000000 0.000000
vn 1.000000 0.000000 0.000000
vn 1.000000 0.000000 0.000000
vn -1.000000 0.000000 0.000000
vn -1.000000 0.000000 0.000000
vn -1.000000 0.000000 0.000000
vn -1.000000 0.000000 0.000000
vn -0.000000 0.000000 1.000000
vn -0.000000 0.000000 1.000000
vn -0.000000 0.000000 1.000000
vn -0.000000 0.000000 1.000000
vn -0.021054 0.999770 0.004040
vn -0.021054 0.999770 0.004040
vn -0.021054 0.999770 0.004040
vn -0.021054 0.999770 0.004040
vn -0.000000 0.000000 -1.000000
vn -0.000000 0.000000 -1.000000
vn -0.000000 0.000000 -1.000000
vn -0.000000 0.000000 -1.000000
vn -0.020215 -0.958922 0.282948
vn -0.020215 -0.958922 0.282947
vn -0.020215 -0.958922 0.282948
vn -0.020215 -0.958922 0.282948
vn 1.000000 0.000000 0.000000
vn 1.000000 0.000000 0.000000
vn 1.000000 0.000000 0.000000
vn 1.000000 0.000000 0.000000
vn -0.887681 -0.023550 0.459856
vn -0.887681 -0.023550 0.459856
vn -0.887681 -0.023550 0.459856
vn -0.887681 -0.023550 0.459855
s off
f 1/1/1 2/2/2 4/3/3 3/4/4
f 3/4/5 4/3/6 6/5/7 5/6/8
f 5/6/9 6/5/10 8/7/11 7/8/12
f 7/8/13 8/7/14 2/9/15 1/10/16
f 2/11/17 8/12/18 6/13/19 4/14/20
f 7/15/21 1/1/22 3/4/23 5/16/24
f 9/17/25 10/18/26 12/19/27 11/20/28
f 11/20/29 12/19/30 14/21/31 13/22/32
f 13/22/33 14/21/34 16/23/35 15/24/36
f 15/24/37 16/23/38 10/25/39 9/26/40
f 10/27/41 16/28/42 14/29/43 12/30/44
f 15/31/45 9/17/46 11/20/47 13/32/48
f 20/33/49 19/34/50 17/35/51 18/36/52
f 21/37/53 19/34/54 20/33/55 22/38/56
f 23/39/57 21/37/58 22/38/59 24/40/60
f 17/41/61 23/39/62 24/40/63 18/42/64
f 18/36/65 24/43/66 22/44/67 20/33/68
f 23/45/69 17/35/70 19/34/71 21/46/72
f 28/47/73 27/48/74 25/49/75 26/50/76
f 29/51/77 27/48/78 28/47/79 30/52/80
f 31/53/81 29/51/82 30/52/83 32/54/84
f 25/55/85 31/53/86 32/54/87 26/56/88
f 26/50/89 32/57/90 30/58/91 28/47/92
f 31/59/93 25/49/94 27/48/95 29/60/96
f 36/61/97 35/62/98 33/63/99 34/64/100
f 37/65/101 35/62/102 36/61/103 38/66/104
f 39/67/105 37/65/106 38/66/107 40/68/108
f 33/69/109 39/67/110 40/68/111 34/70/112
f 34/64/113 40/71/114 38/72/115 36/61/116
f 39/73/117 33/63/118 35/62/119 37/74/120
f 44/75/121 43/76/122 41/77/123 42/78/124
f 45/79/125 43/76/126 44/75/127 46/80/128
f 47/81/129 45/79/130 46/80/131 48/82/132
f 41/83/133 47/81/134 48/82/135 42/84/136
f 42/78/137 48/85/138 46/86/139 44/75/140
f 47/87/141 41/77/142 43/76/143 45/88/144
f 52/89/145 51/90/146 49/91/147 50/92/148
f 53/93/149 51/90/150 52/89/151 54/94/152
f 55/95/153 53/93/154 54/94/155 56/96/156
f 49/97/157 55/95/158 56/96/159 50/98/160
f 50/92/161 56/99/162 54/100/163 52/89/164
f 55/101/165 49/91/166 51/90/167 53/102/168
f 60/103/169 59/104/170 57/105/171 58/106/172
f 61/107/173 59/104/174 60/103/175 62/108/176
f 63/109/177 61/107/178 62/108/179 64/110/180
f 57/111/181 63/109/182 64/110/183 58/112/184
f 58/106/185 64/113/186 62/114/187 60/103/188
f 63/115/189 57/105/190 59/104/191 61/116/192
f 68/117/193 67/118/194 65/119/195 66/120/196
f 69/121/197 67/118/198 68/117/199 70/122/200
f 71/123/201 69/121/202 70/122/203 72/124/204
f 65/125/205 71/123/206 72/124/207 66/126/208
f 66/120/209 72/127/210 70/128/211 68/117/212
f 71/129/213 65/119/214 67/118/215 69/130/216
f 76/131/217 75/132/218 73/133/219 74/134/220
f 77/135/221 75/132/222 76/131/223 78/136/224
f 79/137/225 77/135/226 78/136/227 80/138/228
f 73/139/229 79/137/230 80/138/231 74/140/232
f 74/134/233 80/141/234 78/142/235 76/131/236
f 79/143/237 73/133/238 75/132/239 77/144/240
