# This file uses centimeters as units for non-parametric coordinates.

v 73.312248 11.046585 52.841488
v -13.556816 9.159286 52.841488
v 73.312248 -23.134445 51.809437
v -13.556816 -23.134445 52.841488
v 73.312248 -23.134445 50.433277
v -13.556816 -23.134445 50.433277
v 73.312248 11.046585 50.433277
v -13.556816 9.358224 50.433277
v -11.102082 11.046585 52.841488
v -11.360839 11.046585 50.433277
v 20.192505 11.046585 52.841488
v 4.472112 11.046585 52.841488
v 12.001609 9.105690 52.841488
v 11.691427 11.046585 51.661457
v 70.296638 -23.134445 52.841488
v 73.312248 -19.965885 52.841488
v 56.863068 -23.134445 52.841488
v 49.219570 -23.134445 52.841488
v 53.048492 -23.134445 51.767117
v 53.075359 -21.907890 52.841488
v 26.547239 -23.134445 50.433277
v 17.409575 -23.134445 50.433277
v 23.029785 -23.134445 51.611832
v 22.733448 -21.300518 50.433277
vt 0.460858 0.124908
vt 0.460858 0.124908
vt 0.460858 0.124908
vt 0.460858 0.124908
vt 0.460858 0.124908
vt 0.460858 0.124908
vt 0.460858 0.124908
vt 0.460858 0.124908
vt 0.460858 0.124908
vt 0.460858 0.124908
vt 0.460858 0.124908
vt 0.460858 0.124908
vt 0.460858 0.124908
vt 0.460858 0.124908
vt 0.475903 0.158926
vt 0.022767 0.154772
vt 0.022767 0.008461
vt 0.475903 0.008461
vt 0.035571 0.158926
vt 0.460858 0.124908
vt 0.460858 0.124908
vt 0.198814 0.158926
vt 0.460858 0.124908
vt 0.116811 0.158926
vt 0.460858 0.124908
vt 0.156087 0.150382
vt 0.460858 0.124908
vt 0.154090 0.158926
vt 0.460858 0.124908
vt 0.460173 0.008461
vt 0.460858 0.124908
vt 0.475903 0.022409
vt 0.460858 0.124908
vt 0.390099 0.008461
vt 0.460858 0.124908
vt 0.350228 0.008461
vt 0.460858 0.124908
vt 0.370341 0.013860
vt 0.369868 0.008461
vt 0.460858 0.124908
vt 0.460858 0.124908
vt 0.460858 0.124908
vt 0.460858 0.124908
vn 0.309438 -0.294502 0.904166
vn 0.309438 -0.294502 0.904166
vn 0.309438 -0.294502 0.904166
vn -0.000000 0.000000 -1.000000
vn -0.000000 0.000000 -1.000000
vn -0.000000 0.000000 -1.000000
vn -0.000000 0.000000 -1.000000
vn -0.000000 0.000000 -1.000000
vn 0.000000 1.000000 0.000000
vn 0.000000 1.000000 0.000000
vn 0.000000 1.000000 0.000000
vn 0.000000 1.000000 0.000000
vn -0.608214 0.791078 0.065350
vn -0.608214 0.791078 0.065350
vn -0.608214 0.791078 0.065350
vn -0.608214 0.791078 0.065350
vn -1.000000 0.000000 0.000000
vn -1.000000 0.000000 0.000000
vn -1.000000 0.000000 0.000000
vn -1.000000 0.000000 0.000000
vn -0.118922 0.501871 0.856728
vn -0.118922 0.501871 0.856728
vn -0.118922 0.501871 0.856728
vn 0.136744 0.530486 0.836591
vn 0.136745 0.530486 0.836591
vn 0.136744 0.530486 0.836591
vn 0.000000 -1.000000 -0.000001
vn 0.000000 -1.000000 -0.000001
vn 0.000000 -1.000000 -0.000001
vn 0.000000 -1.000000 -0.000001
vn 1.000000 0.000000 0.000000
vn 1.000000 0.000000 0.000000
vn 1.000000 0.000000 0.000000
vn 1.000000 0.000000 0.000000
vn 1.000000 0.000000 0.000000
vn 0.000000 0.000000 1.000000
vn 0.000000 0.000000 1.000000
vn 0.000000 0.000000 1.000000
vn 0.000000 0.000000 1.000000
vn 0.000000 0.000000 1.000000
vn -0.207870 -0.641926 0.738052
vn -0.207870 -0.641926 0.738052
vn -0.207870 -0.641926 0.738052
vn 0.205918 -0.647327 0.733871
vn 0.205918 -0.647327 0.733870
vn 0.205918 -0.647327 0.733871
vn 0.176313 -0.511838 -0.840795
vn 0.176313 -0.511838 -0.840795
vn 0.176313 -0.511838 -0.840795
vn -0.265071 -0.551238 -0.791122
vn -0.265071 -0.551238 -0.791122
vn -0.265071 -0.551238 -0.791122
vn 0.000000 0.000000 1.000000
vn 0.000000 0.000000 1.000000
vn 0.000000 0.000000 1.000000
vn 0.000000 0.000000 1.000000
vn 0.000000 0.000000 1.000000
vn 0.000000 0.000000 1.000000
vn 0.000000 0.000000 1.000000
vn 0.000000 0.000000 1.000000
vn 0.000000 0.000000 1.000000
vn 0.000000 0.000000 1.000000
vn 0.000000 0.000000 1.000000
vn 0.000000 0.000000 1.000000
vn 0.000000 0.000000 1.000000
vn 0.000000 1.000000 -0.000001
vn 0.000000 1.000000 -0.000001
vn 0.000000 1.000000 -0.000001
vn 0.000000 1.000000 -0.000001
vn 0.000000 1.000000 0.000000
vn 0.000000 1.000000 0.000000
vn 0.000000 1.000000 0.000000
vn 0.000000 -1.000000 0.000000
vn 0.000000 -1.000000 0.000000
vn 0.000000 -1.000000 0.000000
vn 0.000000 -1.000000 0.000000
vn 0.000000 -1.000000 0.000000
vn 0.000000 -1.000000 0.000000
vn 0.000000 -1.000000 0.000000
vn 0.000000 -1.000000 0.000000
vn 0.000000 -1.000000 0.000000
vn 0.000000 -1.000000 0.000000
vn 0.000000 -1.000000 0.000000
vn 0.000000 -1.000000 0.000000
vn 0.000000 -1.000000 0.000000
vn 0.000000 0.000000 -1.000000
vn 0.000000 0.000000 -1.000000
vn 0.000000 0.000000 -1.000000
vn 0.000000 0.000000 -1.000000
vn 0.000000 0.000000 -1.000000
vn 0.000000 0.000000 -1.000000
vn 0.000000 0.000000 -1.000000
s off
f 16/32/1 15/30/2 3/18/3
f 10/21/4 24/43/5 22/41/6 6/6/7 8/8/8
f 7/7/9 14/27/10 11/23/11 1/9/12
f 9/20/13 10/21/14 8/8/15 2/10/16
f 2/2/17 8/11/18 6/12/19 4/4/20
f 14/28/21 13/26/22 11/22/23
f 12/24/24 13/26/25 14/28/26
f 23/42/27 19/37/28 18/35/29 4/4/30
f 7/13/31 1/1/32 16/31/33 3/3/34 5/14/35
f 4/17/36 13/26/37 12/24/38 9/19/39 2/16/40
f 17/34/41 20/38/42 19/39/43
f 19/39/44 20/38/45 18/36/46
f 22/41/47 24/43/48 23/42/49
f 23/42/50 24/43/51 21/40/52
f 1/15/53 11/22/54 13/26/55 20/38/56
f 20/38/57 13/26/58 4/17/59 18/36/60
f 1/15/61 20/38/62 17/34/63 15/30/64 16/32/65
f 14/27/66 10/21/67 9/20/68 12/25/69
f 7/7/70 10/21/71 14/27/72
f 23/42/73 4/4/74 6/6/75 22/41/76
f 3/3/77 15/29/78 17/33/79 19/37/80 5/5/81
f 5/5/82 19/37/83 23/42/84 21/40/85
f 5/5/86 21/40/87 24/43/88 7/7/89
f 7/7/90 24/43/91 10/21/92
