# This file uses centimeters as units for non-parametric coordinates.

v 0.989014 2.173289 17.146851
v 1.082764 2.280477 15.581177
v 6.651733 1.202328 15.705688
v 6.393890 -0.594658 25.239380
v -2.605377 2.189092 21.967773
v -0.719055 2.549499 16.399048
v 2.901535 2.372982 13.128052
v 7.468124 -0.133328 20.459351
v 1.263260 0.506553 24.436401
v -3.140686 2.486012 17.760376
v 1.732178 2.397832 18.487671
v 4.838470 2.635129 16.874634
v 5.724365 2.507178 19.762207
v 4.953171 2.200358 23.443726
v 1.332855 3.074519 22.566406
v -0.868713 3.366502 20.738037
v 6.493469 -10.685325 11.450562
v 5.683594 -7.298793 11.465332
v 2.230423 -7.298793 12.301636
v 1.319489 -10.685325 12.166870
v -1.704926 -10.685325 16.631226
v 1.608521 -10.685325 18.995483
v -1.173950 -7.298793 16.900879
v 1.355240 -7.298793 18.356689
v -4.536880 -10.685325 18.900879
v -5.301575 -10.685325 22.106812
v -4.841858 -7.298793 19.137573
v -5.129822 -7.298793 21.325317
v -13.229340 -10.685325 17.582153
v -11.795227 -10.685325 20.191406
v -11.638031 -9.149414 18.706909
v -10.764252 -9.149414 20.000366
v 1.871796 -10.685325 4.557617
v 5.864853 -10.685325 5.926147
v 4.684540 -7.298793 6.481445
v 3.367523 -7.298793 5.572998
v 11.166046 -10.685325 -3.653809
v 9.555496 -10.685325 1.315063
v 8.367996 -9.149415 1.331299
v 9.403671 -9.149415 -1.863892
v 1.755554 2.412647 19.734497
v 2.591995 2.014419 17.876099
v 1.764267 2.045693 17.853027
v 2.242645 -7.481018 15.427734
v 0.846649 -7.481018 14.737671
v 0.822952 -7.481018 17.227173
v -0.374573 1.093994 24.578613
v 8.343231 0.184689 18.885742
vt 0.176351 0.327263
vt 0.176351 0.327263
vt 0.176351 0.327263
vt 0.176351 0.327263
vt 0.176351 0.327263
vt 0.176351 0.327263
vt 0.176351 0.327263
vt 0.176351 0.327263
vt 0.176351 0.327263
vt 0.176351 0.327263
vt 0.176351 0.327263
vt 0.176351 0.327263
vt 0.176351 0.327263
vt 0.176351 0.327263
vt 0.176351 0.327263
vt 0.176351 0.327263
vt 0.144433 0.299654
vt 0.144433 0.299654
vt 0.144433 0.299654
vt 0.144433 0.299654
vt 0.144433 0.299654
vt 0.144433 0.299654
vt 0.144433 0.299654
vt 0.144433 0.299654
vt 0.144433 0.299654
vt 0.144433 0.299654
vt 0.144433 0.299654
vt 0.144433 0.299654
vt 0.144433 0.299654
vt 0.144433 0.299654
vt 0.144433 0.299654
vt 0.144433 0.299654
vt 0.144433 0.299654
vt 0.144433 0.299654
vt 0.144433 0.299654
vt 0.144433 0.299654
vt 0.144433 0.299654
vt 0.144433 0.299654
vt 0.144433 0.299654
vt 0.144433 0.299654
vt 0.144433 0.299654
vt 0.144433 0.299654
vt 0.146308 0.300591
vt 0.146308 0.300591
vt 0.146308 0.300591
vt 0.146308 0.300591
vt 0.146308 0.300591
vt 0.146308 0.300591
vt 0.146308 0.300591
vt 0.146308 0.300591
vt 0.176351 0.327263
vt 0.176351 0.327263
vn 0.228221 0.953132 -0.198630
vn 0.228221 0.953132 -0.198630
vn 0.228221 0.953132 -0.198630
vn 0.228221 0.953133 -0.198630
vn -0.045920 0.997244 0.058277
vn -0.045920 0.997244 0.058277
vn -0.045920 0.997244 0.058277
vn -0.120035 0.992681 -0.013261
vn -0.120035 0.992681 -0.013261
vn -0.120035 0.992681 -0.013261
vn -0.120035 0.992681 -0.013261
vn -0.050415 0.996097 0.072455
vn -0.050415 0.996097 0.072455
vn -0.050415 0.996097 0.072455
vn 0.240352 0.961122 -0.135925
vn 0.240352 0.961122 -0.135925
vn 0.240352 0.961122 -0.135925
vn 0.262929 0.955631 -0.132804
vn 0.262929 0.955631 -0.132804
vn 0.262929 0.955631 -0.132804
vn 0.191005 0.967376 -0.166434
vn 0.191005 0.967376 -0.166434
vn 0.191005 0.967376 -0.166434
vn 0.191005 0.967376 -0.166434
vn 0.611777 0.783058 -0.112025
vn 0.611777 0.783058 -0.112025
vn 0.611777 0.783058 -0.112025
vn 0.611777 0.783058 -0.112025
vn 0.792472 0.567158 0.224322
vn 0.792472 0.567158 0.224322
vn 0.792472 0.567158 0.224322
vn 0.792472 0.567158 0.224322
vn -0.033190 0.558181 0.829055
vn -0.033190 0.558181 0.829055
vn -0.033190 0.558181 0.829055
vn -0.033190 0.558181 0.829055
vn 0.269501 0.562098 0.781930
vn 0.269501 0.562098 0.781930
vn 0.269501 0.562098 0.781930
vn -0.310623 0.949525 -0.043766
vn -0.310623 0.949525 -0.043766
vn -0.310623 0.949525 -0.043766
vn -0.310623 0.949525 -0.043766
vn -0.744559 0.501765 0.440300
vn -0.744559 0.501765 0.440300
vn -0.744559 0.501765 0.440300
vn -0.744559 0.501765 0.440300
vn 0.767522 0.590778 0.248778
vn 0.767522 0.590778 0.248778
vn 0.767522 0.590778 0.248778
vn 0.767522 0.590778 0.248778
vn -0.798532 0.203818 -0.566397
vn -0.798532 0.203818 -0.566397
vn -0.798532 0.203818 -0.566397
vn -0.798532 0.203818 -0.566397
vn 0.000000 1.000000 0.000000
vn 0.000000 1.000000 0.000000
vn 0.000000 1.000000 0.000000
vn 0.000000 1.000000 0.000000
vn 0.829351 0.178948 0.529296
vn 0.829351 0.178948 0.529296
vn 0.829351 0.178948 0.529296
vn 0.829351 0.178948 0.529296
vn -0.567926 0.080190 -0.819164
vn -0.567926 0.080190 -0.819164
vn -0.567926 0.080190 -0.819164
vn -0.567926 0.080190 -0.819164
vn 0.000000 1.000000 0.000000
vn 0.000000 1.000000 0.000000
vn 0.000000 1.000000 0.000000
vn 0.000000 1.000000 0.000000
vn 0.405599 0.192267 0.893601
vn 0.405599 0.192267 0.893601
vn 0.405599 0.192267 0.893601
vn 0.405599 0.192267 0.893601
vn 0.079664 0.246333 -0.965906
vn 0.079664 0.246333 -0.965906
vn 0.079664 0.246333 -0.965906
vn 0.079664 0.246333 -0.965906
vn -0.291383 0.955349 0.049034
vn -0.291383 0.955349 0.049034
vn -0.291383 0.955349 0.049034
vn -0.291383 0.955349 0.049034
vn -0.285532 0.252426 0.924528
vn -0.285532 0.252426 0.924528
vn -0.285532 0.252426 0.924528
vn -0.285532 0.252426 0.924528
vn 0.945686 0.290208 -0.146481
vn 0.945686 0.290208 -0.146481
vn 0.945686 0.290208 -0.146481
vn 0.945686 0.290208 -0.146481
vn 0.000000 1.000000 0.000000
vn 0.000000 1.000000 0.000000
vn 0.000000 1.000000 0.000000
vn 0.000000 1.000000 0.000000
vn -0.930580 0.349281 -0.109649
vn -0.930580 0.349281 -0.109649
vn -0.930580 0.349281 -0.109649
vn -0.930580 0.349281 -0.109649
vn 0.784935 0.315672 0.533130
vn 0.784935 0.315672 0.533130
vn 0.784935 0.315672 0.533130
vn 0.784935 0.315672 0.533130
vn 0.330055 0.943690 -0.022628
vn 0.330055 0.943690 -0.022628
vn 0.330055 0.943690 -0.022628
vn 0.330055 0.943690 -0.022628
vn -0.648018 0.350309 -0.676281
vn -0.648018 0.350309 -0.676281
vn -0.648018 0.350309 -0.676281
vn -0.648018 0.350309 -0.676281
vn 0.826206 -0.190167 0.530303
vn 0.826206 -0.190167 0.530302
vn 0.826206 -0.190167 0.530302
vn 0.826206 -0.190167 0.530302
vn 0.298898 0.249499 -0.921092
vn 0.298898 0.249499 -0.921092
vn 0.298898 0.249499 -0.921092
vn 0.298898 0.249499 -0.921092
vn -0.994930 0.099339 -0.015717
vn -0.994929 0.099339 -0.015717
vn -0.994929 0.099339 -0.015717
vn -0.994929 0.099339 -0.015717
vn -0.261807 0.815469 0.516206
vn -0.261807 0.815468 0.516206
vn -0.261807 0.815469 0.516206
vn -0.261807 0.815469 0.516206
vn 0.665522 0.567498 0.484795
vn 0.665522 0.567498 0.484795
vn 0.665522 0.567498 0.484795
s off
f 1/1/1 6/4/2 16/3/3 11/2/4
f 12/5/5 11/2/6 13/6/7
f 2/7/8 1/1/9 11/2/10 12/5/11
f 11/2/12 14/8/13 13/6/14
f 11/2/15 16/3/16 15/9/17
f 11/2/18 15/9/19 14/8/20
f 3/10/21 7/11/22 2/7/23 12/5/24
f 3/10/25 12/5/26 13/6/27 48/52/28
f 14/8/29 4/13/30 8/12/31 13/6/32
f 15/9/33 9/14/34 4/13/35 14/8/36
f 15/9/37 47/51/38 9/14/39
f 6/4/40 10/16/41 5/15/42 16/3/43
f 30/21/44 32/24/45 31/23/46 29/22/47
f 37/25/48 40/28/49 39/27/50 38/26/51
f 20/29/52 21/32/53 23/31/54 19/30/55
f 19/30/56 23/31/57 24/33/58 18/18/59
f 18/18/60 24/33/61 22/34/62 17/17/63
f 21/32/64 25/36/65 27/35/66 23/31/67
f 23/31/68 27/35/69 28/37/70 24/33/71
f 24/33/72 28/37/73 26/38/74 22/34/75
f 29/22/76 31/23/77 27/35/78 25/36/79
f 27/35/80 31/23/81 32/24/82 28/37/83
f 28/37/84 32/24/85 30/21/86 26/38/87
f 18/18/88 17/17/89 34/40/90 35/39/91
f 19/19/92 18/18/93 35/39/94 36/41/95
f 20/20/96 19/19/97 36/41/98 33/42/99
f 34/40/100 38/26/101 39/27/102 35/39/103
f 35/39/104 39/27/105 40/28/106 36/41/107
f 36/41/108 40/28/109 37/25/110 33/42/111
f 41/43/112 46/46/113 44/45/114 42/44/115
f 43/47/116 42/49/117 44/45/118 45/48/119
f 41/43/120 43/50/121 45/48/122 46/46/123
f 16/3/124 5/15/125 47/51/126 15/9/127
f 48/52/128 13/6/129 8/12/130
