# This file uses centimeters as units for non-parametric coordinates.

v 0.000000 17.650232 0.608368
v 500.000000 17.650232 0.608368
v 0.000000 18.866905 0.608368
v 500.000000 18.866905 0.608368
v 0.000000 18.866905 -0.608368
v 500.000000 18.866905 -0.608368
v 0.000000 17.650232 -0.608368
v 500.000000 17.650232 -0.608368
v 249.522720 19.203485 0.837936
v 249.522720 20.236315 0.194855
v 249.522720 19.593231 -0.837936
v 249.522720 18.560402 -0.194855
v 373.621094 18.866905 0.608368
v 373.621094 18.866905 -0.608368
v 373.621094 17.650232 -0.608368
v 373.621094 17.650232 0.608368
v 0.000000 48.082237 0.608368
v 500.000000 51.761433 0.608368
v 0.000000 49.298904 0.608368
v 500.000000 52.978100 0.608368
v 0.000000 49.298904 -0.608368
v 500.000000 52.978100 -0.608368
v 0.000000 48.082237 -0.608368
v 500.000000 51.761433 -0.608368
v 108.274002 52.978100 0.608368
v 108.274002 52.978100 -0.608368
v 108.274002 51.761433 -0.608368
v 108.274002 51.761433 0.608368
v 206.431320 54.243805 0.321350
v 206.431320 53.767097 -0.798035
v 206.431320 52.647705 -0.321350
v 206.431320 53.124401 0.798035
v 0.000000 83.552635 0.608368
v 500.000000 85.153831 0.608368
v 0.000000 84.769302 0.608368
v 500.000000 86.370522 0.608368
v 0.000000 84.769302 -0.608368
v 500.000000 86.370522 -0.608368
v 0.000000 83.552635 -0.608368
v 500.000000 85.153831 -0.608368
v 353.374084 83.592194 0.747070
v 353.374084 83.912514 -0.426712
v 353.374084 82.738777 -0.747070
v 353.374084 82.418434 0.426712
v 208.025482 85.153831 0.608368
v 208.025482 86.370522 0.608368
v 208.025482 86.370522 -0.608368
v 208.025482 85.153831 -0.608368
v 0.000000 115.341927 0.608368
v 500.000000 115.341927 0.608368
v 0.000000 116.558601 0.608368
v 500.000000 116.558601 0.608368
v 0.000000 116.558601 -0.608368
v 500.000000 116.558601 -0.608368
v 0.000000 115.341927 -0.608368
v 500.000000 115.341927 -0.608368
v 110.946419 116.558601 0.608368
v 110.946419 116.558601 -0.608368
v 110.946419 115.341927 -0.608368
v 110.946419 115.341927 0.608368
v 392.709625 116.558601 0.608368
v 392.709625 116.558601 -0.608368
v 392.709625 115.341927 -0.608368
v 392.709625 115.341927 0.608368
v 239.044678 113.382446 0.849991
v 239.044678 114.099792 -0.132675
v 239.044678 113.117073 -0.849991
v 239.044678 112.399742 0.132675
vt 0.089539 0.276455
vt 0.089539 0.276455
vt 0.089539 0.276455
vt 0.089539 0.276455
vt 0.089539 0.276455
vt 0.089539 0.276455
vt 0.089539 0.276455
vt 0.089539 0.276455
vt 0.089539 0.276455
vt 0.089539 0.276455
vt 0.089539 0.276455
vt 0.089539 0.276455
vt 0.089539 0.276455
vt 0.089539 0.276455
vt 0.089539 0.276455
vt 0.089539 0.276455
vt 0.089539 0.276455
vt 0.089539 0.276455
vt 0.089539 0.276455
vt 0.089539 0.276455
vt 0.089539 0.276455
vt 0.089539 0.276455
vt 0.089539 0.276455
vt 0.089539 0.276455
vt 0.089539 0.276455
vt 0.089539 0.276455
vt 0.089539 0.276455
vt 0.089539 0.276455
vt 0.089539 0.276455
vt 0.089539 0.276455
vt 0.089539 0.276455
vt 0.089539 0.276455
vt 0.089539 0.276455
vt 0.089539 0.276455
vt 0.089539 0.276455
vt 0.089539 0.276455
vt 0.089539 0.276455
vt 0.089539 0.276455
vt 0.089539 0.276455
vt 0.089539 0.276455
vt 0.089539 0.276455
vt 0.089539 0.276455
vt 0.089539 0.276455
vt 0.089539 0.276455
vt 0.089539 0.276455
vt 0.089539 0.276455
vt 0.089539 0.276455
vt 0.089539 0.276455
vt 0.089539 0.276455
vt 0.089539 0.276455
vt 0.089539 0.276455
vt 0.089539 0.276455
vt 0.089539 0.276455
vt 0.089539 0.276455
vt 0.089539 0.276455
vt 0.089539 0.276455
vt 0.089539 0.276455
vt 0.089539 0.276455
vt 0.089539 0.276455
vt 0.089539 0.276455
vt 0.089539 0.276455
vt 0.089539 0.276455
vt 0.089539 0.276455
vt 0.089539 0.276455
vt 0.089539 0.276455
vt 0.089539 0.276455
vt 0.089539 0.276455
vt 0.089539 0.276455
vt 0.089539 0.276455
vt 0.089539 0.276455
vt 0.089539 0.276455
vt 0.089539 0.276455
vt 0.089539 0.276455
vt 0.089539 0.276455
vt 0.089539 0.276455
vt 0.089539 0.276455
vt 0.089539 0.276455
vt 0.089539 0.276455
vt 0.089539 0.276455
vt 0.089539 0.276455
vt 0.089539 0.276455
vt 0.089539 0.276455
vt 0.089539 0.276455
vt 0.089539 0.276455
vt 0.089539 0.276455
vt 0.089539 0.276455
vt 0.089539 0.276455
vt 0.089539 0.276455
vt 0.089539 0.276455
vt 0.089539 0.276455
vt 0.089539 0.276455
vt 0.089539 0.276455
vt 0.089539 0.276455
vt 0.089539 0.276455
vt 0.089539 0.276455
vt 0.089539 0.276455
vt 0.089539 0.276455
vt 0.089539 0.276455
vt 0.089539 0.276455
vt 0.089539 0.276455
vt 0.089539 0.276455
vn 0.002218 -0.485495 0.874236
vn 0.000001 -0.485497 0.874238
vn 0.000001 -0.485497 0.874239
vn 0.002218 -0.485495 0.874236
vn -0.003993 0.874230 0.485495
vn 0.000001 0.874237 0.485499
vn -0.000005 0.874237 0.485499
vn -0.003993 0.874230 0.485495
vn -0.002218 0.485495 -0.874236
vn -0.000005 0.485496 -0.874239
vn 0.000003 0.485496 -0.874239
vn -0.002218 0.485495 -0.874236
vn 0.003993 -0.874230 -0.485495
vn 0.000012 -0.874237 -0.485499
vn -0.000008 -0.874237 -0.485499
vn 0.003993 -0.874230 -0.485495
vn 1.000000 0.000000 0.000000
vn 1.000000 0.000000 0.000000
vn 1.000000 0.000000 0.000000
vn 1.000000 0.000000 0.000000
vn -1.000000 0.000000 0.000000
vn -1.000000 0.000000 0.000000
vn -1.000000 0.000000 0.000000
vn -1.000000 0.000000 0.000000
vn 0.000001 0.874237 0.485499
vn 0.003833 0.972765 0.231761
vn 0.003822 0.972923 0.231096
vn -0.000005 0.874237 0.485499
vn 0.000003 0.485496 -0.874239
vn -0.000005 0.485496 -0.874239
vn 0.002135 0.232492 -0.972596
vn 0.002116 0.230361 -0.973103
vn -0.000008 -0.874237 -0.485499
vn 0.000012 -0.874237 -0.485499
vn -0.003833 -0.972766 -0.231760
vn -0.003822 -0.972924 -0.231095
vn 0.000001 -0.485497 0.874239
vn 0.000001 -0.485497 0.874238
vn -0.002122 -0.231029 0.972944
vn -0.002129 -0.231831 0.972754
vn 0.003833 0.972765 0.231761
vn 0.000000 1.000000 0.000000
vn 0.000000 1.000000 0.000000
vn 0.003822 0.972923 0.231096
vn 0.002116 0.230361 -0.973103
vn 0.002135 0.232492 -0.972596
vn 0.000000 0.000000 -1.000000
vn 0.000000 0.000000 -1.000000
vn -0.003822 -0.972924 -0.231095
vn -0.003833 -0.972766 -0.231760
vn 0.000000 -1.000000 0.000000
vn 0.000000 -1.000000 0.000000
vn -0.002129 -0.231831 0.972754
vn -0.002122 -0.231029 0.972944
vn 0.000000 0.000000 1.000000
vn 0.000000 0.000000 1.000000
vn 0.000000 0.000000 1.000000
vn -0.001019 0.093013 0.995664
vn -0.001053 0.096034 0.995378
vn 0.000000 0.000000 1.000000
vn -0.033961 0.999423 0.000000
vn -0.023170 0.995264 -0.094411
vn -0.023152 0.995249 -0.094566
vn -0.033961 0.999423 0.000000
vn 0.000000 0.000000 -1.000000
vn 0.001051 -0.095880 -0.995392
vn 0.001021 -0.093169 -0.995650
vn 0.000000 0.000000 -1.000000
vn 0.033961 -0.999423 0.000000
vn 0.023170 -0.995264 0.094410
vn 0.023152 -0.995250 0.094564
vn 0.033961 -0.999423 0.000000
vn 1.000000 0.000000 0.000000
vn 1.000000 0.000000 0.000000
vn 1.000000 0.000000 0.000000
vn 1.000000 0.000000 0.000000
vn -1.000000 0.000000 0.000000
vn -1.000000 0.000000 0.000000
vn -1.000000 0.000000 0.000000
vn -1.000000 0.000000 0.000000
vn -0.023170 0.995264 -0.094411
vn 0.000003 0.979808 -0.199943
vn -0.000002 0.979808 -0.199943
vn -0.023152 0.995249 -0.094566
vn 0.001021 -0.093169 -0.995650
vn 0.001051 -0.095880 -0.995392
vn -0.000002 -0.199935 -0.979809
vn 0.000002 -0.199935 -0.979809
vn 0.023152 -0.995250 0.094564
vn 0.023170 -0.995264 0.094410
vn 0.000007 -0.979809 0.199936
vn -0.000008 -0.979809 0.199936
vn -0.001053 0.096034 0.995378
vn -0.001019 0.093013 0.995664
vn -0.000003 0.199934 0.979809
vn 0.000003 0.199934 0.979810
vn 0.000003 0.979808 -0.199943
vn 0.003591 0.979801 -0.199942
vn 0.003591 0.979801 -0.199942
vn -0.000002 0.979808 -0.199943
vn 0.000002 -0.199935 -0.979809
vn -0.000002 -0.199935 -0.979809
vn -0.000733 -0.199935 -0.979809
vn -0.000733 -0.199935 -0.979809
vn -0.000008 -0.979809 0.199936
vn 0.000007 -0.979809 0.199936
vn -0.003591 -0.979803 0.199934
vn -0.003591 -0.979803 0.199934
vn 0.000003 0.199934 0.979810
vn -0.000003 0.199934 0.979809
vn 0.000733 0.199934 0.979809
vn 0.000733 0.199934 0.979809
vn 0.000000 0.000000 1.000000
vn -0.000977 -0.054692 0.998503
vn -0.000969 -0.054230 0.998528
vn 0.000000 0.000000 1.000000
vn -0.007697 0.999970 0.000000
vn 0.002707 0.998511 0.054477
vn 0.002698 0.998514 0.054432
vn -0.007697 0.999970 0.000000
vn 0.000000 0.000000 -1.000000
vn 0.000970 0.054275 -0.998526
vn 0.000976 0.054647 -0.998505
vn 0.000000 0.000000 -1.000000
vn 0.007697 -0.999970 0.000000
vn -0.002707 -0.998511 -0.054479
vn -0.002698 -0.998514 -0.054434
vn 0.007697 -0.999970 0.000000
vn 1.000000 0.000000 0.000000
vn 1.000000 0.000000 0.000000
vn 1.000000 0.000000 0.000000
vn 1.000000 0.000000 0.000000
vn -1.000000 0.000000 0.000000
vn -1.000000 0.000000 0.000000
vn -1.000000 0.000000 0.000000
vn -1.000000 0.000000 0.000000
vn -0.000000 0.991141 0.132812
vn -0.017550 0.990988 0.132793
vn -0.017550 0.990988 0.132793
vn 0.000000 0.991141 0.132812
vn -0.000000 0.132830 -0.991139
vn 0.000000 0.132830 -0.991139
vn -0.002352 0.132829 -0.991136
vn -0.002352 0.132829 -0.991136
vn 0.000000 -0.991141 -0.132817
vn -0.000000 -0.991141 -0.132817
vn 0.017550 -0.990988 -0.132798
vn 0.017550 -0.990988 -0.132798
vn -0.000000 -0.132829 0.991139
vn 0.000000 -0.132829 0.991139
vn 0.002352 -0.132829 0.991136
vn 0.002352 -0.132829 0.991136
vn -0.000977 -0.054692 0.998503
vn 0.000000 -0.132829 0.991139
vn -0.000000 -0.132829 0.991139
vn -0.000969 -0.054230 0.998528
vn 0.002698 0.998514 0.054432
vn 0.002707 0.998511 0.054477
vn -0.000000 0.991141 0.132812
vn 0.000000 0.991141 0.132812
vn 0.000976 0.054647 -0.998505
vn 0.000970 0.054275 -0.998526
vn 0.000000 0.132830 -0.991139
vn -0.000000 0.132830 -0.991139
vn -0.002698 -0.998514 -0.054434
vn -0.002707 -0.998511 -0.054479
vn -0.000000 -0.991141 -0.132817
vn 0.000000 -0.991141 -0.132817
vn 0.000000 0.000000 1.000000
vn -0.003487 -0.165420 0.986217
vn -0.003437 -0.163041 0.986613
vn 0.000000 0.000000 1.000000
vn 0.000000 1.000000 0.000000
vn 0.010625 0.986341 0.164373
vn 0.010606 0.986388 0.164094
vn 0.000000 1.000000 0.000000
vn 0.000000 0.000000 -1.000000
vn 0.003443 0.163323 -0.986567
vn 0.003482 0.165145 -0.986263
vn 0.000000 0.000000 -1.000000
vn 0.000000 -1.000000 0.000000
vn -0.010624 -0.986342 -0.164370
vn -0.010606 -0.986388 -0.164091
vn 0.000000 -1.000000 0.000000
vn 1.000000 0.000000 0.000000
vn 1.000000 0.000000 0.000000
vn 1.000000 0.000000 0.000000
vn 1.000000 0.000000 0.000000
vn -1.000000 0.000000 0.000000
vn -1.000000 0.000000 0.000000
vn -1.000000 0.000000 0.000000
vn -1.000000 0.000000 0.000000
vn 0.010625 0.986341 0.164373
vn -0.000016 0.950711 0.310078
vn 0.000014 0.950711 0.310078
vn 0.010606 0.986388 0.164094
vn 0.003482 0.165145 -0.986263
vn 0.003443 0.163323 -0.986567
vn 0.000004 0.310069 -0.950714
vn -0.000005 0.310069 -0.950714
vn -0.010606 -0.986388 -0.164091
vn -0.010624 -0.986342 -0.164370
vn -0.000008 -0.950712 -0.310076
vn 0.000010 -0.950712 -0.310076
vn -0.003437 -0.163041 0.986613
vn -0.003487 -0.165420 0.986217
vn 0.000007 -0.310070 0.950714
vn -0.000006 -0.310070 0.950714
vn -0.009755 0.983428 0.181036
vn 0.000000 1.000000 0.000000
vn 0.000000 1.000000 0.000000
vn -0.009742 0.983470 0.180809
vn -0.003193 0.181664 -0.983356
vn -0.003167 0.180183 -0.983628
vn 0.000000 0.000000 -1.000000
vn 0.000000 0.000000 -1.000000
vn 0.009742 -0.983470 -0.180809
vn 0.009755 -0.983428 -0.181036
vn 0.000000 -1.000000 0.000000
vn 0.000000 -1.000000 0.000000
vn 0.003162 -0.179953 0.983670
vn 0.003196 -0.181888 0.983314
vn 0.000000 0.000000 1.000000
vn 0.000000 0.000000 1.000000
vn -0.000016 0.950711 0.310078
vn -0.009755 0.983428 0.181036
vn -0.009742 0.983470 0.180809
vn 0.000014 0.950711 0.310078
vn -0.000005 0.310069 -0.950714
vn 0.000004 0.310069 -0.950714
vn -0.003167 0.180183 -0.983628
vn -0.003193 0.181664 -0.983356
vn 0.000010 -0.950712 -0.310076
vn -0.000008 -0.950712 -0.310076
vn 0.009755 -0.983428 -0.181036
vn 0.009742 -0.983470 -0.180809
vn -0.000006 -0.310070 0.950714
vn 0.000007 -0.310070 0.950714
vn 0.003196 -0.181888 0.983314
vn 0.003162 -0.179953 0.983670
s off
f 1/1/1 12/2/2 9/3/3 3/4/4
f 3/4/5 9/3/6 10/5/7 5/6/8
f 5/6/9 10/5/10 11/7/11 7/8/12
f 7/8/13 11/7/14 12/9/15 1/10/16
f 2/11/17 8/12/18 6/13/19 4/14/20
f 7/15/21 1/1/22 3/4/23 5/16/24
f 9/3/25 13/17/26 14/18/27 10/5/28
f 11/7/29 10/5/30 14/18/31 15/19/32
f 12/9/33 11/7/34 15/19/35 16/20/36
f 9/3/37 12/2/38 16/21/39 13/17/40
f 13/17/41 4/14/42 6/22/43 14/18/44
f 15/19/45 14/18/46 6/22/47 8/23/48
f 16/20/49 15/19/50 8/23/51 2/24/52
f 13/17/53 16/21/54 2/11/55 4/14/56
f 17/25/57 28/26/58 25/27/59 19/28/60
f 19/28/61 25/27/62 26/29/63 21/30/64
f 21/30/65 26/29/66 27/31/67 23/32/68
f 23/32/69 27/31/70 28/33/71 17/34/72
f 18/35/73 24/36/74 22/37/75 20/38/76
f 23/39/77 17/25/78 19/28/79 21/40/80
f 25/27/81 29/41/82 30/42/83 26/29/84
f 27/31/85 26/29/86 30/42/87 31/43/88
f 28/33/89 27/31/90 31/43/91 32/44/92
f 25/27/93 28/26/94 32/45/95 29/41/96
f 29/41/97 20/38/98 22/46/99 30/42/100
f 31/43/101 30/42/102 22/46/103 24/47/104
f 32/44/105 31/43/106 24/47/107 18/48/108
f 29/41/109 32/45/110 18/35/111 20/38/112
f 33/49/113 45/50/114 46/51/115 35/52/116
f 35/52/117 46/51/118 47/53/119 37/54/120
f 37/54/121 47/53/122 48/55/123 39/56/124
f 39/56/125 48/55/126 45/57/127 33/58/128
f 34/59/129 40/60/130 38/61/131 36/62/132
f 39/63/133 33/49/134 35/52/135 37/64/136
f 41/65/137 36/62/138 38/66/139 42/67/140
f 43/68/141 42/67/142 38/66/143 40/69/144
f 44/70/145 43/68/146 40/69/147 34/71/148
f 41/65/149 44/72/150 34/59/151 36/62/152
f 45/50/153 44/72/154 41/65/155 46/51/156
f 47/53/157 46/51/158 41/65/159 42/67/160
f 48/55/161 47/53/162 42/67/163 43/68/164
f 45/57/165 48/55/166 43/68/167 44/70/168
f 49/73/169 60/74/170 57/75/171 51/76/172
f 51/76/173 57/75/174 58/77/175 53/78/176
f 53/78/177 58/77/178 59/79/179 55/80/180
f 55/80/181 59/79/182 60/81/183 49/82/184
f 50/83/185 56/84/186 54/85/187 52/86/188
f 55/87/189 49/73/190 51/76/191 53/88/192
f 57/75/193 65/89/194 66/90/195 58/77/196
f 59/79/197 58/77/198 66/90/199 67/91/200
f 60/81/201 59/79/202 67/91/203 68/92/204
f 57/75/205 60/74/206 68/93/207 65/89/208
f 61/94/209 52/86/210 54/95/211 62/96/212
f 63/97/213 62/96/214 54/95/215 56/98/216
f 64/99/217 63/97/218 56/98/219 50/100/220
f 61/94/221 64/101/222 50/83/223 52/86/224
f 65/89/225 61/94/226 62/96/227 66/90/228
f 67/91/229 66/90/230 62/96/231 63/97/232
f 68/92/233 67/91/234 63/97/235 64/99/236
f 65/89/237 68/93/238 64/101/239 61/94/240
