# This file uses centimeters as units for non-parametric coordinates.

v 1.845734 1.029796 -3.196901
v -1.845734 1.132077 -3.196902
v -3.691467 1.158459 -0.000000
v -1.845734 1.010574 3.196902
v 1.845734 1.060894 3.196902
v 3.691467 0.924343 0.000000
v 3.196907 3.519529 -5.537196
v -3.196899 3.207274 -5.537197
v -6.393806 3.648192 -0.000001
v -3.196899 3.207274 5.537196
v 3.196899 3.550628 5.537197
v 6.393806 3.207274 0.000000
v 3.691467 7.588491 -6.393803
v -3.691460 7.588491 -6.393804
v -7.803307 7.588491 0.154059
v -4.111847 7.588491 6.840326
v 3.691467 7.588491 6.686267
v 7.382927 7.588491 0.000000
v 3.196907 10.907221 -5.537196
v -3.196899 11.680689 -5.537197
v -7.111145 11.250844 0.408052
v -3.914246 11.250844 5.945250
v 3.196899 11.155635 5.537197
v 6.393806 11.623399 0.000000
v 2.119987 12.269774 -3.650511
v -2.080666 13.000554 -3.650512
v -4.533073 13.016922 0.213469
v -2.432732 13.016922 3.851354
v 2.119987 12.504478 3.625257
v 4.220329 12.946425 -0.012627
v -0.015137 0.792694 -0.058216
v -0.051552 14.105720 -0.033452
v -0.900894 0.675256 0.238033
v 0.170990 0.614600 -1.012768
v 0.745438 0.657902 0.414997
v -1.759102 13.746717 0.554567
v 0.291275 13.508124 1.791492
v 1.848351 13.724160 0.244225
v 0.838135 13.431031 -1.574448
v -0.873100 13.732158 -1.456429
vt 0.115584 0.190223
vt 0.115584 0.190223
vt 0.115584 0.190223
vt 0.115584 0.190223
vt 0.115584 0.190223
vt 0.115584 0.190223
vt 0.115584 0.190223
vt 0.115584 0.190223
vt 0.115584 0.190223
vt 0.115584 0.190223
vt 0.115584 0.190223
vt 0.115584 0.190223
vt 0.115584 0.190223
vt 0.115584 0.190223
vt 0.115584 0.190223
vt 0.115584 0.190223
vt 0.115584 0.190223
vt 0.115584 0.190223
vt 0.115584 0.190223
vt 0.115584 0.190223
vt 0.115584 0.190223
vt 0.115584 0.190223
vt 0.115584 0.190223
vt 0.115584 0.190223
vt 0.115584 0.190223
vt 0.115584 0.190223
vt 0.115584 0.190223
vt 0.115584 0.190223
vt 0.115584 0.190223
vt 0.115584 0.190223
vt 0.115584 0.190223
vt 0.115584 0.190223
vt 0.115584 0.190223
vt 0.115584 0.190223
vt 0.115584 0.190223
vt 0.016557 0.252766
vt 0.016557 0.252766
vt 0.016557 0.252766
vt 0.115584 0.190223
vt 0.115584 0.190223
vt 0.115584 0.190223
vt 0.115584 0.190223
vt 0.155777 0.301744
vt 0.016557 0.252766
vt 0.115584 0.190223
vt 0.115584 0.190223
vt 0.115584 0.190223
vt 0.115584 0.190223
vt 0.115584 0.190223
vt 0.115584 0.190223
vt 0.115584 0.190223
vt 0.115584 0.190223
vt 0.115584 0.190223
vt 0.115584 0.190223
vt 0.115584 0.190223
vt 0.115584 0.190223
vt 0.115584 0.190223
vt 0.115584 0.190223
vt 0.155777 0.301744
vt 0.155777 0.301744
vt 0.155777 0.301744
vt 0.155777 0.301744
vt 0.155777 0.301744
vn 0.014903 -0.715817 -0.698129
vn 0.014903 -0.715817 -0.698129
vn 0.014903 -0.715817 -0.698129
vn 0.014903 -0.715817 -0.698129
vn -0.620909 -0.715503 -0.320201
vn -0.620909 -0.715503 -0.320201
vn -0.620909 -0.715503 -0.320201
vn -0.620909 -0.715503 -0.320201
vn -0.632845 -0.706065 0.317774
vn -0.632845 -0.706065 0.317774
vn -0.632845 -0.706065 0.317774
vn -0.632845 -0.706065 0.317774
vn 0.027574 -0.706397 0.707279
vn 0.027574 -0.706397 0.707279
vn 0.027574 -0.706397 0.707279
vn 0.027574 -0.706397 0.707279
vn 0.601315 -0.699798 0.385621
vn 0.601315 -0.699798 0.385621
vn 0.601315 -0.699798 0.385621
vn 0.601315 -0.699798 0.385621
vn 0.603554 -0.699892 -0.381934
vn 0.603554 -0.699892 -0.381934
vn 0.603554 -0.699892 -0.381934
vn 0.603554 -0.699892 -0.381934
vn 0.004504 -0.198698 -0.980050
vn 0.004504 -0.198698 -0.980050
vn 0.004504 -0.198698 -0.980050
vn 0.004504 -0.198698 -0.980050
vn -0.835835 -0.233207 -0.496985
vn -0.835835 -0.233207 -0.496985
vn -0.835835 -0.233207 -0.496985
vn -0.835835 -0.233207 -0.496985
vn -0.832297 -0.312643 0.457752
vn -0.832297 -0.312643 0.457752
vn -0.832297 -0.312643 0.457752
vn -0.832297 -0.312643 0.457752
vn 0.017163 -0.278815 0.960191
vn 0.017163 -0.278815 0.960191
vn 0.017163 -0.278815 0.960191
vn 0.017163 -0.278815 0.960191
vn 0.848114 -0.215520 0.483997
vn 0.848114 -0.215520 0.483997
vn 0.848114 -0.215520 0.483997
vn 0.848114 -0.215520 0.483997
vn 0.846497 -0.198698 -0.493925
vn 0.846497 -0.198698 -0.493925
vn 0.846497 -0.198698 -0.493925
vn 0.846497 -0.198698 -0.493925
vn 0.012644 0.225216 -0.974227
vn 0.012644 0.225216 -0.974227
vn 0.012644 0.225216 -0.974227
vn 0.012644 0.225216 -0.974227
vn -0.827186 0.201704 -0.524479
vn -0.827186 0.201704 -0.524479
vn -0.827186 0.201704 -0.524479
vn -0.827186 0.201704 -0.524479
vn -0.861703 0.147176 0.485600
vn -0.861703 0.147176 0.485600
vn -0.861703 0.147176 0.485600
vn -0.861703 0.147176 0.485600
vn 0.037971 0.273332 0.961170
vn 0.037971 0.273331 0.961170
vn 0.037971 0.273331 0.961170
vn 0.037971 0.273332 0.961170
vn 0.842342 0.237524 0.483780
vn 0.842342 0.237524 0.483780
vn 0.842342 0.237524 0.483780
vn 0.842342 0.237524 0.483780
vn 0.837483 0.226882 -0.497139
vn 0.837483 0.226882 -0.497139
vn 0.837483 0.226882 -0.497139
vn 0.837483 0.226882 -0.497139
vn 0.114877 0.809082 -0.576358
vn 0.114877 0.809082 -0.576358
vn 0.114877 0.809082 -0.576358
vn 0.114877 0.809082 -0.576358
vn -0.523678 0.794915 -0.306384
vn -0.523678 0.794915 -0.306384
vn -0.523678 0.794915 -0.306384
vn -0.523678 0.794915 -0.306384
vn -0.523134 0.796936 0.302032
vn -0.523134 0.796936 0.302032
vn -0.523134 0.796936 0.302032
vn -0.523134 0.796936 0.302032
vn 0.074358 0.783583 0.616821
vn 0.074358 0.783583 0.616821
vn 0.074358 0.783583 0.616821
vn 0.074358 0.783583 0.616821
vn 0.463473 0.814758 0.348370
vn 0.463473 0.814758 0.348370
vn 0.463473 0.814758 0.348370
vn 0.463473 0.814758 0.348370
vn 0.448097 0.808521 -0.381447
vn 0.448097 0.808521 -0.381447
vn 0.448097 0.808521 -0.381447
vn 0.448097 0.808521 -0.381447
vn -0.156136 -0.984311 -0.082180
vn -0.154986 -0.984575 -0.081193
vn 0.199321 -0.955572 0.217149
vn 0.002111 -0.992368 0.123291
vn 0.002134 -0.992424 0.122838
vn 0.023083 -0.951101 -0.308015
vn 0.101330 -0.992650 -0.066171
vn 0.099730 -0.992871 -0.065284
vn -0.250909 -0.959236 0.130043
vn 0.149380 0.907317 -0.393015
vn 0.149160 0.908213 -0.391026
vn 0.141840 0.934265 -0.327155
vn -0.254135 0.955882 -0.147327
vn -0.254092 0.955911 -0.147211
vn -0.241683 0.963700 -0.113457
vn 0.041356 0.949877 0.309877
vn 0.052387 0.949828 0.308356
vn -0.086236 0.941900 0.324635
vn 0.256387 0.917395 0.304388
vn 0.260841 0.915858 0.305233
vn 0.149059 0.947669 0.282322
vn 0.272137 0.909313 -0.314789
vn 0.272370 0.909175 -0.314986
vn 0.227954 0.933419 -0.277067
vn -0.161098 -0.983146 -0.086438
vn -0.161098 -0.983146 -0.086438
vn -0.154986 -0.984575 -0.081193
vn -0.156136 -0.984311 -0.082180
vn -0.027099 -0.978029 -0.206699
vn -0.027099 -0.978029 -0.206699
vn -0.027099 -0.978029 -0.206699
vn 0.107242 -0.991804 -0.069450
vn 0.107242 -0.991804 -0.069450
vn 0.099730 -0.992871 -0.065284
vn 0.101330 -0.992650 -0.066171
vn 0.103876 -0.989322 0.102230
vn 0.103876 -0.989322 0.102230
vn 0.103876 -0.989322 0.102230
vn 0.001898 -0.991836 0.127507
vn 0.001898 -0.991836 0.127507
vn 0.002134 -0.992424 0.122838
vn 0.002111 -0.992368 0.123291
vn -0.174951 -0.983010 0.055535
vn -0.174951 -0.983010 0.055535
vn -0.174951 -0.983010 0.055535
vn 0.061002 0.949707 0.307140
vn 0.061002 0.949707 0.307140
vn 0.052387 0.949828 0.308356
vn 0.041356 0.949877 0.309877
vn 0.271462 0.912098 0.307222
vn 0.271462 0.912098 0.307222
vn 0.260841 0.915858 0.305233
vn 0.256387 0.917395 0.304388
vn 0.277202 0.906278 -0.319092
vn 0.277202 0.906278 -0.319092
vn 0.272370 0.909175 -0.314986
vn 0.272137 0.909313 -0.314789
vn 0.149981 0.904830 -0.398482
vn 0.149981 0.904830 -0.398482
vn 0.149160 0.908213 -0.391026
vn 0.149380 0.907317 -0.393015
vn -0.255102 0.955210 -0.149989
vn -0.255102 0.955210 -0.149989
vn -0.254092 0.955911 -0.147211
vn -0.254135 0.955882 -0.147327
vn -0.269166 0.950473 0.155404
vn -0.269166 0.950473 0.155404
vn -0.269166 0.950473 0.155404
s off
f 1/1/1 2/2/2 8/3/3 7/4/4
f 2/2/5 3/5/6 9/6/7 8/3/8
f 3/5/9 4/7/10 10/8/11 9/6/12
f 4/7/13 5/9/14 11/10/15 10/8/16
f 5/9/17 6/11/18 12/12/19 11/10/20
f 6/11/21 1/13/22 7/14/23 12/12/24
f 7/4/25 8/3/26 14/15/27 13/16/28
f 8/3/29 9/6/30 15/17/31 14/15/32
f 9/6/33 10/8/34 16/18/35 15/17/36
f 10/8/37 11/10/38 17/19/39 16/18/40
f 11/10/41 12/12/42 18/20/43 17/19/44
f 12/12/45 7/14/46 13/21/47 18/20/48
f 13/22/49 14/23/50 20/24/51 19/25/52
f 14/23/53 15/26/54 21/27/55 20/24/56
f 15/26/57 16/28/58 22/29/59 21/27/60
f 16/28/61 17/30/62 23/31/63 22/29/64
f 17/30/65 18/32/66 24/33/67 23/31/68
f 18/32/69 13/22/70 19/25/71 24/33/72
f 19/25/73 20/24/74 26/34/75 25/35/76
f 20/24/77 21/27/78 27/39/79 26/34/80
f 21/27/81 22/29/82 28/40/83 27/39/84
f 22/29/85 23/31/86 29/41/87 28/40/88
f 23/31/89 24/33/90 30/42/91 29/41/92
f 24/33/93 19/25/94 25/35/95 30/42/96
f 33/36/97 34/37/98 31/38/99
f 35/44/100 33/36/101 31/38/102
f 34/37/103 35/44/104 31/38/105
f 39/43/106 40/59/107 32/60/108
f 40/59/109 36/61/110 32/60/111
f 36/61/112 37/62/113 32/60/114
f 37/62/115 38/63/116 32/60/117
f 38/63/118 39/43/119 32/60/120
f 3/5/121 2/2/122 34/48/123 33/45/124
f 2/2/125 1/1/126 34/47/127
f 1/13/128 6/11/129 35/51/130 34/49/131
f 6/11/132 5/9/133 35/50/134
f 5/9/135 4/7/136 33/53/137 35/52/138
f 4/7/139 3/5/140 33/46/141
f 28/40/142 29/41/143 37/55/144 36/54/145
f 29/41/146 30/42/147 38/56/148 37/55/149
f 30/42/150 25/35/151 39/57/152 38/56/153
f 25/35/154 26/34/155 40/58/156 39/57/157
f 26/34/158 27/39/159 36/54/160 40/58/161
f 27/39/162 28/40/163 36/54/164
