# This file uses centimeters as units for non-parametric coordinates.

v -0.760803 37.904285 6.108170
v 0.789185 45.695530 6.108170
v 1.564178 49.591148 12.987823
v 0.789185 45.695530 19.867477
v 4.167480 38.380291 19.867477
v -1.535797 34.008667 12.987823
v 253.258820 37.436966 6.108170
v 251.667938 45.219963 6.108170
v 250.872498 49.111473 12.987823
v 251.667938 45.219967 19.867477
v 249.650726 37.431568 19.867477
v 254.054260 33.545464 12.987823
v 0.014191 41.799911 12.987823
v 252.463379 41.328468 12.987823
v 162.670593 41.280598 18.623886
v 168.587799 45.668396 12.987823
v 165.678406 40.825497 7.351761
v 168.587799 35.906464 7.351761
v 168.587799 32.652496 12.987823
v 168.587799 35.906471 18.623886
v 197.095490 41.947178 19.867477
v 197.095490 45.919144 12.987823
v 197.095490 41.947178 6.108170
v 197.095490 34.003246 6.108170
v 197.095490 30.031282 12.987823
v 204.531403 33.939186 19.867477
v -3.129578 78.757500 6.108170
v -1.464996 86.525085 6.108170
v -0.632782 90.408867 12.987823
v 1.574707 85.467369 19.867477
v -3.129578 78.757500 19.867477
v -3.961945 74.873718 12.987823
v 248.832245 75.490204 6.108170
v 251.167755 83.083038 6.108170
v 252.335510 86.879448 12.987823
v 247.485046 84.086060 19.867477
v 248.832245 75.490204 19.867477
v 247.664490 71.693787 12.987823
v -2.297363 82.641296 12.987823
v 250.000000 79.286629 12.987823
v 45.439301 83.258591 19.867477
v 45.439301 87.230545 12.987823
v 45.439301 83.258591 6.108170
v 45.439301 75.314651 6.108170
v 45.439301 71.342690 12.987823
v 45.439301 75.314659 19.867477
v 80.385437 81.196922 15.948792
v 73.948364 83.893562 10.095673
v 79.621735 78.600800 4.242554
v 73.948364 73.755646 4.242554
v 73.948364 70.376343 10.095673
v 73.948364 73.755646 15.948792
v 3.256836 113.311295 6.108170
v 1.909790 121.140152 6.108170
v 1.236115 125.054596 12.987823
v 1.909790 121.140152 19.867477
v 7.037048 114.168945 19.867477
v 3.930511 109.396851 12.987823
v 255.457153 114.634377 6.108170
v 253.891449 122.422493 6.108170
v 253.108673 126.316551 12.987823
v 253.891449 122.422493 19.867477
v 250.543213 114.239342 19.867477
v 256.239929 110.740303 12.987823
v 2.583313 117.225723 12.987823
v 254.674225 118.528435 12.987823
v 67.718048 115.367661 19.867477
v 64.815216 121.564919 12.987823
v 67.262726 116.485664 6.108170
v 64.815216 109.649025 6.108170
v 64.815216 105.677048 12.987823
v 64.815216 109.649025 19.867477
v 173.598938 117.273132 19.050903
v 175.687103 122.154152 12.987823
v 175.687103 118.653618 6.924744
v 175.687103 111.652534 6.924744
v 175.687103 108.152000 12.987823
v 175.687103 111.652534 19.050903
v 160.481873 119.125046 19.867477
v 160.481873 123.097000 12.987823
v 160.481873 119.125046 6.108170
v 156.512604 112.821220 6.108170
v 160.481873 107.209152 12.987823
v 160.481873 111.181107 19.867477
vt 0.032678 0.255483
vt 0.032678 0.255483
vt 0.032678 0.255483
vt 0.032678 0.255483
vt 0.032677 0.255483
vt 0.032677 0.255483
vt 0.032678 0.255483
vt 0.032678 0.255483
vt 0.032677 0.255483
vt 0.032677 0.255483
vt 0.032677 0.255483
vt 0.032677 0.255483
vt 0.032677 0.255483
vt 0.032677 0.255483
vt 0.037170 0.278669
vt 0.037170 0.278669
vt 0.037170 0.278669
vt 0.037170 0.278669
vt 0.037170 0.278669
vt 0.037170 0.278669
vt 0.037170 0.278669
vt 0.037170 0.278669
vt 0.037170 0.278669
vt 0.037170 0.278669
vt 0.037170 0.278669
vt 0.037170 0.278669
vt 0.037170 0.278669
vt 0.037170 0.278669
vt 0.032678 0.255483
vt 0.032677 0.255483
vt 0.032678 0.255483
vt 0.032678 0.255483
vt 0.032677 0.255483
vt 0.032677 0.255483
vt 0.032677 0.255483
vt 0.032678 0.255483
vt 0.032677 0.255483
vt 0.032678 0.255483
vt 0.032678 0.255483
vt 0.032677 0.255483
vt 0.032677 0.255483
vt 0.032677 0.255483
vt 0.032678 0.255483
vt 0.032678 0.255483
vt 0.032678 0.255483
vt 0.032678 0.255483
vt 0.032677 0.255483
vt 0.032677 0.255483
vt 0.032678 0.255483
vt 0.032678 0.255483
vt 0.032677 0.255483
vt 0.032677 0.255483
vt 0.032677 0.255483
vt 0.032677 0.255483
vt 0.032677 0.255483
vt 0.032677 0.255483
vt 0.037170 0.278669
vt 0.037170 0.278669
vt 0.037170 0.278669
vt 0.037170 0.278669
vt 0.037170 0.278669
vt 0.037170 0.278669
vt 0.037170 0.278669
vt 0.037170 0.278669
vt 0.037170 0.278669
vt 0.037170 0.278669
vt 0.037170 0.278669
vt 0.037170 0.278669
vt 0.037170 0.278669
vt 0.037170 0.278669
vt 0.032678 0.255483
vt 0.032677 0.255483
vt 0.032678 0.255483
vt 0.032678 0.255483
vt 0.032677 0.255483
vt 0.032677 0.255483
vt 0.032677 0.255483
vt 0.032678 0.255483
vt 0.032677 0.255483
vt 0.032678 0.255483
vt 0.032678 0.255483
vt 0.032677 0.255483
vt 0.032677 0.255483
vt 0.032677 0.255483
vt 0.032678 0.255483
vt 0.032678 0.255483
vt 0.032678 0.255483
vt 0.032678 0.255483
vt 0.032677 0.255483
vt 0.032677 0.255483
vt 0.032678 0.255483
vt 0.032678 0.255483
vt 0.032677 0.255483
vt 0.032677 0.255483
vt 0.032677 0.255483
vt 0.032677 0.255483
vt 0.032677 0.255483
vt 0.032677 0.255483
vt 0.037170 0.278669
vt 0.037170 0.278669
vt 0.037170 0.278669
vt 0.037170 0.278669
vt 0.037170 0.278669
vt 0.037170 0.278669
vt 0.037170 0.278669
vt 0.037170 0.278669
vt 0.037170 0.278669
vt 0.037170 0.278669
vt 0.037170 0.278669
vt 0.037170 0.278669
vt 0.037170 0.278669
vt 0.037170 0.278669
vt 0.032678 0.255483
vt 0.032677 0.255483
vt 0.032678 0.255483
vt 0.032678 0.255483
vt 0.032677 0.255483
vt 0.032677 0.255483
vt 0.032677 0.255483
vt 0.032677 0.255483
vt 0.032678 0.255483
vt 0.032678 0.255483
vt 0.032677 0.255483
vt 0.032678 0.255483
vt 0.032678 0.255483
vt 0.032678 0.255483
vt 0.032678 0.255483
vt 0.032677 0.255483
vt 0.032677 0.255483
vt 0.032677 0.255483
vt 0.032677 0.255483
vt 0.032677 0.255483
vt 0.032677 0.255483
vn 0.007458 0.000798 -0.999972
vn 0.007458 0.000798 -0.999972
vn 0.007458 0.000798 -0.999972
vn 0.007458 0.000798 -0.999972
vn 0.023789 0.816391 -0.577010
vn 0.023789 0.816391 -0.577010
vn 0.023789 0.816391 -0.577010
vn 0.023789 0.816391 -0.577010
vn 0.023107 0.827950 0.560326
vn 0.023107 0.827950 0.560326
vn 0.023107 0.827950 0.560326
vn 0.023107 0.827950 0.560326
vn 0.007742 0.005671 0.999954
vn 0.007742 0.005671 0.999954
vn 0.007742 0.005671 0.999954
vn 0.007742 0.005671 0.999954
vn -0.007814 -0.852364 0.522891
vn -0.007814 -0.852364 0.522891
vn -0.007814 -0.852364 0.522891
vn -0.007814 -0.852364 0.522891
vn -0.006759 -0.868110 -0.496325
vn -0.006759 -0.868110 -0.496325
vn -0.006759 -0.868110 -0.496325
vn -0.006759 -0.868110 -0.496325
vn -0.980780 0.195116 -0.000000
vn -0.980780 0.195116 -0.000000
vn -0.980780 0.195116 -0.000000
vn -0.980780 0.195116 0.000000
vn -0.980780 0.195116 0.000000
vn -0.980780 0.195116 0.000000
vn -0.980780 0.195116 0.000000
vn -0.980780 0.195116 0.000000
vn -0.980780 0.195116 0.000000
vn -0.859624 -0.396988 0.321632
vn -0.859624 -0.396988 0.321632
vn -0.859624 -0.396988 0.321632
vn -0.807605 0.160665 0.567416
vn -0.807605 0.160665 0.567416
vn -0.807605 0.160665 0.567416
vn -0.980780 0.195116 -0.000000
vn -0.980780 0.195116 -0.000000
vn -0.980780 0.195116 -0.000000
vn 0.979743 0.200262 -0.000000
vn 0.979742 0.200262 -0.000000
vn 0.979742 0.200262 -0.000000
vn 0.979742 0.200266 -0.000000
vn 0.979742 0.200266 -0.000000
vn 0.979742 0.200266 -0.000000
vn 0.979742 0.200266 0.000000
vn 0.979742 0.200266 0.000000
vn 0.979742 0.200266 0.000000
vn 0.938319 -0.243026 0.245959
vn 0.938319 -0.243026 0.245959
vn 0.938319 -0.243026 0.245959
vn 0.871377 0.178111 0.457141
vn 0.871377 0.178111 0.457141
vn 0.871377 0.178111 0.457141
vn 0.979742 0.200266 0.000000
vn 0.979742 0.200266 0.000000
vn 0.979742 0.200266 0.000000
vn -0.023014 0.836332 0.547740
vn -0.023014 0.836332 0.547740
vn -0.023014 0.836332 0.547740
vn -0.023014 0.836332 0.547740
vn -0.030637 0.820531 -0.570781
vn -0.030637 0.820531 -0.570781
vn -0.030637 0.820531 -0.570781
vn -0.030637 0.820531 -0.570781
vn -0.041590 -0.009407 -0.999091
vn -0.041590 -0.009407 -0.999090
vn -0.041590 -0.009407 -0.999090
vn -0.041590 -0.009407 -0.999090
vn -0.079378 -0.863293 -0.498422
vn -0.079378 -0.863293 -0.498422
vn -0.079378 -0.863293 -0.498421
vn -0.079378 -0.863293 -0.498421
vn -0.070474 -0.847161 0.526642
vn -0.070474 -0.847161 0.526642
vn -0.070474 -0.847161 0.526642
vn -0.070474 -0.847161 0.526642
vn -0.035963 -0.035885 0.998709
vn -0.035963 -0.035885 0.998709
vn -0.035963 -0.035885 0.998709
vn -0.035963 -0.035885 0.998709
vn -0.051660 0.865767 0.497774
vn -0.051660 0.865767 0.497774
vn -0.051660 0.865767 0.497774
vn -0.051660 0.865767 0.497774
vn -0.051660 0.865767 -0.497775
vn -0.051660 0.865767 -0.497774
vn -0.051660 0.865767 -0.497774
vn -0.051660 0.865767 -0.497774
vn -0.000000 0.000000 -1.000000
vn -0.000000 0.000000 -1.000000
vn -0.000000 0.000000 -1.000000
vn -0.000000 0.000000 -1.000000
vn 0.053168 -0.865660 -0.497801
vn 0.053168 -0.865660 -0.497801
vn 0.053168 -0.865660 -0.497801
vn 0.053168 -0.865660 -0.497801
vn 0.060001 -0.874147 0.481941
vn 0.060001 -0.874147 0.481941
vn 0.060001 -0.874147 0.481941
vn 0.060001 -0.874147 0.481941
vn 0.000000 0.000000 1.000000
vn 0.000000 0.000000 1.000000
vn 0.000000 0.000000 1.000000
vn 0.000000 0.000000 1.000000
vn -0.000000 0.000000 -1.000000
vn -0.000000 0.000000 -1.000000
vn -0.000000 0.000000 -1.000000
vn -0.000000 0.000000 -1.000000
vn 0.059979 0.865297 -0.497659
vn 0.059980 0.865297 -0.497659
vn 0.059980 0.865297 -0.497659
vn 0.059980 0.865297 -0.497659
vn 0.050428 0.841886 0.537294
vn 0.050428 0.841886 0.537294
vn 0.050428 0.841886 0.537294
vn 0.050428 0.841886 0.537294
vn 0.000000 0.000000 1.000000
vn 0.000000 0.000000 1.000000
vn 0.000000 0.000000 1.000000
vn 0.000000 0.000000 1.000000
vn -0.061586 -0.865168 0.497686
vn -0.061586 -0.865168 0.497686
vn -0.061586 -0.865168 0.497686
vn -0.061586 -0.865168 0.497686
vn -0.061586 -0.865169 -0.497685
vn -0.061586 -0.865169 -0.497685
vn -0.061586 -0.865169 -0.497685
vn -0.061586 -0.865169 -0.497685
vn -0.977800 0.209541 -0.000011
vn -0.977800 0.209541 -0.000011
vn -0.977800 0.209541 -0.000011
vn -0.977800 0.209541 -0.000011
vn -0.977800 0.209541 -0.000011
vn -0.977800 0.209541 -0.000011
vn -0.886883 0.190058 0.421091
vn -0.886883 0.190058 0.421091
vn -0.886883 0.190058 0.421091
vn -0.798833 0.560061 0.219541
vn -0.798833 0.560061 0.219541
vn -0.798833 0.560061 0.219541
vn -0.977800 0.209541 0.000011
vn -0.977800 0.209541 0.000011
vn -0.977800 0.209541 0.000011
vn -0.977800 0.209541 -0.000010
vn -0.977800 0.209541 -0.000010
vn -0.977800 0.209541 -0.000010
vn 0.955806 -0.293998 0.000000
vn 0.955806 -0.293998 0.000000
vn 0.955806 -0.293998 0.000000
vn 0.955805 -0.294003 0.000000
vn 0.955805 -0.294003 0.000000
vn 0.955805 -0.294003 0.000000
vn 0.835894 -0.257119 0.484944
vn 0.835894 -0.257119 0.484944
vn 0.835894 -0.257119 0.484944
vn 0.957731 0.150103 0.245397
vn 0.957731 0.150103 0.245397
vn 0.957731 0.150103 0.245397
vn 0.955806 -0.293998 -0.000000
vn 0.955806 -0.293998 -0.000000
vn 0.955806 -0.293998 -0.000000
vn 0.955806 -0.293998 0.000001
vn 0.955806 -0.293998 0.000001
vn 0.955806 -0.293998 0.000001
vn 0.121045 0.903183 0.411836
vn 0.121045 0.903183 0.411836
vn 0.121045 0.903183 0.411836
vn 0.121045 0.903183 0.411836
vn 0.061356 0.819884 -0.569232
vn 0.061356 0.819884 -0.569232
vn 0.061356 0.819884 -0.569232
vn 0.061356 0.819884 -0.569232
vn -0.056899 0.025241 -0.998061
vn -0.056899 0.025241 -0.998061
vn -0.056899 0.025241 -0.998061
vn -0.056899 0.025241 -0.998061
vn -0.079823 -0.863262 -0.498405
vn -0.079823 -0.863262 -0.498405
vn -0.079823 -0.863262 -0.498405
vn -0.079823 -0.863262 -0.498405
vn 0.021364 -0.865827 0.499887
vn 0.021364 -0.865827 0.499887
vn 0.021364 -0.865827 0.499887
vn 0.021364 -0.865827 0.499887
vn 0.119612 -0.050045 0.991559
vn 0.119612 -0.050045 0.991559
vn 0.119612 -0.050045 0.991559
vn 0.119612 -0.050045 0.991559
vn -0.023445 0.916960 0.398289
vn -0.023445 0.916960 0.398289
vn -0.023445 0.916960 0.398289
vn -0.023445 0.916960 0.398289
vn -0.009407 0.812292 -0.583175
vn -0.009407 0.812292 -0.583175
vn -0.009407 0.812292 -0.583175
vn -0.009407 0.812292 -0.583175
vn 0.010896 -0.007016 -0.999916
vn 0.010896 -0.007016 -0.999916
vn 0.010896 -0.007016 -0.999916
vn 0.010896 -0.007016 -0.999916
vn 0.014318 -0.871651 -0.489917
vn 0.014318 -0.871651 -0.489917
vn 0.014318 -0.871651 -0.489917
vn 0.014318 -0.871651 -0.489917
vn -0.001968 -0.871101 0.491100
vn -0.001968 -0.871101 0.491100
vn -0.001968 -0.871101 0.491100
vn -0.001968 -0.871101 0.491100
vn -0.023009 0.007303 0.999709
vn -0.023009 0.007303 0.999709
vn -0.023009 0.007303 0.999709
vn -0.023009 0.007303 0.999709
vn 0.000000 0.000000 -1.000000
vn 0.000000 0.000000 -1.000000
vn 0.000000 0.000000 -1.000000
vn 0.000000 0.000000 -1.000000
vn 0.053145 0.841343 -0.537883
vn 0.053145 0.841343 -0.537883
vn 0.053145 0.841343 -0.537883
vn 0.053145 0.841343 -0.537883
vn 0.058097 0.811589 0.581334
vn 0.058097 0.811589 0.581334
vn 0.058097 0.811589 0.581334
vn 0.058097 0.811588 0.581334
vn 0.000000 0.000000 1.000000
vn 0.000000 0.000000 1.000000
vn 0.000000 0.000000 1.000000
vn 0.000000 0.000000 1.000000
vn -0.058090 -0.836577 0.544762
vn -0.058090 -0.836577 0.544762
vn -0.058090 -0.836577 0.544762
vn -0.058090 -0.836577 0.544762
vn -0.052302 -0.867507 -0.494668
vn -0.052302 -0.867507 -0.494668
vn -0.052302 -0.867507 -0.494668
vn -0.052302 -0.867507 -0.494668
vn -0.985518 -0.169570 0.000000
vn -0.985518 -0.169570 0.000000
vn -0.985518 -0.169570 0.000000
vn -0.985515 -0.169588 -0.000011
vn -0.985515 -0.169588 -0.000011
vn -0.985515 -0.169588 -0.000011
vn -0.985515 -0.169588 0.000011
vn -0.985515 -0.169588 0.000011
vn -0.985515 -0.169588 0.000011
vn -0.779985 -0.573671 0.250050
vn -0.779985 -0.573671 0.250050
vn -0.779985 -0.573671 0.250050
vn -0.858897 -0.147800 0.490359
vn -0.858897 -0.147800 0.490359
vn -0.858897 -0.147800 0.490359
vn -0.985515 -0.169588 0.000011
vn -0.985515 -0.169588 0.000011
vn -0.985515 -0.169588 0.000011
vn 0.980385 0.197094 0.000011
vn 0.980385 0.197094 0.000011
vn 0.980385 0.197094 0.000011
vn 0.980388 0.197077 0.000000
vn 0.980388 0.197077 0.000000
vn 0.980388 0.197077 0.000000
vn 0.980388 0.197077 0.000000
vn 0.980388 0.197077 0.000000
vn 0.980388 0.197077 0.000000
vn 0.881579 -0.360708 0.304478
vn 0.881580 -0.360709 0.304478
vn 0.881580 -0.360708 0.304478
vn 0.798798 0.160588 0.579770
vn 0.798798 0.160588 0.579770
vn 0.798798 0.160588 0.579770
vn 0.980385 0.197093 0.000011
vn 0.980385 0.197093 0.000011
vn 0.980385 0.197093 0.000011
vn -0.022505 0.801717 0.597281
vn -0.022505 0.801717 0.597281
vn -0.022505 0.801717 0.597281
vn -0.022505 0.801717 0.597281
vn -0.018414 0.833795 -0.551767
vn -0.018414 0.833795 -0.551767
vn -0.018414 0.833795 -0.551767
vn -0.018414 0.833795 -0.551767
vn 0.000000 0.000000 -1.000000
vn 0.000000 0.000000 -1.000000
vn 0.000000 0.000000 -1.000000
vn 0.000000 0.000000 -1.000000
vn 0.020528 -0.817600 -0.575420
vn 0.020528 -0.817600 -0.575420
vn 0.020528 -0.817600 -0.575420
vn 0.020528 -0.817600 -0.575420
vn 0.013868 -0.865942 0.499952
vn 0.013868 -0.865942 0.499952
vn 0.013868 -0.865942 0.499952
vn 0.013868 -0.865942 0.499952
vn -0.000000 0.000000 1.000000
vn -0.000000 0.000000 1.000000
vn -0.000000 0.000000 1.000000
vn -0.000000 0.000000 1.000000
vn -0.051829 0.829006 0.556832
vn -0.051829 0.829006 0.556832
vn -0.051829 0.829006 0.556832
vn -0.051829 0.829006 0.556832
vn -0.046751 0.866109 -0.497664
vn -0.046751 0.866109 -0.497664
vn -0.046751 0.866109 -0.497664
vn -0.046751 0.866109 -0.497664
vn -0.010291 -0.001089 -0.999947
vn -0.010291 -0.001089 -0.999946
vn -0.010291 -0.001089 -0.999947
vn -0.010291 -0.001089 -0.999946
vn 0.027598 -0.867229 -0.497144
vn 0.027598 -0.867229 -0.497145
vn 0.027598 -0.867229 -0.497145
vn 0.027598 -0.867229 -0.497145
vn 0.026570 -0.874357 0.484556
vn 0.026570 -0.874357 0.484556
vn 0.026570 -0.874357 0.484556
vn 0.026570 -0.874357 0.484556
vn -0.010574 0.000965 0.999944
vn -0.010574 0.000965 0.999944
vn -0.010574 0.000965 0.999944
vn -0.010574 0.000965 0.999944
vn 0.096845 0.814154 0.572516
vn 0.096845 0.814154 0.572516
vn 0.096845 0.814154 0.572516
vn 0.096845 0.814154 0.572516
vn 0.053624 0.864779 -0.499282
vn 0.053624 0.864779 -0.499282
vn 0.053624 0.864779 -0.499282
vn 0.053624 0.864779 -0.499282
vn 0.046781 -0.013956 -0.998808
vn 0.046781 -0.013956 -0.998808
vn 0.046781 -0.013956 -0.998808
vn 0.046781 -0.013956 -0.998808
vn 0.008351 -0.816429 -0.577385
vn 0.008351 -0.816429 -0.577385
vn 0.008351 -0.816429 -0.577385
vn 0.008351 -0.816429 -0.577385
vn 0.053624 -0.864779 0.499281
vn 0.053624 -0.864779 0.499281
vn 0.053624 -0.864779 0.499281
vn 0.053624 -0.864779 0.499281
vn 0.057999 0.008929 0.998277
vn 0.057999 0.008929 0.998277
vn 0.057999 0.008929 0.998277
vn 0.057999 0.008929 0.998277
s off
f 1/1/1 2/2/2 17/3/3 18/4/4
f 2/2/5 3/5/6 16/6/7 17/3/8
f 3/5/9 4/7/10 15/8/11 16/6/12
f 4/7/13 5/9/14 20/10/15 15/8/16
f 5/9/17 6/11/18 19/12/19 20/10/20
f 6/11/21 1/13/22 18/14/23 19/12/24
f 2/15/25 1/16/26 13/17/27
f 3/18/28 2/15/29 13/17/30
f 4/19/31 3/18/32 13/17/33
f 5/20/34 4/19/35 13/17/36
f 6/21/37 5/20/38 13/17/39
f 1/16/40 6/21/41 13/17/42
f 7/22/43 8/23/44 14/24/45
f 8/23/46 9/25/47 14/24/48
f 9/25/49 10/26/50 14/24/51
f 10/26/52 11/27/53 14/24/54
f 11/27/55 12/28/56 14/24/57
f 12/28/58 7/22/59 14/24/60
f 16/6/61 15/8/62 21/29/63 22/30/64
f 17/3/65 16/6/66 22/30/67 23/31/68
f 18/4/69 17/3/70 23/31/71 24/32/72
f 19/12/73 18/14/74 24/33/75 25/34/76
f 20/10/77 19/12/78 25/34/79 26/35/80
f 15/8/81 20/10/82 26/35/83 21/29/84
f 22/30/85 21/29/86 10/36/87 9/37/88
f 23/31/89 22/30/90 9/37/91 8/38/92
f 24/32/93 23/31/94 8/38/95 7/39/96
f 25/34/97 24/33/98 7/40/99 12/41/100
f 26/35/101 25/34/102 12/41/103 11/42/104
f 21/29/105 26/35/106 11/42/107 10/36/108
f 27/43/109 28/44/110 43/45/111 44/46/112
f 28/44/113 29/47/114 42/48/115 43/45/116
f 29/47/117 30/49/118 41/50/119 42/48/120
f 30/49/121 31/51/122 46/52/123 41/50/124
f 31/51/125 32/53/126 45/54/127 46/52/128
f 32/53/129 27/55/130 44/56/131 45/54/132
f 28/57/133 27/58/134 39/59/135
f 29/60/136 28/57/137 39/59/138
f 30/61/139 29/60/140 39/59/141
f 31/62/142 30/61/143 39/59/144
f 32/63/145 31/62/146 39/59/147
f 27/58/148 32/63/149 39/59/150
f 33/64/151 34/65/152 40/66/153
f 34/65/154 35/67/155 40/66/156
f 35/67/157 36/68/158 40/66/159
f 36/68/160 37/69/161 40/66/162
f 37/69/163 38/70/164 40/66/165
f 38/70/166 33/64/167 40/66/168
f 42/48/169 41/50/170 47/71/171 48/72/172
f 43/45/173 42/48/174 48/72/175 49/73/176
f 44/46/177 43/45/178 49/73/179 50/74/180
f 45/54/181 44/56/182 50/75/183 51/76/184
f 46/52/185 45/54/186 51/76/187 52/77/188
f 41/50/189 46/52/190 52/77/191 47/71/192
f 48/72/193 47/71/194 36/78/195 35/79/196
f 49/73/197 48/72/198 35/79/199 34/80/200
f 50/74/201 49/73/202 34/80/203 33/81/204
f 51/76/205 50/75/206 33/82/207 38/83/208
f 52/77/209 51/76/210 38/83/211 37/84/212
f 47/71/213 52/77/214 37/84/215 36/78/216
f 53/85/217 54/86/218 69/87/219 70/88/220
f 54/86/221 55/89/222 68/90/223 69/87/224
f 55/89/225 56/91/226 67/92/227 68/90/228
f 56/91/229 57/93/230 72/94/231 67/92/232
f 57/93/233 58/95/234 71/96/235 72/94/236
f 58/95/237 53/97/238 70/98/239 71/96/240
f 54/99/241 53/100/242 65/101/243
f 55/102/244 54/99/245 65/101/246
f 56/103/247 55/102/248 65/101/249
f 57/104/250 56/103/251 65/101/252
f 58/105/253 57/104/254 65/101/255
f 53/100/256 58/105/257 65/101/258
f 59/106/259 60/107/260 66/108/261
f 60/107/262 61/109/263 66/108/264
f 61/109/265 62/110/266 66/108/267
f 62/110/268 63/111/269 66/108/270
f 63/111/271 64/112/272 66/108/273
f 64/112/274 59/106/275 66/108/276
f 68/90/277 67/92/278 79/113/279 80/114/280
f 69/87/281 68/90/282 80/114/283 81/115/284
f 70/88/285 69/87/286 81/115/287 82/116/288
f 71/96/289 70/98/290 82/117/291 83/118/292
f 72/94/293 71/96/294 83/118/295 84/119/296
f 67/92/297 72/94/298 84/119/299 79/113/300
f 74/120/301 73/121/302 62/122/303 61/123/304
f 75/124/305 74/120/306 61/123/307 60/125/308
f 76/126/309 75/124/310 60/125/311 59/127/312
f 77/128/313 76/129/314 59/130/315 64/131/316
f 78/132/317 77/128/318 64/131/319 63/133/320
f 73/121/321 78/132/322 63/133/323 62/122/324
f 80/114/325 79/113/326 73/121/327 74/120/328
f 81/115/329 80/114/330 74/120/331 75/124/332
f 82/116/333 81/115/334 75/124/335 76/126/336
f 83/118/337 82/117/338 76/129/339 77/128/340
f 84/119/341 83/118/342 77/128/343 78/132/344
f 79/113/345 84/119/346 78/132/347 73/121/348
