# This file uses centimeters as units for non-parametric coordinates.

v 6.011648 10.000000 7.196978
v 6.011648 129.567719 7.196978
v 9.616245 10.000000 0.536853
v 9.616245 129.567719 0.536853
v 13.567479 10.000000 3.591608
v 13.567479 129.567719 3.591608
v 10.835336 10.000000 8.158978
v 10.835336 129.567719 8.158978
v 5.917165 10.000000 3.541269
v 5.917165 129.567719 3.541269
v -8.618147 10.000000 6.070583
v -8.618147 129.567719 6.070583
v -16.113939 10.000000 7.149235
v -16.113939 129.567719 7.149235
v -16.018387 10.000000 2.155775
v -16.018387 129.567719 2.155775
v -10.722761 10.000000 1.624910
v -10.722761 129.567719 1.624910
v -11.496213 10.000000 8.326656
v -11.496213 129.567719 8.326656
v -27.322468 10.000000 6.009681
v -27.322468 129.567719 6.009681
v -35.869122 10.000000 4.025675
v -35.869122 129.567719 4.025675
v -34.998146 10.000000 0.273708
v -34.998146 129.567719 0.273708
v -26.451492 10.000000 2.257714
v -26.451492 129.567719 2.257714
v 34.487190 10.000000 4.290838
v 34.487190 129.567719 4.290838
v 25.823151 10.000000 5.675016
v 25.823151 129.567719 5.675016
v 25.215498 10.000000 1.871516
v 25.215498 129.567719 1.871516
v 33.879539 10.000000 0.487337
v 33.879539 129.567719 0.487337
v -38.718979 0.000000 6.162351
v 38.719009 0.000000 6.162351
v -38.718979 10.000000 6.162351
v 38.719009 10.000000 6.162351
v -38.718979 10.000000 0.000002
v 38.719009 10.000000 0.000002
v -38.718979 0.000000 0.000002
v 38.719009 0.000000 0.000002
v 16.819313 10.000000 0.000002
v 16.819313 10.000000 10.295525
v 16.819313 0.000000 10.295525
v 16.819313 0.000000 0.000002
v -16.910440 10.000000 0.000002
v -16.910440 10.000000 10.295525
v -16.910440 0.000000 10.295525
v -16.910440 0.000000 0.000002
v -38.718979 129.567719 6.162351
v 38.719009 129.567719 6.162351
v -38.718979 139.567719 6.162351
v 38.719009 139.567719 6.162351
v -38.718979 139.567719 0.000002
v 38.719009 139.567719 0.000002
v -38.718979 129.567719 0.000002
v 38.719009 129.567719 0.000002
v 16.819313 139.567719 0.000002
v 16.819313 139.567719 10.295525
v 16.819313 129.567719 10.295525
v 16.819313 129.567719 0.000002
v -16.910440 139.567719 0.000002
v -16.910440 139.567719 10.295525
v -16.910440 129.567719 10.295525
v -16.910440 129.567719 0.000002
v -33.990734 101.162827 2.402048
v -26.579426 94.218460 4.386054
v -25.824173 93.510773 0.634087
v -33.235451 100.455139 -1.349919
vt 0.049194 0.347970
vt 0.049194 0.347970
vt 0.049194 0.347970
vt 0.049194 0.347970
vt 0.049194 0.347970
vt 0.049194 0.347970
vt 0.049194 0.347970
vt 0.049194 0.347970
vt 0.049194 0.347970
vt 0.049194 0.347970
vt 0.049194 0.347970
vt 0.049194 0.347970
vt 0.049194 0.347970
vt 0.049194 0.347970
vt 0.049194 0.347970
vt 0.049194 0.347970
vt 0.049194 0.347970
vt 0.049194 0.347970
vt 0.049194 0.347970
vt 0.049194 0.347970
vt 0.049194 0.347970
vt 0.049194 0.347970
vt 0.049194 0.347970
vt 0.049194 0.347970
vt 0.049194 0.347970
vt 0.049194 0.347970
vt 0.049194 0.347970
vt 0.049194 0.347970
vt 0.049194 0.347970
vt 0.049194 0.347970
vt 0.049194 0.347970
vt 0.049194 0.347970
vt 0.049194 0.347970
vt 0.049194 0.347970
vt 0.049194 0.347970
vt 0.049194 0.347970
vt 0.049194 0.347970
vt 0.049194 0.347970
vt 0.049194 0.347970
vt 0.049194 0.347970
vt 0.049194 0.347970
vt 0.049194 0.347970
vt 0.049194 0.347970
vt 0.049194 0.347970
vt 0.049194 0.347970
vt 0.049194 0.347970
vt 0.049194 0.347970
vt 0.049194 0.347970
vt 0.049194 0.347970
vt 0.049194 0.347970
vt 0.049194 0.347970
vt 0.049194 0.347970
vt 0.049194 0.347970
vt 0.049194 0.347970
vt 0.049194 0.347970
vt 0.049194 0.347970
vt 0.049194 0.347970
vt 0.049194 0.347970
vt 0.049194 0.347970
vt 0.049194 0.347970
vt 0.049194 0.347970
vt 0.049194 0.347970
vt 0.049194 0.347970
vt 0.049194 0.347970
vt 0.049194 0.347970
vt 0.049194 0.347970
vt 0.049194 0.347970
vt 0.049194 0.347970
vt 0.049194 0.347970
vt 0.049194 0.347970
vt 0.049194 0.347970
vt 0.049194 0.347970
vt 0.049194 0.347970
vt 0.049194 0.347970
vt 0.049194 0.347970
vt 0.049194 0.347970
vt 0.049194 0.347970
vt 0.049194 0.347970
vt 0.049194 0.347970
vt 0.049194 0.347970
vt 0.049194 0.347970
vt 0.049194 0.347970
vt 0.049194 0.347970
vt 0.049194 0.347970
vt 0.049194 0.347970
vt 0.049194 0.347970
vt 0.049194 0.347970
vt 0.049194 0.347970
vt 0.049194 0.347970
vt 0.049194 0.347970
vt 0.049194 0.347970
vt 0.049194 0.347970
vt 0.049194 0.347970
vt 0.049194 0.347970
vt 0.049194 0.347970
vt 0.049194 0.347970
vt 0.049194 0.347970
vn -0.630455 0.000000 -0.776226
vn -0.630455 0.000000 -0.776226
vn -0.630455 0.000000 -0.776226
vn -0.630455 0.000000 -0.776226
vn 0.611639 0.000000 -0.791137
vn 0.611639 0.000000 -0.791137
vn 0.611639 0.000000 -0.791137
vn 0.611639 0.000000 -0.791137
vn 0.858178 0.000000 0.513352
vn 0.858178 0.000000 0.513352
vn 0.858178 0.000000 0.513352
vn 0.858178 0.000000 0.513352
vn -0.195581 0.000000 0.980688
vn -0.195581 0.000000 0.980688
vn -0.195581 0.000000 0.980688
vn -0.195581 0.000000 0.980688
vn -0.999666 0.000000 0.025837
vn -0.999666 0.000000 0.025837
vn -0.999666 0.000000 0.025837
vn -0.999666 0.000000 0.025837
vn -0.247073 0.000000 0.968997
vn -0.247073 0.000000 0.968997
vn -0.247073 0.000000 0.968997
vn -0.247073 0.000000 0.968997
vn -0.999817 0.000000 -0.019132
vn -0.999817 0.000000 -0.019132
vn -0.999817 0.000000 -0.019132
vn -0.999817 0.000000 -0.019132
vn -0.099746 0.000000 -0.995013
vn -0.099746 0.000000 -0.995013
vn -0.099746 0.000000 -0.995013
vn -0.099746 0.000000 -0.995013
vn 0.903835 0.000000 -0.427882
vn 0.903835 0.000000 -0.427882
vn 0.903835 0.000000 -0.427882
vn 0.903835 0.000000 -0.427882
vn 0.616931 0.000000 0.787017
vn 0.616931 0.000000 0.787017
vn 0.616931 0.000000 0.787017
vn 0.616931 0.000000 0.787017
vn -0.249068 -0.019065 0.968298
vn -0.236289 0.012191 0.971606
vn -0.265353 -0.059924 0.962287
vn -0.265353 -0.059924 0.962287
vn -0.977249 0.003015 -0.212075
vn -0.977371 -0.003285 -0.211507
vn -0.977051 -0.050164 -0.207016
vn -0.977051 -0.050164 -0.207016
vn 0.236350 -0.012043 -0.971593
vn 0.248891 0.018628 -0.968352
vn 0.264467 0.057667 -0.962669
vn 0.264467 0.057667 -0.962669
vn 0.977327 0.000704 0.211737
vn 0.977300 -0.000662 0.211860
vn 0.977451 0.009164 0.210966
vn 0.977450 0.009164 0.210966
vn 0.157761 0.000000 0.987477
vn 0.157761 0.000000 0.987477
vn 0.157761 0.000000 0.987477
vn 0.157761 0.000000 0.987477
vn -0.987477 0.000000 0.157761
vn -0.987477 0.000000 0.157761
vn -0.987477 0.000000 0.157761
vn -0.987477 0.000000 0.157761
vn -0.157761 0.000000 -0.987477
vn -0.157761 0.000000 -0.987477
vn -0.157761 0.000000 -0.987477
vn -0.157761 0.000000 -0.987477
vn 0.987477 0.000000 -0.157760
vn 0.987477 0.000000 -0.157760
vn 0.987477 0.000000 -0.157760
vn 0.987477 0.000000 -0.157760
vn 0.185458 0.000000 0.982652
vn 0.185458 0.000000 0.982652
vn 0.185458 0.000000 0.982652
vn 0.185458 0.000000 0.982652
vn 0.000000 1.000000 0.000000
vn 0.000000 1.000000 0.000000
vn 0.000000 1.000000 0.000000
vn 0.000000 1.000000 0.000000
vn 0.000000 0.000000 -1.000000
vn 0.000000 0.000000 -1.000000
vn 0.000000 0.000000 -1.000000
vn 0.000000 0.000000 -1.000000
vn 0.000000 -1.000000 0.000000
vn 0.000000 -1.000000 0.000000
vn 0.000000 -1.000000 0.000000
vn 0.000000 -1.000000 0.000000
vn 1.000000 0.000000 0.000000
vn 1.000000 0.000000 0.000000
vn 1.000000 0.000000 0.000000
vn 1.000000 0.000000 0.000000
vn -1.000000 0.000000 0.000000
vn -1.000000 0.000000 0.000000
vn -1.000000 0.000000 0.000000
vn -1.000000 0.000000 0.000000
vn 0.000000 1.000000 0.000000
vn 0.000000 1.000000 0.000000
vn 0.000000 1.000000 0.000000
vn 0.000000 1.000000 0.000000
vn 0.000000 0.000000 1.000000
vn 0.000000 0.000000 1.000000
vn 0.000000 0.000000 1.000000
vn 0.000000 0.000000 1.000000
vn 0.000000 -1.000000 0.000000
vn 0.000000 -1.000000 0.000000
vn 0.000000 -1.000000 0.000000
vn 0.000000 -1.000000 0.000000
vn 0.000000 0.000000 -1.000000
vn 0.000000 0.000000 -1.000000
vn 0.000000 0.000000 -1.000000
vn 0.000000 0.000000 -1.000000
vn 0.000000 1.000000 0.000000
vn 0.000000 1.000000 0.000000
vn 0.000000 1.000000 0.000000
vn 0.000000 1.000000 0.000000
vn -0.186206 0.000000 0.982511
vn -0.186206 0.000000 0.982511
vn -0.186206 0.000000 0.982511
vn -0.186206 0.000000 0.982511
vn 0.000000 -1.000000 0.000000
vn 0.000000 -1.000000 0.000000
vn 0.000000 -1.000000 0.000000
vn 0.000000 -1.000000 0.000000
vn 0.000000 0.000000 -1.000000
vn 0.000000 0.000000 -1.000000
vn 0.000000 0.000000 -1.000000
vn 0.000000 0.000000 -1.000000
vn 0.185458 0.000000 0.982652
vn 0.185458 0.000000 0.982652
vn 0.185458 0.000000 0.982652
vn 0.185458 0.000000 0.982652
vn 0.000000 1.000000 0.000000
vn 0.000000 1.000000 0.000000
vn 0.000000 1.000000 0.000000
vn 0.000000 1.000000 0.000000
vn 0.000000 0.000000 -1.000000
vn 0.000000 0.000000 -1.000000
vn 0.000000 0.000000 -1.000000
vn 0.000000 0.000000 -1.000000
vn 0.000000 -1.000000 0.000000
vn 0.000000 -1.000000 0.000000
vn 0.000000 -1.000000 0.000000
vn 0.000000 -1.000000 0.000000
vn 1.000000 0.000000 0.000000
vn 1.000000 0.000000 0.000000
vn 1.000000 0.000000 0.000000
vn 1.000000 0.000000 0.000000
vn -1.000000 0.000000 0.000000
vn -1.000000 0.000000 0.000000
vn -1.000000 0.000000 0.000000
vn -1.000000 0.000000 0.000000
vn 0.000000 1.000000 0.000000
vn 0.000000 1.000000 0.000000
vn 0.000000 1.000000 0.000000
vn 0.000000 1.000000 0.000000
vn 0.000000 0.000000 1.000000
vn 0.000000 0.000000 1.000000
vn 0.000000 0.000000 1.000000
vn 0.000000 0.000000 1.000000
vn 0.000000 -1.000000 0.000000
vn 0.000000 -1.000000 0.000000
vn 0.000000 -1.000000 0.000000
vn 0.000000 -1.000000 0.000000
vn 0.000000 0.000000 -1.000000
vn 0.000000 0.000000 -1.000000
vn 0.000000 0.000000 -1.000000
vn 0.000000 0.000000 -1.000000
vn 0.000000 1.000000 0.000000
vn 0.000000 1.000000 0.000000
vn 0.000000 1.000000 0.000000
vn 0.000000 1.000000 0.000000
vn -0.186206 0.000000 0.982511
vn -0.186206 0.000000 0.982511
vn -0.186206 0.000000 0.982511
vn -0.186206 0.000000 0.982511
vn 0.000000 -1.000000 0.000000
vn 0.000000 -1.000000 0.000000
vn 0.000000 -1.000000 0.000000
vn 0.000000 -1.000000 0.000000
vn 0.000000 0.000000 -1.000000
vn 0.000000 0.000000 -1.000000
vn 0.000000 0.000000 -1.000000
vn 0.000000 0.000000 -1.000000
vn -0.232438 0.021478 0.972374
vn -0.236289 0.012191 0.971606
vn -0.249068 -0.019065 0.968298
vn -0.232438 0.021478 0.972374
vn 0.977230 -0.003877 0.212148
vn 0.977300 -0.000662 0.211860
vn 0.977327 0.000704 0.211737
vn 0.977230 -0.003877 0.212148
vn 0.232494 -0.021344 -0.972364
vn 0.248891 0.018628 -0.968352
vn 0.236350 -0.012043 -0.971593
vn 0.232494 -0.021344 -0.972364
vn -0.976882 0.015773 -0.213198
vn -0.977371 -0.003285 -0.211507
vn -0.977249 0.003015 -0.212075
vn -0.976882 0.015773 -0.213198
s off
f 9/11/1 10/12/2 4/4/3 3/3/4
f 3/3/5 4/4/6 6/6/7 5/5/8
f 5/5/9 6/6/10 8/8/11 7/7/12
f 7/7/13 8/8/14 2/10/15 1/9/16
f 1/1/17 2/2/18 10/12/19 9/11/20
f 19/13/21 20/14/22 14/15/23 13/16/24
f 13/16/25 14/15/26 16/17/27 15/18/28
f 15/18/29 16/17/30 18/19/31 17/20/32
f 17/20/33 18/19/34 12/21/35 11/22/36
f 11/23/37 12/24/38 20/14/39 19/13/40
f 69/93/41 70/94/42 22/26/43 24/27/44
f 72/97/45 69/93/46 24/27/47 26/29/48
f 71/96/49 72/97/50 26/29/51 28/31/52
f 70/95/53 71/96/54 28/31/55 22/33/56
f 29/35/57 30/36/58 32/37/59 31/38/60
f 31/38/61 32/37/62 34/39/63 33/40/64
f 33/40/65 34/39/66 36/41/67 35/42/68
f 35/42/69 36/41/70 30/43/71 29/44/72
f 46/45/73 47/46/74 38/47/75 40/48/76
f 45/49/77 46/45/78 40/48/79 42/50/80
f 48/51/81 45/49/82 42/50/83 44/52/84
f 47/53/85 48/51/86 44/52/87 38/54/88
f 38/47/89 44/55/90 42/56/91 40/48/92
f 43/57/93 37/58/94 39/59/95 41/60/96
f 49/61/97 50/62/98 46/45/99 45/49/100
f 50/62/101 51/63/102 47/46/103 46/45/104
f 51/64/105 52/65/106 48/51/107 47/53/108
f 52/65/109 49/61/110 45/49/111 48/51/112
f 39/59/113 50/62/114 49/61/115 41/66/116
f 37/58/117 51/63/118 50/62/119 39/59/120
f 43/67/121 52/65/122 51/64/123 37/68/124
f 41/66/125 49/61/126 52/65/127 43/67/128
f 62/69/129 63/70/130 54/71/131 56/72/132
f 61/73/133 62/69/134 56/72/135 58/74/136
f 64/75/137 61/73/138 58/74/139 60/76/140
f 63/77/141 64/75/142 60/76/143 54/78/144
f 54/71/145 60/79/146 58/80/147 56/72/148
f 59/81/149 53/82/150 55/83/151 57/84/152
f 65/85/153 66/86/154 62/69/155 61/73/156
f 66/86/157 67/87/158 63/70/159 62/69/160
f 67/88/161 68/89/162 64/75/163 63/77/164
f 68/89/165 65/85/166 61/73/167 64/75/168
f 55/83/169 66/86/170 65/85/171 57/90/172
f 53/82/173 67/87/174 66/86/175 55/83/176
f 59/91/177 68/89/178 67/88/179 53/92/180
f 57/90/181 65/85/182 68/89/183 59/91/184
f 21/25/185 70/94/186 69/93/187 23/28/188
f 27/32/189 71/96/190 70/95/191 21/34/192
f 25/30/193 72/97/194 71/96/195 27/32/196
f 23/28/197 69/93/198 72/97/199 25/30/200
