# This file uses centimeters as units for non-parametric coordinates.

v -9.634995 -11.817022 1.970062
v -11.133194 62.103367 1.335083
v -11.656265 61.761711 -3.886597
v -7.500656 62.373821 -2.125305
v -10.204376 -11.817022 -3.271240
v -5.965759 -11.817022 -1.474792
v -13.963623 77.986298 -3.197876
v -10.204376 38.129654 -3.271240
v -9.634995 38.129650 1.970062
v -5.965759 38.129654 -1.474792
v 12.287552 -11.817022 -2.718750
v 12.535980 54.731461 -2.758942
v 15.518814 54.016121 1.421875
v 11.492157 55.297726 2.073364
v 15.559402 -11.817022 1.415314
v 11.014923 -11.817022 2.150635
v 18.882751 66.402512 0.850311
v 12.141495 30.476854 1.968323
v 8.882660 30.628363 -2.167847
v 7.620346 30.748297 2.699860
v 1.786880 -11.817022 13.810791
v 2.754959 42.467239 13.816406
v -2.195114 40.739281 13.578491
v -0.832733 43.308289 10.586670
v -3.467667 -11.817022 14.241455
v -1.559830 -11.817022 10.051819
v -1.911987 55.431648 20.173584
v -2.270096 24.590897 11.611603
v 2.942917 25.004885 11.272095
v -0.436630 25.332603 7.585266
v -12.580917 -11.817022 -10.543427
v -13.182083 42.591187 -9.956604
v -11.303009 41.528728 -14.542297
v -8.938782 43.432232 -12.258118
v -11.230164 -11.817022 -15.639587
v -7.919373 -11.817022 -12.440857
v -15.999435 55.038452 -17.098572
v -9.151978 24.590897 -13.631744
v -10.574768 25.004885 -8.605164
v -5.970230 25.332603 -10.557678
v -1.403885 -11.817022 -11.742249
v 1.102646 67.394211 -14.632996
v 5.028976 66.813225 -15.378113
v 4.192139 68.332870 -12.676331
v 3.681183 -11.817022 -13.134094
v 2.578323 -11.817022 -8.664612
v 3.057678 82.671906 -20.173584
v 3.681183 41.283401 -13.134094
v -1.403885 41.283394 -11.742249
v 2.578323 41.283401 -8.664612
v -16.171127 -11.817022 -2.449463
v -16.419998 54.731461 -2.486908
v -17.986908 54.016121 -7.377808
v -13.953217 55.297726 -6.771301
v -18.027588 -11.817022 -7.383942
v -13.475159 -11.817022 -6.699402
v -23.394196 66.274872 -7.092834
v -14.603699 30.476854 -6.869110
v -12.760284 30.628363 -1.936584
v -10.074661 30.748297 -6.188110
v 14.061188 -11.817022 -8.956299
v 15.706360 37.481812 -8.193481
v 18.242188 36.843979 -4.631500
v 15.327667 38.010414 -4.026367
v 17.150146 -11.817022 -5.573242
v 13.256088 -11.817022 -4.657806
v 23.394226 48.371742 -5.716736
v 14.885086 21.593908 -4.879333
v 11.837692 21.866386 -8.304810
v 11.071915 22.097898 -4.037231
vt 0.072779 0.178957
vt 0.072779 0.178957
vt 0.072779 0.178957
vt 0.072779 0.178957
vt 0.072779 0.178957
vt 0.072779 0.178957
vt 0.072779 0.178957
vt 0.072779 0.178957
vt 0.072779 0.178957
vt 0.072779 0.178957
vt 0.072779 0.178957
vt 0.072779 0.178957
vt 0.072779 0.178957
vt 0.072779 0.178957
vt 0.072779 0.178957
vt 0.072779 0.178957
vt 0.072779 0.178957
vt 0.072779 0.178957
vt 0.072779 0.178957
vt 0.072779 0.178957
vt 0.072779 0.178957
vt 0.072779 0.178957
vt 0.072779 0.178957
vt 0.072779 0.178957
vt 0.072779 0.178957
vt 0.072779 0.178957
vt 0.072779 0.178957
vt 0.072779 0.178957
vt 0.072779 0.178957
vt 0.072779 0.178957
vt 0.072779 0.178957
vt 0.072779 0.178957
vt 0.072779 0.178957
vt 0.072779 0.178957
vt 0.072779 0.178957
vt 0.072779 0.178957
vt 0.072779 0.178957
vt 0.072779 0.178957
vt 0.072779 0.178957
vt 0.072779 0.178957
vt 0.072779 0.178957
vt 0.072779 0.178957
vt 0.072779 0.178957
vt 0.072779 0.178957
vt 0.072779 0.178957
vt 0.072779 0.178957
vt 0.072779 0.178957
vt 0.072779 0.178957
vt 0.072779 0.178957
vt 0.072779 0.178957
vt 0.072779 0.178957
vt 0.072779 0.178957
vt 0.072779 0.178957
vt 0.072779 0.178957
vt 0.072779 0.178957
vt 0.072779 0.178957
vt 0.072779 0.178957
vt 0.072779 0.178957
vt 0.072779 0.178957
vt 0.072779 0.178957
vt 0.072779 0.178957
vt 0.072779 0.178957
vt 0.072779 0.178957
vt 0.072779 0.178957
vt 0.072779 0.178957
vt 0.072779 0.178957
vt 0.072779 0.178957
vt 0.072779 0.178957
vt 0.072779 0.178957
vt 0.072779 0.178957
vt 0.072779 0.178957
vt 0.072779 0.178957
vt 0.072779 0.178957
vt 0.072779 0.178957
vt 0.072779 0.178957
vt 0.072779 0.178957
vt 0.072779 0.178957
vt 0.072779 0.178957
vt 0.072779 0.178957
vt 0.072779 0.178957
vt 0.072779 0.178957
vt 0.072779 0.178957
vt 0.072779 0.178957
vt 0.072779 0.178957
vt 0.072779 0.178957
vt 0.072779 0.178957
vt 0.072779 0.178957
vt 0.072779 0.178957
vt 0.072779 0.178957
vt 0.072779 0.178957
vt 0.072779 0.178957
vt 0.072779 0.178957
vt 0.072779 0.178957
vt 0.072779 0.178957
vt 0.072779 0.178957
vt 0.072779 0.178957
vt 0.072779 0.178957
vt 0.072779 0.178957
vt 0.072779 0.178957
vt 0.072779 0.178957
vt 0.072779 0.178957
vt 0.072779 0.178957
vt 0.072779 0.178957
vt 0.072779 0.178957
vt 0.072779 0.178957
vt 0.072779 0.178957
vt 0.072779 0.178957
vt 0.072779 0.178957
vt 0.072779 0.178957
vt 0.072779 0.178957
vt 0.072779 0.178957
vt 0.072779 0.178957
vn 0.390229 0.000000 -0.920718
vn 0.390229 0.000000 -0.920718
vn 0.390228 0.000000 -0.920718
vn 0.390228 0.000000 -0.920718
vn 0.684785 0.020584 0.728454
vn 0.684781 0.020102 0.728472
vn 0.684542 0.062423 0.726296
vn 0.684542 0.062423 0.726296
vn -0.992676 -0.058743 0.105565
vn -0.992676 -0.058743 0.105565
vn -0.994047 -0.019236 0.107242
vn -0.994055 -0.018701 0.107264
vn 0.642499 0.313991 0.699003
vn 0.642499 0.313991 0.699003
vn 0.642499 0.313991 0.699003
vn 0.376941 0.092727 -0.921584
vn 0.376941 0.092727 -0.921584
vn 0.376941 0.092727 -0.921584
vn -0.983600 -0.144465 0.107982
vn -0.983600 -0.144465 0.107982
vn -0.983600 -0.144465 0.107982
vn -0.994055 -0.018701 0.107264
vn -0.994047 -0.019236 0.107242
vn -0.994151 0.000000 0.107998
vn -0.994151 0.000000 0.107998
vn 0.684464 0.000000 0.729047
vn 0.684464 0.000000 0.729047
vn 0.684781 0.020102 0.728472
vn 0.684785 0.020584 0.728454
vn 0.390228 0.000000 -0.920718
vn 0.390228 0.000000 -0.920718
vn 0.390227 0.000000 -0.920719
vn 0.390227 0.000000 -0.920719
vn 0.159722 0.000001 0.987162
vn 0.159722 0.000001 0.987162
vn 0.159725 0.000001 0.987162
vn 0.159725 0.000001 0.987162
vn -0.968896 0.004454 -0.247429
vn -0.968904 0.005582 -0.247376
vn -0.960621 0.142612 -0.238472
vn -0.960621 0.142612 -0.238472
vn 0.786406 -0.130467 -0.603774
vn 0.786406 -0.130467 -0.603774
vn 0.788204 -0.000622 -0.615414
vn 0.788259 -0.002097 -0.615340
vn -0.820430 0.519796 -0.238132
vn -0.820430 0.519796 -0.238132
vn -0.820430 0.519796 -0.238132
vn 0.160338 0.002002 0.987060
vn 0.160338 0.002002 0.987060
vn 0.160338 0.002002 0.987060
vn 0.771306 -0.236736 -0.590799
vn 0.771306 -0.236736 -0.590799
vn 0.771306 -0.236736 -0.590799
vn 0.788259 -0.002097 -0.615340
vn 0.788204 -0.000622 -0.615414
vn 0.783457 0.071123 -0.617363
vn 0.783457 0.071123 -0.617363
vn -0.965313 -0.073969 -0.250397
vn -0.965313 -0.073969 -0.250397
vn -0.968904 0.005582 -0.247376
vn -0.968896 0.004454 -0.247429
vn 0.159725 0.000001 0.987162
vn 0.159725 0.000001 0.987162
vn 0.159727 0.000001 0.987161
vn 0.159727 0.000001 0.987161
vn -0.917488 0.048840 -0.394755
vn -0.917488 0.048840 -0.394755
vn -0.912841 0.016298 -0.407991
vn -0.912261 0.012726 -0.409412
vn 0.732521 -0.008803 -0.680688
vn 0.732136 -0.005847 -0.681133
vn 0.709496 0.120354 -0.694356
vn 0.709496 0.120353 -0.694356
vn 0.037890 -0.132806 0.990418
vn 0.037890 -0.132806 0.990418
vn 0.061506 0.010888 0.998047
vn 0.059902 0.000879 0.998204
vn 0.637958 0.511799 -0.575388
vn 0.637958 0.511799 -0.575388
vn 0.637958 0.511799 -0.575388
vn -0.942228 0.152120 -0.298439
vn -0.942228 0.152120 -0.298439
vn -0.942228 0.152120 -0.298439
vn 0.099205 -0.409084 0.907088
vn 0.099205 -0.409084 0.907088
vn 0.099205 -0.409084 0.907088
vn 0.059902 0.000879 0.998204
vn 0.061506 0.010888 0.998047
vn 0.070535 0.067973 0.995191
vn 0.070535 0.067973 0.995191
vn 0.738835 -0.068130 -0.670434
vn 0.738835 -0.068130 -0.670434
vn 0.732136 -0.005847 -0.681133
vn 0.732521 -0.008803 -0.680688
vn -0.912261 0.012726 -0.409412
vn -0.912841 0.016298 -0.407991
vn -0.910084 0.000000 -0.414424
vn -0.910084 0.000000 -0.414424
vn 0.682820 0.045434 -0.729172
vn 0.682820 0.045434 -0.729172
vn 0.690981 0.015241 -0.722712
vn 0.691779 0.012141 -0.722007
vn 0.395974 -0.001451 0.918261
vn 0.396424 0.001499 0.918066
vn 0.413703 0.141552 0.899340
vn 0.413703 0.141552 0.899340
vn -0.941957 -0.149522 -0.300600
vn -0.941957 -0.149522 -0.300600
vn -0.960659 0.004330 -0.277696
vn -0.960151 -0.005829 -0.279419
vn 0.323055 0.524941 0.787446
vn 0.323055 0.524941 0.787446
vn 0.323055 0.524941 0.787446
vn 0.655597 0.085956 -0.750202
vn 0.655597 0.085956 -0.750202
vn 0.655597 0.085956 -0.750202
vn -0.888975 -0.362090 -0.280381
vn -0.888975 -0.362090 -0.280381
vn -0.888975 -0.362090 -0.280381
vn -0.960151 -0.005829 -0.279419
vn -0.960659 0.004330 -0.277696
vn -0.961511 0.067974 -0.266226
vn -0.961511 0.067974 -0.266226
vn 0.384850 -0.068130 0.920461
vn 0.384850 -0.068130 0.920461
vn 0.396424 0.001499 0.918066
vn 0.395974 -0.001451 0.918261
vn 0.691779 0.012141 -0.722007
vn 0.690981 0.015241 -0.722712
vn 0.694832 0.000000 -0.719172
vn 0.694832 0.000000 -0.719172
vn 0.963840 -0.022700 0.265512
vn 0.963840 -0.022700 0.265512
vn 0.969100 -0.006122 0.246593
vn 0.968870 -0.006889 0.247473
vn -0.605394 0.045219 0.794640
vn -0.605499 0.044511 0.794600
vn -0.586523 0.148833 0.796140
vn -0.586523 0.148833 0.796140
vn -0.234831 -0.078807 -0.968836
vn -0.234831 -0.078807 -0.968836
vn -0.255125 -0.024523 -0.966597
vn -0.255884 -0.022446 -0.966447
vn -0.574756 0.342995 0.742973
vn -0.574756 0.342995 0.742973
vn -0.574756 0.342995 0.742973
vn 0.963720 0.179523 0.197524
vn 0.963720 0.179523 0.197524
vn 0.963720 0.179523 0.197524
vn -0.221125 -0.307360 -0.925545
vn -0.221125 -0.307360 -0.925545
vn -0.221125 -0.307360 -0.925545
vn -0.255884 -0.022446 -0.966447
vn -0.255125 -0.024523 -0.966597
vn -0.264002 0.000000 -0.964522
vn -0.264002 0.000000 -0.964522
vn -0.611507 0.000000 0.791239
vn -0.611507 0.000000 0.791239
vn -0.605499 0.044511 0.794600
vn -0.605394 0.045219 0.794640
vn 0.968870 -0.006889 0.247473
vn 0.969100 -0.006122 0.246593
vn 0.970880 0.000000 0.239568
vn 0.970880 0.000000 0.239568
vn 0.148690 0.000000 -0.988884
vn 0.148690 0.000000 -0.988884
vn 0.148693 -0.000000 -0.988884
vn 0.148693 -0.000000 -0.988884
vn 0.847412 0.004455 0.530917
vn 0.847436 0.005582 0.530868
vn 0.842260 0.142613 0.519865
vn 0.842260 0.142613 0.519865
vn -0.932993 -0.130468 0.335413
vn -0.932993 -0.130468 0.335413
vn -0.938252 -0.000622 0.345952
vn -0.938282 -0.002097 0.345865
vn 0.666074 0.586366 0.460999
vn 0.666074 0.586366 0.460999
vn 0.666074 0.586366 0.460999
vn 0.124049 0.077713 -0.989228
vn 0.124049 0.077713 -0.989228
vn 0.124049 0.077713 -0.989228
vn -0.860116 -0.387116 0.332177
vn -0.860116 -0.387116 0.332177
vn -0.860116 -0.387116 0.332177
vn -0.938282 -0.002097 0.345865
vn -0.938252 -0.000622 0.345952
vn -0.934324 0.071123 0.349256
vn -0.934324 0.071123 0.349256
vn 0.843096 -0.073969 0.532652
vn 0.843096 -0.073969 0.532652
vn 0.847436 0.005582 0.530868
vn 0.847412 0.004455 0.530917
vn 0.148693 -0.000000 -0.988884
vn 0.148693 -0.000000 -0.988884
vn 0.148694 -0.000000 -0.988883
vn 0.148694 -0.000000 -0.988883
vn 0.196626 -0.056161 0.978869
vn 0.196626 -0.056161 0.978869
vn 0.214241 -0.020445 0.976567
vn 0.214866 -0.019165 0.976456
vn -0.984479 0.034171 -0.172142
vn -0.984269 0.042347 -0.171523
vn -0.956953 0.247186 -0.152121
vn -0.956953 0.247186 -0.152121
vn 0.758877 -0.170343 -0.628561
vn 0.758877 -0.170343 -0.628561
vn 0.752355 -0.011049 -0.658665
vn 0.752263 -0.010161 -0.658784
vn -0.791971 0.592565 -0.147139
vn -0.791971 0.592565 -0.147139
vn -0.791971 0.592565 -0.147139
vn 0.203721 0.001119 0.979028
vn 0.203721 0.001119 0.979028
vn 0.203721 0.001119 0.979028
vn 0.721285 -0.377057 -0.581013
vn 0.721285 -0.377057 -0.581013
vn 0.721285 -0.377057 -0.581013
vn 0.752263 -0.010161 -0.658784
vn 0.752355 -0.011049 -0.658665
vn 0.742599 0.063049 -0.666762
vn 0.742599 0.063049 -0.666762
vn -0.982075 -0.060677 -0.178457
vn -0.982075 -0.060677 -0.178457
vn -0.984269 0.042347 -0.171523
vn -0.984479 0.034171 -0.172142
vn 0.214866 -0.019165 0.976456
vn 0.214241 -0.020445 0.976567
vn 0.222057 -0.004362 0.975024
vn 0.222057 -0.004362 0.975024
s off
f 3/1/1 4/2/2 10/3/3 8/4/4
f 9/7/5 10/8/6 4/9/7 2/10/8
f 2/10/9 3/11/10 8/12/11 9/7/12
f 2/10/13 4/2/14 7/13/15
f 4/2/16 3/1/17 7/13/18
f 3/1/19 2/10/20 7/13/21
f 9/7/22 8/12/23 5/14/24 1/15/25
f 1/15/26 6/16/27 10/8/28 9/7/29
f 8/4/30 10/3/31 6/6/32 5/5/33
f 13/17/34 14/18/35 20/19/36 18/20/37
f 19/23/38 20/24/39 14/25/40 12/26/41
f 12/26/42 13/27/43 18/28/44 19/23/45
f 12/26/46 14/18/47 17/29/48
f 14/18/49 13/17/50 17/29/51
f 13/17/52 12/26/53 17/29/54
f 19/23/55 18/28/56 15/30/57 11/31/58
f 11/31/59 16/32/60 20/24/61 19/23/62
f 18/20/63 20/19/64 16/22/65 15/21/66
f 23/33/67 24/34/68 30/35/69 28/36/70
f 29/39/71 30/40/72 24/41/73 22/42/74
f 22/42/75 23/43/76 28/44/77 29/39/78
f 22/42/79 24/34/80 27/45/81
f 24/34/82 23/33/83 27/45/84
f 23/33/85 22/42/86 27/45/87
f 29/39/88 28/44/89 25/46/90 21/47/91
f 21/47/92 26/48/93 30/40/94 29/39/95
f 28/36/96 30/35/97 26/38/98 25/37/99
f 33/49/100 34/50/101 40/51/102 38/52/103
f 39/55/104 40/56/105 34/57/106 32/58/107
f 32/58/108 33/59/109 38/60/110 39/55/111
f 32/58/112 34/50/113 37/61/114
f 34/50/115 33/49/116 37/61/117
f 33/49/118 32/58/119 37/61/120
f 39/55/121 38/60/122 35/62/123 31/63/124
f 31/63/125 36/64/126 40/56/127 39/55/128
f 38/52/129 40/51/130 36/54/131 35/53/132
f 43/65/133 44/66/134 50/67/135 48/68/136
f 49/71/137 50/72/138 44/73/139 42/74/140
f 42/74/141 43/75/142 48/76/143 49/71/144
f 42/74/145 44/66/146 47/77/147
f 44/66/148 43/65/149 47/77/150
f 43/65/151 42/74/152 47/77/153
f 49/71/154 48/76/155 45/78/156 41/79/157
f 41/79/158 46/80/159 50/72/160 49/71/161
f 48/68/162 50/67/163 46/70/164 45/69/165
f 53/81/166 54/82/167 60/83/168 58/84/169
f 59/87/170 60/88/171 54/89/172 52/90/173
f 52/90/174 53/91/175 58/92/176 59/87/177
f 52/90/178 54/82/179 57/93/180
f 54/82/181 53/81/182 57/93/183
f 53/81/184 52/90/185 57/93/186
f 59/87/187 58/92/188 55/94/189 51/95/190
f 51/95/191 56/96/192 60/88/193 59/87/194
f 58/84/195 60/83/196 56/86/197 55/85/198
f 63/97/199 64/98/200 70/99/201 68/100/202
f 69/103/203 70/104/204 64/105/205 62/106/206
f 62/106/207 63/107/208 68/108/209 69/103/210
f 62/106/211 64/98/212 67/109/213
f 64/98/214 63/97/215 67/109/216
f 63/97/217 62/106/218 67/109/219
f 69/103/220 68/108/221 65/110/222 61/111/223
f 61/111/224 66/112/225 70/104/226 69/103/227
f 68/100/228 70/99/229 66/102/230 65/101/231
