# This file uses centimeters as units for non-parametric coordinates.

v 8.415608 32.113411 8.415608
v 8.415604 132.440628 8.415608
v -8.415608 32.113411 8.415608
v -8.415605 132.576935 8.415608
v -8.415608 32.113411 -8.415608
v -8.415605 132.576935 -5.389515
v 8.415608 32.113411 -8.415608
v 8.415604 132.440628 -8.415608
v 8.415608 78.074097 8.415608
v 8.415604 100.839874 8.415608
v 8.415608 85.447510 5.924673
v 6.516519 85.364990 8.415608
v -4.501592 132.576935 -8.415608
v -8.415604 108.326355 -8.415608
v -8.415605 132.576935 -4.765626
v 8.415608 32.539883 -8.415608
v 7.541022 78.431122 -7.914738
v 4.742279 59.008060 -8.415608
v 8.415608 57.802979 -6.959930
v -8.415609 39.266079 8.415608
v -8.415608 63.967716 8.415608
v -6.238914 49.520683 8.415608
v -8.415608 50.437344 5.449869
v 8.415608 -33.810249 -8.415608
v 8.415608 -33.810249 8.415608
v -8.415608 -33.810249 8.415608
v -8.415608 -33.810249 -8.415608
v 2.578879 28.833061 8.415608
v 8.415608 35.809750 -3.145259
v -0.035632 30.078199 -8.415608
v -8.415608 35.226463 -1.851958
v -7.179003 90.173126 8.415608
vt 0.038589 0.228152
vt 0.038589 0.253958
vt 0.038589 0.228152
vt 0.038589 0.253958
vt 0.038589 0.253958
vt 0.038589 0.253958
vt 0.038589 0.253958
vt 0.038589 0.253958
vt 0.038589 0.253958
vt 0.038589 0.253958
vt 0.036151 0.278026
vt 0.036151 0.278026
vt 0.038589 0.228152
vt 0.038589 0.228152
vt 0.038589 0.253958
vt 0.038589 0.253958
vt 0.038589 0.253958
vt 0.038589 0.253958
vt 0.038589 0.253958
vt 0.038589 0.253958
vt 0.038589 0.253958
vt 0.038589 0.253958
vt 0.036151 0.278026
vt 0.038589 0.253958
vt 0.038589 0.253958
vt 0.036151 0.278026
vt 0.038589 0.253958
vt 0.038589 0.253958
vt 0.038589 0.253958
vt 0.038589 0.253958
vt 0.038589 0.253958
vt 0.038589 0.253958
vt 0.038589 0.253958
vt 0.038589 0.253958
vt 0.038589 0.228152
vt 0.038589 0.228152
vt 0.038589 0.228152
vt 0.038589 0.228152
vt 0.038589 0.228152
vt 0.038589 0.228152
vt 0.038589 0.228152
vt 0.038589 0.228152
vt 0.038589 0.228152
vt 0.038589 0.228152
vt 0.038589 0.228152
vt 0.038589 0.228152
vt 0.038589 0.228152
vt 0.038589 0.253958
vt 0.038589 0.228152
vt 0.038589 0.253958
vt 0.038589 0.228152
vt 0.038589 0.228152
vt 0.038589 0.228152
vt 0.038589 0.253958
vt 0.038589 0.228152
vt 0.038589 0.253958
vt 0.038589 0.228152
vt 0.038589 0.253958
vt 0.038589 0.228152
vt 0.038589 0.253958
vt 0.038589 0.253958
vt 0.036151 0.278026
vt 0.036151 0.278026
vn -0.000000 0.000000 1.000000
vn 0.000000 0.000000 1.000000
vn 0.000000 0.000000 1.000000
vn -0.608695 0.098243 -0.787299
vn -0.608695 0.098243 -0.787299
vn -0.608695 0.098243 -0.787298
vn 0.999848 0.007360 -0.015791
vn 0.999822 0.007975 -0.017110
vn 0.999790 0.001850 -0.020415
vn 0.999746 -0.002064 -0.022431
vn 0.999819 0.008031 -0.017231
vn 0.999819 0.008031 -0.017231
vn 0.008308 0.999965 0.000966
vn 0.008308 0.999965 0.000966
vn 0.008308 0.999965 0.000966
vn 0.008308 0.999965 0.000966
vn 0.008308 0.999965 0.000966
vn 0.000000 -1.000000 0.000000
vn 0.000000 -1.000000 0.000000
vn 0.000000 -1.000000 0.000000
vn 0.000000 -1.000000 0.000000
vn 0.793019 -0.097320 0.601373
vn 0.793019 -0.097320 0.601373
vn 0.793019 -0.097320 0.601373
vn 0.775606 0.202025 0.598015
vn 0.775606 0.202025 0.598015
vn 0.775606 0.202025 0.598015
vn 0.014349 0.002584 -0.999894
vn 0.011099 -0.004673 -0.999928
vn 0.010050 -0.007015 -0.999925
vn 0.010050 -0.007015 -0.999925
vn -1.000000 0.000000 -0.000000
vn -1.000000 0.000000 -0.000000
vn -0.999986 0.001908 0.005028
vn -0.999503 -0.012656 0.028879
vn -1.000000 0.000000 -0.000000
vn 0.000000 1.000000 0.000000
vn 0.000000 1.000000 0.000000
vn 0.000000 1.000000 0.000000
vn 0.360348 -0.027880 -0.932401
vn 0.360348 -0.027880 -0.932401
vn 0.360348 -0.027880 -0.932401
vn 0.382908 0.053141 -0.922257
vn 0.382908 0.053141 -0.922257
vn 0.382908 0.053141 -0.922257
vn -0.817809 -0.123217 0.562144
vn -0.817809 -0.123217 0.562144
vn -0.817809 -0.123217 0.562144
vn -0.770521 0.163555 0.616074
vn -0.770521 0.163555 0.616074
vn -0.770521 0.163555 0.616074
vn 1.000000 0.000000 0.000000
vn 1.000000 0.000000 0.000000
vn 1.000000 0.000000 0.000000
vn 1.000000 0.000000 0.000000
vn 1.000000 0.000000 0.000000
vn 0.000000 0.000000 1.000000
vn 0.000000 0.000000 1.000000
vn 0.000000 0.000000 1.000000
vn 0.000000 0.000000 1.000000
vn 0.000000 0.000000 1.000000
vn -1.000000 0.000000 0.000000
vn -1.000000 0.000000 0.000000
vn -1.000000 0.000000 0.000000
vn -1.000000 0.000000 0.000000
vn -1.000000 0.000000 0.000000
vn 0.000000 0.000000 -1.000000
vn 0.000000 0.000000 -1.000000
vn 0.000000 0.000000 -1.000000
vn 0.000000 0.000000 -1.000000
vn 0.000000 0.000000 -1.000000
vn -0.000000 0.000000 1.000000
vn -0.000000 0.000000 1.000000
vn 0.000000 0.000000 1.000000
vn 0.000000 0.000000 1.000000
vn 1.000000 0.000000 0.000000
vn 1.000000 0.000000 0.000000
vn 0.999822 0.007975 -0.017110
vn 0.999848 0.007360 -0.015791
vn 0.013471 0.003594 -0.999903
vn 0.014777 0.003942 -0.999883
vn 0.000000 0.000000 -1.000000
vn 0.000000 0.000000 -1.000000
vn -1.000000 0.000000 -0.000000
vn -1.000000 0.000000 -0.000000
vn -1.000000 0.000000 -0.000000
vn -1.000000 0.000000 -0.000000
vn 0.000000 0.000000 1.000000
vn 0.000000 0.000000 1.000000
vn 0.000000 0.000000 1.000000
vn 0.000000 0.000000 1.000000
vn 0.000000 0.000000 1.000000
vn -0.999503 -0.012656 0.028879
vn -0.996360 0.018524 0.083211
vn -0.999395 -0.019839 0.028584
vn -0.999395 -0.019839 0.028584
vn -0.999395 -0.019839 0.028584
vn -0.000000 0.000000 1.000000
vn -0.000000 0.000000 1.000000
vn 0.000000 0.000000 1.000000
vn -0.000000 0.000000 1.000000
vn -0.000000 0.000000 1.000000
vn -0.000000 0.000000 1.000000
vn -0.999503 -0.012656 0.028879
vn -0.999986 0.001908 0.005028
vn -0.996360 0.018524 0.083211
vn 0.014982 0.003997 -0.999880
vn 0.011099 -0.004673 -0.999928
vn 0.014349 0.002584 -0.999894
vn 0.014777 0.003942 -0.999883
vn 0.013471 0.003594 -0.999903
vn 0.999746 -0.002064 -0.022431
vn 0.999790 0.001850 -0.020415
vn 0.999649 -0.007736 -0.025351
vn 0.999649 -0.007736 -0.025351
vn 0.999649 -0.007736 -0.025351
s off
f 21/32/1 12/20/2 32/61/3
f 13/22/4 14/24/5 6/6/6
f 29/56/7 19/30/8 17/28/9 11/19/10 9/16/11 1/9/12
f 2/11/13 8/12/14 13/23/15 15/26/16 4/62/17
f 24/35/18 25/47/19 26/44/20 27/40/21
f 12/21/22 11/19/23 10/18/24
f 9/16/25 11/19/26 12/21/27
f 17/28/28 14/24/29 13/22/30 8/8/31
f 31/60/32 23/34/33 21/32/34 14/24/35 5/5/36
f 15/26/37 13/23/38 6/63/39
f 19/30/40 18/29/41 17/28/42
f 16/27/43 18/29/44 19/30/45
f 21/32/46 23/34/47 22/33/48
f 22/33/49 23/34/50 20/31/51
f 7/13/52 29/55/53 1/51/54 25/46/55 24/41/56
f 1/1/57 28/53/58 3/49/59 26/43/60 25/36/61
f 3/3/62 31/59/63 5/45/64 27/39/65 26/37/66
f 5/14/67 30/57/68 7/52/69 24/42/70 27/38/71
f 28/54/72 22/33/73 20/31/74 3/48/75
f 7/7/76 16/27/77 19/30/78 29/56/79
f 30/58/80 18/29/81 16/27/82 7/7/83
f 3/48/84 20/31/85 23/34/86 31/60/87
f 32/61/88 12/20/89 10/17/90 2/2/91 4/4/92
f 14/24/93 32/61/94 4/4/95 15/25/96 6/6/97
f 1/50/98 9/15/99 12/20/100 21/32/101 22/33/102 28/54/103
f 14/24/104 21/32/105 32/61/106
f 5/5/107 14/24/108 17/28/109 18/29/110 30/58/111
f 11/19/112 17/28/113 8/8/114 2/10/115 10/18/116
