# This file uses centimeters as units for non-parametric coordinates.

v 0.068115 11.734948 -2.600983
v 1.272766 11.811831 -1.013031
v 1.188599 9.636238 -3.867676
v 2.987000 9.788750 -1.526459
v 0.718140 5.072687 -2.333008
v 1.643555 5.144863 -0.784149
v -0.952271 5.087693 0.849365
v -1.565552 5.039549 -0.188293
v 1.071960 12.657632 1.209808
v -0.845215 12.588787 1.756409
v 2.156067 11.431075 3.350586
v -0.686096 11.371651 4.162445
v 1.164246 5.182265 1.489685
v -0.597778 5.125940 1.879333
v -0.952759 5.041987 -1.029175
v 0.225708 5.079802 -1.283997
v -3.056274 12.010989 2.728760
v -4.159119 11.909216 1.069763
v -3.862610 9.722145 3.901367
v -5.517639 9.606634 1.454559
v 0.057495 4.258854 0.930298
v -0.812500 3.744894 -0.461426
v 0.795959 4.333987 -1.084686
v 1.372803 4.675816 -0.152374
v -1.730408 11.921019 0.076447
v -0.967163 11.608446 -1.739807
v -3.961548 10.426509 -0.150757
v -2.834900 10.004668 -2.851074
v -1.761230 5.035971 -0.036316
v -1.280762 5.011509 -1.780762
v 1.211365 5.129193 -0.764832
v 0.885132 5.145321 0.399048
v 1.592834 -8.555464 -2.214661
v -1.136475 -8.656343 -2.174072
v -2.468018 -8.648081 0.210785
v -1.070374 -8.538939 2.554932
v 1.658875 -8.438033 2.514313
v 2.990479 -8.446296 0.129578
v 3.802368 -5.879905 -6.416992
v -3.661255 -6.155812 -6.306030
v -7.302856 -6.133204 0.215820
v -3.480774 -5.834694 6.626587
v 3.982971 -5.558796 6.515503
v 7.624512 -5.581422 -0.006317
v 4.204956 -1.575096 -7.530701
v -4.413391 -1.893670 -7.402496
v -8.618347 -1.867542 0.128204
v -4.204956 -1.522871 7.530731
v 4.413391 -1.204296 7.402527
v 8.618347 -1.230421 -0.128174
v 3.480835 2.736700 -6.626526
v -3.982910 2.460829 -6.515472
v -7.624512 2.483463 0.006348
v -3.802368 2.781946 6.417023
v 3.661316 3.057844 6.306061
v 7.302917 3.035211 -0.215759
v 1.857056 5.012245 -3.925140
v -2.452087 4.852971 -3.861053
v -4.554504 4.866030 -0.095703
v -2.347839 5.038373 3.605560
v 1.961304 5.197647 3.541473
v 4.063782 5.184577 -0.223877
v -2.178894 -12.657632 0.306335
v -0.288452 6.179707 -0.187897
vt 0.145957 0.421139
vt 0.145957 0.421139
vt 0.145957 0.421139
vt 0.145957 0.421139
vt 0.145957 0.421139
vt 0.145957 0.421139
vt 0.145957 0.421139
vt 0.145957 0.421139
vt 0.145957 0.421139
vt 0.145957 0.421139
vt 0.145957 0.421139
vt 0.145957 0.421139
vt 0.145957 0.421139
vt 0.145957 0.421139
vt 0.145957 0.421139
vt 0.145957 0.421139
vt 0.145957 0.421139
vt 0.145957 0.421139
vt 0.145957 0.421139
vt 0.145957 0.421139
vt 0.145957 0.421139
vt 0.145957 0.421139
vt 0.145957 0.421139
vt 0.145957 0.421139
vt 0.145957 0.421139
vt 0.145957 0.421139
vt 0.145957 0.421139
vt 0.145957 0.421139
vt 0.145957 0.421139
vt 0.145957 0.421139
vt 0.145957 0.421139
vt 0.145957 0.421139
vt 0.145093 0.420919
vt 0.145093 0.420919
vt 0.145093 0.420919
vt 0.145093 0.420919
vt 0.145093 0.420919
vt 0.145093 0.420919
vt 0.145093 0.420919
vt 0.145093 0.420919
vt 0.145093 0.420919
vt 0.145093 0.420919
vt 0.145093 0.420919
vt 0.145093 0.420919
vt 0.145093 0.420919
vt 0.145093 0.420919
vt 0.145093 0.420919
vt 0.145093 0.420919
vt 0.145093 0.420919
vt 0.145093 0.420919
vt 0.145093 0.420919
vt 0.145093 0.420919
vt 0.145093 0.420919
vt 0.145093 0.420919
vt 0.145093 0.420919
vt 0.145093 0.420919
vt 0.145093 0.420919
vt 0.145093 0.420919
vt 0.145093 0.420919
vt 0.145093 0.420919
vt 0.145093 0.420919
vt 0.145093 0.420919
vt 0.145093 0.420919
vt 0.145093 0.420919
vt 0.145093 0.420919
vt 0.145093 0.420919
vt 0.145093 0.420919
vt 0.145093 0.420919
vt 0.145093 0.420919
vt 0.145093 0.420919
vt 0.145093 0.420919
vt 0.145093 0.420919
vt 0.145093 0.420919
vt 0.145093 0.420919
vt 0.145093 0.420919
vt 0.145093 0.420919
vt 0.145093 0.420919
vt 0.145093 0.420919
vt 0.145093 0.420919
vn 0.791960 -0.289024 -0.537833
vn 0.791960 -0.289024 -0.537833
vn 0.791960 -0.289024 -0.537833
vn 0.791960 -0.289024 -0.537833
vn 0.465590 0.056216 0.883213
vn 0.465590 0.056216 0.883213
vn 0.465590 0.056216 0.883213
vn 0.465590 0.056216 0.883213
vn -0.767533 0.384169 0.513135
vn -0.767533 0.384169 0.513135
vn -0.767533 0.384169 0.513135
vn -0.767533 0.384169 0.513135
vn -0.733628 -0.098623 -0.672357
vn -0.733628 -0.098623 -0.672357
vn -0.733628 -0.098623 -0.672357
vn -0.733628 -0.098623 -0.672357
vn 0.246682 -0.321099 0.914354
vn 0.246682 -0.321099 0.914354
vn 0.246682 -0.321099 0.914354
vn 0.246682 -0.321099 0.914354
vn -0.995481 -0.031531 0.089574
vn -0.995481 -0.031531 0.089574
vn -0.995481 -0.031531 0.089574
vn -0.995481 -0.031531 0.089574
vn -0.247046 0.333194 -0.909918
vn -0.247046 0.333194 -0.909918
vn -0.247046 0.333194 -0.909918
vn -0.247046 0.333194 -0.909918
vn 0.924508 -0.002857 -0.381153
vn 0.924507 -0.002857 -0.381153
vn 0.924508 -0.002857 -0.381153
vn 0.924508 -0.002857 -0.381153
vn -0.579741 -0.652260 0.488322
vn -0.579741 -0.652260 0.488322
vn -0.579741 -0.652260 0.488322
vn -0.579741 -0.652260 0.488322
vn -0.349609 0.032300 -0.936339
vn -0.349609 0.032300 -0.936339
vn -0.349609 0.032300 -0.936339
vn -0.349609 0.032300 -0.936339
vn 0.638313 0.574695 -0.512136
vn 0.638313 0.574695 -0.512136
vn 0.638313 0.574695 -0.512136
vn 0.638313 0.574695 -0.512136
vn 0.665322 0.095461 0.740429
vn 0.665322 0.095461 0.740429
vn 0.665322 0.095461 0.740429
vn 0.665322 0.095461 0.740429
vn -0.890154 -0.354516 -0.286260
vn -0.890154 -0.354516 -0.286260
vn -0.890154 -0.354516 -0.286260
vn -0.890154 -0.354516 -0.286260
vn 0.443384 -0.015513 -0.896197
vn 0.443384 -0.015513 -0.896197
vn 0.443384 -0.015513 -0.896197
vn 0.443384 -0.015513 -0.896197
vn 0.891422 0.350528 0.287224
vn 0.891422 0.350528 0.287224
vn 0.891422 0.350528 0.287224
vn 0.891422 0.350528 0.287224
vn -0.129531 -0.015658 0.991452
vn -0.129531 -0.015658 0.991452
vn -0.129532 -0.015658 0.991452
vn -0.129531 -0.015658 0.991452
vn 0.023527 -0.848865 -0.528086
vn 0.023527 -0.848865 -0.528086
vn 0.023527 -0.848865 -0.528086
vn 0.023527 -0.848865 -0.528086
vn -0.447391 -0.859603 -0.246826
vn -0.447391 -0.859603 -0.246826
vn -0.447391 -0.859603 -0.246826
vn -0.447391 -0.859603 -0.246826
vn -0.439730 -0.845990 0.301561
vn -0.439730 -0.845990 0.301561
vn -0.439730 -0.845990 0.301561
vn -0.439730 -0.845990 0.301561
vn 0.038837 -0.821635 0.568689
vn 0.038837 -0.821635 0.568689
vn 0.038837 -0.821635 0.568689
vn 0.038837 -0.821635 0.568689
vn 0.509740 -0.810892 0.287435
vn 0.509740 -0.810892 0.287435
vn 0.509740 -0.810892 0.287435
vn 0.509740 -0.810892 0.287435
vn 0.502083 -0.824508 -0.260957
vn 0.502083 -0.824508 -0.260957
vn 0.502083 -0.824508 -0.260957
vn 0.502083 -0.824508 -0.260957
vn -0.005158 -0.250003 -0.968231
vn -0.005158 -0.250003 -0.968231
vn -0.005158 -0.250003 -0.968231
vn -0.005158 -0.250003 -0.968231
vn -0.841306 -0.269078 -0.468829
vn -0.841306 -0.269078 -0.468829
vn -0.841306 -0.269078 -0.468829
vn -0.841307 -0.269078 -0.468829
vn -0.827718 -0.244889 0.504888
vn -0.827719 -0.244889 0.504888
vn -0.827718 -0.244889 0.504888
vn -0.827718 -0.244889 0.504888
vn 0.022023 -0.201639 0.979212
vn 0.022023 -0.201639 0.979212
vn 0.022023 -0.201639 0.979212
vn 0.022023 -0.201639 0.979212
vn 0.858168 -0.182572 0.479808
vn 0.858168 -0.182572 0.479808
vn 0.858168 -0.182572 0.479808
vn 0.858168 -0.182572 0.479808
vn 0.844572 -0.206756 -0.493913
vn 0.844572 -0.206756 -0.493913
vn 0.844572 -0.206756 -0.493913
vn 0.844572 -0.206756 -0.493913
vn -0.022021 0.201643 -0.979212
vn -0.022021 0.201643 -0.979212
vn -0.022021 0.201643 -0.979212
vn -0.022021 0.201643 -0.979212
vn -0.858165 0.182578 -0.479810
vn -0.858165 0.182578 -0.479810
vn -0.858165 0.182578 -0.479810
vn -0.858165 0.182578 -0.479810
vn -0.844572 0.206756 0.493913
vn -0.844572 0.206756 0.493913
vn -0.844572 0.206756 0.493913
vn -0.844572 0.206756 0.493913
vn 0.005158 0.250003 0.968231
vn 0.005158 0.250003 0.968231
vn 0.005158 0.250003 0.968231
vn 0.005158 0.250003 0.968231
vn 0.841309 0.269066 0.468831
vn 0.841309 0.269066 0.468831
vn 0.841309 0.269066 0.468831
vn 0.841309 0.269066 0.468831
vn 0.827720 0.244883 -0.504888
vn 0.827720 0.244883 -0.504888
vn 0.827720 0.244883 -0.504888
vn 0.827720 0.244883 -0.504888
vn -0.037606 0.753019 -0.656923
vn -0.037606 0.753019 -0.656923
vn -0.037606 0.753019 -0.656923
vn -0.037606 0.753019 -0.656923
vn -0.585665 0.740520 -0.329585
vn -0.585665 0.740520 -0.329585
vn -0.585665 0.740520 -0.329585
vn -0.585665 0.740520 -0.329585
vn -0.576753 0.756368 0.308647
vn -0.576753 0.756368 0.308647
vn -0.576753 0.756368 0.308647
vn -0.576753 0.756368 0.308647
vn -0.019794 0.784710 0.619547
vn -0.019794 0.784710 0.619547
vn -0.019794 0.784710 0.619547
vn -0.019794 0.784710 0.619547
vn 0.528268 0.797214 0.292204
vn 0.528268 0.797214 0.292204
vn 0.528268 0.797214 0.292204
vn 0.528268 0.797214 0.292204
vn 0.519353 0.781371 -0.346022
vn 0.519353 0.781371 -0.346022
vn 0.519353 0.781371 -0.346022
vn 0.519353 0.781371 -0.346022
vn 0.006894 -0.528164 -0.849114
vn 0.006894 -0.528164 -0.849114
vn 0.006894 -0.528164 -0.849114
vn -0.870817 -0.074374 -0.485948
vn -0.870817 -0.074374 -0.485948
vn -0.870817 -0.074374 -0.485948
vn -0.856847 -0.049557 0.513183
vn -0.856847 -0.049557 0.513183
vn -0.856847 -0.049557 0.513183
vn 0.030949 -0.485361 0.873766
vn 0.030949 -0.485361 0.873766
vn 0.030949 -0.485361 0.873766
vn 0.601298 -0.723890 0.338265
vn 0.601298 -0.723890 0.338265
vn 0.601298 -0.723890 0.338265
vn 0.592130 -0.740204 -0.318560
vn 0.592130 -0.740204 -0.318560
vn 0.592130 -0.740204 -0.318560
vn -0.039743 0.947037 -0.318657
vn -0.039743 0.947037 -0.318657
vn -0.039743 0.947037 -0.318657
vn -0.293458 0.941251 -0.167119
vn -0.293458 0.941251 -0.167119
vn -0.293458 0.941251 -0.167119
vn -0.289332 0.948588 0.128328
vn -0.289332 0.948588 0.128328
vn -0.289332 0.948588 0.128328
vn -0.031498 0.961711 0.272250
vn -0.031498 0.961711 0.272250
vn -0.031498 0.961711 0.272250
vn 0.222214 0.967496 0.120720
vn 0.222214 0.967496 0.120720
vn 0.222214 0.967496 0.120720
vn 0.218094 0.960158 -0.174734
vn 0.218094 0.960158 -0.174734
vn 0.218094 0.960158 -0.174734
vn 0.600701 0.627222 -0.495732
vn 0.600701 0.627223 -0.495732
vn 0.600701 0.627223 -0.495732
vn 0.600701 0.627222 -0.495732
vn 0.104121 0.887648 0.448598
vn 0.104121 0.887648 0.448598
vn 0.104121 0.887648 0.448598
vn 0.104121 0.887648 0.448598
vn -0.730172 0.501634 0.463910
vn -0.730172 0.501634 0.463910
vn -0.730172 0.501634 0.463910
vn -0.730172 0.501634 0.463910
vn -0.495070 0.800688 -0.337350
vn -0.495070 0.800688 -0.337350
vn -0.495070 0.800688 -0.337350
vn -0.495070 0.800688 -0.337350
s off
f 3/1/1 4/2/2 6/3/3 5/4/4
f 4/2/5 2/5/6 7/6/7 6/3/8
f 2/5/9 1/7/10 8/8/11 7/6/12
f 1/7/13 3/1/14 5/4/15 8/8/16
f 11/9/17 12/10/18 14/11/19 13/12/20
f 12/10/21 10/13/22 15/14/23 14/11/24
f 10/13/25 9/15/26 16/16/27 15/14/28
f 9/15/29 11/9/30 13/12/31 16/16/32
f 19/17/33 20/18/34 22/19/35 21/20/36
f 20/18/37 18/21/38 23/22/39 22/19/40
f 18/21/41 17/23/42 24/24/43 23/22/44
f 17/23/45 19/17/46 21/20/47 24/24/48
f 27/25/49 28/26/50 30/27/51 29/28/52
f 28/26/53 26/29/54 31/30/55 30/27/56
f 26/29/57 25/31/58 32/32/59 31/30/60
f 25/31/61 27/25/62 29/28/63 32/32/64
f 33/33/65 34/34/66 40/35/67 39/36/68
f 34/34/69 35/37/70 41/38/71 40/35/72
f 35/37/73 36/39/74 42/40/75 41/38/76
f 36/39/77 37/41/78 43/42/79 42/40/80
f 37/41/81 38/43/82 44/44/83 43/42/84
f 38/43/85 33/45/86 39/46/87 44/44/88
f 39/36/89 40/35/90 46/47/91 45/48/92
f 40/35/93 41/38/94 47/49/95 46/47/96
f 41/38/97 42/40/98 48/50/99 47/49/100
f 42/40/101 43/42/102 49/51/103 48/50/104
f 43/42/105 44/44/106 50/52/107 49/51/108
f 44/44/109 39/46/110 45/53/111 50/52/112
f 45/48/113 46/47/114 52/54/115 51/55/116
f 46/47/117 47/49/118 53/56/119 52/54/120
f 47/49/121 48/50/122 54/57/123 53/56/124
f 48/50/125 49/51/126 55/58/127 54/57/128
f 49/51/129 50/52/130 56/59/131 55/58/132
f 50/52/133 45/53/134 51/60/135 56/59/136
f 51/55/137 52/54/138 58/61/139 57/62/140
f 52/54/141 53/56/142 59/63/143 58/61/144
f 53/56/145 54/57/146 60/64/147 59/63/148
f 54/57/149 55/58/150 61/65/151 60/64/152
f 55/58/153 56/59/154 62/66/155 61/65/156
f 56/59/157 51/60/158 57/67/159 62/66/160
f 34/34/161 33/33/162 63/68/163
f 35/37/164 34/34/165 63/69/166
f 36/39/167 35/37/168 63/70/169
f 37/41/170 36/39/171 63/71/172
f 38/43/173 37/41/174 63/72/175
f 33/45/176 38/43/177 63/73/178
f 57/62/179 58/61/180 64/74/181
f 58/61/182 59/63/183 64/75/184
f 59/63/185 60/64/186 64/76/187
f 60/64/188 61/65/189 64/77/190
f 61/65/191 62/66/192 64/78/193
f 62/66/194 57/67/195 64/79/196
f 4/2/197 3/1/198 1/7/199 2/5/200
f 12/10/201 11/9/202 9/15/203 10/13/204
f 20/18/205 19/17/206 17/23/207 18/21/208
f 28/26/209 27/25/210 25/31/211 26/29/212
