# This file uses centimeters as units for non-parametric coordinates.

v 4.121399 -2.774841 -2.217590
v 1.908936 -2.774841 4.143738
v 0.992737 42.800297 0.456238
v 0.366516 44.858528 3.353149
v -1.667480 44.858528 -0.850281
v -2.293640 42.800297 2.046570
v -2.239929 -2.774841 -4.430115
v -4.452393 -2.774841 1.931274
v 7.209412 51.315212 -1.858948
v 6.077759 52.437805 1.176880
v 5.902771 53.732750 -2.582764
v -9.082886 51.652893 5.692139
v -9.787354 52.297539 3.430298
v -9.632019 49.510540 3.816772
v 18.439026 53.130722 -2.672424
v 17.911438 53.653984 -1.257324
v 17.829834 54.257622 -3.009888
v -24.653809 47.801239 -1.480225
v -23.794617 48.622665 -2.795959
v -23.560791 47.195118 -3.025024
v -11.396973 51.538132 5.494080
v -13.388184 58.150276 15.451904
v -14.225464 59.536327 14.932495
v -14.860107 57.873474 14.740234
v 2.084595 5.699513 -1.601013
v 0.694336 6.187782 2.396362
v -3.302979 5.615495 1.006104
v -1.912720 6.103763 -2.991333
v -1.653564 17.195320 0.939453
v 1.201416 17.064102 1.932373
v 2.194336 16.432360 -0.922546
v -0.660645 17.899811 -1.915466
v 1.201416 20.360027 1.932373
v 2.194336 19.582787 -0.922546
v -2.218689 28.141191 1.066528
v 0.693909 28.390850 2.079590
v 1.623840 30.198853 -0.593811
v -1.288879 30.253510 -1.606750
v -2.184692 30.928076 0.968811
v 0.728027 31.039646 1.981873
v 1.657837 33.134136 -0.691528
v -1.254883 33.026501 -1.704651
v 7.127075 23.787174 5.143188
v 8.594666 22.667868 3.925964
v 8.165833 24.549927 3.776978
v -5.254944 37.429203 10.089294
v -5.719482 39.112572 8.433533
v -4.049377 39.609428 9.614014
v -0.162415 40.789978 -10.514160
v 1.200134 42.735634 -9.545105
v -1.389648 42.485287 -9.090393
v -14.226196 39.386986 20.251892
v -14.574646 40.507217 19.953491
v -13.877869 40.667145 20.550171
v -6.343628 43.094288 -22.588379
v -5.824036 44.390762 -22.843140
v -6.863220 44.333561 -22.333679
v -0.985840 32.883633 28.303772
v -1.193115 37.198174 8.524658
v -14.071655 42.431938 16.616577
v -6.945435 41.497692 12.999390
v -10.430481 39.744968 24.681519
v -3.337463 38.728802 21.043579
v 2.447998 34.511162 16.589783
v -25.705017 31.980476 31.591858
v -8.067505 38.720623 24.706970
v -19.726257 40.814934 14.625122
v -14.111267 41.553997 20.335938
v -25.729614 37.747849 20.897888
v -20.104187 38.400211 26.576111
v -14.070679 35.653618 30.979980
v 16.519531 51.380875 -18.543152
v 2.953308 49.705284 -3.609314
v 16.613586 57.080669 0.601135
v 9.223206 55.127426 -1.909851
v 19.722229 56.877304 -8.106140
v 12.359009 54.839699 -10.597534
v 6.062134 49.501984 -12.316711
v 34.544556 49.375500 -4.058289
v 15.792664 53.802082 -9.775330
v 17.369629 52.846443 5.670105
v 16.817810 55.228352 -1.992126
v 26.460938 51.753197 4.695313
v 25.897339 54.042637 -2.969849
v 24.883972 52.708946 -10.750305
v -13.758728 39.353260 -37.032104
v -12.463623 44.239388 -17.580750
v 1.414490 43.274406 -24.539612
v -5.572998 45.654541 -21.346069
v -2.724976 41.950733 -32.658020
v -9.710083 44.238724 -29.450562
v -16.603271 42.915836 -25.699097
v -24.058960 52.445316 25.660278
v -6.533997 59.699234 18.580566
v -18.418396 59.258163 7.750366
v -13.130859 61.195782 13.497192
v -24.512634 56.536140 14.151306
v -19.193298 58.390297 19.882080
v -12.628357 56.977215 24.981506
v -38.105408 40.213570 -6.846680
v -24.471130 46.975533 6.279297
v -20.441162 49.531601 -8.525574
v -23.197083 50.019142 -0.985291
v -28.608704 46.328632 -11.323730
v -31.328369 46.730488 -3.790039
v -32.638672 43.772648 3.481384
vt 0.145344 0.301145
vt 0.145344 0.301145
vt 0.145344 0.301145
vt 0.145344 0.301145
vt 0.145344 0.301145
vt 0.145344 0.301145
vt 0.145344 0.301145
vt 0.145344 0.301145
vt 0.145344 0.301145
vt 0.145344 0.301145
vt 0.145344 0.301145
vt 0.145344 0.301145
vt 0.145344 0.301145
vt 0.145344 0.301145
vt 0.145344 0.301145
vt 0.145344 0.301145
vt 0.145344 0.301145
vt 0.145344 0.301145
vt 0.145344 0.301145
vt 0.145344 0.301145
vt 0.145344 0.301145
vt 0.145344 0.301145
vt 0.145344 0.301145
vt 0.145344 0.301145
vt 0.145344 0.301145
vt 0.145344 0.301145
vt 0.145344 0.301145
vt 0.145344 0.301145
vt 0.145344 0.301145
vt 0.145344 0.301145
vt 0.145344 0.301145
vt 0.145344 0.301145
vt 0.145344 0.301145
vt 0.145344 0.301145
vt 0.145344 0.301145
vt 0.145344 0.301145
vt 0.145344 0.301145
vt 0.145344 0.301145
vt 0.145344 0.301145
vt 0.145344 0.301145
vt 0.145344 0.301145
vt 0.145344 0.301145
vt 0.145344 0.301145
vt 0.145344 0.301145
vt 0.145344 0.301145
vt 0.145344 0.301145
vt 0.145344 0.301145
vt 0.145344 0.301145
vt 0.145344 0.301145
vt 0.145344 0.301145
vt 0.145344 0.301145
vt 0.145344 0.301145
vt 0.145344 0.301145
vt 0.145344 0.301145
vt 0.145344 0.301145
vt 0.145344 0.301145
vt 0.145344 0.301145
vt 0.145344 0.301145
vt 0.145344 0.301145
vt 0.145344 0.301145
vt 0.145344 0.301145
vt 0.145344 0.301145
vt 0.145344 0.301145
vt 0.145344 0.301145
vt 0.145344 0.301145
vt 0.145344 0.301145
vt 0.145344 0.301145
vt 0.145344 0.301145
vt 0.145344 0.301145
vt 0.145344 0.301145
vt 0.145344 0.301145
vt 0.145344 0.301145
vt 0.145344 0.301145
vt 0.512604 0.367315
vt 0.484498 0.401883
vt 0.512740 0.401883
vt 0.540981 0.401883
vt 0.512740 0.453449
vt 0.540981 0.453449
vt 0.484498 0.453449
vt 0.412400 0.370757
vt 0.384294 0.405325
vt 0.412536 0.405325
vt 0.440778 0.405325
vt 0.412536 0.456891
vt 0.440778 0.456891
vt 0.384294 0.456891
vt 0.512604 0.367315
vt 0.484498 0.401883
vt 0.512740 0.401883
vt 0.540981 0.401883
vt 0.512740 0.453449
vt 0.540981 0.453449
vt 0.484498 0.453449
vt 0.412400 0.370757
vt 0.384294 0.405325
vt 0.412536 0.405325
vt 0.440778 0.405325
vt 0.412536 0.456891
vt 0.440778 0.456891
vt 0.384294 0.456891
vt 0.412400 0.370757
vt 0.384294 0.405325
vt 0.412536 0.405325
vt 0.440778 0.405325
vt 0.412536 0.456891
vt 0.440778 0.456891
vt 0.384294 0.456891
vt 0.512604 0.367315
vt 0.484498 0.401883
vt 0.512740 0.401883
vt 0.540981 0.401883
vt 0.512740 0.453449
vt 0.540981 0.453449
vt 0.484498 0.453449
vt 0.412400 0.370757
vt 0.384294 0.405325
vt 0.412536 0.405325
vt 0.440778 0.405325
vt 0.412536 0.456891
vt 0.440778 0.456891
vt 0.384294 0.456891
vn 0.854651 0.501863 0.133061
vn 0.854651 0.501863 0.133061
vn 0.854651 0.501863 0.133061
vn 0.000000 -1.000000 -0.000000
vn 0.000000 -1.000000 -0.000000
vn 0.000000 -1.000000 -0.000000
vn 0.000000 -1.000000 -0.000000
vn -0.823623 -0.044179 -0.565415
vn -0.823623 -0.044179 -0.565415
vn -0.823623 -0.044179 -0.565415
vn 0.768753 -0.440300 0.463848
vn 0.768753 -0.440300 0.463848
vn 0.768753 -0.440300 0.463848
vn 0.768753 -0.440300 0.463848
vn -0.706131 0.641308 0.300172
vn -0.706131 0.641308 0.300172
vn -0.706131 0.641308 0.300172
vn -0.706131 0.641308 0.300172
vn 0.123684 -0.316946 -0.940344
vn 0.123684 -0.316946 -0.940344
vn 0.123684 -0.316946 -0.940344
vn 0.123684 -0.316946 -0.940344
vn 0.581859 0.795940 -0.167093
vn 0.581859 0.795940 -0.167093
vn 0.581859 0.795940 -0.167093
vn 0.581859 0.795940 -0.167093
vn -0.191306 -0.495608 0.847216
vn -0.191306 -0.495608 0.847216
vn -0.191306 -0.495607 0.847216
vn -0.191306 -0.495607 0.847216
vn -0.625212 -0.395270 -0.672957
vn -0.625212 -0.395270 -0.672957
vn -0.625212 -0.395270 -0.672957
vn -0.625212 -0.395270 -0.672957
vn 0.174441 -0.900622 0.398057
vn 0.174441 -0.900622 0.398057
vn 0.174441 -0.900622 0.398057
vn 0.174441 -0.900622 0.398057
vn -0.029869 0.944637 0.326754
vn -0.029869 0.944637 0.326754
vn -0.029869 0.944637 0.326754
vn -0.029869 0.944637 0.326754
vn -0.021101 -0.297226 -0.954574
vn -0.021101 -0.297226 -0.954574
vn -0.021101 -0.297226 -0.954574
vn -0.021101 -0.297226 -0.954574
vn -0.339600 0.922509 0.183436
vn -0.339600 0.922509 0.183436
vn -0.339600 0.922509 0.183436
vn -0.339600 0.922509 0.183436
vn -0.104535 -0.807682 0.580277
vn -0.108243 -0.814599 0.569834
vn -0.108243 -0.814599 0.569834
vn -0.105029 -0.808610 0.578895
vn 0.422798 0.005194 -0.906209
vn 0.422798 0.005194 -0.906209
vn 0.422798 0.005194 -0.906209
vn 0.422798 0.005194 -0.906209
vn -0.444412 0.066322 0.893364
vn -0.444412 0.066322 0.893364
vn -0.444412 0.066322 0.893364
vn -0.032302 -0.653622 0.756132
vn -0.104535 -0.807682 0.580277
vn -0.105029 -0.808610 0.578895
vn 0.818123 0.574013 -0.034407
vn 0.818123 0.574013 -0.034407
vn 0.818123 0.574013 -0.034407
vn 0.818123 0.574013 -0.034407
vn -0.044792 -0.836336 0.546384
vn -0.044792 -0.836336 0.546384
vn -0.044792 -0.836337 0.546384
vn -0.044792 -0.836336 0.546384
vn -0.789047 0.331392 -0.517285
vn -0.789047 0.331392 -0.517285
vn -0.789047 0.331392 -0.517285
vn -0.789047 0.331392 -0.517285
vn 0.929419 0.193676 0.314119
vn 0.940052 0.108951 0.323158
vn 0.941259 0.093211 0.324567
vn 0.929419 0.193676 0.314119
vn -0.332159 0.142355 0.932419
vn -0.331991 0.100665 0.937896
vn -0.332071 0.108941 0.936942
vn -0.332159 0.142355 0.932419
vn -0.941971 0.090163 -0.323360
vn -0.941971 0.090163 -0.323360
vn -0.941971 0.090163 -0.323360
vn -0.941971 0.090163 -0.323360
vn 0.330105 0.143035 -0.933044
vn 0.335390 0.101378 -0.936609
vn 0.334866 0.105731 -0.936315
vn 0.330105 0.143035 -0.933044
vn -0.331991 0.100665 0.937896
vn -0.347114 0.043163 0.936829
vn -0.326364 0.030201 0.944762
vn -0.332071 0.108941 0.936942
vn 0.940052 0.108951 0.323158
vn 0.942533 -0.030207 0.332744
vn 0.942533 -0.030207 0.332744
vn 0.941259 0.093211 0.324567
vn 0.335390 0.101378 -0.936609
vn 0.330698 0.046063 -0.942612
vn 0.387582 0.045665 -0.920703
vn 0.334866 0.105731 -0.936315
vn -0.943768 0.043563 -0.327726
vn -0.943276 0.130267 -0.305387
vn -0.943276 0.130267 -0.305387
vn -0.944367 0.066040 -0.322195
vn -0.347114 0.043163 0.936829
vn -0.352462 -0.022744 0.935550
vn -0.326364 0.030201 0.944762
vn 0.330698 0.046063 -0.942612
vn 0.424761 0.035650 -0.904603
vn 0.387582 0.045665 -0.920703
vn -0.352462 -0.022744 0.935550
vn -0.311735 -0.031347 0.949652
vn -0.311735 -0.031347 0.949652
vn -0.326364 0.030201 0.944762
vn 0.940826 0.045820 0.335780
vn 0.993788 -0.055999 0.096171
vn 0.901719 -0.002822 0.432313
vn 0.940826 0.045820 0.335780
vn 0.330698 0.046063 -0.942612
vn 0.306553 -0.249376 -0.918606
vn 0.311817 -0.177301 -0.933453
vn 0.424761 0.035650 -0.904603
vn -0.943618 -0.074268 -0.322597
vn -0.943768 0.043563 -0.327726
vn -0.944367 0.066040 -0.322195
vn -0.946469 -0.069319 -0.315265
vn -0.650443 0.000005 0.759555
vn -0.650443 0.000005 0.759555
vn -0.650443 0.000005 0.759555
vn 0.993788 -0.055999 0.096171
vn 0.856195 -0.067001 0.512289
vn 0.901719 -0.002822 0.432313
vn -0.943618 -0.074268 -0.322597
vn -0.946469 -0.069319 -0.315265
vn -0.966663 -0.099658 -0.235863
vn 0.993788 -0.055999 0.096171
vn 0.994672 -0.099734 -0.026110
vn 0.856195 -0.067001 0.512289
vn -0.440196 -0.000022 -0.897902
vn -0.440196 -0.000022 -0.897902
vn -0.440196 -0.000022 -0.897902
vn -0.959291 -0.077572 -0.271558
vn -0.943618 -0.074268 -0.322597
vn -0.966663 -0.099658 -0.235863
vn -0.350702 -0.095231 0.931633
vn -0.350702 -0.095231 0.931632
vn -0.350702 -0.095231 0.931632
vn -0.350702 -0.095231 0.931632
vn 0.994672 -0.099734 -0.026110
vn 0.963021 0.013233 0.269100
vn 0.963021 0.013233 0.269100
vn 0.856195 -0.067001 0.512289
vn 0.413241 0.104957 -0.904553
vn 0.413241 0.104957 -0.904553
vn 0.413241 0.104957 -0.904553
vn 0.413241 0.104957 -0.904553
vn -0.963265 0.000696 -0.268552
vn -0.959291 -0.077572 -0.271558
vn -0.966663 -0.099658 -0.235863
vn -0.963265 0.000696 -0.268552
vn 0.401796 -0.727813 0.555741
vn 0.401796 -0.727813 0.555741
vn 0.401796 -0.727813 0.555741
vn 0.401796 -0.727813 0.555741
vn -0.347114 0.043163 0.936829
vn -0.476408 0.000000 0.879225
vn -0.352462 -0.022744 0.935550
vn -0.458313 0.860220 -0.223543
vn -0.458313 0.860220 -0.223543
vn -0.458313 0.860220 -0.223543
vn -0.458313 0.860220 -0.223543
vn 0.424761 0.035650 -0.904603
vn 0.595332 0.026956 -0.803028
vn 0.595332 0.026956 -0.803027
vn 0.387582 0.045665 -0.920703
vn -0.174275 -0.714847 0.677216
vn -0.174275 -0.714847 0.677216
vn -0.174275 -0.714847 0.677216
vn -0.946469 -0.069319 -0.315265
vn -0.857025 -0.370667 -0.357930
vn -0.878981 -0.340094 -0.334259
vn -0.966663 -0.099658 -0.235863
vn 0.224330 0.711416 -0.666005
vn 0.224330 0.711416 -0.666005
vn 0.224330 0.711416 -0.666005
vn 0.224330 0.711416 -0.666005
vn 0.856195 -0.067001 0.512289
vn 0.729900 -0.191958 0.656048
vn 0.728124 -0.197141 0.656484
vn 0.901719 -0.002822 0.432313
vn 0.306553 -0.249376 -0.918606
vn 0.241224 -0.641448 -0.728255
vn 0.311817 -0.177301 -0.933453
vn 0.993788 -0.055999 0.096171
vn 0.868329 -0.285539 -0.405551
vn 0.877627 -0.272993 -0.394013
vn 0.994672 -0.099734 -0.026110
vn -0.118642 0.641811 0.757630
vn -0.118642 0.641811 0.757630
vn -0.118642 0.641811 0.757630
vn -0.118642 0.641811 0.757630
vn -0.959291 -0.077572 -0.271558
vn -0.912880 -0.408021 -0.013004
vn -0.909007 -0.416775 -0.002219
vn -0.943618 -0.074268 -0.322597
vn -0.857025 -0.370667 -0.357930
vn -0.690174 -0.537699 -0.484294
vn -0.690174 -0.537699 -0.484294
vn -0.878981 -0.340094 -0.334259
vn -0.116963 0.972070 -0.203471
vn -0.116963 0.972070 -0.203471
vn -0.116963 0.972070 -0.203471
vn -0.116963 0.972070 -0.203471
vn 0.729900 -0.191958 0.656048
vn 0.696787 -0.279096 0.660752
vn 0.696787 -0.279096 0.660752
vn 0.728124 -0.197141 0.656484
vn 0.868329 -0.285539 -0.405551
vn 0.802748 -0.361537 -0.474222
vn 0.802748 -0.361537 -0.474222
vn 0.877627 -0.272993 -0.394013
vn -0.043606 0.987588 0.150892
vn -0.043606 0.987588 0.150892
vn -0.043606 0.987588 0.150892
vn -0.043606 0.987588 0.150892
vn -0.912880 -0.408021 -0.013004
vn -0.761154 -0.597444 0.252401
vn -0.761153 -0.597444 0.252401
vn -0.909007 -0.416775 -0.002219
vn 0.700840 0.649170 0.295639
vn 0.700840 0.649170 0.295639
vn 0.700840 0.649170 0.295639
vn 0.371221 0.778315 0.506380
vn 0.371221 0.778315 0.506380
vn 0.371221 0.778315 0.506380
vn 0.238815 0.947332 0.213376
vn 0.238815 0.947332 0.213376
vn 0.238815 0.947332 0.213376
vn 0.238815 0.947332 0.213376
vn 0.595837 0.803096 0.003870
vn 0.595837 0.803096 0.003870
vn 0.595837 0.803096 0.003870
vn 0.595837 0.803096 0.003870
vn -0.184752 0.700084 0.689746
vn -0.184752 0.700084 0.689746
vn -0.184752 0.700084 0.689746
vn -0.503130 0.760159 0.411118
vn -0.503130 0.760159 0.411118
vn -0.503130 0.760159 0.411118
vn -0.298365 0.937334 0.179955
vn -0.298365 0.937334 0.179955
vn -0.298365 0.937334 0.179955
vn -0.298365 0.937334 0.179955
vn 0.051910 0.873514 0.484023
vn 0.051910 0.873514 0.484023
vn 0.051910 0.873514 0.484023
vn 0.051910 0.873514 0.484023
vn -0.451090 0.707407 -0.544145
vn -0.451090 0.707407 -0.544145
vn -0.451090 0.707407 -0.544145
vn -0.098150 0.892633 -0.439968
vn -0.098150 0.892633 -0.439968
vn -0.098150 0.892633 -0.439968
vn -0.225236 0.968279 -0.108191
vn -0.225236 0.968279 -0.108192
vn -0.225236 0.968279 -0.108191
vn -0.225236 0.968279 -0.108191
vn -0.594459 0.768987 -0.235111
vn -0.594459 0.768987 -0.235111
vn -0.594459 0.768987 -0.235111
vn -0.594459 0.768987 -0.235111
vn 0.444317 0.871563 -0.207271
vn 0.444317 0.871563 -0.207271
vn 0.444317 0.871563 -0.207271
vn 0.484653 0.847253 0.217424
vn 0.484653 0.847253 0.217424
vn 0.484653 0.847253 0.217424
vn 0.148915 0.948866 0.278350
vn 0.148915 0.948865 0.278350
vn 0.148915 0.948866 0.278350
vn 0.148915 0.948865 0.278350
vn 0.102474 0.977060 -0.186687
vn 0.102474 0.977060 -0.186687
vn 0.102474 0.977060 -0.186687
vn 0.102474 0.977060 -0.186687
vn -0.361433 0.859692 -0.360966
vn -0.361433 0.859692 -0.360966
vn -0.361433 0.859692 -0.360966
vn 0.021234 0.835201 -0.549534
vn 0.021234 0.835202 -0.549534
vn 0.021234 0.835201 -0.549534
vn 0.196725 0.945356 -0.260003
vn 0.196725 0.945356 -0.260003
vn 0.196725 0.945356 -0.260003
vn 0.196725 0.945356 -0.260003
vn -0.221488 0.973806 -0.051435
vn -0.221488 0.973806 -0.051435
vn -0.221488 0.973806 -0.051435
vn -0.221488 0.973806 -0.051435
vn -0.274015 0.776185 0.567849
vn -0.274015 0.776185 0.567849
vn -0.274015 0.776185 0.567849
vn -0.580440 0.759786 0.292943
vn -0.580440 0.759786 0.292943
vn -0.580440 0.759786 0.292943
vn -0.376461 0.925473 0.042160
vn -0.376461 0.925473 0.042160
vn -0.376461 0.925473 0.042160
vn -0.376461 0.925473 0.042160
vn -0.061159 0.936048 0.346517
vn -0.061159 0.936048 0.346517
vn -0.061159 0.936048 0.346517
vn -0.061159 0.936048 0.346517
vn -0.719214 0.679135 0.146655
vn -0.719214 0.679135 0.146655
vn -0.719214 0.679135 0.146655
vn -0.606259 0.751921 -0.258968
vn -0.606259 0.751921 -0.258968
vn -0.606259 0.751921 -0.258968
vn -0.313948 0.934249 -0.169164
vn -0.313948 0.934249 -0.169164
vn -0.313948 0.934249 -0.169164
vn -0.313948 0.934249 -0.169164
vn -0.436048 0.856521 0.276105
vn -0.436048 0.856521 0.276105
vn -0.436048 0.856521 0.276105
vn -0.436048 0.856521 0.276105
vn 0.715553 0.215639 0.664442
vn 0.715553 0.215639 0.664442
vn 0.715553 0.215639 0.664442
s off
f 15/21/1 17/23/2 16/22/3
f 7/7/4 1/9/5 2/10/6 8/8/7
f 19/24/8 20/26/9 18/25/10
f 3/3/11 9/15/12 10/16/13 4/4/14
f 4/4/15 10/16/16 11/17/17 5/5/18
f 5/5/19 11/17/20 9/15/21 3/3/22
f 5/5/23 13/18/24 12/19/25 4/4/26
f 4/4/27 12/19/28 14/20/29 6/6/30
f 6/6/31 14/20/32 13/18/33 5/5/34
f 9/15/35 15/21/36 16/22/37 10/16/38
f 10/16/39 16/22/40 17/23/41 11/17/42
f 11/17/43 17/23/44 15/21/45 9/15/46
f 13/18/47 19/24/48 18/25/49 21/27/50
f 21/27/51 18/25/52 20/26/53 14/20/54
f 14/20/55 20/26/56 19/24/57 13/18/58
f 23/28/59 24/30/60 22/29/61
f 12/19/62 21/27/63 14/20/64
f 13/18/65 23/28/66 22/29/67 12/19/68
f 12/19/69 22/29/70 24/30/71 21/27/72
f 21/27/73 24/30/74 23/28/75 13/18/76
f 1/1/77 25/31/78 26/32/79 2/2/80
f 2/2/81 26/32/82 27/34/83 8/11/84
f 28/36/85 7/7/86 8/8/87 27/33/88
f 7/13/89 28/35/90 25/31/91 1/1/92
f 26/32/93 30/41/94 29/40/95 27/34/96
f 25/31/97 31/42/98 30/41/99 26/32/100
f 28/35/101 32/43/102 31/42/103 25/31/104
f 32/44/105 28/38/106 27/37/107 29/39/108
f 30/41/109 33/45/110 29/40/111
f 32/43/112 34/46/113 31/42/114
f 33/45/115 36/49/116 35/48/117 29/40/118
f 34/46/119 37/50/120 36/49/121 33/45/122
f 32/43/123 38/51/124 37/50/125 34/46/126
f 38/52/127 32/44/128 29/39/129 35/47/130
f 52/68/131 54/70/132 53/69/133
f 37/50/134 40/55/135 36/49/136
f 38/52/137 35/47/138 39/53/139
f 37/50/140 41/56/141 40/55/142
f 55/71/143 57/73/144 56/72/145
f 42/58/146 38/52/147 39/53/148
f 40/55/149 4/4/150 6/12/151 39/54/152
f 41/56/153 3/3/154 4/4/155 40/55/156
f 42/57/157 5/14/158 3/3/159 41/56/160
f 5/5/161 42/58/162 39/53/163 6/6/164
f 31/42/165 44/59/166 43/60/167 30/41/168
f 30/41/169 43/60/170 33/45/171
f 33/45/172 43/60/173 45/61/174 34/46/175
f 34/46/176 45/61/177 44/59/178 31/42/179
f 36/49/180 46/62/181 35/48/182
f 35/48/183 46/62/184 47/63/185 39/54/186
f 39/54/187 47/63/188 48/64/189 40/55/190
f 40/55/191 48/64/192 46/62/193 36/49/194
f 38/51/195 49/65/196 37/50/197
f 37/50/198 49/65/199 50/66/200 41/56/201
f 41/56/202 50/66/203 51/67/204 42/57/205
f 42/57/206 51/67/207 49/65/208 38/51/209
f 46/62/210 52/68/211 53/69/212 47/63/213
f 47/63/214 53/69/215 54/70/216 48/64/217
f 48/64/218 54/70/219 52/68/220 46/62/221
f 49/65/222 55/71/223 56/72/224 50/66/225
f 50/66/226 56/72/227 57/73/228 51/67/229
f 51/67/230 57/73/231 55/71/232 49/65/233
f 58/74/234 64/75/235 63/76/236
f 58/74/237 63/76/238 62/77/239
f 63/76/240 61/78/241 60/79/242 62/77/243
f 64/75/244 59/80/245 61/78/246 63/76/247
f 65/81/248 71/82/249 70/83/250
f 65/81/251 70/83/252 69/84/253
f 70/83/254 68/85/255 67/86/256 69/84/257
f 71/82/258 66/87/259 68/85/260 70/83/261
f 72/88/262 78/89/263 77/90/264
f 72/88/265 77/90/266 76/91/267
f 77/90/268 75/92/269 74/93/270 76/91/271
f 78/89/272 73/94/273 75/92/274 77/90/275
f 79/95/276 85/96/277 84/97/278
f 79/95/279 84/97/280 83/98/281
f 84/97/282 82/99/283 81/100/284 83/98/285
f 85/96/286 80/101/287 82/99/288 84/97/289
f 86/102/290 92/103/291 91/104/292
f 86/102/293 91/104/294 90/105/295
f 91/104/296 89/106/297 88/107/298 90/105/299
f 92/103/300 87/108/301 89/106/302 91/104/303
f 93/109/304 99/110/305 98/111/306
f 93/109/307 98/111/308 97/112/309
f 98/111/310 96/113/311 95/114/312 97/112/313
f 99/110/314 94/115/315 96/113/316 98/111/317
f 100/116/318 106/117/319 105/118/320
f 100/116/321 105/118/322 104/119/323
f 105/118/324 103/120/325 102/121/326 104/119/327
f 106/117/328 101/122/329 103/120/330 105/118/331
f 44/59/332 45/61/333 43/60/334
