# This file uses centimeters as units for non-parametric coordinates.

v 3.371460 8.746884 20.565979
v 2.862427 8.745529 35.597595
v -0.494568 8.746999 24.321716
v -1.627075 8.745640 31.008423
v 0.571594 8.746545 21.785645
v -0.763794 8.744699 33.897217
v -0.267883 12.028904 31.055115
v 0.598450 11.387236 24.359253
v 1.378845 10.696609 21.813354
v 0.315247 11.351265 33.934265
v 6.968811 8.746999 24.578064
v 7.653992 8.745640 31.327271
v 6.083984 8.746545 21.974976
v 6.604309 8.744699 34.150330
v 6.294800 12.028904 31.280579
v 5.875854 11.387236 24.540527
v 5.276672 10.696609 21.947266
v 5.525391 11.351265 34.113220
v 3.237122 12.480854 24.449890
v 3.013489 13.388877 31.167847
v 3.327698 11.504358 21.880310
v 2.920288 12.430944 34.023743
v 6.294800 5.462372 31.280579
v 5.875854 6.106758 24.540527
v 5.276672 6.796476 21.947266
v 5.525391 6.138134 34.113220
v 0.598450 6.106758 24.359253
v -0.267883 5.462372 31.055115
v 1.378845 6.796476 21.813354
v 0.315247 6.138134 33.934265
v 3.237122 5.013132 24.449890
v 3.013489 4.102401 31.167847
v 3.327698 5.988733 21.880310
v 2.920288 5.058460 34.023743
v 1.950928 8.478441 36.203491
v 2.882751 8.127652 36.261047
v 2.196106 9.561165 36.115662
v 3.241455 9.717931 36.155151
v 3.653259 8.758898 36.252747
v 1.918396 9.698956 33.876343
v 1.515564 7.986613 34.453125
v 2.985229 7.431835 34.659668
v 4.209351 8.430161 34.488708
v 3.571045 9.946882 33.954407
v 1.484131 7.907347 22.137512
v 4.495361 7.165019 22.240906
v 1.820068 9.962727 22.149048
v 3.758240 10.752918 22.215576
v 4.928894 6.034994 14.965881
v 6.087769 7.220941 15.602966
v 4.865784 4.087515 15.414307
v 6.825317 4.133940 16.937378
v 7.236633 6.316481 16.620789
v 5.357117 9.352244 22.270508
v 2.029480 7.519469 19.355835
v 2.306091 8.932766 18.821716
v 3.801453 9.479161 18.673828
v 5.019531 8.490739 19.005920
v 4.335938 7.003433 19.613586
v 4.886536 2.428363 10.743530
v 0.000000 0.000000 0.000000
v 4.638245 0.433892 10.284119
v 6.719177 0.095469 8.733215
v 6.244141 3.406310 10.144043
v 7.311340 2.302706 8.939880
vt 0.176697 0.304613
vt 0.176697 0.304614
vt 0.176697 0.304614
vt 0.176697 0.304613
vt 0.176697 0.304613
vt 0.176697 0.304614
vt 0.176697 0.304613
vt 0.176697 0.304614
vt 0.176697 0.304614
vt 0.176697 0.304614
vt 0.176697 0.304614
vt 0.176697 0.304614
vt 0.176697 0.304614
vt 0.176697 0.304614
vt 0.176697 0.304614
vt 0.176697 0.304614
vt 0.176697 0.304614
vt 0.176697 0.304614
vt 0.176697 0.304614
vt 0.176697 0.304614
vt 0.176697 0.304614
vt 0.176697 0.304614
vt 0.176697 0.304613
vt 0.176697 0.304613
vt 0.176697 0.304614
vt 0.176697 0.304613
vt 0.176697 0.304614
vt 0.176697 0.304613
vt 0.176697 0.304613
vt 0.176697 0.304613
vt 0.176697 0.304614
vt 0.176697 0.304613
vt 0.176697 0.304613
vt 0.176697 0.304614
vt 0.144318 0.301095
vt 0.144318 0.301095
vt 0.144318 0.301095
vt 0.144318 0.301095
vt 0.144318 0.301095
vt 0.144318 0.301095
vt 0.144318 0.301095
vt 0.144318 0.301095
vt 0.144318 0.301095
vt 0.144318 0.301095
vt 0.142914 0.302503
vt 0.142914 0.302503
vt 0.142914 0.302503
vt 0.142914 0.302503
vt 0.142914 0.302503
vt 0.142914 0.302503
vt 0.142914 0.302503
vt 0.142914 0.302503
vt 0.142914 0.302503
vt 0.142914 0.302503
vt 0.142914 0.302503
vt 0.142914 0.302503
vt 0.142914 0.302503
vt 0.142914 0.302503
vt 0.142914 0.302503
vt 0.142914 0.302503
vt 0.142914 0.302503
vt 0.142914 0.302503
vt 0.142914 0.302502
vt 0.142914 0.302503
vt 0.142914 0.302503
vn -0.912076 -0.379778 -0.154554
vn -0.912075 -0.379778 -0.154554
vn -0.912076 -0.379778 -0.154554
vn -0.912076 -0.379778 -0.154554
vn -0.859703 -0.361030 -0.361343
vn -0.859702 -0.361030 -0.361343
vn -0.859702 -0.361030 -0.361343
vn -0.859702 -0.361030 -0.361343
vn -0.891898 -0.365434 0.266413
vn -0.891898 -0.365434 0.266413
vn -0.891898 -0.365434 0.266413
vn -0.891898 -0.365434 0.266413
vn 0.383758 0.916722 -0.111130
vn 0.383758 0.916722 -0.111130
vn 0.383758 0.916723 -0.111130
vn 0.383758 0.916722 -0.111130
vn 0.372275 0.871869 -0.318207
vn 0.372275 0.871869 -0.318207
vn 0.372275 0.871869 -0.318207
vn 0.372275 0.871869 -0.318207
vn 0.355264 0.882684 0.307662
vn 0.355264 0.882684 0.307662
vn 0.355264 0.882684 0.307662
vn 0.355264 0.882684 0.307662
vn -0.375292 0.916814 -0.136414
vn -0.375292 0.916814 -0.136414
vn -0.375292 0.916814 -0.136414
vn -0.375292 0.916814 -0.136414
vn -0.349476 0.871676 -0.343580
vn -0.349476 0.871676 -0.343580
vn -0.349476 0.871676 -0.343580
vn -0.349476 0.871676 -0.343580
vn -0.375442 0.882355 0.283711
vn -0.375443 0.882355 0.283711
vn -0.375443 0.882355 0.283711
vn -0.375443 0.882355 0.283711
vn 0.920380 -0.379679 -0.093511
vn 0.920380 -0.379679 -0.093511
vn 0.920380 -0.379679 -0.093511
vn 0.920380 -0.379679 -0.093511
vn 0.882884 -0.361226 -0.300054
vn 0.882884 -0.361226 -0.300054
vn 0.882884 -0.361226 -0.300054
vn 0.882884 -0.361226 -0.300054
vn 0.872408 -0.365749 0.324240
vn 0.872408 -0.365749 0.324240
vn 0.872408 -0.365749 0.324240
vn 0.872408 -0.365749 0.324240
vn 0.920392 0.379687 -0.093359
vn 0.920392 0.379687 -0.093359
vn 0.920392 0.379687 -0.093359
vn 0.920392 0.379687 -0.093359
vn 0.882850 0.361211 -0.300169
vn 0.882850 0.361211 -0.300169
vn 0.882850 0.361211 -0.300169
vn 0.882850 0.361211 -0.300169
vn 0.872338 0.365723 0.324458
vn 0.872338 0.365723 0.324458
vn 0.872338 0.365723 0.324458
vn 0.872338 0.365723 0.324458
vn -0.375263 -0.916771 -0.136778
vn -0.375263 -0.916771 -0.136778
vn -0.375263 -0.916771 -0.136778
vn -0.375263 -0.916771 -0.136778
vn -0.144919 -0.423765 -0.894104
vn -0.144919 -0.423765 -0.894104
vn -0.144919 -0.423765 -0.894104
vn -0.349522 -0.871764 -0.343309
vn -0.349522 -0.871764 -0.343309
vn -0.349522 -0.871764 -0.343309
vn -0.349522 -0.871764 -0.343309
vn -0.375486 -0.882507 0.283181
vn -0.375486 -0.882507 0.283181
vn -0.375486 -0.882507 0.283181
vn -0.375486 -0.882507 0.283181
vn 0.383754 -0.916680 -0.111495
vn 0.383754 -0.916680 -0.111495
vn 0.383754 -0.916680 -0.111495
vn 0.383754 -0.916680 -0.111495
vn 0.372303 -0.871957 -0.317934
vn 0.372303 -0.871957 -0.317934
vn 0.372302 -0.871957 -0.317934
vn 0.372302 -0.871957 -0.317934
vn 0.355344 -0.882836 0.307136
vn 0.355344 -0.882836 0.307136
vn 0.355344 -0.882836 0.307136
vn 0.355344 -0.882836 0.307136
vn -0.419061 0.160778 0.893610
vn -0.419061 0.160778 0.893610
vn -0.419061 0.160778 0.893610
vn -0.419004 -0.160753 0.893641
vn -0.419004 -0.160753 0.893641
vn -0.419004 -0.160753 0.893641
vn -0.859661 0.361016 -0.361456
vn -0.859661 0.361016 -0.361456
vn -0.859661 0.361016 -0.361455
vn -0.859661 0.361016 -0.361456
vn -0.912098 0.379785 -0.154404
vn -0.912098 0.379785 -0.154404
vn -0.912098 0.379785 -0.154404
vn -0.912098 0.379785 -0.154404
vn -0.891843 0.365408 0.266634
vn -0.891843 0.365408 0.266634
vn -0.891842 0.365408 0.266634
vn -0.891843 0.365408 0.266634
vn -0.393147 -0.175572 -0.902557
vn -0.393147 -0.175572 -0.902557
vn -0.393147 -0.175572 -0.902557
vn -0.393182 0.175587 -0.902539
vn -0.393182 0.175587 -0.902539
vn -0.393182 0.175587 -0.902539
vn -0.144957 0.423847 -0.894059
vn -0.144957 0.423846 -0.894059
vn -0.144957 0.423847 -0.894059
vn 0.356026 -0.160474 0.920594
vn 0.356026 -0.160474 0.920594
vn 0.356026 -0.160474 0.920594
vn 0.356088 0.160499 0.920566
vn 0.356088 0.160499 0.920566
vn 0.356088 0.160499 0.920566
vn 0.205909 0.423707 -0.882085
vn 0.205909 0.423707 -0.882085
vn 0.205909 0.423707 -0.882085
vn 0.453827 0.175467 -0.873643
vn 0.453827 0.175467 -0.873643
vn 0.453827 0.175467 -0.873643
vn 0.129341 0.387719 0.912658
vn 0.129341 0.387719 0.912658
vn 0.129341 0.387719 0.912658
vn -0.191769 0.387992 0.901492
vn -0.191769 0.387992 0.901492
vn -0.191769 0.387992 0.901492
vn 0.453794 -0.175453 -0.873663
vn 0.453794 -0.175453 -0.873663
vn 0.453794 -0.175453 -0.873663
vn 0.205875 -0.423625 -0.882132
vn 0.205874 -0.423625 -0.882132
vn 0.205875 -0.423625 -0.882132
vn -0.191712 -0.387848 0.901565
vn -0.191712 -0.387848 0.901565
vn -0.191712 -0.387848 0.901565
vn 0.129280 -0.387576 0.912728
vn 0.129280 -0.387576 0.912728
vn 0.129280 -0.387576 0.912728
vn -0.364221 -0.865857 0.342978
vn -0.364221 -0.865857 0.342978
vn -0.364221 -0.865857 0.342978
vn -0.364221 -0.865857 0.342978
vn -0.042131 0.080818 0.995838
vn -0.042131 0.080818 0.995838
vn -0.042131 0.080818 0.995838
vn -0.042131 0.080818 0.995838
vn -0.151259 0.985283 0.079616
vn -0.151259 0.985283 0.079616
vn -0.151259 0.985283 0.079616
vn -0.151259 0.985283 0.079616
vn 0.886222 0.423705 0.187307
vn 0.886222 0.423705 0.187307
vn 0.886222 0.423705 0.187307
vn 0.886222 0.423705 0.187307
vn -0.955125 0.256614 0.147938
vn -0.955125 0.256614 0.147938
vn -0.955125 0.256614 0.147938
vn -0.955125 0.256614 0.147938
vn 0.613578 -0.713916 0.337411
vn 0.613578 -0.713916 0.337411
vn 0.613578 -0.713916 0.337411
vn 0.613578 -0.713916 0.337411
vn -0.049608 0.080011 0.995559
vn -0.049608 0.080011 0.995559
vn -0.049608 0.080011 0.995559
vn -0.297577 0.652689 -0.696739
vn -0.297577 0.652689 -0.696739
vn -0.297577 0.652689 -0.696739
vn -0.297577 0.652689 -0.696739
vn -0.911712 0.018968 0.410391
vn -0.911712 0.018968 0.410391
vn -0.911712 0.018968 0.410391
vn -0.303976 -0.800065 0.517199
vn -0.303976 -0.800065 0.517199
vn -0.303976 -0.800065 0.517199
vn -0.303976 -0.800065 0.517199
vn 0.713379 -0.036587 0.699823
vn 0.713379 -0.036587 0.699823
vn 0.713379 -0.036587 0.699823
vn 0.713379 -0.036587 0.699823
vn -0.843161 -0.070597 -0.533006
vn -0.843161 -0.070597 -0.533006
vn -0.843161 -0.070597 -0.533006
vn -0.843161 -0.070597 -0.533006
vn 0.649505 0.756312 -0.078326
vn 0.649505 0.756312 -0.078326
vn 0.649505 0.756312 -0.078326
vn 0.649505 0.756312 -0.078326
vn -0.097354 -0.991550 0.085742
vn -0.097354 -0.991550 0.085742
vn -0.097354 -0.991550 0.085742
vn -0.970175 0.141696 -0.196679
vn -0.970175 0.141696 -0.196679
vn -0.970175 0.141696 -0.196679
vn -0.970175 0.141696 -0.196679
vn -0.350056 0.879652 -0.321984
vn -0.350056 0.879652 -0.321984
vn -0.350056 0.879652 -0.321984
vn -0.350056 0.879652 -0.321984
vn 0.645673 0.720182 -0.253859
vn 0.645673 0.720182 -0.253859
vn 0.645673 0.720182 -0.253859
vn 0.645673 0.720182 -0.253859
vn 0.921179 -0.389006 -0.010157
vn 0.921179 -0.389006 -0.010157
vn 0.921179 -0.389006 -0.010157
vn 0.921179 -0.389006 -0.010157
vn -0.234756 -0.968619 0.081646
vn -0.234756 -0.968619 0.081646
vn -0.234756 -0.968619 0.081646
vn -0.234756 -0.968619 0.081646
vn 0.317970 0.822339 -0.471862
vn 0.317970 0.822339 -0.471862
vn 0.317970 0.822339 -0.471862
vn 0.783925 -0.153999 -0.601454
vn 0.783925 -0.153999 -0.601454
vn 0.783925 -0.153999 -0.601454
vn -0.562622 0.823771 0.069703
vn -0.562622 0.823771 0.069703
vn -0.562622 0.823771 0.069703
vn -0.996363 0.078800 -0.032418
vn -0.996363 0.078800 -0.032418
vn -0.996363 0.078800 -0.032418
vn -0.996363 0.078800 -0.032418
vn -0.059001 -0.864059 0.499920
vn -0.059001 -0.864059 0.499920
vn -0.059001 -0.864059 0.499920
vn -0.059001 -0.864059 0.499920
vn 0.595557 0.694680 -0.403401
vn 0.595557 0.694680 -0.403401
vn 0.595557 0.694680 -0.403401
vn 0.595557 0.694680 -0.403401
vn 0.969629 -0.218921 0.109054
vn 0.969629 -0.218921 0.109054
vn 0.969629 -0.218921 0.109054
vn 0.969629 -0.218921 0.109054
vn -0.556614 0.656162 -0.509542
vn -0.556614 0.656162 -0.509542
vn -0.556614 0.656162 -0.509542
vn -0.556614 0.656162 -0.509542
s off
f 28/1/1 4/2/2 3/3/3 27/4/4
f 29/5/5 27/4/6 3/3/7 5/6/8
f 28/1/9 30/7/10 6/8/11 4/2/12
f 20/9/13 15/10/14 16/11/15 19/12/16
f 21/13/17 19/12/18 16/11/19 17/14/20
f 20/9/21 22/15/22 18/16/23 15/10/24
f 8/17/25 7/18/26 20/9/27 19/12/28
f 9/19/29 8/17/30 19/12/31 21/13/32
f 7/18/33 10/20/34 22/15/35 20/9/36
f 11/21/37 12/22/38 23/23/39 24/24/40
f 13/25/41 11/21/42 24/24/43 25/26/44
f 12/22/45 14/27/46 26/28/47 23/23/48
f 15/10/49 12/22/50 11/21/51 16/11/52
f 17/14/53 16/11/54 11/21/55 13/25/56
f 15/10/57 18/16/58 14/27/59 12/22/60
f 32/29/61 28/1/62 27/4/63 31/30/64
f 1/31/65 33/32/66 29/5/67
f 33/32/68 31/30/69 27/4/70 29/5/71
f 32/29/72 34/33/73 30/7/74 28/1/75
f 24/24/76 23/23/77 32/29/78 31/30/79
f 25/26/80 24/24/81 31/30/82 33/32/83
f 23/23/84 26/28/85 34/33/86 32/29/87
f 10/20/88 6/8/89 2/34/90
f 2/34/91 6/8/92 30/7/93
f 9/19/94 5/6/95 3/3/96 8/17/97
f 3/3/98 4/2/99 7/18/100 8/17/101
f 7/18/102 4/2/103 6/8/104 10/20/105
f 29/5/106 5/6/107 1/31/108
f 1/31/109 5/6/110 9/19/111
f 1/31/112 9/19/113 21/13/114
f 14/27/115 2/34/116 26/28/117
f 2/34/118 14/27/119 18/16/120
f 21/13/121 17/14/122 1/31/123
f 1/31/124 17/14/125 13/25/126
f 22/15/127 2/34/128 18/16/129
f 2/34/130 22/15/131 10/20/132
f 13/25/133 25/26/134 1/31/135
f 1/31/136 25/26/137 33/32/138
f 34/33/139 2/34/140 30/7/141
f 2/34/142 34/33/143 26/28/144
f 41/35/145 42/36/146 36/37/147 35/38/148
f 35/38/149 36/37/150 39/39/151 37/40/152
f 37/40/153 38/41/154 44/42/155 40/43/156
f 43/44/157 44/42/158 38/41/159 39/39/160
f 37/40/161 40/43/162 41/35/163 35/38/164
f 42/36/165 43/44/166 39/39/167 36/37/168
f 37/40/169 39/39/170 38/41/171
f 56/45/172 57/46/173 50/47/174 49/48/175
f 60/49/176 61/50/177 62/51/178
f 51/52/179 52/53/180 59/54/181 55/55/182
f 58/56/183 59/54/184 52/53/185 53/57/186
f 51/52/187 55/55/188 56/45/189 49/48/190
f 57/46/191 58/56/192 53/57/193 50/47/194
f 62/51/195 61/50/196 63/58/197
f 56/45/198 55/55/199 45/59/200 47/60/201
f 47/60/202 48/61/203 57/46/204 56/45/205
f 54/62/206 58/56/207 57/46/208 48/61/209
f 46/63/210 59/54/211 58/56/212 54/62/213
f 55/55/214 59/54/215 46/63/216 45/59/217
f 61/50/218 64/64/219 65/65/220
f 63/58/221 61/50/222 65/65/223
f 60/49/224 64/64/225 61/50/226
f 51/52/227 49/48/228 60/49/229 62/51/230
f 52/53/231 51/52/232 62/51/233 63/58/234
f 53/57/235 65/65/236 64/64/237 50/47/238
f 52/53/239 63/58/240 65/65/241 53/57/242
f 50/47/243 64/64/244 60/49/245 49/48/246
