# This file uses centimeters as units for non-parametric coordinates.

v 7.176132 -0.318855 3.690247
v 0.271042 -0.318855 6.050598
v 6.968033 3.679108 3.106262
v 0.062958 3.679108 5.466614
v 6.506454 3.679108 1.016663
v -1.808121 3.679108 1.421509
v 6.678024 -0.318855 -0.276489
v -1.932434 -0.318855 0.727844
v -8.189209 -0.318855 1.316833
v -11.305923 -0.318855 3.820862
v -8.532501 3.679108 1.319031
v -10.717621 3.679108 3.302612
v -15.179504 -0.318855 -6.429871
v -15.845276 -0.318855 -2.487854
v -14.562714 1.792574 -4.554871
v -14.926041 1.792574 -2.403442
v 17.520905 -0.318855 4.354004
v 13.556763 -0.318855 4.872742
v 13.155411 1.792573 4.057190
v 15.704544 1.792573 3.723572
v 0.528671 8.626952 5.529907
v -0.495438 8.581729 5.109741
v 0.507828 8.599128 4.041016
v -0.516266 8.553906 3.620911
v 0.612259 3.609316 3.070984
v -0.915482 3.609316 1.864258
v -1.334625 3.609316 4.153687
v 0.080963 3.609316 4.897827
v -0.215088 8.534688 2.529663
v 1.951477 9.280581 3.581421
v 7.448624 8.692031 12.283875
v 0.164352 2.693671 23.229675
v -7.491913 8.732724 12.356018
v -2.140564 9.280581 3.658142
v 7.502258 9.540536 7.946472
v 5.217758 6.866172 18.426025
v -5.024750 6.950472 18.387573
v -7.975250 9.540536 8.236694
v -3.076813 6.121415 20.791077
v -1.335526 8.133878 15.107849
v 3.648590 6.162349 20.518433
v 1.382675 8.097365 15.162781
v -6.392014 8.173865 13.466187
v -2.597687 9.904571 9.550842
v 6.146729 7.919982 14.127869
v 2.407440 9.800311 9.940491
v 0.042053 7.601630 14.648987
v -0.087921 8.767037 8.457092
v -3.756973 8.268113 12.250732
v -4.573303 9.171775 9.823303
v 3.483978 8.330405 12.044800
v 5.542496 8.893092 10.255188
v 5.301071 9.441607 6.659485
v -5.532242 9.476689 7.011902
v -3.106705 7.400986 15.755127
v 3.309845 7.297219 15.954529
v 1.262650 7.505165 16.239258
v -1.043320 7.495332 16.319763
v -7.145782 5.217448 18.419250
v 7.469254 4.975011 19.051086
v 9.127289 6.801823 12.376038
v -8.771805 6.879853 12.312927
v 0.100464 6.642820 17.427063
v 0.148209 5.859343 19.697083
vt 0.144433 0.353270
vt 0.144433 0.353270
vt 0.144433 0.353270
vt 0.144433 0.353270
vt 0.144433 0.353270
vt 0.144433 0.353270
vt 0.144433 0.353270
vt 0.144433 0.353270
vt 0.144433 0.353270
vt 0.144433 0.353270
vt 0.144433 0.353270
vt 0.144433 0.353270
vt 0.144433 0.353270
vt 0.144433 0.353270
vt 0.144433 0.353270
vt 0.144433 0.353270
vt 0.144433 0.353270
vt 0.144433 0.353270
vt 0.144433 0.353270
vt 0.144433 0.353270
vt 0.144433 0.353270
vt 0.144433 0.353270
vt 0.144433 0.353270
vt 0.144433 0.353270
vt 0.146308 0.354208
vt 0.146308 0.354208
vt 0.146308 0.354207
vt 0.146308 0.354207
vt 0.146308 0.354207
vt 0.146308 0.354207
vt 0.146308 0.354208
vt 0.146308 0.354208
vt 0.146308 0.354208
vt 0.146308 0.354208
vt 0.166707 0.304219
vt 0.166707 0.304219
vt 0.166707 0.304219
vt 0.166707 0.304219
vt 0.166707 0.304219
vt 0.166707 0.304219
vt 0.166707 0.304219
vt 0.166707 0.304219
vt 0.166707 0.304219
vt 0.166707 0.304219
vt 0.166707 0.304219
vt 0.166707 0.304219
vt 0.166707 0.304219
vt 0.166707 0.304219
vt 0.166707 0.304219
vt 0.166707 0.304219
vt 0.166707 0.304219
vt 0.166707 0.304219
vt 0.166707 0.304219
vt 0.166707 0.304219
vt 0.166707 0.304219
vt 0.166707 0.304219
vt 0.166707 0.304219
vt 0.166707 0.304219
vt 0.166707 0.304219
vt 0.166707 0.304219
vt 0.166707 0.304219
vt 0.166707 0.304219
vt 0.166707 0.304219
vt 0.166707 0.304219
vt 0.166707 0.304219
vt 0.166707 0.304219
vt 0.166707 0.304219
vt 0.166707 0.304219
vt 0.166707 0.304219
vt 0.166707 0.304219
vn 0.319633 0.153223 0.935071
vn 0.319633 0.153223 0.935071
vn 0.319633 0.153223 0.935071
vn 0.319633 0.153223 0.935071
vn 0.000000 1.000000 0.000000
vn 0.000000 1.000000 0.000000
vn 0.000000 1.000000 0.000000
vn 0.000000 1.000000 0.000000
vn -0.080550 0.239914 -0.967447
vn -0.080550 0.239914 -0.967447
vn -0.080550 0.239914 -0.967447
vn -0.080550 0.239914 -0.967447
vn -0.903885 0.399612 -0.152654
vn -0.903885 0.399612 -0.152654
vn -0.903885 0.399612 -0.152654
vn -0.903885 0.399612 -0.152654
vn 0.120157 0.377504 0.918179
vn 0.120157 0.377504 0.918179
vn 0.120157 0.377504 0.918179
vn 0.120157 0.377504 0.918179
vn -0.037314 0.085625 -0.995629
vn -0.037314 0.085625 -0.995628
vn -0.037314 0.085625 -0.995628
vn -0.037314 0.085625 -0.995628
vn 0.000000 1.000000 -0.000000
vn 0.000000 1.000000 -0.000000
vn 0.000000 1.000000 -0.000000
vn 0.000000 1.000000 -0.000000
vn -0.190853 0.142948 0.971155
vn -0.190853 0.142948 0.971155
vn -0.190853 0.142948 0.971155
vn -0.190853 0.142948 0.971155
vn 0.698159 0.181540 -0.692544
vn 0.698159 0.181540 -0.692544
vn 0.698159 0.181540 -0.692544
vn 0.698159 0.181540 -0.692544
vn -0.210412 0.968974 -0.129679
vn -0.210412 0.968974 -0.129679
vn -0.210412 0.968974 -0.129679
vn -0.210412 0.968974 -0.129679
vn -0.802730 0.236941 0.547251
vn -0.802730 0.236941 0.547252
vn -0.802730 0.236941 0.547251
vn -0.802730 0.236941 0.547251
vn -0.133145 0.208669 0.968881
vn -0.133145 0.208669 0.968881
vn -0.133145 0.208669 0.968881
vn -0.133145 0.208669 0.968881
vn 0.196576 0.965753 0.169346
vn 0.196576 0.965753 0.169346
vn 0.196576 0.965753 0.169346
vn 0.196576 0.965753 0.169346
vn 0.353537 0.213821 -0.910655
vn 0.353537 0.213821 -0.910655
vn 0.353537 0.213821 -0.910655
vn 0.353537 0.213821 -0.910655
vn -0.427705 -0.087920 0.899632
vn -0.427705 -0.087920 0.899632
vn -0.427705 -0.087920 0.899632
vn -0.427705 -0.087920 0.899632
vn -0.000000 -1.000000 0.000000
vn -0.000000 -1.000000 0.000000
vn -0.000000 -1.000000 0.000000
vn -0.000000 -1.000000 0.000000
vn 0.986606 -0.058237 0.152375
vn 0.986605 -0.058237 0.152375
vn 0.986606 -0.058237 0.152375
vn 0.986605 -0.058237 0.152375
vn 0.522780 0.211171 -0.825898
vn 0.522780 0.211171 -0.825898
vn 0.522780 0.211171 -0.825898
vn 0.522780 0.211171 -0.825898
vn -0.982909 0.151392 -0.104736
vn -0.982909 0.151392 -0.104736
vn -0.982909 0.151392 -0.104736
vn -0.982909 0.151392 -0.104736
vn 0.437242 0.878798 0.191136
vn 0.304551 0.890443 0.338171
vn 0.245911 0.902539 0.353484
vn 0.438219 0.878973 0.188073
vn -0.271663 0.893056 0.358680
vn -0.433502 0.875205 0.214691
vn -0.436999 0.875495 0.206254
vn -0.214451 0.905367 0.366498
vn -0.369174 0.908336 0.196563
vn -0.048442 0.985471 0.162791
vn -0.807812 0.553278 0.203283
vn -0.024906 0.968025 0.249614
vn -0.590685 0.729246 0.345386
vn -0.284472 0.908505 0.306097
vn 0.363874 0.878047 0.310851
vn 0.058760 0.962838 0.263611
vn 0.236561 0.925944 0.294393
vn 0.363874 0.878048 0.310851
vn 0.446052 0.878556 0.170810
vn -0.002672 0.983867 0.178883
vn 0.075536 0.996772 0.027219
vn 0.004025 0.996566 0.082703
vn 0.437242 0.878798 0.191136
vn 0.438219 0.878973 0.188073
vn 0.399744 0.916087 0.031452
vn 0.415723 0.906242 0.076811
vn -0.433502 0.875205 0.214691
vn -0.406810 0.908166 0.098690
vn -0.374053 0.926886 0.031107
vn -0.436999 0.875495 0.206254
vn 0.399744 0.916087 0.031452
vn 0.365863 0.928916 -0.057085
vn 0.365863 0.928916 -0.057085
vn 0.415723 0.906242 0.076811
vn -0.406810 0.908166 0.098690
vn -0.336409 0.940796 -0.041621
vn -0.336409 0.940796 -0.041621
vn -0.374053 0.926886 0.031107
vn -0.338292 0.881975 0.328145
vn -0.178556 0.939225 0.293215
vn -0.055687 0.963630 0.261373
vn -0.338292 0.881975 0.328145
vn -0.041150 0.997251 0.061626
vn -0.119173 0.992435 -0.029510
vn -0.119173 0.992435 -0.029510
vn -0.059390 0.997414 0.040462
vn 0.075536 0.996772 0.027219
vn 0.117066 0.993110 -0.005329
vn 0.117066 0.993110 -0.005329
vn 0.004025 0.996566 0.082703
vn 0.058760 0.962838 0.263611
vn 0.300653 0.907333 0.293863
vn 0.025336 0.966714 0.254601
vn 0.236561 0.925944 0.294393
vn -0.215933 0.726664 0.652175
vn -0.210397 0.825264 0.524092
vn -0.208973 0.839293 0.501915
vn 0.258529 0.814700 0.519063
vn 0.275606 0.716507 0.640826
vn 0.252980 0.837161 0.484935
vn 0.446052 0.878556 0.170810
vn 0.737139 0.661395 0.138501
vn -0.002672 0.983867 0.178883
vn 0.300653 0.907333 0.293863
vn 0.559766 0.768701 0.309451
vn 0.025336 0.966714 0.254601
vn -0.369174 0.908336 0.196563
vn -0.041150 0.997251 0.061626
vn -0.059390 0.997414 0.040462
vn -0.048442 0.985471 0.162791
vn -0.178556 0.939225 0.293215
vn -0.024906 0.968025 0.249614
vn -0.284472 0.908505 0.306097
vn -0.055687 0.963630 0.261373
vn 0.304551 0.890443 0.338171
vn 0.258529 0.814700 0.519063
vn 0.252980 0.837161 0.484935
vn 0.245911 0.902539 0.353484
vn -0.210397 0.825264 0.524092
vn -0.271663 0.893056 0.358680
vn -0.214451 0.905367 0.366498
vn -0.208973 0.839293 0.501915
s off
f 1/1/1 3/3/2 4/4/3 2/2/4
f 3/3/5 5/5/6 6/6/7 4/4/8
f 5/5/9 7/7/10 8/8/11 6/6/12
f 14/17/13 16/20/14 15/19/15 13/18/16
f 17/21/17 20/24/18 19/23/19 18/22/20
f 9/14/21 11/15/22 6/10/23 8/9/24
f 6/10/25 11/15/26 12/16/27 4/4/28
f 4/4/29 12/16/30 10/13/31 2/2/32
f 13/18/33 15/19/34 11/15/35 9/14/36
f 11/15/37 15/19/38 16/20/39 12/16/40
f 12/16/41 16/20/42 14/17/43 10/13/44
f 3/3/45 1/1/46 18/22/47 19/23/48
f 5/12/49 3/3/50 19/23/51 20/24/52
f 7/11/53 5/12/54 20/24/55 17/21/56
f 22/25/57 27/28/58 28/27/59 21/26/60
f 25/29/61 28/27/62 27/28/63 26/30/64
f 21/26/65 28/27/66 25/29/67 23/31/68
f 24/32/69 23/33/70 25/29/71 26/30/72
f 22/25/73 24/34/74 26/30/75 27/28/76
f 40/35/77 58/38/78 63/37/79 47/36/80
f 57/39/81 42/40/82 47/36/83 63/37/84
f 33/41/85 38/43/86 62/42/87
f 43/44/88 59/46/89 37/45/90
f 42/40/91 56/49/92 51/48/93 46/47/94
f 31/50/95 35/53/96 53/52/97 52/51/98
f 40/35/99 47/36/100 48/55/101 44/54/102
f 42/40/103 46/47/104 48/55/105 47/36/106
f 48/55/107 29/57/108 34/56/109 44/54/110
f 46/47/111 30/58/112 29/57/113 48/55/114
f 44/54/115 49/60/116 55/59/117 40/35/118
f 50/61/119 44/54/120 34/56/121 54/62/122
f 53/52/123 30/58/124 46/47/125 52/51/126
f 56/49/127 36/64/128 45/63/129 51/48/130
f 32/65/131 41/67/132 64/66/133
f 39/68/134 32/65/135 64/66/136
f 31/50/137 61/69/138 35/53/139
f 36/64/140 60/70/141 45/63/142
f 33/41/143 50/61/144 54/62/145 38/43/146
f 49/60/147 43/44/148 37/45/149 55/59/150
f 58/38/151 39/68/152 64/66/153 63/37/154
f 41/67/155 57/39/156 63/37/157 64/66/158
