# This file uses centimeters as units for non-parametric coordinates.

v 10.545845 0.000000 -7.662034
v 4.028166 0.000000 -12.397365
v -4.028112 0.000000 -12.397365
v -10.545805 0.000000 -7.662034
v -13.035353 0.000000 -0.000027
v -10.545805 0.000000 7.662034
v -4.028112 0.000000 12.397365
v 4.028166 0.000000 12.397365
v 10.545845 0.000000 7.662034
v 13.035353 0.000000 -0.000027
v 0.000020 0.000000 -0.000027
v 10.168646 27.974609 -7.387973
v 3.884097 27.974609 -11.953979
v -3.884058 27.974609 -11.953979
v -10.168608 27.974609 -7.387973
v -12.569102 27.974609 -0.000027
v -10.168608 27.974609 7.387918
v -3.884058 27.974609 11.953897
v 3.884097 27.974609 11.953897
v 10.168646 27.974609 7.387918
v 12.569115 27.974609 -0.000027
v 9.436868 23.757120 -6.856350
v 3.604593 23.757120 -11.093684
v -3.604540 23.757120 -11.093684
v -9.436829 23.757120 -6.856350
v -11.664545 23.757120 -0.000027
v -9.436829 23.757120 6.856270
v -3.604540 23.757120 11.093605
v 3.604593 23.757120 11.093605
v 9.436868 23.757120 6.856270
v 11.664585 23.757120 -0.000027
v 6.181549 24.723684 -4.491194
v 1.910311 24.723684 -8.341714
v 0.000020 23.975130 -0.000027
v -2.361109 24.723684 -7.266843
v -6.181508 24.723684 -4.491194
v -8.990184 24.723684 1.560055
v -6.181508 24.723684 4.491140
v -2.558695 24.723684 8.703532
v 2.361162 24.723684 7.266789
v 5.292799 24.723684 2.669769
v 7.640805 24.723684 -0.000027
v 11.279108 25.828794 8.194768
v 4.308250 25.828794 13.259347
v -4.308209 25.828794 13.259347
v -11.279094 25.828794 8.194768
v -13.941722 25.828794 -0.000027
v -11.279094 25.828794 -8.194744
v -4.308209 25.828794 -13.259347
v 4.308250 25.828794 -13.259347
v 11.279108 25.828794 -8.194744
v 13.941722 25.828794 -0.000027
v 11.888500 27.212841 8.637518
v 4.541018 27.212841 13.975728
v -4.540975 27.212841 13.975728
v -11.888486 27.212841 8.637518
v -14.694973 27.212841 -0.000028
v -11.888486 27.212841 -8.637491
v -4.540975 27.212841 -13.975728
v 4.541018 27.212841 -13.975728
v 11.888500 27.212841 -8.637491
v 14.694973 27.212841 -0.000028
vt 0.080525 0.256466
vt 0.080525 0.256466
vt 0.080525 0.256466
vt 0.080525 0.256466
vt 0.080525 0.256466
vt 0.080525 0.256466
vt 0.080525 0.256466
vt 0.080525 0.256466
vt 0.080525 0.256466
vt 0.080525 0.256466
vt 0.080525 0.256466
vt 0.080525 0.256466
vt 0.080525 0.256466
vt 0.080525 0.256466
vt 0.080525 0.256466
vt 0.080525 0.256466
vt 0.080525 0.256466
vt 0.080525 0.256466
vt 0.080525 0.256466
vt 0.080525 0.256466
vt 0.080525 0.256466
vt 0.080525 0.256466
vt 0.036825 0.255009
vt 0.080525 0.256466
vt 0.080525 0.256466
vt 0.080525 0.256466
vt 0.080525 0.256466
vt 0.080525 0.256466
vt 0.080525 0.256466
vt 0.080525 0.256466
vt 0.080525 0.256466
vt 0.080525 0.256466
vt 0.080525 0.256466
vt 0.080525 0.256466
vt 0.080525 0.256466
vt 0.080525 0.256466
vt 0.080525 0.256466
vt 0.080525 0.256466
vt 0.080525 0.256466
vt 0.080525 0.256466
vt 0.080525 0.256466
vt 0.080525 0.256466
vt 0.080525 0.256466
vt 0.036825 0.255009
vt 0.036825 0.255009
vt 0.036825 0.255009
vt 0.036825 0.255009
vt 0.036825 0.255009
vt 0.036825 0.255009
vt 0.036825 0.255009
vt 0.036825 0.255009
vt 0.036825 0.255009
vt 0.036825 0.255009
vt 0.036825 0.255010
vt 0.036825 0.255010
vt 0.036825 0.255010
vt 0.036825 0.255010
vt 0.036825 0.255010
vt 0.036825 0.255010
vt 0.036825 0.255010
vt 0.036825 0.255010
vt 0.036825 0.255010
vt 0.036825 0.255010
vt 0.080525 0.256466
vt 0.080525 0.256466
vt 0.080525 0.256466
vt 0.080525 0.256466
vt 0.080525 0.256466
vt 0.080525 0.256466
vt 0.080525 0.256466
vt 0.080525 0.256466
vt 0.080525 0.256466
vt 0.080525 0.256466
vt 0.080525 0.256466
vt 0.080525 0.256466
vt 0.080525 0.256466
vt 0.080525 0.256466
vt 0.080525 0.256466
vt 0.080525 0.256466
vt 0.080525 0.256466
vt 0.080525 0.256466
vt 0.080525 0.256466
vt 0.080525 0.256466
vt 0.080525 0.256466
vt 0.080525 0.256466
vn 0.587456 -0.033354 -0.808569
vn 0.587456 -0.033354 -0.808569
vn 0.587456 -0.033354 -0.808569
vn 0.587456 -0.033354 -0.808569
vn 0.000000 -0.033354 -0.999444
vn 0.000000 -0.033354 -0.999444
vn 0.000000 -0.033354 -0.999444
vn 0.000000 -0.033354 -0.999444
vn -0.587455 -0.033355 -0.808569
vn -0.587455 -0.033355 -0.808569
vn -0.587455 -0.033355 -0.808569
vn -0.587455 -0.033355 -0.808569
vn -0.950527 -0.033356 -0.308846
vn -0.950527 -0.033356 -0.308846
vn -0.950527 -0.033356 -0.308846
vn -0.950527 -0.033356 -0.308846
vn -0.950528 -0.033356 0.308843
vn -0.950528 -0.033356 0.308844
vn -0.950528 -0.033356 0.308843
vn -0.950528 -0.033356 0.308844
vn -0.587454 -0.033355 0.808570
vn -0.587454 -0.033355 0.808570
vn -0.587454 -0.033355 0.808570
vn -0.587454 -0.033355 0.808570
vn 0.000000 -0.033354 0.999444
vn 0.000000 -0.033354 0.999444
vn 0.000000 -0.033354 0.999444
vn 0.000000 -0.033354 0.999444
vn 0.587455 -0.033355 0.808569
vn 0.587455 -0.033355 0.808569
vn 0.587455 -0.033355 0.808569
vn 0.587455 -0.033355 0.808569
vn 0.950529 -0.033355 0.308841
vn 0.950529 -0.033355 0.308841
vn 0.950529 -0.033355 0.308841
vn 0.950529 -0.033355 0.308841
vn 0.950528 -0.033355 -0.308843
vn 0.950528 -0.033355 -0.308843
vn 0.950528 -0.033355 -0.308843
vn 0.950528 -0.033355 -0.308843
vn 0.000000 -1.000000 0.000000
vn 0.000000 -1.000000 0.000000
vn 0.000000 -1.000000 0.000000
vn 0.000000 -1.000000 0.000000
vn 0.000000 -1.000000 0.000000
vn 0.000000 -1.000000 0.000000
vn 0.000000 -1.000000 0.000000
vn 0.000000 -1.000000 0.000000
vn 0.000000 -1.000000 0.000000
vn 0.000000 -1.000000 0.000000
vn 0.000000 -1.000000 0.000000
vn 0.000000 -1.000000 0.000000
vn 0.000000 -1.000000 0.000000
vn 0.000000 -1.000000 0.000000
vn 0.000000 -1.000000 0.000000
vn 0.000000 -1.000000 0.000000
vn 0.000000 -1.000000 0.000000
vn 0.000000 -1.000000 0.000000
vn 0.000000 -1.000000 0.000000
vn 0.000000 -1.000000 0.000000
vn 0.000000 -1.000000 0.000000
vn 0.000000 -1.000000 0.000000
vn 0.000000 -1.000000 0.000000
vn 0.000000 -1.000000 0.000000
vn 0.000000 -1.000000 0.000000
vn 0.000000 -1.000000 0.000000
vn 0.000000 -1.000000 0.000000
vn 0.000000 -1.000000 0.000000
vn 0.000000 -1.000000 0.000000
vn 0.000000 -1.000000 0.000000
vn -0.066721 0.995023 0.074010
vn -0.066721 0.995023 0.074010
vn -0.066721 0.995023 0.074010
vn 0.023848 0.995214 0.094768
vn 0.023848 0.995214 0.094768
vn 0.023848 0.995214 0.094768
vn 0.060228 0.994736 0.082898
vn 0.060228 0.994736 0.082898
vn 0.060228 0.994736 0.082898
vn 0.090109 0.995053 0.041824
vn 0.090109 0.995053 0.041824
vn 0.090109 0.995053 0.041824
vn 0.071046 0.995147 -0.068079
vn 0.071046 0.995147 -0.068079
vn 0.071046 0.995147 -0.068079
vn 0.074169 0.995204 -0.063789
vn 0.074169 0.995203 -0.063789
vn 0.074169 0.995203 -0.063789
vn -0.027344 0.995231 -0.093634
vn -0.027344 0.995231 -0.093634
vn -0.027344 0.995231 -0.093634
vn -0.106155 0.992042 -0.067698
vn -0.106155 0.992042 -0.067698
vn -0.106155 0.992042 -0.067698
vn -0.097145 0.991597 -0.085436
vn -0.097145 0.991597 -0.085436
vn -0.097145 0.991597 -0.085436
vn -0.097453 0.994736 0.031663
vn -0.097453 0.994736 0.031663
vn -0.097453 0.994736 0.031663
vn 0.207244 0.935780 -0.285248
vn 0.207244 0.935780 -0.285248
vn 0.207244 0.935780 -0.285248
vn 0.207244 0.935780 -0.285248
vn 0.000000 0.935779 -0.352588
vn 0.000000 0.935779 -0.352588
vn 0.000000 0.935779 -0.352588
vn 0.000000 0.935779 -0.352588
vn -0.207244 0.935780 -0.285248
vn -0.207244 0.935780 -0.285248
vn -0.207244 0.935780 -0.285248
vn -0.207244 0.935780 -0.285248
vn -0.335321 0.935783 -0.108952
vn -0.335321 0.935783 -0.108952
vn -0.335321 0.935783 -0.108952
vn -0.335321 0.935783 -0.108952
vn -0.335319 0.935783 0.108951
vn -0.335319 0.935783 0.108951
vn -0.335319 0.935783 0.108951
vn -0.335319 0.935783 0.108951
vn -0.207237 0.935784 0.285240
vn -0.207237 0.935784 0.285240
vn -0.207237 0.935784 0.285240
vn -0.207237 0.935784 0.285240
vn 0.000000 0.935783 0.352576
vn 0.000000 0.935783 0.352576
vn 0.000000 0.935783 0.352576
vn 0.000000 0.935783 0.352576
vn 0.207238 0.935783 0.285241
vn 0.207238 0.935783 0.285241
vn 0.207238 0.935783 0.285241
vn 0.207238 0.935783 0.285241
vn 0.335322 0.935782 0.108951
vn 0.335322 0.935782 0.108951
vn 0.335322 0.935782 0.108951
vn 0.335322 0.935782 0.108951
vn 0.335324 0.935782 -0.108953
vn 0.335324 0.935782 -0.108953
vn 0.335324 0.935782 -0.108953
vn 0.335324 0.935782 -0.108953
vn -0.575925 0.199857 0.792697
vn -0.575925 0.199857 0.792697
vn -0.575925 0.199857 0.792697
vn -0.575925 0.199857 0.792697
vn 0.000000 0.199867 0.979823
vn 0.000000 0.199867 0.979823
vn 0.000000 0.199867 0.979823
vn 0.000000 0.199867 0.979823
vn 0.575924 0.199858 0.792697
vn 0.575924 0.199858 0.792697
vn 0.575924 0.199858 0.792697
vn 0.575924 0.199858 0.792697
vn 0.931869 0.199860 0.302781
vn 0.931869 0.199860 0.302781
vn 0.931869 0.199860 0.302781
vn 0.931869 0.199860 0.302781
vn 0.931869 0.199861 -0.302781
vn 0.931869 0.199861 -0.302781
vn 0.931869 0.199861 -0.302781
vn 0.931869 0.199861 -0.302781
vn 0.575922 0.199860 -0.792697
vn 0.575922 0.199860 -0.792697
vn 0.575922 0.199860 -0.792697
vn 0.575922 0.199860 -0.792697
vn 0.000000 0.199866 -0.979823
vn 0.000000 0.199866 -0.979823
vn 0.000000 0.199866 -0.979823
vn 0.000000 0.199866 -0.979823
vn -0.575923 0.199859 -0.792697
vn -0.575923 0.199859 -0.792697
vn -0.575923 0.199859 -0.792697
vn -0.575923 0.199859 -0.792697
vn -0.931870 0.199858 -0.302780
vn -0.931870 0.199858 -0.302780
vn -0.931870 0.199858 -0.302780
vn -0.931870 0.199858 -0.302780
vn -0.931870 0.199857 0.302779
vn -0.931870 0.199857 0.302779
vn -0.931870 0.199857 0.302779
vn -0.931870 0.199857 0.302779
vn 0.164434 0.964763 -0.205414
vn 0.164434 0.964763 -0.205414
vn 0.164434 0.964763 -0.205414
vn 0.164434 0.964763 -0.205414
vn -0.026543 0.958606 -0.283498
vn -0.026543 0.958606 -0.283498
vn -0.026543 0.958606 -0.283498
vn -0.026543 0.958606 -0.283498
vn -0.143937 0.969553 -0.198116
vn -0.143937 0.969553 -0.198116
vn -0.143937 0.969553 -0.198116
vn -0.143937 0.969553 -0.198116
vn -0.249615 0.963435 -0.097397
vn -0.249615 0.963435 -0.097397
vn -0.249615 0.963435 -0.097397
vn -0.249615 0.963435 -0.097397
vn -0.288263 0.945992 0.148334
vn -0.288263 0.945992 0.148334
vn -0.288263 0.945992 0.148334
vn -0.288263 0.945992 0.148334
vn -0.192352 0.957431 0.215238
vn -0.192352 0.957431 0.215238
vn -0.192352 0.957431 0.215238
vn -0.192351 0.957431 0.215238
vn 0.035030 0.954630 0.295727
vn 0.035030 0.954630 0.295727
vn 0.035030 0.954630 0.295727
vn 0.035030 0.954630 0.295727
vn 0.142016 0.979787 0.140884
vn 0.142016 0.979787 0.140884
vn 0.142016 0.979787 0.140884
vn 0.142016 0.979787 0.140884
vn 0.185838 0.978517 0.089265
vn 0.185838 0.978517 0.089265
vn 0.185838 0.978517 0.089265
vn 0.185838 0.978517 0.089265
vn 0.232899 0.969552 -0.075672
vn 0.232899 0.969552 -0.075672
vn 0.232899 0.969552 -0.075672
vn 0.232899 0.969552 -0.075672
vn 0.522002 -0.459674 0.718480
vn 0.522001 -0.459674 0.718480
vn 0.522002 -0.459674 0.718480
vn 0.522002 -0.459674 0.718480
vn 0.000000 -0.459673 0.888088
vn 0.000000 -0.459673 0.888088
vn 0.000000 -0.459673 0.888088
vn 0.000000 -0.459673 0.888088
vn -0.522000 -0.459674 0.718481
vn -0.522000 -0.459674 0.718481
vn -0.522000 -0.459674 0.718481
vn -0.522000 -0.459674 0.718481
vn -0.844622 -0.459674 0.274432
vn -0.844622 -0.459674 0.274432
vn -0.844622 -0.459674 0.274432
vn -0.844622 -0.459674 0.274432
vn -0.844621 -0.459675 -0.274434
vn -0.844621 -0.459675 -0.274434
vn -0.844621 -0.459675 -0.274434
vn -0.844621 -0.459675 -0.274434
vn -0.522002 -0.459673 -0.718480
vn -0.522002 -0.459673 -0.718480
vn -0.522002 -0.459673 -0.718480
vn -0.522002 -0.459673 -0.718480
vn 0.000000 -0.459673 -0.888088
vn 0.000000 -0.459673 -0.888088
vn 0.000000 -0.459673 -0.888088
vn 0.000000 -0.459673 -0.888088
vn 0.522003 -0.459674 -0.718479
vn 0.522003 -0.459674 -0.718479
vn 0.522003 -0.459674 -0.718479
vn 0.522003 -0.459674 -0.718479
vn 0.844621 -0.459676 -0.274433
vn 0.844621 -0.459676 -0.274433
vn 0.844621 -0.459676 -0.274433
vn 0.844621 -0.459676 -0.274433
vn 0.844623 -0.459675 0.274431
vn 0.844622 -0.459675 0.274431
vn 0.844622 -0.459675 0.274430
vn 0.844622 -0.459675 0.274431
s off
f 1/11/1 2/12/2 50/71/3 51/73/4
f 2/12/5 3/13/6 49/70/7 50/71/8
f 3/13/9 4/14/10 48/69/11 49/70/12
f 4/14/13 5/15/14 47/68/15 48/69/16
f 5/15/17 6/16/18 46/67/19 47/68/20
f 6/16/21 7/17/22 45/66/23 46/67/24
f 7/17/25 8/18/26 44/65/27 45/66/28
f 8/18/29 9/19/30 43/64/31 44/65/32
f 9/19/33 10/20/34 52/74/35 43/64/36
f 10/20/37 1/21/38 51/72/39 52/74/40
f 2/2/41 1/1/42 11/22/43
f 3/3/44 2/2/45 11/22/46
f 4/4/47 3/3/48 11/22/49
f 5/5/50 4/4/51 11/22/52
f 6/6/53 5/5/54 11/22/55
f 7/7/56 6/6/57 11/22/58
f 8/8/59 7/7/60 11/22/61
f 9/9/62 8/8/63 11/22/64
f 10/10/65 9/9/66 11/22/67
f 1/1/68 10/10/69 11/22/70
f 32/23/71 33/44/72 34/45/73
f 33/44/74 35/46/75 34/45/76
f 35/46/77 36/47/78 34/45/79
f 36/47/80 37/48/81 34/45/82
f 37/48/83 38/49/84 34/45/85
f 38/49/86 39/50/87 34/45/88
f 39/50/89 40/51/90 34/45/91
f 40/51/92 41/52/93 34/45/94
f 41/52/95 42/53/96 34/45/97
f 42/53/98 32/23/99 34/45/100
f 13/25/101 12/24/102 61/84/103 60/82/104
f 14/26/105 13/25/106 60/82/107 59/81/108
f 15/27/109 14/26/110 59/81/111 58/80/112
f 16/28/113 15/27/114 58/80/115 57/79/116
f 17/29/117 16/28/118 57/79/119 56/78/120
f 18/30/121 17/29/122 56/78/123 55/77/124
f 19/31/125 18/30/126 55/77/127 54/76/128
f 20/32/129 19/31/130 54/76/131 53/75/132
f 21/33/133 20/32/134 53/75/135 62/85/136
f 12/24/137 21/33/138 62/85/139 61/83/140
f 12/24/141 13/25/142 23/35/143 22/34/144
f 13/25/145 14/26/146 24/36/147 23/35/148
f 14/26/149 15/27/150 25/37/151 24/36/152
f 15/27/153 16/28/154 26/38/155 25/37/156
f 16/28/157 17/29/158 27/39/159 26/38/160
f 17/29/161 18/30/162 28/40/163 27/39/164
f 18/30/165 19/31/166 29/41/167 28/40/168
f 19/31/169 20/32/170 30/42/171 29/41/172
f 20/32/173 21/33/174 31/43/175 30/42/176
f 21/33/177 12/24/178 22/34/179 31/43/180
f 22/54/181 23/55/182 33/44/183 32/23/184
f 23/55/185 24/56/186 35/46/187 33/44/188
f 24/56/189 25/57/190 36/47/191 35/46/192
f 25/57/193 26/58/194 37/48/195 36/47/196
f 26/58/197 27/59/198 38/49/199 37/48/200
f 27/59/201 28/60/202 39/50/203 38/49/204
f 28/60/205 29/61/206 40/51/207 39/50/208
f 29/61/209 30/62/210 41/52/211 40/51/212
f 30/62/213 31/63/214 42/53/215 41/52/216
f 31/63/217 22/54/218 32/23/219 42/53/220
f 44/65/221 43/64/222 53/75/223 54/76/224
f 45/66/225 44/65/226 54/76/227 55/77/228
f 46/67/229 45/66/230 55/77/231 56/78/232
f 47/68/233 46/67/234 56/78/235 57/79/236
f 48/69/237 47/68/238 57/79/239 58/80/240
f 49/70/241 48/69/242 58/80/243 59/81/244
f 50/71/245 49/70/246 59/81/247 60/82/248
f 51/73/249 50/71/250 60/82/251 61/84/252
f 52/74/253 51/72/254 61/83/255 62/85/256
f 43/64/257 52/74/258 62/85/259 53/75/260
