# This file uses centimeters as units for non-parametric coordinates.

v -17.978241 15.657668 17.978210
v 17.978210 15.657668 17.978210
v -17.978241 14.215502 -17.978210
v 17.978210 14.215502 -17.978210
v 0.000000 12.475447 0.000000
v -10.772675 22.897381 10.772705
v 10.772675 22.897381 10.772705
v 10.772675 21.455215 -10.772644
v -10.772675 21.455215 -10.772644
v 5.897369 22.754019 -22.009338
v -22.009369 21.713242 -5.897339
v 22.009369 22.033508 5.897400
v -5.897369 20.992731 22.009338
v 0.000000 19.851429 0.000000
v 3.415466 29.357563 -12.746765
v -12.746765 28.316790 -3.415405
v -3.415466 27.596279 12.746765
v 12.746765 28.637054 3.415466
v 1.368408 -3.773536 1.408936
v 1.749603 -3.773536 -0.455750
v -0.250549 -3.773536 -0.959961
v -0.631775 -3.773536 0.904846
v -0.631775 1.317896 0.904846
v 1.368408 1.974596 1.408936
v 1.749603 1.317896 -0.455750
v -0.250549 1.974597 -0.959961
v 1.769440 9.380137 0.954224
v -0.116150 9.322283 -1.890503
v 2.622955 10.966360 -1.196655
v -1.702179 7.353528 0.839539
v 0.608765 5.345384 1.456970
v -1.009979 5.332986 -1.037903
v -0.261261 7.826107 -0.156738
v 0.422821 6.144537 0.138000
v 0.926300 11.404902 -0.572266
v -2.986664 21.752466 5.093262
v -0.663269 21.637177 5.133301
v -1.736572 22.335337 4.404358
v 5.048767 21.492620 0.087036
v 3.307922 21.513725 0.946289
v 4.108276 20.832943 1.849915
v 4.142731 18.688845 -4.245850
v 2.379333 18.427517 -5.666138
v 2.783203 19.447811 -4.071411
vt 0.024652 0.110122
vt 0.302794 0.110122
vt 0.024652 0.388264
vt 0.302794 0.388264
vt 0.163723 0.249193
vt 0.094188 0.179658
vt 0.233258 0.179658
vt 0.233258 0.318728
vt 0.094188 0.318728
vt 0.233258 0.179658
vt 0.233258 0.318728
vt 0.163723 0.249193
vt 0.094188 0.318728
vt 0.094188 0.179658
vt 0.302794 0.110122
vt 0.024652 0.110122
vt 0.302794 0.388264
vt 0.024652 0.388264
vt 0.144825 0.329069
vt 0.144825 0.329069
vt 0.144825 0.329069
vt 0.144825 0.329069
vt 0.144825 0.329069
vt 0.144825 0.329069
vt 0.144825 0.329069
vt 0.144825 0.329069
vt 0.144825 0.329070
vt 0.144825 0.329070
vt 0.144825 0.329070
vt 0.144825 0.329070
vt 0.144825 0.329070
vt 0.144825 0.329070
vt 0.144825 0.329070
vt 0.144825 0.329070
vt 0.144825 0.329070
vt 0.144825 0.329070
vt 0.144825 0.329070
vt 0.144825 0.329070
vt 0.144825 0.329070
vt 0.144825 0.329070
vt 0.144825 0.329070
vt 0.144825 0.329070
vt 0.144825 0.329070
vt 0.144825 0.329070
vn -0.668346 0.742190 -0.049679
vn -0.668346 0.742190 -0.049679
vn -0.668346 0.742190 -0.049679
vn 0.000000 0.768131 0.640292
vn 0.000000 0.768131 0.640292
vn 0.000000 0.768131 0.640292
vn 0.668346 0.742190 -0.049679
vn 0.668346 0.742190 -0.049679
vn 0.668346 0.742190 -0.049679
vn 0.000000 0.718711 -0.695309
vn 0.000000 0.718711 -0.695309
vn 0.000000 0.718711 -0.695309
vn 0.000000 0.705430 0.708779
vn 0.000000 0.705430 0.708779
vn 0.000000 0.705430 0.708779
vn 0.000000 0.705430 0.708779
vn 0.708334 0.704991 -0.035363
vn 0.708334 0.704991 -0.035363
vn 0.708334 0.704991 -0.035363
vn 0.708334 0.704991 -0.035363
vn 0.000000 0.705433 -0.708776
vn 0.000000 0.705433 -0.708776
vn 0.000000 0.705433 -0.708776
vn 0.000000 0.705433 -0.708776
vn -0.708333 0.704992 -0.035363
vn -0.708333 0.704992 -0.035363
vn -0.708333 0.704992 -0.035363
vn -0.708333 0.704992 -0.035363
vn 0.582231 0.754648 -0.302511
vn 0.582231 0.754648 -0.302511
vn 0.582231 0.754648 -0.302511
vn -0.367361 0.747921 -0.552865
vn -0.367361 0.747921 -0.552865
vn -0.367361 0.747921 -0.552865
vn -0.592186 0.713894 0.373725
vn -0.592186 0.713894 0.373725
vn -0.592186 0.713894 0.373725
vn 0.311785 0.719736 0.620298
vn 0.311785 0.719736 0.620298
vn 0.311785 0.719736 0.620298
vn -0.374063 0.716096 -0.589308
vn -0.374063 0.716096 -0.589308
vn -0.374063 0.716096 -0.589308
vn -0.374063 0.716096 -0.589308
vn -0.593948 0.716255 0.366339
vn -0.593948 0.716255 0.366339
vn -0.593948 0.716255 0.366339
vn -0.593948 0.716255 0.366339
vn 0.323326 0.716096 0.618602
vn 0.323326 0.716095 0.618602
vn 0.323326 0.716096 0.618602
vn 0.323326 0.716096 0.618602
vn 0.614232 0.716255 -0.331207
vn 0.614232 0.716255 -0.331207
vn 0.614232 0.716255 -0.331207
vn 0.614232 0.716255 -0.331207
vn -0.244388 0.000000 0.969677
vn -0.244388 0.000000 0.969677
vn -0.244388 0.000000 0.969677
vn -0.244388 0.000000 0.969677
vn 0.979739 0.000000 0.200280
vn 0.979739 0.000000 0.200280
vn 0.979739 0.000000 0.200280
vn 0.979739 0.000000 0.200280
vn 0.244413 0.000000 -0.969671
vn 0.244413 0.000000 -0.969671
vn 0.244413 0.000000 -0.969671
vn 0.244413 0.000000 -0.969671
vn -0.979732 0.000000 -0.200312
vn -0.979732 0.000000 -0.200312
vn -0.979732 0.000000 -0.200312
vn -0.979732 0.000000 -0.200312
vn -0.899938 0.086190 0.427414
vn -0.899938 0.086190 0.427414
vn -0.899938 0.086190 0.427414
vn -0.899938 0.086190 0.427414
vn 0.959955 -0.048916 0.275849
vn 0.959955 -0.048916 0.275850
vn 0.959955 -0.048916 0.275850
vn 0.959955 -0.048916 0.275850
vn 0.277213 -0.103029 -0.955269
vn 0.277213 -0.103029 -0.955269
vn 0.277213 -0.103029 -0.955269
vn 0.277213 -0.103029 -0.955269
vn -0.190106 -0.003913 0.981756
vn -0.190106 -0.003913 0.981756
vn -0.190106 -0.003913 0.981756
vn -0.190106 -0.003913 0.981756
vn 0.694867 0.085608 -0.714025
vn 0.694867 0.085608 -0.714025
vn 0.694867 0.085608 -0.714025
vn 0.694867 0.085608 -0.714025
vn -0.963577 -0.160598 -0.213842
vn -0.963577 -0.160598 -0.213842
vn -0.963577 -0.160598 -0.213842
vn -0.963577 -0.160598 -0.213842
vn 0.873475 0.099819 -0.476527
vn 0.873475 0.099819 -0.476527
vn 0.873475 0.099819 -0.476527
vn 0.873475 0.099819 -0.476527
vn -0.732928 0.097430 0.673294
vn -0.732928 0.097430 0.673294
vn -0.732928 0.097430 0.673294
vn -0.732928 0.097430 0.673294
vn -0.193058 -0.269562 0.943433
vn -0.193058 -0.269562 0.943433
vn -0.193058 -0.269562 0.943433
vn -0.193058 -0.269562 0.943433
vn 0.800612 0.234500 -0.551390
vn 0.800612 0.234500 -0.551390
vn 0.800612 0.234500 -0.551390
vn 0.800612 0.234500 -0.551390
vn -0.580140 0.185460 -0.793122
vn -0.580140 0.185460 -0.793122
vn -0.580140 0.185460 -0.793122
vn -0.580140 0.185460 -0.793122
vn -0.334476 0.196918 -0.921601
vn -0.334476 0.196918 -0.921601
vn -0.334476 0.196918 -0.921601
vn -0.334476 0.196918 -0.921601
vn -0.790043 0.111786 0.602773
vn -0.790043 0.111786 0.602773
vn -0.790043 0.111786 0.602773
vn -0.790043 0.111786 0.602773
vn 0.927907 -0.230230 0.293227
vn 0.927907 -0.230230 0.293227
vn 0.927907 -0.230230 0.293227
vn 0.927907 -0.230230 0.293227
vn 0.525751 -0.424430 -0.737188
vn 0.525751 -0.424430 -0.737188
vn 0.525751 -0.424430 -0.737188
vn 0.525751 -0.424430 -0.737188
vn -0.941908 0.301803 0.147396
vn -0.941907 0.301803 0.147396
vn -0.941907 0.301803 0.147396
vn -0.941907 0.301803 0.147396
vn 0.369228 0.283348 0.885090
vn 0.369228 0.283348 0.885090
vn 0.369228 0.283348 0.885090
vn 0.369228 0.283348 0.885090
vn 0.345174 0.748457 -0.566274
vn 0.345174 0.748458 -0.566274
vn 0.345174 0.748457 -0.566274
vn 0.025151 0.740202 0.671914
vn 0.025151 0.740202 0.671914
vn 0.025151 0.740202 0.671914
vn 0.230945 0.864381 0.446665
vn 0.230945 0.864381 0.446665
vn 0.230945 0.864381 0.446665
vn -0.605240 0.420629 -0.675837
vn -0.605240 0.420629 -0.675837
vn -0.605240 0.420629 -0.675837
s off
f 7/7/1 8/8/2 5/5/3
f 8/8/4 9/9/5 5/5/6
f 9/9/7 6/6/8 5/5/9
f 6/6/10 7/7/11 5/5/12
f 2/2/13 7/7/14 6/6/15 1/1/16
f 2/2/17 4/4/18 8/8/19 7/7/20
f 3/3/21 9/9/22 8/8/23 4/4/24
f 1/1/25 6/6/26 9/9/27 3/3/28
f 16/10/29 17/11/30 14/12/31
f 17/11/32 18/13/33 14/12/34
f 18/13/35 15/14/36 14/12/37
f 15/14/38 16/10/39 14/12/40
f 11/15/41 16/10/42 15/14/43 10/16/44
f 11/15/45 13/17/46 17/11/47 16/10/48
f 12/18/49 18/13/50 17/11/51 13/17/52
f 10/16/53 15/14/54 18/13/55 12/18/56
f 22/19/57 19/20/58 24/21/59 23/22/60
f 19/20/61 20/23/62 25/24/63 24/21/64
f 20/23/65 21/25/66 26/26/67 25/24/68
f 21/25/69 22/19/70 23/22/71 26/26/72
f 26/26/73 34/27/74 35/28/75 28/29/76
f 24/21/77 25/24/78 29/30/79 27/31/80
f 25/24/81 26/26/82 28/29/83 29/30/84
f 23/22/85 24/21/86 31/32/87 30/33/88
f 33/34/89 34/27/90 26/26/91 32/35/92
f 26/26/93 23/22/94 30/33/95 32/35/96
f 24/21/97 34/27/98 33/34/99 31/32/100
f 35/28/101 34/27/102 24/21/103 27/31/104
f 30/33/105 31/32/106 37/36/107 36/37/108
f 31/32/109 33/34/110 38/38/111 37/36/112
f 33/34/113 30/33/114 36/37/115 38/38/116
f 29/30/117 35/28/118 40/39/119 39/40/120
f 35/28/121 27/31/122 41/41/123 40/39/124
f 27/31/125 29/30/126 39/40/127 41/41/128
f 29/30/129 28/29/130 43/42/131 42/43/132
f 28/29/133 35/28/134 44/44/135 43/42/136
f 35/28/137 29/30/138 42/43/139 44/44/140
f 43/42/141 44/44/142 42/43/143
f 37/36/144 38/38/145 36/37/146
f 39/40/147 40/39/148 41/41/149
f 33/34/150 32/35/151 30/33/152
