# This file uses centimeters as units for non-parametric coordinates.

v 0.586441 6.525112 -6.519929
v -2.757790 6.525112 -5.915383
v -4.249123 1.588997 -5.588996
v 0.533554 1.486376 -7.183833
v 2.581941 4.207620 -6.707374
v 2.188189 5.164369 6.811452
v -1.997021 6.619156 5.847106
v -3.633121 4.099788 5.420356
v -1.997022 1.580420 5.847106
v 1.275175 1.580419 6.700606
v 5.690191 3.559000 4.223626
v 2.655136 7.408915 2.641975
v -2.111475 8.209795 3.393651
v -4.712837 4.204051 2.715126
v -2.373940 0.094043 3.339684
v 2.828786 0.094043 4.696732
v 3.823904 3.987339 -3.589673
v 1.872751 8.011488 -2.935030
v -3.181716 8.115752 -2.044587
v -4.554900 4.077785 -2.499025
v -3.539955 0.000000 -3.171954
v 1.819856 0.000000 -3.598934
v -0.330178 3.300777 7.374356
v -1.139946 4.005744 -7.374355
v 2.054398 8.334307 3.033543
v 3.109377 8.290565 1.789693
v 4.107279 6.935053 3.310847
v 3.054128 7.433114 4.075455
v -4.895401 4.890775 -3.471732
v -4.912777 5.568021 -2.222747
v -5.690195 4.139839 -1.483262
v -5.173512 2.869208 -2.591766
v -5.288138 3.200048 -3.518575
v 4.805449 3.905940 -2.620589
v 3.881612 5.117110 -3.529319
v 3.753217 4.063096 -5.109459
v 3.991568 3.010713 -3.729334
vt 0.048058 0.323974
vt 0.048058 0.323974
vt 0.048058 0.323974
vt 0.048058 0.323974
vt 0.048058 0.323974
vt 0.048058 0.323974
vt 0.048058 0.323974
vt 0.048058 0.323974
vt 0.048058 0.323974
vt 0.048058 0.323974
vt 0.048058 0.323974
vt 0.048058 0.323974
vt 0.048058 0.323974
vt 0.048058 0.323974
vt 0.048058 0.323974
vt 0.048058 0.323974
vt 0.048058 0.323974
vt 0.048058 0.323974
vt 0.048058 0.323974
vt 0.048058 0.323974
vt 0.048058 0.323974
vt 0.048058 0.323974
vt 0.048058 0.323974
vt 0.048058 0.280878
vt 0.048058 0.280878
vt 0.048058 0.323974
vt 0.048058 0.323974
vt 0.048058 0.323974
vt 0.048058 0.323974
vt 0.048058 0.280878
vt 0.048058 0.323974
vt 0.048058 0.323974
vt 0.048058 0.323974
vt 0.048058 0.280878
vt 0.048058 0.323974
vt 0.048058 0.323974
vt 0.048058 0.323974
vt 0.048058 0.323974
vt 0.048058 0.323974
vt 0.048058 0.280878
vt 0.048058 0.280878
vt 0.048058 0.280878
vt 0.048058 0.280878
vt 0.048058 0.280878
vt 0.048058 0.323974
vt 0.048058 0.280878
vt 0.048058 0.280878
vt 0.048058 0.280878
vt 0.048058 0.280878
vt 0.048058 0.323974
vt 0.048058 0.280878
vt 0.048058 0.280878
vt 0.048058 0.280878
vt 0.048058 0.280878
vt 0.048058 0.323974
vt 0.048058 0.280878
vt 0.048058 0.280878
vt 0.048058 0.280878
vt 0.048058 0.323974
vt 0.048058 0.280878
vt 0.048058 0.323974
vt 0.048058 0.280878
vt 0.048058 0.280878
vt 0.048058 0.280878
vt 0.048058 0.280878
vt 0.048058 0.323974
vt 0.048058 0.280878
vt 0.048058 0.280878
vt 0.048058 0.280878
vt 0.048058 0.323974
vt 0.048058 0.280878
vt 0.048058 0.323974
vt 0.048058 0.280878
vt 0.048058 0.323974
vt 0.048058 0.280878
vt 0.048058 0.280878
vt 0.048058 0.280878
vt 0.048058 0.280878
vt 0.048058 0.323974
vt 0.048058 0.323974
vt 0.048058 0.280878
vt 0.048058 0.280878
vt 0.048058 0.280878
vt 0.048058 0.323974
vt 0.048058 0.323974
vt 0.048058 0.323974
vt 0.048058 0.280878
vt 0.048058 0.280878
vn 0.075026 0.790311 0.608095
vn 0.075026 0.790311 0.608095
vn 0.075026 0.790311 0.608095
vn 0.075026 0.790311 0.608095
vn 0.075026 0.790311 0.608095
vn -0.813332 0.470129 0.342739
vn -0.813332 0.470129 0.342739
vn -0.813332 0.470129 0.342739
vn -0.813332 0.470129 0.342739
vn -0.827328 -0.440868 0.348085
vn -0.827328 -0.440868 0.348085
vn -0.827328 -0.440868 0.348085
vn -0.827328 -0.440868 0.348085
vn -0.135693 -0.843180 0.520226
vn -0.135693 -0.843180 0.520226
vn -0.135693 -0.843180 0.520226
vn -0.135693 -0.843180 0.520226
vn 0.558151 -0.258346 0.788495
vn 0.558151 -0.258346 0.788495
vn 0.558151 -0.258346 0.788495
vn 0.558151 -0.258346 0.788495
vn 0.653768 0.467598 0.594928
vn 0.653768 0.467598 0.594928
vn 0.653768 0.467598 0.594928
vn 0.653768 0.467598 0.594928
vn -0.161878 0.414622 -0.895480
vn -0.161878 0.414622 -0.895480
vn -0.161878 0.414622 -0.895480
vn -0.473446 0.160765 0.866027
vn -0.473446 0.160765 0.866027
vn -0.473446 0.160765 0.866027
vn 0.860289 0.484954 -0.157234
vn 0.860289 0.484954 -0.157234
vn 0.860289 0.484954 -0.157234
vn 0.860289 0.484954 -0.157234
vn 0.860289 0.484954 -0.157234
vn 0.860289 0.484954 -0.157234
vn -0.008619 0.999253 -0.037667
vn -0.008619 0.999253 -0.037667
vn -0.008619 0.999253 -0.037667
vn -0.008619 0.999253 -0.037667
vn -0.008619 0.999253 -0.037667
vn -0.819559 0.542933 0.183157
vn -0.819559 0.542933 0.183157
vn -0.819559 0.542933 0.183157
vn -0.819559 0.542933 0.183157
vn -0.853362 -0.489436 0.179515
vn -0.853362 -0.489436 0.179515
vn -0.853362 -0.489436 0.179515
vn -0.853362 -0.489436 0.179515
vn -0.853362 -0.489436 0.179515
vn -0.001133 -0.999917 0.012868
vn -0.001133 -0.999917 0.012868
vn -0.001133 -0.999917 0.012868
vn -0.001133 -0.999917 0.012868
vn 0.803204 -0.581010 -0.131496
vn 0.803204 -0.581010 -0.131496
vn 0.803204 -0.581010 -0.131496
vn 0.803204 -0.581010 -0.131496
vn 0.669488 0.582998 -0.460327
vn 0.669487 0.582997 -0.460326
vn 0.669488 0.582997 -0.460327
vn 0.669488 0.582997 -0.460326
vn 0.669488 0.582997 -0.460326
vn -0.055342 0.925196 -0.375433
vn -0.055342 0.925196 -0.375433
vn -0.055342 0.925196 -0.375433
vn -0.055342 0.925196 -0.375433
vn -0.801095 0.204022 -0.562691
vn -0.801095 0.204022 -0.562691
vn -0.801095 0.204022 -0.562691
vn -0.801095 0.204022 -0.562691
vn -0.872990 -0.483699 -0.062640
vn -0.872990 -0.483699 -0.062640
vn -0.872990 -0.483699 -0.062640
vn -0.872990 -0.483699 -0.062640
vn -0.094585 -0.898393 -0.428887
vn -0.094585 -0.898393 -0.428887
vn -0.094585 -0.898393 -0.428887
vn -0.094585 -0.898393 -0.428887
vn 0.708906 -0.499250 -0.498199
vn 0.708905 -0.499250 -0.498199
vn 0.708905 -0.499250 -0.498199
vn 0.708906 -0.499250 -0.498199
vn 0.708905 -0.499250 -0.498199
vn -0.560418 0.115086 -0.820175
vn -0.560418 0.115086 -0.820175
vn -0.560418 0.115086 -0.820175
vn -0.078510 0.383983 0.919997
vn -0.078510 0.383983 0.919997
vn -0.078510 0.383983 0.919997
vn -0.403154 -0.357311 0.842493
vn -0.403154 -0.357311 0.842493
vn -0.403154 -0.357311 0.842493
vn -0.403154 -0.357311 0.842493
vn 0.289002 -0.103060 0.951765
vn 0.289002 -0.103060 0.951765
vn 0.289002 -0.103060 0.951765
vn 0.168286 0.127032 -0.977519
vn 0.168286 0.127032 -0.977519
vn 0.168286 0.127032 -0.977519
vn 0.168286 0.127032 -0.977519
vn -0.309486 -0.274428 -0.910444
vn -0.309486 -0.274428 -0.910444
vn -0.309486 -0.274428 -0.910444
vn -0.775731 0.549515 -0.310281
vn -0.775731 0.549515 -0.310281
vn -0.775731 0.549515 -0.310281
vn -0.775731 0.549515 -0.310281
vn -0.840242 0.519171 0.156381
vn -0.840242 0.519171 0.156381
vn -0.840242 0.519171 0.156381
vn 0.762484 -0.641338 -0.085464
vn 0.762484 -0.641338 -0.085464
vn 0.762484 -0.641338 -0.085464
vn 0.747700 0.220324 0.626419
vn 0.747700 0.220324 0.626419
vn 0.747700 0.220324 0.626419
vn -0.086210 0.715048 0.693740
vn -0.086210 0.715048 0.693740
vn -0.086210 0.715048 0.693740
vn 0.355491 0.927627 -0.114606
vn 0.355491 0.927627 -0.114606
vn 0.355491 0.927627 -0.114606
vn 0.771149 0.595686 -0.224696
vn 0.771149 0.595686 -0.224696
vn 0.771149 0.595686 -0.224696
vn -0.959377 -0.253390 0.124050
vn -0.959377 -0.253390 0.124050
vn -0.959377 -0.253390 0.124050
vn -0.667295 -0.022232 -0.744461
vn -0.667295 -0.022232 -0.744461
vn -0.667295 -0.022232 -0.744461
vn -0.609365 0.365881 -0.703424
vn -0.609365 0.365881 -0.703424
vn -0.609365 0.365881 -0.703424
vn -0.867754 0.424303 0.258785
vn -0.867754 0.424303 0.258785
vn -0.867754 0.424303 0.258785
vn -0.867035 0.188625 0.461163
vn -0.867034 0.188625 0.461163
vn -0.867035 0.188625 0.461163
vn 0.702662 0.002117 -0.711520
vn 0.702662 0.002117 -0.711520
vn 0.702662 0.002117 -0.711520
vn 0.997637 -0.048351 -0.048811
vn 0.997637 -0.048351 -0.048811
vn 0.997637 -0.048351 -0.048811
vn 0.984006 0.174234 -0.037082
vn 0.984006 0.174234 -0.037082
vn 0.984006 0.174234 -0.037082
vn 0.694851 0.217324 -0.685531
vn 0.694851 0.217324 -0.685531
vn 0.694851 0.217324 -0.685531
s off
f 28/80/1 25/39/2 13/26/3 7/13/4 6/12/5
f 13/26/6 14/27/7 8/14/8 7/13/9
f 14/27/10 15/28/11 9/15/12 8/14/13
f 15/28/14 16/29/15 10/16/16 9/15/17
f 16/29/18 11/23/19 6/17/20 10/16/21
f 11/23/22 27/84/23 28/79/24 6/17/25
f 1/1/26 24/38/27 2/2/28
f 8/20/29 23/37/30 7/21/31
f 34/50/32 35/61/33 18/31/34 26/86/35 27/84/36 11/23/37
f 18/32/38 19/33/39 13/26/40 25/39/41 26/85/42
f 19/33/43 30/74/44 31/72/45 14/27/46
f 31/72/47 32/70/48 21/35/49 15/28/50 14/27/51
f 21/35/52 22/36/53 16/29/54 15/28/55
f 22/36/56 37/55/57 34/50/58 11/23/59
f 5/10/60 1/11/61 18/31/62 35/61/63 36/59/64
f 1/6/65 2/7/66 19/33/67 18/32/68
f 2/7/69 3/8/70 33/66/71 29/45/72
f 3/8/73 21/35/74 32/70/75 33/66/76
f 3/8/77 4/9/78 22/36/79 21/35/80
f 4/9/81 5/10/82 36/59/83 37/55/84 22/36/85
f 2/2/86 24/38/87 3/3/88
f 6/22/89 7/21/90 23/37/91
f 10/18/92 23/37/93 8/20/94 9/19/95
f 6/22/96 23/37/97 10/18/98
f 5/5/99 4/4/100 24/38/101 1/1/102
f 3/3/103 24/38/104 4/4/105
f 2/7/106 29/45/107 30/74/108 19/33/109
f 19/33/110 14/27/111 13/26/112
f 22/36/113 11/23/114 16/29/115
f 26/41/116 25/81/117 12/87/118
f 27/83/119 26/40/120 12/88/121
f 28/43/122 27/42/123 12/24/124
f 12/25/125 25/82/126 28/44/127
f 30/73/128 29/67/129 20/75/130
f 31/71/131 30/46/132 20/76/133
f 20/77/134 32/69/135 31/47/136
f 33/65/137 32/48/138 20/78/139
f 29/68/140 33/49/141 20/34/142
f 17/62/143 35/60/144 34/56/145
f 36/58/146 35/51/147 17/63/148
f 37/54/149 36/52/150 17/64/151
f 34/57/152 37/53/153 17/30/154
