# This file uses centimeters as units for non-parametric coordinates.

v 0.444763 -3.311614 0.952881
v -0.583740 -0.344382 1.075623
v -1.280457 -0.344382 -0.790466
v 0.725708 -1.787275 -1.840515
v -1.030945 -3.238078 0.177368
v 1.608887 -1.787275 -0.809204
v 1.031494 -3.238078 -0.592682
v 0.490417 -0.344382 1.071228
v -0.423157 -3.311614 -1.371826
v -0.672852 -1.787275 -2.058350
v 1.607422 -0.688126 0.527252
v 0.706116 -1.787275 1.635071
v -0.723755 -1.787275 1.428925
v -1.817505 -1.787275 -1.059326
v 0.585693 -0.344382 -1.487183
v 1.038879 -0.463688 -0.666290
v 1.530762 0.211661 -0.260498
v 0.000000 0.000000 0.000000
v -1.440735 0.128386 1.088593
v -1.040955 0.300783 -2.059204
v -0.034241 0.229288 2.135773
vt 0.176707 0.355582
vt 0.176707 0.355583
vt 0.176707 0.355583
vt 0.176707 0.355583
vt 0.176707 0.355583
vt 0.176707 0.355583
vt 0.176707 0.355583
vt 0.176707 0.355583
vt 0.176707 0.355583
vt 0.176707 0.355583
vt 0.176707 0.355583
vt 0.176707 0.355582
vt 0.176707 0.355582
vt 0.025824 0.146642
vt 0.176707 0.355582
vt 0.176707 0.355582
vt 0.176707 0.355582
vt 0.025824 0.146642
vt 0.025824 0.146642
vt 0.025824 0.146642
vt 0.025824 0.146642
vt 0.025824 0.146642
vt 0.025824 0.146642
vt 0.025824 0.146642
vt 0.025824 0.146642
vt 0.025824 0.146642
vn 0.877567 -0.332942 0.345000
vn 0.877567 -0.332942 0.345000
vn 0.877567 -0.332942 0.345000
vn 0.877567 -0.332942 0.345000
vn 0.141904 -0.387075 -0.911063
vn 0.141904 -0.387075 -0.911063
vn 0.141904 -0.387075 -0.911063
vn 0.547709 -0.476230 -0.687910
vn 0.547709 -0.476230 -0.687910
vn 0.547709 -0.476230 -0.687910
vn 0.547709 -0.476230 -0.687910
vn -0.904890 -0.151533 0.397759
vn -0.904890 -0.151533 0.397759
vn -0.904890 -0.151533 0.397759
vn -0.411464 -0.543830 0.731400
vn -0.411464 -0.543830 0.731400
vn -0.411464 -0.543830 0.731400
vn 0.696345 -0.666757 0.265590
vn 0.696345 -0.666757 0.265590
vn 0.696345 -0.666757 0.265590
vn 0.908675 -0.321968 0.265794
vn 0.908675 -0.321968 0.265794
vn 0.908675 -0.321968 0.265794
vn 0.063045 -0.997733 -0.023538
vn 0.063045 -0.997733 -0.023538
vn 0.063045 -0.997733 -0.023538
vn -0.179133 0.940616 -0.288363
vn -0.179133 0.940616 -0.288363
vn -0.179133 0.940616 -0.288363
vn -0.131634 -0.386045 0.913040
vn -0.131634 -0.386045 0.913040
vn -0.131634 -0.386045 0.913040
vn -0.061859 -0.997818 0.023095
vn -0.061859 -0.997818 0.023095
vn -0.061859 -0.997818 0.023095
vn -0.698707 -0.543833 -0.464816
vn -0.698707 -0.543833 -0.464816
vn -0.698707 -0.543833 -0.464816
vn -0.698707 -0.543833 -0.464816
vn 0.496852 0.379296 0.780559
vn 0.496852 0.379295 0.780559
vn 0.496852 0.379296 0.780559
vn -0.076607 0.300170 0.950804
vn -0.076607 0.300170 0.950804
vn -0.076607 0.300170 0.950804
vn -0.076607 0.300170 0.950805
vn -0.901701 0.222406 0.370771
vn -0.901701 0.222406 0.370771
vn -0.901701 0.222406 0.370771
vn -0.901701 0.222406 0.370771
vn -0.613620 0.359396 -0.703068
vn -0.613620 0.359396 -0.703068
vn -0.613620 0.359396 -0.703068
vn 0.782934 0.298817 -0.545639
vn 0.782934 0.298817 -0.545639
vn 0.782934 0.298817 -0.545639
vn 0.782934 0.298817 -0.545639
vn 0.149061 0.248816 -0.957012
vn 0.149061 0.248816 -0.957012
vn 0.149061 0.248816 -0.957012
vn 0.308174 0.950792 0.031992
vn 0.308174 0.950792 0.031992
vn 0.308174 0.950792 0.031992
vn 0.853298 0.403178 -0.330652
vn 0.853298 0.403178 -0.330652
vn 0.853298 0.403178 -0.330652
vn -0.289777 0.559998 -0.776165
vn -0.289777 0.559998 -0.776165
vn -0.289777 0.559998 -0.776165
vn 0.816721 -0.297914 -0.494181
vn 0.816721 -0.297914 -0.494181
vn 0.816721 -0.297914 -0.494181
vn -0.103890 0.962396 -0.250999
vn -0.103890 0.962396 -0.250999
vn -0.103890 0.962396 -0.250999
vn -0.473377 -0.862947 0.176738
vn -0.473377 -0.862947 0.176738
vn -0.473377 -0.862947 0.176738
vn 0.429712 0.765822 0.478398
vn 0.429712 0.765822 0.478398
vn 0.429712 0.765822 0.478398
vn -0.176374 -0.863548 -0.472417
vn -0.176374 -0.863548 -0.472417
vn -0.176374 -0.863548 -0.472417
vn -0.434941 0.833162 0.341566
vn -0.434941 0.833162 0.341566
vn -0.434941 0.833162 0.341566
vn 0.386436 0.920302 -0.060922
vn 0.386436 0.920302 -0.060922
vn 0.386436 0.920302 -0.060922
vn 0.001944 -0.879912 0.475132
vn 0.001944 -0.879912 0.475132
vn 0.001944 -0.879912 0.475132
vn 0.669438 0.739687 -0.068677
vn 0.669438 0.739687 -0.068677
vn 0.669438 0.739687 -0.068677
vn -0.627511 0.773028 -0.093049
vn -0.627511 0.773028 -0.093049
vn -0.627511 0.773028 -0.093049
vn -0.072817 0.939292 0.335303
vn -0.072817 0.939292 0.335303
vn -0.072817 0.939292 0.335303
s off
f 11/1/1 12/2/2 1/3/3 7/6/4
f 9/5/5 10/4/6 4/10/7
f 4/10/8 6/11/9 7/6/10 9/5/11
f 5/7/12 13/9/13 14/8/14
f 13/9/15 5/7/16 1/3/17
f 17/23/18 8/18/19 16/24/20
f 7/6/21 6/11/22 11/1/23
f 1/3/24 9/5/25 7/6/26
f 18/22/27 17/23/28 15/14/29
f 1/3/30 12/2/31 13/9/32
f 5/7/33 9/5/34 1/3/35
f 14/8/36 10/4/37 9/5/38 5/7/39
f 8/12/40 12/2/41 11/1/42
f 13/9/43 12/2/44 8/12/45 2/13/46
f 14/8/47 13/9/48 2/13/49 3/15/50
f 3/15/51 10/4/52 14/8/53
f 6/11/54 4/10/55 15/16/56 16/17/57
f 4/10/58 10/4/59 15/16/60
f 8/12/61 11/1/62 16/17/63
f 11/1/64 6/11/65 16/17/66
f 10/4/67 3/15/68 15/16/69
f 15/14/70 17/23/71 16/24/72
f 18/22/73 3/25/74 19/21/75
f 3/25/76 2/26/77 19/21/78
f 2/26/79 18/22/80 19/21/81
f 15/14/82 3/25/83 20/20/84
f 3/25/85 18/22/86 20/20/87
f 18/22/88 15/14/89 20/20/90
f 2/26/91 8/18/92 21/19/93
f 8/18/94 18/22/95 21/19/96
f 18/22/97 2/26/98 21/19/99
f 17/23/100 18/22/101 8/18/102
