# This file uses centimeters as units for non-parametric coordinates.

v -0.168182 9.095047 -86.667725
v 0.425201 9.095047 -45.072998
v -2.057983 4.792122 -44.969116
v -2.648056 4.792122 -86.874969
v -1.052124 4.792122 -92.201660
v 3.023895 4.792123 -93.690765
v 0.746643 7.913263 -92.051331
v 1.224365 7.913263 -39.653717
v -0.576813 4.792122 -39.578369
v 7.271347 4.792123 -86.045990
v 7.874725 4.792123 -45.384674
v 5.391556 9.095047 -45.280792
v 4.791504 9.095047 -86.253235
v 4.344162 7.913264 -91.750671
v 6.142929 4.792123 -91.600372
v 6.627914 4.792123 -39.879761
v 4.826736 7.913264 -39.804413
v -0.168182 0.489201 -86.667725
v 0.425201 0.489201 -45.072998
v 5.391556 0.489201 -45.280792
v 4.791504 0.489201 -86.253235
v 4.344162 1.670983 -91.750671
v 0.746643 1.670982 -92.051331
v 1.224365 1.670982 -39.653717
v 4.826736 1.670983 -39.804413
v 6.821640 4.531671 -64.572418
v 4.189957 9.091928 -64.462311
v -1.073395 9.091928 -64.242126
v -3.705063 4.531670 -64.132019
v -1.073395 -0.028587 -64.242126
v 4.189957 -0.028587 -64.462311
v 2.061981 6.760190 -38.918610
v 5.224854 6.141704 -39.057343
v 4.636429 2.217858 -39.299866
v 0.780273 3.302820 -39.030823
v 2.406738 5.927741 -36.637054
v 4.410324 5.535948 -36.724945
v 4.037567 3.050308 -36.878571
v 1.594818 3.737599 -36.708130
v 4.048828 3.437247 -24.357819
v 6.602966 3.553367 -23.574127
v 6.969681 0.281030 -23.743134
v 3.759064 0.404942 -24.621216
v -0.533463 3.794641 -12.943024
v 2.020706 3.910764 -12.159363
v 2.387405 0.638424 -12.328369
v -0.823227 0.762335 -13.206451
v 0.000000 0.000000 0.000000
vt 0.226015 0.128808
vt 0.239107 0.128808
vt 0.239107 0.172287
vt 0.226015 0.172287
vt 0.235908 0.119162
vt 0.229213 0.119162
vt 0.232561 0.117320
vt 0.226549 0.181933
vt 0.238573 0.181933
vt 0.145584 0.304084
vt 0.226015 0.128808
vt 0.239107 0.128808
vt 0.239107 0.172287
vt 0.226015 0.172287
vt 0.235908 0.119162
vt 0.229213 0.119162
vt 0.232561 0.117320
vt 0.226549 0.181933
vt 0.238573 0.181933
vt 0.226015 0.128808
vt 0.239107 0.128808
vt 0.239107 0.172287
vt 0.226015 0.172287
vt 0.235908 0.119162
vt 0.229213 0.119162
vt 0.232561 0.117320
vt 0.226549 0.181933
vt 0.238573 0.181933
vt 0.145599 0.304084
vt 0.226015 0.128808
vt 0.239107 0.128808
vt 0.239107 0.172287
vt 0.226015 0.172287
vt 0.235908 0.119162
vt 0.229213 0.119162
vt 0.226549 0.181933
vt 0.238573 0.181933
vt 0.232561 0.183774
vt 0.226015 0.128808
vt 0.239107 0.128808
vt 0.239107 0.172287
vt 0.226015 0.172287
vt 0.235908 0.119162
vt 0.229213 0.119162
vt 0.226549 0.181933
vt 0.238573 0.181933
vt 0.232561 0.183774
vt 0.226015 0.128808
vt 0.239107 0.128808
vt 0.239107 0.172287
vt 0.226015 0.172287
vt 0.235908 0.119162
vt 0.229213 0.119162
vt 0.145599 0.304085
vt 0.226549 0.181933
vt 0.238573 0.181933
vt 0.232561 0.183774
vt 0.226015 0.151442
vt 0.239107 0.149653
vt 0.226015 0.149653
vt 0.239107 0.151442
vt 0.226015 0.151442
vt 0.239107 0.149653
vt 0.226015 0.149653
vt 0.239107 0.151442
vt 0.226015 0.151442
vt 0.239107 0.149653
vt 0.226015 0.149653
vt 0.239107 0.151442
vt 0.230929 0.118218
vt 0.235491 0.182877
vt 0.232308 0.182829
vt 0.234420 0.118343
vt 0.230983 0.118188
vt 0.228463 0.182519
vt 0.234843 0.118576
vt 0.232562 0.118430
vt 0.236181 0.182665
vt 0.228936 0.182664
vt 0.145599 0.304085
vt 0.145584 0.304084
vt 0.145599 0.304084
vt 0.145599 0.304084
vt 0.145584 0.304084
vt 0.145584 0.304085
vt 0.145584 0.304085
vt 0.145599 0.304085
vt 0.145599 0.304085
vt 0.145584 0.304084
vt 0.145584 0.304084
vt 0.145584 0.304085
vt 0.145599 0.304085
vt 0.145596 0.304084
vn -0.865726 0.500376 0.011904
vn -0.865714 0.500380 0.012606
vn -0.863447 0.499914 0.067420
vn -0.863447 0.499914 0.067420
vn -0.333446 0.236132 -0.912719
vn -0.333446 0.236132 -0.912719
vn -0.333446 0.236132 -0.912719
vn -0.349068 0.158408 0.923611
vn -0.349068 0.158408 0.923612
vn -0.349068 0.158408 0.923612
vn -0.349068 0.158408 0.923612
vn -0.833694 0.492506 -0.249782
vn -0.833695 0.492506 -0.249782
vn -0.833695 0.492506 -0.249782
vn -0.833694 0.492506 -0.249782
vn -0.840298 0.490503 0.230881
vn -0.840298 0.490503 0.230881
vn -0.840298 0.490503 0.230881
vn -0.840298 0.490503 0.230881
vn 0.865806 0.500226 -0.012443
vn 0.865794 0.500230 -0.013073
vn 0.864281 0.500077 -0.054223
vn 0.864281 0.500077 -0.054223
vn 0.535999 0.270391 -0.799746
vn 0.535999 0.270391 -0.799746
vn 0.535999 0.270391 -0.799746
vn 0.718700 0.401042 0.568010
vn 0.718700 0.401042 0.568010
vn 0.718700 0.401042 0.568010
vn 0.856790 0.485400 -0.174065
vn 0.856790 0.485400 -0.174065
vn 0.856790 0.485400 -0.174065
vn 0.856790 0.485400 -0.174065
vn 0.851859 0.486941 0.192938
vn 0.851859 0.486941 0.192938
vn 0.851859 0.486941 0.192938
vn 0.851859 0.486941 0.192938
vn 0.000767 -1.000000 0.000389
vn 0.000757 -1.000000 -0.000368
vn 0.001126 -0.999637 0.026914
vn 0.001126 -0.999637 0.026914
vn 0.071910 -0.504435 -0.860450
vn 0.071910 -0.504435 -0.860450
vn 0.071910 -0.504435 -0.860450
vn -0.017577 -0.463551 0.885896
vn -0.017577 -0.463551 0.885896
vn -0.017577 -0.463551 0.885896
vn -0.017577 -0.463551 0.885896
vn 0.017677 -0.977216 -0.211510
vn 0.017677 -0.977216 -0.211510
vn 0.017677 -0.977216 -0.211510
vn 0.017677 -0.977216 -0.211510
vn 0.008861 -0.977272 0.211806
vn 0.008861 -0.977272 0.211806
vn 0.008861 -0.977272 0.211806
vn 0.008861 -0.977272 0.211806
vn -0.000007 1.000000 -0.000162
vn -0.000007 1.000000 -0.000162
vn -0.000005 1.000000 0.000002
vn -0.000005 1.000000 -0.000002
vn 0.081090 0.477614 0.874820
vn 0.081090 0.477614 0.874820
vn 0.081090 0.477614 0.874820
vn 0.081090 0.477614 0.874820
vn 0.071908 0.504435 -0.860450
vn 0.071908 0.504435 -0.860450
vn 0.071908 0.504435 -0.860450
vn 0.008861 0.977271 0.211807
vn 0.008861 0.977271 0.211807
vn 0.008861 0.977271 0.211807
vn 0.008861 0.977271 0.211807
vn 0.017676 0.977216 -0.211510
vn 0.017676 0.977216 -0.211510
vn 0.017676 0.977216 -0.211510
vn 0.017676 0.977216 -0.211510
vn -0.862436 -0.499657 0.080919
vn -0.862436 -0.499657 0.080919
vn -0.865617 -0.500545 0.012765
vn -0.865634 -0.500540 0.011749
vn -0.692617 -0.413966 0.590689
vn -0.692617 -0.413966 0.590689
vn -0.692617 -0.413966 0.590689
vn -0.333446 -0.236132 -0.912719
vn -0.333446 -0.236132 -0.912719
vn -0.333446 -0.236132 -0.912719
vn -0.840299 -0.490502 0.230881
vn -0.840299 -0.490502 0.230881
vn -0.840299 -0.490502 0.230881
vn -0.840298 -0.490502 0.230881
vn -0.833694 -0.492506 -0.249782
vn -0.833694 -0.492506 -0.249782
vn -0.833694 -0.492506 -0.249782
vn -0.833694 -0.492506 -0.249782
vn 0.864980 -0.500154 -0.040684
vn 0.864980 -0.500154 -0.040684
vn 0.865893 -0.500062 -0.012943
vn 0.865901 -0.500058 -0.012564
vn 0.488601 -0.185959 0.852460
vn 0.488601 -0.185959 0.852460
vn 0.488601 -0.185959 0.852460
vn 0.488601 -0.185959 0.852460
vn 0.535997 -0.270391 -0.799747
vn 0.535997 -0.270391 -0.799747
vn 0.535997 -0.270391 -0.799747
vn 0.851859 -0.486941 0.192938
vn 0.851859 -0.486941 0.192938
vn 0.851859 -0.486941 0.192938
vn 0.851859 -0.486941 0.192938
vn 0.856790 -0.485400 -0.174065
vn 0.856790 -0.485400 -0.174065
vn 0.856790 -0.485400 -0.174065
vn 0.856790 -0.485400 -0.174065
vn 0.865898 0.499640 0.024084
vn 0.865794 0.500230 -0.013073
vn 0.865806 0.500226 -0.012443
vn 0.865898 0.499640 0.024084
vn -0.000005 1.000000 -0.000002
vn -0.000005 1.000000 0.000002
vn -0.000003 1.000000 0.000141
vn -0.000003 1.000000 0.000141
vn -0.865577 0.499573 -0.034687
vn -0.865714 0.500380 0.012606
vn -0.865726 0.500376 0.011904
vn -0.865577 0.499573 -0.034687
vn -0.865634 -0.500540 0.011749
vn -0.865617 -0.500545 0.012765
vn -0.865119 -0.499435 -0.046188
vn -0.865119 -0.499435 -0.046188
vn 0.000445 -0.999726 -0.023399
vn 0.000757 -1.000000 -0.000368
vn 0.000767 -1.000000 0.000389
vn 0.000445 -0.999726 -0.023399
vn 0.865901 -0.500058 -0.012564
vn 0.865893 -0.500062 -0.012943
vn 0.866144 -0.499650 0.012058
vn 0.866144 -0.499650 0.012058
vn 0.195537 0.930434 0.309932
vn 0.195537 0.930434 0.309932
vn 0.195537 0.930434 0.309932
vn 0.195537 0.930434 0.309932
vn 0.944169 -0.159410 0.288327
vn 0.944170 -0.159410 0.288327
vn 0.944170 -0.159410 0.288327
vn 0.944169 -0.159410 0.288327
vn -0.244592 -0.933950 0.260600
vn -0.244592 -0.933950 0.260600
vn -0.244592 -0.933950 0.260600
vn -0.244592 -0.933950 0.260600
vn -0.908789 0.328556 0.257201
vn -0.908789 0.328556 0.257201
vn -0.908790 0.328556 0.257201
vn -0.908789 0.328556 0.257201
vn 0.033914 0.985174 0.168175
vn 0.033914 0.985174 0.168175
vn 0.033914 0.985174 0.168175
vn 0.033914 0.985174 0.168175
vn 0.981800 0.009598 -0.189676
vn 0.981800 0.009598 -0.189676
vn 0.981800 0.009598 -0.189676
vn 0.981800 0.009598 -0.189676
vn -0.112746 -0.970730 -0.212064
vn -0.112746 -0.970730 -0.212063
vn -0.112746 -0.970730 -0.212063
vn -0.112746 -0.970730 -0.212064
vn -0.961988 0.190395 0.195778
vn -0.961988 0.190395 0.195778
vn -0.961988 0.190395 0.195778
vn -0.961988 0.190395 0.195778
vn -0.031878 0.998520 -0.044060
vn -0.031878 0.998520 -0.044060
vn -0.031878 0.998520 -0.044060
vn -0.031878 0.998520 -0.044060
vn 0.925598 0.084672 0.368915
vn 0.925598 0.084672 0.368915
vn 0.925598 0.084672 0.368915
vn 0.925598 0.084672 0.368915
vn -0.042449 -0.998997 0.014238
vn -0.042449 -0.998997 0.014238
vn -0.042449 -0.998997 0.014238
vn -0.042449 -0.998997 0.014238
vn -0.919967 0.120320 -0.373074
vn -0.919967 0.120320 -0.373074
vn -0.919967 0.120320 -0.373074
vn -0.919967 0.120320 -0.373074
vn -0.993757 0.089134 0.067091
vn -0.993758 0.089134 0.067091
vn -0.993757 0.089134 0.067091
vn -0.023160 -0.998152 -0.056174
vn -0.023160 -0.998152 -0.056174
vn -0.023160 -0.998152 -0.056174
vn 0.975932 0.099337 0.194135
vn 0.975932 0.099337 0.194135
vn 0.975932 0.099337 0.194135
vn -0.130289 0.949966 0.283882
vn -0.130289 0.949966 0.283882
vn -0.130289 0.949966 0.283882
s off
f 28/63/1 29/64/2 3/4/3 2/3/4
f 7/5/5 6/7/6 5/6/7
f 9/8/8 35/79/9 32/71/10 8/9/11
f 1/2/12 7/5/13 5/6/14 4/1/15
f 3/4/16 9/8/17 8/9/18 2/3/19
f 26/59/20 27/60/21 12/14/22 11/13/23
f 15/15/24 6/17/25 14/16/26
f 17/18/27 33/72/28 16/19/29
f 10/12/30 15/15/31 14/16/32 13/11/33
f 12/14/34 17/18/35 16/19/36 11/13/37
f 30/67/38 31/68/39 20/23/40 19/22/41
f 23/24/42 6/26/43 22/25/44
f 25/27/45 34/75/46 35/78/47 24/28/48
f 18/21/49 23/24/50 22/25/51 21/20/52
f 20/23/53 25/27/54 24/28/55 19/22/56
f 2/30/57 12/31/58 27/61/59 28/62/60
f 17/34/61 8/35/62 32/70/63 33/73/64
f 7/36/65 14/37/66 6/38/67
f 12/31/68 2/30/69 8/35/70 17/34/71
f 1/33/72 13/32/73 14/37/74 7/36/75
f 19/39/76 3/40/77 29/65/78 30/66/79
f 9/43/80 24/44/81 35/77/82
f 23/45/83 5/46/84 6/47/85
f 3/40/86 19/39/87 24/44/88 9/43/89
f 18/42/90 4/41/91 5/46/92 23/45/93
f 11/48/94 20/49/95 31/69/96 26/58/97
f 25/52/98 16/53/99 33/74/100 34/76/101
f 15/55/102 22/56/103 6/57/104
f 20/49/105 11/48/106 16/53/107 25/52/108
f 10/51/109 21/50/110 22/56/111 15/55/112
f 13/11/113 27/60/114 26/59/115 10/12/116
f 28/62/117 27/61/118 13/32/119 1/33/120
f 4/1/121 29/64/122 28/63/123 1/2/124
f 30/66/125 29/65/126 4/41/127 18/42/128
f 21/20/129 31/68/130 30/67/131 18/21/132
f 26/58/133 31/69/134 21/50/135 10/51/136
f 33/81/137 32/82/138 36/83/139 37/84/140
f 34/85/141 33/81/142 37/84/143 38/86/144
f 35/87/145 34/85/146 38/86/147 39/88/148
f 32/82/149 35/87/150 39/88/151 36/83/152
f 37/84/153 36/83/154 40/89/155 41/90/156
f 38/86/157 37/84/158 41/90/159 42/91/160
f 39/88/161 38/86/162 42/91/163 43/92/164
f 36/83/165 39/88/166 43/92/167 40/89/168
f 41/90/169 40/89/170 44/29/171 45/10/172
f 42/91/173 41/90/174 45/10/175 46/54/176
f 43/92/177 42/91/178 46/54/179 47/80/180
f 40/89/181 43/92/182 47/80/183 44/29/184
f 44/29/185 47/80/186 48/93/187
f 47/80/188 46/54/189 48/93/190
f 46/54/191 45/10/192 48/93/193
f 45/10/194 44/29/195 48/93/196
