# This file uses centimeters as units for non-parametric coordinates.

v -6.807098 9.151547 -6.179077
v -5.376221 8.018925 10.525818
v -1.493988 10.505736 12.067444
v -3.269196 8.477940 8.318726
v 5.277435 10.409689 8.994812
v 6.441620 11.107115 6.049011
v 8.143585 10.379610 3.380615
v -2.842468 12.440181 8.617340
v -3.048401 12.845693 6.898529
v 0.498322 12.616412 7.681152
v -7.990417 11.214232 3.857635
v -7.440643 6.770064 9.384521
v -9.330688 6.030105 -0.268860
v 3.650909 11.961781 6.202667
v -1.916748 11.056551 5.449768
v 7.287872 11.418079 -0.579437
v -3.566803 1.577212 8.376434
v -5.171997 10.121599 2.327209
v -6.072479 7.820992 8.292969
v -9.182648 7.941078 -3.491882
v -5.522247 0.868100 -4.295197
v 10.856781 6.886727 0.561035
v -2.455658 12.717484 2.105469
v 2.984192 0.578361 7.671051
v 4.141632 12.560409 0.571991
v -8.167145 10.463672 -1.472443
v -6.928925 5.206857 -4.786224
v 4.151428 11.356164 -4.668091
v -6.314362 9.343797 -1.945923
v 9.692566 4.896505 -3.558838
v 10.136871 10.318067 -1.484528
v 4.178162 -0.317343 -3.983978
v 6.142792 8.431911 -5.810760
v -7.230347 12.150692 -2.820679
v -0.222809 12.575912 -6.633942
v -3.242981 12.476707 -6.783508
v 4.337494 10.292523 -7.890656
v 1.104950 12.070436 -8.154816
v -5.622559 6.855333 -5.577515
v -0.411133 6.023001 -9.232483
v 7.746277 8.380704 -4.588409
v 8.659210 8.526377 0.342407
vt 0.107589 0.194175
vt 0.107674 0.194150
vt 0.102777 0.194143
vt 0.107656 0.194108
vt 0.107717 0.194121
vt 0.106830 0.194132
vt 0.107656 0.194071
vt 0.098940 0.194109
vt 0.107654 0.194070
vt 0.107654 0.194087
vt 0.107655 0.194118
vt 0.107653 0.194119
vt 0.107655 0.194166
vt 0.102759 0.194035
vt 0.103364 0.194056
vt 0.107654 0.194060
vt 0.102769 0.194109
vt 0.107655 0.194074
vt 0.107656 0.194161
vt 0.107674 0.194182
vt 0.107655 0.194060
vt 0.107654 0.194106
vt 0.102768 0.194150
vt 0.098908 0.194082
vt 0.102042 0.194119
vt 0.107655 0.194070
vt 0.107654 0.194175
vt 0.098898 0.194133
vt 0.098940 0.194075
vt 0.102777 0.194042
vt 0.107655 0.194051
vt 0.102769 0.194063
vt 0.102769 0.194146
vt 0.107655 0.194078
vt 0.107656 0.194065
vt 0.107654 0.194164
vt 0.107655 0.194109
vt 0.102775 0.194135
vt 0.107654 0.194064
vt 0.107654 0.194134
vt 0.102767 0.194104
vt 0.107654 0.194100
vt 0.107654 0.194087
vt 0.106434 0.194156
vt 0.106434 0.194156
vt 0.106434 0.194156
vn -0.676907 -0.226398 -0.700386
vn -0.676907 -0.226398 -0.700386
vn -0.676907 -0.226398 -0.700386
vn -0.763588 0.430819 -0.480966
vn -0.763588 0.430819 -0.480966
vn -0.763588 0.430819 -0.480966
vn -0.449542 0.857309 -0.250864
vn -0.449542 0.857309 -0.250864
vn -0.449542 0.857309 -0.250864
vn -0.170991 0.898228 -0.404906
vn -0.170991 0.898228 -0.404906
vn -0.170991 0.898228 -0.404906
vn -0.143884 -0.349350 0.925879
vn -0.143884 -0.349350 0.925879
vn -0.143884 -0.349350 0.925879
vn 0.150083 0.725118 0.672071
vn 0.150083 0.725118 0.672071
vn 0.150083 0.725118 0.672071
vn 0.012586 0.973539 0.228175
vn 0.012586 0.973539 0.228175
vn 0.012586 0.973539 0.228175
vn 0.401172 -0.213517 0.890770
vn 0.401172 -0.213517 0.890770
vn 0.401172 -0.213517 0.890770
vn 0.753047 -0.257199 0.605614
vn 0.753047 -0.257199 0.605614
vn 0.753047 -0.257199 0.605614
vn 0.328750 0.893713 0.305288
vn 0.328750 0.893713 0.305288
vn 0.328750 0.893713 0.305288
vn -0.441337 0.860110 0.255798
vn -0.441337 0.860110 0.255798
vn -0.441337 0.860110 0.255798
vn 0.582471 0.734138 -0.348954
vn 0.582471 0.734139 -0.348954
vn 0.582471 0.734138 -0.348954
vn 0.198288 0.689503 -0.696612
vn 0.198288 0.689503 -0.696612
vn 0.198288 0.689503 -0.696612
vn 0.039674 -0.389590 0.920134
vn 0.039674 -0.389589 0.920134
vn 0.039674 -0.389590 0.920134
vn 0.843128 0.324588 0.428693
vn 0.843128 0.324588 0.428693
vn 0.843128 0.324588 0.428693
vn 0.843128 0.324588 0.428693
vn -0.228009 0.973540 -0.015202
vn -0.228009 0.973540 -0.015202
vn -0.228009 0.973540 -0.015202
vn -0.067820 0.850689 -0.521276
vn -0.067820 0.850689 -0.521276
vn -0.067820 0.850689 -0.521276
vn -0.063344 -0.068216 0.995658
vn -0.063344 -0.068216 0.995658
vn -0.063344 -0.068216 0.995658
vn -0.605087 0.669914 0.430215
vn -0.605087 0.669914 0.430215
vn -0.605087 0.669914 0.430215
vn -0.202829 0.863597 0.461586
vn -0.202829 0.863597 0.461586
vn -0.202829 0.863597 0.461586
vn -0.767120 -0.610509 0.196992
vn -0.767120 -0.610509 0.196992
vn -0.767120 -0.610509 0.196992
vn -0.582049 0.811505 0.051756
vn -0.582049 0.811505 0.051756
vn -0.582049 0.811505 0.051756
vn -0.667289 0.423589 0.612616
vn -0.667289 0.423589 0.612616
vn -0.667289 0.423588 0.612616
vn -0.920456 0.390083 -0.024411
vn -0.920456 0.390083 -0.024411
vn -0.920456 0.390083 -0.024411
vn 0.049164 0.992734 0.109828
vn 0.049164 0.992734 0.109828
vn 0.049164 0.992734 0.109828
vn 0.200258 0.689940 -0.695615
vn 0.200258 0.689940 -0.695615
vn 0.200258 0.689940 -0.695615
vn 0.129992 0.904437 -0.406321
vn 0.129992 0.904437 -0.406321
vn 0.129992 0.904437 -0.406321
vn -0.735810 -0.660254 0.150496
vn -0.735810 -0.660254 0.150496
vn -0.735810 -0.660254 0.150496
vn -0.945634 -0.211098 0.247414
vn -0.945634 -0.211098 0.247414
vn -0.945634 -0.211098 0.247414
vn 0.237709 0.942457 -0.235095
vn 0.237709 0.942457 -0.235095
vn 0.237709 0.942457 -0.235095
vn 0.486360 0.862851 -0.137629
vn 0.486361 0.862851 -0.137629
vn 0.486361 0.862851 -0.137629
vn -0.144011 -0.987685 0.061152
vn -0.144011 -0.987685 0.061152
vn -0.144011 -0.987685 0.061152
vn 0.694766 -0.704658 0.144074
vn 0.694766 -0.704658 0.144074
vn 0.694766 -0.704658 0.144074
vn -0.714831 -0.675259 0.181772
vn -0.714831 -0.675259 0.181772
vn -0.714831 -0.675259 0.181772
vn 0.957875 0.030747 -0.285535
vn 0.957875 0.030747 -0.285535
vn 0.957875 0.030747 -0.285535
vn 0.880907 0.301432 -0.364886
vn 0.880907 0.301432 -0.364886
vn 0.880907 0.301432 -0.364886
vn 0.676524 -0.725721 0.125077
vn 0.676524 -0.725721 0.125077
vn 0.676524 -0.725721 0.125077
vn 0.712392 0.199091 -0.672949
vn 0.712392 0.199091 -0.672949
vn 0.712392 0.199091 -0.672949
vn -0.481403 0.874210 0.063304
vn -0.481404 0.874210 0.063304
vn -0.481404 0.874210 0.063304
vn -0.481404 0.874210 0.063304
vn 0.021303 0.999715 -0.010752
vn 0.021303 0.999715 -0.010752
vn 0.021303 0.999715 -0.010752
vn -0.553289 0.818513 -0.154620
vn -0.553289 0.818513 -0.154620
vn -0.553289 0.818513 -0.154620
vn -0.123318 -0.989574 0.074407
vn -0.123318 -0.989574 0.074407
vn -0.123318 -0.989574 0.074407
vn -0.687735 0.724094 0.052056
vn -0.687735 0.724094 0.052056
vn -0.687735 0.724093 0.052056
vn 0.421185 0.392294 0.817746
vn 0.421185 0.392294 0.817746
vn 0.421185 0.392294 0.817746
vn -0.898551 0.430402 -0.085789
vn -0.898551 0.430402 -0.085789
vn -0.898551 0.430402 -0.085789
vn 0.523873 -0.285217 -0.802626
vn 0.523873 -0.285217 -0.802626
vn 0.523873 -0.285217 -0.802626
vn 0.444466 0.395528 0.803746
vn 0.444466 0.395528 0.803746
vn 0.444466 0.395528 0.803746
vn 0.463134 0.577946 -0.671927
vn 0.463134 0.577946 -0.671927
vn 0.463134 0.577946 -0.671927
vn -0.305518 -0.204304 -0.930010
vn -0.305518 -0.204304 -0.930010
vn -0.305517 -0.204304 -0.930010
vn 0.531212 -0.348059 -0.772443
vn 0.531213 -0.348059 -0.772443
vn 0.531213 -0.348059 -0.772443
vn 0.605026 0.104738 -0.789287
vn 0.605026 0.104738 -0.789287
vn 0.605026 0.104738 -0.789287
vn 0.621979 0.613628 -0.486418
vn 0.621979 0.613628 -0.486418
vn 0.621979 0.613628 -0.486418
vn 0.886863 0.394491 -0.240523
vn 0.886863 0.394491 -0.240523
vn 0.886863 0.394491 -0.240523
vn 0.492120 0.816120 0.302929
vn 0.492120 0.816120 0.302929
vn 0.492120 0.816120 0.302929
vn -0.056724 -0.660680 -0.748521
vn -0.056724 -0.660680 -0.748521
vn -0.056724 -0.660680 -0.748521
vn -0.035109 0.998287 0.046801
vn -0.035109 0.998287 0.046801
vn -0.035109 0.998287 0.046801
vn -0.703188 0.148492 -0.695325
vn -0.703188 0.148492 -0.695325
vn -0.703188 0.148492 -0.695325
vn -0.566237 0.063386 -0.821802
vn -0.566237 0.063386 -0.821802
vn -0.566237 0.063386 -0.821802
vn -0.583926 -0.179356 -0.791746
vn -0.583926 -0.179356 -0.791746
vn -0.583926 -0.179356 -0.791746
vn -0.014843 0.944905 -0.327007
vn -0.014843 0.944905 -0.327007
vn -0.014843 0.944905 -0.327007
vn 0.470822 0.873950 0.120574
vn 0.470822 0.873950 0.120574
vn 0.470822 0.873950 0.120574
vn -0.272391 0.234578 -0.933154
vn -0.272391 0.234578 -0.933154
vn -0.272391 0.234578 -0.933154
vn 0.154576 0.135642 -0.978626
vn 0.154576 0.135642 -0.978625
vn 0.154576 0.135642 -0.978625
vn 0.317626 -0.261618 -0.911411
vn 0.317626 -0.261618 -0.911411
vn 0.317626 -0.261618 -0.911411
vn 0.262556 0.940510 -0.215652
vn 0.262556 0.940510 -0.215652
vn 0.262556 0.940510 -0.215652
vn 0.380206 0.915652 0.130483
vn 0.380206 0.915652 0.130483
vn 0.380206 0.915652 0.130483
vn 0.008668 -0.076077 0.997064
vn 0.008668 -0.076077 0.997064
vn 0.008668 -0.076077 0.997064
vn 0.320388 0.533756 0.782596
vn 0.320388 0.533756 0.782596
vn 0.320388 0.533756 0.782596
vn 0.293073 0.897918 0.328407
vn 0.293073 0.897918 0.328407
vn 0.293073 0.897918 0.328407
vn 0.082854 0.919719 -0.383734
vn 0.082854 0.919719 -0.383734
vn 0.082854 0.919719 -0.383734
vn 0.082854 0.919719 -0.383734
vn -0.858679 -0.323392 -0.397602
vn -0.858679 -0.323392 -0.397602
vn -0.858679 -0.323392 -0.397602
vn 0.503868 0.213395 0.837006
vn 0.503868 0.213395 0.837006
vn 0.503868 0.213395 0.837006
vn -0.884662 -0.350918 0.306967
vn -0.884662 -0.350918 0.306967
vn -0.884662 -0.350918 0.306967
vn -0.028947 0.980557 -0.194088
vn -0.028947 0.980557 -0.194088
vn -0.028947 0.980557 -0.194088
vn 0.348795 0.913531 -0.209291
vn 0.348795 0.913531 -0.209290
vn 0.348795 0.913531 -0.209291
vn -0.155479 -0.324628 -0.932975
vn -0.155479 -0.324628 -0.932975
vn -0.155479 -0.324628 -0.932975
vn 0.782828 0.492483 0.380317
vn 0.782828 0.492483 0.380317
vn 0.782828 0.492483 0.380317
s off
f 20/1/1 1/2/2 27/3/3
f 1/2/4 20/1/5 34/36/6
f 3/4/7 4/5/8 2/6/9
f 4/5/10 3/4/11 5/7/12
f 17/8/13 3/4/14 2/6/15
f 10/10/16 8/11/17 5/7/18
f 10/10/19 9/12/20 8/11/21
f 5/7/22 3/4/23 24/24/24
f 5/7/25 24/24/26 22/14/27
f 10/10/28 5/7/29 14/18/30
f 11/13/31 8/11/32 9/12/33
f 22/14/34 42/15/35 7/16/36
f 10/10/37 15/17/38 9/12/39
f 3/4/40 17/8/41 24/24/42
f 22/14/43 7/16/44 6/9/45 5/7/46
f 4/5/47 19/25/48 2/6/49
f 14/18/50 15/17/51 10/43/52
f 8/11/53 4/5/54 5/7/55
f 23/22/56 18/23/57 15/17/58
f 15/17/59 14/18/60 23/22/61
f 12/19/62 13/20/63 17/8/64
f 12/19/65 19/25/66 13/20/67
f 11/13/68 19/25/69 8/11/70
f 11/13/71 26/27/72 20/1/73
f 25/26/74 23/22/75 14/18/76
f 15/17/77 11/13/78 9/12/79
f 18/23/80 11/13/81 15/17/82
f 13/20/83 21/28/84 17/8/85
f 20/1/86 19/25/87 11/13/88
f 18/23/89 29/33/90 11/13/91
f 11/13/92 29/33/93 26/27/94
f 17/8/95 32/29/96 24/24/97
f 24/24/98 30/30/99 22/14/100
f 20/1/101 27/3/102 19/25/103
f 22/14/104 30/30/105 31/31/106
f 16/21/107 42/15/108 33/32/109
f 32/29/110 30/30/111 24/24/112
f 30/30/113 41/35/114 31/31/115
f 31/31/116 41/35/117 33/32/118 42/15/119
f 35/37/120 23/22/121 25/26/122
f 23/22/123 35/37/124 29/33/125
f 21/28/126 32/29/127 17/8/128
f 29/33/129 18/23/130 23/22/131
f 34/36/132 29/33/133 35/37/134
f 26/27/135 34/36/136 20/1/137
f 33/32/138 32/29/139 40/41/140
f 34/36/141 26/27/142 29/33/143
f 33/32/144 35/37/145 28/34/146
f 21/28/147 27/3/148 39/38/149
f 40/41/150 37/39/151 33/32/152
f 33/32/153 41/35/154 30/30/155
f 33/32/156 28/34/157 16/21/158
f 39/44/159 1/2/160 34/36/161
f 37/39/162 35/37/163 33/32/164
f 40/41/165 32/29/166 21/28/167
f 34/36/168 35/37/169 36/40/170
f 39/45/171 34/36/172 36/40/173
f 39/46/174 36/40/175 40/41/176
f 21/28/177 39/38/178 40/41/179
f 35/37/180 38/42/181 36/40/182
f 35/37/183 37/39/184 38/42/185
f 36/40/186 38/42/187 40/41/188
f 40/41/189 38/42/190 37/39/191
f 30/30/192 32/29/193 33/32/194
f 28/34/195 25/26/196 16/21/197
f 16/21/198 25/26/199 14/18/200
f 19/25/201 4/5/202 8/11/203
f 22/14/204 31/31/205 42/15/206
f 5/7/207 6/9/208 14/18/209
f 14/18/210 6/9/211 7/16/212 42/15/213
f 21/28/214 13/20/215 27/3/216
f 17/8/217 19/25/218 12/19/219
f 2/6/220 19/25/221 17/8/222
f 27/3/223 13/20/224 19/25/225
f 35/37/226 25/26/227 28/34/228
f 1/2/229 39/38/230 27/3/231
f 14/18/232 42/15/233 16/21/234
