# This file uses centimeters as units for non-parametric coordinates.

v 40.252716 1.462942 -20.444763
v 40.252716 1.462942 20.444702
v 40.252716 -10.996282 -20.444763
v 40.252716 -10.996282 20.444702
v 0.000000 -11.719307 -25.462494
v 0.000000 8.004839 -25.462494
v 0.000000 8.004839 25.466431
v 0.000000 -11.719307 25.466431
v 15.975311 -11.168276 -24.014252
v 15.975281 7.173304 -24.014252
v 15.975281 7.173304 24.013855
v 15.975311 -11.168276 24.013855
v 0.000000 16.525665 -12.850494
v 15.975281 14.845758 -12.120361
v 36.992462 4.688854 -13.172180
v 36.992462 -14.222194 -13.172180
v 15.975311 -15.468051 -12.120361
v 0.000000 -15.316364 -12.850494
v 36.992462 -14.222194 12.625946
v 36.992462 4.688854 12.625946
v 15.975281 14.845758 11.617645
v 0.000000 16.525665 12.321228
v 0.000000 -15.316364 12.321228
v 15.975311 -15.468051 11.617645
v 25.617950 -15.066607 12.080261
v 25.617950 -15.066607 -12.602936
v 27.354584 -9.972530 -22.272186
v 27.354584 5.368891 -22.272186
v 25.617950 11.130928 -12.602936
v 25.617950 11.130928 12.080261
v 27.354584 5.368891 22.272552
v 27.354584 -9.972530 22.272552
v 40.290894 -6.829580 -24.933746
v 40.290894 -2.703674 -24.933746
v 35.115082 1.304586 -28.622894
v 35.115082 -5.783697 -28.622894
v 40.290894 -6.829552 24.933746
v 40.290894 -2.703674 24.933746
v 35.114960 -5.783697 28.623016
v 35.114960 1.304586 28.623016
v -40.252747 1.462942 -20.444763
v -40.252747 1.462942 20.444702
v -40.252747 -10.996282 -20.444763
v -40.252747 -10.996282 20.444702
v -15.975311 -11.168276 -24.014252
v -15.975281 7.173304 -24.014252
v -15.975281 7.173304 24.013855
v -15.975311 -11.168276 24.013855
v -15.975281 14.845758 -12.120361
v -36.992462 4.688854 -13.172180
v -36.992462 -14.222194 -13.172180
v -15.975311 -15.468051 -12.120361
v -36.992462 -14.222194 12.625946
v -36.992462 4.688854 12.625946
v -15.975281 14.845758 11.617645
v -15.975311 -15.468051 11.617645
v -25.617950 -15.066607 12.080261
v -25.617950 -15.066607 -12.602936
v -27.354584 -9.972530 -22.272186
v -27.354584 5.368891 -22.272186
v -25.617950 11.130928 -12.602936
v -25.617950 11.130928 12.080261
v -27.354584 5.368891 22.272552
v -27.354584 -9.972530 22.272552
v -40.290924 -6.829580 -24.933746
v -40.290924 -2.703674 -24.933746
v -35.115082 1.304586 -28.622894
v -35.115082 -5.783697 -28.622894
v -40.290924 -6.829552 24.933746
v -40.290924 -2.703674 24.933746
v -35.114990 -5.783697 28.623016
v -35.114990 1.304586 28.623016
v -42.250977 -4.766668 20.444702
v -42.250977 -4.766668 -20.444763
v -39.802826 -4.766668 -13.172180
v -39.802826 -4.766668 12.625946
v 42.250977 -4.766668 20.444702
v 42.250977 -4.766668 -20.444763
v 39.802826 -4.766668 -13.172180
v 39.802826 -4.766668 12.625946
vt 0.036714 0.324949
vt 0.036714 0.324949
vt 0.036714 0.324949
vt 0.036714 0.324949
vt 0.036714 0.324949
vt 0.036714 0.324949
vt 0.036714 0.324949
vt 0.036714 0.324949
vt 0.036714 0.324949
vt 0.036714 0.324949
vt 0.036714 0.324949
vt 0.036714 0.324949
vt 0.036714 0.324949
vt 0.036714 0.324949
vt 0.036714 0.324949
vt 0.036714 0.324949
vt 0.036714 0.324949
vt 0.036714 0.324949
vt 0.036714 0.324949
vt 0.036714 0.324949
vt 0.036714 0.324949
vt 0.036714 0.324949
vt 0.036714 0.324949
vt 0.036714 0.324949
vt 0.036714 0.324949
vt 0.036714 0.324949
vt 0.036714 0.324949
vt 0.036714 0.324949
vt 0.036714 0.324949
vt 0.036714 0.324949
vt 0.036714 0.324949
vt 0.036714 0.324949
vt 0.036714 0.324949
vt 0.036714 0.324949
vt 0.036714 0.324949
vt 0.036714 0.324949
vt 0.036714 0.324949
vt 0.036714 0.324949
vt 0.036714 0.324949
vt 0.036714 0.324949
vt 0.036714 0.324949
vt 0.036714 0.324949
vt 0.036714 0.324949
vt 0.036714 0.324949
vt 0.036714 0.324949
vt 0.036714 0.324949
vt 0.036714 0.324949
vt 0.036714 0.324949
vt 0.036714 0.324949
vt 0.036714 0.324949
vt 0.036714 0.324949
vt 0.036714 0.324949
vt 0.036714 0.324949
vt 0.036714 0.324949
vt 0.036714 0.324949
vt 0.036714 0.324949
vt 0.036714 0.324949
vt 0.036714 0.324949
vt 0.036714 0.324949
vt 0.036714 0.324949
vt 0.036714 0.324949
vt 0.036714 0.324949
vt 0.036714 0.324949
vt 0.036714 0.324949
vt 0.036714 0.324949
vt 0.036714 0.324949
vt 0.036714 0.324949
vt 0.036714 0.324949
vt 0.036714 0.324949
vt 0.036714 0.324949
vt 0.036714 0.324949
vt 0.036714 0.324949
vt 0.036714 0.324949
vt 0.036714 0.324949
vt 0.036714 0.324949
vt 0.036714 0.324949
vt 0.036714 0.324949
vt 0.036714 0.324949
vt 0.036714 0.324949
vt 0.036714 0.324949
vt 0.036714 0.324949
vt 0.036714 0.324949
vt 0.036714 0.324949
vt 0.036714 0.324949
vt 0.036714 0.324949
vt 0.036714 0.324949
vt 0.036714 0.324949
vt 0.036714 0.324949
vt 0.036714 0.324949
vt 0.036714 0.324949
vt 0.036714 0.324949
vt 0.036714 0.324949
vt 0.036714 0.324949
vt 0.036714 0.324949
vt 0.036714 0.324949
vt 0.036714 0.324949
vt 0.036714 0.324949
vt 0.036714 0.324949
vt 0.036714 0.324949
vt 0.036714 0.324949
vt 0.036714 0.324949
vt 0.036714 0.324949
vt 0.036714 0.324949
vt 0.036714 0.324949
vt 0.036714 0.324949
vt 0.036714 0.324949
vt 0.036714 0.324949
vt 0.036714 0.324949
vt 0.036714 0.324949
vt 0.036714 0.324949
vt 0.036714 0.324949
vt 0.036714 0.324949
vt 0.036714 0.324949
vt 0.036714 0.324949
vt 0.036714 0.324949
vt 0.036714 0.324949
vn 0.958557 -0.284902 0.000000
vn 0.958557 -0.284902 0.000000
vn 0.958557 -0.284902 0.000000
vn 0.958557 -0.284902 0.000000
vn 0.090285 0.000000 -0.995916
vn 0.090285 0.000000 -0.995916
vn 0.090285 0.000000 -0.995916
vn 0.090285 0.000000 -0.995916
vn 0.104580 0.994516 0.000000
vn 0.104580 0.994517 0.000000
vn 0.104580 0.994516 0.000000
vn 0.104580 0.994516 0.000000
vn 0.090553 0.000000 0.995892
vn 0.090553 0.000000 0.995892
vn 0.090553 0.000000 0.995892
vn 0.090553 0.000000 0.995892
vn -0.009495 -0.999955 0.000000
vn -0.009495 -0.999955 0.000000
vn -0.009495 -0.999955 0.000000
vn -0.009495 -0.999955 0.000000
vn 0.151328 0.000000 -0.988484
vn 0.151328 0.000000 -0.988484
vn 0.151328 0.000000 -0.988484
vn 0.151328 0.000000 -0.988484
vn 0.359494 0.933147 0.000000
vn 0.359494 0.933147 0.000000
vn 0.359494 0.933147 0.000000
vn 0.359494 0.933147 0.000000
vn 0.151263 0.000000 0.988494
vn 0.151263 0.000000 0.988494
vn 0.151263 0.000000 0.988494
vn 0.151263 0.000000 0.988494
vn 0.041596 -0.999135 0.000000
vn 0.041596 -0.999135 0.000000
vn 0.041596 -0.999134 0.000000
vn 0.041596 -0.999134 0.000000
vn 0.102623 0.829901 -0.548391
vn 0.102623 0.829901 -0.548391
vn 0.102623 0.829901 -0.548391
vn 0.102623 0.829901 -0.548391
vn 0.248019 0.831069 -0.497806
vn 0.248019 0.831069 -0.497806
vn 0.248019 0.831069 -0.497806
vn 0.248019 0.831069 -0.497806
vn 0.913150 -0.279946 0.296287
vn 0.913150 -0.279946 0.296287
vn 0.913150 -0.279946 0.296287
vn 0.913150 -0.279946 0.296287
vn 0.093007 -0.915528 -0.391354
vn 0.093007 -0.915528 -0.391354
vn 0.093007 -0.915528 -0.391354
vn 0.093007 -0.915528 -0.391354
vn 0.032790 -0.951291 -0.306546
vn 0.032790 -0.951291 -0.306546
vn 0.032790 -0.951291 -0.306546
vn 0.032790 -0.951291 -0.306546
vn 0.918603 -0.281618 -0.277236
vn 0.918603 -0.281618 -0.277236
vn 0.918603 -0.281618 -0.277236
vn 0.918603 -0.281618 -0.277236
vn 0.249915 0.840525 0.480688
vn 0.249915 0.840525 0.480688
vn 0.249915 0.840525 0.480688
vn 0.249915 0.840525 0.480688
vn 0.101986 0.840160 0.532663
vn 0.101986 0.840160 0.532663
vn 0.101986 0.840160 0.532663
vn 0.101986 0.840160 0.532663
vn 0.031858 -0.954894 0.295232
vn 0.031858 -0.954894 0.295232
vn 0.031858 -0.954894 0.295232
vn 0.031858 -0.954894 0.295232
vn 0.092925 -0.921856 0.376227
vn 0.092925 -0.921856 0.376227
vn 0.092925 -0.921856 0.376227
vn 0.092925 -0.921856 0.376227
vn 0.074034 -0.997256 0.000000
vn 0.074034 -0.997256 0.000000
vn 0.074034 -0.997256 0.000000
vn 0.074034 -0.997256 0.000000
vn 0.016004 -0.899348 -0.436942
vn 0.016004 -0.899348 -0.436942
vn 0.016004 -0.899348 -0.436942
vn 0.016004 -0.899348 -0.436942
vn 0.580419 0.000000 -0.814318
vn 0.580419 0.000000 -0.814318
vn 0.580419 0.000000 -0.814318
vn 0.580419 0.000000 -0.814318
vn 0.383468 0.857888 -0.342024
vn 0.383468 0.857888 -0.342024
vn 0.383468 0.857888 -0.342024
vn 0.383468 0.857888 -0.342024
vn 0.492811 0.870136 0.000000
vn 0.492811 0.870136 0.000000
vn 0.492811 0.870136 0.000000
vn 0.492811 0.870136 0.000000
vn 0.385432 0.863914 0.324182
vn 0.385432 0.863914 0.324182
vn 0.385432 0.863914 0.324182
vn 0.385432 0.863914 0.324182
vn 0.580423 0.000000 0.814315
vn 0.580423 0.000000 0.814315
vn 0.580423 0.000000 0.814315
vn 0.580423 0.000000 0.814315
vn 0.015246 -0.909319 0.415819
vn 0.015246 -0.909319 0.415819
vn 0.015246 -0.909319 0.415819
vn 0.015246 -0.909319 0.415819
vn 0.916445 0.000000 -0.400160
vn 0.916445 0.000000 -0.400160
vn 0.916445 0.000000 -0.400160
vn 0.458485 0.835019 -0.304196
vn 0.458485 0.835018 -0.304196
vn 0.458485 0.835019 -0.304196
vn 0.458485 0.835019 -0.304196
vn -0.633310 0.000000 -0.773898
vn -0.633310 0.000000 -0.773898
vn -0.633310 0.000000 -0.773898
vn -0.633310 0.000000 -0.773898
vn 0.080871 -0.816707 -0.571358
vn 0.080871 -0.816707 -0.571358
vn 0.080871 -0.816707 -0.571358
vn 0.080871 -0.816707 -0.571358
vn 0.918033 0.294476 0.265517
vn 0.918033 0.294476 0.265517
vn 0.918033 0.294476 0.265517
vn 0.080888 -0.816706 0.571357
vn 0.080888 -0.816706 0.571357
vn 0.080888 -0.816706 0.571357
vn 0.080888 -0.816706 0.571357
vn -0.633302 0.000000 0.773905
vn -0.633302 0.000000 0.773905
vn -0.633302 0.000000 0.773905
vn -0.633302 0.000000 0.773905
vn 0.458490 0.835014 0.304200
vn 0.458490 0.835015 0.304200
vn 0.458490 0.835014 0.304200
vn 0.458490 0.835014 0.304200
vn -0.958557 0.284902 0.000000
vn -0.958557 0.284902 0.000000
vn -0.958557 0.284902 0.000000
vn -0.958557 0.284902 0.000000
vn -0.090285 0.000000 -0.995916
vn -0.090285 0.000000 -0.995916
vn -0.090285 0.000000 -0.995916
vn -0.090285 0.000000 -0.995916
vn -0.104580 0.994516 0.000000
vn -0.104580 0.994516 0.000000
vn -0.104580 0.994516 0.000000
vn -0.104580 0.994517 0.000000
vn -0.090553 0.000000 0.995892
vn -0.090553 0.000000 0.995892
vn -0.090553 0.000000 0.995892
vn -0.090553 0.000000 0.995892
vn 0.009495 -0.999955 0.000000
vn 0.009495 -0.999955 0.000000
vn 0.009495 -0.999955 0.000000
vn 0.009495 -0.999955 0.000000
vn -0.151328 0.000000 -0.988484
vn -0.151328 0.000000 -0.988484
vn -0.151328 0.000000 -0.988484
vn -0.151328 0.000000 -0.988484
vn -0.359494 0.933147 0.000000
vn -0.359494 0.933147 0.000000
vn -0.359494 0.933147 0.000000
vn -0.359494 0.933147 0.000000
vn -0.151263 0.000000 0.988494
vn -0.151263 0.000000 0.988494
vn -0.151263 0.000000 0.988494
vn -0.151263 0.000000 0.988494
vn -0.041596 -0.999134 0.000000
vn -0.041596 -0.999134 0.000000
vn -0.041596 -0.999135 0.000000
vn -0.041596 -0.999134 0.000000
vn -0.102623 0.829901 -0.548391
vn -0.102623 0.829901 -0.548391
vn -0.102623 0.829901 -0.548391
vn -0.102623 0.829901 -0.548391
vn -0.248019 0.831069 -0.497806
vn -0.248019 0.831069 -0.497806
vn -0.248019 0.831069 -0.497806
vn -0.248019 0.831069 -0.497806
vn -0.913150 0.279945 0.296290
vn -0.913150 0.279945 0.296290
vn -0.913150 0.279945 0.296290
vn -0.913150 0.279945 0.296290
vn -0.093007 -0.915528 -0.391354
vn -0.093007 -0.915528 -0.391354
vn -0.093007 -0.915528 -0.391354
vn -0.093007 -0.915528 -0.391354
vn -0.032790 -0.951291 -0.306546
vn -0.032790 -0.951291 -0.306546
vn -0.032790 -0.951291 -0.306546
vn -0.032790 -0.951291 -0.306546
vn -0.918603 0.281616 -0.277238
vn -0.918603 0.281616 -0.277238
vn -0.918603 0.281616 -0.277238
vn -0.918603 0.281616 -0.277238
vn -0.249915 0.840525 0.480688
vn -0.249915 0.840525 0.480688
vn -0.249915 0.840525 0.480688
vn -0.249915 0.840525 0.480688
vn -0.101986 0.840160 0.532663
vn -0.101986 0.840160 0.532663
vn -0.101986 0.840160 0.532663
vn -0.101986 0.840160 0.532663
vn -0.031859 -0.954894 0.295232
vn -0.031859 -0.954894 0.295232
vn -0.031859 -0.954894 0.295232
vn -0.031859 -0.954894 0.295232
vn -0.092925 -0.921856 0.376227
vn -0.092925 -0.921856 0.376227
vn -0.092925 -0.921856 0.376227
vn -0.092925 -0.921856 0.376227
vn -0.074034 -0.997256 0.000000
vn -0.074034 -0.997256 0.000000
vn -0.074034 -0.997256 0.000000
vn -0.074034 -0.997256 0.000000
vn -0.016004 -0.899348 -0.436942
vn -0.016004 -0.899348 -0.436942
vn -0.016004 -0.899348 -0.436942
vn -0.016004 -0.899348 -0.436942
vn -0.580417 0.000000 -0.814319
vn -0.580417 0.000000 -0.814319
vn -0.580417 0.000000 -0.814319
vn -0.580417 0.000000 -0.814319
vn -0.383467 0.857889 -0.342023
vn -0.383467 0.857889 -0.342023
vn -0.383467 0.857889 -0.342023
vn -0.383467 0.857889 -0.342023
vn -0.492811 0.870136 0.000000
vn -0.492811 0.870136 0.000000
vn -0.492811 0.870136 0.000000
vn -0.492811 0.870136 0.000000
vn -0.385432 0.863915 0.324182
vn -0.385432 0.863915 0.324182
vn -0.385432 0.863915 0.324182
vn -0.385432 0.863915 0.324182
vn -0.580423 0.000000 0.814315
vn -0.580423 0.000000 0.814315
vn -0.580423 0.000000 0.814315
vn -0.580423 0.000000 0.814315
vn -0.015246 -0.909319 0.415819
vn -0.015246 -0.909319 0.415819
vn -0.015246 -0.909319 0.415819
vn -0.015246 -0.909319 0.415819
vn -0.918034 0.294472 -0.265517
vn -0.918034 0.294472 -0.265517
vn -0.918034 0.294472 -0.265517
vn -0.458484 0.835019 -0.304198
vn -0.458484 0.835019 -0.304198
vn -0.458484 0.835019 -0.304198
vn -0.458484 0.835019 -0.304198
vn 0.633310 0.000000 -0.773898
vn 0.633310 0.000000 -0.773898
vn 0.633310 0.000000 -0.773898
vn 0.633310 0.000000 -0.773898
vn -0.080870 -0.816707 -0.571358
vn -0.080870 -0.816707 -0.571358
vn -0.080870 -0.816707 -0.571358
vn -0.080870 -0.816707 -0.571358
vn -0.916450 0.000000 0.400150
vn -0.916450 0.000000 0.400150
vn -0.916450 0.000000 0.400150
vn -0.080888 -0.816706 0.571357
vn -0.080888 -0.816706 0.571357
vn -0.080888 -0.816706 0.571357
vn -0.080888 -0.816706 0.571357
vn 0.633300 0.000000 0.773906
vn 0.633300 0.000000 0.773906
vn 0.633300 0.000000 0.773906
vn 0.633300 0.000000 0.773906
vn -0.458490 0.835015 0.304199
vn -0.458490 0.835015 0.304199
vn -0.458490 0.835015 0.304199
vn -0.458490 0.835015 0.304199
vn -0.918035 0.294472 0.265514
vn -0.918035 0.294472 0.265514
vn -0.918035 0.294472 0.265514
vn -0.918033 -0.294471 0.265520
vn -0.918034 -0.294471 0.265521
vn -0.918033 -0.294471 0.265521
vn -0.918033 -0.294472 -0.265522
vn -0.918033 -0.294472 -0.265522
vn -0.918033 -0.294472 -0.265522
vn -0.916448 0.000000 -0.400154
vn -0.916448 0.000000 -0.400154
vn -0.916448 0.000000 -0.400154
vn -0.913150 -0.279944 0.296290
vn -0.913150 -0.279944 0.296290
vn -0.913150 -0.279944 0.296290
vn -0.913150 -0.279944 0.296290
vn -0.958557 -0.284902 0.000000
vn -0.958557 -0.284902 0.000000
vn -0.958557 -0.284902 0.000000
vn -0.958557 -0.284902 0.000000
vn -0.918603 -0.281616 -0.277238
vn -0.918603 -0.281616 -0.277238
vn -0.918603 -0.281616 -0.277238
vn -0.918603 -0.281616 -0.277238
vn 0.918031 -0.294475 0.265524
vn 0.918031 -0.294475 0.265524
vn 0.918031 -0.294475 0.265524
vn 0.916447 0.000000 0.400155
vn 0.916448 0.000000 0.400155
vn 0.916447 0.000000 0.400155
vn 0.918032 0.294475 -0.265521
vn 0.918032 0.294475 -0.265521
vn 0.918032 0.294475 -0.265521
vn 0.918031 -0.294475 -0.265526
vn 0.918031 -0.294475 -0.265526
vn 0.918031 -0.294475 -0.265526
vn 0.913150 0.279947 0.296287
vn 0.913150 0.279947 0.296287
vn 0.913150 0.279947 0.296287
vn 0.913150 0.279947 0.296287
vn 0.958557 0.284902 0.000000
vn 0.958557 0.284902 0.000000
vn 0.958557 0.284902 0.000000
vn 0.958557 0.284902 0.000000
vn 0.918603 0.281618 -0.277236
vn 0.918603 0.281618 -0.277236
vn 0.918603 0.281618 -0.277236
vn 0.918603 0.281618 -0.277236
s off
f 79/115/1 80/116/2 19/28/3 16/25/4
f 9/15/5 5/9/6 6/11/7 10/17/8
f 13/21/9 22/32/10 21/31/11 14/22/12
f 11/18/13 7/12/14 8/14/15 12/20/16
f 17/26/17 24/34/18 23/33/19 18/27/20
f 27/37/21 9/15/22 10/17/23 28/39/24
f 14/22/25 21/31/26 30/41/27 29/40/28
f 31/42/29 11/18/30 12/20/31 32/44/32
f 25/35/33 24/34/34 17/26/35 26/36/36
f 10/17/37 6/11/38 13/21/39 14/22/40
f 28/39/41 10/17/42 14/22/43 29/40/44
f 3/3/45 78/113/46 79/115/47 16/25/48
f 9/16/49 27/38/50 26/36/51 17/26/52
f 5/10/53 9/16/54 17/26/55 18/27/56
f 80/116/57 77/112/58 4/4/59 19/28/60
f 21/31/61 11/18/62 31/42/63 30/41/64
f 22/32/65 7/12/66 11/18/67 21/31/68
f 24/34/69 12/19/70 8/13/71 23/33/72
f 32/43/73 12/19/74 24/34/75 25/35/76
f 16/25/77 19/28/78 25/35/79 26/36/80
f 27/38/81 3/3/82 16/25/83 26/36/84
f 33/45/85 36/48/86 35/47/87 34/46/88
f 1/1/89 28/39/90 29/40/91 15/23/92
f 30/41/93 20/29/94 15/23/95 29/40/96
f 31/42/97 2/2/98 20/29/99 30/41/100
f 38/49/101 40/52/102 39/51/103 37/50/104
f 19/28/105 4/4/106 32/43/107 25/35/108
f 78/114/109 33/45/110 34/46/111
f 1/1/112 34/46/113 35/47/114 28/39/115
f 28/39/116 35/47/117 36/48/118 27/37/119
f 27/37/120 36/48/121 33/45/122 3/8/123
f 2/2/124 38/49/125 77/111/126
f 4/7/127 37/50/128 39/51/129 32/44/130
f 32/44/131 39/51/132 40/52/133 31/42/134
f 31/42/135 40/52/136 38/49/137 2/2/138
f 50/53/139 75/109/140 76/110/141 54/56/142
f 45/57/143 46/58/144 6/59/145 5/60/146
f 13/61/147 49/62/148 55/63/149 22/64/150
f 47/65/151 48/66/152 8/67/153 7/68/154
f 52/69/155 18/70/156 23/71/157 56/72/158
f 59/73/159 60/74/160 46/58/161 45/57/162
f 49/62/163 61/75/164 62/76/165 55/63/166
f 63/77/167 64/78/168 48/66/169 47/65/170
f 57/79/171 58/80/172 52/69/173 56/72/174
f 46/58/175 49/62/176 13/61/177 6/59/178
f 60/74/179 61/75/180 49/62/181 46/58/182
f 74/108/183 75/109/184 50/53/185 41/82/186
f 45/83/187 52/69/188 58/80/189 59/84/190
f 5/85/191 18/70/192 52/69/193 45/83/194
f 54/56/195 76/110/196 73/105/197 42/87/198
f 55/63/199 62/76/200 63/77/201 47/65/202
f 22/64/203 55/63/204 47/65/205 7/68/206
f 56/72/207 23/71/208 8/88/209 48/89/210
f 64/90/211 57/79/212 56/72/213 48/89/214
f 51/54/215 58/80/216 57/79/217 53/55/218
f 59/84/219 58/80/220 51/54/221 43/81/222
f 65/91/223 66/92/224 67/93/225 68/94/226
f 41/95/227 50/96/228 61/75/229 60/74/230
f 62/76/231 61/75/232 50/96/233 54/97/234
f 63/77/235 62/76/236 54/97/237 42/98/238
f 70/99/239 69/100/240 71/101/241 72/102/242
f 53/55/243 57/79/244 64/90/245 44/86/246
f 66/92/247 74/107/248 41/95/249
f 41/95/250 60/74/251 67/93/252 66/92/253
f 60/74/254 59/73/255 68/94/256 67/93/257
f 59/73/258 43/103/259 65/91/260 68/94/261
f 70/99/262 73/106/263 69/100/264
f 44/104/265 64/78/266 71/101/267 69/100/268
f 64/78/269 63/77/270 72/102/271 71/101/272
f 63/77/273 42/98/274 70/99/275 72/102/276
f 42/98/277 73/106/278 70/99/279
f 69/100/280 73/106/281 44/104/282
f 43/103/283 74/107/284 65/91/285
f 65/91/286 74/107/287 66/92/288
f 43/81/289 51/54/290 75/109/291 74/108/292
f 76/110/293 75/109/294 51/54/295 53/55/296
f 73/105/297 76/110/298 53/55/299 44/86/300
f 77/111/301 37/50/302 4/7/303
f 77/111/304 38/49/305 37/50/306
f 78/114/307 34/46/308 1/1/309
f 3/8/310 33/45/311 78/114/312
f 79/115/313 78/113/314 1/5/315 15/24/316
f 15/24/317 20/30/318 80/116/319 79/115/320
f 20/30/321 2/6/322 77/112/323 80/116/324
