# This file uses centimeters as units for non-parametric coordinates.

v -13.221130 86.809120 22.613220
v 13.220940 86.809120 22.613220
v -13.221130 103.940025 22.613220
v 13.220940 103.940025 22.613220
v -13.221130 103.940025 -25.537224
v 13.220940 103.940025 -25.537224
v -13.221130 86.809120 -25.537224
v 13.220940 86.809120 -25.537224
v -12.188475 97.919167 22.613220
v 12.188244 97.919167 22.613220
v 12.188244 103.110153 22.613220
v -12.188475 103.110153 22.613220
v -12.188475 97.919167 21.047058
v 12.188244 97.919167 21.047058
v 12.188244 103.110153 21.047058
v -12.188475 103.110153 21.047058
v 12.303467 103.110153 -20.515327
v -12.303581 103.110153 -20.515327
v -12.303581 89.398270 21.047058
v 12.303467 89.398270 21.047058
v 12.303467 89.398270 -20.515327
v -12.303581 89.398270 -20.515327
v -14.200075 86.182739 -26.656761
v 14.199848 86.182739 -26.656761
v 14.199848 86.182739 23.732758
v -14.200075 86.182739 23.732758
v -14.200075 82.146996 -26.656761
v 14.199848 82.146996 -26.656761
v 14.199848 82.146996 23.732758
v -14.200075 82.146996 23.732758
v -13.248711 104.231659 23.954659
v 13.248711 104.231659 23.954659
v -13.248711 104.231659 -25.537037
v 13.248711 104.231659 -25.537037
v 9.463387 108.397827 -25.537037
v 9.463387 108.397827 25.774040
v 4.151382 109.727318 -25.537037
v 4.151382 109.727318 26.656761
v 1.383801 114.297310 -25.537037
v 1.383801 114.297310 26.656761
v -1.383801 114.297310 -25.537037
v -1.383801 114.297310 26.656761
v -4.151344 109.727318 -25.537037
v -4.151344 109.727318 26.656761
v -9.463348 108.397827 -25.537037
v -9.463348 108.397827 25.774040
v 9.844189 109.260628 24.291344
v 14.235802 104.969727 23.954659
v 14.235802 104.969727 -25.537037
v 9.844189 109.260628 -25.537037
v 4.588509 110.514450 26.656761
v 4.588509 110.514450 -25.537037
v 1.732082 115.095436 26.656761
v 1.732082 115.095436 -25.537037
v -1.732063 115.095436 26.656761
v -1.732063 115.095436 -25.537037
v -4.588470 110.514450 26.656761
v -4.588470 110.514450 -25.537037
v -9.844191 109.260628 24.868393
v -9.844191 109.260628 -25.537037
v -14.235781 104.969727 23.954659
v -14.235781 104.969727 -25.537037
v 13.248711 100.970802 23.954659
v 13.248711 100.970802 -25.537037
v 14.235802 101.065613 -25.537037
v 14.235802 101.065613 23.954659
v -13.248711 100.970802 23.954659
v -13.248711 100.970802 -25.537037
v -14.235781 101.065613 23.954659
v -14.235781 101.065613 -25.537037
v -14.200075 85.408180 12.696419
v -13.221130 86.809120 13.437614
v -13.221130 103.940025 -1.461983
v 13.220940 103.940025 -1.461983
v 13.220940 86.809120 13.080482
v 14.199848 85.584038 12.382622
v 14.199848 82.146996 -1.461983
v -14.200075 82.146996 -1.461983
v -1.033859 86.481850 22.613182
v -3.167934 85.326660 23.732719
v 4.226112 0.997479 -4.043922
v 3.203468 0.000000 -3.877716
v 3.094864 0.954890 -4.958344
v -5.408535 0.241394 -2.981949
v -6.432037 1.296226 -2.935295
v -5.517120 1.196283 -4.062538
v -8.790266 81.293648 -5.751076
v -7.746048 82.291107 -5.931358
v -7.875328 81.193703 -6.878281
v 0.865917 82.049713 -6.827126
v 1.867943 80.994904 -6.859665
v 0.736637 80.952309 -7.774086
v -7.879622 81.893547 2.841835
v -6.748352 81.936127 3.756256
v -6.835442 82.890999 2.661552
v 1.863651 81.694733 2.860451
v 2.778549 81.594803 1.733208
v 1.776543 82.649605 1.765785
v -5.521393 1.896119 5.657616
v -4.497910 0.841287 5.610962
v -4.390144 1.938707 6.571999
v 4.114056 0.599895 4.715157
v 5.136738 1.597371 4.548988
v 4.221840 1.697315 5.676231
v -8.754921 70.247879 -4.249687
v -6.005516 19.674408 4.312706
v -3.977909 20.167973 5.704384
v 1.885166 37.045334 4.581871
v 2.759171 65.346809 2.137947
v 3.527679 27.168251 -3.900261
v 2.339764 25.804214 -5.917244
v -7.456894 71.460197 -6.317596
vt 0.401240 0.448416
vt 0.401240 0.448416
vt 0.401240 0.448416
vt 0.401240 0.448416
vt 0.401240 0.448416
vt 0.401240 0.448416
vt 0.401240 0.448416
vt 0.401240 0.448416
vt 0.401240 0.448416
vt 0.401240 0.448416
vt 0.401240 0.448416
vt 0.401240 0.448416
vt 0.401240 0.448416
vt 0.401240 0.448416
vt 0.401240 0.448416
vt 0.401240 0.448416
vt 0.401240 0.448416
vt 0.401240 0.448416
vt 0.401240 0.448416
vt 0.401240 0.448416
vt 0.401240 0.448416
vt 0.401240 0.448416
vt 0.401240 0.448416
vt 0.401240 0.448416
vt 0.401240 0.448416
vt 0.401240 0.448416
vt 0.401240 0.448416
vt 0.401240 0.448416
vt 0.401240 0.448416
vt 0.401240 0.448416
vt 0.401240 0.448416
vt 0.401240 0.448416
vt 0.401240 0.448416
vt 0.401240 0.448416
vt 0.401240 0.448416
vt 0.401240 0.448416
vt 0.312714 0.416854
vt 0.312714 0.416854
vt 0.312714 0.416854
vt 0.312714 0.416854
vt 0.312714 0.416854
vt 0.312714 0.416854
vt 0.312714 0.416854
vt 0.312714 0.416854
vt 0.312714 0.416854
vt 0.312714 0.416854
vt 0.312714 0.416854
vt 0.312714 0.416854
vt 0.312714 0.416854
vt 0.312714 0.416854
vt 0.312714 0.416854
vt 0.312714 0.416854
vt 0.312714 0.416854
vt 0.312714 0.416854
vt 0.312714 0.416854
vt 0.312714 0.416854
vt 0.312714 0.416854
vt 0.312714 0.416854
vt 0.312714 0.416854
vt 0.312714 0.416854
vt 0.312714 0.416854
vt 0.312714 0.416854
vt 0.312714 0.416854
vt 0.312714 0.416854
vt 0.312714 0.416854
vt 0.312714 0.416854
vt 0.312714 0.416854
vt 0.312714 0.416854
vt 0.312714 0.416854
vt 0.312714 0.416854
vt 0.312714 0.416854
vt 0.312714 0.416854
vt 0.312714 0.416854
vt 0.312714 0.416854
vt 0.312714 0.416854
vt 0.312714 0.416854
vt 0.312714 0.416854
vt 0.312714 0.416854
vt 0.312714 0.416854
vt 0.312714 0.416854
vt 0.312714 0.416854
vt 0.312714 0.416854
vt 0.312714 0.416854
vt 0.312714 0.416854
vt 0.312714 0.416854
vt 0.312714 0.416854
vt 0.312714 0.416854
vt 0.312714 0.416854
vt 0.312714 0.416854
vt 0.312714 0.416854
vt 0.312714 0.416854
vt 0.312714 0.416854
vt 0.401240 0.448416
vt 0.401240 0.448416
vt 0.401240 0.448416
vt 0.401240 0.448416
vt 0.401240 0.448416
vt 0.401240 0.448416
vt 0.401240 0.448416
vt 0.401240 0.448416
vt 0.401240 0.448416
vt 0.401240 0.448416
vt 0.401240 0.448416
vt 0.401240 0.448416
vt 0.401240 0.448416
vt 0.401240 0.448416
vt 0.401240 0.448416
vt 0.036056 0.281960
vt 0.036056 0.281960
vt 0.036056 0.281960
vt 0.036056 0.281960
vt 0.036056 0.281960
vt 0.036056 0.281960
vt 0.036056 0.281960
vt 0.036056 0.281960
vt 0.036056 0.281960
vt 0.036056 0.281960
vt 0.036056 0.281960
vt 0.036056 0.281960
vt 0.036056 0.281960
vt 0.036056 0.281960
vt 0.036056 0.281960
vt 0.036056 0.281960
vt 0.036056 0.281960
vt 0.036056 0.281960
vt 0.036056 0.281960
vt 0.036056 0.281960
vt 0.036056 0.281960
vt 0.036056 0.281960
vt 0.036056 0.281960
vt 0.036056 0.281960
vt 0.036056 0.281960
vt 0.036056 0.281960
vt 0.036056 0.281960
vt 0.036056 0.281960
vt 0.036056 0.281960
vt 0.036056 0.281960
vt 0.036056 0.281960
vt 0.036056 0.281960
vt 0.036056 0.281960
vt 0.036056 0.281960
vt 0.036056 0.281960
vt 0.036056 0.281960
vt 0.036056 0.281960
vt 0.036056 0.281960
vt 0.036056 0.281960
vt 0.036056 0.281960
vt 0.036056 0.281960
vt 0.036056 0.281960
vt 0.036056 0.281960
vt 0.036056 0.281960
vt 0.036056 0.281960
vt 0.036056 0.281960
vt 0.036056 0.281960
vt 0.036056 0.281960
vn 0.000000 0.000000 1.000000
vn 0.000000 0.000000 1.000000
vn 0.000000 0.000000 1.000000
vn 0.000000 0.000000 1.000000
vn 0.000000 1.000000 0.000000
vn 0.000000 1.000000 0.000000
vn 0.000000 1.000000 0.000000
vn 0.000000 1.000000 0.000000
vn 0.000000 0.000000 -1.000000
vn 0.000000 0.000000 -1.000000
vn 0.000000 0.000000 -1.000000
vn 0.000000 0.000000 -1.000000
vn 0.000000 -1.000000 0.000000
vn 0.000000 -1.000000 0.000000
vn 0.000000 -1.000000 0.000000
vn 0.000000 -1.000000 0.000000
vn 1.000000 0.000000 0.000000
vn 1.000000 0.000000 0.000000
vn 1.000000 0.000000 0.000000
vn 1.000000 0.000000 0.000000
vn -1.000000 0.000000 0.000000
vn -1.000000 0.000000 0.000000
vn -1.000000 0.000000 0.000000
vn -1.000000 0.000000 0.000000
vn 0.000000 -0.000002 1.000000
vn -0.000001 -0.000002 1.000000
vn -0.000001 -0.000002 1.000000
vn -0.000001 -0.000002 1.000000
vn 0.000001 0.000000 1.000000
vn 0.000001 0.000000 1.000000
vn 0.000001 0.000000 1.000000
vn 0.000001 0.000000 1.000000
vn 0.000000 0.000000 1.000000
vn 0.000000 0.000000 1.000000
vn 0.000000 0.000000 1.000000
vn 0.000000 0.000000 1.000000
vn -0.000002 0.000000 1.000000
vn -0.000002 0.000000 1.000000
vn -0.000002 0.000000 1.000000
vn -0.000002 0.000000 1.000000
vn 0.000000 1.000000 0.000000
vn 0.000000 1.000000 0.000000
vn 0.000000 1.000000 0.000000
vn 0.000000 1.000000 0.000000
vn -1.000000 0.000000 0.000000
vn -1.000000 0.000000 0.000000
vn -1.000000 0.000000 0.000000
vn -1.000000 0.000000 0.000000
vn 0.000000 -1.000000 0.000000
vn 0.000000 -1.000000 0.000000
vn 0.000000 -1.000000 0.000000
vn 0.000000 -1.000000 0.000000
vn 1.000000 0.000000 0.000000
vn 1.000000 0.000000 0.000000
vn 1.000000 0.000000 0.000000
vn 1.000000 0.000000 0.000000
vn 0.000000 1.000000 0.000000
vn 0.000000 1.000000 0.000000
vn 0.000000 1.000000 0.000000
vn 0.000000 1.000000 0.000000
vn 0.000000 -1.000000 -0.000000
vn 0.000000 -1.000000 -0.000000
vn 0.000000 -1.000000 -0.000000
vn 0.000000 -1.000000 -0.000000
vn 0.999989 -0.004197 -0.001909
vn 0.999989 -0.004197 -0.001909
vn 0.999989 -0.004197 -0.001909
vn 0.999989 -0.004197 -0.001909
vn 0.999989 -0.004197 -0.001909
vn 0.000000 0.000000 -1.000000
vn 0.000000 0.000000 -1.000000
vn 0.000000 0.000000 -1.000000
vn 0.000000 0.000000 -1.000000
vn -0.999989 -0.004202 -0.001911
vn -0.999989 -0.004202 -0.001911
vn -0.999989 -0.004202 -0.001911
vn -0.999989 -0.004202 -0.001911
vn -0.999989 -0.004202 -0.001911
vn 0.000000 0.872692 -0.488270
vn 0.000000 0.872692 -0.488270
vn 0.000000 0.872692 -0.488270
vn 0.000000 0.872692 -0.488270
vn 0.689816 0.723963 0.005581
vn 0.689706 0.724084 -0.002771
vn 0.689777 0.724019 0.002124
vn 0.689816 0.723963 0.005581
vn -0.029547 0.789547 0.612979
vn -0.018059 0.784153 0.620305
vn 0.021753 0.764174 0.644644
vn -0.029547 0.789547 0.612979
vn -0.722240 0.691634 -0.003347
vn -0.722429 0.691411 0.006837
vn -0.722429 0.691411 0.006837
vn -0.722360 0.691513 0.002613
vn 0.000000 0.000000 -1.000000
vn 0.000000 0.000000 -1.000000
vn 0.000000 0.000000 -1.000000
vn 0.000000 0.000000 -1.000000
vn 1.000000 -0.000000 0.000000
vn 1.000000 -0.000000 0.000000
vn 1.000000 -0.000000 0.000000
vn 1.000000 -0.000000 0.000000
vn -0.000002 0.000000 1.000000
vn 0.000001 0.000008 1.000000
vn -0.000002 0.000002 1.000000
vn -1.000000 0.000000 0.000000
vn -1.000000 0.000000 0.000000
vn -1.000000 0.000000 0.000000
vn -1.000000 0.000000 0.000000
vn 0.698858 0.715261 0.000000
vn 0.698858 0.715261 0.000000
vn 0.698858 0.715261 0.000000
vn 0.698858 0.715261 0.000000
vn 0.232053 0.972703 0.000000
vn 0.232053 0.972703 0.000000
vn 0.232053 0.972703 0.000000
vn 0.232053 0.972703 0.000000
vn 0.848555 0.529107 0.000000
vn 0.848555 0.529107 0.000000
vn 0.848555 0.529107 0.000000
vn 0.848555 0.529107 0.000000
vn 0.000000 1.000000 0.000000
vn 0.000000 1.000000 0.000000
vn 0.000000 1.000000 0.000000
vn 0.000000 1.000000 0.000000
vn -0.848556 0.529105 0.000000
vn -0.848556 0.529105 0.000000
vn -0.848556 0.529105 0.000000
vn -0.848556 0.529105 0.000000
vn -0.232051 0.972704 0.000000
vn -0.232051 0.972704 0.000000
vn -0.232051 0.972704 0.000000
vn -0.232051 0.972704 0.000000
vn -0.698860 0.715259 0.000000
vn -0.698860 0.715259 0.000000
vn -0.698860 0.715259 0.000000
vn -0.698860 0.715259 0.000000
vn -0.740126 -0.672468 0.000000
vn -0.740126 -0.672468 0.000000
vn -0.740126 -0.672468 0.000000
vn -0.740126 -0.672468 0.000000
vn -0.242792 -0.970078 0.000000
vn -0.242792 -0.970079 0.000000
vn -0.242792 -0.970079 0.000000
vn -0.242792 -0.970079 0.000000
vn -0.855373 -0.518013 0.000000
vn -0.855373 -0.518013 0.000000
vn -0.855373 -0.518013 0.000000
vn -0.855373 -0.518013 0.000000
vn 0.000000 -1.000000 0.000000
vn 0.000000 -1.000000 0.000000
vn 0.000000 -1.000000 0.000000
vn 0.000000 -1.000000 0.000000
vn 0.855376 -0.518008 0.000000
vn 0.855376 -0.518008 0.000000
vn 0.855376 -0.518008 0.000000
vn 0.855376 -0.518008 0.000000
vn 0.242792 -0.970078 0.000000
vn 0.242792 -0.970078 0.000000
vn 0.242792 -0.970078 0.000000
vn 0.242792 -0.970078 0.000000
vn 0.740122 -0.672472 0.000000
vn 0.740122 -0.672472 0.000000
vn 0.740122 -0.672472 0.000000
vn 0.740122 -0.672472 0.000000
vn 0.447158 0.408997 0.795469
vn 0.519379 0.297991 0.800904
vn 0.519379 0.297991 0.800904
vn 0.462471 0.387021 0.797706
vn 0.095610 -0.995419 0.000000
vn 0.095610 -0.995419 0.000000
vn 0.095610 -0.995419 0.000000
vn 0.095610 -0.995419 0.000000
vn -0.000001 0.000000 -1.000000
vn -0.000001 0.000000 -1.000000
vn -0.000001 0.000000 -1.000000
vn -0.000001 0.000000 -1.000000
vn 0.254218 0.359962 0.897664
vn 0.447158 0.408997 0.795469
vn 0.462471 0.387021 0.797706
vn 0.223400 0.316325 0.921971
vn -0.000001 0.000000 -1.000000
vn -0.000001 0.000000 -1.000000
vn -0.000001 0.000000 -1.000000
vn -0.000001 0.000000 -1.000000
vn 0.000000 0.000000 1.000000
vn 0.254218 0.359962 0.897664
vn 0.223400 0.316325 0.921971
vn 0.000000 0.000000 1.000000
vn -0.000001 0.000000 -1.000000
vn -0.000001 0.000000 -1.000000
vn -0.000001 0.000000 -1.000000
vn -0.000001 0.000000 -1.000000
vn -0.000000 0.000000 1.000000
vn 0.000000 0.000000 1.000000
vn 0.000000 0.000000 1.000000
vn -0.000000 0.000000 1.000000
vn -0.000001 0.000000 -1.000000
vn 0.000001 0.000000 -1.000000
vn 0.000001 0.000000 -1.000000
vn -0.000001 0.000000 -1.000000
vn -0.198692 0.217513 0.955620
vn -0.000000 0.000000 1.000000
vn -0.000000 0.000000 1.000000
vn -0.172409 0.188740 0.966774
vn 0.000001 0.000000 -1.000000
vn 0.000000 0.000000 -1.000000
vn 0.000000 0.000000 -1.000000
vn 0.000001 0.000000 -1.000000
vn -0.377975 0.229232 0.896988
vn -0.198692 0.217513 0.955620
vn -0.172409 0.188740 0.966774
vn -0.385734 0.216634 0.896816
vn 0.000000 0.000000 -1.000000
vn -0.000000 0.000000 -1.000000
vn -0.000000 0.000000 -1.000000
vn 0.000000 0.000000 -1.000000
vn -0.434731 0.132457 0.890766
vn -0.377975 0.229232 0.896988
vn -0.385734 0.216634 0.896816
vn -0.434731 0.132457 0.890766
vn -0.000000 0.000000 -1.000000
vn 0.000000 0.000000 -1.000000
vn 0.000000 0.000000 -1.000000
vn -0.000000 0.000000 -1.000000
vn -0.095612 -0.995419 0.000000
vn -0.095612 -0.995419 0.000000
vn -0.095612 -0.995419 0.000000
vn -0.095612 -0.995419 0.000000
vn -1.000000 0.000000 0.000000
vn -1.000000 0.000000 0.000000
vn -1.000000 0.000000 0.000000
vn -1.000000 0.000000 0.000000
vn -0.000002 0.000000 -1.000000
vn -0.000002 0.000000 -1.000000
vn -0.000002 0.000000 -1.000000
vn -0.000002 0.000000 -1.000000
vn 1.000000 0.000000 0.000000
vn 1.000000 0.000000 0.000000
vn 1.000000 0.000000 0.000000
vn 1.000000 0.000000 0.000000
vn 0.000000 0.000000 1.000000
vn 0.000000 0.000000 1.000000
vn 0.000000 0.000000 1.000000
vn 0.000000 0.000000 1.000000
vn 1.000000 0.000000 0.000000
vn 1.000000 0.000000 0.000000
vn 1.000000 0.000000 0.000000
vn 1.000000 0.000000 0.000000
vn 0.000000 0.000000 1.000000
vn 0.000000 0.000000 1.000000
vn 0.000000 0.000000 1.000000
vn 0.000000 0.000000 1.000000
vn -1.000000 0.000000 0.000000
vn -1.000000 0.000000 0.000000
vn -1.000000 0.000000 0.000000
vn -1.000000 0.000000 0.000000
vn 0.000002 0.000000 -1.000000
vn 0.000002 0.000000 -1.000000
vn 0.000002 0.000000 -1.000000
vn 0.000002 0.000000 -1.000000
vn -0.721532 0.691873 -0.026513
vn -0.722240 0.691634 -0.003347
vn -0.722360 0.691513 0.002613
vn -0.721532 0.691873 -0.026513
vn -1.000000 0.000000 0.000000
vn -1.000000 0.000000 0.000000
vn -1.000000 0.000000 0.000000
vn -1.000000 0.000000 0.000000
vn 0.000000 1.000000 0.000000
vn 0.000000 1.000000 0.000000
vn 0.000000 1.000000 0.000000
vn 0.000000 1.000000 0.000000
vn 1.000000 0.000000 0.000000
vn 1.000000 0.000000 0.000000
vn 1.000000 0.000000 0.000000
vn 1.000000 0.000000 0.000000
vn 0.689777 0.724019 0.002124
vn 0.689706 0.724084 -0.002771
vn 0.689306 0.724173 -0.020761
vn 0.689306 0.724173 -0.020761
vn 1.000000 -0.000000 0.000000
vn 1.000000 -0.000000 0.000000
vn 1.000000 0.000000 0.000000
vn 1.000000 0.000000 0.000000
vn 0.000000 -1.000000 0.000000
vn 0.000000 -1.000000 0.000000
vn 0.000000 -1.000000 0.000000
vn 0.000000 -1.000000 0.000000
vn -1.000000 0.000000 0.000000
vn -1.000000 0.000000 0.000000
vn -1.000000 0.000000 0.000000
vn -1.000000 0.000000 0.000000
vn 0.000003 -0.000000 1.000000
vn -0.000001 -0.000002 1.000000
vn 0.000000 -0.000002 1.000000
vn 0.021753 0.764174 0.644644
vn -0.018059 0.784153 0.620305
vn 0.038489 0.755178 0.654389
vn 0.038489 0.755178 0.654389
vn -0.000002 0.000002 1.000000
vn 0.000001 0.000008 1.000000
vn 0.000001 0.000008 1.000000
vn 0.000001 0.000008 1.000000
vn -0.020485 -0.997209 0.071789
vn -0.020485 -0.997209 0.071789
vn -0.020485 -0.997209 0.071789
vn -0.020485 -0.997209 0.071789
vn -0.127870 -0.040589 -0.990960
vn -0.128716 -0.040930 -0.990837
vn -0.128716 -0.040930 -0.990837
vn -0.119092 -0.037055 -0.992192
vn 0.997774 0.020307 -0.063514
vn 0.997774 0.020307 -0.063514
vn 0.997611 0.021155 -0.065757
vn 0.995277 0.031055 -0.091975
vn -0.991057 -0.027781 0.130515
vn -0.987885 -0.019501 0.153958
vn -0.987885 -0.019501 0.153958
vn -0.988086 -0.019982 0.152598
vn 0.020485 0.997210 -0.071789
vn 0.020485 0.997209 -0.071789
vn 0.020485 0.997209 -0.071789
vn 0.020485 0.997209 -0.071789
vn 0.093708 0.039157 0.994829
vn 0.096138 0.037027 0.994679
vn 0.096366 0.036827 0.994664
vn 0.096366 0.036827 0.994664
vn 0.696068 -0.717586 -0.023667
vn 0.696068 -0.717586 -0.023667
vn 0.696068 -0.717586 -0.023667
vn 0.696068 -0.717586 -0.023667
vn -0.089123 -0.750797 -0.654493
vn -0.089123 -0.750797 -0.654493
vn -0.089123 -0.750797 -0.654493
vn -0.089123 -0.750797 -0.654493
vn 0.784411 -0.000737 -0.620241
vn 0.783377 0.003676 -0.621536
vn 0.785133 -0.003863 -0.619315
vn 0.785133 -0.003863 -0.619315
vn -0.709444 -0.693835 0.123622
vn -0.709444 -0.693835 0.123622
vn -0.709444 -0.693835 0.123622
vn -0.709444 -0.693835 0.123622
vn -0.813329 -0.047535 -0.579859
vn -0.814412 -0.042201 -0.578750
vn -0.807182 -0.075723 -0.585425
vn -0.807182 -0.075723 -0.585425
vn -0.688542 0.724852 0.022363
vn -0.688542 0.724852 0.022363
vn -0.688542 0.724852 0.022363
vn -0.688542 0.724852 0.022363
vn -0.059854 0.656157 -0.752247
vn -0.059854 0.656157 -0.752247
vn -0.059854 0.656157 -0.752247
vn -0.059854 0.656157 -0.752247
vn 0.717519 0.685433 -0.123890
vn 0.717519 0.685433 -0.123890
vn 0.717519 0.685433 -0.123890
vn 0.717519 0.685433 -0.123890
vn -0.589652 0.000183 0.807658
vn -0.589652 0.000183 0.807658
vn -0.590982 0.012637 0.806586
vn -0.590632 0.009280 0.806887
vn 0.088823 0.754103 0.650722
vn 0.088823 0.754103 0.650722
vn 0.088823 0.754103 0.650722
vn 0.088823 0.754103 0.650722
vn 0.822147 0.019892 0.568927
vn 0.822147 0.019892 0.568927
vn 0.635887 0.057127 0.769665
vn 0.813617 0.021960 0.580986
vn 0.059287 -0.660950 0.748084
vn 0.059287 -0.660950 0.748084
vn 0.059287 -0.660950 0.748084
vn 0.059287 -0.660950 0.748084
vn 0.507288 -0.619846 -0.598706
vn 0.507288 -0.619846 -0.598706
vn 0.507288 -0.619846 -0.598706
vn -0.644068 -0.604187 -0.469184
vn -0.644068 -0.604187 -0.469184
vn -0.644068 -0.604187 -0.469184
vn -0.622879 0.551854 -0.554508
vn -0.622879 0.551854 -0.554508
vn -0.622879 0.551854 -0.554508
vn 0.525152 0.519662 -0.673919
vn 0.525152 0.519662 -0.673919
vn 0.525152 0.519662 -0.673919
vn -0.501505 0.631821 0.591012
vn -0.501505 0.631821 0.591012
vn -0.501505 0.631821 0.591012
vn 0.646554 0.599627 0.471609
vn 0.646554 0.599627 0.471609
vn 0.646554 0.599627 0.471609
vn -0.519439 -0.533524 0.667484
vn -0.519439 -0.533524 0.667484
vn -0.519439 -0.533524 0.667484
vn 0.624959 -0.548156 0.555833
vn 0.624959 -0.548156 0.555833
vn 0.624959 -0.548156 0.555833
vn -0.991169 -0.028106 0.129592
vn -0.991057 -0.027781 0.130515
vn -0.988086 -0.019982 0.152598
vn -0.991169 -0.028106 0.129592
vn -0.590632 0.009280 0.806887
vn -0.590982 0.012637 0.806586
vn -0.594261 0.048144 0.802830
vn -0.594261 0.048144 0.802830
vn 0.093007 0.039772 0.994871
vn 0.093007 0.039772 0.994871
vn 0.096138 0.037027 0.994679
vn 0.093708 0.039157 0.994829
vn 0.813617 0.021960 0.580986
vn 0.635887 0.057127 0.769665
vn 0.634001 0.057440 0.771196
vn 0.634001 0.057440 0.771196
vn 0.995277 0.031055 -0.091975
vn 0.997611 0.021155 -0.065757
vn 0.995103 0.031680 -0.093630
vn 0.995103 0.031680 -0.093630
vn 0.781308 0.012288 -0.624024
vn 0.781308 0.012288 -0.624024
vn 0.783377 0.003676 -0.621536
vn 0.784411 -0.000737 -0.620241
vn -0.118686 -0.036892 -0.992246
vn -0.127870 -0.040589 -0.990960
vn -0.119092 -0.037055 -0.992192
vn -0.118686 -0.036892 -0.992246
vn -0.814896 -0.039777 -0.578241
vn -0.814896 -0.039777 -0.578241
vn -0.814412 -0.042201 -0.578750
vn -0.813329 -0.047535 -0.579859
s off
f 17/23/1 18/24/2 22/28/3 21/27/4
f 73/97/5 74/98/6 6/6/7 5/5/8
f 5/5/9 6/6/10 8/8/11 7/7/12
f 27/33/13 28/34/14 77/103/15 78/104/16
f 75/101/17 8/11/18 6/12/19 74/99/20
f 7/13/21 72/94/22 73/96/23 5/14/24
f 9/15/25 79/105/26 2/2/27 10/16/28
f 2/2/29 4/4/30 11/17/31 10/16/32
f 4/4/33 3/3/34 12/18/35 11/17/36
f 3/3/37 1/1/38 9/15/39 12/18/40
f 9/15/41 10/16/42 14/20/43 13/19/44
f 10/16/45 11/17/46 15/21/47 14/20/48
f 11/17/49 12/18/50 16/22/51 15/21/52
f 12/18/53 9/15/54 13/19/55 16/22/56
f 19/25/57 20/26/58 21/27/59 22/28/60
f 15/21/61 16/22/62 18/24/63 17/23/64
f 18/24/65 16/22/66 13/19/67 19/25/68 22/28/69
f 13/19/70 14/20/71 20/26/72 19/25/73
f 17/23/74 21/27/75 20/26/76 14/20/77 15/21/78
f 7/7/79 8/8/80 24/30/81 23/29/82
f 8/8/83 75/100/84 76/102/85 24/30/86
f 2/10/87 79/106/88 80/107/89 25/31/90
f 72/95/91 7/7/92 23/29/93 71/93/94
f 23/29/95 24/30/96 28/34/97 27/33/98
f 24/30/99 76/102/100 77/103/101 28/34/102
f 25/31/103 80/107/104 29/35/105
f 78/104/106 71/93/107 23/29/108 27/33/109
f 47/37/110 48/38/111 49/39/112 50/40/113
f 51/41/114 47/37/115 50/40/116 52/42/117
f 53/43/118 51/41/119 52/42/120 54/44/121
f 55/45/122 53/43/123 54/44/124 56/46/125
f 57/47/126 55/45/127 56/46/128 58/48/129
f 59/49/130 57/47/131 58/48/132 60/50/133
f 61/51/134 59/49/135 60/50/136 62/52/137
f 36/53/138 35/54/139 34/55/140 32/56/141
f 38/57/142 37/58/143 35/54/144 36/53/145
f 40/59/146 39/60/147 37/58/148 38/57/149
f 42/61/150 41/62/151 39/60/152 40/59/153
f 44/63/154 43/64/155 41/62/156 42/61/157
f 46/65/158 45/66/159 43/64/160 44/63/161
f 31/67/162 33/68/163 45/66/164 46/65/165
f 36/69/166 32/70/167 48/38/168 47/37/169
f 63/71/170 64/72/171 65/73/172 66/74/173
f 34/75/174 35/76/175 50/40/176 49/39/177
f 38/77/178 36/69/179 47/37/180 51/41/181
f 35/76/182 37/78/183 52/42/184 50/40/185
f 40/79/186 38/77/187 51/41/188 53/43/189
f 37/78/190 39/80/191 54/44/192 52/42/193
f 42/81/194 40/79/195 53/43/196 55/45/197
f 39/80/198 41/82/199 56/46/200 54/44/201
f 44/83/202 42/81/203 55/45/204 57/47/205
f 41/82/206 43/84/207 58/48/208 56/46/209
f 46/85/210 44/83/211 57/47/212 59/49/213
f 43/84/214 45/86/215 60/50/216 58/48/217
f 31/87/218 46/85/219 59/49/220 61/51/221
f 45/86/222 33/88/223 62/52/224 60/50/225
f 68/89/226 67/90/227 69/91/228 70/92/229
f 32/70/230 34/75/231 64/72/232 63/71/233
f 34/75/234 49/39/235 65/73/236 64/72/237
f 49/39/238 48/38/239 66/74/240 65/73/241
f 48/38/242 32/70/243 63/71/244 66/74/245
f 33/88/246 31/87/247 67/90/248 68/89/249
f 31/87/250 61/51/251 69/91/252 67/90/253
f 61/51/254 62/52/255 70/92/256 69/91/257
f 62/52/258 33/88/259 68/89/260 70/92/261
f 1/9/262 72/95/263 71/93/264 26/32/265
f 73/96/266 72/94/267 1/1/268 3/3/269
f 3/3/270 4/4/271 74/98/272 73/97/273
f 2/2/274 75/101/275 74/99/276 4/4/277
f 76/102/278 75/100/279 2/10/280 25/31/281
f 77/103/282 76/102/283 25/31/284 29/35/285
f 78/104/286 77/103/287 29/35/288 30/36/289
f 26/32/290 71/93/291 78/104/292 30/36/293
f 1/1/294 79/105/295 9/15/296
f 80/107/297 79/106/298 1/9/299 26/32/300
f 29/35/301 80/107/302 26/32/303 30/36/304
f 102/108/305 100/109/306 84/110/307 82/111/308
f 112/112/309 89/113/310 92/114/311 111/115/312
f 91/116/313 97/117/314 109/118/315 110/119/316
f 106/120/317 93/121/318 87/122/319 105/123/320
f 95/124/321 98/125/322 90/126/323 88/127/324
f 107/128/325 108/129/326 96/130/327 94/131/328
f 82/111/329 81/132/330 103/133/331 102/108/332
f 83/134/333 82/135/334 84/136/335 86/137/336
f 110/119/337 111/115/338 92/114/339 91/116/340
f 85/138/341 84/110/342 100/109/343 99/139/344
f 112/112/345 105/123/346 87/122/347 89/113/348
f 88/127/349 87/140/350 93/141/351 95/124/352
f 89/113/353 88/127/354 90/126/355 92/114/356
f 91/142/357 90/126/358 98/125/359 97/143/360
f 94/131/361 93/144/362 106/145/363 107/128/364
f 95/124/365 94/131/366 96/130/367 98/125/368
f 97/146/369 96/130/370 108/129/371 109/147/372
f 101/148/373 100/109/374 102/108/375 104/149/376
f 81/150/377 82/135/378 83/134/379
f 84/136/380 85/151/381 86/137/382
f 87/122/383 88/127/384 89/113/385
f 90/126/386 91/116/387 92/114/388
f 93/141/389 94/131/390 95/124/391
f 96/130/392 97/143/393 98/125/394
f 99/152/395 100/109/396 101/148/397
f 102/108/398 103/153/399 104/149/400
f 99/154/401 106/120/402 105/123/403 85/151/404
f 107/128/405 106/145/406 99/152/407 101/148/408
f 101/148/409 104/149/410 108/129/411 107/128/412
f 109/147/413 108/129/414 104/149/415 103/153/416
f 110/119/417 109/118/418 103/155/419 81/150/420
f 81/150/421 83/134/422 111/115/423 110/119/424
f 86/137/425 112/112/426 111/115/427 83/134/428
f 86/137/429 85/151/430 105/123/431 112/112/432
