# This file uses centimeters as units for non-parametric coordinates.

v 1.137188 -4.395818 9.987550
v -2.869003 -3.096944 9.901966
v -2.869003 1.106299 9.625004
v 1.137188 2.405172 9.539419
v 3.613148 -0.995322 9.763486
v 1.118595 -2.021238 -10.301026
v -2.790249 -0.814857 -9.903912
v -2.790249 3.089074 -8.618826
v 1.118595 4.295455 -8.221714
v 3.534393 1.137108 -9.261367
v 0.754951 -1.105833 14.904366
v -1.249817 -0.513335 14.633714
v -1.249817 1.404025 13.757862
v 0.754951 1.996524 13.487209
v 1.993961 0.445345 14.195787
v 1.285221 -4.942142 -0.568327
v -3.496075 -3.404961 -0.343494
v -3.496075 1.083595 0.313015
v 1.285221 2.620777 0.537848
v 4.240223 -1.403617 -0.050772
v 0.982151 -0.692094 15.522047
v -0.809540 -0.162569 15.280160
v 0.329231 0.469369 14.562988
v -0.809540 1.551007 14.497396
v 0.982151 2.080533 14.255509
v 2.089478 0.694219 14.888780
v 0.851826 8.820433 -19.450762
v -0.334259 9.025882 -19.124706
v -0.334259 9.690729 -18.069580
v 0.851826 9.896178 -17.743528
v 1.584866 9.358305 -18.597143
v 0.862801 10.448582 -20.617220
v -0.369133 10.661971 -20.278564
v 1.073238 11.007246 -19.730606
v -0.369133 11.352519 -19.182648
v 0.862801 11.565909 -18.843994
v -1.343254 9.338428 -19.395172
v -1.343254 9.998944 -18.346916
v -1.120899 11.145046 -19.239880
v -1.120899 10.638594 -20.043634
v 1.866379 10.419313 -17.543081
v 2.490891 9.573092 -18.886057
v 2.300213 10.621967 -19.546967
v 1.821369 11.361308 -18.373615
v 1.866379 8.726868 -20.229036
v 1.821369 9.882625 -20.720320
v 1.059887 2.332522 -16.175093
v -1.996265 3.125355 -15.604101
v -1.996265 5.691023 -13.756343
v 1.059887 6.483858 -13.185357
v 2.948692 4.408190 -14.680225
v 0.802898 5.462914 -16.964529
v -0.430466 5.741474 -16.677807
v -0.430466 6.642918 -15.749964
v 0.802898 6.921479 -15.463246
v 1.565159 6.192197 -16.213888
vt 0.139644 0.190497
vt 0.139644 0.190497
vt 0.139644 0.190497
vt 0.139644 0.190497
vt 0.139644 0.190497
vt 0.139644 0.190497
vt 0.139644 0.190497
vt 0.139644 0.190497
vt 0.139644 0.190497
vt 0.139644 0.190497
vt 0.139644 0.190497
vt 0.139644 0.190497
vt 0.139644 0.190497
vt 0.139644 0.190497
vt 0.139644 0.190497
vt 0.139644 0.190497
vt 0.139644 0.190497
vt 0.139644 0.190497
vt 0.139644 0.190497
vt 0.139644 0.190497
vt 0.139644 0.190497
vt 0.139644 0.190497
vt 0.017263 0.253188
vt 0.015039 0.228460
vt 0.139644 0.190497
vt 0.139644 0.190497
vt 0.139644 0.190497
vt 0.139644 0.190497
vt 0.139644 0.190497
vt 0.139644 0.190497
vt 0.139644 0.190497
vt 0.139644 0.190497
vt 0.017263 0.253188
vt 0.017263 0.253188
vt 0.017263 0.253188
vt 0.017263 0.253188
vt 0.017263 0.253188
vt 0.017263 0.253188
vt 0.017263 0.253188
vt 0.017263 0.253188
vt 0.017263 0.253188
vt 0.017263 0.253188
vt 0.139644 0.190497
vt 0.139644 0.190497
vt 0.139644 0.190497
vt 0.139644 0.190497
vt 0.139644 0.190497
vt 0.015039 0.228460
vt 0.015039 0.228460
vt 0.015039 0.228460
vt 0.015039 0.228460
vt 0.015039 0.228460
vt 0.015039 0.228460
vt 0.015039 0.228460
vt 0.015039 0.228460
vt 0.015040 0.228460
vt 0.015039 0.228460
vt 0.015039 0.228460
vt 0.015039 0.228460
vt 0.015039 0.228460
vt 0.015039 0.228460
vt 0.015039 0.228460
vt 0.015039 0.228460
vt 0.015039 0.228460
vt 0.015039 0.228460
vt 0.015039 0.228460
vt 0.139644 0.190497
vt 0.139644 0.190497
vt 0.139644 0.190497
vt 0.139644 0.190497
vt 0.139644 0.190497
vt 0.139644 0.190497
vt 0.139644 0.190497
vt 0.139644 0.190497
vt 0.139644 0.190497
vt 0.139644 0.190497
vt 0.139644 0.190497
vt 0.139644 0.190497
vt 0.139644 0.190497
vn -0.310713 -0.944127 -0.109913
vn -0.310702 -0.944369 -0.107846
vn -0.307414 -0.912676 -0.269294
vn -0.307414 -0.912676 -0.269294
vn -0.999967 0.006973 -0.004173
vn -0.999978 0.006573 -0.001377
vn -0.997266 0.016655 -0.071990
vn -0.997266 0.016655 -0.071990
vn -0.308698 0.945767 0.101140
vn -0.308694 0.945881 0.100083
vn -0.307879 0.933313 0.184764
vn -0.307879 0.933313 0.184764
vn 0.807993 0.586009 0.061161
vn 0.807995 0.585879 0.062375
vn 0.807521 0.581764 0.097264
vn 0.807521 0.581764 0.097264
vn 0.792569 -0.605936 -0.068380
vn 0.792600 -0.605426 -0.072415
vn 0.786296 -0.583087 -0.204326
vn 0.786296 -0.583087 -0.204326
vn 0.209247 0.544626 0.812156
vn -0.090675 0.603295 0.792347
vn 0.012999 0.420642 0.907134
vn 0.189975 0.257462 0.947430
vn 0.209247 0.544626 0.812156
vn 0.012999 0.420642 0.907134
vn -0.079556 0.217878 0.972728
vn 0.189975 0.257462 0.947430
vn 0.012999 0.420642 0.907134
vn -0.215953 0.400057 0.890684
vn -0.079556 0.217878 0.972728
vn 0.012999 0.420642 0.907134
vn -0.090675 0.603295 0.792347
vn -0.215953 0.400057 0.890684
vn 0.012999 0.420642 0.907134
vn 0.251596 0.778644 -0.574816
vn -0.079962 0.843341 -0.531397
vn 0.251659 0.819649 -0.514629
vn -0.079962 0.843341 -0.531397
vn -0.081130 0.843260 -0.531347
vn 0.251659 0.819649 -0.514629
vn -0.081130 0.843260 -0.531347
vn 0.252152 0.854535 -0.454080
vn 0.251659 0.819649 -0.514629
vn -0.283624 -0.802521 0.524898
vn -0.283624 -0.802521 0.524898
vn -0.283624 -0.802521 0.524898
vn -0.283624 -0.802521 0.524898
vn -0.943772 0.061192 0.324884
vn -0.943772 0.061192 0.324884
vn -0.943772 0.061192 0.324884
vn -0.943772 0.061192 0.324884
vn -0.296478 0.953248 0.058469
vn -0.296478 0.953248 0.058469
vn -0.296478 0.953248 0.058469
vn -0.296478 0.953248 0.058469
vn 0.784579 0.609776 0.112287
vn 0.784579 0.609776 0.112287
vn 0.784579 0.609776 0.112287
vn 0.784579 0.609776 0.112287
vn 0.763846 -0.495089 0.414036
vn 0.763846 -0.495089 0.414036
vn 0.763846 -0.495089 0.414036
vn 0.763846 -0.495089 0.414036
vn -0.306150 -0.950866 0.046104
vn -0.306150 -0.950866 0.046104
vn -0.310702 -0.944369 -0.107846
vn -0.310713 -0.944127 -0.109913
vn -0.997943 -0.002796 0.064042
vn -0.997943 -0.002796 0.064042
vn -0.999978 0.006573 -0.001377
vn -0.999967 0.006973 -0.004173
vn -0.307347 0.951426 0.018061
vn -0.307347 0.951426 0.018061
vn -0.308694 0.945881 0.100083
vn -0.308698 0.945767 0.101140
vn 0.807465 0.589286 0.027228
vn 0.807465 0.589286 0.027228
vn 0.807995 0.585879 0.062375
vn 0.807993 0.586009 0.061161
vn 0.784912 -0.616813 0.058773
vn 0.784912 -0.616813 0.058773
vn 0.792600 -0.605426 -0.072415
vn 0.792569 -0.605936 -0.068380
vn -0.299733 -0.737998 0.604582
vn -0.299733 -0.737998 0.604582
vn -0.299733 -0.737998 0.604582
vn -0.299733 -0.737998 0.604582
vn -0.857478 0.213785 0.468004
vn -0.857478 0.213785 0.468004
vn -0.857478 0.213785 0.468004
vn -0.857478 0.213785 0.468004
vn -0.285878 0.958053 -0.020217
vn -0.285878 0.958053 -0.020217
vn -0.285878 0.958053 -0.020217
vn -0.285878 0.958053 -0.020217
vn 0.807752 0.510579 -0.294696
vn 0.807752 0.510579 -0.294696
vn 0.807752 0.510579 -0.294696
vn 0.807752 0.510579 -0.294696
vn 0.799515 -0.591860 0.102358
vn 0.799515 -0.591860 0.102358
vn 0.799515 -0.591860 0.102358
vn 0.799515 -0.591860 0.102358
vn -0.276109 -0.377089 -0.884063
vn -0.275465 -0.373756 -0.885678
vn -0.278532 -0.556656 -0.782658
vn -0.336997 -0.543935 -0.768484
vn -0.928572 0.233635 -0.288392
vn -0.937886 0.218703 -0.269331
vn -0.999705 0.019051 -0.015047
vn -0.999705 0.019051 -0.015047
vn -0.304963 0.834563 0.458805
vn -0.306697 0.820180 0.482951
vn -0.314096 0.561663 0.765427
vn -0.283213 0.566428 0.773919
vn 0.801724 0.542270 0.251360
vn 0.800079 0.548915 0.242001
vn 0.806998 0.351419 0.474614
vn 0.806998 0.351419 0.474614
vn 0.759848 -0.214220 -0.613793
vn 0.754330 -0.201604 -0.624774
vn 0.807100 -0.358599 -0.469037
vn 0.807100 -0.358599 -0.469037
vn -0.336997 -0.543935 -0.768484
vn -0.278532 -0.556656 -0.782658
vn -0.226585 -0.544871 -0.807326
vn -0.373933 -0.518849 -0.768745
vn -0.988378 0.128614 -0.081041
vn -0.988378 0.128614 -0.081041
vn -0.988378 0.128614 -0.081041
vn -0.988378 0.128614 -0.081041
vn -0.283213 0.566428 0.773919
vn -0.314096 0.561663 0.765427
vn -0.321658 0.534979 0.781239
vn -0.242600 0.547780 0.800676
vn 0.931185 0.282680 0.230186
vn 0.931185 0.282680 0.230186
vn 0.931186 0.282680 0.230186
vn 0.931185 0.282680 0.230186
vn 0.931186 -0.085639 -0.354342
vn 0.931186 -0.085639 -0.354342
vn 0.931186 -0.085639 -0.354342
vn 0.931186 -0.085639 -0.354342
vn -0.375361 -0.784185 0.494124
vn -0.375361 -0.784185 0.494124
vn -0.375361 -0.784185 0.494124
vn -0.375361 -0.784185 0.494124
vn -0.283213 0.566428 0.773919
vn -0.242600 0.547780 0.800676
vn -0.119459 0.582420 0.804063
vn -0.119459 0.582420 0.804063
vn -0.081130 0.843260 -0.531347
vn -0.079962 0.843341 -0.531397
vn -0.189415 0.830734 -0.523454
vn -0.189415 0.830734 -0.523454
vn -0.226585 -0.544871 -0.807326
vn -0.278532 -0.556656 -0.782658
vn -0.067997 -0.518760 -0.852212
vn -0.067997 -0.518760 -0.852212
vn 0.302410 -0.710965 0.634884
vn 0.290120 -0.804761 0.517870
vn 0.287370 -0.818938 0.496749
vn 0.302410 -0.710965 0.634884
vn 0.251659 0.819649 -0.514629
vn 0.252152 0.854535 -0.454080
vn 0.350403 0.840834 -0.412572
vn 0.348184 0.791505 -0.502283
vn -0.321658 0.534979 0.781239
vn -0.314096 0.561663 0.765427
vn -0.346703 0.554709 0.756369
vn -0.346703 0.554709 0.756369
vn 0.290120 -0.804761 0.517870
vn 0.271020 -0.881058 0.387665
vn 0.271020 -0.881058 0.387665
vn 0.287370 -0.818938 0.496749
vn -0.336997 -0.543935 -0.768484
vn -0.373933 -0.518849 -0.768745
vn -0.485368 -0.451699 -0.748590
vn -0.485368 -0.451699 -0.748590
vn 0.251596 0.778644 -0.574816
vn 0.251659 0.819649 -0.514629
vn 0.348184 0.791505 -0.502283
vn 0.342912 0.738744 -0.580231
vn -0.299024 -0.766561 -0.568304
vn -0.299024 -0.766561 -0.568304
vn -0.299298 -0.700970 -0.647350
vn -0.299164 -0.694533 -0.654313
vn -0.992158 0.054473 -0.112491
vn -0.992158 0.054473 -0.112491
vn -0.978338 0.110561 -0.175020
vn -0.980501 0.103431 -0.167092
vn -0.303726 0.869231 0.390114
vn -0.303726 0.869231 0.390114
vn -0.299959 0.882708 0.361733
vn -0.300721 0.880136 0.367324
vn 0.803521 0.545969 0.237217
vn 0.803521 0.545969 0.237217
vn 0.797927 0.564219 0.212061
vn 0.797555 0.565329 0.210499
vn 0.797651 -0.477764 -0.368096
vn 0.797651 -0.477764 -0.368096
vn 0.796985 -0.428772 -0.425406
vn 0.796322 -0.418869 -0.436371
vn -0.275465 -0.373756 -0.885678
vn -0.276109 -0.377089 -0.884063
vn -0.299164 -0.694533 -0.654313
vn -0.299298 -0.700970 -0.647350
vn -0.937886 0.218703 -0.269331
vn -0.928572 0.233635 -0.288392
vn -0.980501 0.103431 -0.167092
vn -0.978338 0.110561 -0.175020
vn -0.306697 0.820180 0.482951
vn -0.304963 0.834563 0.458805
vn -0.300721 0.880136 0.367324
vn -0.299959 0.882708 0.361733
vn 0.800079 0.548915 0.242001
vn 0.801724 0.542270 0.251360
vn 0.797555 0.565329 0.210499
vn 0.797927 0.564219 0.212061
vn 0.796985 -0.428772 -0.425406
vn 0.754330 -0.201604 -0.624774
vn 0.759848 -0.214220 -0.613793
vn 0.796322 -0.418869 -0.436371
s off
f 16/28/1 17/29/2 7/13/3 6/12/4
f 17/29/5 18/30/6 8/14/7 7/13/8
f 18/30/9 19/31/10 9/15/11 8/14/12
f 19/31/13 20/32/14 10/16/15 9/15/16
f 20/32/17 16/27/18 6/17/19 10/16/20
f 22/23/21 21/33/22 23/34/23
f 24/35/24 22/23/25 23/34/26
f 25/36/27 24/35/28 23/34/29
f 26/37/30 25/36/31 23/34/32
f 21/33/33 26/37/34 23/34/35
f 32/24/36 33/48/37 34/49/38
f 33/48/39 35/50/40 34/49/41
f 35/50/42 36/51/43 34/49/44
f 11/25/45 12/26/46 2/2/47 1/1/48
f 12/26/49 13/77/50 3/3/51 2/2/52
f 13/77/53 14/78/54 4/4/55 3/3/56
f 14/78/57 15/79/58 5/5/59 4/4/60
f 5/5/61 15/79/62 11/25/63 1/1/64
f 1/6/65 2/7/66 17/29/67 16/28/68
f 2/7/69 3/8/70 18/30/71 17/29/72
f 3/8/73 4/9/74 19/31/75 18/30/76
f 4/9/77 5/10/78 20/32/79 19/31/80
f 5/10/81 1/11/82 16/27/83 20/32/84
f 12/38/85 11/39/86 21/33/87 22/23/88
f 13/40/89 12/38/90 22/23/91 24/35/92
f 14/41/93 13/40/94 24/35/95 25/36/96
f 15/42/97 14/41/98 25/36/99 26/37/100
f 11/39/101 15/42/102 26/37/103 21/33/104
f 52/43/105 53/44/106 28/45/107 27/46/108
f 53/44/109 54/47/110 29/72/111 28/45/112
f 54/47/113 55/73/114 30/74/115 29/72/116
f 55/73/117 56/75/118 31/76/119 30/74/120
f 56/75/121 52/43/122 27/46/123 31/76/124
f 27/52/125 28/53/126 33/48/127 32/24/128
f 37/57/129 38/58/130 39/59/131 40/60/132
f 29/54/133 30/55/134 36/51/135 35/50/136
f 41/61/137 42/62/138 43/63/139 44/64/140
f 42/62/141 45/65/142 46/66/143 43/63/144
f 28/53/145 29/54/146 38/58/147 37/57/148
f 29/54/149 35/50/150 39/59/151 38/58/152
f 35/50/153 33/48/154 40/60/155 39/59/156
f 33/48/157 28/53/158 37/57/159 40/60/160
f 30/55/161 31/56/162 42/62/163 41/61/164
f 34/49/165 36/51/166 44/64/167 43/63/168
f 36/51/169 30/55/170 41/61/171 44/64/172
f 31/56/173 27/52/174 45/65/175 42/62/176
f 27/52/177 32/24/178 46/66/179 45/65/180
f 32/24/181 34/49/182 43/63/183 46/66/184
f 6/21/185 7/20/186 48/68/187 47/67/188
f 7/20/189 8/19/190 49/69/191 48/68/192
f 8/19/193 9/18/194 50/70/195 49/69/196
f 9/18/197 10/22/198 51/71/199 50/70/200
f 10/22/201 6/21/202 47/67/203 51/71/204
f 53/44/205 52/43/206 47/67/207 48/68/208
f 54/47/209 53/44/210 48/68/211 49/69/212
f 55/73/213 54/47/214 49/69/215 50/70/216
f 56/75/217 55/73/218 50/70/219 51/71/220
f 47/67/221 52/43/222 56/75/223 51/71/224
