# This file uses centimeters as units for non-parametric coordinates.

v 6.025637 133.002686 53.674526
v 6.025637 125.199013 53.674526
v 55.105942 133.002686 53.674526
v 55.105942 125.199013 53.674526
v 55.105942 133.002686 48.190254
v 55.105942 125.199020 48.190254
v 6.025637 133.002686 48.190254
v 6.025637 125.199013 48.190254
v 25.249929 132.613144 48.464020
v 17.053379 129.647598 48.464020
v 18.050190 132.613144 50.877575
v 17.702206 125.588562 48.464020
v 18.484806 125.588562 53.400761
v 18.032082 132.613144 53.400761
v -1.864670 -17.349411 55.006981
v 6.284515 -17.349411 55.006981
v -1.864670 149.798141 55.006981
v 6.284515 149.798141 55.006981
v -1.864670 149.798141 46.857796
v 6.284515 149.798141 49.884941
v -1.864670 -17.349411 46.857796
v 6.284515 -17.349411 46.857796
v 3.404636 149.798141 46.857796
v 6.284515 144.961105 46.857796
v -1.457878 109.539207 47.264587
v -1.457878 83.616470 47.264587
v 1.638973 98.486679 47.264587
v -1.457878 99.830818 50.850941
v 5.877724 99.361580 47.264587
v 5.877724 100.416870 54.600189
v -1.457878 99.806396 54.600189
v 50.408653 -17.349411 46.857796
v 50.408653 -17.349411 55.006981
v 50.408653 149.798141 46.857796
v 50.408653 149.798141 55.006981
v 58.557838 149.798141 46.857796
v 55.530701 149.798141 55.006981
v 58.557838 -17.349411 46.857796
v 58.557838 -17.349411 55.006981
v 58.557838 149.798141 52.127106
v 58.557838 144.961105 55.006981
v 58.151047 61.427967 47.264587
v 58.151047 35.505226 47.264587
v 58.151047 50.375443 50.361443
v 54.564697 51.719582 47.264587
v 58.151047 51.250343 54.600189
v 50.815445 52.305634 54.600189
v 50.815445 51.695160 47.264587
v 76.553635 -35.303040 38.120579
v 76.553635 -35.303040 62.745975
v -16.798204 -35.303040 38.120579
v -16.798204 -35.303040 62.745975
v -16.798204 -15.866943 38.120575
v -16.798204 -19.532379 62.745975
v 76.553635 -15.866943 38.120575
v 76.553635 -15.866943 62.745975
v -16.798204 -15.866943 59.051067
v -14.028147 -15.866943 62.745975
v 33.809402 -16.359497 38.642494
v 48.654774 -16.359497 38.642494
v 40.138935 -16.359497 42.615784
v 39.369179 -20.702087 38.642494
v 39.637897 -16.359497 62.224060
v 39.033558 -34.810455 62.224060
v 39.383163 -34.810455 38.642494
vt 0.250759 0.378935
vt 0.250759 0.378935
vt 0.250759 0.378935
vt 0.250759 0.378935
vt 0.250759 0.378935
vt 0.250759 0.378935
vt 0.250759 0.378935
vt 0.250759 0.378935
vt 0.250759 0.378935
vt 0.250759 0.378935
vt 0.250759 0.378935
vt 0.250759 0.378935
vt 0.250759 0.378935
vt 0.250759 0.378935
vt 0.250759 0.378935
vt 0.250759 0.378935
vt 0.250759 0.378935
vt 0.250759 0.378935
vt 0.250759 0.378935
vt 0.250759 0.378935
vt 0.250759 0.378935
vt 0.250759 0.378935
vt 0.250759 0.378935
vt 0.250759 0.378935
vt 0.250759 0.378935
vt 0.250759 0.378935
vt 0.250759 0.378935
vt 0.250759 0.378935
vt 0.250759 0.378935
vt 0.250759 0.378935
vt 0.250759 0.378935
vt 0.250759 0.378935
vt 0.250759 0.378935
vt 0.250759 0.378935
vt 0.250759 0.378935
vt 0.250759 0.378935
vt 0.250759 0.378935
vt 0.250759 0.378935
vt 0.250759 0.378935
vt 0.250759 0.378935
vt 0.250759 0.378935
vt 0.250759 0.378935
vt 0.250759 0.378935
vt 0.250759 0.378935
vt 0.250759 0.378935
vt 0.250759 0.378935
vt 0.250759 0.378935
vt 0.250759 0.378935
vt 0.250759 0.378935
vt 0.250759 0.378935
vt 0.250759 0.378935
vt 0.250759 0.378935
vt 0.250759 0.378935
vt 0.250759 0.378935
vt 0.250759 0.378935
vt 0.250759 0.378935
vt 0.250759 0.378935
vt 0.250759 0.378935
vt 0.250759 0.378935
vt 0.250759 0.378935
vt 0.250759 0.378935
vt 0.250759 0.378935
vt 0.250759 0.378935
vt 0.250759 0.378935
vt 0.250759 0.378935
vt 0.250759 0.378935
vt 0.250759 0.378935
vt 0.250759 0.378935
vt 0.250759 0.378935
vt 0.250759 0.378935
vt 0.250759 0.378935
vt 0.250759 0.378935
vt 0.250759 0.378935
vt 0.264839 0.381282
vt 0.264838 0.381282
vt 0.264838 0.381282
vt 0.264839 0.381282
vt 0.264839 0.381282
vt 0.264838 0.381282
vt 0.264838 0.381282
vt 0.264839 0.381282
vt 0.264839 0.381282
vt 0.264839 0.381282
vt 0.264838 0.381282
vt 0.264838 0.381282
vt 0.264839 0.381282
vt 0.264839 0.381282
vt 0.264838 0.381282
vt 0.264839 0.381282
vt 0.264838 0.381282
vt 0.264838 0.381282
vt 0.264838 0.381282
vt 0.264839 0.381282
vt 0.264838 0.381282
vt 0.264838 0.381282
vt 0.264838 0.381282
vt 0.264838 0.381282
vt 0.264839 0.381282
vt 0.264838 0.381282
vt 0.264838 0.381282
vt 0.264838 0.381282
vt 0.264839 0.381282
vt 0.264839 0.381282
vt 0.264839 0.381282
vt 0.264839 0.381282
vt 0.264839 0.381282
vt 0.264839 0.381282
vt 0.264838 0.381282
vt 0.264838 0.381282
vt 0.264838 0.381282
vt 0.264839 0.381282
vt 0.264839 0.381282
vt 0.264838 0.381282
vt 0.264838 0.381282
vt 0.264838 0.381282
vt 0.264839 0.381282
vt 0.264838 0.381282
vt 0.264838 0.381282
vt 0.264838 0.381282
vt 0.264838 0.381282
vt 0.264838 0.381282
vt 0.264839 0.381282
vt 0.264839 0.381282
vt 0.264839 0.381282
vt 0.264838 0.381282
vt 0.264838 0.381282
vt 0.264838 0.381282
vt 0.264839 0.381282
vt 0.264839 0.381282
vn 0.022374 0.000683 0.999749
vn 0.022374 0.000683 0.999749
vn 0.022374 0.000683 0.999749
vn 0.022374 0.000683 0.999749
vn 0.024282 0.001328 -0.999704
vn 0.024282 0.001328 -0.999704
vn 0.024282 0.001328 -0.999704
vn 0.024282 0.001328 -0.999704
vn 0.032263 -0.999476 -0.002423
vn 0.032263 -0.999476 -0.002423
vn 0.032263 -0.999476 -0.002423
vn 0.032263 -0.999476 -0.002423
vn 0.032396 0.999475 0.000074
vn 0.032396 0.999475 0.000074
vn 0.032396 0.999475 0.000074
vn 0.032396 0.999475 0.000074
vn 0.195693 0.578613 -0.791777
vn 0.195693 0.578613 -0.791777
vn 0.195693 0.578613 -0.791777
vn -0.238788 0.659989 -0.712317
vn -0.238788 0.659989 -0.712317
vn -0.238788 0.659989 -0.712317
vn -0.007604 0.003870 -0.999964
vn -0.007604 0.003870 -0.999964
vn -0.007604 0.003870 -0.999964
vn -0.007604 0.003870 -0.999964
vn -0.007604 0.003870 -0.999964
vn -0.010524 -0.999944 0.000790
vn -0.010524 -0.999944 0.000790
vn -0.010524 -0.999944 0.000790
vn -0.010524 -0.999944 0.000790
vn -0.007429 -0.000227 0.999972
vn -0.007429 -0.000227 0.999972
vn -0.007429 -0.000227 0.999972
vn -0.007429 -0.000227 0.999972
vn -0.011064 0.999909 -0.007663
vn -0.011064 0.999909 -0.007663
vn -0.011064 0.999909 -0.007663
vn -0.011064 0.999909 -0.007663
vn -0.011064 0.999909 -0.007663
vn -0.000136 0.003463 0.999994
vn -0.000136 0.003463 0.999994
vn -0.000136 0.003463 0.999994
vn -0.000136 0.003463 0.999994
vn 0.000000 1.000000 0.000000
vn 0.000000 1.000000 0.000000
vn 0.000000 1.000000 0.000000
vn 0.000000 1.000000 0.000000
vn 0.000000 1.000000 0.000000
vn -0.003670 0.003608 -0.999987
vn -0.003670 0.003608 -0.999987
vn -0.003670 0.003608 -0.999987
vn -0.003670 0.003608 -0.999987
vn -0.003670 0.003608 -0.999987
vn 0.999994 0.003470 -0.000236
vn 0.999994 0.003470 -0.000236
vn 0.999994 0.003470 -0.000236
vn 0.999994 0.003470 -0.000236
vn -0.999986 0.003600 -0.003764
vn -0.999986 0.003600 -0.003764
vn -0.999987 0.003600 -0.003764
vn -0.999986 0.003600 -0.003764
vn -0.999986 0.003600 -0.003764
vn 0.665258 0.396081 -0.632892
vn 0.665258 0.396081 -0.632892
vn 0.665258 0.396081 -0.632892
vn -0.719832 0.149911 -0.677768
vn -0.719832 0.149911 -0.677768
vn -0.719832 0.149911 -0.677768
vn -0.777598 -0.217879 -0.589805
vn -0.777599 -0.217879 -0.589805
vn -0.777599 -0.217879 -0.589805
vn -0.008256 -0.008514 -0.999930
vn -0.008256 -0.008514 -0.999930
vn -0.008256 -0.008514 -0.999930
vn -0.008256 -0.008514 -0.999930
vn -0.008256 -0.008514 -0.999930
vn -0.008256 -0.008514 -0.999930
vn 0.999961 -0.008286 0.003153
vn 0.999961 -0.008286 0.003153
vn 0.999961 -0.008286 0.003153
vn 0.999961 -0.008286 0.003153
vn 0.999961 -0.008286 0.003153
vn 0.000322 -0.008187 0.999967
vn 0.000322 -0.008187 0.999967
vn 0.000322 -0.008187 0.999967
vn 0.000322 -0.008187 0.999967
vn -0.999949 -0.008569 -0.005386
vn -0.999949 -0.008569 -0.005386
vn -0.999949 -0.008569 -0.005386
vn -0.999949 -0.008569 -0.005386
vn -0.999949 -0.008569 -0.005386
vn -0.999983 0.005866 -0.000231
vn -0.999983 0.005866 -0.000231
vn -0.999983 0.005866 -0.000231
vn -0.999983 0.005866 -0.000231
vn 0.000000 1.000000 0.000000
vn 0.000000 1.000000 0.000000
vn 0.000000 1.000000 0.000000
vn 0.000000 1.000000 0.000000
vn 0.000000 1.000000 0.000000
vn 0.999960 0.006295 -0.006400
vn 0.999960 0.006295 -0.006400
vn 0.999960 0.006295 -0.006400
vn 0.999960 0.006295 -0.006400
vn 0.999960 0.006295 -0.006400
vn 0.000401 0.005885 0.999983
vn 0.000401 0.005885 0.999983
vn 0.000401 0.005885 0.999983
vn 0.000401 0.005885 0.999983
vn 0.006555 0.006270 -0.999959
vn 0.006555 0.006270 -0.999959
vn 0.006555 0.006270 -0.999959
vn 0.006555 0.006270 -0.999959
vn 0.006555 0.006270 -0.999959
vn 0.632894 0.396081 0.665256
vn 0.632894 0.396081 0.665256
vn 0.632894 0.396081 0.665256
vn 0.677769 0.149911 -0.719830
vn 0.677769 0.149911 -0.719830
vn 0.677769 0.149911 -0.719830
vn 0.589805 -0.217879 -0.777598
vn 0.589805 -0.217879 -0.777598
vn 0.589805 -0.217879 -0.777598
vn 0.999983 -0.004242 -0.004114
vn 0.999983 -0.004242 -0.004114
vn 0.999983 -0.004242 -0.004114
vn 0.999983 -0.004242 -0.004114
vn 0.999983 -0.004242 -0.004114
vn 0.999983 -0.004242 -0.004114
vn -0.001592 -0.004185 0.999990
vn -0.001592 -0.004185 0.999990
vn -0.001592 -0.004185 0.999990
vn -0.001592 -0.004185 0.999990
vn -0.001592 -0.004185 0.999990
vn -0.999991 -0.004159 0.000164
vn -0.999991 -0.004159 0.000164
vn -0.999991 -0.004159 0.000164
vn -0.999991 -0.004159 0.000164
vn 0.002675 -0.004256 -0.999987
vn 0.002675 -0.004256 -0.999987
vn 0.002675 -0.004256 -0.999987
vn 0.002675 -0.004256 -0.999987
vn 0.002675 -0.004256 -0.999987
vn -0.013189 -0.999913 -0.000096
vn -0.013189 -0.999913 -0.000096
vn -0.013189 -0.999913 -0.000096
vn -0.013189 -0.999913 -0.000096
vn -1.000000 0.000000 0.000000
vn -1.000000 0.000000 0.000000
vn -1.000000 0.000000 0.000000
vn -1.000000 0.000000 0.000000
vn -1.000000 0.000000 0.000000
vn -0.013746 0.999902 -0.002571
vn -0.013746 0.999902 -0.002571
vn -0.013746 0.999902 -0.002571
vn -0.013746 0.999902 -0.002571
vn -0.013746 0.999902 -0.002571
vn 1.000000 -0.000000 0.000000
vn 1.000000 -0.000000 0.000000
vn 1.000000 -0.000000 0.000000
vn 1.000000 -0.000000 0.000000
vn -0.014022 0.000224 0.999902
vn -0.014022 0.000224 0.999902
vn -0.014022 0.000224 0.999902
vn -0.014022 0.000224 0.999902
vn -0.014498 0.003548 -0.999889
vn -0.014498 0.003548 -0.999889
vn -0.014498 0.003548 -0.999889
vn -0.014498 0.003548 -0.999889
vn -0.014498 0.003548 -0.999889
vn -0.684681 0.517429 0.513302
vn -0.684681 0.517429 0.513302
vn -0.684681 0.517429 0.513302
vn -0.313639 0.670641 -0.672213
vn -0.313639 0.670641 -0.672213
vn -0.313639 0.670641 -0.672213
vn 0.439508 0.562699 -0.700145
vn 0.439508 0.562699 -0.700145
vn 0.439508 0.562699 -0.700145
vn 0.008802 0.999960 -0.001570
vn 0.008802 0.999960 -0.001570
vn 0.008802 0.999960 -0.001570
vn 0.008802 0.999960 -0.001570
vn 0.008802 0.999960 -0.001570
vn 0.008802 0.999960 -0.001570
vn 0.009336 -0.000831 0.999956
vn 0.009336 -0.000831 0.999956
vn 0.009336 -0.000831 0.999956
vn 0.009336 -0.000831 0.999956
vn 0.009336 -0.000831 0.999956
vn 0.008795 -0.999961 0.000064
vn 0.008795 -0.999961 0.000064
vn 0.008795 -0.999961 0.000064
vn 0.008795 -0.999961 0.000064
vn 0.009410 0.001384 -0.999955
vn 0.009410 0.001384 -0.999955
vn 0.009410 0.001384 -0.999955
vn 0.009410 0.001384 -0.999955
vn 0.009410 0.001384 -0.999955
s off
f 1/1/1 2/2/2 13/20/3 14/21/4
f 10/15/5 12/18/6 8/7/7 7/6/8
f 2/2/9 8/8/10 12/19/11 13/20/12
f 7/10/13 1/1/14 14/21/15 11/16/16
f 7/10/17 11/16/18 10/17/19
f 10/17/20 11/16/21 9/13/22
f 5/5/23 6/12/24 12/18/25 10/15/26 9/14/27
f 13/20/28 12/19/29 6/9/30 4/4/31
f 14/21/32 13/20/33 4/4/34 3/3/35
f 11/16/36 14/21/37 3/3/38 5/11/39 9/13/40
f 15/22/41 16/23/42 30/24/43 31/25/44
f 17/26/45 18/27/46 20/28/47 23/29/48 19/30/49
f 27/31/50 29/32/51 22/33/52 21/34/53 26/35/54
f 16/23/55 22/36/56 29/37/57 30/24/58
f 21/38/59 15/22/60 31/25/61 28/39/62 26/40/63
f 24/41/64 23/29/65 20/28/66
f 26/40/67 28/39/68 27/42/69
f 27/42/70 28/39/71 25/43/72
f 19/30/73 23/29/74 24/41/75 29/32/76 27/31/77 25/44/78
f 30/24/79 29/37/80 24/45/81 20/46/82 18/27/83
f 31/25/84 30/24/85 18/27/86 17/26/87
f 28/39/88 31/25/89 17/26/90 19/47/91 25/43/92
f 32/48/93 33/49/94 47/50/95 48/51/96
f 34/52/97 35/53/98 37/54/99 40/55/100 36/56/101
f 44/57/102 46/58/103 39/59/104 38/60/105 43/61/106
f 33/49/107 39/62/108 46/63/109 47/50/110
f 38/64/111 32/48/112 48/51/113 45/65/114 43/66/115
f 41/67/116 40/55/117 37/54/118
f 43/66/119 45/65/120 44/68/121
f 44/68/122 45/65/123 42/69/124
f 36/56/125 40/55/126 41/67/127 46/58/128 44/57/129 42/70/130
f 47/50/131 46/63/132 41/71/133 37/72/134 35/53/135
f 48/51/136 47/50/137 35/53/138 34/52/139
f 45/65/140 48/51/141 34/52/142 36/73/143 42/69/144
f 49/128/145 50/75/146 64/110/147 65/103/148
f 51/111/149 52/117/150 54/126/151 57/123/152 53/129/153
f 61/116/154 63/113/155 56/85/156 55/122/157 60/87/158
f 55/86/159 56/119/160 50/88/161 49/89/162
f 50/127/163 56/90/164 63/114/165 64/109/166
f 55/92/167 49/74/168 65/104/169 62/93/170 60/94/171
f 58/125/172 57/81/173 54/80/174
f 60/120/175 62/105/176 61/115/177
f 61/96/178 62/106/179 59/97/180
f 53/82/181 57/124/182 58/95/183 63/84/184 61/83/185 59/98/186
f 64/108/187 63/91/188 58/99/189 54/100/190 52/118/191
f 65/102/192 64/76/193 52/79/194 51/112/195
f 62/107/196 65/77/197 51/78/198 53/101/199 59/121/200
