# This file uses centimeters as units for non-parametric coordinates.

v -0.336813 -0.907521 -5.921183
v 1.867568 -1.788020 -5.800533
v -0.061346 0.779057 -5.907729
v 1.528077 1.427457 -5.830064
v 1.097411 0.991131 -8.493745
v 1.757212 0.820875 -8.207479
v 0.828677 0.625658 -9.048141
v 1.703620 -0.032086 -9.134589
v 2.158140 0.289900 -8.544765
v 2.839331 0.278111 -5.765995
v 0.508844 0.015780 -7.518254
v 0.846982 0.620617 -7.308254
v 1.584942 0.630306 -7.192374
v 1.975590 0.004925 -7.349855
v 1.442087 -0.583910 -7.552474
v 1.318934 2.278003 -9.340993
v 1.907519 1.968671 -9.656674
v 1.189576 2.168941 -9.986710
v 2.009434 1.571844 -10.121614
v 1.863283 1.989497 -9.033130
v 2.301116 1.618947 -9.425776
v -2.754012 -0.787395 9.833403
v -3.457146 -0.787395 9.256971
v -3.808710 -0.000003 8.968758
v -3.457146 0.787396 9.256975
v -2.754012 0.787396 9.833406
v -2.402449 -0.000003 10.121620
v 2.207352 -1.961568 -5.964392
v -0.057665 -1.961568 -5.964393
v -1.190176 -0.000005 -5.964394
v -0.057666 1.961566 -5.964395
v 2.207351 1.961566 -5.964395
v 3.339859 -0.000005 -5.964394
v -4.068990 -0.000003 9.945877
v 1.074843 -0.000004 -6.344055
v -0.562152 -2.835362 -3.875142
v -2.199151 -0.000004 -3.875145
v -0.562153 2.835361 -3.875148
v 2.711839 2.835361 -3.875148
v 4.348835 -0.000004 -3.875145
v 2.711839 -2.835362 -3.875142
v 0.263287 -2.019131 0.075941
v -0.902461 -0.000004 0.075943
v 0.263286 2.019131 0.075945
v 2.594779 2.019131 0.075945
v 3.760526 -0.000004 0.075943
v 2.594781 -2.019131 0.075941
v -1.077826 -1.674617 5.861270
v -2.021766 -0.000005 5.652092
v -1.077826 1.674619 5.861264
v 0.810054 1.674619 6.279599
v 1.753994 -0.000003 6.488777
v 0.810054 -1.674617 6.279605
vt 0.144191 0.303631
vt 0.144191 0.303631
vt 0.144192 0.303631
vt 0.144191 0.303631
vt 0.144191 0.303631
vt 0.144192 0.303631
vt 0.144191 0.303631
vt 0.144191 0.303631
vt 0.144191 0.303631
vt 0.144191 0.303631
vt 0.144191 0.303631
vt 0.144191 0.303632
vt 0.144192 0.303632
vt 0.144191 0.303632
vt 0.144192 0.303632
vt 0.144192 0.303632
vt 0.144192 0.303631
vt 0.144191 0.303631
vt 0.144191 0.303631
vt 0.144192 0.303631
vt 0.144191 0.303631
vt 0.139027 0.449456
vt 0.139026 0.449456
vt 0.139026 0.449456
vt 0.139027 0.449456
vt 0.139026 0.449456
vt 0.139026 0.449456
vt 0.139026 0.449456
vt 0.139026 0.449456
vt 0.139026 0.449456
vt 0.139026 0.449456
vt 0.139026 0.449456
vt 0.139026 0.449456
vt 0.139026 0.449456
vt 0.139026 0.449456
vt 0.139026 0.449456
vt 0.139026 0.449456
vt 0.139027 0.449456
vt 0.139027 0.449456
vt 0.139027 0.449457
vt 0.139026 0.449457
vt 0.139026 0.449456
vt 0.139026 0.449456
vt 0.139027 0.449456
vt 0.139027 0.449456
vt 0.139027 0.449456
vt 0.139026 0.449456
vt 0.139026 0.449456
vt 0.139026 0.449456
vt 0.139026 0.449456
vt 0.139026 0.449456
vt 0.139026 0.449456
vt 0.139026 0.449456
vt 0.139026 0.449456
vt 0.139026 0.449456
vt 0.139027 0.449456
vt 0.139026 0.449456
vt 0.139026 0.449456
vt 0.139026 0.449456
vt 0.139026 0.449456
vt 0.139026 0.449456
vt 0.139026 0.449456
vt 0.139027 0.449456
vt 0.139026 0.449456
vt 0.139026 0.449456
vt 0.139026 0.449456
vt 0.139026 0.449456
vt 0.139026 0.449456
vt 0.139026 0.449456
vt 0.139027 0.449456
vn 0.038027 0.966525 0.253738
vn 0.038027 0.966525 0.253738
vn 0.038027 0.966525 0.253738
vn 0.038027 0.966525 0.253738
vn 0.356239 0.907010 -0.224560
vn 0.356239 0.907010 -0.224560
vn 0.356239 0.907010 -0.224560
vn -0.544933 -0.747080 -0.380684
vn -0.544933 -0.747080 -0.380684
vn -0.544933 -0.747080 -0.380684
vn -0.544933 -0.747080 -0.380684
vn 0.714693 -0.693020 -0.094538
vn 0.714693 -0.693020 -0.094538
vn 0.714693 -0.693020 -0.094538
vn 0.714693 -0.693020 -0.094538
vn -0.851473 0.524293 0.010477
vn -0.851473 0.524293 0.010477
vn -0.851473 0.524293 0.010477
vn -0.851473 0.524293 0.010477
vn 0.845916 0.477036 0.238460
vn 0.845916 0.477036 0.238460
vn 0.845916 0.477036 0.238460
vn 0.845916 0.477036 0.238460
vn 0.443593 0.727381 -0.523585
vn 0.443593 0.727382 -0.523585
vn 0.443593 0.727381 -0.523585
vn -0.859157 0.272318 -0.433235
vn -0.859157 0.272318 -0.433235
vn -0.859157 0.272318 -0.433235
vn -0.859157 0.272318 -0.433235
vn -0.220977 0.895275 -0.386849
vn -0.220977 0.895275 -0.386850
vn -0.220977 0.895275 -0.386849
vn -0.220977 0.895275 -0.386849
vn 0.647222 0.642275 -0.410593
vn 0.647222 0.642275 -0.410593
vn 0.647222 0.642275 -0.410593
vn 0.647222 0.642275 -0.410593
vn 0.802620 -0.416953 -0.426556
vn 0.802620 -0.416953 -0.426556
vn 0.802620 -0.416953 -0.426556
vn 0.802620 -0.416953 -0.426556
vn -0.348861 -0.770637 -0.533305
vn -0.348861 -0.770637 -0.533305
vn -0.348861 -0.770637 -0.533305
vn -0.348861 -0.770637 -0.533305
vn 0.657004 0.753583 0.021440
vn 0.657004 0.753583 0.021440
vn 0.657004 0.753582 0.021440
vn 0.728393 0.591737 -0.345385
vn 0.728393 0.591737 -0.345385
vn 0.728393 0.591737 -0.345385
vn 0.466714 0.884401 0.003570
vn 0.466714 0.884401 0.003570
vn 0.466714 0.884401 0.003570
vn -0.932300 0.309722 0.186788
vn -0.932300 0.309722 0.186788
vn -0.932300 0.309722 0.186788
vn -0.932300 0.309722 0.186788
vn -0.410614 -0.411006 -0.813923
vn -0.410614 -0.411006 -0.813923
vn -0.410614 -0.411006 -0.813923
vn -0.410614 -0.411006 -0.813923
vn 0.787075 0.292588 0.543052
vn 0.787075 0.292588 0.543052
vn 0.787075 0.292588 0.543052
vn 0.787075 0.292588 0.543052
vn 0.844863 -0.373330 -0.383185
vn 0.844863 -0.373330 -0.383185
vn 0.844863 -0.373330 -0.383185
vn 0.844863 -0.373330 -0.383185
vn -0.178454 0.570150 0.801925
vn -0.178454 0.570150 0.801925
vn -0.178454 0.570150 0.801925
vn -0.178454 0.570150 0.801925
vn 0.000000 -0.922563 -0.385847
vn 0.000000 -0.922563 -0.385847
vn 0.000000 -0.922563 -0.385847
vn 0.000000 -0.922563 -0.385847
vn -0.798962 -0.461282 -0.385848
vn -0.798962 -0.461282 -0.385848
vn -0.798962 -0.461282 -0.385848
vn -0.798962 -0.461282 -0.385848
vn -0.798963 0.461280 -0.385848
vn -0.798963 0.461280 -0.385848
vn -0.798963 0.461280 -0.385848
vn -0.798963 0.461280 -0.385848
vn 0.000000 0.922563 -0.385847
vn 0.000000 0.922563 -0.385847
vn 0.000000 0.922563 -0.385847
vn 0.000000 0.922563 -0.385847
vn 0.798963 0.461280 -0.385848
vn 0.798963 0.461280 -0.385848
vn 0.798963 0.461280 -0.385848
vn 0.798963 0.461280 -0.385848
vn 0.798962 -0.461282 -0.385848
vn 0.798962 -0.461282 -0.385848
vn 0.798962 -0.461282 -0.385848
vn 0.798962 -0.461282 -0.385848
vn -0.412066 -0.759969 0.502642
vn -0.412066 -0.759969 0.502642
vn -0.412066 -0.759969 0.502642
vn -0.855331 -0.465295 -0.227838
vn -0.855331 -0.465295 -0.227838
vn -0.855331 -0.465295 -0.227838
vn -0.855332 0.465292 -0.227839
vn -0.855332 0.465292 -0.227838
vn -0.855332 0.465292 -0.227839
vn -0.412070 0.759965 0.502645
vn -0.412070 0.759965 0.502645
vn -0.412070 0.759965 0.502645
vn -0.099964 0.302345 0.947942
vn -0.099964 0.302345 0.947942
vn -0.099964 0.302345 0.947942
vn -0.099964 -0.302352 0.947940
vn -0.099964 -0.302352 0.947940
vn -0.099964 -0.302352 0.947940
vn 0.000000 -0.190024 -0.981779
vn 0.000000 -0.190024 -0.981779
vn 0.000000 -0.190024 -0.981779
vn -0.164565 -0.095013 -0.981780
vn -0.164565 -0.095013 -0.981780
vn -0.164565 -0.095013 -0.981779
vn -0.164565 0.095011 -0.981780
vn -0.164565 0.095011 -0.981780
vn -0.164565 0.095011 -0.981780
vn 0.000000 0.190023 -0.981780
vn 0.000000 0.190023 -0.981780
vn 0.000000 0.190023 -0.981780
vn 0.164565 0.095011 -0.981780
vn 0.164565 0.095011 -0.981780
vn 0.164565 0.095011 -0.981780
vn 0.164566 -0.095013 -0.981779
vn 0.164566 -0.095013 -0.981779
vn 0.164566 -0.095013 -0.981779
vn -0.833032 -0.480953 0.273390
vn -0.833032 -0.480953 0.273390
vn -0.833032 -0.480953 0.273390
vn -0.833032 -0.480953 0.273390
vn -0.833033 0.480952 0.273389
vn -0.833033 0.480951 0.273389
vn -0.833033 0.480952 0.273389
vn -0.833033 0.480951 0.273389
vn -0.000000 0.979321 0.202312
vn -0.000000 0.979321 0.202312
vn -0.000000 0.979321 0.202312
vn -0.000000 0.979321 0.202312
vn 0.858914 0.495894 0.127891
vn 0.858914 0.495894 0.127891
vn 0.858914 0.495894 0.127891
vn 0.858914 0.495894 0.127891
vn 0.858914 -0.495894 0.127891
vn 0.858914 -0.495894 0.127891
vn 0.858914 -0.495894 0.127891
vn 0.858914 -0.495894 0.127891
vn -0.000000 -0.979321 0.202312
vn -0.000000 -0.979321 0.202312
vn -0.000000 -0.979321 0.202312
vn -0.000000 -0.979321 0.202312
vn -0.851637 -0.496007 -0.169388
vn -0.851637 -0.496007 -0.169388
vn -0.851637 -0.496007 -0.169388
vn -0.851637 -0.496007 -0.169388
vn -0.851638 0.496004 -0.169389
vn -0.851638 0.496004 -0.169389
vn -0.851638 0.496004 -0.169389
vn -0.851638 0.496004 -0.169389
vn -0.005546 0.998419 0.055935
vn -0.005546 0.998419 0.055935
vn -0.005546 0.998419 0.055935
vn -0.005546 0.998419 0.055935
vn 0.831247 0.489669 0.263161
vn 0.831247 0.489669 0.263161
vn 0.831247 0.489669 0.263161
vn 0.831247 0.489669 0.263161
vn 0.831246 -0.489670 0.263161
vn 0.831246 -0.489670 0.263161
vn 0.831246 -0.489670 0.263161
vn 0.831246 -0.489670 0.263161
vn -0.005546 -0.998419 0.055935
vn -0.005546 -0.998419 0.055935
vn -0.005546 -0.998419 0.055935
vn -0.005546 -0.998419 0.055935
vn -0.769019 -0.488056 -0.412809
vn -0.769019 -0.488056 -0.412809
vn -0.769019 -0.488056 -0.412809
vn -0.769019 -0.488056 -0.412809
vn -0.769021 0.488052 -0.412810
vn -0.769021 0.488052 -0.412810
vn -0.769021 0.488052 -0.412810
vn -0.769021 0.488052 -0.412810
vn -0.072282 0.979454 0.188270
vn -0.072282 0.979454 0.188270
vn -0.072282 0.979454 0.188270
vn -0.072282 0.979454 0.188270
vn 0.582604 0.444084 0.680707
vn 0.582604 0.444084 0.680707
vn 0.582604 0.444084 0.680707
vn 0.582604 0.444084 0.680707
vn 0.582603 -0.444085 0.680707
vn 0.582603 -0.444085 0.680707
vn 0.582603 -0.444085 0.680707
vn 0.582603 -0.444085 0.680707
vn -0.072283 -0.979454 0.188270
vn -0.072283 -0.979454 0.188270
vn -0.072283 -0.979454 0.188270
vn -0.072283 -0.979454 0.188270
s off
f 12/1/1 13/2/2 6/3/3 5/4/4
f 16/18/5 17/5/6 18/17/7
f 7/6/8 8/7/9 15/8/10 11/9/11
f 14/10/12 15/8/13 8/7/14 9/11/15
f 7/6/16 11/9/17 12/1/18 5/4/19
f 13/2/20 14/10/21 9/11/22 6/3/23
f 18/17/24 17/5/25 19/19/26
f 12/1/27 11/9/28 1/12/29 3/13/30
f 3/13/31 4/14/32 13/2/33 12/1/34
f 10/15/35 14/10/36 13/2/37 4/14/38
f 2/16/39 15/8/40 14/10/41 10/15/42
f 11/9/43 15/8/44 2/16/45 1/12/46
f 17/5/47 20/20/48 21/21/49
f 19/19/50 17/5/51 21/21/52
f 16/18/53 20/20/54 17/5/55
f 7/6/56 5/4/57 16/18/58 18/17/59
f 8/7/60 7/6/61 18/17/62 19/19/63
f 6/3/64 9/11/65 21/21/66 20/20/67
f 9/11/68 8/7/69 19/19/70 21/21/71
f 5/4/72 6/3/73 20/20/74 16/18/75
f 41/22/76 36/23/77 29/24/78 28/25/79
f 36/23/80 37/26/81 30/27/82 29/24/83
f 37/26/84 38/28/85 31/29/86 30/27/87
f 38/28/88 39/30/89 32/31/90 31/29/91
f 39/30/92 40/32/93 33/33/94 32/31/95
f 40/32/96 41/34/97 28/35/98 33/33/99
f 23/36/100 22/37/101 34/38/102
f 24/39/103 23/36/104 34/38/105
f 25/40/106 24/39/107 34/38/108
f 26/41/109 25/40/110 34/38/111
f 27/42/112 26/41/113 34/38/114
f 22/37/115 27/42/116 34/38/117
f 28/43/118 29/44/119 35/45/120
f 29/44/121 30/46/122 35/45/123
f 30/46/124 31/47/125 35/45/126
f 31/47/127 32/48/128 35/45/129
f 32/48/130 33/49/131 35/45/132
f 33/49/133 28/43/134 35/45/135
f 42/50/136 43/51/137 37/26/138 36/23/139
f 43/51/140 44/52/141 38/28/142 37/26/143
f 44/52/144 45/53/145 39/30/146 38/28/147
f 45/53/148 46/54/149 40/32/150 39/30/151
f 46/54/152 47/55/153 41/34/154 40/32/155
f 47/56/156 42/50/157 36/23/158 41/22/159
f 48/57/160 49/58/161 43/51/162 42/50/163
f 49/58/164 50/59/165 44/52/166 43/51/167
f 50/59/168 51/60/169 45/53/170 44/52/171
f 51/60/172 52/61/173 46/54/174 45/53/175
f 52/61/176 53/62/177 47/55/178 46/54/179
f 53/63/180 48/57/181 42/50/182 47/56/183
f 23/64/184 24/65/185 49/58/186 48/57/187
f 24/65/188 25/66/189 50/59/190 49/58/191
f 25/66/192 26/67/193 51/60/194 50/59/195
f 26/67/196 27/68/197 52/61/198 51/60/199
f 27/68/200 22/69/201 53/62/202 52/61/203
f 22/70/204 23/64/205 48/57/206 53/63/207
