# This file uses centimeters as units for non-parametric coordinates.

v -2.068909 6.445302 8.767792
v 4.241821 8.366905 7.229675
v 4.884705 7.309967 2.151520
v -1.760376 8.596088 5.420074
v -4.973572 7.830903 2.449310
v -5.627319 6.286211 6.462494
v -7.891479 4.185071 -4.374878
v -2.871033 1.267702 6.732666
v -7.798096 6.382731 -0.139618
v -4.438660 0.697745 -3.452362
v -1.485352 8.261960 2.933838
v 2.398560 0.464864 6.165649
v 4.562561 9.175941 -0.320099
v -3.561707 7.428780 -1.345123
v 7.316833 5.535285 0.450897
v 3.358215 -0.255068 -3.202209
v -5.811462 9.766256 -2.267181
v 0.703491 9.583114 -5.048370
v -0.330444 4.841055 -7.420746
v 5.366516 6.777245 -5.108795
v 6.257690 6.853172 0.275238
vt 0.107495 0.194175
vt 0.107296 0.194132
vt 0.107512 0.194071
vt 0.105233 0.194109
vt 0.107512 0.194060
vt 0.107512 0.194118
vt 0.107512 0.194166
vt 0.106390 0.194056
vt 0.106044 0.194119
vt 0.106236 0.194143
vt 0.106234 0.194109
vt 0.105225 0.194082
vt 0.107512 0.194060
vt 0.105222 0.194133
vt 0.105233 0.194075
vt 0.106232 0.194035
vt 0.106234 0.194146
vt 0.106234 0.194063
vt 0.107512 0.194164
vt 0.106234 0.194104
vt 0.107512 0.194100
vt 0.107512 0.194087
vt 0.107193 0.194156
vt 0.107193 0.194156
vn -0.894156 0.405192 -0.190538
vn -0.894156 0.405192 -0.190538
vn -0.894156 0.405192 -0.190538
vn -0.218729 0.936826 0.272975
vn -0.218729 0.936826 0.272975
vn -0.218729 0.936826 0.272975
vn 0.287515 -0.193377 0.938051
vn 0.287515 -0.193377 0.938051
vn 0.287515 -0.193377 0.938052
vn 0.833849 -0.260067 0.486888
vn 0.833849 -0.260068 0.486889
vn 0.833849 -0.260068 0.486889
vn 0.094979 0.976924 -0.191307
vn 0.094979 0.976924 -0.191307
vn 0.094979 0.976924 -0.191307
vn 0.701597 0.612408 0.364305
vn 0.701597 0.612408 0.364305
vn 0.701597 0.612408 0.364305
vn 0.043238 -0.371272 0.927517
vn 0.043238 -0.371272 0.927517
vn 0.043238 -0.371272 0.927517
vn 0.536521 0.837163 -0.106320
vn 0.536521 0.837163 -0.106320
vn 0.536521 0.837163 -0.106320
vn 0.132640 0.984164 -0.117590
vn 0.132640 0.984164 -0.117590
vn 0.132640 0.984164 -0.117590
vn -0.194922 0.655557 0.729555
vn -0.194922 0.655557 0.729555
vn -0.194922 0.655557 0.729555
vn -0.850977 -0.453077 0.265630
vn -0.850977 -0.453077 0.265630
vn -0.850977 -0.453077 0.265630
vn -0.443170 0.858441 0.258225
vn -0.443170 0.858441 0.258225
vn -0.443170 0.858441 0.258225
vn -0.673375 0.634239 0.379878
vn -0.673375 0.634239 0.379878
vn -0.673375 0.634239 0.379878
vn 0.189572 0.795348 0.575747
vn 0.189572 0.795348 0.575747
vn 0.189572 0.795348 0.575747
vn -0.101709 0.984403 -0.143546
vn -0.101709 0.984403 -0.143546
vn -0.101709 0.984403 -0.143546
vn -0.722105 -0.675558 0.148947
vn -0.722105 -0.675558 0.148947
vn -0.722105 -0.675558 0.148947
vn -0.588789 0.781852 0.205025
vn -0.588789 0.781852 0.205025
vn -0.588789 0.781852 0.205025
vn -0.101908 0.984569 -0.142260
vn -0.101908 0.984569 -0.142260
vn -0.101908 0.984569 -0.142260
vn 0.674065 0.717703 0.174752
vn 0.674065 0.717703 0.174752
vn 0.674065 0.717703 0.174752
vn -0.143898 -0.987701 0.061165
vn -0.143898 -0.987701 0.061165
vn -0.143898 -0.987701 0.061165
vn -0.835298 -0.480264 0.267625
vn -0.835298 -0.480264 0.267625
vn -0.835298 -0.480264 0.267625
vn 0.816562 0.559254 -0.143045
vn 0.816562 0.559254 -0.143045
vn 0.816562 0.559254 -0.143046
vn 0.779686 -0.613158 0.126994
vn 0.779686 -0.613158 0.126994
vn 0.779686 -0.613158 0.126994
vn 0.780922 0.609228 -0.137851
vn 0.780922 0.609228 -0.137851
vn 0.780922 0.609228 -0.137851
vn -0.071871 0.987015 0.143655
vn -0.071871 0.987015 0.143655
vn -0.071871 0.987015 0.143655
vn -0.428335 0.903053 0.032010
vn -0.428335 0.903053 0.032010
vn -0.428335 0.903053 0.032010
vn -0.123316 -0.989578 0.074357
vn -0.123316 -0.989578 0.074357
vn -0.123316 -0.989578 0.074357
vn 0.327636 0.602441 0.727818
vn 0.327636 0.602441 0.727818
vn 0.327636 0.602441 0.727818
vn 0.452126 -0.351387 -0.819823
vn 0.452126 -0.351388 -0.819823
vn 0.452126 -0.351387 -0.819823
vn 0.226634 0.395804 -0.889931
vn 0.226634 0.395804 -0.889931
vn 0.226634 0.395804 -0.889931
vn 0.484417 0.812053 -0.325437
vn 0.484417 0.812053 -0.325437
vn 0.484417 0.812053 -0.325437
vn -0.056723 -0.660679 -0.748523
vn -0.056723 -0.660679 -0.748523
vn -0.056723 -0.660679 -0.748523
vn -0.341896 0.440834 -0.829923
vn -0.341896 0.440834 -0.829923
vn -0.341896 0.440834 -0.829923
vn -0.363443 0.478993 -0.799046
vn -0.363443 0.478993 -0.799046
vn -0.363443 0.478993 -0.799046
vn -0.286060 -0.499539 -0.817698
vn -0.286060 -0.499539 -0.817698
vn -0.286060 -0.499539 -0.817698
vn 0.857816 -0.347614 -0.378571
vn 0.857816 -0.347614 -0.378571
vn 0.857816 -0.347614 -0.378571
vn -0.519997 -0.241487 0.819322
vn -0.519997 -0.241487 0.819322
vn -0.519997 -0.241487 0.819322
vn 0.704021 0.607895 0.367177
vn 0.704021 0.607895 0.367177
vn 0.704021 0.607895 0.367177
s off
f 7/10/1 9/1/2 17/19/3
f 6/9/4 1/2/5 2/3/6
f 2/3/7 1/2/8 12/12/9
f 2/3/10 12/12/11 15/16/12
f 4/6/13 2/3/14 3/5/15
f 15/16/16 21/8/17 3/5/18
f 1/2/19 8/4/20 12/12/21
f 15/16/22 3/5/23 2/3/24
f 3/5/25 11/11/26 4/22/27
f 4/6/28 6/9/29 2/3/30
f 6/9/31 7/10/32 8/4/33
f 5/7/34 6/9/35 4/6/36
f 5/7/37 17/19/38 9/1/39
f 13/13/40 11/11/41 3/5/42
f 11/11/43 5/7/44 4/6/45
f 7/10/46 10/14/47 8/4/48
f 9/1/49 6/9/50 5/7/51
f 11/11/52 14/17/53 5/7/54
f 5/7/55 14/17/56 17/19/57
f 8/4/58 16/15/59 12/12/60
f 9/1/61 7/10/62 6/9/63
f 13/13/64 21/8/65 20/18/66
f 16/15/67 15/16/68 12/12/69
f 15/16/70 20/18/71 21/8/72
f 18/21/73 11/11/74 13/13/75
f 11/11/76 18/21/77 14/17/78
f 10/14/79 16/15/80 8/4/81
f 17/19/82 14/17/83 18/21/84
f 20/18/85 16/15/86 19/20/87
f 19/20/88 18/21/89 20/18/90
f 20/18/91 18/21/92 13/13/93
f 19/20/94 16/15/95 10/14/96
f 7/23/97 17/19/98 18/21/99
f 7/24/100 18/21/101 19/20/102
f 10/14/103 7/10/104 19/20/105
f 15/16/106 16/15/107 20/18/108
f 1/2/109 6/9/110 8/4/111
f 3/5/112 21/8/113 13/13/114
