# This file uses centimeters as units for non-parametric coordinates.

v 155.463699 14.774776 33.443527
v 155.463699 14.774776 -33.443542
v 155.463699 34.604080 33.443527
v 155.463699 27.215942 -33.443542
v -155.463699 28.045225 33.443542
v -155.463699 34.604080 -33.443527
v -155.463699 14.774776 33.443542
v -155.463699 14.774776 -33.443527
v 145.078705 34.604080 25.040329
v 145.078674 34.604080 -25.040314
v -145.078705 34.604080 -25.040329
v -145.078674 34.604080 25.040314
v 145.078705 24.231571 25.040329
v 145.078674 24.231571 -25.040314
v -145.078705 24.231571 -25.040329
v -145.078674 24.231571 25.040314
v 145.078690 9.456791 13.159744
v 145.078690 9.456791 -13.159744
v -145.078690 9.456791 -13.159744
v -145.078690 9.456791 13.159744
v -155.463684 0.000000 17.575974
v -155.463715 0.000000 -17.575974
v 155.463684 0.000000 -17.575974
v 155.463715 0.000000 17.575974
v -155.463699 34.604080 26.589188
v -145.939117 34.604080 33.443542
v -150.980225 34.604080 29.815674
v -61.684837 34.604080 25.040321
v -97.968445 34.604080 25.040314
v -83.267380 34.604080 28.558777
v -82.922844 29.785299 25.040321
v 55.770195 34.604080 33.443523
v 14.052734 34.604080 33.443523
v 28.705536 34.604080 28.855484
v 28.363014 27.985931 33.443523
v 84.736725 34.604080 33.443527
v 66.245590 34.604080 33.443523
v 73.326538 34.604080 30.054596
v 73.088196 30.397041 33.443527
v 155.463715 34.604080 -27.923248
v 146.774506 34.604080 -33.443527
v 151.642029 34.604080 -30.351151
v 108.173279 34.604080 -25.040314
v 75.920258 34.604080 -25.040314
v 92.340187 34.604080 -29.301651
v 91.618774 30.077538 -25.040314
v -21.237595 34.604080 -33.443523
v -53.469185 34.604080 -33.443523
v -34.213711 34.604080 -29.585800
v -35.109329 29.537123 -33.443527
v 17.880201 14.774776 -33.443523
v 69.102364 14.774776 -33.443520
v 43.469238 19.480480 -33.443523
v 43.398937 11.459871 -29.883434
v 43.083969 14.774776 33.443523
v 62.531044 19.224226 33.443527
v 98.160416 14.774776 33.443527
v 66.720764 9.137553 27.389359
v 161.197144 -7.360822 45.861160
v 161.197159 -7.360822 -45.861160
v 161.197144 7.360822 45.861160
v 161.197159 7.360822 -45.861160
v 149.730225 7.360822 45.861160
v 149.730255 7.360822 -45.861160
v 149.730225 -7.360822 45.861160
v 149.730255 -7.360822 -45.861160
v -149.730255 -7.360822 45.861160
v -149.730225 -7.360822 -45.861160
v -149.730255 7.360822 45.861160
v -149.730225 7.360822 -45.861160
v -161.197159 7.360822 45.861160
v -161.197144 7.360822 -45.861160
v -161.197159 -7.360822 45.861160
v -161.197144 -7.360822 -45.861160
vt 0.247561 0.383280
vt 0.247561 0.383280
vt 0.247561 0.383280
vt 0.247561 0.383280
vt 0.247561 0.383280
vt 0.247561 0.383280
vt 0.247561 0.383280
vt 0.247561 0.383280
vt 0.247561 0.383280
vt 0.247561 0.383280
vt 0.247561 0.383280
vt 0.247561 0.383280
vt 0.247561 0.383280
vt 0.247561 0.383280
vt 0.247561 0.383280
vt 0.247561 0.383280
vt 0.247561 0.383280
vt 0.247561 0.383280
vt 0.247561 0.383280
vt 0.247561 0.383280
vt 0.247561 0.383280
vt 0.247561 0.383280
vt 0.247561 0.383280
vt 0.247561 0.383280
vt 0.247561 0.383280
vt 0.247561 0.383280
vt 0.247561 0.383280
vt 0.247561 0.383280
vt 0.247561 0.383280
vt 0.247561 0.383280
vt 0.247561 0.383280
vt 0.247561 0.383280
vt 0.247561 0.383280
vt 0.247561 0.383280
vt 0.247561 0.383280
vt 0.247561 0.383280
vt 0.247561 0.383280
vt 0.247561 0.383280
vt 0.247561 0.383280
vt 0.247561 0.383280
vt 0.247561 0.383280
vt 0.247561 0.383280
vt 0.247561 0.383280
vt 0.247561 0.383280
vt 0.247561 0.383280
vt 0.247561 0.383280
vt 0.247561 0.383280
vt 0.247561 0.383280
vt 0.247561 0.383280
vt 0.247561 0.383280
vt 0.247561 0.383280
vt 0.247561 0.383280
vt 0.247561 0.383280
vt 0.247561 0.383280
vt 0.247561 0.383280
vt 0.247561 0.383280
vt 0.247561 0.383280
vt 0.247561 0.383280
vt 0.247561 0.383280
vt 0.247561 0.383280
vt 0.247561 0.383280
vt 0.247561 0.383280
vt 0.247561 0.383280
vt 0.247561 0.383280
vt 0.247561 0.383280
vt 0.247561 0.383280
vt 0.247561 0.383280
vt 0.247561 0.383280
vt 0.247561 0.383280
vt 0.247561 0.383280
vt 0.247561 0.383280
vt 0.247561 0.383280
vt 0.247561 0.383280
vt 0.247561 0.383280
vt 0.247561 0.383280
vt 0.247561 0.383280
vt 0.247561 0.383280
vt 0.247561 0.383280
vt 0.247561 0.383280
vt 0.247561 0.383280
vt 0.247561 0.383280
vt 0.264650 0.383280
vt 0.264650 0.383280
vt 0.264650 0.383280
vt 0.264650 0.383280
vt 0.264650 0.383280
vt 0.264650 0.383280
vt 0.264650 0.383280
vt 0.264650 0.383280
vt 0.264650 0.383280
vt 0.264650 0.383280
vt 0.264650 0.383280
vt 0.264650 0.383280
vt 0.264650 0.383280
vt 0.264650 0.383280
vt 0.264650 0.383280
vt 0.264650 0.383280
vt 0.264650 0.383280
vt 0.264650 0.383280
vt 0.264650 0.383280
vt 0.264650 0.383280
vt 0.264650 0.383280
vt 0.264650 0.383280
vt 0.264650 0.383280
vt 0.264650 0.383280
vt 0.264650 0.383280
vt 0.264650 0.383280
vt 0.264650 0.383280
vt 0.264650 0.383280
vt 0.247561 0.383280
vt 0.247561 0.383280
vt 0.247561 0.383280
vt 0.247561 0.383280
vt 0.247561 0.383280
vt 0.247561 0.383280
vt 0.247561 0.383280
vt 0.247561 0.383280
vt 0.247561 0.383280
vt 0.247561 0.383280
vt 0.247561 0.383280
vt 0.247561 0.383280
vt 0.247561 0.383280
vt 0.247561 0.383280
vt 0.247561 0.383280
vt 0.247561 0.383280
vt 0.247561 0.383280
vt 0.247561 0.383280
vt 0.247561 0.383280
vt 0.247561 0.383280
vt 0.247561 0.383280
vt 0.247561 0.383280
vt 0.247561 0.383280
vt 0.247561 0.383280
vt 0.247561 0.383280
vt 0.247561 0.383280
vt 0.247561 0.383280
vt 0.247561 0.383280
vt 0.247561 0.383280
vt 0.247561 0.383280
vt 0.247561 0.383280
vt 0.247561 0.383280
vt 0.247561 0.383280
vt 0.247561 0.383280
vt 0.247561 0.383280
vt 0.247561 0.383280
vt 0.247561 0.383280
vt 0.247561 0.383280
vt 0.247561 0.383280
vt 0.247561 0.383280
vt 0.247561 0.383280
vt 0.247561 0.383280
vt 0.247561 0.383280
vt 0.247561 0.383280
vt 0.247561 0.383280
vt 0.247561 0.383280
vt 0.247561 0.383280
vt 0.247561 0.383280
vt 0.247561 0.383280
vt 0.247561 0.383280
vt 0.247561 0.383280
vt 0.247561 0.383280
vt 0.247561 0.383280
vt 0.247561 0.383280
vt 0.247561 0.383280
vt 0.247561 0.383280
vt 0.247561 0.383280
vt 0.247561 0.383280
vt 0.247561 0.383280
vt 0.247561 0.383280
vt 0.247561 0.383280
vt 0.247561 0.383280
vt 0.247561 0.383280
vt 0.247561 0.383280
vt 0.247561 0.383280
vt 0.247561 0.383280
vt 0.247561 0.383280
vt 0.247561 0.383280
vt 0.247561 0.383280
vt 0.247561 0.383280
vt 0.247561 0.383280
vt 0.247561 0.383280
vt 0.247561 0.383280
vt 0.247561 0.383280
vt 0.247561 0.383280
vt 0.247561 0.383280
vt 0.247561 0.383280
vt 0.247561 0.383280
vt 0.247561 0.383280
vt 0.247561 0.383280
vt 0.247561 0.383280
vt 0.247561 0.383280
vt 0.247561 0.383280
vt 0.247561 0.383280
vt 0.247561 0.383280
vt 0.247561 0.383280
vt 0.247561 0.383280
vt 0.247561 0.383280
vt 0.247561 0.383280
vt 0.247561 0.383280
vt 0.247561 0.383280
vt 0.247561 0.383280
vt 0.247561 0.383280
vt 0.247561 0.383280
vt 0.247561 0.383280
vt 0.247561 0.383280
vt 0.247561 0.383280
vt 0.247561 0.383280
vt 0.247561 0.383280
vt 0.247561 0.383280
vt 0.247561 0.383280
vt 0.247561 0.383280
vt 0.247561 0.383280
vt 0.247561 0.383280
vt 0.247561 0.383280
vt 0.247561 0.383280
vt 0.247561 0.383280
vt 0.247561 0.383280
vt 0.247561 0.383280
vt 0.247561 0.383280
vt 0.247561 0.383280
vt 0.247561 0.383280
vt 0.247561 0.383280
vt 0.247561 0.383280
vt 0.247561 0.383280
vt 0.247561 0.383280
vt 0.247561 0.383280
vt 0.247561 0.383280
vt 0.247561 0.383280
vt 0.247561 0.383280
vt 0.247561 0.383280
vt 0.247561 0.383280
vt 0.247561 0.383280
vt 0.247561 0.383280
vt 0.247561 0.383280
vt 0.247561 0.383280
vt 0.247561 0.383280
vt 0.247561 0.383280
vt 0.247561 0.383280
vt 0.247561 0.383280
vt 0.247561 0.383280
vt 0.247561 0.383280
vt 0.247561 0.383280
vt 0.247561 0.383280
vt 0.247561 0.383280
vt 0.247561 0.383280
vt 0.247561 0.383280
vt 0.247561 0.383280
vt 0.247561 0.383280
vt 0.247561 0.383280
vt 0.247561 0.383280
vt 0.247561 0.383280
vt 0.247561 0.383280
vt 0.247561 0.383280
vt 0.247561 0.383280
vt 0.247561 0.383280
vt 0.247561 0.383280
vn 1.000000 0.000000 0.000000
vn 1.000000 0.000000 0.000000
vn 1.000000 0.000000 0.000000
vn 1.000000 0.000000 0.000000
vn 1.000000 0.000000 0.000000
vn 0.000000 1.000000 0.000000
vn 0.000000 1.000000 0.000000
vn 0.000000 1.000000 0.000000
vn 0.000000 1.000000 0.000000
vn 0.000000 -1.000000 0.000000
vn 0.000000 -1.000000 0.000000
vn 0.000000 -1.000000 0.000000
vn 0.000000 -1.000000 0.000000
vn -0.000000 0.000000 -1.000000
vn -0.000000 0.000000 -1.000000
vn -0.000000 0.000000 -1.000000
vn -0.000000 0.000000 -1.000000
vn -0.000000 0.000000 -1.000000
vn 0.000000 0.000000 1.000000
vn 0.000000 0.000000 1.000000
vn 0.000000 0.000000 1.000000
vn 0.000000 0.000000 1.000000
vn 0.000000 1.000000 0.000000
vn 0.000000 1.000000 0.000000
vn 0.000000 1.000000 0.000000
vn 0.000000 1.000000 0.000000
vn 0.000000 1.000000 0.000000
vn 0.453572 0.533445 -0.713939
vn 0.453572 0.533445 -0.713939
vn 0.453572 0.533445 -0.713939
vn 0.000000 1.000000 0.000000
vn 0.000000 1.000000 0.000000
vn 0.000000 1.000000 0.000000
vn 0.000000 1.000000 0.000000
vn 0.000000 1.000000 0.000000
vn -0.445451 0.646871 0.618976
vn -0.445451 0.646871 0.618976
vn -0.445451 0.646871 0.618976
vn -1.000000 0.000000 0.000001
vn -1.000000 0.000000 0.000001
vn -1.000000 0.000000 0.000001
vn -1.000000 0.000000 0.000001
vn -0.000000 -0.000000 1.000000
vn -0.000000 -0.000000 1.000000
vn -0.000000 -0.000000 1.000000
vn -0.000000 -0.000000 1.000000
vn -0.000000 -0.000000 1.000000
vn -0.000000 -0.000000 1.000000
vn -0.000000 -0.000000 1.000000
vn 1.000000 0.000000 -0.000001
vn 1.000000 0.000000 -0.000001
vn 1.000000 0.000000 -0.000001
vn 1.000000 0.000000 -0.000001
vn 0.000000 0.000001 -1.000000
vn 0.000000 0.000001 -1.000000
vn 0.000000 0.000001 -1.000000
vn -1.000000 -0.000000 0.000000
vn -1.000000 -0.000000 0.000000
vn -1.000000 -0.000000 0.000000
vn -1.000000 -0.000000 0.000000
vn -0.000000 0.626647 0.779303
vn -0.000000 0.626647 0.779303
vn -0.000000 0.626647 0.779303
vn -0.000000 0.626647 0.779303
vn 1.000000 -0.000000 -0.000000
vn 1.000000 -0.000000 -0.000000
vn 1.000000 -0.000000 -0.000000
vn 1.000000 -0.000000 -0.000000
vn 0.000000 0.626647 -0.779303
vn 0.000000 0.626647 -0.779303
vn 0.000000 0.626647 -0.779303
vn 0.000000 0.626647 -0.779303
vn -1.000000 -0.000000 0.000000
vn -1.000000 -0.000000 0.000000
vn -1.000000 -0.000000 0.000000
vn -1.000000 -0.000000 0.000000
vn -0.000000 -0.731859 -0.681456
vn -0.000000 -0.731859 -0.681456
vn -0.000000 -0.731859 -0.681456
vn -0.000000 -0.731859 -0.681456
vn 1.000000 -0.000000 -0.000000
vn 1.000000 -0.000000 -0.000000
vn 1.000000 -0.000000 -0.000000
vn 1.000000 -0.000000 -0.000000
vn 0.000000 -0.731859 0.681456
vn 0.000000 -0.731859 0.681456
vn 0.000000 -0.731859 0.681456
vn 0.000000 -0.731859 0.681456
vn 0.000000 -0.731859 0.681456
vn 0.000000 -0.731859 0.681456
vn 0.000000 -0.731859 0.681456
vn -1.000000 0.000000 0.000000
vn -1.000000 0.000000 0.000000
vn -1.000000 0.000000 0.000000
vn -1.000000 0.000000 0.000000
vn -1.000000 0.000000 0.000000
vn -0.445444 0.646871 0.618981
vn -0.445444 0.646871 0.618981
vn -0.445444 0.646871 0.618981
vn 0.000000 1.000000 0.000000
vn 0.000000 1.000000 0.000000
vn 0.000000 1.000000 0.000000
vn 0.000000 1.000000 0.000000
vn 0.000000 1.000000 0.000000
vn -0.131248 0.578454 -0.805087
vn -0.131248 0.578454 -0.805087
vn -0.131248 0.578454 -0.805087
vn 0.250981 0.542691 0.801558
vn 0.250981 0.542691 0.801558
vn 0.250981 0.542691 0.801558
vn 0.353307 0.574644 0.738213
vn 0.353307 0.574644 0.738213
vn 0.353307 0.574644 0.738213
vn -0.223594 0.619090 0.752817
vn -0.223594 0.619090 0.752817
vn -0.223594 0.619090 0.752817
vn -0.137429 0.569122 0.810687
vn -0.137429 0.569122 0.810687
vn -0.137429 0.569122 0.810687
vn 0.188289 0.587891 -0.786722
vn 0.188289 0.587891 -0.786722
vn 0.188289 0.587891 -0.786722
vn 0.453564 0.533448 -0.713942
vn 0.453564 0.533448 -0.713942
vn 0.453564 0.533448 -0.713942
vn 0.000000 1.000000 0.000000
vn 0.000000 1.000000 0.000000
vn 0.000000 1.000000 0.000000
vn 0.000000 1.000000 0.000000
vn 0.189405 0.656876 0.729821
vn 0.189405 0.656876 0.729821
vn 0.189405 0.656876 0.729821
vn -0.188377 0.688933 0.699918
vn -0.188377 0.688933 0.699918
vn -0.188377 0.688933 0.699918
vn -0.224681 0.615107 -0.755753
vn -0.224681 0.615107 -0.755753
vn -0.224681 0.615107 -0.755753
vn 0.160039 0.579893 -0.798819
vn 0.160039 0.579893 -0.798819
vn 0.160039 0.579893 -0.798819
vn -0.074173 -0.404037 -0.911730
vn -0.074173 -0.404037 -0.911730
vn -0.074173 -0.404037 -0.911730
vn 0.074499 -0.405116 -0.911225
vn 0.074499 -0.405116 -0.911225
vn 0.074499 -0.405116 -0.911225
vn 0.109314 -0.477774 0.871655
vn 0.109314 -0.477774 0.871655
vn 0.109314 -0.477774 0.871655
vn -0.066648 -0.533694 0.843047
vn -0.066648 -0.533694 0.843047
vn -0.066648 -0.533694 0.843047
vn -0.000000 0.000000 1.000000
vn -0.000000 0.000000 1.000000
vn -0.000000 0.000000 1.000000
vn -0.000000 0.000000 1.000000
vn 0.000000 0.000000 1.000000
vn 0.000000 0.000000 1.000000
vn 0.000000 0.000000 1.000000
vn 0.000000 0.000000 1.000000
vn -0.000000 0.000000 1.000000
vn -0.000000 0.000000 1.000000
vn -0.000000 0.000000 1.000000
vn -0.000000 0.000000 1.000000
vn -0.000000 0.000000 1.000000
vn 0.000000 0.000000 1.000000
vn 0.000000 0.000000 1.000000
vn 0.000000 0.000000 1.000000
vn 0.000000 0.000000 1.000000
vn 0.000000 0.000000 1.000000
vn -0.000000 -0.000001 -1.000000
vn -0.000000 -0.000001 -1.000000
vn -0.000000 -0.000001 -1.000000
vn -0.000000 -0.000001 -1.000000
vn 0.000000 0.000000 -1.000000
vn 0.000000 0.000000 -1.000000
vn 0.000000 0.000000 -1.000000
vn 0.000000 0.000000 -1.000000
vn 0.000000 -0.000000 -1.000000
vn 0.000000 -0.000000 -1.000000
vn 0.000000 -0.000000 -1.000000
vn 0.000000 -0.000000 -1.000000
vn 0.000000 1.000000 0.000000
vn 0.000000 1.000000 0.000000
vn 0.000000 1.000000 0.000000
vn 0.000000 1.000000 0.000000
vn 0.000000 1.000000 -0.000000
vn 0.000000 1.000000 -0.000000
vn 0.000000 1.000000 -0.000000
vn 0.000000 1.000000 -0.000000
vn 0.000000 1.000000 -0.000000
vn 0.000000 1.000000 -0.000000
vn 0.000000 1.000000 -0.000000
vn 0.000000 1.000000 -0.000000
vn 0.000000 1.000000 -0.000000
vn 0.000000 -0.731859 -0.681456
vn 0.000000 -0.731859 -0.681456
vn 0.000000 -0.731859 -0.681456
vn 0.000000 -0.731859 -0.681456
vn 0.000000 -0.731858 -0.681457
vn 0.000000 -0.731858 -0.681457
vn 0.000000 -0.731858 -0.681457
vn 0.000000 1.000000 0.000000
vn 0.000000 1.000000 0.000000
vn 0.000000 1.000000 0.000000
vn 0.000000 1.000000 0.000000
vn 0.000000 1.000000 0.000000
vn 0.000000 1.000000 -0.000000
vn 0.000000 1.000000 -0.000000
vn 0.000000 1.000000 -0.000000
vn 0.000000 1.000000 -0.000000
vn 0.000000 1.000000 0.000000
vn 0.000000 1.000000 0.000000
vn 0.000000 1.000000 0.000000
vn 0.000000 1.000000 0.000000
vn 0.000000 1.000000 -0.000000
vn 0.000000 1.000000 -0.000000
vn 0.000000 1.000000 -0.000000
vn 0.000000 1.000000 -0.000000
vn 0.000000 -0.000000 -1.000000
vn 0.000000 -0.000000 -1.000000
vn 0.000000 -0.000000 -1.000000
vn 0.000000 -0.000000 -1.000000
vn 0.000000 -0.000000 -1.000000
vn 0.000000 -0.000000 -1.000000
vn 0.000000 -0.000000 -1.000000
vn 0.000000 -0.000000 -1.000000
vn 1.000000 0.000000 0.000000
vn 1.000000 0.000000 0.000000
vn 1.000000 0.000000 0.000000
vn 1.000000 0.000000 0.000000
vn 0.000000 1.000000 -0.000000
vn 0.000000 1.000000 -0.000000
vn 0.000000 1.000000 -0.000000
vn 0.000000 1.000000 -0.000000
vn -1.000000 0.000000 -0.000000
vn -1.000000 0.000000 -0.000000
vn -1.000000 0.000000 -0.000000
vn -1.000000 0.000000 -0.000000
vn 0.000000 -1.000000 -0.000000
vn 0.000000 -1.000000 -0.000000
vn 0.000000 -1.000000 -0.000000
vn 0.000000 -1.000000 -0.000000
vn 0.000000 0.000000 -1.000000
vn 0.000000 0.000000 -1.000000
vn 0.000000 0.000000 -1.000000
vn 0.000000 0.000000 -1.000000
vn 0.000000 0.000000 1.000000
vn 0.000000 0.000000 1.000000
vn 0.000000 0.000000 1.000000
vn 0.000000 0.000000 1.000000
vn 1.000000 0.000000 0.000000
vn 1.000000 0.000000 0.000000
vn 1.000000 0.000000 0.000000
vn 1.000000 0.000000 0.000000
vn 0.000000 1.000000 0.000000
vn 0.000000 1.000000 0.000000
vn 0.000000 1.000000 0.000000
vn 0.000000 1.000000 0.000000
vn -1.000000 0.000000 -0.000000
vn -1.000000 0.000000 -0.000000
vn -1.000000 0.000000 -0.000000
vn -1.000000 0.000000 -0.000000
vn 0.000000 -1.000000 0.000000
vn 0.000000 -1.000000 0.000000
vn 0.000000 -1.000000 0.000000
vn 0.000000 -1.000000 0.000000
vn 0.000000 0.000000 -1.000000
vn 0.000000 0.000000 -1.000000
vn 0.000000 0.000000 -1.000000
vn 0.000000 0.000000 -1.000000
vn 0.000000 0.000000 1.000000
vn 0.000000 0.000000 1.000000
vn 0.000000 0.000000 1.000000
vn 0.000000 0.000000 1.000000
s off
f 1/189/1 2/2/2 4/171/3 40/213/4 3/254/5
f 17/23/6 18/247/7 19/245/8 20/243/9
f 21/27/10 22/142/11 23/144/12 24/239/13
f 4/174/14 53/170/15 50/160/16 47/62/17 41/55/18
f 39/188/19 56/182/20 57/79/21 1/191/22
f 3/3/23 40/214/24 42/211/25 10/16/26 9/127/27
f 4/173/28 41/151/29 42/56/30
f 6/202/31 25/233/32 27/230/33 12/226/34 11/158/35
f 5/235/36 26/136/37 27/34/38
f 9/126/39 10/215/40 14/252/41 13/116/42
f 10/216/43 43/209/44 46/204/45 44/58/46 11/156/47 15/249/48 14/251/49
f 11/157/50 12/227/51 16/118/52 15/248/53
f 16/121/54 31/113/55 13/19/56
f 13/115/57 14/253/58 18/246/59 17/240/60
f 14/20/61 15/250/62 19/244/63 18/24/64
f 15/21/65 16/119/66 20/242/67 19/25/68
f 16/120/69 13/114/70 17/241/71 20/26/72
f 7/179/73 8/164/74 22/141/75 21/236/76
f 23/146/77 54/138/78 52/70/79 2/10/80
f 2/198/81 1/9/82 24/238/83 23/145/84
f 1/190/85 57/195/86 58/192/87 55/76/88 7/7/89 21/237/90 24/30/91
f 5/5/92 25/232/93 6/203/94 8/8/95 7/180/96
f 27/229/97 25/31/98 5/234/99
f 27/231/100 26/137/101 30/132/102 29/224/103 12/18/104
f 28/223/105 31/110/106 30/134/107
f 33/221/108 35/175/109 34/129/110
f 37/218/111 39/185/112 38/122/113
f 38/51/114 39/186/115 36/45/116
f 34/52/117 35/176/118 32/220/119
f 30/133/120 31/111/121 29/36/122
f 42/210/123 40/53/124 4/172/125
f 11/159/126 49/153/127 48/63/128 6/6/129
f 44/207/130 46/205/131 45/148/132
f 45/147/133 46/60/134 43/57/135
f 47/200/136 50/161/137 49/154/138
f 49/67/139 50/162/140 48/64/141
f 54/74/142 53/168/143 52/196/144
f 51/69/145 53/167/146 54/139/147
f 55/194/148 58/193/149 56/183/150
f 56/78/151 58/81/152 57/80/153
f 39/187/154 1/1/155 3/255/156 36/219/157
f 7/13/158 55/75/159 56/184/160 35/178/161
f 35/177/162 56/77/163 39/50/164 37/47/165 32/39/166
f 7/181/167 35/44/168 33/41/169 26/32/170 5/14/171
f 2/199/172 52/71/173 53/169/174 4/4/175
f 50/163/176 8/11/177 6/12/178 48/201/179
f 50/66/180 53/72/181 51/197/182 8/166/183
f 45/150/184 41/54/185 47/61/186 49/155/187
f 45/149/188 49/65/189 11/17/190 44/206/191
f 42/212/192 41/152/193 45/59/194 43/208/195 10/217/196
f 8/165/197 51/68/198 54/140/199 22/28/200
f 22/143/201 54/73/202 23/29/203
f 30/135/204 34/131/205 38/124/206 9/15/207 28/222/208
f 30/37/209 26/33/210 33/42/211 34/130/212
f 38/123/213 34/43/214 32/40/215 37/48/216
f 9/128/217 38/49/218 36/46/219 3/256/220
f 12/228/221 29/225/222 31/112/223 16/22/224
f 13/117/225 31/38/226 28/35/227 9/125/228
f 59/82/229 60/83/230 62/84/231 61/85/232
f 61/85/233 62/84/234 64/86/235 63/87/236
f 63/87/237 64/86/238 66/88/239 65/89/240
f 65/89/241 66/88/242 60/90/243 59/91/244
f 60/83/245 66/92/246 64/93/247 62/84/248
f 65/94/249 59/82/250 61/85/251 63/95/252
f 67/96/253 68/97/254 70/98/255 69/99/256
f 69/99/257 70/98/258 72/100/259 71/101/260
f 71/101/261 72/100/262 74/102/263 73/103/264
f 73/103/265 74/102/266 68/104/267 67/105/268
f 68/97/269 74/106/270 72/107/271 70/98/272
f 73/108/273 67/96/274 69/99/275 71/109/276
v 148.499146 24.231571 27.008774
v 148.499146 24.231571 -27.008774
v -148.499146 24.231571 27.008774
v -148.499146 24.231571 -27.008774
vt 0.320580 0.422121
vt 0.320580 0.422121
vt 0.320580 0.422121
vt 0.320580 0.422121
vn 0.000000 1.000000 0.000000
vn 0.000000 1.000000 0.000000
vn 0.000000 1.000000 0.000000
vn 0.000000 1.000000 0.000000
s off
f 75/257/277 76/258/278 78/260/279 77/259/280
