# This file uses centimeters as units for non-parametric coordinates.

v 8.660278 -33.810249 -4.999924
v 0.000000 -33.810249 -10.000000
v -8.660278 -33.810249 -5.000000
v -8.660278 -33.810249 5.000000
v 0.000000 -33.810249 10.000000
v 8.660355 -33.810249 5.000000
v 8.947449 129.507980 -5.600586
v 0.000000 131.559860 -10.000000
v -9.267120 129.909531 -4.760208
v -8.660278 131.559860 5.000000
v -0.710678 129.847855 10.000000
v 8.660355 131.559860 5.000000
v 0.000000 -33.810249 0.000000
v 0.000000 133.716553 0.000000
v 8.660355 8.585138 5.000000
v 0.000000 11.763620 10.000000
v -8.660278 12.015476 5.000000
v -8.660278 17.971252 -5.000000
v 0.000000 14.792770 -10.000000
v 8.660278 15.193958 -4.999924
v 8.660355 57.640038 5.000000
v -0.168457 57.640038 10.000000
v -8.660278 57.640038 5.000000
v -8.804092 57.640038 -4.943161
v 0.000000 57.640038 -10.000000
v 8.728409 57.640038 -5.142365
v 8.660355 35.339691 5.000000
v -0.069427 35.339691 10.000000
v -8.660278 35.339691 5.000000
v -8.719559 35.339691 -4.976578
v 0.000000 35.339691 -10.000000
v 8.688354 35.339691 -5.058670
v 8.660355 112.658913 5.000000
v -0.383759 112.658913 10.000000
v -8.660278 112.658913 5.000000
v -8.987961 112.658913 -4.870529
v 0.000000 112.658913 -10.000000
v 8.815384 112.658913 -5.324249
v 8.660355 93.405823 5.000000
v -0.311432 93.405823 10.000000
v -8.660278 93.405823 5.000000
v -8.926239 93.405823 -4.894867
v 0.000000 93.405823 -10.000000
v 8.786163 93.405823 -5.263214
v 6.375732 109.591141 6.286392
v -6.419373 109.591141 6.286392
v -6.654205 109.591141 -6.051025
v 6.486816 109.591141 -6.600952
v 6.375732 96.723587 6.286392
v -6.419373 96.723587 6.286392
v -6.623688 96.723587 -6.071320
v 6.472321 96.723587 -6.549988
v 6.375732 53.677658 6.286392
v -6.419373 53.677658 6.286392
v -6.514587 53.677658 -6.144333
v 6.420670 53.677658 -6.367264
v 6.375732 39.355301 6.286392
v -6.419373 39.355301 6.286392
v -6.471558 39.355301 -6.173096
v 6.400299 39.355301 -6.295242
vt 0.035973 0.231852
vt 0.035973 0.231852
vt 0.035973 0.231852
vt 0.035973 0.231852
vt 0.035973 0.231852
vt 0.035973 0.231852
vt 0.035973 0.231852
vt 0.035973 0.231852
vt 0.035973 0.231852
vt 0.035973 0.231852
vt 0.035973 0.231852
vt 0.035973 0.231852
vt 0.035973 0.231852
vt 0.036856 0.253795
vt 0.036856 0.253795
vt 0.036856 0.253795
vt 0.036856 0.253795
vt 0.036856 0.253795
vt 0.036856 0.253795
vt 0.036856 0.253795
vt 0.035973 0.277494
vt 0.035973 0.277494
vt 0.035973 0.277494
vt 0.035973 0.277494
vt 0.035973 0.277494
vt 0.035973 0.277494
vt 0.036856 0.253795
vt 0.035973 0.277494
vt 0.036856 0.253795
vt 0.036856 0.253795
vt 0.036856 0.253795
vt 0.036856 0.253795
vt 0.036856 0.253795
vt 0.036856 0.253795
vt 0.036856 0.253795
vt 0.036856 0.253795
vt 0.036856 0.253795
vt 0.036856 0.253795
vt 0.036856 0.253795
vt 0.036856 0.253795
vt 0.036856 0.253795
vt 0.036856 0.253795
vt 0.036856 0.253795
vt 0.036856 0.253795
vt 0.036856 0.253795
vt 0.036856 0.253795
vt 0.036856 0.253795
vt 0.036856 0.253795
vt 0.036856 0.253795
vt 0.036856 0.253795
vt 0.036856 0.253795
vt 0.036856 0.253795
vt 0.036856 0.253795
vt 0.036856 0.253795
vt 0.036856 0.253795
vt 0.036856 0.253795
vt 0.036856 0.253795
vt 0.036856 0.253795
vt 0.036856 0.253795
vt 0.036856 0.253795
vt 0.036856 0.253795
vt 0.036856 0.253795
vt 0.036856 0.253795
vt 0.036856 0.253795
vt 0.036856 0.253795
vt 0.036856 0.253795
vt 0.036856 0.253795
vt 0.036856 0.253795
vt 0.036856 0.253795
vt 0.036856 0.253795
vt 0.036856 0.253795
vt 0.036856 0.253795
vt 0.036856 0.253795
vt 0.036856 0.253795
vt 0.036856 0.253795
vt 0.036856 0.253795
vt 0.036856 0.253795
vt 0.036856 0.253795
vt 0.036856 0.253795
vt 0.036856 0.253795
vt 0.036856 0.253795
vt 0.036856 0.253795
vn 0.500005 0.000000 -0.866023
vn 0.500005 0.000000 -0.866023
vn 0.500005 0.000000 -0.866023
vn 0.500005 0.000000 -0.866023
vn -0.499999 0.000000 -0.866026
vn -0.499999 0.000000 -0.866026
vn -0.499999 0.000000 -0.866026
vn -0.499999 0.000000 -0.866026
vn -1.000000 0.000000 0.000000
vn -1.000000 0.000000 0.000000
vn -1.000000 0.000000 0.000000
vn -1.000000 0.000000 0.000000
vn -0.499999 0.000000 0.866026
vn -0.499999 0.000000 0.866026
vn -0.499999 0.000000 0.866026
vn -0.499999 0.000000 0.866026
vn 0.499996 0.000000 0.866028
vn 0.499996 0.000000 0.866028
vn 0.499996 0.000000 0.866028
vn 0.499996 0.000000 0.866028
vn 1.000000 0.000000 -0.000008
vn 1.000000 0.000000 -0.000008
vn 1.000000 0.000000 -0.000008
vn 1.000000 0.000000 -0.000008
vn 0.000000 -1.000000 0.000000
vn 0.000000 -1.000000 0.000000
vn 0.000000 -1.000000 0.000000
vn 0.000000 -1.000000 0.000000
vn 0.000000 -1.000000 0.000000
vn 0.000000 -1.000000 0.000000
vn 0.000000 -1.000000 0.000000
vn 0.000000 -1.000000 0.000000
vn 0.000000 -1.000000 0.000000
vn 0.000000 -1.000000 0.000000
vn 0.000000 -1.000000 0.000000
vn 0.000000 -1.000000 0.000000
vn 0.000000 -1.000000 0.000000
vn 0.000000 -1.000000 0.000000
vn 0.000000 -1.000000 0.000000
vn 0.000000 -1.000000 0.000001
vn 0.000000 -1.000000 0.000001
vn 0.000000 -1.000000 0.000001
vn 0.311519 0.928882 -0.200334
vn 0.311518 0.928882 -0.200334
vn 0.311519 0.928883 -0.200334
vn -0.281430 0.938015 -0.202301
vn -0.281430 0.938015 -0.202301
vn -0.281430 0.938015 -0.202301
vn -0.314253 0.939071 -0.139248
vn -0.314253 0.939071 -0.139248
vn -0.314253 0.939071 -0.139248
vn -0.024977 0.932945 0.359152
vn -0.024977 0.932945 0.359152
vn -0.024977 0.932945 0.359152
vn 0.022981 0.931842 0.362137
vn 0.022981 0.931842 0.362137
vn 0.022981 0.931842 0.362137
vn 0.329818 0.928468 -0.170783
vn 0.329818 0.928468 -0.170783
vn 0.329818 0.928468 -0.170783
vn 0.498591 0.000688 0.866837
vn 0.498591 0.000688 0.866837
vn 0.498591 0.000688 0.866837
vn 0.498591 0.000688 0.866837
vn -0.501514 -0.000742 0.865149
vn -0.501514 -0.000742 0.865149
vn -0.501514 -0.000742 0.865149
vn -0.501514 -0.000742 0.865149
vn -0.999996 -0.001458 0.002533
vn -0.999996 -0.001458 0.002533
vn -0.999996 -0.001458 0.002533
vn -0.999996 -0.001458 0.002533
vn -0.499629 -0.000246 -0.866240
vn -0.499629 -0.000246 -0.866240
vn -0.499629 -0.000246 -0.866240
vn -0.499629 -0.000246 -0.866240
vn 0.497218 -0.001596 -0.867624
vn 0.497218 -0.001596 -0.867624
vn 0.497218 -0.001596 -0.867624
vn 0.497218 -0.001596 -0.867624
vn 0.999999 -0.000597 0.001195
vn 0.999999 -0.000597 0.001195
vn 0.999999 -0.000597 0.001195
vn 0.999999 -0.000597 0.001195
vn 0.489783 0.000979 0.871844
vn 0.489783 0.000979 0.871844
vn 0.489783 0.000979 0.871844
vn 0.489783 0.000979 0.871844
vn -0.510571 -0.001021 0.859835
vn -0.510571 -0.001021 0.859835
vn -0.510571 -0.001021 0.859835
vn -0.510571 -0.001021 0.859835
vn -0.999785 -0.001721 0.020652
vn -0.999785 -0.001721 0.020652
vn -0.999785 -0.001721 0.020652
vn -0.999785 -0.001721 0.020652
vn -0.497258 -0.000263 -0.867603
vn -0.497258 -0.000263 -0.867603
vn -0.497258 -0.000263 -0.867603
vn -0.497258 -0.000263 -0.867603
vn 0.480433 -0.001870 -0.877029
vn 0.480433 -0.001870 -0.877029
vn 0.480433 -0.001870 -0.877029
vn 0.480433 -0.001870 -0.877029
vn 0.999955 -0.000791 0.009500
vn 0.999955 -0.000791 0.009500
vn 0.999955 -0.000791 0.009500
vn 0.999955 -0.000791 0.009500
vn 0.496999 0.004782 0.867738
vn 0.496999 0.004782 0.867738
vn 0.496999 0.004782 0.867738
vn -0.503017 0.003841 0.864268
vn -0.503017 0.003841 0.864268
vn -0.503017 0.003841 0.864268
vn -0.872916 0.487852 0.004337
vn -0.872916 0.487852 0.004337
vn -0.872916 0.487852 0.004337
vn -0.872916 0.487852 0.004337
vn -0.499081 0.021266 -0.866295
vn -0.499081 0.021266 -0.866295
vn -0.499081 0.021266 -0.866295
vn 0.494321 0.014007 -0.869166
vn 0.494321 0.014007 -0.869166
vn 0.494321 0.014007 -0.869166
vn 0.869019 0.494775 0.002018
vn 0.869019 0.494775 0.002018
vn 0.869019 0.494775 0.002018
vn 0.869019 0.494775 0.002018
vn 0.476896 0.004320 0.878949
vn 0.476896 0.004320 0.878949
vn 0.476896 0.004320 0.878949
vn 0.476896 0.004320 0.878949
vn -0.525014 -0.004756 0.851080
vn -0.525014 -0.004756 0.851080
vn -0.525014 -0.004756 0.851080
vn -0.525014 -0.004756 0.851080
vn -0.998806 -0.007860 0.048209
vn -0.998806 -0.007860 0.048209
vn -0.998806 -0.007860 0.048209
vn -0.998806 -0.007860 0.048209
vn -0.493824 -0.001160 -0.869561
vn -0.493824 -0.001160 -0.869561
vn -0.493824 -0.001160 -0.869561
vn -0.493824 -0.001160 -0.869561
vn 0.454166 -0.008564 -0.890876
vn 0.454166 -0.008564 -0.890876
vn 0.454166 -0.008564 -0.890876
vn 0.454166 -0.008564 -0.890876
vn 0.999763 -0.003527 0.021470
vn 0.999763 -0.003527 0.021470
vn 0.999763 -0.003527 0.021470
vn 0.999763 -0.003527 0.021470
vn 0.486805 -0.003466 0.873504
vn 0.486805 -0.003466 0.873504
vn 0.486805 -0.003466 0.873504
vn -0.513738 0.014389 0.857826
vn -0.513738 0.014389 0.857826
vn -0.513738 0.014389 0.857826
vn -0.825122 0.564686 0.017438
vn -0.825122 0.564686 0.017438
vn -0.825122 0.564686 0.017438
vn -0.825122 0.564686 0.017438
vn -0.496129 0.036718 -0.867472
vn -0.496129 0.036718 -0.867472
vn -0.496129 0.036718 -0.867472
vn 0.474523 -0.010436 -0.880181
vn 0.474523 -0.010436 -0.880181
vn 0.474523 -0.010436 -0.880181
vn 0.821897 0.569581 0.007913
vn 0.821897 0.569581 0.007913
vn 0.821897 0.569581 0.007913
vn 0.821897 0.569581 0.007913
vn 0.483819 0.006661 0.875142
vn 0.483819 0.006661 0.875143
vn 0.483819 0.006661 0.875143
vn -0.516995 -0.018796 0.855782
vn -0.516995 -0.018796 0.855782
vn -0.516995 -0.018796 0.855782
vn -0.801693 -0.597392 0.020306
vn -0.801693 -0.597392 0.020306
vn -0.801693 -0.597392 0.020306
vn -0.801693 -0.597392 0.020306
vn -0.495212 -0.042820 -0.867716
vn -0.495212 -0.042820 -0.867716
vn -0.495212 -0.042820 -0.867716
vn 0.468542 0.011982 -0.883360
vn 0.468542 0.011982 -0.883360
vn 0.468542 0.011982 -0.883360
vn 0.799252 -0.600926 0.009162
vn 0.799252 -0.600927 0.009162
vn 0.799252 -0.600927 0.009162
vn 0.799252 -0.600927 0.009162
vn 0.483479 0.001089 0.875355
vn 0.483479 0.001089 0.875355
vn 0.483479 0.001089 0.875355
vn 0.483479 0.001089 0.875355
vn -0.521782 -0.001175 0.853078
vn -0.521782 -0.001175 0.853078
vn -0.521782 -0.001175 0.853078
vn -0.521782 -0.001175 0.853078
vn -0.999841 -0.001200 0.017780
vn -0.999841 -0.001200 0.017780
vn -0.999841 -0.001200 0.017780
vn -0.999841 -0.001200 0.017780
vn -0.510246 0.000059 -0.860029
vn -0.510246 0.000059 -0.860029
vn -0.510246 0.000059 -0.860029
vn -0.510246 0.000059 -0.860029
vn 0.467290 -0.001614 -0.884103
vn 0.467290 -0.001614 -0.884103
vn 0.467290 -0.001614 -0.884103
vn 0.467290 -0.001614 -0.884103
vn 0.999967 -0.000547 0.008073
vn 0.999967 -0.000547 0.008073
vn 0.999967 -0.000547 0.008073
vn 0.999967 -0.000547 0.008073
vn 0.492789 -0.001637 0.870148
vn 0.492789 -0.001637 0.870148
vn 0.492789 -0.001637 0.870147
vn -0.507370 -0.007189 0.861698
vn -0.507370 -0.007189 0.861699
vn -0.507370 -0.007189 0.861698
vn -0.868155 -0.496206 0.009275
vn -0.868156 -0.496206 0.009275
vn -0.868155 -0.496206 0.009275
vn -0.868155 -0.496206 0.009275
vn -0.497908 -0.024910 -0.866872
vn -0.497908 -0.024910 -0.866872
vn -0.497908 -0.024910 -0.866872
vn 0.486253 -0.013105 -0.873720
vn 0.486253 -0.013105 -0.873720
vn 0.486253 -0.013105 -0.873720
vn 0.865227 -0.501362 0.004289
vn 0.865227 -0.501362 0.004289
vn 0.865227 -0.501362 0.004289
vn 0.865227 -0.501362 0.004289
vn 0.496373 0.001342 0.868109
vn 0.496373 0.001342 0.868109
vn 0.496373 0.001342 0.868109
vn 0.496373 0.001342 0.868109
vn -0.507783 -0.001373 0.861484
vn -0.507783 -0.001373 0.861484
vn -0.507783 -0.001373 0.861484
vn -0.507783 -0.001373 0.861484
vn -0.999981 -0.001508 0.005922
vn -0.999981 -0.001508 0.005922
vn -0.999981 -0.001508 0.005922
vn -0.999981 -0.001508 0.005922
vn -0.509168 0.000078 -0.860667
vn -0.509168 0.000078 -0.860667
vn -0.509168 0.000078 -0.860667
vn -0.509168 0.000078 -0.860667
vn 0.496717 -0.001983 -0.867910
vn 0.496717 -0.001983 -0.867910
vn 0.496717 -0.001983 -0.867910
vn 0.496717 -0.001983 -0.867910
vn 0.999996 -0.000704 0.002754
vn 0.999996 -0.000704 0.002754
vn 0.999996 -0.000704 0.002754
vn 0.999996 -0.000704 0.002754
s off
f 1/1/1 2/2/2 19/3/3 20/4/4
f 2/2/5 3/5/6 18/6/7 19/3/8
f 3/5/9 4/7/10 17/8/11 18/6/12
f 4/7/13 5/9/14 16/10/15 17/8/16
f 5/9/17 6/11/18 15/12/19 16/10/20
f 6/11/21 1/1/22 20/4/23 15/12/24
f 2/2/25 1/1/26 13/13/27
f 3/5/28 2/2/29 13/13/30
f 4/7/31 3/5/32 13/13/33
f 5/9/34 4/7/35 13/13/36
f 6/11/37 5/9/38 13/13/39
f 1/1/40 6/11/41 13/13/42
f 7/21/43 8/22/44 14/23/45
f 8/22/46 9/24/47 14/23/48
f 9/24/49 10/25/50 14/23/51
f 10/25/52 11/26/53 14/23/54
f 11/26/55 12/28/56 14/23/57
f 12/28/58 7/21/59 14/23/60
f 16/30/61 15/29/62 27/42/63 28/43/64
f 17/31/65 16/30/66 28/43/67 29/44/68
f 18/32/69 17/31/70 29/44/71 30/45/72
f 19/33/73 18/32/74 30/45/75 31/46/76
f 20/27/77 19/33/78 31/46/79 32/48/80
f 15/29/81 20/34/82 32/47/83 27/42/84
f 22/36/85 21/35/86 39/56/87 40/57/88
f 23/37/89 22/36/90 40/57/91 41/58/92
f 24/38/93 23/37/94 41/58/95 42/59/96
f 25/39/97 24/38/98 42/59/99 43/60/100
f 26/41/101 25/39/102 43/60/103 44/62/104
f 21/35/105 26/40/106 44/61/107 39/56/108
f 28/43/109 27/42/110 57/78/111
f 29/44/112 28/43/113 58/79/114
f 30/45/115 29/44/116 58/79/117 59/80/118
f 31/46/119 30/45/120 59/80/121
f 32/48/122 31/46/123 60/82/124
f 27/42/125 32/47/126 60/81/127 57/78/128
f 34/50/129 33/49/130 12/19/131 11/18/132
f 35/51/133 34/50/134 11/18/135 10/17/136
f 36/52/137 35/51/138 10/17/139 9/16/140
f 37/53/141 36/52/142 9/16/143 8/15/144
f 38/55/145 37/53/146 8/15/147 7/14/148
f 33/49/149 38/54/150 7/20/151 12/19/152
f 40/57/153 39/56/154 49/68/155
f 41/58/156 40/57/157 50/69/158
f 42/59/159 41/58/160 50/69/161 51/70/162
f 43/60/163 42/59/164 51/70/165
f 44/62/166 43/60/167 52/72/168
f 39/56/169 44/61/170 52/71/171 49/68/172
f 34/50/173 45/63/174 33/49/175
f 46/64/176 34/50/177 35/51/178
f 47/65/179 46/64/180 35/51/181 36/52/182
f 37/53/183 47/65/184 36/52/185
f 48/67/186 37/53/187 38/55/188
f 45/63/189 48/66/190 38/54/191 33/49/192
f 40/57/193 49/68/194 45/63/195 34/50/196
f 50/69/197 40/57/198 34/50/199 46/64/200
f 51/70/201 50/69/202 46/64/203 47/65/204
f 43/60/205 51/70/206 47/65/207 37/53/208
f 52/72/209 43/60/210 37/53/211 48/67/212
f 49/68/213 52/71/214 48/66/215 45/63/216
f 22/36/217 53/73/218 21/35/219
f 54/74/220 22/36/221 23/37/222
f 55/75/223 54/74/224 23/37/225 24/38/226
f 25/39/227 55/75/228 24/38/229
f 56/77/230 25/39/231 26/41/232
f 53/73/233 56/76/234 26/40/235 21/35/236
f 28/43/237 57/78/238 53/73/239 22/36/240
f 58/79/241 28/43/242 22/36/243 54/74/244
f 59/80/245 58/79/246 54/74/247 55/75/248
f 31/46/249 59/80/250 55/75/251 25/39/252
f 60/82/253 31/46/254 25/39/255 56/77/256
f 57/78/257 60/81/258 56/76/259 53/73/260
