# This file uses centimeters as units for non-parametric coordinates.

v -0.157104 -2.892337 -0.287048
v 1.909973 -2.136603 0.839783
v 2.303894 -2.892337 -1.087219
v 0.236938 -2.136601 -1.608276
v 1.632874 5.457133 0.720886
v -0.315735 5.390552 -2.218872
v 2.514893 7.282561 -1.501831
v -1.263245 4.053485 0.251343
v 1.124939 1.742507 0.889404
v 0.225830 4.597331 -0.778198
v 0.761536 7.787234 -0.856567
v -1.585022 10.132215 -0.622559
v -0.059326 9.130077 -0.266296
v -0.564331 9.928463 -1.387146
v 4.239624 11.085768 -1.313721
v 2.989075 11.112028 -0.696472
v 3.564026 10.264902 -0.047424
v 2.413696 9.539507 -3.023621
v 1.146973 9.214327 -4.043884
v 1.437134 10.483923 -2.898315
v 4.188416 12.088532 -15.813232
v -15.631226 11.517038 -4.370361
v 15.631226 10.385389 4.006409
v -2.961121 9.164492 15.813293
v 0.000000 9.187197 -0.181946
v 2.425720 15.047976 -9.234863
v -9.052856 14.476487 -2.607666
v -2.425720 13.439911 8.870850
v 9.052856 14.011406 2.243713
vt 0.143746 0.300288
vt 0.143746 0.300288
vt 0.143746 0.300288
vt 0.143746 0.300288
vt 0.143746 0.300289
vt 0.143746 0.300289
vt 0.143746 0.300289
vt 0.143746 0.300289
vt 0.143746 0.300289
vt 0.143746 0.300289
vt 0.143746 0.300289
vt 0.143746 0.300289
vt 0.143746 0.300289
vt 0.143746 0.300289
vt 0.143746 0.300289
vt 0.143746 0.300289
vt 0.143746 0.300289
vt 0.143746 0.300289
vt 0.143746 0.300289
vt 0.143746 0.300289
vt 0.233258 0.179658
vt 0.233258 0.318728
vt 0.163723 0.249193
vt 0.094188 0.318728
vt 0.094188 0.179658
vt 0.302794 0.110122
vt 0.024652 0.110122
vt 0.302794 0.388264
vt 0.024652 0.388264
vn -0.931811 0.021815 0.362289
vn -0.931811 0.021815 0.362289
vn -0.931811 0.021815 0.362289
vn -0.931811 0.021815 0.362289
vn 0.954856 0.012464 0.296808
vn 0.954856 0.012464 0.296808
vn 0.954856 0.012464 0.296808
vn 0.954856 0.012464 0.296808
vn 0.255868 -0.050970 -0.965367
vn 0.255868 -0.050970 -0.965367
vn 0.255868 -0.050970 -0.965367
vn 0.255868 -0.050970 -0.965367
vn -0.401420 -0.119457 0.908070
vn -0.401420 -0.119457 0.908070
vn -0.401420 -0.119457 0.908070
vn -0.401420 -0.119457 0.908070
vn -0.780156 -0.001136 -0.625584
vn -0.780156 -0.001136 -0.625583
vn -0.780156 -0.001136 -0.625584
vn -0.780156 -0.001136 -0.625584
vn 0.963366 0.197285 -0.181672
vn 0.963366 0.197285 -0.181672
vn 0.963366 0.197285 -0.181672
vn -0.737344 0.030028 0.674850
vn -0.737344 0.030028 0.674850
vn -0.737344 0.030028 0.674850
vn -0.737344 0.030028 0.674850
vn -0.137128 0.132613 0.981636
vn -0.137128 0.132613 0.981636
vn -0.137128 0.132613 0.981636
vn -0.137128 0.132613 0.981636
vn 0.934349 0.097490 -0.342764
vn 0.934349 0.097490 -0.342764
vn 0.934349 0.097490 -0.342764
vn 0.934349 0.097490 -0.342764
vn -0.559575 -0.160211 -0.813147
vn -0.559575 -0.160211 -0.813147
vn -0.559575 -0.160211 -0.813147
vn -0.559575 -0.160211 -0.813147
vn -0.341329 0.233732 -0.910420
vn -0.341329 0.233732 -0.910420
vn -0.341329 0.233732 -0.910420
vn -0.341329 0.233732 -0.910420
vn -0.514540 0.322535 0.794493
vn -0.514540 0.322535 0.794493
vn -0.514540 0.322535 0.794493
vn -0.514540 0.322535 0.794493
vn 0.916690 -0.381092 0.120198
vn 0.916690 -0.381092 0.120198
vn 0.916690 -0.381092 0.120198
vn 0.916690 -0.381092 0.120198
vn 0.552027 -0.493518 -0.672091
vn 0.552027 -0.493518 -0.672091
vn 0.552027 -0.493518 -0.672091
vn 0.552027 -0.493518 -0.672091
vn -0.943673 0.329202 0.033280
vn -0.943673 0.329202 0.033280
vn -0.943673 0.329202 0.033280
vn -0.943673 0.329202 0.033280
vn 0.465046 0.480816 0.743336
vn 0.465046 0.480816 0.743336
vn 0.465046 0.480816 0.743336
vn 0.465046 0.480816 0.743336
vn 0.436102 0.545870 -0.715430
vn 0.436102 0.545870 -0.715430
vn 0.436103 0.545870 -0.715430
vn 0.445072 0.811902 0.377791
vn 0.445072 0.811902 0.377791
vn 0.445072 0.811902 0.377791
vn 0.326013 0.704371 0.630537
vn 0.326013 0.704371 0.630537
vn 0.326013 0.704371 0.630537
vn 0.536640 0.809936 -0.236688
vn 0.536640 0.809936 -0.236688
vn 0.536640 0.809936 -0.236688
vn -0.313127 0.824546 -0.471249
vn -0.313127 0.824546 -0.471249
vn -0.313127 0.824546 -0.471249
vn -0.512135 0.777090 0.365855
vn -0.512135 0.777090 0.365855
vn -0.512135 0.777089 0.365855
vn 0.293141 0.764822 0.573686
vn 0.293141 0.764822 0.573686
vn 0.293141 0.764822 0.573686
vn -0.285020 0.851670 -0.439798
vn -0.285020 0.851670 -0.439797
vn -0.285020 0.851670 -0.439798
vn -0.285020 0.851670 -0.439798
vn -0.502340 0.772312 0.388831
vn -0.502340 0.772312 0.388831
vn -0.502340 0.772312 0.388831
vn -0.502340 0.772312 0.388831
vn 0.278613 0.799444 0.532226
vn 0.278613 0.799444 0.532226
vn 0.278613 0.799444 0.532226
vn 0.278613 0.799444 0.532226
vn 0.519080 0.823874 -0.227571
vn 0.519080 0.823873 -0.227571
vn 0.519080 0.823874 -0.227571
vn 0.519080 0.823874 -0.227571
s off
f 4/4/1 10/5/2 11/6/3 6/7/4
f 2/1/5 3/3/6 7/8/7 5/9/8
f 3/3/9 4/4/10 6/7/11 7/8/12
f 1/2/13 2/1/14 9/10/15 8/11/16
f 4/4/17 1/2/18 8/11/19 10/5/20
f 2/1/21 10/5/22 9/10/23
f 11/6/24 10/5/25 2/1/26 5/9/27
f 8/11/28 9/10/29 13/12/30 12/13/31
f 9/10/32 10/5/33 14/14/34 13/12/35
f 10/5/36 8/11/37 12/13/38 14/14/39
f 7/8/40 11/6/41 16/15/42 15/16/43
f 11/6/44 5/9/45 17/17/46 16/15/47
f 5/9/48 7/8/49 15/16/50 17/17/51
f 7/8/52 6/7/53 19/18/54 18/19/55
f 6/7/56 11/6/57 20/20/58 19/18/59
f 11/6/60 7/8/61 18/19/62 20/20/63
f 19/18/64 20/20/65 18/19/66
f 13/12/67 14/14/68 12/13/69
f 15/16/70 16/15/71 17/17/72
f 27/21/73 28/22/74 25/23/75
f 28/22/76 29/24/77 25/23/78
f 29/24/79 26/25/80 25/23/81
f 26/25/82 27/21/83 25/23/84
f 22/26/85 27/21/86 26/25/87 21/27/88
f 22/26/89 24/28/90 28/22/91 27/21/92
f 23/29/93 29/24/94 28/22/95 24/28/96
f 21/27/97 26/25/98 29/24/99 23/29/100
