# This file uses centimeters as units for non-parametric coordinates.

v 167.079590 3.876778 53.260925
v -131.117432 3.876778 53.260925
v 162.839355 142.102753 8.964600
v -127.245117 143.759735 9.636475
v 165.667236 142.974854 5.073303
v -125.836426 142.094666 6.041992
v 167.079590 2.510271 48.879211
v -131.117432 2.510271 48.879211
v 74.653564 141.654358 11.402161
v 167.079590 56.204933 36.941650
v 130.989502 116.026886 21.723022
v -48.063232 142.286102 5.288147
v -127.608643 77.740562 25.417603
v -97.007080 119.941315 9.022766
v -167.079590 0.000000 4.589844
v 131.117432 0.000000 4.589844
v -162.839355 157.212891 3.455139
v 127.245117 158.709595 4.589844
v -165.667236 159.369507 0.000000
v 126.072754 156.868835 2.005920
v -167.079590 0.000000 0.000000
v 131.117432 0.000000 0.000000
v -76.534180 163.916962 4.589844
v -167.079590 59.370918 4.589844
v -130.989502 126.135643 7.871643
v 48.063232 158.588043 0.000000
v 127.608643 85.355415 0.000000
v 97.007080 134.278748 -3.087280
vt 0.251324 0.383303
vt 0.251324 0.383303
vt 0.251324 0.383303
vt 0.251324 0.383303
vt 0.251324 0.383303
vt 0.251324 0.383303
vt 0.251324 0.383303
vt 0.251324 0.383303
vt 0.251324 0.383303
vt 0.251324 0.383303
vt 0.251324 0.383303
vt 0.251324 0.383303
vt 0.251324 0.383303
vt 0.251324 0.383303
vt 0.251324 0.383303
vt 0.251324 0.383303
vt 0.251324 0.383303
vt 0.251324 0.383303
vt 0.251324 0.383303
vt 0.251324 0.383303
vt 0.251324 0.383303
vt 0.251324 0.383303
vt 0.251324 0.383303
vt 0.251324 0.383303
vt 0.251324 0.383303
vt 0.251324 0.383303
vt 0.251324 0.383303
vt 0.251324 0.383303
vt 0.251324 0.383303
vt 0.251324 0.383303
vt 0.251324 0.383303
vt 0.251324 0.383303
vt 0.251324 0.383303
vt 0.251324 0.383303
vt 0.251324 0.383303
vt 0.251324 0.383303
vt 0.251324 0.383303
vt 0.251324 0.383303
vt 0.251324 0.383303
vt 0.251324 0.383303
vt 0.251324 0.383303
vt 0.251324 0.383303
vn -0.011628 0.306533 0.951789
vn -0.011628 0.306533 0.951789
vn -0.011628 0.306533 0.951789
vn -0.011628 0.306533 0.951789
vn -0.002179 0.984722 0.174120
vn -0.002179 0.984722 0.174120
vn -0.002179 0.984722 0.174120
vn -0.002179 0.984722 0.174120
vn 0.010403 -0.283078 -0.959040
vn 0.010403 -0.283078 -0.959041
vn 0.010403 -0.283078 -0.959040
vn 0.010403 -0.283078 -0.959040
vn 0.000000 -0.954652 0.297723
vn 0.000000 -0.954652 0.297723
vn 0.000000 -0.954652 0.297723
vn 0.000000 -0.954652 0.297723
vn -0.999010 0.042464 -0.013243
vn -0.999010 0.042464 -0.013243
vn -0.999010 0.042464 -0.013243
vn 1.000000 0.000001 0.000000
vn 1.000000 0.000001 0.000000
vn 1.000000 0.000001 0.000000
vn 0.121262 0.312811 0.942043
vn 0.121262 0.312811 0.942043
vn 0.121262 0.312811 0.942043
vn 0.023003 0.416569 0.908813
vn 0.023003 0.416569 0.908813
vn 0.023003 0.416569 0.908813
vn -0.119248 -0.283225 -0.951611
vn -0.119248 -0.283225 -0.951611
vn -0.119248 -0.283225 -0.951611
vn -0.009233 -0.145136 -0.989369
vn -0.009233 -0.145136 -0.989369
vn -0.009233 -0.145136 -0.989369
vn 0.007422 0.980358 -0.197086
vn 0.007422 0.980358 -0.197086
vn 0.007422 0.980358 -0.197086
vn 0.007422 0.980358 -0.197086
vn 0.000000 -0.297722 -0.954653
vn 0.000000 -0.297722 -0.954653
vn 0.000000 -0.297722 -0.954653
vn 0.000000 0.297722 0.954653
vn 0.000000 0.297722 0.954653
vn 0.000000 0.297722 0.954653
vn 0.982265 0.078522 0.170263
vn 0.982265 0.078522 0.170263
vn 0.982265 0.078522 0.170263
vn 0.982265 0.078522 0.170263
vn -0.950612 -0.067199 -0.303021
vn -0.950612 -0.067199 -0.303021
vn -0.950612 -0.067199 -0.303021
vn -0.950612 -0.067199 -0.303021
vn -0.015447 -0.352333 -0.935747
vn -0.015447 -0.352333 -0.935747
vn -0.015447 -0.352333 -0.935747
vn 0.008825 0.251533 0.967808
vn 0.008825 0.251533 0.967808
vn 0.008825 0.251533 0.967808
vn 0.010956 0.013879 0.999844
vn 0.010956 0.013879 0.999844
vn 0.010956 0.013879 0.999844
vn 0.010956 0.013879 0.999844
vn -0.014433 0.836222 -0.548202
vn -0.014433 0.836222 -0.548202
vn -0.014433 0.836222 -0.548202
vn -0.014433 0.836222 -0.548202
vn -0.010403 0.014113 -0.999846
vn -0.010403 0.014113 -0.999846
vn -0.010403 0.014113 -0.999846
vn -0.010403 0.014113 -0.999846
vn 0.000000 -1.000000 0.000000
vn 0.000000 -1.000000 0.000000
vn 0.000000 -1.000000 0.000000
vn 0.000000 -1.000000 0.000000
vn 0.999156 0.041073 0.000000
vn 0.999156 0.041073 0.000000
vn 0.999156 0.041073 0.000000
vn -1.000000 0.000000 0.000000
vn -1.000000 0.000000 0.000000
vn -1.000000 0.000000 0.000000
vn -0.121265 0.016765 0.992479
vn -0.121265 0.016765 0.992479
vn -0.121265 0.016765 0.992479
vn -0.022240 0.118287 0.992730
vn -0.022240 0.118287 0.992730
vn -0.022240 0.118287 0.992730
vn 0.149150 0.030926 -0.988331
vn 0.149150 0.030926 -0.988331
vn 0.149150 0.030926 -0.988331
vn 0.029315 0.183803 -0.982526
vn 0.029315 0.183803 -0.982526
vn 0.029315 0.183803 -0.982526
vn 0.025110 0.889252 -0.456728
vn 0.025110 0.889252 -0.456728
vn 0.025110 0.889252 -0.456728
vn 0.025110 0.889252 -0.456728
vn 0.000000 0.000000 -1.000000
vn 0.000000 0.000000 -1.000000
vn 0.000000 0.000000 -1.000000
vn 0.000000 0.000000 1.000000
vn 0.000000 0.000000 1.000000
vn 0.000000 0.000000 1.000000
vn -0.982308 0.022408 0.185930
vn -0.982308 0.022408 0.185930
vn -0.982308 0.022408 0.185930
vn -0.982308 0.022408 0.185930
vn 0.945273 0.025040 -0.325318
vn 0.945273 0.025040 -0.325318
vn 0.945273 0.025040 -0.325318
vn 0.945273 0.025040 -0.325318
vn 0.015451 -0.053343 -0.998457
vn 0.015451 -0.053343 -0.998457
vn 0.015451 -0.053343 -0.998457
vn -0.008827 -0.044333 0.998978
vn -0.008827 -0.044333 0.998978
vn -0.008827 -0.044333 0.998978
s off
f 11/17/1 9/15/2 4/4/3 2/2/4
f 3/3/5 5/5/6 12/18/7 9/15/8
f 5/5/9 7/7/10 14/21/11 12/18/12
f 7/7/13 1/9/14 2/10/15 8/8/16
f 2/2/17 13/20/18 8/11/19
f 7/13/20 10/16/21 1/1/22
f 10/16/23 3/3/24 11/17/25
f 3/3/26 9/15/27 11/17/28
f 13/19/29 6/6/30 14/21/31
f 6/6/32 12/18/33 14/21/34
f 12/18/35 6/6/36 4/4/37 9/15/38
f 7/7/39 8/8/40 13/19/41
f 1/1/42 10/16/43 2/2/44
f 7/13/45 5/14/46 3/3/47 10/16/48
f 2/2/49 4/4/50 6/12/51 13/20/52
f 7/7/53 13/19/54 14/21/55
f 10/16/56 11/17/57 2/2/58
f 25/22/59 16/23/60 18/24/61 23/25/62
f 17/26/63 23/25/64 26/27/65 19/28/66
f 19/28/67 26/27/68 28/29/69 21/30/70
f 21/30/71 22/31/72 16/32/73 15/33/74
f 16/23/75 22/34/76 27/35/77
f 21/36/78 15/37/79 24/38/80
f 24/38/81 25/22/82 17/26/83
f 17/26/84 25/22/85 23/25/86
f 27/39/87 28/29/88 20/40/89
f 20/40/90 28/29/91 26/27/92
f 26/27/93 23/25/94 18/24/95 20/40/96
f 21/30/97 27/39/98 22/31/99
f 15/37/100 16/23/101 24/38/102
f 21/36/103 24/38/104 17/26/105 19/41/106
f 16/23/107 27/35/108 20/42/109 18/24/110
f 21/30/111 28/29/112 27/39/113
f 24/38/114 16/23/115 25/22/116
