# This file uses centimeters as units for non-parametric coordinates.

v -8.302597 10.468734 -31.021423
v -7.740326 7.668073 -36.390381
v -6.724899 12.542462 -28.018616
v -5.522720 6.555078 -39.496643
v -4.987106 4.384982 -34.389526
v -5.549301 7.185604 -29.020325
v -4.844330 10.299808 -26.651672
v -2.789902 14.349340 -26.651184
v -1.277756 6.818877 -41.087341
v -3.642090 4.312451 -38.130005
v -7.548340 14.639735 -33.118042
v -6.985901 11.839043 -38.487061
v -6.209717 15.391610 -29.450745
v -5.007462 9.404188 -40.928894
v -0.901733 6.713587 -28.287415
v -0.339279 3.912928 -33.656372
v -1.669464 9.977371 -26.151062
v -0.467224 3.989997 -37.629272
v 3.480621 6.528519 -34.620605
v 2.918289 9.329149 -29.251526
v 0.939804 11.764030 -26.809692
v 2.142044 5.776649 -38.287842
v 3.672592 13.500130 -31.348389
v 4.234924 10.699534 -36.717346
v 1.455231 14.613173 -28.241943
v 2.657181 8.625774 -39.720093
v 1.481644 13.982578 -38.718262
v 0.919495 16.783222 -33.349243
v -0.425507 16.855789 -29.608826
v 0.776611 10.868427 -41.087036
v -3.728439 17.255266 -34.082275
v -3.166168 14.454600 -39.451233
v -3.600327 17.178265 -30.109558
v -2.398254 11.190847 -41.587646
v -5.099213 15.256889 -29.949951
v -1.049072 16.185009 -30.031311
v -4.713760 12.682472 -28.963867
v -2.146423 11.692757 -28.423462
v -4.661469 13.278351 -24.222473
v -2.077728 12.271885 -23.926147
v -4.075470 16.028934 -24.574585
v -1.200394 16.975449 -24.485107
v 0.067963 14.063290 -23.895691
v 0.035797 13.444912 -28.938049
v -5.108109 16.846680 -26.574951
v -5.955597 12.820820 -26.061584
v -2.108963 11.305290 -25.666077
v 1.087448 13.945526 -25.682678
v -0.818832 18.181480 -26.624390
v -4.116440 13.428978 -20.756165
v -3.398590 16.147476 -20.399231
v -0.550003 17.029926 -20.925354
v -1.672180 12.396099 -21.613281
v 0.548019 14.092293 -21.700806
v -3.112457 10.596931 -17.480530
v -1.455246 11.276669 -15.283936
v 1.536407 11.525356 -15.680298
v -1.190643 10.416294 -19.492981
v 1.500885 10.749233 -18.816040
v -1.370239 4.910845 -17.604614
v 0.902100 5.506605 -16.018616
v 3.620651 5.764479 -17.326904
v -0.180771 4.800898 -20.124329
v 2.591507 5.104086 -20.316956
v -1.605743 0.830460 -14.067627
v 0.000000 0.000000 0.000000
v 0.711090 2.182220 -13.152283
v 3.419449 1.468714 -14.303772
v -0.457565 -0.855444 -15.969055
v 2.321686 -0.849049 -16.268311
vt 0.158043 0.299367
vt 0.158043 0.299368
vt 0.158043 0.299367
vt 0.158043 0.299367
vt 0.158043 0.299368
vt 0.158043 0.299368
vt 0.158047 0.299368
vt 0.158047 0.299367
vt 0.158043 0.299367
vt 0.158047 0.299367
vt 0.158043 0.299368
vt 0.158043 0.299368
vt 0.158043 0.299368
vt 0.158043 0.299367
vt 0.158047 0.299368
vt 0.158047 0.299367
vt 0.158047 0.299367
vt 0.158047 0.299367
vt 0.158047 0.299368
vt 0.158047 0.299368
vt 0.158047 0.299367
vt 0.158047 0.299367
vt 0.158047 0.299368
vt 0.158047 0.299368
vt 0.158047 0.299368
vt 0.158047 0.299368
vt 0.158047 0.299368
vt 0.158047 0.299366
vt 0.158047 0.299368
vt 0.158047 0.299367
vt 0.158047 0.299366
vt 0.158047 0.299368
vt 0.158047 0.299366
vt 0.158047 0.299368
vt 0.144268 0.327187
vt 0.144268 0.327187
vt 0.144268 0.327187
vt 0.144268 0.327187
vt 0.144268 0.327187
vt 0.144268 0.327187
vt 0.144268 0.327187
vt 0.144268 0.327187
vt 0.144268 0.327187
vt 0.144268 0.327187
vt 0.144268 0.327187
vt 0.144268 0.327187
vt 0.144268 0.327187
vt 0.144268 0.327187
vt 0.144268 0.327187
vt 0.144268 0.327187
vt 0.144268 0.327187
vt 0.144268 0.327187
vt 0.144268 0.327187
vt 0.144268 0.327187
vt 0.144268 0.327187
vt 0.144268 0.327187
vt 0.144268 0.327187
vt 0.144268 0.327187
vt 0.144268 0.327187
vt 0.144268 0.327187
vt 0.144268 0.327187
vt 0.144268 0.327187
vt 0.144268 0.327187
vt 0.144268 0.327187
vt 0.144268 0.327187
vt 0.144268 0.327186
vt 0.144268 0.327187
vt 0.144268 0.327187
vt 0.144268 0.327187
vt 0.144268 0.327187
vn -0.807763 -0.553111 0.203929
vn -0.807763 -0.553111 0.203929
vn -0.807763 -0.553111 0.203929
vn -0.807763 -0.553111 0.203929
vn -0.403869 0.204785 0.891601
vn -0.403869 0.204785 0.891601
vn -0.403869 0.204785 0.891601
vn -0.233934 -0.641424 -0.730650
vn -0.233934 -0.641424 -0.730650
vn -0.233934 -0.641424 -0.730650
vn -0.758688 -0.276777 0.589734
vn -0.758688 -0.276777 0.589734
vn -0.758688 -0.276777 0.589734
vn -0.758688 -0.276777 0.589734
vn -0.672980 -0.703526 -0.228360
vn -0.672980 -0.703526 -0.228360
vn -0.672980 -0.703526 -0.228360
vn -0.672980 -0.703526 -0.228360
vn -0.982855 0.099829 -0.155020
vn -0.982855 0.099829 -0.155020
vn -0.982854 0.099829 -0.155020
vn -0.982855 0.099829 -0.155020
vn -0.472971 0.462481 0.749940
vn -0.472971 0.462481 0.749940
vn -0.472971 0.462481 0.749940
vn -0.303035 -0.383711 -0.872316
vn -0.303035 -0.383711 -0.872316
vn -0.303035 -0.383711 -0.872316
vn -0.913833 0.301816 0.271693
vn -0.913833 0.301816 0.271693
vn -0.913833 0.301816 0.271693
vn -0.913833 0.301816 0.271693
vn -0.828130 -0.124911 -0.546440
vn -0.828130 -0.124911 -0.546440
vn -0.828130 -0.124911 -0.546440
vn -0.828130 -0.124911 -0.546440
vn 0.582181 -0.694276 0.423138
vn 0.582181 -0.694276 0.423138
vn 0.582181 -0.694276 0.423138
vn 0.582181 -0.694276 0.423138
vn 0.144868 0.149021 0.978165
vn 0.144868 0.149021 0.978165
vn 0.144868 0.149021 0.978165
vn 0.314801 -0.697162 -0.644101
vn 0.314801 -0.697162 -0.644101
vn 0.314801 -0.697162 -0.644101
vn 0.473067 -0.401893 0.784022
vn 0.473067 -0.401893 0.784022
vn 0.473067 -0.401893 0.784022
vn 0.473067 -0.401893 0.784022
vn 0.558778 -0.828617 -0.034072
vn 0.558778 -0.828617 -0.034072
vn 0.558778 -0.828617 -0.034072
vn 0.558778 -0.828617 -0.034072
vn -0.159511 -0.882026 0.443380
vn -0.159511 -0.882026 0.443380
vn -0.159511 -0.882026 0.443380
vn -0.159511 -0.882026 0.443380
vn -0.147889 0.074909 0.986163
vn -0.147889 0.074909 0.986163
vn -0.147889 0.074909 0.986163
vn 0.021989 -0.771287 -0.636107
vn 0.021989 -0.771287 -0.636107
vn 0.021989 -0.771287 -0.636107
vn -0.184176 -0.568270 0.801965
vn -0.184176 -0.568270 0.801965
vn -0.184176 -0.568270 0.801965
vn -0.184176 -0.568270 0.801965
vn -0.098513 -0.995005 -0.016129
vn -0.098513 -0.995005 -0.016129
vn -0.098513 -0.995005 -0.016129
vn -0.098513 -0.995005 -0.016129
vn 0.807765 0.553109 -0.203928
vn 0.807765 0.553109 -0.203928
vn 0.807765 0.553109 -0.203928
vn 0.807765 0.553109 -0.203928
vn 0.233911 0.641477 0.730612
vn 0.233911 0.641477 0.730612
vn 0.233911 0.641477 0.730612
vn 0.403847 -0.204807 -0.891606
vn 0.403847 -0.204808 -0.891606
vn 0.403847 -0.204807 -0.891606
vn 0.672992 0.703526 0.228328
vn 0.672992 0.703526 0.228329
vn 0.672992 0.703526 0.228328
vn 0.672991 0.703526 0.228328
vn 0.758678 0.276784 -0.589745
vn 0.758678 0.276784 -0.589745
vn 0.758678 0.276784 -0.589745
vn 0.758678 0.276784 -0.589745
vn 0.982857 -0.099820 0.155009
vn 0.982857 -0.099820 0.155009
vn 0.982857 -0.099820 0.155009
vn 0.982857 -0.099820 0.155009
vn 0.303036 0.383692 0.872324
vn 0.303036 0.383692 0.872324
vn 0.303036 0.383692 0.872324
vn 0.472955 -0.462504 -0.749936
vn 0.472955 -0.462504 -0.749936
vn 0.472955 -0.462504 -0.749936
vn 0.828150 0.124902 0.546413
vn 0.828150 0.124902 0.546413
vn 0.828150 0.124902 0.546413
vn 0.828150 0.124902 0.546413
vn 0.913830 -0.301825 -0.271692
vn 0.913830 -0.301825 -0.271692
vn 0.913830 -0.301825 -0.271692
vn 0.913830 -0.301825 -0.271692
vn -0.582194 0.694266 -0.423137
vn -0.582194 0.694266 -0.423137
vn -0.582194 0.694266 -0.423137
vn -0.582194 0.694266 -0.423137
vn -0.314765 0.697206 0.644070
vn -0.314765 0.697206 0.644070
vn -0.314765 0.697206 0.644070
vn -0.144882 -0.149067 -0.978155
vn -0.144882 -0.149067 -0.978155
vn -0.144882 -0.149067 -0.978155
vn -0.558765 0.828626 0.034076
vn -0.558764 0.828626 0.034076
vn -0.558764 0.828626 0.034076
vn -0.558764 0.828626 0.034076
vn -0.473098 0.401872 -0.784014
vn -0.473098 0.401872 -0.784013
vn -0.473098 0.401872 -0.784014
vn -0.473098 0.401872 -0.784014
vn 0.159503 0.882022 -0.443392
vn 0.159503 0.882022 -0.443392
vn 0.159503 0.882022 -0.443392
vn 0.159503 0.882022 -0.443392
vn -0.021978 0.771312 0.636078
vn -0.021978 0.771312 0.636078
vn -0.021978 0.771312 0.636078
vn 0.147886 -0.074949 -0.986161
vn 0.147886 -0.074949 -0.986161
vn 0.147886 -0.074949 -0.986160
vn 0.098516 0.995005 0.016115
vn 0.098516 0.995005 0.016115
vn 0.098516 0.995005 0.016115
vn 0.098516 0.995005 0.016115
vn 0.184176 0.568292 -0.801950
vn 0.184176 0.568292 -0.801950
vn 0.184176 0.568293 -0.801950
vn 0.184176 0.568292 -0.801950
vn -0.366847 -0.809707 0.458036
vn -0.366847 -0.809707 0.458036
vn -0.366847 -0.809707 0.458036
vn -0.366847 -0.809707 0.458036
vn -0.533039 0.838862 0.110364
vn -0.533039 0.838862 0.110364
vn -0.533039 0.838862 0.110364
vn -0.272221 0.846877 0.456833
vn -0.272221 0.846877 0.456833
vn -0.272221 0.846877 0.456833
vn -0.272221 0.846877 0.456833
vn 0.798951 0.442151 0.407651
vn 0.798951 0.442151 0.407651
vn 0.798951 0.442151 0.407651
vn 0.798951 0.442151 0.407651
vn -0.820119 0.239838 0.519503
vn -0.820119 0.239838 0.519503
vn -0.820119 0.239838 0.519503
vn -0.820119 0.239838 0.519502
vn 0.589011 -0.711220 0.383709
vn 0.589011 -0.711220 0.383709
vn 0.589011 -0.711220 0.383709
vn 0.589011 -0.711220 0.383709
vn 0.318654 0.932155 0.171891
vn 0.318654 0.932155 0.171891
vn 0.318654 0.932155 0.171891
vn -0.979246 0.022798 -0.201389
vn -0.979246 0.022798 -0.201389
vn -0.979246 0.022798 -0.201389
vn -0.979246 0.022798 -0.201389
vn -0.346843 -0.930873 -0.114782
vn -0.346843 -0.930873 -0.114782
vn -0.346843 -0.930873 -0.114782
vn -0.346843 -0.930873 -0.114782
vn 0.623608 -0.775524 -0.098363
vn 0.623608 -0.775524 -0.098363
vn 0.623608 -0.775524 -0.098363
vn 0.623608 -0.775524 -0.098363
vn 0.907530 0.304856 -0.288881
vn 0.907530 0.304856 -0.288881
vn 0.907530 0.304856 -0.288880
vn 0.907530 0.304856 -0.288881
vn -0.240720 0.861242 -0.447566
vn -0.240720 0.861242 -0.447566
vn -0.240720 0.861242 -0.447566
vn -0.240720 0.861242 -0.447566
vn 0.008033 -0.998548 0.053261
vn 0.008033 -0.998548 0.053261
vn 0.008033 -0.998548 0.053261
vn 0.839858 -0.522487 0.147127
vn 0.839858 -0.522487 0.147127
vn 0.839858 -0.522487 0.147127
vn -0.795245 -0.603776 0.055130
vn -0.795245 -0.603776 0.055130
vn -0.795245 -0.603776 0.055130
vn -0.962372 0.229304 0.145807
vn -0.962372 0.229304 0.145807
vn -0.962372 0.229304 0.145807
vn -0.962372 0.229304 0.145807
vn -0.302126 0.952779 0.030530
vn -0.302126 0.952779 0.030530
vn -0.302126 0.952779 0.030530
vn -0.302126 0.952779 0.030530
vn 0.620525 -0.778355 -0.095454
vn 0.620525 -0.778355 -0.095454
vn 0.620525 -0.778355 -0.095454
vn 0.620525 -0.778356 -0.095454
vn 0.909145 0.373622 -0.184014
vn 0.909145 0.373622 -0.184014
vn 0.909145 0.373622 -0.184014
vn 0.909145 0.373622 -0.184014
vn -0.363855 -0.925646 0.103869
vn -0.363855 -0.925646 0.103869
vn -0.363855 -0.925646 0.103869
vn -0.363855 -0.925646 0.103869
vn -0.841712 0.216663 0.494549
vn -0.841712 0.216663 0.494549
vn -0.841712 0.216663 0.494549
vn -0.841711 0.216663 0.494549
vn -0.023471 0.701820 0.711967
vn -0.023471 0.701820 0.711967
vn -0.023471 0.701820 0.711967
vn -0.023471 0.701820 0.711967
vn 0.333965 -0.596365 -0.729943
vn 0.333965 -0.596365 -0.729943
vn 0.333965 -0.596365 -0.729943
vn 0.333965 -0.596365 -0.729943
vn 0.952949 0.301857 -0.027744
vn 0.952949 0.301857 -0.027744
vn 0.952949 0.301857 -0.027744
vn 0.952949 0.301857 -0.027744
vn -0.515830 -0.705018 -0.486693
vn -0.515830 -0.705017 -0.486693
vn -0.515830 -0.705017 -0.486693
vn -0.515830 -0.705017 -0.486693
vn -0.618399 -0.276437 0.735639
vn -0.618399 -0.276437 0.735639
vn -0.618399 -0.276437 0.735640
vn -0.618399 -0.276437 0.735639
vn 0.291894 -0.084316 0.952727
vn 0.291894 -0.084316 0.952727
vn 0.291894 -0.084316 0.952727
vn 0.291894 -0.084316 0.952727
vn 0.063764 0.197142 -0.978299
vn 0.063764 0.197142 -0.978299
vn 0.063764 0.197142 -0.978299
vn 0.063764 0.197142 -0.978299
vn 0.917832 0.320220 -0.234612
vn 0.917832 0.320220 -0.234612
vn 0.917832 0.320220 -0.234612
vn 0.917832 0.320220 -0.234612
vn -0.818312 -0.162418 -0.551349
vn -0.818312 -0.162418 -0.551349
vn -0.818312 -0.162418 -0.551349
vn -0.818312 -0.162418 -0.551349
vn -0.567082 0.557207 0.606579
vn -0.567082 0.557207 0.606579
vn -0.567082 0.557207 0.606579
vn -0.567082 0.557207 0.606579
vn 0.382089 0.552732 0.740604
vn 0.382089 0.552732 0.740604
vn 0.382089 0.552732 0.740604
vn 0.382089 0.552732 0.740604
vn -0.040294 -0.575371 -0.816900
vn -0.040294 -0.575371 -0.816900
vn -0.040294 -0.575371 -0.816900
vn -0.040294 -0.575371 -0.816900
vn 0.936958 -0.226607 -0.266007
vn 0.936958 -0.226607 -0.266007
vn 0.936958 -0.226607 -0.266006
vn 0.936958 -0.226607 -0.266006
vn -0.894483 -0.247239 -0.372523
vn -0.894483 -0.247240 -0.372523
vn -0.894483 -0.247240 -0.372523
vn -0.894483 -0.247239 -0.372523
s off
f 6/1/1 1/2/2 2/3/3 5/4/4
f 3/5/5 7/6/6 8/7/7
f 10/8/8 4/9/9 9/10/10
f 1/2/11 6/1/12 7/6/13 3/5/14
f 5/4/15 2/3/16 4/9/17 10/8/18
f 1/2/19 11/11/20 12/12/21 2/3/22
f 13/13/23 3/5/24 8/7/25
f 4/9/26 14/14/27 9/10/28
f 11/11/29 1/2/30 3/5/31 13/13/32
f 2/3/33 12/12/34 14/14/35 4/9/36
f 20/15/37 15/16/38 16/17/39 19/18/40
f 17/19/41 21/20/42 8/7/43
f 22/21/44 18/22/45 9/10/46
f 15/16/47 20/15/48 21/20/49 17/19/50
f 19/18/51 16/17/52 18/22/53 22/21/54
f 15/16/55 6/1/56 5/4/57 16/17/58
f 7/6/59 17/19/60 8/7/61
f 18/22/62 10/8/63 9/10/64
f 6/1/65 15/16/66 17/19/67 7/6/68
f 16/17/69 5/4/70 10/8/71 18/22/72
f 28/23/73 23/24/74 24/25/75 27/26/76
f 25/27/77 29/28/78 8/7/79
f 30/29/80 26/30/81 9/10/82
f 23/24/83 28/23/84 29/28/85 25/27/86
f 27/26/87 24/25/88 26/30/89 30/29/90
f 23/24/91 20/15/92 19/18/93 24/25/94
f 21/20/95 25/27/96 8/7/97
f 26/30/98 22/21/99 9/10/100
f 20/15/101 23/24/102 25/27/103 21/20/104
f 24/25/105 19/18/106 22/21/107 26/30/108
f 11/11/109 31/31/110 32/32/111 12/12/112
f 33/33/113 13/13/114 8/7/115
f 14/14/116 34/34/117 9/10/118
f 31/31/119 11/11/120 13/13/121 33/33/122
f 12/12/123 32/32/124 34/34/125 14/14/126
f 31/31/127 28/23/128 27/26/129 32/32/130
f 29/28/131 33/33/132 8/7/133
f 34/34/134 30/29/135 9/10/136
f 28/23/137 31/31/138 33/33/139 29/28/140
f 32/32/141 27/26/142 30/29/143 34/34/144
f 46/35/145 47/36/146 40/37/147 39/38/148
f 65/39/149 66/40/150 67/41/151
f 41/42/152 42/43/153 49/44/154 45/45/155
f 48/46/156 49/44/157 42/43/158 43/47/159
f 41/42/160 45/45/161 46/35/162 39/38/163
f 47/36/164 48/46/165 43/47/166 40/37/167
f 67/41/168 66/40/169 68/48/170
f 46/35/171 45/45/172 35/49/173 37/50/174
f 37/50/175 38/51/176 47/36/177 46/35/178
f 44/52/179 48/46/180 47/36/181 38/51/182
f 36/53/183 49/44/184 48/46/185 44/52/186
f 45/45/187 49/44/188 36/53/189 35/49/190
f 66/40/191 69/54/192 70/55/193
f 68/48/194 66/40/195 70/55/196
f 65/39/197 69/54/198 66/40/199
f 41/42/200 39/38/201 50/56/202 51/57/203
f 42/43/204 41/42/205 51/57/206 52/58/207
f 40/37/208 43/47/209 54/59/210 53/60/211
f 43/47/212 42/43/213 52/58/214 54/59/215
f 39/38/216 40/37/217 53/60/218 50/56/219
f 51/57/220 50/56/221 55/61/222 56/62/223
f 52/58/224 51/57/225 56/62/226 57/63/227
f 54/59/228 59/64/229 58/65/230 53/60/231
f 52/58/232 57/63/233 59/64/234 54/59/235
f 53/60/236 58/65/237 55/61/238 50/56/239
f 56/62/240 55/61/241 60/66/242 61/67/243
f 57/63/244 56/62/245 61/67/246 62/68/247
f 59/64/248 64/69/249 63/70/250 58/65/251
f 57/63/252 62/68/253 64/69/254 59/64/255
f 58/65/256 63/70/257 60/66/258 55/61/259
f 61/67/260 60/66/261 65/39/262 67/41/263
f 62/68/264 61/67/265 67/41/266 68/48/267
f 63/70/268 64/69/269 70/55/270 69/54/271
f 64/69/272 62/68/273 68/48/274 70/55/275
f 60/66/276 63/70/277 69/54/278 65/39/279
