# This file uses centimeters as units for non-parametric coordinates.

v 0.918216 2.140442 -2.065681
v -0.918215 2.140442 -2.065681
v -1.836431 2.140442 -0.110753
v -0.848780 2.140442 1.123324
v 0.848780 2.140442 1.123325
v 1.836431 2.140442 -0.110753
v 0.000000 2.921661 0.000000
v -1.200367 -105.847816 -2.555645
v -2.400735 -105.847816 -0.000000
v -1.109596 -105.847816 1.613288
v 1.109596 -105.847816 1.613288
v 2.400735 -105.847816 0.000000
v 1.200368 -105.847816 -2.555644
v -3.393042 -106.748871 -0.115012
v -1.696520 -106.748871 -3.053473
v -1.275805 -106.748871 1.982412
v 1.275805 -106.748871 1.982412
v 3.393043 -106.748871 -0.115011
v 1.696522 -106.748871 -3.053472
v -3.069925 -110.438095 1.805889
v 3.069925 -110.438095 1.805889
v 1.696522 -110.438095 -3.053472
v -1.696520 -110.438095 -3.053472
v 12.361401 -112.247391 -0.299109
v 10.995942 -112.247391 3.854818
v -12.361395 -112.247391 -0.299109
v -10.995941 -112.247391 3.854817
v 2.400735 0.000000 0.000000
v 1.109596 0.000000 1.613288
v -1.109596 0.000000 1.613288
v -2.400735 0.000000 -0.000000
v -1.200367 0.000000 -2.555644
v 1.200368 0.000000 -2.555644
v -2.071795 -114.594666 1.322344
v 2.071797 -114.594666 1.322345
v 8.942095 -115.040558 2.927842
v 10.052510 -115.040558 -1.226084
v -8.942094 -115.040558 2.927842
v -10.052505 -115.040558 -1.226084
v -2.544271 -115.040558 -3.702530
v -3.328525 -112.247391 -3.698459
v 2.544276 -115.040558 -3.702530
v 3.328530 -112.247391 -3.698459
v 13.349523 -117.725510 4.556220
v 14.714981 -117.725510 0.402294
v 11.295675 -120.518684 3.629245
v 12.406091 -120.518684 -0.524682
v -14.714975 -117.725510 0.402292
v -13.349522 -117.725510 4.556218
v -12.406085 -120.518684 -0.524684
v -11.295674 -120.518684 3.629243
v -2.071795 -121.197662 1.065714
v 2.071797 -121.197662 1.065715
v -2.544271 -121.643562 -3.289406
v 2.544276 -121.643562 -3.289406
v 12.231163 -147.851288 3.664893
v 13.079317 -147.851288 0.959694
v 11.010542 -147.851288 3.066710
v 11.660360 -147.851288 0.347352
v -13.079312 -147.851288 0.959692
v -12.231162 -147.851288 3.664891
v -11.660357 -147.851288 0.347350
v -11.010541 -147.851288 3.066708
v -0.886456 -147.851288 0.437887
v 0.886459 -147.851288 0.437888
v -1.088614 -147.851288 -1.573110
v 1.088619 -147.851288 -1.573110
vt 0.249050 0.384937
vt 0.249049 0.384937
vt 0.249049 0.384949
vt 0.249050 0.384949
vt 0.249050 0.384937
vt 0.249050 0.384949
vt 0.249049 0.384937
vt 0.249049 0.384949
vt 0.249050 0.384937
vt 0.249050 0.384949
vt 0.249050 0.384937
vt 0.249050 0.384949
vt 0.249050 0.384949
vt 0.101619 0.301701
vt 0.099936 0.299730
vt 0.099936 0.299730
vt 0.099936 0.299730
vt 0.099936 0.299730
vt 0.099936 0.299730
vt 0.099936 0.299730
vt 0.099936 0.299730
vt 0.101619 0.301701
vt 0.101619 0.301701
vt 0.101619 0.301701
vt 0.101619 0.301701
vt 0.101619 0.301701
vt 0.101619 0.301701
vt 0.099936 0.299730
vt 0.101619 0.301701
vt 0.101619 0.301701
vt 0.101619 0.301701
vt 0.101619 0.301701
vt 0.101619 0.301701
vt 0.101619 0.301701
vt 0.101619 0.301701
vt 0.101619 0.301701
vt 0.101619 0.301701
vt 0.249050 0.384948
vt 0.249050 0.384948
vt 0.249049 0.384948
vt 0.249050 0.384948
vt 0.249049 0.384948
vt 0.249050 0.384948
vt 0.101619 0.301701
vt 0.101619 0.301701
vt 0.101619 0.301701
vt 0.101619 0.301701
vt 0.101619 0.301701
vt 0.101619 0.301701
vt 0.101619 0.301701
vt 0.101619 0.301701
vt 0.101619 0.301701
vt 0.101619 0.301701
vt 0.101619 0.301701
vt 0.101619 0.301701
vt 0.101619 0.301701
vt 0.101619 0.301701
vt 0.101619 0.301701
vt 0.101619 0.301701
vt 0.101619 0.301701
vt 0.101619 0.301701
vt 0.101619 0.301701
vt 0.101619 0.301701
vt 0.101619 0.301701
vt 0.101619 0.301701
vt 0.101619 0.301701
vt 0.101619 0.301701
vt 0.101619 0.301701
vt 0.101619 0.301701
vt 0.101619 0.301701
vt 0.101619 0.301701
vt 0.101619 0.301701
vt 0.101619 0.301701
vt 0.101619 0.301701
vt 0.101619 0.301701
vt 0.101619 0.301701
vt 0.101619 0.301701
vt 0.101619 0.301701
vt 0.101619 0.301701
vt 0.101619 0.301701
vt 0.101619 0.301701
vt 0.101619 0.301701
vt 0.101619 0.301701
vt 0.101619 0.301701
vt 0.101619 0.301701
vt 0.101619 0.301701
vt 0.101619 0.301701
vt 0.101619 0.301701
vt 0.101619 0.301701
vt 0.101619 0.301701
vt 0.101619 0.301701
vt 0.101619 0.301701
vt 0.101619 0.301701
vt 0.101619 0.301701
vt 0.101619 0.301701
vt 0.101619 0.301701
vt 0.101619 0.301701
vt 0.101619 0.301701
vt 0.101619 0.301701
vt 0.101619 0.301701
vt 0.101619 0.301701
vt 0.101619 0.301701
vt 0.101619 0.301701
vt 0.101619 0.301701
vt 0.101619 0.301701
vt 0.101619 0.301701
vt 0.101619 0.301701
vt 0.101619 0.301701
vt 0.101619 0.301701
vt 0.101619 0.301701
vt 0.101619 0.301701
vt 0.101619 0.301701
vt 0.101619 0.301701
vt 0.101619 0.301701
vt 0.101619 0.301701
vt 0.101619 0.301701
vt 0.101619 0.301701
vt 0.101619 0.301701
vt 0.101619 0.301701
vt 0.101619 0.301701
vt 0.101619 0.301701
vt 0.101619 0.301701
vt 0.101619 0.301701
vt 0.101619 0.301701
vt 0.101619 0.301701
vt 0.101619 0.301701
vt 0.101619 0.301701
vt 0.101619 0.301701
vt 0.101619 0.301701
vt 0.101619 0.301701
vt 0.101619 0.301701
vt 0.101619 0.301701
vt 0.101619 0.301701
vt 0.101619 0.301701
vt 0.101619 0.301701
vt 0.101619 0.301701
vt 0.101619 0.301701
vt 0.101619 0.301701
vt 0.101619 0.301701
vt 0.101619 0.301701
vt 0.101619 0.301701
vt 0.101619 0.301701
vt 0.101619 0.301701
vt 0.101619 0.301701
vt 0.101619 0.301701
vt 0.101619 0.301701
vt 0.101619 0.301701
vt 0.101619 0.301701
vt 0.101619 0.301701
vt 0.101619 0.301701
vt 0.101619 0.301701
vt 0.101619 0.301701
vt 0.101619 0.301701
vt 0.101619 0.301701
vt 0.101619 0.301701
vt 0.101619 0.301701
vt 0.101619 0.301701
vt 0.101619 0.301701
vt 0.101619 0.301701
vt 0.101619 0.301701
vt 0.101619 0.301701
vt 0.101619 0.301701
vt 0.101619 0.301701
vt 0.101619 0.301701
vt 0.101619 0.301701
vt 0.101619 0.301701
vt 0.101619 0.301701
vt 0.101619 0.301701
vt 0.101619 0.301701
vt 0.101619 0.301701
vt 0.101619 0.301701
vt 0.101619 0.301701
vt 0.101619 0.301701
vt 0.101619 0.301701
vt 0.101619 0.301701
vt 0.101619 0.301701
vt 0.101619 0.301701
vt 0.101619 0.301701
vt 0.101619 0.301701
vt 0.101619 0.301701
vt 0.101619 0.301701
vt 0.101619 0.301701
vt 0.101619 0.301701
vt 0.101619 0.301701
vt 0.101619 0.301701
vt 0.101619 0.301701
vt 0.101619 0.301701
vt 0.101619 0.301701
vt 0.101619 0.301701
vt 0.101619 0.301701
vt 0.101619 0.301701
vt 0.101619 0.301701
vt 0.101619 0.301701
vt 0.101619 0.301701
vt 0.101619 0.301701
vt 0.101619 0.301701
vt 0.101619 0.301701
vt 0.101619 0.301701
vt 0.101619 0.301701
vt 0.101619 0.301701
vt 0.101619 0.301701
vt 0.099936 0.299730
vt 0.101619 0.301701
vt 0.099936 0.299730
vt 0.101619 0.301701
vt 0.099936 0.299730
vt 0.101619 0.301701
vt 0.099936 0.299730
vt 0.101619 0.301701
vt 0.099936 0.299730
vt 0.101619 0.301701
vt 0.099936 0.299730
vt 0.101619 0.301701
vn 0.000000 0.000000 -1.000000
vn 0.000000 0.000000 -1.000000
vn 0.000000 0.000000 -1.000000
vn 0.000000 0.000000 -1.000000
vn -0.905131 -0.000000 -0.425133
vn -0.905131 -0.000000 -0.425133
vn -0.905131 -0.000000 -0.425133
vn -0.905131 -0.000000 -0.425133
vn -0.780749 0.000000 0.624845
vn -0.780749 0.000000 0.624845
vn -0.780749 0.000000 0.624845
vn -0.780749 0.000000 0.624845
vn -0.000000 0.000000 1.000000
vn -0.000000 0.000000 1.000000
vn -0.000000 0.000000 1.000000
vn -0.000000 0.000000 1.000000
vn 0.780749 0.000000 0.624845
vn 0.780749 0.000000 0.624845
vn 0.780749 0.000000 0.624845
vn 0.780749 0.000000 0.624845
vn 0.905131 0.000000 -0.425133
vn 0.905131 0.000000 -0.425133
vn 0.905131 0.000000 -0.425133
vn 0.905131 0.000000 -0.425133
vn 0.000000 0.935345 -0.353738
vn 0.000000 0.935345 -0.353738
vn 0.000000 0.935345 -0.353738
vn -0.376248 0.909509 -0.176721
vn -0.376248 0.909509 -0.176721
vn -0.376248 0.909509 -0.176721
vn -0.387904 0.867844 0.310446
vn -0.387904 0.867844 0.310446
vn -0.387904 0.867844 0.310446
vn -0.000000 0.820982 0.570954
vn -0.000000 0.820982 0.570954
vn -0.000000 0.820982 0.570954
vn 0.387904 0.867844 0.310446
vn 0.387904 0.867844 0.310446
vn 0.387904 0.867844 0.310446
vn 0.376248 0.909509 -0.176721
vn 0.376248 0.909509 -0.176721
vn 0.376248 0.909509 -0.176721
vn -0.921985 -0.134873 -0.362977
vn -0.921985 -0.134873 -0.362977
vn -0.921986 -0.134873 -0.362977
vn -0.921985 -0.134873 -0.362977
vn -0.672546 0.294584 0.678898
vn -0.672546 0.294584 0.678898
vn -0.672546 0.294584 0.678898
vn -0.000000 -0.047794 0.998857
vn -0.000000 -0.047794 0.998857
vn -0.000000 -0.047794 0.998857
vn -0.000000 -0.047794 0.998857
vn 0.672546 0.294584 0.678898
vn 0.672546 0.294584 0.678898
vn 0.672546 0.294584 0.678898
vn 0.921986 -0.134873 -0.362976
vn 0.921986 -0.134873 -0.362976
vn 0.921986 -0.134873 -0.362976
vn 0.921986 -0.134873 -0.362976
vn 0.000000 -0.000000 -1.000000
vn 0.000000 -0.000000 -1.000000
vn 0.000000 -0.000000 -1.000000
vn 0.000000 -0.000000 -1.000000
vn -0.661025 0.664504 -0.348541
vn -0.661025 0.664504 -0.348541
vn -0.661025 0.664504 -0.348541
vn -0.661025 0.664504 -0.348541
vn -0.640147 0.494441 0.587996
vn -0.640147 0.494441 0.587996
vn -0.640147 0.494441 0.587996
vn -0.640147 0.494441 0.587996
vn 0.000000 0.379080 0.925364
vn 0.000000 0.379079 0.925364
vn 0.000000 0.379079 0.925364
vn 0.000000 0.379079 0.925364
vn 0.640149 0.494443 0.587993
vn 0.640149 0.494443 0.587993
vn 0.640149 0.494443 0.587993
vn 0.640149 0.494443 0.587993
vn 0.661025 0.664504 -0.348542
vn 0.661024 0.664504 -0.348542
vn 0.661025 0.664504 -0.348542
vn 0.661025 0.664504 -0.348542
vn 0.000000 0.483600 -0.875289
vn 0.000000 0.483600 -0.875289
vn 0.000000 0.483600 -0.875289
vn 0.000000 0.483600 -0.875289
vn 0.191100 0.981571 -0.000172
vn 0.191100 0.981571 -0.000172
vn 0.191100 0.981571 -0.000172
vn 0.191100 0.981571 -0.000172
vn 0.000000 0.335787 -0.941938
vn 0.000000 0.335787 -0.941938
vn 0.000000 0.335787 -0.941938
vn 0.000000 0.335787 -0.941938
vn -0.191100 0.981571 -0.000169
vn -0.191100 0.981571 -0.000169
vn -0.191100 0.981571 -0.000169
vn -0.191100 0.981571 -0.000169
vn 0.759505 0.231687 0.607844
vn 0.759505 0.231687 0.607844
vn 0.759505 0.231687 0.607844
vn 0.759505 0.231687 0.607844
vn -0.000000 0.223136 0.974787
vn -0.000000 0.223136 0.974787
vn -0.000000 0.223136 0.974787
vn -0.000000 0.223136 0.974787
vn -0.759505 0.231687 0.607843
vn -0.759505 0.231687 0.607843
vn -0.759505 0.231687 0.607843
vn -0.759505 0.231687 0.607844
vn -0.884612 0.211719 -0.415496
vn -0.884612 0.211719 -0.415496
vn -0.884612 0.211719 -0.415496
vn -0.884612 0.211719 -0.415496
vn 0.000000 0.223136 -0.974787
vn 0.000000 0.223136 -0.974787
vn 0.000000 0.223136 -0.974787
vn 0.000000 0.223136 -0.974787
vn 0.884612 0.211719 -0.415496
vn 0.884612 0.211719 -0.415496
vn 0.884612 0.211719 -0.415496
vn 0.884612 0.211719 -0.415496
vn 0.295133 0.545782 -0.784231
vn 0.295133 0.545782 -0.784231
vn 0.295133 0.545782 -0.784231
vn -0.000000 -0.115553 0.993301
vn -0.000000 -0.115553 0.993301
vn -0.000000 -0.115553 0.993301
vn -0.000000 -0.115553 0.993301
vn -0.251150 -0.085397 0.964174
vn -0.251150 -0.085397 0.964174
vn -0.251150 -0.085397 0.964174
vn -0.251150 -0.085397 0.964174
vn 0.000000 -1.000000 0.000004
vn 0.000000 -1.000000 0.000004
vn 0.000000 -1.000000 0.000004
vn 0.000000 -1.000000 0.000004
vn 0.334599 -0.028279 -0.941936
vn 0.334599 -0.028279 -0.941936
vn 0.334599 -0.028279 -0.941936
vn 0.334599 -0.028279 -0.941936
vn 0.251150 -0.085397 0.964174
vn 0.251150 -0.085397 0.964174
vn 0.251150 -0.085397 0.964174
vn 0.251150 -0.085397 0.964174
vn 0.000000 -1.000000 0.000000
vn 0.000000 -1.000000 0.000000
vn 0.000000 -1.000000 0.000000
vn 0.000000 -1.000000 0.000000
vn 0.000000 0.001458 -0.999999
vn 0.000000 0.001458 -0.999999
vn 0.000000 0.001458 -0.999999
vn 0.000000 0.001458 -0.999999
vn 0.000000 -1.000000 0.000004
vn 0.000000 -1.000000 0.000004
vn 0.000000 -1.000000 0.000004
vn 0.000000 -1.000000 0.000004
vn -0.042636 -0.998243 0.041141
vn -0.042636 -0.998243 0.041141
vn -0.042636 -0.998243 0.041141
vn -0.042636 -0.998243 0.041141
vn 0.042636 -0.998243 0.041141
vn 0.042636 -0.998243 0.041141
vn 0.042636 -0.998243 0.041141
vn 0.042636 -0.998243 0.041141
vn -0.334599 -0.028279 -0.941936
vn -0.334599 -0.028279 -0.941936
vn -0.334599 -0.028279 -0.941936
vn -0.334599 -0.028279 -0.941936
vn -0.295133 0.545782 -0.784231
vn -0.295133 0.545782 -0.784231
vn -0.295133 0.545782 -0.784231
vn 0.866923 0.408945 0.284970
vn 0.866923 0.408946 0.284970
vn 0.866923 0.408945 0.284970
vn 0.866923 0.408946 0.284970
vn -0.366936 -0.038645 0.929443
vn -0.366936 -0.038645 0.929443
vn -0.366936 -0.038645 0.929443
vn -0.366936 -0.038645 0.929443
vn -0.881605 -0.408941 -0.235669
vn -0.881605 -0.408941 -0.235669
vn -0.881605 -0.408941 -0.235669
vn -0.881605 -0.408941 -0.235669
vn 0.343653 0.027457 -0.938695
vn 0.343653 0.027457 -0.938695
vn 0.343653 0.027457 -0.938695
vn 0.343653 0.027457 -0.938695
vn -0.866923 0.408945 0.284970
vn -0.866923 0.408946 0.284970
vn -0.866923 0.408945 0.284970
vn -0.866923 0.408946 0.284970
vn -0.343653 0.027457 -0.938695
vn -0.343653 0.027457 -0.938695
vn -0.343653 0.027457 -0.938695
vn -0.343653 0.027457 -0.938695
vn 0.881606 -0.408940 -0.235668
vn 0.881606 -0.408940 -0.235668
vn 0.881606 -0.408940 -0.235668
vn 0.881606 -0.408940 -0.235668
vn 0.366936 -0.038645 0.929443
vn 0.366936 -0.038645 0.929443
vn 0.366936 -0.038645 0.929443
vn 0.366936 -0.038645 0.929443
vn -0.000000 -0.038836 0.999246
vn -0.000000 -0.038836 0.999246
vn -0.000000 -0.038836 0.999246
vn -0.000000 -0.038836 0.999246
vn -0.994974 0.001186 0.100122
vn -0.994974 0.001186 0.100122
vn -0.994974 0.001186 0.100122
vn -0.994974 0.001186 0.100122
vn 0.000000 -0.062444 -0.998049
vn 0.000000 -0.062444 -0.998049
vn 0.000000 -0.062444 -0.998049
vn 0.000000 -0.062444 -0.998049
vn 0.994974 0.001186 0.100123
vn 0.994974 0.001186 0.100123
vn 0.994974 0.001186 0.100123
vn 0.994974 0.001186 0.100123
vn 0.950698 -0.045156 0.306814
vn 0.950698 -0.045156 0.306814
vn 0.950698 -0.045156 0.306814
vn 0.950698 -0.045156 0.306814
vn -0.413086 -0.012951 0.910600
vn -0.413086 -0.012951 0.910600
vn -0.413086 -0.012951 0.910600
vn -0.413086 -0.012951 0.910600
vn -0.968599 0.016861 -0.248056
vn -0.968599 0.016861 -0.248056
vn -0.968599 0.016861 -0.248056
vn -0.968599 0.016861 -0.248056
vn 0.406545 -0.039557 -0.912774
vn 0.406545 -0.039557 -0.912774
vn 0.406545 -0.039557 -0.912774
vn 0.406545 -0.039557 -0.912774
vn -0.950698 -0.045156 0.306813
vn -0.950698 -0.045156 0.306813
vn -0.950698 -0.045156 0.306813
vn -0.950698 -0.045156 0.306813
vn -0.406545 -0.039557 -0.912774
vn -0.406545 -0.039557 -0.912774
vn -0.406545 -0.039557 -0.912774
vn -0.406545 -0.039557 -0.912774
vn 0.968599 0.016861 -0.248055
vn 0.968599 0.016861 -0.248055
vn 0.968599 0.016861 -0.248055
vn 0.968599 0.016861 -0.248055
vn 0.413086 -0.012951 0.910600
vn 0.413086 -0.012951 0.910600
vn 0.413086 -0.012951 0.910600
vn 0.413086 -0.012951 0.910600
vn -0.000000 -0.023548 0.999723
vn -0.000000 -0.023548 0.999723
vn -0.000000 -0.023548 0.999723
vn -0.000000 -0.023548 0.999723
vn -0.992962 -0.047374 0.108545
vn -0.992962 -0.047374 0.108545
vn -0.992962 -0.047374 0.108545
vn -0.992962 -0.047374 0.108545
vn 0.000000 -0.065348 -0.997863
vn 0.000000 -0.065348 -0.997863
vn 0.000000 -0.065348 -0.997863
vn 0.000000 -0.065348 -0.997863
vn 0.992962 -0.047374 0.108546
vn 0.992962 -0.047374 0.108546
vn 0.992962 -0.047374 0.108546
vn 0.992962 -0.047374 0.108546
s off
f 13/1/1 8/2/2 32/42/3 33/43/4
f 8/2/5 9/5/6 31/41/7 32/42/8
f 9/5/9 10/7/10 30/40/11 31/41/12
f 10/7/13 11/9/14 29/39/15 30/40/16
f 11/9/17 12/11/18 28/38/19 29/39/20
f 12/11/21 13/1/22 33/43/23 28/38/24
f 1/4/25 2/3/26 7/13/27
f 2/3/28 3/6/29 7/13/30
f 3/6/31 4/8/32 7/13/33
f 4/8/34 5/10/35 7/13/36
f 5/10/37 6/12/38 7/13/39
f 6/12/40 1/4/41 7/13/42
f 23/193/43 20/199/44 14/22/45 15/205/46
f 20/200/47 16/24/48 14/203/49
f 20/201/50 21/30/51 17/25/52 16/213/53
f 21/196/54 18/26/55 17/211/56
f 21/197/57 22/187/58 19/27/59 18/209/60
f 22/188/61 23/192/62 15/23/63 19/207/64
f 9/16/65 8/15/66 15/204/67 14/202/68
f 10/17/69 9/16/70 14/202/71 16/212/72
f 11/18/73 10/17/74 16/212/75 17/210/76
f 12/19/77 11/18/78 17/210/79 18/208/80
f 13/20/81 12/19/82 18/208/83 19/206/84
f 8/15/85 13/21/86 19/28/87 15/204/88
f 22/31/89 21/198/90 25/35/91 24/34/92
f 23/33/93 22/189/94 43/74/95 41/70/96
f 20/29/97 23/194/98 26/177/99 27/14/100
f 29/39/101 28/38/102 6/12/103 5/10/104
f 30/40/105 29/39/106 5/10/107 4/8/108
f 31/41/109 30/40/110 4/8/111 3/6/112
f 32/42/113 31/41/114 3/6/115 2/3/116
f 33/43/117 32/42/118 2/3/119 1/4/120
f 28/38/121 33/43/122 1/4/123 6/12/124
f 43/186/125 22/32/126 24/37/127
f 21/44/128 20/45/129 34/46/130 35/166/131
f 25/48/132 21/49/133 35/50/134 36/181/135
f 57/88/136 56/150/137 58/145/138 59/143/139
f 42/72/140 43/185/141 24/56/142 37/57/143
f 20/58/144 27/59/145 38/60/146 34/170/147
f 61/92/148 60/130/149 62/125/150 63/123/151
f 40/68/152 41/191/153 43/75/154 42/161/155
f 65/96/156 64/110/157 66/105/158 67/103/159
f 35/167/160 42/160/161 37/179/162 36/51/163
f 40/164/164 34/169/165 38/172/166 39/67/167
f 26/66/168 41/71/169 40/163/170 39/174/171
f 23/195/172 41/190/173 26/36/174
f 24/52/175 25/184/176 44/158/177 45/154/178
f 25/53/179 36/182/180 46/152/181 44/157/182
f 36/54/183 37/180/184 47/147/185 46/151/186
f 37/55/187 24/183/188 45/155/189 47/146/190
f 27/62/191 26/178/192 48/138/193 49/134/194
f 26/63/195 39/175/196 50/132/197 48/137/198
f 39/64/199 38/173/200 51/127/201 50/131/202
f 38/65/203 27/176/204 49/135/205 51/126/206
f 35/47/207 34/171/208 52/118/209 53/114/210
f 34/61/211 40/165/212 54/112/213 52/117/214
f 40/69/215 42/162/216 55/107/217 54/111/218
f 42/73/219 35/168/220 53/115/221 55/106/222
f 45/76/223 44/159/224 56/149/225 57/140/226
f 44/77/227 46/153/228 58/144/229 56/89/230
f 46/78/231 47/148/232 59/142/233 58/90/234
f 47/79/235 45/156/236 57/141/237 59/91/238
f 49/80/239 48/139/240 60/129/241 61/120/242
f 48/81/243 50/133/244 62/124/245 60/93/246
f 50/82/247 51/128/248 63/122/249 62/94/250
f 51/83/251 49/136/252 61/121/253 63/95/254
f 53/84/255 52/119/256 64/109/257 65/100/258
f 52/85/259 54/113/260 66/104/261 64/97/262
f 54/86/263 55/108/264 67/102/265 66/98/266
f 55/87/267 53/116/268 65/101/269 67/99/270
