# This file uses centimeters as units for non-parametric coordinates.

v -25.002441 23.085396 25.002441
v 25.002411 23.085396 25.002441
v -25.002441 21.079765 -25.002441
v 25.002411 21.079765 -25.002441
v 0.000000 18.659863 0.000000
v -14.981598 33.153713 14.981628
v 14.981598 33.153713 14.981628
v 14.981598 31.148083 -14.981628
v -14.981598 31.148083 -14.981628
v 8.504578 31.846710 -31.739563
v -31.739532 30.345814 -8.504578
v 31.739532 30.807667 8.504578
v -8.504578 29.306770 31.739502
v 0.000000 27.660908 0.000000
v 4.925446 41.369629 -18.382019
v -18.381989 39.868736 -4.925415
v -4.925446 38.829693 18.381958
v 18.381989 40.330589 4.925415
v 2.712067 -31.422043 1.617493
v 2.712067 -31.422043 -0.887573
v 0.542603 -31.422043 -2.140198
v -1.626801 -31.422043 -0.887573
v -1.626801 -31.422043 1.617493
v 0.542603 -31.422043 2.870056
v 3.069916 3.485406 1.824097
v 3.069916 3.485406 -1.094238
v 0.542603 3.485406 -2.553345
v -1.984741 3.485406 -1.094238
v -1.984741 3.485406 1.824097
v 0.542603 3.485406 3.283203
v -3.481110 1.291646 -1.958191
v -3.481110 1.291646 2.688110
v 0.542603 1.291646 5.011230
v 4.566315 1.291646 2.688110
v 4.566315 1.291646 -1.958191
v 0.542603 1.291646 -4.281311
v 0.542603 -33.697910 0.364990
v 1.702759 3.485406 1.753174
v 2.177094 3.485406 -0.567139
v -0.311768 3.485406 -1.194519
v -0.786163 3.485406 1.125916
v -0.786163 5.538701 1.125916
v 1.702759 6.355863 1.753174
v 2.177094 5.538701 -0.567139
v -0.311768 6.355865 -1.194519
v 2.201782 15.570912 1.187317
v -0.144531 15.498921 -2.352478
v 3.263855 17.544720 -1.489075
v -2.118103 13.049111 1.044617
v 0.757507 10.550286 1.812927
v -1.256744 10.534860 -1.291565
v -0.325104 13.637162 -0.195068
v 0.526123 11.544709 0.171692
v 1.152618 18.090416 -0.712097
v -3.716431 30.966358 6.337769
v -0.825317 30.822899 6.387573
v -2.160889 31.691650 5.480530
v 6.282410 30.643021 0.108276
v 4.116180 30.669281 1.177490
v 5.112122 29.822155 2.301880
v 5.154968 27.154156 -5.283325
v 2.960693 26.828976 -7.050659
v 3.463257 28.098572 -5.066284
vt 0.024652 0.110122
vt 0.302794 0.110122
vt 0.024652 0.388264
vt 0.302794 0.388264
vt 0.163723 0.249193
vt 0.094188 0.179658
vt 0.233258 0.179658
vt 0.233258 0.318728
vt 0.094188 0.318728
vt 0.233258 0.179658
vt 0.233258 0.318728
vt 0.163723 0.249193
vt 0.094188 0.318728
vt 0.094188 0.179658
vt 0.302794 0.110122
vt 0.024652 0.110122
vt 0.302794 0.388264
vt 0.024652 0.388264
vt 0.045537 0.167571
vt 0.045537 0.167571
vt 0.042534 0.167068
vt 0.042534 0.167068
vt 0.045537 0.166218
vt 0.042534 0.166218
vt 0.045537 0.164865
vt 0.042534 0.165368
vt 0.045537 0.164865
vt 0.042534 0.165368
vt 0.045537 0.166218
vt 0.042534 0.166218
vt 0.090310 0.165489
vt 0.090310 0.165489
vt 0.090310 0.166218
vt 0.090310 0.166947
vt 0.090310 0.166947
vt 0.090310 0.166218
vt 0.093425 0.166218
vt 0.045537 0.167571
vt 0.045537 0.167571
vt 0.045537 0.167571
vt 0.045537 0.167571
vt 0.045537 0.167571
vt 0.045537 0.167571
vt 0.045537 0.167571
vt 0.045537 0.167571
vt 0.045537 0.167571
vt 0.045537 0.167571
vt 0.144825 0.329069
vt 0.144825 0.329069
vt 0.144825 0.329069
vt 0.144825 0.329069
vt 0.144825 0.329069
vt 0.144825 0.329069
vt 0.144825 0.329069
vt 0.144825 0.329069
vt 0.144825 0.329070
vt 0.144825 0.329070
vt 0.144825 0.329070
vt 0.144825 0.329070
vt 0.144825 0.329070
vt 0.144825 0.329070
vt 0.144825 0.329070
vt 0.144825 0.329070
vt 0.144825 0.329070
vt 0.144825 0.329070
vt 0.144825 0.329070
vt 0.144825 0.329070
vt 0.144825 0.329070
vt 0.144825 0.329070
vt 0.144825 0.329070
vt 0.144825 0.329070
vt 0.144825 0.329070
vt 0.144825 0.329070
vn -0.668347 0.742189 -0.049679
vn -0.668347 0.742189 -0.049679
vn -0.668347 0.742189 -0.049679
vn 0.000000 0.768132 0.640291
vn 0.000000 0.768132 0.640291
vn 0.000000 0.768132 0.640291
vn 0.668347 0.742189 -0.049679
vn 0.668347 0.742189 -0.049679
vn 0.668347 0.742189 -0.049679
vn 0.000000 0.718710 -0.695310
vn 0.000000 0.718710 -0.695310
vn 0.000000 0.718710 -0.695310
vn 0.000000 0.705433 0.708777
vn 0.000000 0.705433 0.708777
vn 0.000000 0.705433 0.708777
vn 0.000000 0.705433 0.708777
vn 0.708333 0.704992 -0.035363
vn 0.708334 0.704992 -0.035363
vn 0.708334 0.704992 -0.035363
vn 0.708334 0.704992 -0.035363
vn 0.000000 0.705433 -0.708777
vn 0.000000 0.705433 -0.708777
vn 0.000000 0.705433 -0.708777
vn 0.000000 0.705433 -0.708777
vn -0.708333 0.704993 -0.035363
vn -0.708333 0.704993 -0.035363
vn -0.708333 0.704993 -0.035363
vn -0.708333 0.704993 -0.035363
vn 0.582233 0.754647 -0.302510
vn 0.582233 0.754647 -0.302510
vn 0.582233 0.754647 -0.302510
vn -0.367360 0.747920 -0.552867
vn -0.367360 0.747920 -0.552867
vn -0.367360 0.747920 -0.552867
vn -0.592186 0.713895 0.373724
vn -0.592186 0.713895 0.373724
vn -0.592186 0.713895 0.373724
vn 0.311783 0.719737 0.620299
vn 0.311783 0.719737 0.620299
vn 0.311783 0.719737 0.620299
vn -0.374062 0.716097 -0.589308
vn -0.374062 0.716097 -0.589308
vn -0.374062 0.716097 -0.589308
vn -0.374062 0.716097 -0.589308
vn -0.593948 0.716256 0.366338
vn -0.593948 0.716256 0.366338
vn -0.593948 0.716256 0.366338
vn -0.593948 0.716256 0.366338
vn 0.323325 0.716097 0.618601
vn 0.323325 0.716097 0.618601
vn 0.323325 0.716097 0.618601
vn 0.323325 0.716097 0.618601
vn 0.614232 0.716256 -0.331206
vn 0.614232 0.716256 -0.331206
vn 0.614232 0.716256 -0.331206
vn 0.614232 0.716256 -0.331206
vn 0.872365 0.488855 0.000000
vn 0.872365 0.488855 0.000000
vn 0.872365 0.488855 0.000000
vn 0.872365 0.488855 0.000000
vn 0.436174 0.488876 -0.755481
vn 0.436174 0.488876 -0.755481
vn 0.436174 0.488876 -0.755481
vn 0.436174 0.488876 -0.755481
vn -0.436174 0.488876 -0.755481
vn -0.436174 0.488876 -0.755481
vn -0.436174 0.488876 -0.755481
vn -0.436174 0.488876 -0.755481
vn -0.872365 0.488855 0.000000
vn -0.872365 0.488855 0.000000
vn -0.872365 0.488855 0.000000
vn -0.872365 0.488855 0.000000
vn -0.436174 0.488876 0.755481
vn -0.436174 0.488876 0.755481
vn -0.436174 0.488876 0.755481
vn -0.436174 0.488876 0.755481
vn 0.436174 0.488876 0.755481
vn 0.436174 0.488876 0.755481
vn 0.436174 0.488876 0.755481
vn 0.436174 0.488876 0.755481
vn -0.999009 -0.044515 0.000000
vn -0.999009 -0.044515 0.000000
vn -0.999009 -0.044515 0.000000
vn -0.999009 -0.044515 0.000000
vn -0.499516 -0.044514 0.865161
vn -0.499516 -0.044514 0.865161
vn -0.499516 -0.044514 0.865161
vn -0.499516 -0.044514 0.865161
vn 0.499510 -0.044514 0.865164
vn 0.499510 -0.044514 0.865164
vn 0.499510 -0.044514 0.865164
vn 0.499510 -0.044514 0.865164
vn 0.999009 -0.044512 0.000000
vn 0.999009 -0.044512 0.000000
vn 0.999009 -0.044512 0.000000
vn 0.999009 -0.044512 0.000000
vn 0.499510 -0.044514 -0.865164
vn 0.499510 -0.044514 -0.865164
vn 0.499510 -0.044514 -0.865164
vn 0.499510 -0.044514 -0.865164
vn -0.499516 -0.044515 -0.865160
vn -0.499516 -0.044514 -0.865161
vn -0.499516 -0.044514 -0.865161
vn -0.499516 -0.044515 -0.865160
vn 0.849248 -0.527994 0.000000
vn 0.849248 -0.527994 0.000000
vn 0.849248 -0.527994 0.000000
vn 0.424628 -0.527999 -0.735464
vn 0.424628 -0.527999 -0.735464
vn 0.424628 -0.527999 -0.735464
vn -0.424642 -0.527995 -0.735459
vn -0.424642 -0.527995 -0.735459
vn -0.424642 -0.527995 -0.735459
vn -0.849258 -0.527979 0.000000
vn -0.849258 -0.527979 0.000000
vn -0.849258 -0.527979 0.000000
vn -0.424644 -0.527989 0.735463
vn -0.424644 -0.527989 0.735463
vn -0.424644 -0.527989 0.735463
vn 0.424630 -0.527992 0.735468
vn 0.424630 -0.527992 0.735468
vn 0.424630 -0.527992 0.735468
vn 0.000000 1.000000 0.000000
vn 0.000000 1.000000 0.000000
vn 0.000000 1.000000 0.000000
vn 0.000000 1.000000 0.000000
vn 0.000000 1.000000 0.000001
vn 0.000000 1.000000 0.000001
vn 0.000000 1.000000 0.000001
vn 0.000000 1.000000 0.000001
vn 0.000000 1.000000 0.000001
vn 0.000000 1.000000 0.000001
vn 0.000000 1.000000 0.000001
vn 0.000000 1.000000 0.000000
vn 0.000000 1.000000 0.000000
vn 0.000000 1.000000 0.000000
vn 0.000000 1.000000 0.000000
vn 0.000000 1.000000 -0.000000
vn 0.000000 1.000000 -0.000000
vn 0.000000 1.000000 -0.000000
vn 0.000000 1.000000 -0.000000
vn 0.000000 1.000000 -0.000001
vn 0.000000 1.000000 -0.000001
vn 0.000000 1.000000 -0.000001
vn -0.244388 0.000000 0.969678
vn -0.244388 0.000000 0.969678
vn -0.244388 0.000000 0.969678
vn -0.244388 0.000000 0.969678
vn 0.979739 0.000000 0.200280
vn 0.979739 0.000000 0.200280
vn 0.979739 0.000000 0.200280
vn 0.979739 0.000000 0.200280
vn 0.244413 0.000000 -0.969671
vn 0.244413 0.000000 -0.969671
vn 0.244413 0.000000 -0.969671
vn 0.244413 0.000000 -0.969671
vn -0.979732 0.000000 -0.200312
vn -0.979732 0.000000 -0.200312
vn -0.979732 0.000000 -0.200312
vn -0.979732 0.000000 -0.200312
vn -0.899938 0.086190 0.427414
vn -0.899938 0.086190 0.427414
vn -0.899938 0.086190 0.427414
vn -0.899938 0.086190 0.427414
vn 0.959955 -0.048916 0.275850
vn 0.959955 -0.048916 0.275850
vn 0.959955 -0.048916 0.275850
vn 0.959955 -0.048916 0.275850
vn 0.277213 -0.103029 -0.955269
vn 0.277213 -0.103029 -0.955269
vn 0.277213 -0.103029 -0.955269
vn 0.277213 -0.103029 -0.955269
vn -0.190106 -0.003913 0.981756
vn -0.190106 -0.003913 0.981756
vn -0.190106 -0.003913 0.981756
vn -0.190106 -0.003913 0.981756
vn 0.694867 0.085608 -0.714025
vn 0.694867 0.085608 -0.714025
vn 0.694867 0.085608 -0.714025
vn 0.694867 0.085608 -0.714025
vn -0.963577 -0.160598 -0.213842
vn -0.963576 -0.160598 -0.213842
vn -0.963577 -0.160598 -0.213842
vn -0.963577 -0.160598 -0.213842
vn 0.873475 0.099819 -0.476527
vn 0.873475 0.099819 -0.476527
vn 0.873475 0.099819 -0.476527
vn 0.873475 0.099819 -0.476527
vn -0.732928 0.097430 0.673294
vn -0.732928 0.097430 0.673294
vn -0.732928 0.097430 0.673294
vn -0.732928 0.097430 0.673294
vn -0.193058 -0.269562 0.943433
vn -0.193058 -0.269562 0.943433
vn -0.193058 -0.269562 0.943433
vn -0.193058 -0.269562 0.943433
vn 0.800612 0.234500 -0.551390
vn 0.800612 0.234500 -0.551390
vn 0.800612 0.234500 -0.551390
vn 0.800612 0.234500 -0.551390
vn -0.580140 0.185460 -0.793122
vn -0.580140 0.185460 -0.793122
vn -0.580140 0.185460 -0.793122
vn -0.580140 0.185460 -0.793122
vn -0.334476 0.196918 -0.921601
vn -0.334476 0.196918 -0.921601
vn -0.334476 0.196918 -0.921601
vn -0.334476 0.196918 -0.921601
vn -0.790043 0.111786 0.602773
vn -0.790043 0.111786 0.602773
vn -0.790043 0.111786 0.602773
vn -0.790043 0.111786 0.602773
vn 0.927907 -0.230230 0.293227
vn 0.927907 -0.230230 0.293227
vn 0.927907 -0.230230 0.293227
vn 0.927907 -0.230230 0.293227
vn 0.525751 -0.424430 -0.737188
vn 0.525751 -0.424430 -0.737188
vn 0.525751 -0.424430 -0.737188
vn 0.525751 -0.424430 -0.737188
vn -0.941908 0.301803 0.147396
vn -0.941907 0.301803 0.147396
vn -0.941908 0.301803 0.147396
vn -0.941908 0.301803 0.147396
vn 0.369228 0.283348 0.885090
vn 0.369228 0.283348 0.885090
vn 0.369228 0.283348 0.885090
vn 0.369228 0.283348 0.885090
vn 0.345180 0.748452 -0.566278
vn 0.345180 0.748452 -0.566278
vn 0.345180 0.748452 -0.566278
vn 0.025155 0.740200 0.671916
vn 0.025155 0.740200 0.671916
vn 0.025155 0.740200 0.671916
vn 0.230946 0.864379 0.446668
vn 0.230946 0.864379 0.446668
vn 0.230946 0.864379 0.446668
vn -0.605234 0.420629 -0.675843
vn -0.605234 0.420629 -0.675843
vn -0.605233 0.420629 -0.675843
s off
f 7/7/1 8/8/2 5/5/3
f 8/8/4 9/9/5 5/5/6
f 9/9/7 6/6/8 5/5/9
f 6/6/10 7/7/11 5/5/12
f 2/2/13 7/7/14 6/6/15 1/1/16
f 2/2/17 4/4/18 8/8/19 7/7/20
f 3/3/21 9/9/22 8/8/23 4/4/24
f 1/1/25 6/6/26 9/9/27 3/3/28
f 16/10/29 17/11/30 14/12/31
f 17/11/32 18/13/33 14/12/34
f 18/13/35 15/14/36 14/12/37
f 15/14/38 16/10/39 14/12/40
f 11/15/41 16/10/42 15/14/43 10/16/44
f 11/15/45 13/17/46 17/11/47 16/10/48
f 12/18/49 18/13/50 17/11/51 13/17/52
f 10/16/53 15/14/54 18/13/55 12/18/56
f 34/19/57 35/20/58 26/21/59 25/22/60
f 35/20/61 36/23/62 27/24/63 26/21/64
f 36/23/65 31/25/66 28/26/67 27/24/68
f 31/25/69 32/27/70 29/28/71 28/26/72
f 32/27/73 33/29/74 30/30/75 29/28/76
f 33/29/77 34/19/78 25/22/79 30/30/80
f 32/27/81 31/25/82 22/31/83 23/32/84
f 33/29/85 32/27/86 23/32/87 24/33/88
f 34/19/89 33/29/90 24/33/91 19/34/92
f 35/20/93 34/19/94 19/34/95 20/35/96
f 21/36/97 36/23/98 35/20/99 20/35/100
f 31/25/101 36/23/102 21/36/103 22/31/104
f 20/35/105 19/34/106 37/37/107
f 21/36/108 20/35/109 37/37/110
f 22/31/111 21/36/112 37/37/113
f 23/32/114 22/31/115 37/37/116
f 24/33/117 23/32/118 37/37/119
f 19/34/120 24/33/121 37/37/122
f 25/38/123 26/39/124 39/40/125 38/41/126
f 26/39/127 27/42/128 40/43/129 39/40/130
f 27/42/131 28/44/132 40/43/133
f 28/44/134 29/45/135 41/46/136 40/43/137
f 29/45/138 30/47/139 38/41/140 41/46/141
f 30/47/142 25/38/143 38/41/144
f 41/48/145 38/49/146 43/50/147 42/51/148
f 38/49/149 39/52/150 44/53/151 43/50/152
f 39/52/153 40/54/154 45/55/155 44/53/156
f 40/54/157 41/48/158 42/51/159 45/55/160
f 45/55/161 53/56/162 54/57/163 47/58/164
f 43/50/165 44/53/166 48/59/167 46/60/168
f 44/53/169 45/55/170 47/58/171 48/59/172
f 42/51/173 43/50/174 50/61/175 49/62/176
f 52/63/177 53/56/178 45/55/179 51/64/180
f 45/55/181 42/51/182 49/62/183 51/64/184
f 43/50/185 53/56/186 52/63/187 50/61/188
f 54/57/189 53/56/190 43/50/191 46/60/192
f 49/62/193 50/61/194 56/65/195 55/66/196
f 50/61/197 52/63/198 57/67/199 56/65/200
f 52/63/201 49/62/202 55/66/203 57/67/204
f 48/59/205 54/57/206 59/68/207 58/69/208
f 54/57/209 46/60/210 60/70/211 59/68/212
f 46/60/213 48/59/214 58/69/215 60/70/216
f 48/59/217 47/58/218 62/71/219 61/72/220
f 47/58/221 54/57/222 63/73/223 62/71/224
f 54/57/225 48/59/226 61/72/227 63/73/228
f 62/71/229 63/73/230 61/72/231
f 56/65/232 57/67/233 55/66/234
f 58/69/235 59/68/236 60/70/237
f 52/63/238 51/64/239 49/62/240
