# This file uses centimeters as units for non-parametric coordinates.

v 9.369904 15.948785 -5.654022
v -6.919189 11.842095 -10.923004
v -11.527374 12.868318 -7.240204
v -6.821198 11.950318 -7.997253
v -9.497192 15.977252 2.410400
v -7.939941 16.173412 -7.851135
v -10.143860 3.931520 0.387085
v -13.019897 14.894441 2.769104
v -10.703278 10.740888 9.427063
v -6.621063 18.535835 -6.982697
v -2.265320 8.741859 -13.248322
v 1.211121 5.555597 -12.589142
v -7.979889 14.678473 4.149353
v -4.949524 13.261942 -4.986053
v 1.462921 15.003574 -11.087280
v 0.043396 9.845518 -11.592987
v 11.525635 11.054449 -8.432404
v 10.247009 3.038027 -3.149475
v -5.339050 10.393003 13.809814
v -2.714966 18.692846 -1.750488
v -5.680664 2.596175 7.781433
v -2.779510 18.058186 8.585205
v 7.376740 15.813872 -8.419678
v 6.634277 9.012338 -11.776459
v 11.776184 8.116875 -4.594025
v -0.771362 14.647434 11.951660
v 4.170074 13.092120 -7.664551
v 5.446106 17.824118 -2.812988
v -0.248627 7.871442 14.803711
v -1.753937 15.505081 14.154907
v 4.905487 14.941372 9.822937
v 3.962952 2.761689 9.022766
v 5.102539 8.526778 12.767273
v 6.503265 14.146134 -4.354248
v 4.079407 20.039713 4.100830
v 9.053101 16.686762 3.800049
v 7.131592 15.659790 12.805298
v 10.929474 12.785965 11.752136
v 11.759583 17.873192 9.086365
v 13.306702 10.073801 -2.404785
v 14.806152 7.061531 4.008728
v 3.979797 13.540839 12.158447
v -4.185120 12.056705 11.689880
v -15.341797 14.058747 1.889648
v -7.004883 3.927371 -8.380981
v -5.085114 18.364820 -5.202423
v -10.068115 1.334766 0.360168
v -6.975037 2.204000 -8.455841
v 3.866882 0.000000 8.870544
v -8.401947 6.248792 11.272705
v -12.651001 5.740553 1.770996
v -13.529602 2.382365 3.872620
v -9.087799 3.378460 11.808350
v -7.676392 6.183944 11.355469
v -7.686646 2.349168 12.208069
v 4.995728 1.438397 13.478394
v 14.528229 7.787675 -0.020630
v 9.887268 6.322163 9.986267
v 10.700867 3.298205 10.164185
v 15.341766 4.763719 0.157410
v -3.580841 6.781472 -14.107208
v 9.559448 6.432462 -10.331024
v 9.844421 3.970088 -11.027649
v -3.295807 4.319098 -14.803772
v -10.385864 5.083824 -9.059204
v -9.493225 6.278660 -7.689148
v -11.674927 5.789181 7.434265
v -4.140594 6.349585 14.197266
v 0.925232 5.856711 13.984009
v 1.524475 7.454767 -14.307831
v 7.478851 7.287053 -13.621399
vt 0.108359 0.188818
vt 0.103754 0.188786
vt 0.108445 0.188751
vt 0.108525 0.188764
vt 0.107373 0.188774
vt 0.108445 0.188717
vt 0.103702 0.188688
vt 0.108445 0.188714
vt 0.108444 0.188761
vt 0.100358 0.188725
vt 0.108443 0.188789
vt 0.103731 0.188678
vt 0.103712 0.188691
vt 0.103754 0.188684
vt 0.108445 0.188809
vt 0.103754 0.188684
vt 0.108445 0.188804
vt 0.108469 0.188825
vt 0.103753 0.188803
vt 0.100172 0.188684
vt 0.097191 0.188753
vt 0.100357 0.188705
vt 0.104745 0.188793
vt 0.108443 0.188813
vt 0.100358 0.188775
vt 0.100172 0.188684
vt 0.100361 0.188718
vt 0.103754 0.188685
vt 0.108444 0.188694
vt 0.103744 0.188706
vt 0.097192 0.188753
vt 0.106859 0.188799
vt 0.103754 0.188684
vt 0.108444 0.188699
vt 0.108445 0.188708
vt 0.108444 0.188788
vt 0.097192 0.188753
vt 0.108443 0.188765
vt 0.108443 0.188807
vt 0.108472 0.188790
vt 0.103712 0.188713
vt 0.108443 0.188707
vt 0.103716 0.188775
vt 0.108444 0.188740
vt 0.108445 0.188714
vt 0.100362 0.188752
vt 0.108443 0.188789
vt 0.097192 0.188753
vt 0.097192 0.188753
vt 0.097192 0.188753
vt 0.097192 0.188752
vt 0.097192 0.188753
vt 0.097192 0.188753
vt 0.097191 0.188753
vt 0.103754 0.188685
vt 0.103754 0.188684
vt 0.103754 0.188684
vt 0.108530 0.188765
vt 0.100172 0.188684
vt 0.100172 0.188684
vt 0.103754 0.188684
vt 0.100172 0.188685
vt 0.103754 0.188684
vt 0.103754 0.188684
vt 0.103754 0.188684
vt 0.108530 0.188763
vt 0.108530 0.188763
vt 0.097226 0.188438
vt 0.097226 0.188438
vt 0.097226 0.188438
vt 0.097226 0.188438
vt 0.097226 0.188438
vt 0.104815 0.188694
vt 0.101186 0.188694
vt 0.097226 0.188438
vt 0.097226 0.188438
vt 0.097226 0.188438
vt 0.101186 0.188694
vt 0.097226 0.188438
vt 0.101186 0.188694
vt 0.108445 0.188694
vt 0.108445 0.188694
vt 0.108445 0.188694
vt 0.108445 0.188694
vt 0.108445 0.188694
vt 0.108445 0.188694
vt 0.108445 0.188694
vt 0.108445 0.188694
vt 0.108445 0.188694
vt 0.108445 0.188694
vt 0.108445 0.188694
vt 0.108445 0.188694
vt 0.108445 0.188694
vt 0.108445 0.188694
vt 0.108445 0.188694
vt 0.108445 0.188694
vt 0.108445 0.188694
vt 0.108445 0.188694
vt 0.108445 0.188694
vt 0.108445 0.188694
vt 0.108445 0.188694
vt 0.108445 0.188694
vt 0.100361 0.188718
vt 0.100361 0.188718
vt 0.100361 0.188718
vt 0.106859 0.188799
vt 0.106859 0.188799
vt 0.100361 0.188718
vt 0.103754 0.188685
vt 0.100172 0.188685
vt 0.100172 0.188684
vt 0.100172 0.188684
vt 0.103754 0.188684
vt 0.103754 0.188684
vt 0.100172 0.188684
vt 0.103754 0.188684
vn 0.886019 -0.338471 -0.316871
vn 0.886019 -0.338471 -0.316871
vn 0.886019 -0.338471 -0.316871
vn 0.184690 0.981877 -0.042505
vn 0.184690 0.981877 -0.042505
vn 0.184690 0.981877 -0.042505
vn 0.161769 0.971625 -0.172558
vn 0.161769 0.971625 -0.172558
vn 0.161769 0.971625 -0.172558
vn -0.638327 -0.229114 -0.734878
vn -0.638327 -0.229114 -0.734877
vn -0.638327 -0.229114 -0.734878
vn -0.188948 0.802285 0.566248
vn -0.188948 0.802285 0.566248
vn -0.188948 0.802285 0.566248
vn -0.778695 0.547414 -0.306548
vn -0.778695 0.547414 -0.306548
vn -0.778695 0.547414 -0.306548
vn -0.863939 -0.397566 -0.309113
vn -0.863939 -0.397566 -0.309113
vn -0.863939 -0.397566 -0.309113
vn -0.828822 -0.470361 0.303010
vn -0.828822 -0.470361 0.303010
vn -0.828822 -0.470361 0.303010
vn 0.858224 0.044486 0.511343
vn 0.858224 0.044486 0.511343
vn 0.858224 0.044486 0.511343
vn -0.863945 -0.397560 -0.309105
vn -0.863945 -0.397560 -0.309105
vn -0.863945 -0.397560 -0.309105
vn -0.240007 0.450163 -0.860087
vn -0.240007 0.450163 -0.860087
vn -0.240007 0.450163 -0.860087
vn 0.597798 0.798175 0.074535
vn 0.597798 0.798175 0.074535
vn 0.597798 0.798175 0.074535
vn -0.339654 0.780837 0.524337
vn -0.339654 0.780837 0.524337
vn -0.339654 0.780837 0.524337
vn 0.999239 -0.021315 -0.032679
vn 0.999239 -0.021315 -0.032679
vn 0.999239 -0.021315 -0.032679
vn 0.163863 -0.025232 -0.986160
vn 0.163863 -0.025232 -0.986160
vn 0.163863 -0.025232 -0.986160
vn -0.870602 -0.215327 -0.442364
vn -0.870602 -0.215327 -0.442364
vn -0.870602 -0.215327 -0.442364
vn -0.222814 0.564984 -0.794447
vn -0.222814 0.564985 -0.794447
vn -0.222814 0.564985 -0.794447
vn -0.759547 -0.541273 0.360711
vn -0.759547 -0.541273 0.360711
vn -0.759547 -0.541273 0.360711
vn -0.780813 0.523982 -0.340257
vn -0.780813 0.523982 -0.340257
vn -0.780813 0.523982 -0.340257
vn -0.450570 0.052939 -0.891170
vn -0.450570 0.052939 -0.891170
vn -0.450570 0.052939 -0.891170
vn -0.311539 -0.506272 -0.804135
vn -0.311539 -0.506272 -0.804135
vn -0.311539 -0.506272 -0.804135
vn 0.080356 0.773970 -0.628103
vn 0.080356 0.773970 -0.628103
vn 0.080356 0.773970 -0.628103
vn -0.300919 0.174730 -0.937506
vn -0.300919 0.174730 -0.937506
vn -0.300919 0.174730 -0.937506
vn -0.555520 0.794584 0.245019
vn -0.555520 0.794584 0.245019
vn -0.555520 0.794584 0.245019
vn 0.354879 0.311712 -0.881417
vn 0.354879 0.311712 -0.881417
vn 0.354879 0.311712 -0.881417
vn -0.572041 0.818894 0.046712
vn -0.572041 0.818894 0.046712
vn -0.572041 0.818894 0.046712
vn 0.681450 0.049069 0.730217
vn 0.681450 0.049069 0.730217
vn 0.681450 0.049069 0.730217
vn 0.134372 0.906602 0.400021
vn 0.134372 0.906602 0.400021
vn 0.134372 0.906602 0.400021
vn -0.327768 0.821617 0.466385
vn -0.327768 0.821617 0.466385
vn -0.327768 0.821617 0.466385
vn 0.039476 -0.955420 -0.292599
vn 0.039476 -0.955420 -0.292599
vn 0.039476 -0.955420 -0.292599
vn 0.263156 0.022140 -0.964499
vn 0.263156 0.022140 -0.964499
vn 0.263156 0.022140 -0.964499
vn -0.571622 -0.486068 0.661049
vn -0.571622 -0.486068 0.661049
vn -0.571622 -0.486068 0.661049
vn -0.387061 0.640139 0.663631
vn -0.387061 0.640139 0.663631
vn -0.387061 0.640139 0.663631
vn -0.029109 -0.993704 -0.108189
vn -0.029109 -0.993704 -0.108189
vn -0.029109 -0.993704 -0.108189
vn -0.412728 -0.545759 0.729248
vn -0.412728 -0.545759 0.729248
vn -0.412728 -0.545759 0.729248
vn -0.282424 -0.904115 0.320644
vn -0.282424 -0.904115 0.320644
vn -0.282424 -0.904115 0.320644
vn 0.245186 -0.762094 -0.599247
vn 0.245186 -0.762093 -0.599247
vn 0.245186 -0.762094 -0.599247
vn 0.483667 -0.611612 -0.626096
vn 0.483667 -0.611612 -0.626096
vn 0.483667 -0.611612 -0.626096
vn -0.167117 0.050732 0.984631
vn -0.167117 0.050732 0.984631
vn -0.167117 0.050732 0.984631
vn -0.068159 -0.771641 0.632395
vn -0.068159 -0.771642 0.632395
vn -0.068159 -0.771641 0.632395
vn 0.370800 0.151003 0.916354
vn 0.370800 0.151003 0.916354
vn 0.370800 0.151003 0.916354
vn 0.659844 0.443758 -0.606370
vn 0.659844 0.443758 -0.606370
vn 0.659844 0.443758 -0.606370
vn 0.199880 0.745386 0.635962
vn 0.199880 0.745386 0.635962
vn 0.199880 0.745386 0.635962
vn -0.241919 0.968564 0.057964
vn -0.241919 0.968564 0.057964
vn -0.241919 0.968564 0.057964
vn 0.063378 0.953956 -0.293176
vn 0.063378 0.953956 -0.293175
vn 0.063378 0.953956 -0.293176
vn 0.105941 -0.975966 -0.190440
vn 0.105941 -0.975966 -0.190440
vn 0.105941 -0.975966 -0.190440
vn -0.014249 0.717671 -0.696237
vn -0.014249 0.717671 -0.696237
vn -0.014249 0.717671 -0.696237
vn 0.652870 0.570454 -0.498341
vn 0.652870 0.570454 -0.498341
vn 0.652870 0.570454 -0.498341
vn -0.503879 0.859936 0.081340
vn -0.503879 0.859936 0.081340
vn -0.503879 0.859936 0.081340
vn 0.520045 -0.535173 0.665690
vn 0.520045 -0.535173 0.665690
vn 0.520045 -0.535173 0.665690
vn 0.831686 0.400296 -0.384787
vn 0.831686 0.400296 -0.384787
vn 0.831686 0.400296 -0.384787
vn -0.552412 0.751118 0.361474
vn -0.552412 0.751118 0.361474
vn -0.552412 0.751118 0.361474
vn 0.545634 0.823376 -0.155999
vn 0.545634 0.823376 -0.155999
vn 0.545634 0.823376 -0.155999
vn 0.885130 -0.352806 -0.303435
vn 0.885130 -0.352806 -0.303435
vn 0.885130 -0.352806 -0.303435
vn 0.514361 -0.546095 0.661221
vn 0.514361 -0.546095 0.661220
vn 0.514361 -0.546095 0.661220
vn 0.329460 0.186166 0.925634
vn 0.329460 0.186166 0.925634
vn 0.329460 0.186166 0.925634
vn 0.493365 0.683597 0.537853
vn 0.493365 0.683597 0.537853
vn 0.493365 0.683597 0.537853
vn -0.557239 0.826177 -0.083163
vn -0.557239 0.826177 -0.083163
vn -0.557239 0.826177 -0.083163
vn -0.575067 0.781831 0.240909
vn -0.575067 0.781831 0.240909
vn -0.575067 0.781831 0.240909
vn 0.218889 -0.067454 0.973415
vn 0.218889 -0.067454 0.973415
vn 0.218889 -0.067454 0.973415
vn 0.442334 -0.872264 0.208557
vn 0.442334 -0.872264 0.208557
vn 0.442334 -0.872264 0.208557
vn 0.861541 0.466392 -0.200560
vn 0.861541 0.466393 -0.200560
vn 0.861541 0.466393 -0.200560
vn 0.949229 0.304531 -0.078895
vn 0.949229 0.304531 -0.078895
vn 0.949229 0.304531 -0.078895
vn 0.868157 -0.339196 -0.362283
vn 0.868157 -0.339196 -0.362283
vn 0.868157 -0.339196 -0.362283
vn -0.422825 0.906116 0.013114
vn -0.422825 0.906116 0.013114
vn -0.422825 0.906116 0.013114
vn 0.910735 0.065098 0.407828
vn 0.910735 0.065098 0.407828
vn 0.910735 0.065098 0.407828
vn 0.483097 0.343252 0.805479
vn 0.483097 0.343252 0.805479
vn 0.483097 0.343252 0.805479
vn 0.354018 -0.557638 0.750807
vn 0.354018 -0.557638 0.750807
vn 0.354018 -0.557638 0.750807
vn -0.485282 -0.098496 -0.868792
vn -0.485282 -0.098496 -0.868792
vn -0.485282 -0.098496 -0.868792
vn -0.711659 0.664569 -0.227791
vn -0.711659 0.664569 -0.227791
vn -0.711659 0.664569 -0.227791
vn -0.711659 0.664569 -0.227791
vn 0.229709 0.937223 -0.262387
vn 0.229709 0.937223 -0.262387
vn 0.229709 0.937223 -0.262387
vn 0.727624 0.673130 -0.132137
vn 0.727624 0.673130 -0.132137
vn 0.727624 0.673130 -0.132137
vn 0.860033 0.478842 -0.176222
vn 0.860033 0.478842 -0.176222
vn 0.860033 0.478842 -0.176222
vn -0.258258 0.962436 -0.083781
vn -0.258258 0.962436 -0.083781
vn -0.258258 0.962436 -0.083781
vn -0.252140 0.940455 -0.227968
vn -0.252140 0.940455 -0.227968
vn -0.252140 0.940455 -0.227968
vn -0.461309 0.671766 0.579590
vn -0.461309 0.671766 0.579590
vn -0.461309 0.671766 0.579590
vn 0.728555 -0.381225 -0.569101
vn 0.728555 -0.381225 -0.569101
vn 0.728555 -0.381225 -0.569101
vn 0.126257 0.991441 0.033220
vn 0.126257 0.991441 0.033220
vn 0.126257 0.991441 0.033220
vn -0.225863 0.955243 0.191040
vn -0.225863 0.955243 0.191040
vn -0.225863 0.955243 0.191040
vn -0.225863 0.955243 0.191040
vn 0.314657 0.931597 -0.181983
vn 0.314657 0.931597 -0.181983
vn 0.314657 0.931597 -0.181983
vn 0.200078 0.745702 0.635529
vn 0.200078 0.745702 0.635529
vn 0.200078 0.745702 0.635529
vn -0.730908 0.440747 0.521072
vn -0.730908 0.440747 0.521072
vn -0.730908 0.440747 0.521072
vn 0.165772 0.815391 0.554669
vn 0.165772 0.815391 0.554669
vn 0.165772 0.815391 0.554669
vn -0.241436 0.063517 0.968336
vn -0.241436 0.063517 0.968336
vn -0.241436 0.063517 0.968336
vn -0.346653 0.937415 0.032937
vn -0.346653 0.937415 0.032937
vn -0.346653 0.937415 0.032937
vn -0.431487 0.492169 0.756035
vn -0.431487 0.492169 0.756035
vn -0.431487 0.492169 0.756035
vn 0.572928 0.778161 -0.257330
vn 0.572928 0.778161 -0.257330
vn 0.558332 0.790359 -0.252185
vn 0.549359 0.797620 -0.249011
vn -0.670994 -0.161648 -0.723628
vn -0.670994 -0.161648 -0.723628
vn -0.670994 -0.161648 -0.723628
vn -0.670994 -0.161648 -0.723628
vn -0.063218 -0.981517 0.180631
vn -0.063218 -0.981517 0.180631
vn -0.490159 -0.758471 0.429495
vn -0.185391 -0.948669 0.256235
vn 0.756376 -0.059162 0.651456
vn 0.756376 -0.059162 0.651456
vn 0.756376 -0.059162 0.651456
vn 0.133333 0.867710 -0.478854
vn 0.075744 0.724554 -0.685043
vn 0.124566 0.848348 -0.514576
vn -0.905257 -0.089902 -0.415244
vn -0.905257 -0.089902 -0.415244
vn -0.905257 -0.089902 -0.415244
vn -0.166524 -0.979540 0.113006
vn -0.166524 -0.979540 0.113006
vn -0.161494 -0.883976 0.438756
vn -0.158993 -0.859500 0.485779
vn 0.972562 -0.021062 -0.231687
vn 0.972562 -0.021062 -0.231687
vn 0.972562 -0.021062 -0.231687
vn -0.563417 0.797740 -0.214877
vn -0.563417 0.797740 -0.214877
vn -0.563417 0.797740 -0.214877
vn -0.563417 0.797740 -0.214877
vn -0.165749 -0.016177 0.986035
vn -0.165749 -0.016177 0.986035
vn -0.165749 -0.016177 0.986035
vn -0.165749 -0.016177 0.986035
vn 0.386548 -0.922257 0.004846
vn 0.386548 -0.922257 0.004846
vn 0.658516 -0.734824 0.162453
vn 0.620741 -0.771673 0.138568
vn 0.520588 0.090066 -0.849045
vn 0.520588 0.090066 -0.849045
vn 0.520588 0.090066 -0.849045
vn -0.087356 0.903778 0.418991
vn -0.087356 0.903778 0.418991
vn -0.085412 0.905845 0.414910
vn -0.086334 0.904868 0.416846
vn 0.991519 0.124904 -0.035891
vn 0.991519 0.124904 -0.035891
vn 0.991520 0.124904 -0.035891
vn 0.073279 -0.978515 -0.192715
vn 0.073279 -0.978515 -0.192715
vn 0.088391 -0.959299 -0.268203
vn 0.093001 -0.952052 -0.291459
vn -0.866370 0.026733 -0.498687
vn -0.866370 0.026733 -0.498687
vn -0.866370 0.026733 -0.498687
vn -0.866370 0.026733 -0.498687
vn 0.211598 0.046072 -0.976270
vn 0.211598 0.046072 -0.976270
vn 0.211598 0.046072 -0.976270
vn -0.819460 -0.541470 -0.187870
vn -0.819460 -0.541470 -0.187870
vn -0.834125 -0.520234 -0.183283
vn -0.894611 -0.417080 -0.160362
vn 0.700791 0.667913 0.250568
vn 0.700791 0.667913 0.250568
vn 0.700791 0.667913 0.250568
vn 0.346832 0.583187 -0.734575
vn 0.346832 0.583187 -0.734575
vn 0.346832 0.583187 -0.734575
vn -0.894611 -0.417080 -0.160362
vn -0.834125 -0.520234 -0.183283
vn -0.843070 0.530826 0.086351
vn 0.549359 0.797620 -0.249011
vn 0.558332 0.790359 -0.252185
vn -0.161212 0.986731 0.019312
vn -0.927001 0.340688 0.156845
vn -0.927001 0.340688 0.156845
vn -0.927001 0.340688 0.156845
vn -0.185391 -0.948669 0.256235
vn -0.490159 -0.758471 0.429495
vn -0.838272 0.079212 0.539467
vn -0.838272 0.079212 0.539467
vn 0.133333 0.867710 -0.478854
vn 0.124566 0.848348 -0.514576
vn 0.153522 0.908220 -0.389318
vn 0.153522 0.908219 -0.389318
vn -0.622048 0.171518 0.763962
vn -0.622048 0.171518 0.763962
vn -0.622048 0.171518 0.763962
vn -0.158993 -0.859500 0.485779
vn -0.161494 -0.883976 0.438756
vn -0.079602 -0.287781 0.954382
vn -0.079602 -0.287781 0.954382
vn 0.736833 0.675418 0.029803
vn 0.736833 0.675418 0.029803
vn 0.736833 0.675418 0.029803
vn -0.086334 0.904868 0.416846
vn -0.085412 0.905845 0.414910
vn -0.058311 0.932117 0.357432
vn -0.058311 0.932117 0.357432
vn 0.848159 0.232782 -0.475856
vn 0.848159 0.232782 -0.475856
vn 0.848159 0.232782 -0.475856
vn 0.093001 -0.952052 -0.291459
vn 0.088391 -0.959299 -0.268203
vn 0.201756 -0.371395 -0.906289
vn 0.201756 -0.371395 -0.906289
vn -0.072575 0.263696 -0.961872
vn -0.072575 0.263696 -0.961872
vn -0.072575 0.263696 -0.961872
vn 0.620741 -0.771673 0.138568
vn 0.658516 -0.734824 0.162453
vn 0.861634 0.257554 0.437324
vn 0.861634 0.257554 0.437324
s off
f 17/1/1 40/40/2 25/2/3
f 3/3/4 4/4/5 2/5/6
f 4/4/7 3/3/8 8/8/9
f 45/46/10 3/3/11 2/5/12
f 5/6/13 8/8/14 9/7/15
f 8/8/16 10/11/17 6/9/18
f 44/45/19 3/3/20 7/10/21
f 44/45/22 7/10/23 9/7/24
f 5/14/25 14/16/26 46/33/27
f 3/3/28 45/46/29 7/10/30
f 6/9/31 10/11/32 15/15/33
f 13/113/34 14/16/35 5/14/36
f 5/6/37 9/7/38 43/13/39
f 4/4/40 45/46/41 2/5/42
f 11/17/43 24/18/44 12/19/45
f 6/9/46 4/4/47 8/8/48
f 20/21/49 27/31/50 14/37/51
f 9/7/52 7/10/53 21/22/54
f 14/37/55 13/48/56 20/21/57
f 45/46/58 4/4/59 16/23/60
f 11/17/61 12/19/62 45/46/63
f 11/17/64 16/23/65 24/18/66
f 15/15/67 16/23/68 6/9/69
f 11/17/70 45/46/71 16/23/72
f 15/15/73 23/24/74 17/1/75
f 22/49/76 20/21/77 13/48/78
f 14/16/79 15/56/80 46/33/81
f 27/55/82 15/56/83 14/16/84
f 43/13/85 9/7/86 19/12/87
f 12/19/88 18/25/89 45/46/90
f 17/1/91 16/23/92 15/15/93
f 21/22/94 19/12/95 9/7/96
f 15/56/97 27/55/98 23/57/99
f 48/69/100 49/27/101 47/68/102
f 21/22/103 29/28/104 19/12/105
f 21/70/106 47/68/107 49/71/108
f 17/1/109 25/2/110 16/23/111
f 12/19/112 24/18/113 18/25/114
f 19/12/115 29/28/116 30/29/117
f 32/103/118 29/28/119 21/22/120
f 29/28/121 42/35/122 30/29/123
f 28/50/124 34/51/125 27/31/126
f 26/115/127 31/60/128 22/111/129
f 35/52/130 20/21/131 22/49/132
f 20/21/133 35/52/134 28/50/135
f 18/72/136 49/71/137 48/69/138
f 28/50/139 27/31/140 20/21/141
f 23/24/142 1/39/143 17/1/144
f 34/36/145 1/39/146 27/32/147
f 33/30/148 32/104/149 41/43/150
f 28/50/151 36/53/152 34/51/153
f 1/64/154 23/57/155 27/55/156
f 35/52/157 36/53/158 28/50/159
f 18/25/160 25/2/161 40/40/162
f 41/43/163 38/41/164 33/30/165
f 33/30/166 42/35/167 29/28/168
f 31/54/169 36/53/170 35/52/171
f 34/36/172 36/38/173 1/39/174
f 42/61/175 37/65/176 31/114/177
f 38/41/178 37/42/179 33/30/180
f 41/43/181 32/105/182 18/25/183
f 40/106/184 1/39/185 39/44/186
f 40/107/187 39/44/188 41/43/189
f 18/25/190 40/40/191 41/43/192
f 36/38/193 37/42/194 39/44/195
f 41/43/196 39/44/197 38/41/198
f 38/41/199 39/44/200 37/42/201
f 29/28/202 32/108/203 33/30/204
f 16/23/205 4/4/206 6/9/207
f 19/12/208 30/29/209 26/34/210 43/13/211
f 42/35/212 26/34/213 30/29/214
f 43/109/215 13/113/216 5/14/217
f 40/40/218 17/1/219 1/39/220
f 1/39/221 36/38/222 39/44/223
f 8/8/224 3/3/225 44/45/226
f 9/7/227 8/8/228 44/45/229
f 18/25/230 24/18/231 25/2/232
f 25/2/233 24/18/234 16/23/235
f 10/11/236 8/8/237 5/6/238 46/47/239
f 15/15/240 10/11/241 46/47/242
f 35/52/243 22/49/244 31/54/245
f 13/20/246 43/110/247 22/26/248
f 42/61/249 31/114/250 26/116/251
f 37/67/252 42/66/253 33/58/254
f 31/114/255 37/65/256 36/63/257
f 22/112/258 43/62/259 26/59/260
f 21/77/261 7/73/262 51/82/263 50/81/264
f 7/73/265 47/76/266 52/83/267 51/82/268
f 47/76/269 21/77/270 53/84/271 52/83/272
f 21/77/273 50/81/274 53/84/275
f 32/78/276 21/77/277 54/85/278
f 21/77/279 55/86/280 54/85/281
f 21/77/282 49/79/283 56/87/284 55/86/285
f 49/79/286 32/78/287 56/87/288
f 18/80/289 32/78/290 58/89/291 57/88/292
f 32/78/293 49/79/294 59/90/295 58/89/296
f 49/79/297 18/80/298 60/91/299 59/90/300
f 18/80/301 57/88/302 60/91/303
f 45/74/304 18/80/305 62/93/306 61/92/307
f 18/80/308 63/94/309 62/93/310
f 18/80/311 48/75/312 64/95/313 63/94/314
f 48/75/315 45/74/316 61/92/317 64/95/318
f 45/74/319 48/75/320 65/96/321
f 48/75/322 47/76/323 7/73/324 65/96/325
f 7/73/326 45/74/327 66/97/328
f 45/74/329 65/96/330 66/97/331
f 65/96/332 7/73/333 66/97/334
f 50/81/335 51/82/336 67/98/337
f 51/82/338 52/83/339 67/98/340
f 52/83/341 53/84/342 50/81/343 67/98/344
f 32/78/345 54/85/346 68/100/347 69/99/348
f 54/85/349 55/86/350 68/100/351
f 55/86/352 56/87/353 69/99/354 68/100/355
f 56/87/356 32/78/357 69/99/358
f 61/92/359 62/93/360 71/102/361 70/101/362
f 62/93/363 63/94/364 71/102/365
f 63/94/366 64/95/367 70/101/368 71/102/369
f 64/95/370 61/92/371 70/101/372
f 59/90/373 60/91/374 57/88/375 58/89/376
