# This file uses centimeters as units for non-parametric coordinates.

v 0.083880 12.383031 -0.134148
v 0.064039 1.275902 -0.130569
v 2.963717 14.522161 3.109001
v 4.485529 12.363805 5.077309
v 4.002775 6.615130 4.651482
v 4.036091 2.144614 4.601166
v 2.863552 0.210998 3.312660
v 3.945542 14.450399 -2.051140
v 6.212009 12.243892 -3.199432
v 5.750471 6.614961 -3.240585
v 5.605900 2.217668 -2.927704
v 3.962334 0.271930 -2.199791
v -1.362205 14.718987 -4.011421
v -2.342363 12.672949 -6.532005
v -2.367857 6.614882 -6.492004
v -2.190765 1.964181 -5.963989
v -1.564008 0.100685 -4.204872
v 0.408197 0.132302 4.293030
v 0.359227 2.020986 6.055733
v 0.214062 6.615025 6.148712
v 0.451835 12.574448 6.667458
v 0.307617 14.659523 4.122959
v -4.336187 -0.000000 -0.006508
v -6.160021 1.840451 0.068993
v -6.501048 6.614965 -0.209755
v -6.720710 12.881738 0.085854
v -4.038575 14.843561 0.185516
v -3.510467 0.030139 -2.726555
v -5.203956 1.875984 -3.545982
v -5.534204 6.614949 -3.901527
v -5.669509 12.833986 -3.867126
v -3.398384 14.817241 -2.385750
v 1.573677 0.194036 -4.287254
v 2.067602 2.098461 -6.078773
v 2.008400 6.614935 -6.619087
v 2.314207 12.445744 -6.667442
v 1.612531 14.571847 -4.106419
v 4.406308 0.272159 0.803719
v 6.066955 2.215558 1.409904
v 6.230896 6.615076 1.228355
v 6.720671 12.238920 1.556831
v 4.290825 14.447484 0.990345
v -6.138731 12.366202 -1.680595
v -5.594079 2.405922 -1.527298
v -3.408272 14.211408 -1.056374
v -3.800966 0.685906 -1.138893
v -5.831408 6.446295 -2.044006
v 6.462549 11.749390 -0.677559
v 5.808082 2.766622 -0.616776
v 3.841384 13.856387 -0.486172
v 4.033926 0.933895 -0.512154
v 5.928915 6.446295 -1.079346
v 2.282522 11.982819 5.945496
v 2.027101 2.630157 5.369957
v 1.425457 13.991265 3.332874
v 1.420107 0.839594 3.614563
v 1.859659 6.446294 5.202637
v 0.078800 12.062414 -6.493187
v 0.032093 2.583580 -5.877792
v 0.166382 14.036751 -3.829269
v 0.061303 0.807874 -4.133415
v -0.066822 6.446293 -6.605835
v -2.340626 12.773198 -1.065155
v 0.948945 12.612471 -1.876602
v -1.973651 12.755275 1.181595
v 0.143660 12.651819 2.045349
v -0.430052 16.200205 1.464092
v 0.448915 15.818867 1.237312
v -0.788022 16.938740 0.977257
v 0.377528 17.053904 0.101048
v 0.983002 16.268181 0.529957
v 1.890453 12.566470 0.514275
v -1.214095 14.900726 0.164806
v -0.763654 14.620960 0.970520
v 0.219421 14.466607 0.983433
v 0.739810 14.676381 0.150341
v 0.029106 14.946307 -0.634071
v -0.134949 17.328865 3.178402
v 0.649131 17.749397 2.766331
v -0.307248 18.189047 3.033104
v 0.784899 18.368755 2.237690
v 0.590223 16.918736 2.794067
v 1.173458 17.441795 2.300442
v -2.703317 13.700857 3.027687
v -4.164929 11.936377 4.249260
v -4.000806 6.808185 3.717621
v -3.773702 2.759651 3.797379
v -2.888053 1.123554 3.133965
v -3.606811 0.026866 2.373497
v -4.908743 1.884492 3.036980
v -5.192127 6.614989 2.884071
v -5.384206 12.808634 3.404907
v -3.548408 14.814345 2.568069
v -1.998243 0.069457 3.942146
v -2.725540 1.942614 5.202377
v -2.953063 6.615008 5.173737
v -2.977771 12.709703 5.787132
v -2.051601 14.755096 4.020008
vt 0.207747 0.327119
vt 0.207747 0.327119
vt 0.207747 0.327119
vt 0.207747 0.327119
vt 0.207747 0.327119
vt 0.207747 0.327119
vt 0.207747 0.327119
vt 0.207747 0.327119
vt 0.207747 0.327119
vt 0.207747 0.327119
vt 0.207747 0.327119
vt 0.207747 0.327119
vt 0.207747 0.327119
vt 0.207747 0.327119
vt 0.207747 0.327119
vt 0.207747 0.327119
vt 0.207747 0.327119
vt 0.207747 0.327119
vt 0.207747 0.327119
vt 0.207747 0.327119
vt 0.207747 0.327119
vt 0.207747 0.327119
vt 0.207747 0.327119
vt 0.207747 0.327119
vt 0.207747 0.327119
vt 0.207747 0.327119
vt 0.207747 0.327119
vt 0.207747 0.327119
vt 0.207747 0.327119
vt 0.207747 0.327119
vt 0.207747 0.327119
vt 0.207747 0.327119
vt 0.207747 0.327119
vt 0.207747 0.327119
vt 0.207747 0.327119
vt 0.207747 0.327119
vt 0.207747 0.327120
vt 0.207747 0.327119
vt 0.207747 0.327119
vt 0.207747 0.327119
vt 0.207747 0.327119
vt 0.207747 0.327119
vt 0.207747 0.327120
vt 0.207747 0.327119
vt 0.207747 0.327119
vt 0.207747 0.327119
vt 0.207747 0.327119
vt 0.207747 0.327120
vt 0.207747 0.327119
vt 0.207747 0.327119
vt 0.207747 0.327119
vt 0.207747 0.327119
vt 0.207747 0.327120
vt 0.207747 0.327119
vt 0.207747 0.327119
vt 0.207747 0.327119
vt 0.207747 0.327119
vt 0.207747 0.327120
vt 0.207747 0.327119
vt 0.207747 0.327119
vt 0.207747 0.327119
vt 0.207747 0.327119
vt 0.144191 0.303631
vt 0.144191 0.303631
vt 0.144192 0.303631
vt 0.144191 0.303631
vt 0.144191 0.303631
vt 0.144192 0.303631
vt 0.144191 0.303631
vt 0.144191 0.303631
vt 0.144191 0.303631
vt 0.144191 0.303631
vt 0.144191 0.303631
vt 0.144191 0.303632
vt 0.144192 0.303632
vt 0.144191 0.303632
vt 0.144192 0.303632
vt 0.144192 0.303632
vt 0.144192 0.303631
vt 0.144191 0.303631
vt 0.144191 0.303631
vt 0.144192 0.303631
vt 0.144191 0.303631
vt 0.207747 0.327119
vt 0.207747 0.327119
vt 0.207747 0.327119
vt 0.207747 0.327119
vt 0.207747 0.327119
vt 0.207747 0.327119
vt 0.207747 0.327119
vt 0.207747 0.327119
vt 0.207747 0.327119
vt 0.207747 0.327119
vt 0.207747 0.327119
vt 0.207747 0.327119
vt 0.207747 0.327119
vt 0.207747 0.327119
vt 0.207747 0.327119
vn -0.625153 -0.106535 -0.773197
vn -0.625153 -0.106535 -0.773197
vn -0.625153 -0.106535 -0.773197
vn -0.625153 -0.106535 -0.773197
vn -0.438459 -0.681538 -0.585883
vn -0.438459 -0.681538 -0.585883
vn -0.438459 -0.681538 -0.585883
vn -0.438459 -0.681538 -0.585883
vn 0.587447 0.731951 0.345188
vn 0.587447 0.731951 0.345188
vn 0.587447 0.731950 0.345188
vn 0.587447 0.731950 0.345188
vn -0.812077 -0.035094 0.582494
vn -0.812077 -0.035094 0.582495
vn -0.812077 -0.035094 0.582494
vn -0.812077 -0.035094 0.582494
vn -0.810304 -0.520267 0.269683
vn -0.810304 -0.520267 0.269683
vn -0.810304 -0.520267 0.269683
vn -0.810304 -0.520267 0.269683
vn 0.469068 0.737420 -0.485991
vn 0.469068 0.737420 -0.485991
vn 0.469068 0.737420 -0.485991
vn 0.469068 0.737420 -0.485991
vn 0.840794 -0.004373 0.541338
vn 0.840794 -0.004373 0.541338
vn 0.840794 -0.004373 0.541338
vn 0.840794 -0.004373 0.541338
vn 0.643421 -0.659847 0.388087
vn 0.643421 -0.659847 0.388087
vn 0.643421 -0.659847 0.388087
vn 0.643421 -0.659847 0.388087
vn -0.361352 0.787485 -0.499292
vn -0.361352 0.787485 -0.499292
vn -0.361352 0.787485 -0.499292
vn -0.361352 0.787485 -0.499292
vn 0.666379 -0.077364 -0.741589
vn 0.666379 -0.077364 -0.741589
vn 0.666379 -0.077364 -0.741589
vn 0.666379 -0.077364 -0.741589
vn 0.514792 -0.650905 -0.557953
vn 0.514792 -0.650905 -0.557953
vn 0.514792 -0.650905 -0.557953
vn 0.514792 -0.650905 -0.557953
vn 0.835480 -0.107194 0.538965
vn 0.835480 -0.107194 0.538965
vn 0.835480 -0.107194 0.538965
vn 0.835480 -0.107194 0.538965
vn -0.792060 -0.075135 0.605802
vn -0.792059 -0.075135 0.605802
vn -0.792060 -0.075135 0.605802
vn -0.792060 -0.075135 0.605802
vn -0.629184 -0.005982 -0.777233
vn -0.629184 -0.005982 -0.777233
vn -0.629184 -0.005982 -0.777233
vn -0.629184 -0.005982 -0.777233
vn 0.666043 -0.045066 -0.744551
vn 0.666043 -0.045066 -0.744551
vn 0.666043 -0.045066 -0.744551
vn 0.666043 -0.045066 -0.744551
vn -0.193655 -0.970630 -0.142741
vn -0.193655 -0.970630 -0.142741
vn -0.193655 -0.970630 -0.142741
vn -0.471385 -0.751635 -0.461347
vn -0.471385 -0.751635 -0.461347
vn -0.471385 -0.751635 -0.461347
vn 0.188256 -0.961121 0.202006
vn 0.188256 -0.961121 0.202007
vn 0.188256 -0.961121 0.202006
vn -0.143347 -0.969212 0.200197
vn -0.143347 -0.969212 0.200197
vn -0.143347 -0.969212 0.200197
vn 0.242371 -0.876346 -0.416262
vn 0.242371 -0.876346 -0.416262
vn 0.242371 -0.876346 -0.416262
vn 0.039463 -0.920974 0.387619
vn 0.039463 -0.920974 0.387619
vn 0.039463 -0.920974 0.387619
vn -0.463788 0.749275 -0.472745
vn -0.463788 0.749275 -0.472745
vn -0.463788 0.749275 -0.472745
vn -0.463788 0.749275 -0.472745
vn -0.945672 -0.023357 -0.324282
vn -0.945672 -0.023357 -0.324281
vn -0.945672 -0.023357 -0.324281
vn -0.945672 -0.023357 -0.324282
vn -0.933339 -0.092539 -0.346865
vn -0.933339 -0.092539 -0.346865
vn -0.933339 -0.092539 -0.346865
vn -0.933339 -0.092539 -0.346865
vn -0.575359 -0.630293 -0.521241
vn -0.575359 -0.630293 -0.521241
vn -0.575359 -0.630293 -0.521241
vn -0.575359 -0.630293 -0.521241
vn 0.343518 0.853619 0.391573
vn 0.343518 0.853619 0.391573
vn 0.343518 0.853619 0.391573
vn 0.493439 0.850428 -0.182453
vn 0.493439 0.850428 -0.182453
vn 0.493439 0.850428 -0.182453
vn -0.726850 -0.681287 0.086818
vn -0.726850 -0.681287 0.086818
vn -0.726850 -0.681287 0.086818
vn -0.726850 -0.681287 0.086818
vn -0.982733 -0.080104 -0.166791
vn -0.982733 -0.080104 -0.166791
vn -0.982733 -0.080104 -0.166791
vn -0.982733 -0.080104 -0.166791
vn -0.981222 -0.029532 -0.190608
vn -0.981222 -0.029532 -0.190608
vn -0.981222 -0.029532 -0.190608
vn -0.981222 -0.029532 -0.190608
vn -0.638950 0.755709 0.143694
vn -0.638950 0.755709 0.143693
vn -0.638950 0.755709 0.143693
vn -0.638950 0.755709 0.143694
vn -0.787068 0.601302 0.137697
vn -0.787068 0.601302 0.137697
vn -0.787068 0.601302 0.137697
vn -0.787068 0.601302 0.137697
vn 0.056263 0.879204 -0.473112
vn 0.056263 0.879204 -0.473112
vn 0.056263 0.879204 -0.473112
vn -0.044843 -0.929361 0.366438
vn -0.044843 -0.929361 0.366438
vn -0.044843 -0.929361 0.366438
vn -0.117854 -0.900154 -0.419325
vn -0.117854 -0.900154 -0.419325
vn -0.117854 -0.900154 -0.419325
vn 0.677724 0.716221 0.166488
vn 0.677724 0.716221 0.166488
vn 0.677724 0.716221 0.166488
vn 0.677724 0.716221 0.166488
vn 0.990958 -0.086038 -0.102958
vn 0.990958 -0.086038 -0.102958
vn 0.990958 -0.086038 -0.102958
vn 0.990958 -0.086038 -0.102958
vn 0.995864 -0.040530 -0.081311
vn 0.995864 -0.040530 -0.081311
vn 0.995864 -0.040530 -0.081311
vn 0.995864 -0.040530 -0.081311
vn 0.749470 -0.646110 0.144352
vn 0.749470 -0.646110 0.144352
vn 0.749470 -0.646109 0.144352
vn 0.749470 -0.646110 0.144352
vn -0.320238 0.892557 0.317474
vn -0.320238 0.892557 0.317474
vn -0.320238 0.892557 0.317474
vn 0.714805 -0.603193 -0.353854
vn 0.714805 -0.603193 -0.353854
vn 0.714805 -0.603193 -0.353854
vn 0.714805 -0.603193 -0.353854
vn 0.990190 -0.045437 -0.132135
vn 0.990190 -0.045437 -0.132135
vn 0.990190 -0.045437 -0.132135
vn 0.990190 -0.045437 -0.132135
vn 0.990284 -0.085415 -0.109736
vn 0.990284 -0.085415 -0.109736
vn 0.990284 -0.085415 -0.109736
vn 0.990284 -0.085415 -0.109736
vn 0.628055 0.706789 -0.325571
vn 0.628055 0.706789 -0.325571
vn 0.628055 0.706789 -0.325571
vn 0.628055 0.706789 -0.325571
vn -0.373739 0.894747 -0.244433
vn -0.373739 0.894747 -0.244433
vn -0.373739 0.894747 -0.244433
vn -0.367853 0.892249 -0.261870
vn -0.367853 0.892249 -0.261869
vn -0.367853 0.892249 -0.261870
vn -0.392825 -0.918940 0.035181
vn -0.392825 -0.918940 0.035181
vn -0.392825 -0.918940 0.035181
vn 0.431886 -0.864509 -0.257096
vn 0.431886 -0.864509 -0.257096
vn 0.431886 -0.864509 -0.257096
vn 0.014053 0.743302 0.668808
vn 0.014053 0.743302 0.668808
vn 0.014053 0.743302 0.668808
vn 0.014053 0.743302 0.668808
vn 0.322115 -0.123057 0.938669
vn 0.322115 -0.123057 0.938669
vn 0.322115 -0.123057 0.938669
vn 0.322115 -0.123057 0.938669
vn 0.304334 0.020820 0.952338
vn 0.304334 0.020820 0.952338
vn 0.304334 0.020820 0.952338
vn 0.304334 0.020820 0.952338
vn 0.030796 -0.641325 0.766651
vn 0.030796 -0.641325 0.766651
vn 0.030796 -0.641325 0.766651
vn 0.030796 -0.641325 0.766651
vn -0.349343 0.894290 -0.279651
vn -0.349343 0.894290 -0.279651
vn -0.349343 0.894290 -0.279651
vn 0.576521 -0.608672 0.545107
vn 0.576521 -0.608672 0.545107
vn 0.576521 -0.608672 0.545107
vn 0.576521 -0.608672 0.545107
vn 0.439088 0.024260 0.898116
vn 0.439088 0.024260 0.898116
vn 0.439088 0.024260 0.898116
vn 0.439088 0.024260 0.898116
vn 0.407391 -0.122726 0.904970
vn 0.407391 -0.122726 0.904970
vn 0.407391 -0.122726 0.904970
vn 0.407391 -0.122726 0.904970
vn 0.537404 0.708232 0.457827
vn 0.537404 0.708232 0.457827
vn 0.537403 0.708232 0.457827
vn 0.537404 0.708232 0.457827
vn 0.182921 0.862925 -0.471063
vn 0.182921 0.862925 -0.471063
vn 0.182921 0.862925 -0.471063
vn -0.285330 0.881604 0.375981
vn -0.285330 0.881604 0.375981
vn -0.285330 0.881604 0.375981
vn 0.348537 0.854621 0.384895
vn 0.348537 0.854622 0.384895
vn 0.348537 0.854621 0.384895
vn 0.392766 -0.913447 0.106535
vn 0.392766 -0.913447 0.106535
vn 0.392766 -0.913447 0.106535
vn -0.364379 -0.924921 0.108394
vn -0.364379 -0.924921 0.108394
vn -0.364379 -0.924921 0.108394
vn 0.274401 0.731719 -0.623932
vn 0.274401 0.731719 -0.623932
vn 0.274401 0.731719 -0.623932
vn 0.274401 0.731719 -0.623932
vn -0.014820 0.006439 -0.999870
vn -0.014820 0.006439 -0.999869
vn -0.014820 0.006439 -0.999869
vn -0.014820 0.006439 -0.999869
vn 0.008475 -0.145685 -0.989295
vn 0.008475 -0.145685 -0.989295
vn 0.008475 -0.145685 -0.989295
vn 0.008475 -0.145685 -0.989295
vn 0.252535 -0.647058 -0.719404
vn 0.252535 -0.647058 -0.719404
vn 0.252535 -0.647058 -0.719404
vn 0.252535 -0.647058 -0.719404
vn 0.335865 0.856919 0.391006
vn 0.335865 0.856919 0.391006
vn 0.335865 0.856919 0.391006
vn -0.272004 -0.648631 -0.710839
vn -0.272004 -0.648631 -0.710839
vn -0.272004 -0.648631 -0.710839
vn -0.272004 -0.648631 -0.710839
vn -0.063006 -0.150530 -0.986596
vn -0.063006 -0.150530 -0.986596
vn -0.063006 -0.150530 -0.986596
vn -0.063006 -0.150530 -0.986596
vn -0.044398 0.007362 -0.998987
vn -0.044398 0.007362 -0.998987
vn -0.044398 0.007362 -0.998987
vn -0.044398 0.007362 -0.998987
vn -0.261046 0.744260 -0.614762
vn -0.261046 0.744260 -0.614762
vn -0.261046 0.744260 -0.614762
vn -0.261046 0.744260 -0.614762
vn -0.252703 0.885226 0.390533
vn -0.252702 0.885226 0.390533
vn -0.252703 0.885226 0.390533
vn 0.038013 -0.253739 0.966526
vn 0.038013 -0.253739 0.966526
vn 0.038013 -0.253739 0.966526
vn 0.038013 -0.253739 0.966526
vn 0.356234 0.224563 0.907011
vn 0.356234 0.224563 0.907011
vn 0.356234 0.224563 0.907011
vn -0.544934 0.380691 -0.747075
vn -0.544934 0.380691 -0.747075
vn -0.544934 0.380691 -0.747075
vn -0.544934 0.380691 -0.747075
vn 0.714689 0.094534 -0.693025
vn 0.714689 0.094534 -0.693025
vn 0.714689 0.094534 -0.693025
vn 0.714689 0.094534 -0.693025
vn -0.851474 -0.010476 0.524292
vn -0.851474 -0.010476 0.524292
vn -0.851474 -0.010476 0.524292
vn -0.851474 -0.010476 0.524292
vn 0.845920 -0.238463 0.477026
vn 0.845920 -0.238463 0.477026
vn 0.845920 -0.238463 0.477026
vn 0.845920 -0.238463 0.477026
vn 0.443594 0.523599 0.727371
vn 0.443594 0.523599 0.727371
vn 0.443594 0.523599 0.727371
vn -0.859158 0.433230 0.272323
vn -0.859158 0.433230 0.272323
vn -0.859158 0.433230 0.272323
vn -0.859158 0.433230 0.272323
vn -0.220979 0.386852 0.895273
vn -0.220979 0.386852 0.895273
vn -0.220979 0.386852 0.895273
vn -0.220979 0.386852 0.895273
vn 0.647218 0.410598 0.642276
vn 0.647218 0.410598 0.642276
vn 0.647218 0.410598 0.642276
vn 0.647218 0.410598 0.642276
vn 0.809180 0.451389 -0.376133
vn 0.809180 0.451389 -0.376133
vn 0.809180 0.451389 -0.376133
vn 0.809180 0.451389 -0.376133
vn -0.283885 0.474823 -0.833038
vn -0.283885 0.474823 -0.833038
vn -0.283885 0.474823 -0.833038
vn -0.283885 0.474823 -0.833038
vn 0.657015 -0.021431 0.753573
vn 0.657015 -0.021431 0.753573
vn 0.657015 -0.021431 0.753573
vn 0.728400 0.345385 0.591728
vn 0.728400 0.345385 0.591728
vn 0.728400 0.345385 0.591728
vn 0.466708 -0.003566 0.884404
vn 0.466708 -0.003566 0.884404
vn 0.466708 -0.003566 0.884404
vn -0.932306 -0.186770 0.309714
vn -0.932306 -0.186770 0.309714
vn -0.932306 -0.186770 0.309714
vn -0.932306 -0.186770 0.309714
vn -0.410619 0.813920 -0.411006
vn -0.410619 0.813920 -0.411006
vn -0.410619 0.813920 -0.411006
vn -0.410619 0.813920 -0.411006
vn 0.787083 -0.543045 0.292579
vn 0.787083 -0.543045 0.292579
vn 0.787083 -0.543045 0.292579
vn 0.787083 -0.543045 0.292579
vn 0.844865 0.383186 -0.373325
vn 0.844865 0.383186 -0.373325
vn 0.844865 0.383186 -0.373325
vn 0.844865 0.383186 -0.373325
vn -0.178458 -0.801925 0.570149
vn -0.178458 -0.801925 0.570149
vn -0.178458 -0.801925 0.570149
vn -0.178458 -0.801925 0.570149
vn 0.504926 0.858099 -0.093357
vn 0.504926 0.858099 -0.093357
vn 0.504926 0.858099 -0.093357
vn -0.624712 0.751067 0.213622
vn -0.624712 0.751067 0.213622
vn -0.624712 0.751067 0.213622
vn -0.624712 0.751067 0.213622
vn -0.923235 -0.055420 0.380219
vn -0.923235 -0.055420 0.380219
vn -0.923235 -0.055420 0.380219
vn -0.923235 -0.055420 0.380219
vn -0.920253 -0.042789 0.388979
vn -0.920253 -0.042789 0.388978
vn -0.920253 -0.042789 0.388979
vn -0.920253 -0.042789 0.388979
vn -0.707837 -0.652406 0.270801
vn -0.707837 -0.652406 0.270801
vn -0.707837 -0.652407 0.270801
vn -0.707837 -0.652406 0.270801
vn 0.553897 -0.688076 0.468774
vn 0.553897 -0.688076 0.468774
vn 0.553897 -0.688076 0.468774
vn -0.215117 -0.461558 0.860633
vn -0.215117 -0.461558 0.860633
vn -0.215117 -0.461558 0.860633
vn -0.215117 -0.461558 0.860633
vn -0.561826 -0.010747 0.827186
vn -0.561826 -0.010747 0.827186
vn -0.561826 -0.010747 0.827186
vn -0.561826 -0.010747 0.827186
vn -0.586358 -0.093249 0.804667
vn -0.586358 -0.093249 0.804667
vn -0.586358 -0.093249 0.804667
vn -0.586358 -0.093249 0.804667
vn -0.049602 0.511683 0.857741
vn -0.049602 0.511683 0.857741
vn -0.049602 0.511683 0.857741
vn -0.049602 0.511683 0.857741
vn -0.149279 -0.637911 0.755504
vn -0.149279 -0.637911 0.755504
vn -0.149279 -0.637911 0.755504
vn -0.149279 -0.637911 0.755504
vn -0.280435 -0.017942 0.959705
vn -0.280435 -0.017942 0.959705
vn -0.280435 -0.017942 0.959705
vn -0.280435 -0.017942 0.959705
vn -0.271375 -0.085245 0.958691
vn -0.271375 -0.085245 0.958691
vn -0.271375 -0.085245 0.958691
vn -0.271375 -0.085245 0.958691
vn -0.086664 0.727202 0.680931
vn -0.086664 0.727202 0.680931
vn -0.086664 0.727202 0.680931
vn -0.086664 0.727202 0.680931
vn 0.275816 -0.958380 -0.073708
vn 0.275816 -0.958380 -0.073708
vn 0.275816 -0.958380 -0.073708
vn 0.062291 -0.965105 -0.254347
vn 0.062291 -0.965105 -0.254347
vn 0.062291 -0.965105 -0.254347
vn 0.681944 0.653307 0.328849
vn 0.681944 0.653307 0.328849
vn 0.681944 0.653307 0.328849
vn -0.313247 0.746366 -0.587209
vn -0.313247 0.746366 -0.587209
vn -0.313247 0.746366 -0.587209
s off
f 16/27/1 29/1/2 30/2/3 15/26/4
f 17/31/5 28/5/6 29/1/7 16/27/8
f 3/8/9 4/9/10 41/23/11 42/24/12
f 86/86/13 87/87/14 95/95/15 96/96/16
f 87/87/17 88/88/18 94/94/19 95/95/20
f 8/18/21 9/19/22 36/34/23 37/35/24
f 6/7/25 39/21/26 40/22/27 5/6/28
f 7/10/29 38/25/30 39/21/31 6/7/32
f 13/29/33 14/30/34 31/3/35 32/4/36
f 11/17/37 34/32/38 35/33/39 10/16/40
f 12/20/41 33/36/42 34/32/43 11/17/44
f 5/6/45 40/22/46 41/23/47 4/9/48
f 85/85/49 86/86/50 96/96/51 97/97/52
f 15/26/53 30/2/54 31/3/55 14/30/56
f 10/16/57 35/33/58 36/34/59 9/19/60
f 2/37/61 38/25/62 7/10/63
f 2/37/64 94/94/65 88/88/66
f 2/37/67 28/5/68 17/31/69
f 2/37/70 33/36/71 12/20/72
f 2/37/73 23/39/74 46/43/75
f 46/43/76 28/5/77 2/37/78
f 43/44/79 26/41/80 27/42/81 45/45/82
f 25/40/83 26/41/84 43/44/85 47/46/86
f 24/38/87 25/40/88 47/46/89 44/47/90
f 23/39/91 24/38/92 44/47/93 46/43/94
f 1/28/95 32/4/96 45/45/97
f 45/45/98 27/42/99 1/28/100
f 44/47/101 29/1/102 28/5/103 46/43/104
f 47/46/105 30/2/106 29/1/107 44/47/108
f 43/44/109 31/3/110 30/2/111 47/46/112
f 32/4/113 31/3/114 43/44/115 45/45/116
f 84/84/117 85/85/118 97/97/119 98/98/120
f 1/28/121 98/98/122 22/14/123
f 2/37/124 12/20/125 51/48/126
f 51/48/127 38/25/128 2/37/129
f 48/49/130 9/19/131 8/18/132 50/50/133
f 10/16/134 9/19/135 48/49/136 52/51/137
f 11/17/138 10/16/139 52/51/140 49/52/141
f 12/20/142 11/17/143 49/52/144 51/48/145
f 50/50/146 8/18/147 1/28/148
f 49/52/149 39/21/150 38/25/151 51/48/152
f 52/51/153 40/22/154 39/21/155 49/52/156
f 48/49/157 41/23/158 40/22/159 52/51/160
f 42/24/161 41/23/162 48/49/163 50/50/164
f 1/28/165 42/24/166 50/50/167
f 3/8/168 42/24/169 1/28/170
f 2/37/171 7/10/172 56/53/173
f 56/53/174 18/15/175 2/37/176
f 53/54/177 4/9/178 3/8/179 55/55/180
f 5/6/181 4/9/182 53/54/183 57/56/184
f 6/7/185 5/6/186 57/56/187 54/57/188
f 7/10/189 6/7/190 54/57/191 56/53/192
f 55/55/193 3/8/194 1/28/195
f 54/57/196 19/11/197 18/15/198 56/53/199
f 57/56/200 20/12/201 19/11/202 54/57/203
f 53/54/204 21/13/205 20/12/206 57/56/207
f 22/14/208 21/13/209 53/54/210 55/55/211
f 1/28/212 22/14/213 55/55/214
f 8/18/215 37/35/216 1/28/217
f 13/29/218 32/4/219 1/28/220
f 2/37/221 17/31/222 61/58/223
f 61/58/224 33/36/225 2/37/226
f 58/59/227 14/30/228 13/29/229 60/60/230
f 15/26/231 14/30/232 58/59/233 62/61/234
f 16/27/235 15/26/236 62/61/237 59/62/238
f 17/31/239 16/27/240 59/62/241 61/58/242
f 60/60/243 13/29/244 1/28/245
f 59/62/246 34/32/247 33/36/248 61/58/249
f 62/61/250 35/33/251 34/32/252 59/62/253
f 58/59/254 36/34/255 35/33/256 62/61/257
f 37/35/258 36/34/259 58/59/260 60/60/261
f 1/28/262 37/35/263 60/60/264
f 74/63/265 75/64/266 68/65/267 67/66/268
f 78/80/269 79/67/270 80/79/271
f 69/68/272 70/69/273 77/70/274 73/71/275
f 76/72/276 77/70/277 70/69/278 71/73/279
f 69/68/280 73/71/281 74/63/282 67/66/283
f 75/64/284 76/72/285 71/73/286 68/65/287
f 80/79/288 79/67/289 81/81/290
f 74/63/291 73/71/292 63/74/293 65/75/294
f 65/75/295 66/76/296 75/64/297 74/63/298
f 72/77/299 76/72/300 75/64/301 66/76/302
f 64/78/303 77/70/304 76/72/305 72/77/306
f 73/71/307 77/70/308 64/78/309 63/74/310
f 79/67/311 82/82/312 83/83/313
f 81/81/314 79/67/315 83/83/316
f 78/80/317 82/82/318 79/67/319
f 69/68/320 67/66/321 78/80/322 80/79/323
f 70/69/324 69/68/325 80/79/326 81/81/327
f 68/65/328 71/73/329 83/83/330 82/82/331
f 71/73/332 70/69/333 81/81/334 83/83/335
f 67/66/336 68/65/337 82/82/338 78/80/339
f 27/42/340 93/93/341 1/28/342
f 27/42/343 26/41/344 92/92/345 93/93/346
f 25/40/347 91/91/348 92/92/349 26/41/350
f 24/38/351 90/90/352 91/91/353 25/40/354
f 23/39/355 89/89/356 90/90/357 24/38/358
f 2/37/359 88/88/360 89/89/361
f 90/90/362 89/89/363 88/88/364 87/87/365
f 91/91/366 90/90/367 87/87/368 86/86/369
f 92/92/370 91/91/371 86/86/372 85/85/373
f 93/93/374 92/92/375 85/85/376 84/84/377
f 95/95/378 94/94/379 18/15/380 19/11/381
f 96/96/382 95/95/383 19/11/384 20/12/385
f 97/97/386 96/96/387 20/12/388 21/13/389
f 98/98/390 97/97/391 21/13/392 22/14/393
f 2/37/394 89/89/395 23/39/396
f 2/37/397 18/15/398 94/94/399
f 1/28/400 93/93/401 84/84/402
f 1/28/403 84/84/404 98/98/405
