# This file uses centimeters as units for non-parametric coordinates.

v -13.774511 -6.476177 2.111224
v 13.774511 -6.476177 2.111224
v -13.774511 6.476177 2.111224
v 13.774511 6.476177 2.111224
v -13.774511 6.476177 0.000000
v 13.774511 6.476177 0.000000
v -13.774511 -6.476177 0.000000
v 13.774511 -6.476177 0.000000
vt 0.460184 0.892033
vt 0.460184 0.892033
vt 0.460184 0.892033
vt 0.460184 0.892033
vt 0.460184 0.892033
vt 0.460184 0.892033
vt 0.460184 0.892033
vt 0.460184 0.892033
vt 0.460184 0.892033
vt 0.460184 0.892033
vt 0.460184 0.892033
vt 0.460184 0.892033
vt 0.460184 0.892033
vt 0.460184 0.892033
vt 0.460015 0.829359
vt 0.529045 0.829359
vt 0.529045 0.860556
vt 0.460015 0.860556
vn 0.000000 0.000000 1.000000
vn 0.000000 0.000000 1.000000
vn 0.000000 0.000000 1.000000
vn 0.000000 0.000000 1.000000
vn 0.000000 1.000000 0.000000
vn 0.000000 1.000000 0.000000
vn 0.000000 1.000000 0.000000
vn 0.000000 1.000000 0.000000
vn 0.000000 0.000000 -1.000000
vn 0.000000 0.000000 -1.000000
vn 0.000000 0.000000 -1.000000
vn 0.000000 0.000000 -1.000000
vn 0.000000 -1.000000 0.000000
vn 0.000000 -1.000000 0.000000
vn 0.000000 -1.000000 0.000000
vn 0.000000 -1.000000 0.000000
vn 1.000000 0.000000 0.000000
vn 1.000000 0.000000 0.000000
vn 1.000000 0.000000 0.000000
vn 1.000000 0.000000 0.000000
vn -1.000000 0.000000 0.000000
vn -1.000000 0.000000 0.000000
vn -1.000000 0.000000 0.000000
vn -1.000000 0.000000 0.000000
s off
f 1/15/1 2/16/2 4/17/3 3/18/4
f 3/3/5 4/4/6 6/6/7 5/5/8
f 5/5/9 6/6/10 8/8/11 7/7/12
f 7/7/13 8/8/14 2/10/15 1/9/16
f 2/2/17 8/11/18 6/12/19 4/4/20
f 7/13/21 1/1/22 3/3/23 5/14/24
