# This file uses centimeters as units for non-parametric coordinates.

v -0.815620 1.658068 -2.160110
v 1.105957 1.717787 -2.219276
v -1.506557 4.409018 -21.830296
v 0.415020 4.468737 -21.889420
v -1.429958 1.546192 -22.233349
v 0.491600 1.605940 -22.292484
v -0.739059 -1.204729 -2.563171
v 1.182518 -1.145010 -2.622337
v -1.707993 5.211153 -27.565533
v 0.213585 5.270863 -27.624664
v 0.290146 2.408066 -28.027721
v -1.631432 2.348347 -27.968597
v -1.337929 -3.135109 -23.969730
v 0.583649 -3.075399 -24.028893
v -1.465168 -2.628536 -27.592007
v 0.456429 -2.568827 -27.651176
v -0.707302 -2.160616 -2.497177
v 1.214275 -2.100897 -2.556305
v 1.088028 2.618561 -1.891861
v -0.833549 2.558851 -1.832733
v -0.548019 -2.794867 2.037773
v 1.373558 -2.735157 1.978607
v 1.247311 1.984329 2.643089
v -0.674248 1.924610 2.702255
v 1.225376 -1.007681 -1.091576
v 1.167240 1.165857 -0.785561
v 1.236210 0.891161 1.178360
v 1.294346 -1.282406 0.872307
v 1.791630 -0.673103 -0.729942
v 1.752911 0.774603 -0.526123
v 1.798859 0.591679 0.781975
v 1.837578 -0.856018 0.578117
vt 0.138764 0.416469
vt 0.138764 0.416469
vt 0.138764 0.416469
vt 0.138764 0.416469
vt 0.138764 0.416469
vt 0.138764 0.416469
vt 0.138764 0.416469
vt 0.138764 0.416469
vt 0.138764 0.416469
vt 0.138764 0.416469
vt 0.138763 0.416469
vt 0.138763 0.416469
vt 0.138764 0.416469
vt 0.138764 0.416469
vt 0.138764 0.416469
vt 0.138764 0.416469
vt 0.138764 0.416469
vt 0.138764 0.416469
vt 0.138764 0.416469
vt 0.138764 0.416469
vt 0.138764 0.416469
vt 0.138764 0.416469
vt 0.138764 0.416469
vt 0.138764 0.416469
vt 0.138764 0.416469
vt 0.138764 0.416469
vt 0.138764 0.416469
vt 0.138764 0.416469
vt 0.138764 0.416469
vt 0.138764 0.416469
vt 0.138764 0.416469
vt 0.138764 0.416469
vt 0.138764 0.416469
vt 0.138764 0.416469
vt 0.079807 0.255082
vt 0.079807 0.255082
vt 0.079807 0.255082
vt 0.079807 0.255082
vt 0.079807 0.255082
vt 0.079807 0.255082
vt 0.079807 0.255082
vt 0.079807 0.255082
vn -0.026474 0.989886 0.139369
vn -0.026474 0.989887 0.139369
vn -0.026474 0.989887 0.139369
vn -0.026474 0.989886 0.139369
vn -0.034758 0.138422 -0.989763
vn -0.034758 0.138422 -0.989763
vn -0.034758 0.138422 -0.989763
vn -0.034758 0.138422 -0.989763
vn 0.026481 -0.989886 -0.139369
vn 0.026481 -0.989886 -0.139369
vn 0.026481 -0.989886 -0.139369
vn 0.026481 -0.989886 -0.139369
vn 0.034777 -0.138424 0.989762
vn 0.034777 -0.138424 0.989762
vn 0.034777 -0.138424 0.989762
vn 0.034777 -0.138424 0.989762
vn 0.999045 0.031051 -0.030750
vn 0.999045 0.031051 -0.030750
vn 0.999045 0.031051 -0.030750
vn 0.999045 0.031051 -0.030750
vn -0.999045 -0.031054 0.030749
vn -0.999045 -0.031054 0.030749
vn -0.999045 -0.031054 0.030749
vn -0.999045 -0.031054 0.030749
vn -0.026473 0.989886 0.139375
vn -0.026473 0.989886 0.139375
vn -0.026473 0.989886 0.139375
vn -0.026473 0.989886 0.139375
vn 0.999045 0.031050 -0.030748
vn 0.999045 0.031050 -0.030748
vn 0.999045 0.031050 -0.030748
vn 0.999045 0.031050 -0.030748
vn 0.026468 -0.989887 -0.139365
vn 0.026468 -0.989887 -0.139365
vn 0.026468 -0.989887 -0.139365
vn 0.026468 -0.989887 -0.139365
vn -0.999045 -0.031054 0.030749
vn -0.999045 -0.031054 0.030749
vn -0.999045 -0.031054 0.030749
vn -0.999045 -0.031054 0.030749
vn 0.039626 -0.346809 0.937098
vn 0.039626 -0.346809 0.937098
vn 0.039626 -0.346809 0.937098
vn 0.039626 -0.346809 0.937098
vn -0.999045 -0.031048 0.030752
vn -0.999045 -0.031048 0.030752
vn -0.999045 -0.031048 0.030752
vn -0.999045 -0.031048 0.030752
vn -0.028305 -0.076358 -0.996679
vn -0.028305 -0.076358 -0.996679
vn -0.028305 -0.076358 -0.996679
vn -0.028305 -0.076358 -0.996679
vn 0.999045 0.031051 -0.030748
vn 0.999045 0.031051 -0.030748
vn 0.999045 0.031051 -0.030748
vn 0.999045 0.031051 -0.030748
vn -0.028523 -0.069811 -0.997152
vn -0.028523 -0.069811 -0.997152
vn -0.028523 -0.069811 -0.997152
vn -0.028523 -0.069811 -0.997152
vn 0.999044 0.031053 -0.030763
vn 0.999044 0.031053 -0.030763
vn 0.999044 0.031053 -0.030763
vn 0.999044 0.031053 -0.030763
vn -0.039500 0.340635 -0.939366
vn -0.039499 0.340635 -0.939366
vn -0.039499 0.340635 -0.939366
vn -0.039499 0.340635 -0.939366
vn -0.999044 -0.031054 0.030770
vn -0.999044 -0.031054 0.030770
vn -0.999044 -0.031054 0.030770
vn -0.999044 -0.031054 0.030770
vn 0.026471 -0.989886 -0.139375
vn 0.026471 -0.989886 -0.139375
vn 0.026471 -0.989886 -0.139375
vn 0.026471 -0.989886 -0.139375
vn 0.999045 0.031049 -0.030751
vn 0.999045 0.031049 -0.030751
vn 0.999045 0.031049 -0.030751
vn 0.999045 0.031049 -0.030751
vn -0.026472 0.989887 0.139370
vn -0.026472 0.989887 0.139370
vn -0.026472 0.989886 0.139370
vn -0.026472 0.989886 0.139370
vn -0.999045 -0.031052 0.030749
vn -0.999045 -0.031052 0.030749
vn -0.999045 -0.031052 0.030749
vn -0.999045 -0.031052 0.030749
vn 0.999045 0.031053 -0.030752
vn 0.999045 0.031053 -0.030752
vn 0.999045 0.031053 -0.030752
vn 0.999045 0.031053 -0.030752
vn 0.999045 0.031057 -0.030745
vn 0.999045 0.031057 -0.030745
vn 0.999045 0.031057 -0.030745
vn 0.999045 0.031057 -0.030745
vn 0.999045 0.031053 -0.030751
vn 0.999045 0.031053 -0.030751
vn 0.999045 0.031053 -0.030751
vn 0.999045 0.031053 -0.030751
vn 0.999045 0.031055 -0.030745
vn 0.999045 0.031055 -0.030745
vn 0.999045 0.031055 -0.030745
vn 0.999045 0.031055 -0.030745
vn 0.475367 0.135110 -0.869351
vn 0.475367 0.135110 -0.869351
vn 0.475367 0.135110 -0.869351
vn 0.475367 0.135110 -0.869351
vn 0.521606 0.847285 0.100181
vn 0.521606 0.847285 0.100181
vn 0.521606 0.847285 0.100181
vn 0.521606 0.847285 0.100181
vn 0.535347 -0.103714 0.838241
vn 0.535347 -0.103714 0.838241
vn 0.535347 -0.103714 0.838241
vn 0.535347 -0.103714 0.838241
vn 0.566055 -0.813460 -0.133658
vn 0.566055 -0.813460 -0.133658
vn 0.566055 -0.813460 -0.133658
vn 0.566055 -0.813460 -0.133658
s off
f 1/1/1 2/2/2 4/4/3 3/3/4
f 9/15/5 10/16/6 11/17/7 12/18/8
f 5/5/9 6/6/10 8/8/11 7/7/12
f 21/27/13 22/28/14 23/29/15 24/30/16
f 2/2/17 8/11/18 6/12/19 4/4/20
f 7/13/21 1/1/22 3/3/23 5/14/24
f 3/3/25 4/4/26 10/16/27 9/15/28
f 4/4/29 6/6/30 11/17/31 10/16/32
f 14/19/33 13/20/34 15/21/35 16/22/36
f 5/5/37 3/3/38 9/15/39 12/18/40
f 6/6/41 5/5/42 13/20/43 14/19/44
f 5/5/45 12/18/46 15/21/47 13/20/48
f 12/18/49 11/17/50 16/22/51 15/21/52
f 11/17/53 6/6/54 14/19/55 16/22/56
f 7/7/57 8/8/58 18/24/59 17/23/60
f 8/8/61 2/10/62 19/25/63 18/24/64
f 2/10/65 1/9/66 20/26/67 19/25/68
f 1/9/69 7/7/70 17/23/71 20/26/72
f 17/23/73 18/24/74 22/28/75 21/27/76
f 29/35/77 30/36/78 31/37/79 32/38/80
f 19/25/81 20/26/82 24/30/83 23/29/84
f 20/26/85 17/23/86 21/27/87 24/30/88
f 18/24/89 19/25/90 26/32/91 25/31/92
f 19/25/93 23/29/94 27/33/95 26/32/96
f 23/29/97 22/28/98 28/34/99 27/33/100
f 22/28/101 18/24/102 25/31/103 28/34/104
f 25/39/105 26/40/106 30/36/107 29/35/108
f 26/40/109 27/41/110 31/37/111 30/36/112
f 27/41/113 28/42/114 32/38/115 31/37/116
f 28/42/117 25/39/118 29/35/119 32/38/120
