# This file uses centimeters as units for non-parametric coordinates.

v 0.121323 9.298914 1.125006
v 1.036087 9.298914 -0.701748
v -1.039642 9.298914 -0.620727
v 0.641312 11.237714 -0.339031
v 0.063370 11.237714 0.731110
v -0.647400 11.237714 -0.288723
v -2.996597 0.253854 -1.660568
v -0.184402 0.000000 -3.046326
v 2.733963 0.135430 -1.755299
v 2.996628 0.000000 1.660572
v 0.083481 0.593899 2.644109
v -2.733932 0.000000 1.755302
v -5.501678 2.531034 -2.837371
v -0.426208 2.211941 -5.989887
v 4.816414 2.448817 -3.620247
v 5.031502 2.211941 1.966251
v 0.267303 2.575669 5.255189
v -4.538055 2.211941 2.972248
v -6.160248 6.552585 -3.052777
v -0.482773 6.552585 -6.412146
v 5.567665 6.222437 -3.917610
v 5.929008 6.015833 2.329323
v 0.446960 6.404332 5.516074
v -5.138123 6.552585 3.141924
v -4.443771 9.634536 -2.579891
v -0.319168 9.506994 -5.125108
v 4.498329 9.340919 -2.867982
v 4.603622 9.340919 1.955150
v 0.383820 8.733306 4.497540
v -3.580627 9.459199 2.613342
v -2.581390 10.596293 -1.483742
v -0.230515 10.638640 -2.993111
v 2.337112 10.824626 -1.492494
v 2.562973 10.824626 1.444785
v 0.105347 10.032954 2.293247
v -2.355560 10.588799 1.453533
v 0.000015 -0.043007 -0.141440
v 0.180267 9.495005 0.000000
v 1.002228 -0.161574 -0.672551
v -0.775467 -0.222814 -0.972727
v 0.140900 0.064485 0.761357
v 0.775116 10.534520 2.440239
v 1.537949 9.303494 4.420625
v 1.867889 6.552585 5.932521
v 1.662262 2.471797 5.294807
v 0.908936 0.194628 2.884457
v -0.586563 0.114070 2.592139
v -1.058594 2.436914 5.297906
v -0.888290 6.552585 5.903155
v -0.636688 9.184670 4.639030
v -0.363342 10.317835 2.404377
vt 0.035582 0.229351
vt 0.035582 0.229351
vt 0.035582 0.229351
vt 0.035582 0.229351
vt 0.035582 0.229351
vt 0.035582 0.229351
vt 0.035582 0.229351
vt 0.035582 0.229351
vt 0.035582 0.229351
vt 0.035582 0.229351
vt 0.189329 0.190375
vt 0.189329 0.190375
vt 0.189329 0.190375
vt 0.189329 0.190375
vt 0.189329 0.190375
vt 0.189329 0.190375
vt 0.189329 0.190375
vt 0.189329 0.190375
vt 0.189329 0.190375
vt 0.189329 0.190375
vt 0.189329 0.190375
vt 0.189329 0.190375
vt 0.189329 0.190375
vt 0.189329 0.190375
vt 0.189329 0.190375
vt 0.189329 0.190375
vt 0.189329 0.190375
vt 0.189329 0.190375
vt 0.189329 0.190375
vt 0.189329 0.190375
vt 0.189329 0.190375
vt 0.189329 0.190375
vt 0.189329 0.190375
vt 0.189329 0.190375
vt 0.189329 0.190375
vt 0.189329 0.190375
vt 0.189329 0.190375
vt 0.189329 0.190375
vt 0.189329 0.190375
vt 0.189329 0.190375
vt 0.189329 0.190375
vt 0.189329 0.190375
vt 0.189329 0.190375
vt 0.189329 0.190375
vt 0.189329 0.190375
vt 0.016557 0.252766
vt 0.016557 0.252766
vt 0.016557 0.252766
vt 0.189329 0.190375
vt 0.189329 0.190375
vt 0.189329 0.190375
vt 0.189329 0.190375
vt 0.189329 0.190375
vt 0.016557 0.252766
vt 0.189329 0.190375
vt 0.189329 0.190375
vt 0.189329 0.190375
vt 0.189329 0.190375
vt 0.189329 0.190375
vt 0.189329 0.190375
vt 0.189329 0.190375
vt 0.189329 0.190375
vt 0.189329 0.190375
vt 0.189329 0.190375
vt 0.189329 0.190375
vt 0.189329 0.190375
vt 0.189329 0.190375
vt 0.189329 0.190375
vt 0.189329 0.190375
vt 0.189329 0.190375
vt 0.189329 0.190375
vt 0.189329 0.190375
vt 0.189329 0.190375
vt 0.189329 0.190375
vt 0.189329 0.190375
vn 0.883839 0.106855 0.455423
vn 0.883839 0.106855 0.455423
vn 0.883839 0.106855 0.455423
vn 0.883839 0.106855 0.455423
vn -0.825497 0.080084 0.558696
vn -0.825497 0.080084 0.558696
vn -0.825497 0.080084 0.558696
vn -0.825497 0.080084 0.558696
vn -0.038394 0.176200 -0.983605
vn -0.038394 0.176200 -0.983605
vn -0.038394 0.176200 -0.983605
vn -0.038394 0.176200 -0.983605
vn -0.374571 -0.740886 -0.557481
vn -0.374571 -0.740886 -0.557481
vn -0.374571 -0.740886 -0.557481
vn -0.374571 -0.740886 -0.557481
vn 0.299159 -0.749368 -0.590722
vn 0.299159 -0.749368 -0.590722
vn 0.299159 -0.749368 -0.590722
vn 0.299159 -0.749368 -0.590722
vn 0.726439 -0.683973 -0.066839
vn 0.726439 -0.683973 -0.066839
vn 0.726439 -0.683973 -0.066839
vn 0.726439 -0.683973 -0.066839
vn -0.244720 -0.716438 0.653321
vn -0.244720 -0.716438 0.653321
vn -0.244720 -0.716438 0.653321
vn -0.244720 -0.716438 0.653321
vn 0.229662 -0.750309 0.619913
vn 0.229662 -0.750309 0.619913
vn 0.229662 -0.750309 0.619913
vn 0.229662 -0.750309 0.619913
vn -0.720175 -0.691783 0.052765
vn -0.720175 -0.691783 0.052765
vn -0.720175 -0.691783 0.052765
vn -0.720175 -0.691783 0.052765
vn -0.517287 -0.108968 -0.848846
vn -0.517287 -0.108968 -0.848846
vn -0.517287 -0.108968 -0.848846
vn -0.517287 -0.108968 -0.848846
vn 0.392187 -0.114523 -0.912729
vn 0.392187 -0.114523 -0.912729
vn 0.392187 -0.114523 -0.912729
vn 0.392187 -0.114523 -0.912729
vn 0.975732 -0.211824 -0.055468
vn 0.975732 -0.211824 -0.055468
vn 0.975732 -0.211824 -0.055468
vn 0.975732 -0.211824 -0.055468
vn -0.157416 -0.103904 0.982051
vn -0.157416 -0.103904 0.982051
vn -0.157416 -0.103904 0.982051
vn -0.157416 -0.103904 0.982051
vn 0.158008 -0.113898 0.980847
vn 0.158008 -0.113898 0.980847
vn 0.158008 -0.113898 0.980847
vn 0.158008 -0.113898 0.980847
vn -0.976620 -0.146134 0.157667
vn -0.976620 -0.146134 0.157667
vn -0.976620 -0.146134 0.157667
vn -0.976620 -0.146134 0.157667
vn -0.473813 0.379288 -0.794759
vn -0.473813 0.379288 -0.794759
vn -0.473813 0.379288 -0.794759
vn -0.473813 0.379288 -0.794759
vn 0.384951 0.380881 -0.840680
vn 0.384951 0.380881 -0.840680
vn 0.384951 0.380881 -0.840680
vn 0.384951 0.380881 -0.840680
vn 0.935721 0.351204 -0.032889
vn 0.935721 0.351204 -0.032889
vn 0.935721 0.351204 -0.032889
vn 0.935721 0.351204 -0.032889
vn -0.232659 0.419153 0.877599
vn -0.232659 0.419153 0.877599
vn -0.232659 0.419153 0.877599
vn -0.232659 0.419153 0.877599
vn 0.295003 0.390119 0.872227
vn 0.295003 0.390119 0.872227
vn 0.295003 0.390119 0.872227
vn 0.295003 0.390119 0.872227
vn -0.866807 0.475289 0.150818
vn -0.866807 0.475289 0.150818
vn -0.866807 0.475289 0.150818
vn -0.866807 0.475289 0.150818
vn -0.249216 0.874363 -0.416390
vn -0.249216 0.874363 -0.416390
vn -0.249216 0.874363 -0.416390
vn -0.249216 0.874363 -0.416390
vn 0.243571 0.840976 -0.483148
vn 0.243571 0.840976 -0.483148
vn 0.243571 0.840976 -0.483148
vn 0.243571 0.840976 -0.483148
vn 0.573325 0.818963 -0.024465
vn 0.573325 0.818963 -0.024465
vn 0.573325 0.818963 -0.024465
vn 0.573325 0.818963 -0.024465
vn -0.441067 0.715148 0.542238
vn -0.441068 0.715148 0.542238
vn -0.441068 0.715148 0.542238
vn -0.441068 0.715148 0.542238
vn 0.457936 0.779803 0.426851
vn 0.457936 0.779803 0.426851
vn 0.457936 0.779803 0.426851
vn 0.457936 0.779803 0.426851
vn -0.557066 0.825226 0.093169
vn -0.557066 0.825226 0.093169
vn -0.557066 0.825226 0.093169
vn -0.557066 0.825226 0.093169
vn -0.002406 -0.976928 0.213554
vn -0.002406 -0.976928 0.213554
vn -0.002406 -0.976928 0.213553
vn -0.050521 -0.990762 0.125849
vn -0.050521 -0.990762 0.125849
vn -0.050521 -0.990762 0.125849
vn 0.123600 -0.987453 0.098283
vn 0.123600 -0.987453 0.098283
vn 0.123600 -0.987453 0.098283
vn 0.193247 0.925076 0.326940
vn 0.193247 0.925076 0.326940
vn 0.193247 0.925076 0.326940
vn -0.283638 0.882147 0.375987
vn -0.283638 0.882147 0.375987
vn -0.283638 0.882147 0.375987
vn -0.504770 0.862381 0.038814
vn -0.504770 0.862381 0.038814
vn -0.504770 0.862381 0.038814
vn -0.556955 0.804364 -0.206883
vn -0.556955 0.804363 -0.206883
vn -0.556955 0.804364 -0.206883
vn 0.477816 0.858587 -0.185796
vn 0.477816 0.858587 -0.185796
vn 0.477816 0.858587 -0.185796
vn 0.382793 0.923437 -0.027075
vn 0.382793 0.923437 -0.027075
vn 0.382793 0.923437 -0.027075
vn 0.077508 -0.991317 -0.106221
vn 0.077508 -0.991317 -0.106221
vn 0.077508 -0.991317 -0.106221
vn 0.077508 -0.991317 -0.106221
vn -0.162469 -0.975078 -0.151085
vn -0.162469 -0.975078 -0.151085
vn -0.162469 -0.975078 -0.151085
vn -0.079129 -0.996561 0.024588
vn -0.079129 -0.996561 0.024588
vn -0.079129 -0.996561 0.024588
vn -0.079129 -0.996561 0.024588
vn 0.552600 -0.797787 0.241184
vn 0.552600 -0.797787 0.241184
vn 0.552600 -0.797787 0.241184
vn -0.476518 -0.850022 0.224486
vn -0.476518 -0.850022 0.224486
vn -0.476518 -0.850022 0.224486
vn 0.138463 -0.989112 -0.049863
vn 0.138463 -0.989112 -0.049863
vn 0.138463 -0.989112 -0.049863
vn -0.315914 0.898217 -0.305621
vn -0.315914 0.898217 -0.305621
vn -0.315914 0.898217 -0.305621
vn 0.313887 0.797242 0.515636
vn 0.313887 0.797242 0.515636
vn 0.313887 0.797242 0.515636
vn 0.313887 0.797242 0.515636
vn 0.614588 0.381727 0.690338
vn 0.614588 0.381727 0.690338
vn 0.614588 0.381727 0.690338
vn 0.614588 0.381727 0.690338
vn 0.659739 -0.184761 0.728428
vn 0.659739 -0.184761 0.728428
vn 0.659739 -0.184761 0.728428
vn 0.659739 -0.184761 0.728428
vn 0.453917 -0.650412 0.609035
vn 0.453917 -0.650412 0.609035
vn 0.453917 -0.650412 0.609035
vn 0.453917 -0.650412 0.609035
vn -0.053334 -0.993745 0.098116
vn -0.053334 -0.993745 0.098116
vn -0.053334 -0.993745 0.098116
vn -0.053334 -0.993745 0.098116
vn 0.036802 -0.998454 0.041666
vn 0.036802 -0.998454 0.041666
vn 0.036802 -0.998454 0.041666
vn -0.313991 -0.706368 0.634392
vn -0.313991 -0.706368 0.634392
vn -0.313991 -0.706368 0.634392
vn -0.313991 -0.706368 0.634392
vn -0.544664 -0.103941 0.832189
vn -0.544664 -0.103941 0.832188
vn -0.544664 -0.103941 0.832188
vn -0.544664 -0.103941 0.832188
vn -0.494485 0.409639 0.766603
vn -0.494485 0.409639 0.766603
vn -0.494485 0.409639 0.766603
vn -0.494485 0.409639 0.766603
vn -0.196503 0.853671 0.482320
vn -0.196503 0.853671 0.482320
vn -0.196503 0.853671 0.482320
vn -0.196503 0.853671 0.482320
vn 0.251731 0.931679 -0.261926
vn 0.251731 0.931679 -0.261926
vn 0.251731 0.931679 -0.261926
vn 0.000000 1.000000 0.000001
vn 0.000000 1.000000 0.000001
vn 0.000000 1.000000 0.000001
s off
f 2/5/1 4/6/2 5/8/3 1/1/4
f 6/10/5 3/4/6 1/1/7 5/8/8
f 4/7/9 2/2/10 3/3/11 6/9/12
f 7/11/13 13/14/14 14/13/15 8/12/16
f 8/12/17 14/13/18 15/16/19 9/15/20
f 9/15/21 15/16/22 16/18/23 10/17/24
f 45/68/25 17/20/26 11/19/27 46/69/28
f 11/19/29 17/20/30 48/71/31 47/70/32
f 12/21/33 18/22/34 13/24/35 7/23/36
f 13/14/37 19/26/38 20/25/39 14/13/40
f 14/13/41 20/25/42 21/27/43 15/16/44
f 15/16/45 21/27/46 22/28/47 16/18/48
f 44/67/49 23/29/50 17/20/51 45/68/52
f 17/20/53 23/29/54 49/73/55 48/71/56
f 18/22/57 24/30/58 19/31/59 13/24/60
f 19/32/61 25/35/62 26/34/63 20/33/64
f 20/33/65 26/34/66 27/37/67 21/36/68
f 21/36/69 27/37/70 28/39/71 22/38/72
f 43/65/73 29/41/74 23/40/75 44/66/76
f 23/40/77 29/41/78 50/74/79 49/72/80
f 24/42/81 30/43/82 25/35/83 19/32/84
f 25/35/85 31/45/86 32/44/87 26/34/88
f 26/34/89 32/44/90 33/49/91 27/37/92
f 27/37/93 33/49/94 34/50/95 28/39/96
f 42/64/97 35/51/98 29/41/99 43/65/100
f 29/41/101 35/51/102 51/75/103 50/74/104
f 30/43/105 36/52/106 31/45/107 25/35/108
f 39/46/109 37/48/110 40/47/111
f 41/54/112 37/48/113 39/46/114
f 40/47/115 37/48/116 41/54/117
f 31/45/118 38/53/119 32/44/120
f 32/44/121 38/53/122 33/49/123
f 33/49/124 38/53/125 34/50/126
f 38/53/127 35/51/128 42/64/129
f 35/51/130 38/53/131 51/75/132
f 36/52/133 38/53/134 31/45/135
f 9/15/136 39/55/137 40/58/138 8/12/139
f 8/12/140 40/57/141 7/11/142
f 7/23/143 40/59/144 41/61/145 12/21/146
f 41/60/147 11/19/148 47/70/149
f 11/19/150 41/62/151 46/69/152
f 10/17/153 39/56/154 9/15/155
f 34/50/156 38/53/157 42/64/158
f 28/39/159 34/50/160 42/64/161 43/65/162
f 22/38/163 28/39/164 43/65/165 44/66/166
f 16/18/167 22/28/168 44/67/169 45/68/170
f 10/17/171 16/18/172 45/68/173 46/69/174
f 41/62/175 39/63/176 10/17/177 46/69/178
f 12/21/179 41/60/180 47/70/181
f 48/71/182 18/22/183 12/21/184 47/70/185
f 49/73/186 24/30/187 18/22/188 48/71/189
f 50/74/190 30/43/191 24/42/192 49/72/193
f 51/75/194 36/52/195 30/43/196 50/74/197
f 38/53/198 36/52/199 51/75/200
f 5/8/201 4/6/202 6/9/203
