# This file uses centimeters as units for non-parametric coordinates.

v -0.970924 -28.952515 -0.920349
v -0.998573 -52.050079 0.155029
v -4.512550 -52.197090 -5.934113
v -3.861000 -28.711800 -5.934113
v -2.337013 -22.725868 -5.934113
v -0.073036 -22.915073 -2.005768
v 0.182182 -57.444164 -1.687988
v 2.826439 -58.851120 -5.934113
v -2.268227 -57.546677 -5.934113
v 7.696404 -29.674862 -5.934113
v 9.543358 -51.609047 -5.934113
v 6.029381 -51.756058 0.155029
v 4.807671 -29.434040 -0.921112
v 4.454887 -23.293488 -2.005768
v 6.718864 -23.482693 -5.934113
v 7.533348 -57.136620 -5.934113
v 5.082970 -57.239136 -1.687988
v -0.970924 -28.952515 -10.947876
v -0.998573 -52.050079 -12.023254
v 6.029381 -51.756058 -12.023254
v 4.807671 -29.434040 -10.947113
v 4.454887 -23.293488 -9.862457
v -0.073036 -22.915073 -9.862457
v 0.182182 -57.444164 -10.180237
v 5.082970 -57.239136 -10.180237
v 6.746361 -38.710114 -6.194550
v 3.955833 -38.826859 -1.359039
v -1.625221 -39.060345 -1.359039
v -4.415749 -39.177090 -6.194580
v -1.625221 -39.060345 -11.030090
v 3.955833 -38.826859 -11.030090
v 4.589867 -25.307034 -1.619202
v 4.714897 -27.994354 -10.676666
v -3.095619 -25.619293 -5.934113
v 2.914177 -25.537106 -1.571869
v 5.710014 -27.972530 -8.903534
v -2.294716 -26.215225 -7.502197
v 1.133507 -20.029789 -4.068542
v 0.076134 -19.927811 -5.903290
v 4.305717 -20.335720 -5.903290
v 3.248314 -20.233749 -4.068542
v 1.133507 -20.029789 -7.738037
v 3.248314 -20.233749 -7.738037
v 0.000000 0.000000 0.000000
v -0.599190 -1.011887 -0.817825
v 1.274048 -0.512527 0.242035
v -0.459137 0.851578 -1.370102
v 0.871590 1.096878 -0.755775
v 1.039909 -6.087769 -4.334328
v 3.025505 -5.475800 -3.633171
v 2.714218 -4.466965 -5.158485
v 1.326004 -4.752365 -5.583290
v 1.228127 -13.093689 -5.619877
v 3.638306 -12.746605 -5.262688
v 3.284813 -12.242867 -7.357948
v 1.640221 -12.380699 -7.583210
vt 0.037765 0.420066
vt 0.037765 0.420066
vt 0.037765 0.420066
vt 0.037765 0.420066
vt 0.037765 0.420066
vt 0.146812 0.304209
vt 0.146812 0.304209
vt 0.037765 0.420066
vt 0.037765 0.420066
vt 0.037765 0.420066
vt 0.037765 0.420066
vt 0.037765 0.420066
vt 0.037765 0.420066
vt 0.037765 0.420066
vt 0.037765 0.420066
vt 0.146812 0.304209
vt 0.146812 0.304209
vt 0.037765 0.420066
vt 0.037765 0.420066
vt 0.037765 0.420066
vt 0.037765 0.420066
vt 0.037765 0.420066
vt 0.037765 0.420066
vt 0.037765 0.420066
vt 0.037765 0.420066
vt 0.146812 0.304209
vt 0.146812 0.304209
vt 0.037765 0.420066
vt 0.037765 0.420066
vt 0.037765 0.420066
vt 0.037765 0.420066
vt 0.037765 0.420066
vt 0.037765 0.420066
vt 0.037765 0.420066
vt 0.037765 0.420066
vt 0.037765 0.420066
vt 0.037765 0.420066
vt 0.037765 0.420066
vt 0.146812 0.304209
vt 0.146812 0.304209
vt 0.037765 0.420066
vt 0.037765 0.420066
vt 0.037765 0.420066
vt 0.037765 0.420066
vt 0.037765 0.420066
vt 0.037765 0.420066
vt 0.037765 0.420066
vt 0.037765 0.420066
vt 0.146812 0.304209
vt 0.146812 0.304209
vt 0.037765 0.420066
vt 0.037765 0.420066
vt 0.037765 0.420066
vt 0.037765 0.420066
vt 0.037765 0.420066
vt 0.037765 0.420066
vt 0.037765 0.420066
vt 0.037765 0.420066
vt 0.146812 0.304209
vt 0.146812 0.304209
vt 0.037765 0.420066
vt 0.037765 0.420066
vt 0.037765 0.420066
vt 0.037765 0.420066
vt 0.037765 0.420066
vt 0.037765 0.420066
vt 0.037765 0.420066
vt 0.037765 0.420066
vt 0.037765 0.420066
vt 0.037765 0.420066
vt 0.037765 0.420066
vt 0.037765 0.420066
vt 0.037765 0.420066
vt 0.037765 0.420066
vt 0.037765 0.420066
vt 0.037765 0.420066
vt 0.037765 0.420066
vt 0.037765 0.420066
vt 0.037765 0.420066
vt 0.037765 0.420066
vt 0.037765 0.420066
vt 0.146812 0.304209
vt 0.146812 0.304209
vt 0.146812 0.304209
vt 0.146812 0.304209
vt 0.146812 0.304209
vt 0.146812 0.304209
vt 0.146812 0.304209
vt 0.146812 0.304209
vt 0.146812 0.304209
vt 0.146812 0.304209
vt 0.146812 0.304209
vt 0.146812 0.304209
vt 0.146812 0.304209
vt 0.146812 0.304209
vt 0.146812 0.304209
vt 0.146812 0.304209
vt 0.146812 0.304209
vt 0.146812 0.304209
vt 0.146812 0.304209
vn -0.865957 0.023664 0.499557
vn -0.865963 0.023488 0.499556
vn -0.866178 0.016431 0.499465
vn -0.866178 0.016431 0.499465
vn -0.244670 -0.955591 0.164265
vn -0.244670 -0.955591 0.164265
vn -0.244670 -0.955591 0.164265
vn -0.840965 0.213185 0.497324
vn -0.840957 0.213303 0.497286
vn -0.840485 0.220361 0.495001
vn -0.810884 -0.340194 0.476167
vn -0.810884 -0.340194 0.476167
vn -0.810884 -0.340194 0.476167
vn -0.810884 -0.340194 0.476167
vn 0.861905 0.080329 0.500666
vn 0.861743 0.082454 0.500599
vn 0.847673 0.193781 0.493862
vn 0.847673 0.193781 0.493862
vn 0.337141 -0.925570 0.172211
vn 0.337141 -0.925570 0.172211
vn 0.337141 -0.925570 0.172211
vn 0.862974 0.134426 0.487038
vn 0.863079 0.133879 0.487002
vn 0.859570 0.151328 0.488097
vn 0.828969 -0.301439 0.471110
vn 0.828969 -0.301439 0.471110
vn 0.828969 -0.301440 0.471110
vn 0.828969 -0.301439 0.471110
vn -0.001855 0.049945 -0.998750
vn -0.001793 0.048729 -0.998810
vn -0.003183 0.076082 -0.997097
vn -0.003183 0.076082 -0.997097
vn -0.397792 0.713504 0.576778
vn -0.397792 0.713504 0.576778
vn -0.397792 0.713504 0.576778
vn 0.039365 -0.940935 -0.336293
vn 0.039365 -0.940935 -0.336292
vn 0.039365 -0.940935 -0.336293
vn 0.016823 0.175956 -0.984254
vn 0.016338 0.175076 -0.984419
vn 0.014326 0.171415 -0.985095
vn 0.013415 -0.320662 -0.947099
vn 0.013415 -0.320662 -0.947099
vn 0.013415 -0.320662 -0.947099
vn 0.013415 -0.320662 -0.947099
vn -0.004834 0.115544 0.993291
vn -0.004834 0.115544 0.993291
vn -0.003259 0.050876 0.998700
vn -0.003329 0.053769 0.998548
vn 0.039365 -0.940935 0.336293
vn 0.039365 -0.940935 0.336293
vn 0.039365 -0.940935 0.336292
vn -0.340947 -0.460499 0.819570
vn -0.340947 -0.460499 0.819570
vn -0.340947 -0.460499 0.819570
vn 0.013415 -0.320662 0.947099
vn 0.013415 -0.320662 0.947099
vn 0.013415 -0.320662 0.947099
vn 0.013415 -0.320662 0.947099
vn 0.011218 0.177433 0.984069
vn 0.011786 0.174282 0.984625
vn 0.012017 0.174534 0.984578
vn 0.011854 0.182008 0.983226
vn -0.866080 -0.003561 -0.499892
vn -0.866080 -0.003561 -0.499892
vn -0.865813 0.021905 -0.499887
vn -0.865804 0.022341 -0.499885
vn -0.244670 -0.955591 -0.164265
vn -0.244670 -0.955591 -0.164265
vn -0.244670 -0.955591 -0.164265
vn -0.889177 0.190169 0.416172
vn -0.889177 0.190169 0.416172
vn -0.889177 0.190169 0.416172
vn -0.810884 -0.340194 -0.476167
vn -0.810884 -0.340194 -0.476167
vn -0.810884 -0.340194 -0.476167
vn -0.810884 -0.340194 -0.476167
vn -0.841264 0.214066 -0.496437
vn -0.840655 0.214064 -0.497469
vn -0.839965 0.214036 -0.498645
vn -0.839836 0.214009 -0.498874
vn 0.851000 0.174529 -0.495316
vn 0.851000 0.174529 -0.495316
vn 0.862012 0.081307 -0.500325
vn 0.862235 0.078362 -0.500411
vn 0.337141 -0.925570 -0.172211
vn 0.337141 -0.925570 -0.172211
vn 0.337141 -0.925570 -0.172211
vn 0.055663 0.536132 0.842297
vn 0.055663 0.536132 0.842297
vn 0.055663 0.536132 0.842297
vn 0.828969 -0.301439 -0.471110
vn 0.828969 -0.301440 -0.471110
vn 0.828969 -0.301440 -0.471110
vn 0.828969 -0.301439 -0.471110
vn 0.860857 0.132449 -0.491307
vn 0.860711 0.136928 -0.490333
vn 0.861662 0.137260 -0.488568
vn 0.862332 0.131084 -0.489081
vn 0.861108 -0.103066 0.497866
vn 0.861743 0.082454 0.500599
vn 0.861905 0.080329 0.500666
vn 0.861108 -0.103066 0.497866
vn -0.003329 0.053769 0.998548
vn -0.003259 0.050876 0.998700
vn -0.000912 -0.044838 0.998994
vn -0.000912 -0.044838 0.998994
vn -0.865568 0.033888 0.499644
vn -0.865963 0.023488 0.499556
vn -0.865957 0.023664 0.499557
vn -0.865568 0.033888 0.499644
vn -0.865804 0.022341 -0.499885
vn -0.865813 0.021905 -0.499887
vn -0.864412 0.059117 -0.499297
vn -0.864412 0.059117 -0.499297
vn 0.000252 0.008451 -0.999964
vn -0.001793 0.048729 -0.998810
vn -0.001855 0.049945 -0.998750
vn 0.000252 0.008451 -0.999964
vn 0.862235 0.078362 -0.500411
vn 0.862012 0.081307 -0.500325
vn 0.863426 -0.075129 -0.498850
vn 0.863426 -0.075129 -0.498850
vn 0.011659 0.172295 0.984976
vn 0.011786 0.174282 0.984625
vn 0.011218 0.177433 0.984069
vn 0.863260 0.132939 0.486938
vn 0.863079 0.133879 0.487002
vn 0.862974 0.134426 0.487038
vn 0.863260 0.132939 0.486938
vn 0.858108 0.138117 -0.494544
vn 0.860111 0.150483 -0.487405
vn 0.861662 0.137260 -0.488568
vn 0.860711 0.136928 -0.490333
vn 0.017181 0.176608 -0.984131
vn 0.016338 0.175076 -0.984419
vn 0.016823 0.175956 -0.984254
vn 0.017181 0.176608 -0.984131
vn -0.841650 0.214103 -0.495768
vn -0.840655 0.214064 -0.497469
vn -0.841264 0.214066 -0.496437
vn -0.841016 0.212370 0.497586
vn -0.840957 0.213303 0.497286
vn -0.840965 0.213185 0.497324
vn -0.841016 0.212370 0.497586
vn 0.011659 0.172295 0.984976
vn 0.012106 0.170419 0.985297
vn 0.012017 0.174534 0.984578
vn 0.011786 0.174282 0.984625
vn -0.841650 0.214103 -0.495768
vn -0.840135 0.214071 -0.498344
vn -0.839965 0.214036 -0.498645
vn -0.840655 0.214064 -0.497469
vn 0.858108 0.138117 -0.494544
vn 0.860711 0.136928 -0.490333
vn 0.860857 0.132449 -0.491307
vn -0.686649 0.589454 0.425508
vn -0.686649 0.589454 0.425508
vn -0.686649 0.589454 0.425508
vn -0.686649 0.589454 0.425508
vn 0.732066 0.555865 0.393819
vn 0.732066 0.555865 0.393819
vn 0.732066 0.555865 0.393819
vn 0.732066 0.555865 0.393819
vn 0.050911 0.580701 -0.812523
vn 0.050911 0.580701 -0.812523
vn 0.050911 0.580701 -0.812523
vn 0.050911 0.580701 -0.812523
vn 0.049921 0.569411 0.820536
vn 0.049921 0.569411 0.820536
vn 0.049921 0.569411 0.820536
vn 0.049921 0.569411 0.820536
vn -0.682705 0.595425 -0.423537
vn -0.682705 0.595425 -0.423537
vn -0.682705 0.595425 -0.423537
vn -0.682705 0.595425 -0.423537
vn 0.729047 0.561229 -0.391808
vn 0.729047 0.561229 -0.391808
vn 0.729047 0.561229 -0.391808
vn 0.729047 0.561229 -0.391808
vn 0.168808 0.465524 -0.868787
vn 0.168861 0.430319 -0.886742
vn 0.164313 0.635441 -0.754464
vn 0.164313 0.635441 -0.754464
vn -0.184754 -0.375594 0.908182
vn -0.182689 -0.436830 0.880798
vn -0.170364 -0.620907 0.765148
vn -0.170364 -0.620907 0.765148
vn -0.959490 -0.030971 -0.280036
vn -0.968049 -0.013753 -0.250382
vn -0.941281 -0.061532 -0.331970
vn -0.941281 -0.061532 -0.331970
vn 0.980035 0.187840 -0.065174
vn 0.977358 0.205986 -0.048380
vn 0.954351 0.296321 0.037523
vn 0.954351 0.296321 0.037523
vn -0.182689 -0.436830 0.880798
vn -0.184754 -0.375594 0.908182
vn -0.133039 0.008543 0.991074
vn -0.141797 -0.025088 0.989578
vn 0.977358 0.205986 -0.048380
vn 0.980035 0.187840 -0.065174
vn 0.966658 0.083679 -0.242014
vn 0.969084 0.086607 -0.231031
vn 0.168861 0.430319 -0.886742
vn 0.168808 0.465524 -0.868787
vn 0.111972 0.146576 -0.982842
vn 0.105849 0.132905 -0.985460
vn -0.968049 -0.013753 -0.250382
vn -0.959490 -0.030971 -0.280036
vn -0.961831 0.059412 -0.267119
vn -0.954970 0.074724 -0.287139
vn -0.083214 0.189042 0.978437
vn -0.083214 0.189042 0.978437
vn -0.141797 -0.025088 0.989578
vn -0.133039 0.008543 0.991074
vn 0.866726 0.034219 0.497610
vn 0.866726 0.034219 0.497610
vn 0.866726 0.034219 0.497610
vn 0.942397 0.059724 -0.329121
vn 0.942397 0.059724 -0.329121
vn 0.969084 0.086607 -0.231031
vn 0.966658 0.083679 -0.242014
vn 0.060343 0.032026 -0.997664
vn 0.060343 0.032026 -0.997664
vn 0.105849 0.132905 -0.985460
vn 0.111972 0.146576 -0.982842
vn -0.932407 0.117130 -0.341903
vn -0.932407 0.117130 -0.341903
vn -0.954970 0.074724 -0.287139
vn -0.961831 0.059412 -0.267119
vn -0.856778 0.123661 0.500638
vn -0.856778 0.123661 0.500638
vn -0.856778 0.123661 0.500638
s off
f 28/66/1 29/67/2 3/4/3 2/3/4
f 9/8/5 8/10/6 7/9/7
f 34/17/8 6/6/9 5/16/10
f 3/4/11 9/8/12 7/9/13 2/3/14
f 26/62/15 27/63/16 12/14/17 11/13/18
f 17/18/19 8/20/20 16/19/21
f 32/39/22 15/26/23 14/27/24
f 12/14/25 17/18/26 16/19/27 11/13/28
f 30/70/29 31/71/30 20/24/31 19/23/32
f 47/92/33 44/7/34 48/91/35
f 25/28/36 8/30/37 24/29/38
f 33/50/39 23/40/40 22/49/41
f 20/24/42 25/28/43 24/29/44 19/23/45
f 2/31/46 12/32/47 27/64/48 28/65/49
f 17/35/50 7/36/51 8/37/52
f 45/89/53 46/90/54 44/7/55
f 12/32/56 2/31/57 7/36/58 17/35/59
f 6/6/60 35/59/61 32/39/62 14/27/63
f 19/41/64 3/42/65 29/68/66 30/69/67
f 9/45/68 24/46/69 8/47/70
f 47/92/71 45/89/72 44/7/73
f 3/42/74 19/41/75 24/46/76 9/45/77
f 23/40/78 37/60/79 34/17/80 5/16/81
f 11/51/82 20/52/83 31/72/84 26/61/85
f 25/55/86 16/56/87 8/57/88
f 46/90/89 48/91/90 44/7/91
f 20/52/92 11/51/93 16/56/94 25/55/95
f 15/26/96 36/82/97 33/50/98 22/49/99
f 13/11/100 27/63/101 26/62/102 10/12/103
f 28/65/104 27/64/105 13/33/106 1/34/107
f 4/1/108 29/67/109 28/66/110 1/2/111
f 30/69/112 29/68/113 4/43/114 18/44/115
f 21/21/116 31/71/117 30/70/118 18/22/119
f 26/61/120 31/72/121 21/53/122 10/54/123
f 1/34/124 35/79/125 6/38/126
f 10/12/127 15/15/128 32/74/129 13/11/130
f 10/54/131 21/53/132 33/75/133 36/80/134
f 18/22/135 23/25/136 33/76/137 21/21/138
f 18/44/139 37/81/140 23/48/141
f 1/2/142 6/5/143 34/78/144 4/1/145
f 1/34/146 13/33/147 32/73/148 35/79/149
f 18/44/150 4/43/151 34/77/152 37/81/153
f 10/54/154 36/80/155 15/58/156
f 5/16/157 6/6/158 38/84/159 39/83/160
f 14/27/161 15/26/162 40/86/163 41/85/164
f 22/49/165 23/40/166 42/88/167 43/87/168
f 6/6/169 14/27/170 41/85/171 38/84/172
f 23/40/173 5/16/174 39/83/175 42/88/176
f 15/26/177 22/49/178 43/87/179 40/86/180
f 51/95/181 52/96/182 47/92/183 48/91/184
f 49/93/185 50/94/186 46/90/187 45/89/188
f 52/96/189 49/93/190 45/89/191 47/92/192
f 50/94/193 51/95/194 48/91/195 46/90/196
f 50/94/197 49/93/198 53/97/199 54/98/200
f 51/95/201 50/94/202 54/98/203 55/99/204
f 52/96/205 51/95/206 55/99/207 56/100/208
f 49/93/209 52/96/210 56/100/211 53/97/212
f 38/84/213 41/85/214 54/98/215 53/97/216
f 41/85/217 40/86/218 54/98/219
f 40/86/220 43/87/221 55/99/222 54/98/223
f 43/87/224 42/88/225 56/100/226 55/99/227
f 42/88/228 39/83/229 53/97/230 56/100/231
f 39/83/232 38/84/233 53/97/234
