# This file uses centimeters as units for non-parametric coordinates.

v -21.758301 0.000005 8.744049
v 21.758362 0.000005 8.744049
v -18.905640 41.535419 9.237152
v 18.901978 41.535419 9.237152
v -18.905640 41.535419 -9.237122
v 18.901978 41.535419 -9.237122
v -21.758301 0.000005 -8.744049
v 21.758362 0.000005 -8.744049
v -19.931091 31.334278 -12.980225
v -19.931091 31.334278 12.980225
v 19.934692 31.334278 12.980225
v 19.934692 31.334278 -12.980225
v -18.797424 18.686392 -12.240906
v -18.797424 18.686401 12.240906
v 18.797668 18.686401 12.240906
v 18.797668 18.686392 -12.240906
v -10.971191 42.265266 -15.259369
v -10.971191 42.265266 15.259369
v -11.425354 32.935829 19.533936
v -10.776184 18.686401 19.737457
v -11.711365 0.000005 12.240906
v -11.711365 0.000005 -12.240906
v -10.776184 18.686392 -19.737457
v -11.425354 32.935829 -19.533936
v 11.225830 0.000005 -12.240906
v 11.225830 0.000005 12.240906
v 10.329346 18.686401 19.737457
v 10.954895 32.935829 19.533936
v 10.512451 42.265266 15.259369
v 10.512451 42.265266 -15.259369
v 10.954895 32.935829 -19.533936
v 10.329346 18.686392 -19.737457
v -10.899414 42.703308 17.955750
v -11.635315 35.529800 21.492798
v 11.148315 35.546158 21.505768
v 10.436401 42.717438 17.968109
v -11.635315 35.529800 -21.492798
v -10.899414 42.703308 -17.955780
v 10.436401 42.717434 -17.968079
v 11.148315 35.546158 -21.505768
v 22.694946 34.083725 13.148071
v 22.694946 34.083725 -13.148071
v 21.291077 41.421577 -11.438995
v 21.291077 41.421577 11.439087
v -22.750122 34.068893 -13.137024
v -22.750122 34.068890 13.137024
v -21.348328 41.406013 11.424591
v -21.348328 41.406013 -11.424591
v 10.740662 10.113080 -17.471313
v -11.205261 10.113080 -17.471313
v -20.817688 10.113080 -10.636566
v -20.817688 10.113080 10.636597
v -11.205261 10.113081 17.471344
v 10.740662 10.113080 17.471344
v 20.818115 10.113080 10.636597
v 20.818115 10.113080 -10.636566
v -26.535706 -0.031243 -4.227386
v -26.535706 -0.031243 4.227478
v -25.990295 6.164063 5.142334
v -25.990295 6.164063 -5.142303
v 26.535828 -0.031240 -4.227356
v 26.535828 -0.031240 4.227478
v 25.990540 6.164071 -5.142303
v 25.990540 6.164071 5.142334
v -8.768311 44.539951 -13.097961
v -7.993835 45.547348 11.610352
v 8.887451 45.547348 10.756714
v 8.689392 44.348499 -11.280121
v -16.525269 43.948269 3.766418
v -15.100769 44.437843 -5.660095
v 12.898621 45.547348 6.072540
v 13.466309 45.547348 -7.276123
v -12.834717 45.809464 9.663971
v -8.990662 45.547348 4.255585
v 8.289795 46.204723 -3.423950
v -2.713501 45.456028 5.571136
v 7.771240 44.841667 4.061035
v 0.150757 44.219532 11.445526
v -2.221252 47.114380 -5.610229
v 0.835144 45.547348 -12.504303
v 14.545532 44.843227 0.244263
vt 0.036714 0.324949
vt 0.036714 0.324949
vt 0.036714 0.324949
vt 0.036714 0.324949
vt 0.036714 0.324949
vt 0.036714 0.324949
vt 0.036714 0.324949
vt 0.036714 0.324949
vt 0.036714 0.324949
vt 0.036714 0.324949
vt 0.036714 0.324949
vt 0.036714 0.324949
vt 0.036714 0.324949
vt 0.036714 0.324949
vt 0.036714 0.324949
vt 0.036714 0.324949
vt 0.036714 0.324949
vt 0.036714 0.324949
vt 0.036714 0.324949
vt 0.036714 0.324949
vt 0.036714 0.324949
vt 0.036714 0.324949
vt 0.036714 0.324949
vt 0.036714 0.324949
vt 0.036714 0.324949
vt 0.036714 0.324949
vt 0.036714 0.324949
vt 0.036714 0.324949
vt 0.036714 0.324949
vt 0.036714 0.324949
vt 0.036714 0.324949
vt 0.036714 0.324949
vt 0.036714 0.324949
vt 0.036714 0.324949
vt 0.036714 0.324949
vt 0.036714 0.324949
vt 0.036714 0.324949
vt 0.036714 0.324949
vt 0.036714 0.324949
vt 0.036714 0.324949
vt 0.036714 0.324949
vt 0.036714 0.324949
vt 0.036714 0.324949
vt 0.036714 0.324949
vt 0.036714 0.324949
vt 0.036714 0.324949
vt 0.036714 0.324949
vt 0.036714 0.324949
vt 0.036714 0.324949
vt 0.036714 0.324949
vt 0.036714 0.324949
vt 0.036714 0.324949
vt 0.036714 0.324949
vt 0.036714 0.324949
vt 0.036714 0.324949
vt 0.036714 0.324949
vt 0.036714 0.324949
vt 0.036714 0.324949
vt 0.036714 0.324949
vt 0.036714 0.324949
vt 0.036714 0.324949
vt 0.036714 0.324949
vt 0.036714 0.324949
vt 0.036714 0.324949
vt 0.036714 0.324949
vt 0.036714 0.324949
vt 0.036714 0.324949
vt 0.036714 0.324949
vt 0.036714 0.324949
vt 0.036714 0.324949
vt 0.036714 0.324949
vt 0.036714 0.324949
vt 0.036714 0.324949
vt 0.036714 0.324949
vt 0.036714 0.324949
vt 0.036714 0.324949
vt 0.036714 0.324949
vt 0.036714 0.324949
vt 0.036714 0.324949
vt 0.036714 0.324949
vt 0.036714 0.324949
vt 0.036714 0.324949
vt 0.085013 0.178924
vt 0.085013 0.178924
vt 0.085013 0.178924
vt 0.085013 0.178924
vt 0.085013 0.178924
vt 0.085013 0.178924
vt 0.085013 0.178924
vt 0.085013 0.178924
vt 0.085013 0.178924
vt 0.085013 0.178924
vt 0.085013 0.178924
vt 0.085013 0.178924
vt 0.085013 0.178924
vt 0.085013 0.178924
vt 0.085013 0.178924
vt 0.085013 0.178924
vt 0.085013 0.178924
vt 0.085013 0.178924
vt 0.085013 0.178924
vt 0.085013 0.178924
vt 0.085013 0.178924
vt 0.085013 0.178924
vt 0.085013 0.178924
vt 0.085013 0.178924
vt 0.085013 0.178924
vn -0.000820 0.442322 0.896856
vn -0.000820 0.442322 0.896856
vn -0.000820 0.442322 0.896856
vn -0.000820 0.442322 0.896856
vn -0.085132 0.962766 -0.256581
vn -0.085133 0.962766 -0.256581
vn -0.085132 0.962766 -0.256581
vn -0.000819 0.442322 -0.896856
vn -0.000819 0.442322 -0.896856
vn -0.000819 0.442322 -0.896856
vn -0.000819 0.442322 -0.896856
vn 0.000000 -1.000000 0.000000
vn 0.000000 -1.000000 0.000000
vn 0.000000 -1.000000 0.000000
vn 0.000000 -1.000000 0.000000
vn 0.982186 0.187911 0.000000
vn 0.982186 0.187911 0.000000
vn 0.982186 0.187911 0.000000
vn 0.982186 0.187911 0.000000
vn -0.982234 0.187661 0.000000
vn -0.982234 0.187661 0.000000
vn -0.982234 0.187661 0.000000
vn -0.982234 0.187661 0.000000
vn -0.996007 -0.089275 0.000000
vn -0.996007 -0.089275 0.000000
vn -0.996007 -0.089275 0.000000
vn -0.996007 -0.089275 0.000000
vn 0.000000 0.014281 0.999898
vn 0.000000 0.014281 0.999898
vn 0.000000 0.014281 0.999898
vn 0.000000 0.014281 0.999898
vn 0.995983 -0.089537 0.000000
vn 0.995984 -0.089537 0.000000
vn 0.995984 -0.089537 0.000000
vn 0.995983 -0.089537 0.000000
vn 0.000000 0.014281 -0.999898
vn 0.000000 0.014281 -0.999898
vn 0.000000 0.014281 -0.999898
vn 0.000000 0.014281 -0.999898
vn -0.973341 0.229363 -0.000000
vn -0.973341 0.229363 -0.000000
vn -0.973341 0.229363 -0.000000
vn -0.973341 0.229363 -0.000000
vn -0.000000 -0.255545 0.966797
vn -0.000000 -0.255545 0.966797
vn -0.000000 -0.255545 0.966797
vn -0.000000 -0.255545 0.966797
vn 0.973336 0.229383 -0.000000
vn 0.973336 0.229383 -0.000000
vn 0.973336 0.229383 -0.000000
vn 0.973336 0.229383 -0.000000
vn 0.000000 -0.255549 -0.966796
vn 0.000000 -0.255549 -0.966796
vn 0.000000 -0.255549 -0.966796
vn 0.000000 -0.255549 -0.966796
vn -0.192653 0.963929 -0.183646
vn -0.192653 0.963929 -0.183646
vn -0.192653 0.963929 -0.183646
vn -0.561666 0.353383 0.748099
vn -0.561666 0.353382 0.748099
vn -0.561666 0.353382 0.748099
vn -0.561666 0.353382 0.748099
vn -0.643366 -0.057851 0.763370
vn -0.643366 -0.057851 0.763370
vn -0.643366 -0.057851 0.763370
vn -0.643366 -0.057851 0.763370
vn -0.628427 -0.084770 0.773236
vn -0.628427 -0.084770 0.773236
vn -0.628427 -0.084770 0.773236
vn -0.628427 -0.084770 0.773236
vn 0.000000 -1.000000 0.000000
vn 0.000000 -1.000000 0.000000
vn 0.000000 -1.000000 0.000000
vn 0.000000 -1.000000 0.000000
vn -0.628427 -0.084773 -0.773236
vn -0.628427 -0.084773 -0.773236
vn -0.628427 -0.084773 -0.773235
vn -0.628427 -0.084773 -0.773235
vn -0.643366 -0.057851 -0.763370
vn -0.643366 -0.057851 -0.763370
vn -0.643366 -0.057851 -0.763370
vn -0.643366 -0.057851 -0.763370
vn -0.561667 0.353381 -0.748099
vn -0.561667 0.353381 -0.748099
vn -0.561667 0.353381 -0.748099
vn -0.561667 0.353381 -0.748099
vn 0.000000 -1.000000 0.000000
vn 0.000000 -1.000000 0.000000
vn 0.000000 -1.000000 0.000000
vn 0.000000 -1.000000 0.000000
vn 0.608895 -0.091507 0.787955
vn 0.608895 -0.091507 0.787955
vn 0.608895 -0.091507 0.787955
vn 0.608895 -0.091507 0.787955
vn 0.623048 -0.056369 0.780150
vn 0.623048 -0.056369 0.780150
vn 0.623048 -0.056369 0.780150
vn 0.623048 -0.056369 0.780149
vn 0.547480 0.354024 0.758243
vn 0.547480 0.354024 0.758243
vn 0.547480 0.354024 0.758244
vn 0.547480 0.354024 0.758244
vn -0.049308 0.971456 -0.232041
vn -0.049308 0.971455 -0.232041
vn -0.049308 0.971456 -0.232041
vn 0.547480 0.354029 -0.758240
vn 0.547480 0.354029 -0.758240
vn 0.547480 0.354030 -0.758240
vn 0.547480 0.354029 -0.758240
vn 0.623049 -0.056369 -0.780149
vn 0.623049 -0.056369 -0.780149
vn 0.623049 -0.056369 -0.780149
vn 0.623049 -0.056369 -0.780149
vn 0.608895 -0.091510 -0.787955
vn 0.608894 -0.091510 -0.787955
vn 0.608895 -0.091510 -0.787955
vn 0.608895 -0.091510 -0.787955
vn -0.000011 -0.602692 0.797974
vn -0.000011 -0.602692 0.797974
vn -0.000011 -0.602692 0.797974
vn -0.000011 -0.602692 0.797974
vn -0.000279 0.986707 -0.162509
vn -0.000279 0.986707 -0.162509
vn -0.000279 0.986707 -0.162509
vn -0.000279 0.986707 -0.162509
vn -0.000279 0.986707 0.162508
vn -0.000279 0.986707 0.162508
vn -0.000279 0.986707 0.162508
vn -0.000279 0.986707 0.162508
vn -0.000011 -0.602692 -0.797974
vn -0.000011 -0.602692 -0.797974
vn -0.000011 -0.602692 -0.797974
vn -0.000011 -0.602692 -0.797974
vn 0.705718 -0.708492 0.000000
vn 0.705718 -0.708492 0.000000
vn 0.705718 -0.708492 0.000000
vn 0.705718 -0.708492 0.000000
vn 0.047597 0.998867 0.000000
vn 0.047597 0.998867 0.000000
vn 0.047597 0.998867 0.000000
vn 0.047597 0.998867 0.000000
vn -0.696278 -0.717772 0.000000
vn -0.696278 -0.717772 0.000000
vn -0.696278 -0.717772 0.000000
vn -0.696278 -0.717772 0.000000
vn -0.052903 0.998600 0.000000
vn -0.052903 0.998600 0.000000
vn -0.052903 0.998600 0.000000
vn -0.052903 0.998600 0.000000
vn -0.454341 -0.539670 0.708753
vn -0.454341 -0.539670 0.708753
vn -0.454341 -0.539670 0.708753
vn -0.454341 -0.539670 0.708753
vn -0.050151 0.994926 -0.087220
vn -0.050151 0.994926 -0.087220
vn -0.050151 0.994926 -0.087220
vn -0.050151 0.994926 -0.087220
vn -0.050151 0.994926 0.087219
vn -0.050151 0.994926 0.087219
vn -0.050151 0.994926 0.087219
vn -0.050151 0.994926 0.087219
vn -0.454341 -0.539670 -0.708753
vn -0.454341 -0.539670 -0.708753
vn -0.454341 -0.539670 -0.708753
vn -0.454341 -0.539670 -0.708753
vn 0.444054 -0.532408 0.720665
vn 0.444054 -0.532408 0.720665
vn 0.444054 -0.532408 0.720665
vn 0.444054 -0.532408 0.720665
vn 0.045914 0.994868 -0.090169
vn 0.045914 0.994868 -0.090169
vn 0.045914 0.994868 -0.090169
vn 0.045914 0.994868 -0.090169
vn 0.045913 0.994868 0.090169
vn 0.045913 0.994868 0.090169
vn 0.045913 0.994868 0.090169
vn 0.045913 0.994868 0.090169
vn 0.444054 -0.532408 -0.720665
vn 0.444054 -0.532408 -0.720665
vn 0.444054 -0.532408 -0.720665
vn 0.444054 -0.532408 -0.720665
vn 0.000000 -0.459389 -0.888235
vn 0.000000 -0.459389 -0.888235
vn 0.000000 -0.459389 -0.888235
vn 0.000000 -0.459389 -0.888235
vn -0.448151 -0.268256 -0.852760
vn -0.448151 -0.268256 -0.852760
vn -0.448151 -0.268256 -0.852759
vn -0.448151 -0.268256 -0.852759
vn -0.996147 0.087697 0.000000
vn -0.996147 0.087697 0.000000
vn -0.996147 0.087697 0.000000
vn -0.996147 0.087697 0.000000
vn -0.448151 -0.268259 0.852759
vn -0.448151 -0.268259 0.852759
vn -0.448151 -0.268259 0.852759
vn -0.448151 -0.268259 0.852759
vn 0.000000 -0.459391 0.888234
vn 0.000000 -0.459391 0.888234
vn 0.000000 -0.459391 0.888234
vn 0.000000 -0.459391 0.888234
vn 0.431175 -0.272522 0.860128
vn 0.431175 -0.272522 0.860128
vn 0.431175 -0.272522 0.860128
vn 0.431175 -0.272522 0.860128
vn 0.996149 0.087677 0.000000
vn 0.996149 0.087677 0.000000
vn 0.996149 0.087677 0.000000
vn 0.996149 0.087677 0.000000
vn 0.431175 -0.272520 -0.860129
vn 0.431175 -0.272520 -0.860129
vn 0.431175 -0.272520 -0.860129
vn 0.431175 -0.272520 -0.860129
vn 0.006541 -0.999979 0.000000
vn 0.006541 -0.999979 0.000000
vn 0.006541 -0.999979 0.000000
vn 0.006541 -0.999979 0.000000
vn -0.696011 -0.059756 0.715541
vn -0.696011 -0.059756 0.715541
vn -0.696011 -0.059756 0.715541
vn -0.696011 -0.059756 0.715541
vn -0.606819 0.794840 0.000000
vn -0.606819 0.794840 0.000000
vn -0.606819 0.794840 0.000000
vn -0.606819 0.794840 0.000000
vn -0.696014 -0.059756 -0.715537
vn -0.696014 -0.059756 -0.715537
vn -0.696014 -0.059756 -0.715537
vn -0.696014 -0.059756 -0.715538
vn -0.006540 -0.999979 0.000000
vn -0.006540 -0.999979 0.000000
vn -0.006540 -0.999979 0.000000
vn -0.006540 -0.999979 0.000000
vn 0.696014 -0.059778 -0.715536
vn 0.696014 -0.059778 -0.715536
vn 0.696014 -0.059778 -0.715536
vn 0.696014 -0.059778 -0.715536
vn 0.606832 0.794830 0.000000
vn 0.606832 0.794830 0.000000
vn 0.606832 0.794830 0.000000
vn 0.606832 0.794830 0.000000
vn 0.696010 -0.059777 0.715540
vn 0.696010 -0.059777 0.715540
vn 0.696010 -0.059777 0.715540
vn 0.696010 -0.059777 0.715540
vn 0.000000 0.889964 0.456031
vn 0.000000 0.889964 0.456031
vn 0.000000 0.889964 0.456031
vn -0.006914 0.657392 -0.753517
vn -0.006914 0.657392 -0.753517
vn -0.006914 0.657392 -0.753517
vn -0.006914 0.657392 -0.753517
vn -0.577397 0.809576 0.105830
vn -0.577397 0.809576 0.105830
vn -0.577397 0.809576 0.105830
vn -0.388307 0.848673 -0.359127
vn -0.388307 0.848673 -0.359127
vn -0.388307 0.848673 -0.359127
vn -0.388307 0.848673 -0.359127
vn -0.655172 0.755210 -0.020198
vn -0.655172 0.755210 -0.020198
vn -0.655172 0.755210 -0.020198
vn -0.655172 0.755210 -0.020198
vn 0.392553 0.829079 0.398157
vn 0.392553 0.829079 0.398157
vn 0.392553 0.829079 0.398157
vn 0.392553 0.829079 0.398157
vn 0.591613 0.806167 -0.009421
vn 0.591613 0.806167 -0.009421
vn 0.591613 0.806167 -0.009421
vn 0.320113 0.828688 -0.459134
vn 0.320113 0.828688 -0.459134
vn 0.320113 0.828688 -0.459134
vn 0.320113 0.828688 -0.459134
vn -0.185469 0.801038 0.569157
vn -0.185469 0.801038 0.569157
vn -0.185469 0.801038 0.569157
vn 0.057172 0.998334 -0.007749
vn 0.057172 0.998334 -0.007749
vn 0.057172 0.998334 -0.007749
vn -0.155794 0.984720 -0.077811
vn -0.155794 0.984720 -0.077811
vn -0.155794 0.984720 -0.077811
vn -0.102086 0.990927 -0.087419
vn -0.102086 0.990927 -0.087419
vn -0.102086 0.990927 -0.087419
vn 0.174558 0.982370 0.066928
vn 0.174558 0.982370 0.066928
vn 0.174558 0.982370 0.066928
vn 0.083906 0.979310 0.184150
vn 0.083906 0.979310 0.184150
vn 0.083906 0.979310 0.184150
vn 0.092511 0.993531 0.065862
vn 0.092511 0.993531 0.065862
vn 0.092511 0.993531 0.065862
vn 0.092511 0.993531 0.065862
vn -0.072897 0.793247 0.604521
vn -0.072898 0.793247 0.604521
vn -0.072897 0.793247 0.604521
vn 0.126085 0.684221 0.718293
vn 0.126085 0.684221 0.718293
vn 0.126085 0.684221 0.718293
vn -0.085138 0.994631 -0.058830
vn -0.085138 0.994631 -0.058830
vn -0.085138 0.994631 -0.058830
vn -0.016206 0.989153 0.145992
vn -0.016206 0.989153 0.145992
vn -0.016206 0.989153 0.145992
vn 0.054491 0.987359 0.148838
vn 0.054491 0.987359 0.148838
vn 0.054491 0.987359 0.148838
vn 0.146870 0.970572 -0.190840
vn 0.146870 0.970572 -0.190840
vn 0.146870 0.970572 -0.190840
vn 0.146870 0.970572 -0.190840
vn 0.197364 0.902759 -0.382196
vn 0.197364 0.902759 -0.382196
vn 0.197364 0.902759 -0.382196
vn 0.030387 0.998060 0.054341
vn 0.030387 0.998060 0.054341
vn 0.030387 0.998060 0.054341
vn 0.030387 0.998060 0.054341
vn 0.604725 0.796434 0.000000
vn 0.604725 0.796434 0.000000
vn 0.604725 0.796434 0.000000
vn 0.536631 0.842342 0.049874
vn 0.536631 0.842342 0.049874
vn 0.536631 0.842342 0.049874
vn -0.306059 0.950178 -0.059081
vn -0.306059 0.950178 -0.059081
vn -0.306059 0.950178 -0.059081
vn 0.081630 0.982569 0.167019
vn 0.081630 0.982569 0.167019
vn 0.081630 0.982569 0.167019
vn -0.497130 0.648573 0.576381
vn -0.497130 0.648573 0.576381
vn -0.497130 0.648573 0.576381
vn -0.208764 0.977777 0.019234
vn -0.208764 0.977777 0.019234
vn -0.208764 0.977777 0.019234
s off
f 33/48/1 34/45/2 35/46/3 36/47/4
f 65/83/5 79/105/6 80/106/7
f 37/52/8 38/49/9 39/50/10 40/51/11
f 21/32/12 22/33/13 25/36/14 26/38/15
f 41/53/16 42/54/17 43/55/18 44/56/19
f 45/57/20 46/58/21 47/59/22 48/60/23
f 13/21/24 14/23/25 10/17/26 9/15/27
f 19/29/28 20/30/29 27/39/30 28/40/31
f 15/24/32 16/26/33 12/20/34 11/18/35
f 23/34/36 24/35/37 31/43/38 32/44/39
f 51/67/40 52/69/41 14/23/42 13/21/43
f 20/30/44 53/70/45 54/71/46 27/39/47
f 55/72/48 56/74/49 16/26/50 15/24/51
f 49/65/52 50/66/53 23/34/54 32/44/55
f 69/87/56 73/99/57 74/100/58
f 46/58/59 34/45/60 33/48/61 47/59/62
f 14/23/63 20/30/64 19/29/65 10/17/66
f 52/69/67 53/70/68 20/30/69 14/23/70
f 7/7/71 22/33/72 21/32/73 1/9/74
f 13/22/75 23/34/76 50/66/77 51/68/78
f 9/16/79 24/35/80 23/34/81 13/22/82
f 48/61/83 38/49/84 37/52/85 45/62/86
f 26/38/87 25/36/88 8/8/89 2/10/90
f 27/39/91 54/71/92 55/72/93 15/24/94
f 28/40/95 27/39/96 15/24/97 11/18/98
f 36/47/99 35/46/100 41/53/101 44/56/102
f 68/86/103 75/101/104 72/90/105
f 40/51/106 39/50/107 43/63/108 42/64/109
f 32/44/110 31/43/111 12/19/112 16/25/113
f 56/73/114 49/65/115 32/44/116 16/25/117
f 19/29/118 28/40/119 35/46/120 34/45/121
f 29/41/122 18/28/123 33/48/124 36/47/125
f 17/27/126 30/42/127 39/50/128 38/49/129
f 31/43/130 24/35/131 37/52/132 40/51/133
f 11/18/134 12/20/135 42/54/136 41/53/137
f 6/12/138 4/4/139 44/56/140 43/55/141
f 9/15/142 10/17/143 46/58/144 45/57/145
f 3/3/146 5/14/147 48/60/148 47/59/149
f 10/17/150 19/29/151 34/45/152 46/58/153
f 18/28/154 3/3/155 47/59/156 33/48/157
f 5/5/158 17/27/159 38/49/160 48/61/161
f 24/35/162 9/16/163 45/62/164 37/52/165
f 28/40/166 11/18/167 41/53/168 35/46/169
f 4/4/170 29/41/171 36/47/172 44/56/173
f 30/42/174 6/6/175 43/63/176 39/50/177
f 12/19/178 31/43/179 40/51/180 42/64/181
f 22/33/182 50/66/183 49/65/184 25/36/185
f 51/68/186 50/66/187 22/33/188 7/7/189
f 57/75/190 58/76/191 59/77/192 60/78/193
f 1/1/194 21/31/195 53/70/196 52/69/197
f 54/71/198 53/70/199 21/31/200 26/37/201
f 55/72/202 54/71/203 26/37/204 2/2/205
f 62/79/206 61/80/207 63/81/208 64/82/209
f 25/36/210 49/65/211 56/73/212 8/8/213
f 7/13/214 1/1/215 58/76/216 57/75/217
f 1/1/218 52/69/219 59/77/220 58/76/221
f 52/69/222 51/67/223 60/78/224 59/77/225
f 51/67/226 7/13/227 57/75/228 60/78/229
f 2/2/230 8/11/231 61/80/232 62/79/233
f 8/11/234 56/74/235 63/81/236 61/80/237
f 56/74/238 55/72/239 64/82/240 63/81/241
f 55/72/242 2/2/243 62/79/244 64/82/245
f 18/91/246 29/92/247 78/104/248
f 30/93/249 17/94/250 65/83/251 80/106/252
f 3/95/253 73/99/254 69/87/255
f 17/94/256 5/96/257 70/88/258 65/83/259
f 5/96/260 3/95/261 69/87/262 70/88/263
f 29/92/264 4/97/265 71/89/266 67/85/267
f 81/107/268 6/98/269 72/90/270
f 6/98/271 30/93/272 68/86/273 72/90/274
f 73/99/275 18/91/276 66/84/277
f 74/100/278 73/99/279 66/84/280
f 77/103/281 78/104/282 67/85/283
f 71/89/284 77/103/285 67/85/286
f 72/90/287 75/101/288 81/107/289
f 75/101/290 76/102/291 77/103/292
f 78/104/293 76/102/294 74/100/295 66/84/296
f 78/104/297 29/92/298 67/85/299
f 18/91/300 78/104/301 66/84/302
f 70/88/303 74/100/304 65/83/305
f 79/105/306 74/100/307 76/102/308
f 75/101/309 79/105/310 76/102/311
f 80/106/312 79/105/313 75/101/314 68/86/315
f 30/93/316 80/106/317 68/86/318
f 81/107/319 75/101/320 77/103/321 71/89/322
f 4/97/323 6/98/324 81/107/325
f 4/97/326 81/107/327 71/89/328
f 65/83/329 74/100/330 79/105/331
f 77/103/332 76/102/333 78/104/334
f 3/95/335 18/91/336 73/99/337
f 69/87/338 74/100/339 70/88/340
