# This file uses centimeters as units for non-parametric coordinates.

v 0.393784 10.618244 0.745628
v 2.074524 14.774772 -0.293145
v 0.859810 15.327648 -1.340141
v 1.732666 14.025242 -1.739940
v -0.857597 10.618244 -0.021192
v 0.369682 10.618244 -0.694644
v -0.495567 11.932379 0.037591
v 0.281349 11.932379 0.513668
v 0.266388 11.932379 -0.380518
v 0.907822 13.592245 -0.825562
v 0.961426 13.803392 0.041810
v 0.213020 13.959142 -0.454045
v 1.845726 0.283884 -3.196901
v -1.845741 0.000000 -3.196902
v -3.691475 0.400857 -0.000000
v -1.845741 0.000000 3.196902
v 1.845726 0.312157 3.196902
v 3.691460 0.000000 0.000000
v 3.196899 3.199749 -5.537196
v -3.196907 2.915865 -5.537197
v -6.393814 3.316722 -0.000001
v -3.196907 2.915865 5.537196
v 3.196892 3.228022 5.537197
v 6.393799 2.915865 0.000000
v 3.691460 6.899011 -6.393803
v -3.691467 6.899011 -6.393804
v -7.803314 6.899011 0.154059
v -4.111855 6.899011 6.840326
v 3.691460 6.899011 6.686267
v 7.382919 6.899011 0.000000
v 3.196899 9.916205 -5.537196
v -3.196907 10.619397 -5.537197
v -6.971474 11.027444 0.312577
v -3.774574 11.027444 5.849774
v 3.196892 10.142049 5.537197
v 6.393799 10.567312 0.000000
v 1.974709 10.898190 -3.420310
v -1.974724 11.601383 -3.420310
v -3.949440 12.384779 -0.000000
v -1.974724 12.384779 3.420310
v 1.974709 11.124034 3.420311
v 3.949425 11.549297 0.000000
v -0.000008 0.740254 0.000000
v -0.000008 10.618244 0.000000
v -1.100014 0.607660 0.367909
v 0.231148 0.539176 -1.185450
v 0.944542 0.588066 0.587679
vt 0.035582 0.229351
vt 0.035582 0.229351
vt 0.035582 0.229351
vt 0.035582 0.229351
vt 0.035582 0.229351
vt 0.035582 0.229351
vt 0.035582 0.229351
vt 0.035582 0.229351
vt 0.035582 0.229351
vt 0.035582 0.229351
vt 0.035582 0.229351
vt 0.035582 0.229351
vt 0.035582 0.229351
vt 0.035582 0.229351
vt 0.035582 0.229351
vt 0.035582 0.229351
vt 0.035582 0.229351
vt 0.035582 0.229351
vt 0.035582 0.229351
vt 0.035582 0.229351
vt 0.165772 0.190468
vt 0.165772 0.190468
vt 0.165772 0.190468
vt 0.165772 0.190468
vt 0.165772 0.190468
vt 0.165772 0.190468
vt 0.165772 0.190468
vt 0.165772 0.190468
vt 0.165772 0.190468
vt 0.165772 0.190468
vt 0.165772 0.190468
vt 0.165772 0.190468
vt 0.165772 0.190468
vt 0.165772 0.190468
vt 0.165772 0.190468
vt 0.165772 0.190468
vt 0.165772 0.190468
vt 0.165772 0.190468
vt 0.165772 0.190468
vt 0.165772 0.190468
vt 0.165772 0.190468
vt 0.165772 0.190468
vt 0.165772 0.190468
vt 0.165772 0.190468
vt 0.165772 0.190468
vt 0.165772 0.190468
vt 0.165772 0.190468
vt 0.165772 0.190468
vt 0.165772 0.190468
vt 0.165772 0.190468
vt 0.165772 0.190468
vt 0.165772 0.190468
vt 0.165772 0.190468
vt 0.165772 0.190468
vt 0.165772 0.190468
vt 0.016557 0.252766
vt 0.016557 0.252766
vt 0.016557 0.252766
vt 0.165772 0.190468
vt 0.165772 0.190468
vt 0.165772 0.190468
vt 0.165772 0.190468
vt 0.165772 0.190468
vt 0.016557 0.252766
vt 0.165772 0.190468
vt 0.165772 0.190468
vt 0.165772 0.190468
vt 0.165772 0.190468
vt 0.165772 0.190468
vt 0.165772 0.190468
vt 0.165772 0.190468
vt 0.165772 0.190468
vt 0.165772 0.190468
vn 0.799110 -0.589658 0.117160
vn 0.823576 -0.558035 0.101583
vn 0.992808 -0.119535 -0.006658
vn 0.988846 -0.148853 -0.005160
vn 0.664987 0.587296 -0.461384
vn 0.664987 0.587296 -0.461384
vn 0.664987 0.587297 -0.461384
vn -0.556388 -0.140428 -0.818970
vn -0.572507 -0.163606 -0.803410
vn -0.482784 0.049848 -0.874320
vn -0.481280 0.079662 -0.872940
vn -0.501513 0.234559 0.832747
vn -0.498482 0.251320 0.829671
vn -0.398037 0.517403 0.757536
vn -0.402930 0.508702 0.760835
vn -0.519585 0.105212 0.847916
vn -0.519585 0.105212 0.847916
vn -0.498482 0.251320 0.829671
vn -0.501513 0.234559 0.832747
vn 0.988846 -0.148853 -0.005160
vn 0.992808 -0.119535 -0.006658
vn 0.996467 0.082311 -0.016674
vn 0.996467 0.082311 -0.016674
vn -0.481280 0.079662 -0.872940
vn -0.482784 0.049848 -0.874320
vn -0.474125 0.169267 -0.864034
vn -0.474125 0.169267 -0.864034
vn 0.654020 -0.731709 0.191989
vn 0.823576 -0.558035 0.101583
vn 0.799110 -0.589658 0.117160
vn 0.654020 -0.731709 0.191989
vn -0.402930 0.508702 0.760835
vn -0.398037 0.517403 0.757536
vn -0.333394 0.620955 0.709411
vn -0.333394 0.620955 0.709411
vn -0.621244 -0.238519 -0.746435
vn -0.621244 -0.238519 -0.746435
vn -0.572507 -0.163606 -0.803410
vn -0.556388 -0.140428 -0.818970
vn 0.035216 -0.625546 -0.779392
vn 0.035216 -0.625546 -0.779392
vn 0.035216 -0.625546 -0.779392
vn 0.035216 -0.625546 -0.779392
vn -0.699406 -0.625160 -0.346419
vn -0.699406 -0.625160 -0.346418
vn -0.699406 -0.625160 -0.346419
vn -0.699406 -0.625160 -0.346418
vn -0.699406 -0.625160 0.346418
vn -0.699406 -0.625160 0.346418
vn -0.699406 -0.625160 0.346418
vn -0.699406 -0.625160 0.346418
vn 0.038719 -0.625465 0.779291
vn 0.038719 -0.625465 0.779291
vn 0.038719 -0.625465 0.779291
vn 0.038719 -0.625465 0.779291
vn 0.655527 -0.625464 0.423177
vn 0.655527 -0.625465 0.423177
vn 0.655527 -0.625465 0.423177
vn 0.655527 -0.625464 0.423177
vn 0.657365 -0.625546 -0.420194
vn 0.657365 -0.625546 -0.420194
vn 0.657365 -0.625546 -0.420194
vn 0.657365 -0.625546 -0.420194
vn 0.004485 -0.217656 -0.976015
vn 0.004485 -0.217656 -0.976015
vn 0.004485 -0.217656 -0.976015
vn 0.004485 -0.217656 -0.976015
vn -0.831106 -0.255062 -0.494173
vn -0.831106 -0.255062 -0.494172
vn -0.831106 -0.255062 -0.494172
vn -0.831106 -0.255062 -0.494172
vn -0.823889 -0.340414 0.453128
vn -0.823889 -0.340414 0.453128
vn -0.823889 -0.340414 0.453128
vn -0.823889 -0.340414 0.453128
vn 0.017024 -0.304208 0.952453
vn 0.017024 -0.304208 0.952453
vn 0.017024 -0.304208 0.952453
vn 0.017024 -0.304208 0.952453
vn 0.844010 -0.235912 0.481655
vn 0.844010 -0.235912 0.481655
vn 0.844010 -0.235912 0.481655
vn 0.844010 -0.235912 0.481655
vn 0.843012 -0.217655 -0.491891
vn 0.843012 -0.217655 -0.491892
vn 0.843012 -0.217655 -0.491891
vn 0.843012 -0.217655 -0.491891
vn 0.012578 0.246416 -0.969083
vn 0.012578 0.246416 -0.969083
vn 0.012578 0.246416 -0.969083
vn 0.012578 0.246416 -0.969083
vn -0.822283 0.207495 -0.529902
vn -0.822283 0.207495 -0.529902
vn -0.822283 0.207495 -0.529902
vn -0.822283 0.207495 -0.529902
vn -0.858463 0.170302 0.483775
vn -0.858463 0.170302 0.483775
vn -0.858463 0.170302 0.483775
vn -0.858463 0.170302 0.483775
vn 0.047031 0.279369 0.959031
vn 0.047031 0.279369 0.959031
vn 0.047031 0.279369 0.959031
vn 0.047031 0.279369 0.959031
vn 0.837399 0.259729 0.480941
vn 0.837399 0.259729 0.480941
vn 0.837399 0.259729 0.480941
vn 0.837399 0.259729 0.480941
vn 0.832995 0.248219 -0.494476
vn 0.832995 0.248219 -0.494475
vn 0.832995 0.248219 -0.494475
vn 0.832995 0.248219 -0.494475
vn 0.122419 0.900326 -0.417645
vn 0.122419 0.900326 -0.417645
vn 0.122419 0.900326 -0.417645
vn 0.122419 0.900326 -0.417644
vn -0.345567 0.879445 -0.327352
vn -0.345567 0.879445 -0.327352
vn -0.345567 0.879445 -0.327352
vn -0.345567 0.879445 -0.327352
vn -0.380690 0.898202 0.219792
vn -0.380690 0.898202 0.219792
vn -0.380690 0.898202 0.219792
vn -0.380690 0.898202 0.219792
vn 0.183279 0.864462 0.468096
vn 0.183279 0.864462 0.468096
vn 0.183279 0.864462 0.468096
vn 0.183279 0.864462 0.468096
vn 0.326228 0.904636 0.274244
vn 0.326228 0.904636 0.274244
vn 0.326228 0.904635 0.274244
vn 0.326228 0.904636 0.274244
vn 0.305342 0.901290 -0.307316
vn 0.305342 0.901290 -0.307316
vn 0.305342 0.901290 -0.307316
vn 0.305342 0.901290 -0.307316
vn 0.082619 -0.984895 0.152171
vn 0.083126 -0.984815 0.152412
vn 0.182594 -0.962854 0.198925
vn 0.055925 -0.984955 -0.163512
vn 0.055862 -0.984922 -0.163732
vn 0.021162 -0.959070 -0.282376
vn -0.168593 -0.984816 0.041404
vn -0.169094 -0.984703 0.042034
vn -0.229708 -0.965950 0.119054
vn 0.172466 0.968642 0.178855
vn 0.172466 0.968642 0.178855
vn 0.172466 0.968642 0.178855
vn 0.408160 0.912521 0.026645
vn 0.408160 0.912521 0.026645
vn 0.408160 0.912521 0.026645
vn 0.397412 0.888492 -0.229446
vn 0.397412 0.888492 -0.229446
vn 0.397412 0.888492 -0.229446
vn 0.289933 0.908248 -0.301703
vn 0.289933 0.908248 -0.301703
vn 0.289933 0.908248 -0.301703
vn -0.229439 0.973256 -0.011457
vn -0.229439 0.973256 -0.011457
vn -0.229439 0.973256 -0.011457
vn -0.229135 0.971965 -0.052737
vn -0.229135 0.971965 -0.052737
vn -0.229135 0.971965 -0.052737
vn 0.080412 -0.985239 0.151123
vn 0.080412 -0.985239 0.151123
vn 0.083126 -0.984815 0.152412
vn 0.082619 -0.984895 0.152171
vn 0.075355 -0.979873 0.184852
vn 0.075355 -0.979873 0.184852
vn 0.075355 -0.979873 0.184852
vn -0.167008 -0.985167 0.039414
vn -0.167008 -0.985167 0.039414
vn -0.169094 -0.984703 0.042034
vn -0.168593 -0.984816 0.041404
vn -0.215161 -0.976151 -0.028909
vn -0.215161 -0.976151 -0.028909
vn -0.215161 -0.976151 -0.028909
vn 0.056446 -0.985226 -0.161687
vn 0.056446 -0.985226 -0.161687
vn 0.055862 -0.984922 -0.163732
vn 0.055925 -0.984955 -0.163512
vn 0.103944 -0.977677 -0.182602
vn 0.103944 -0.977677 -0.182602
vn 0.103944 -0.977677 -0.182602
s off
f 10/17/1 11/18/2 8/13/3 9/15/4
f 2/2/5 4/4/6 3/3/7
f 12/20/8 10/16/9 9/14/10 7/12/11
f 7/11/12 8/13/13 11/18/14 12/19/15
f 5/9/16 1/1/17 8/13/18 7/11/19
f 9/15/20 8/13/21 1/1/22 6/7/23
f 7/12/24 9/14/25 6/6/26 5/5/27
f 2/2/28 11/18/29 10/17/30 4/8/31
f 12/19/32 11/18/33 2/2/34 3/10/35
f 3/3/36 4/4/37 10/16/38 12/20/39
f 13/21/40 14/22/41 20/23/42 19/24/43
f 14/22/44 15/25/45 21/26/46 20/23/47
f 15/25/48 16/27/49 22/28/50 21/26/51
f 16/27/52 17/29/53 23/30/54 22/28/55
f 17/29/56 18/31/57 24/32/58 23/30/59
f 18/31/60 13/33/61 19/34/62 24/32/63
f 19/24/64 20/23/65 26/35/66 25/36/67
f 20/23/68 21/26/69 27/37/70 26/35/71
f 21/26/72 22/28/73 28/38/74 27/37/75
f 22/28/76 23/30/77 29/39/78 28/38/79
f 23/30/80 24/32/81 30/40/82 29/39/83
f 24/32/84 19/34/85 25/41/86 30/40/87
f 25/42/88 26/43/89 32/44/90 31/45/91
f 26/43/92 27/46/93 33/47/94 32/44/95
f 27/46/96 28/48/97 34/49/98 33/47/99
f 28/48/100 29/50/101 35/51/102 34/49/103
f 29/50/104 30/52/105 36/53/106 35/51/107
f 30/52/108 25/42/109 31/45/110 36/53/111
f 31/45/112 32/44/113 38/54/114 37/55/115
f 32/44/116 33/47/117 39/59/118 38/54/119
f 33/47/120 34/49/121 40/60/122 39/59/123
f 34/49/124 35/51/125 41/61/126 40/60/127
f 35/51/128 36/53/129 42/62/130 41/61/131
f 36/53/132 31/45/133 37/55/134 42/62/135
f 45/56/136 46/57/137 43/58/138
f 47/64/139 45/56/140 43/58/141
f 46/57/142 47/64/143 43/58/144
f 37/55/145 38/54/146 44/63/147
f 38/54/148 39/59/149 44/63/150
f 39/59/151 40/60/152 44/63/153
f 40/60/154 41/61/155 44/63/156
f 41/61/157 42/62/158 44/63/159
f 42/62/160 37/55/161 44/63/162
f 15/25/163 14/22/164 46/68/165 45/65/166
f 14/22/167 13/21/168 46/67/169
f 13/33/170 18/31/171 47/71/172 46/69/173
f 18/31/174 17/29/175 47/70/176
f 17/29/177 16/27/178 45/73/179 47/72/180
f 16/27/181 15/25/182 45/66/183
