# This file uses centimeters as units for non-parametric coordinates.

v -5.060120 -0.125048 0.881897
v 0.002747 3.335365 1.709839
v 1.226318 3.632132 -1.714539
v 0.002747 0.931475 -4.732483
v -4.384277 -0.669804 -3.364502
v -6.123840 -2.824602 -0.449036
v -2.320923 -2.929743 5.552551
v 2.634460 1.729190 3.606140
v 5.630493 1.643433 -1.176636
v 2.721008 -2.688265 -4.634827
v -3.640320 1.523445 -2.509888
v 8.390564 -2.570328 0.322021
v 5.107483 -2.699099 5.072083
v -3.944336 -2.651786 -4.359253
v -3.694214 -6.229762 1.333557
v 0.607056 -6.110567 4.672607
v -2.546509 -6.138757 -0.725525
v 2.456116 -6.126916 0.434448
v -2.056091 17.662312 -4.312500
v -2.300232 20.516651 -4.575378
v -3.126221 19.137043 -3.454224
v 2.347290 27.004734 4.656494
v 2.477295 25.968830 3.146179
v 3.428467 25.193913 3.967102
v 2.587891 1.071644 1.444275
v -1.730103 1.071644 0.329407
v 1.354187 2.082854 -2.086548
v 1.294983 9.295540 1.692322
v -1.620056 11.261488 0.711731
v 0.057068 8.699659 -0.969116
v 1.119446 12.953118 -0.191589
v 7.978577 30.914982 12.817688
v -2.493591 23.982332 6.561157
v 6.554077 24.441542 0.450867
v 1.628723 26.088642 2.984619
v 9.342468 28.243990 4.865417
v 4.436462 29.843719 7.424561
v 0.294739 27.784771 10.975769
v -4.806396 13.185219 13.101196
v -4.288818 14.576609 -0.187378
v 5.182251 15.225660 5.072449
v 0.427063 16.882475 2.003235
v 2.057861 15.446514 10.671204
v -2.694275 17.046690 7.603455
v -7.413391 14.797478 5.411377
v -7.248169 24.459047 -13.101196
v 3.247437 16.619450 -5.749695
v -6.808105 17.441040 0.173340
v -1.349304 18.958055 -2.198792
v -9.342468 21.629974 -4.710510
v -3.904785 23.097179 -7.111267
v 0.712952 20.808420 -10.633545
vt 0.048058 0.323974
vt 0.048058 0.323974
vt 0.048058 0.323974
vt 0.048058 0.323974
vt 0.048058 0.323974
vt 0.048058 0.323974
vt 0.048058 0.323974
vt 0.048058 0.323974
vt 0.048058 0.323974
vt 0.048058 0.323974
vt 0.048058 0.323974
vt 0.048058 0.323974
vt 0.048058 0.323974
vt 0.048058 0.323974
vt 0.048058 0.323974
vt 0.048058 0.323974
vt 0.048058 0.323974
vt 0.048058 0.323974
vt 0.048058 0.323974
vt 0.048058 0.323974
vt 0.048058 0.323974
vt 0.048058 0.323974
vt 0.048058 0.323974
vt 0.048058 0.323974
vt 0.048058 0.323974
vt 0.143741 0.254469
vt 0.143741 0.254469
vt 0.143741 0.254469
vt 0.143741 0.254469
vt 0.143741 0.254469
vt 0.143741 0.254469
vt 0.143741 0.254469
vt 0.143741 0.254469
vt 0.143741 0.254469
vt 0.143741 0.254469
vt 0.143741 0.254469
vt 0.143741 0.254469
vt 0.143741 0.254469
vt 0.412400 0.370757
vt 0.412536 0.405325
vt 0.384294 0.405325
vt 0.440778 0.405325
vt 0.440778 0.456891
vt 0.412536 0.456891
vt 0.384294 0.456891
vt 0.412400 0.370757
vt 0.412536 0.405325
vt 0.384294 0.405325
vt 0.440778 0.405325
vt 0.440778 0.456891
vt 0.412536 0.456891
vt 0.384294 0.456891
vt 0.512604 0.367315
vt 0.512740 0.401883
vt 0.484498 0.401883
vt 0.540981 0.401883
vt 0.540981 0.453449
vt 0.512740 0.453449
vt 0.484498 0.453449
vn -0.223517 0.568509 0.791730
vn -0.223517 0.568509 0.791730
vn -0.223517 0.568509 0.791731
vn 0.382511 0.897441 0.219737
vn 0.382511 0.897441 0.219737
vn 0.382511 0.897441 0.219737
vn 0.382511 0.897441 0.219737
vn 0.431793 0.460465 -0.775582
vn 0.431793 0.460465 -0.775582
vn 0.431793 0.460465 -0.775582
vn 0.431793 0.460465 -0.775582
vn -0.156369 0.069623 -0.985242
vn -0.156369 0.069623 -0.985242
vn -0.156369 0.069623 -0.985242
vn -0.156369 0.069623 -0.985242
vn -0.901103 0.283186 -0.328358
vn -0.901103 0.283186 -0.328358
vn -0.901103 0.283186 -0.328358
vn -0.901103 0.283186 -0.328358
vn -0.842193 0.068162 0.534851
vn -0.842193 0.068162 0.534851
vn -0.842192 0.068162 0.534851
vn -0.388717 0.919453 -0.059211
vn -0.388717 0.919453 -0.059211
vn -0.388717 0.919453 -0.059211
vn -0.574509 0.804536 0.150536
vn -0.574509 0.804536 0.150536
vn -0.574509 0.804536 0.150536
vn -0.308174 0.663430 -0.681828
vn -0.308174 0.663430 -0.681828
vn -0.308174 0.663430 -0.681828
vn -0.308174 0.663430 -0.681828
vn -0.903923 0.381755 -0.192839
vn -0.903923 0.381755 -0.192839
vn -0.903923 0.381755 -0.192839
vn -0.501340 0.579845 0.642214
vn -0.501340 0.579845 0.642214
vn -0.501340 0.579845 0.642214
vn 0.653751 0.594653 0.467971
vn 0.653751 0.594653 0.467971
vn 0.653751 0.594653 0.467971
vn 0.715183 0.544478 0.438243
vn 0.715183 0.544478 0.438243
vn 0.715183 0.544478 0.438243
vn 0.050235 0.339043 0.939429
vn 0.050235 0.339043 0.939429
vn 0.050235 0.339043 0.939429
vn 0.647897 0.159471 -0.744848
vn 0.647897 0.159471 -0.744848
vn 0.647897 0.159471 -0.744848
vn 0.349550 -0.917912 0.187758
vn 0.016107 -0.999862 -0.004188
vn 0.016107 -0.999862 -0.004188
vn 0.387828 -0.897504 0.209941
vn -0.668628 -0.464315 0.580818
vn -0.668628 -0.464315 0.580818
vn -0.668628 -0.464315 0.580818
vn -0.668628 -0.464315 0.580818
vn -0.642489 -0.661194 -0.387337
vn -0.642489 -0.661194 -0.387337
vn -0.642489 -0.661194 -0.387337
vn -0.642489 -0.661194 -0.387337
vn 0.045779 -0.778747 -0.625666
vn 0.045779 -0.778747 -0.625666
vn 0.045779 -0.778747 -0.625666
vn 0.045779 -0.778747 -0.625666
vn 0.441988 -0.752907 -0.487625
vn 0.441988 -0.752907 -0.487625
vn 0.441988 -0.752907 -0.487625
vn 0.525887 -0.799490 0.290274
vn 0.525887 -0.799490 0.290274
vn 0.349550 -0.917912 0.187758
vn 0.387828 -0.897504 0.209941
vn 0.069529 -0.206019 0.976075
vn 0.069529 -0.206019 0.976075
vn 0.069529 -0.206019 0.976075
vn -0.290757 -0.051385 0.955416
vn -0.290757 -0.051385 0.955416
vn -0.290757 -0.051385 0.955416
vn -0.290757 -0.051385 0.955416
vn 0.915793 0.192272 -0.352639
vn 0.915793 0.192272 -0.352639
vn 0.915793 0.192272 -0.352639
vn 0.915793 0.192272 -0.352639
vn -0.647900 0.022183 -0.761402
vn -0.647900 0.022183 -0.761403
vn -0.647900 0.022183 -0.761403
vn -0.647900 0.022183 -0.761403
vn 0.061581 0.498496 0.864702
vn 0.061581 0.498496 0.864702
vn 0.061581 0.498496 0.864702
vn 0.061581 0.498496 0.864702
vn 0.782472 -0.051918 -0.620517
vn 0.820346 -0.078637 -0.566435
vn 0.767591 -0.042056 -0.639558
vn 0.767591 -0.042056 -0.639558
vn -0.859330 -0.350712 -0.372226
vn -0.859331 -0.350712 -0.372226
vn -0.859331 -0.350712 -0.372226
vn -0.859330 -0.350712 -0.372226
vn 0.908508 -0.156057 -0.387634
vn 0.820346 -0.078637 -0.566435
vn 0.782472 -0.051918 -0.620517
vn -0.211327 -0.149127 0.965972
vn -0.211327 -0.149127 0.965972
vn -0.211327 -0.149127 0.965972
vn -0.211327 -0.149127 0.965972
vn 0.906022 -0.027420 -0.422341
vn 0.906022 -0.027420 -0.422341
vn 0.906022 -0.027420 -0.422341
vn 0.906022 -0.027420 -0.422341
vn -0.653472 0.297280 -0.696131
vn -0.653472 0.297280 -0.696131
vn -0.653472 0.297280 -0.696131
vn -0.653472 0.297280 -0.696131
vn -0.719506 -0.124467 -0.683241
vn -0.719506 -0.124467 -0.683241
vn -0.719506 -0.124467 -0.683241
vn 0.750611 0.573254 -0.328576
vn 0.750611 0.573254 -0.328576
vn 0.750611 0.573254 -0.328576
vn -0.391580 0.917081 0.075018
vn -0.391580 0.917081 0.075018
vn -0.391580 0.917081 0.075018
vn 0.156427 0.944075 -0.290265
vn 0.156427 0.944074 -0.290265
vn 0.156427 0.944074 -0.290265
vn -0.065675 0.779089 -0.623464
vn -0.065675 0.779089 -0.623464
vn -0.065675 0.779089 -0.623464
vn -0.065675 0.779089 -0.623464
vn -0.604314 0.752894 -0.260682
vn -0.604314 0.752894 -0.260682
vn -0.604314 0.752894 -0.260682
vn -0.604314 0.752894 -0.260682
vn -0.529056 0.776543 0.342171
vn -0.529056 0.776543 0.342171
vn -0.529056 0.776543 0.342171
vn -0.077572 0.829625 0.552906
vn -0.077572 0.829625 0.552906
vn -0.077572 0.829625 0.552906
vn 0.257470 0.959938 0.110586
vn 0.257470 0.959938 0.110586
vn 0.257470 0.959938 0.110586
vn 0.257470 0.959938 0.110586
vn -0.339075 0.914540 -0.220557
vn -0.339075 0.914540 -0.220557
vn -0.339075 0.914540 -0.220557
vn -0.339075 0.914540 -0.220557
vn 0.424615 0.904834 -0.031284
vn 0.424615 0.904834 -0.031284
vn 0.424615 0.904834 -0.031284
vn -0.129005 0.948973 0.287764
vn -0.129005 0.948973 0.287764
vn -0.129005 0.948973 0.287764
vn 0.062278 0.776151 0.627464
vn 0.062278 0.776151 0.627464
vn 0.062278 0.776151 0.627464
vn 0.062278 0.776151 0.627464
vn 0.605475 0.733456 0.308937
vn 0.605475 0.733456 0.308937
vn 0.605475 0.733456 0.308937
vn 0.605475 0.733456 0.308937
s off
f 7/14/1 8/15/2 2/2/3
f 8/15/4 9/16/5 3/3/6 2/2/7
f 9/16/8 10/17/9 4/4/10 3/3/11
f 10/17/12 14/21/13 5/5/14 4/4/15
f 14/21/16 6/12/17 1/6/18 5/5/19
f 6/12/20 7/13/21 1/6/22
f 3/9/23 11/18/24 2/10/25
f 1/11/26 2/10/27 11/18/28
f 5/7/29 11/18/30 3/9/31 4/8/32
f 1/11/33 11/18/34 5/7/35
f 7/14/36 2/2/37 1/1/38
f 13/20/39 12/19/40 9/16/41
f 13/20/42 9/16/43 8/15/44
f 7/14/45 13/20/46 8/15/47
f 12/19/48 10/17/49 9/16/50
f 16/22/51 15/23/52 17/24/53 18/25/54
f 7/13/55 6/12/56 15/23/57 16/22/58
f 6/12/59 14/21/60 17/24/61 15/23/62
f 14/21/63 10/17/64 18/25/65 17/24/66
f 10/17/67 12/19/68 18/25/69
f 12/19/70 13/20/71 16/22/72 18/25/73
f 13/20/74 7/13/75 16/22/76
f 26/26/77 25/27/78 28/28/79 29/29/80
f 25/27/81 27/30/82 30/31/83 28/28/84
f 27/30/85 26/26/86 29/29/87 30/31/88
f 29/29/89 31/32/90 20/33/91 21/34/92
f 31/32/93 30/31/94 19/35/95 20/33/96
f 30/31/97 29/29/98 21/34/99 19/35/100
f 28/28/101 30/31/102 31/32/103
f 29/29/104 28/28/105 24/36/106 22/37/107
f 28/28/108 31/32/109 23/38/110 24/36/111
f 31/32/112 29/29/113 22/37/114 23/38/115
f 20/33/116 19/35/117 21/34/118
f 23/38/119 22/37/120 24/36/121
f 32/39/122 37/40/123 38/41/124
f 32/39/125 36/42/126 37/40/127
f 37/40/128 36/42/129 34/43/130 35/44/131
f 38/41/132 37/40/133 35/44/134 33/45/135
f 39/46/136 44/47/137 45/48/138
f 39/46/139 43/49/140 44/47/141
f 44/47/142 43/49/143 41/50/144 42/51/145
f 45/48/146 44/47/147 42/51/148 40/52/149
f 46/53/150 51/54/151 52/55/152
f 46/53/153 50/56/154 51/54/155
f 51/54/156 50/56/157 48/57/158 49/58/159
f 52/55/160 51/54/161 49/58/162 47/59/163
