# This file uses centimeters as units for non-parametric coordinates.

v 72.634453 6.903641 52.695545
v -12.879025 6.903641 52.695545
v 72.634453 -23.134445 52.695545
v -12.879025 -23.134445 52.695545
v 72.634453 -23.134445 50.579220
v -12.879025 -23.134445 50.579220
v 72.634453 6.903641 50.579220
v -12.879025 6.903641 50.579220
v 30.915979 -23.134445 52.695545
v 11.307785 -23.134445 52.695545
v 22.523388 -23.134445 51.534416
v 21.937359 -19.532043 52.695545
v 48.407078 -23.134445 52.695545
v 37.316135 -23.134445 52.695545
v 44.567398 -23.134445 51.397438
v 43.729424 -20.796917 52.695545
v 72.634453 -3.984281 52.695545
v 72.634453 -7.496187 52.695545
v 72.634453 -7.042168 50.579220
v 72.634453 -4.542986 50.579220
v 70.778625 -5.385653 50.579220
v 68.718033 -5.549519 52.695545
v 63.235081 6.903641 52.695545
v 47.033073 6.903641 52.695545
v 55.332294 4.790300 52.695545
v 55.177021 6.903641 51.777676
v 35.622234 6.903641 50.579220
v 21.013866 6.903641 50.579220
v 28.604418 6.903641 51.559002
v 28.681814 4.703114 50.579220
vt 0.821286 0.190238
vt 0.885139 0.310429
vt 0.839466 0.320355
vt 0.509758 0.320355
vt 0.701360 0.196180
vt 0.980356 0.179258
vt 0.825897 0.179258
vt 0.704585 0.179258
vt 0.509758 0.179258
vt 0.738476 0.310019
vt 0.970143 0.262629
vt 0.980356 0.254848
vt 0.980356 0.320355
vt 0.884284 0.320355
vt 0.928629 0.320355
vt 0.980356 0.320355
vt 0.509758 0.320355
vt 0.509758 0.179258
vt 0.980356 0.266588
vt 0.980356 0.269212
vt 0.958803 0.261860
vt 0.750771 0.179258
vt 0.642863 0.179258
vt 0.847028 0.179258
vt 0.785992 0.179258
vt 0.980356 0.252716
vt 0.980356 0.179258
vt 0.776670 0.320355
vt 0.738050 0.320355
vt 0.696278 0.320355
vt 0.949613 0.286733
vt 0.949613 0.286733
vt 0.949615 0.286733
vt 0.949613 0.286733
vt 0.949613 0.286733
vt 0.949613 0.286733
vt 0.949614 0.286733
vt 0.949615 0.286733
vt 0.949613 0.286733
vt 0.949613 0.286733
vn 0.000000 0.000000 1.000000
vn 0.000000 0.000000 1.000000
vn 0.000000 0.000000 1.000000
vn 0.000000 0.000000 1.000000
vn 0.000000 0.000000 1.000000
vn 0.000000 -1.000000 -0.000003
vn 0.000000 -1.000000 -0.000003
vn 0.000000 -1.000000 -0.000003
vn 0.000000 -1.000000 -0.000003
vn 0.000000 0.000000 -1.000000
vn 0.000000 0.000000 -1.000000
vn 0.000000 0.000000 -1.000000
vn 0.000000 0.000000 -1.000000
vn 0.000000 0.000000 -1.000000
vn 0.000000 1.000000 0.000000
vn 0.000000 1.000000 0.000000
vn 0.000000 1.000000 0.000000
vn 0.000000 1.000000 0.000000
vn -1.000000 0.000000 0.000000
vn -1.000000 0.000000 0.000000
vn -1.000000 0.000000 0.000000
vn -1.000000 0.000000 0.000000
vn 0.371356 -0.890218 0.263832
vn 0.371356 -0.890218 0.263832
vn 0.371356 -0.890218 0.263832
vn 0.371356 -0.890218 0.263832
vn -0.129689 -0.323238 0.937389
vn -0.129689 -0.323238 0.937389
vn -0.129689 -0.323238 0.937389
vn 0.098529 -0.290730 0.951718
vn 0.098529 -0.290730 0.951719
vn 0.098529 -0.290730 0.951718
vn -0.269643 -0.539588 0.797582
vn -0.269643 -0.539588 0.797582
vn -0.269643 -0.539588 0.797582
vn 0.158647 -0.435270 0.886212
vn 0.158647 -0.435270 0.886212
vn 0.158647 -0.435270 0.886212
vn 1.000000 0.000000 0.000000
vn 1.000000 0.000000 0.000000
vn 1.000000 0.000000 0.000000
vn 1.000000 0.000000 0.000000
vn 1.000000 0.000000 0.000000
vn 1.000000 0.000000 0.000000
vn 1.000000 0.000000 0.000000
vn 1.000000 0.000000 0.000000
vn 0.494724 0.792543 0.356544
vn 0.494724 0.792543 0.356544
vn 0.494724 0.792543 0.356544
vn 0.494724 0.792543 0.356544
vn -0.104226 0.389749 0.915004
vn -0.104226 0.389749 0.915004
vn -0.104226 0.389749 0.915004
vn 0.102519 0.402599 0.909617
vn 0.102519 0.402599 0.909617
vn 0.102519 0.402599 0.909617
vn -0.126744 0.399748 -0.907820
vn -0.126744 0.399748 -0.907820
vn -0.126744 0.399748 -0.907820
vn 0.116912 0.407391 -0.905739
vn 0.116912 0.407391 -0.905739
vn 0.116912 0.407391 -0.905739
vn -0.000000 0.000000 1.000000
vn -0.000000 0.000000 1.000000
vn -0.000000 0.000000 1.000000
vn -0.000000 0.000000 1.000000
vn 0.000000 0.000000 1.000000
vn 0.000000 0.000000 1.000000
vn 0.000000 0.000000 1.000000
vn 0.000000 0.000000 1.000000
vn 0.000000 0.000000 1.000000
vn 0.000000 0.000000 1.000000
vn 0.000000 0.000000 1.000000
vn 0.000000 0.000000 1.000000
vn 0.000000 0.000000 1.000000
vn -0.000000 0.000000 1.000000
vn -0.000000 0.000000 1.000000
vn -0.000000 0.000000 1.000000
vn -0.000000 0.000000 1.000000
vn 0.000000 0.000000 1.000000
vn 0.000000 0.000000 1.000000
vn 0.000000 0.000000 1.000000
vn 0.000000 0.000000 1.000000
vn 0.000000 1.000000 0.000001
vn 0.000000 1.000000 0.000001
vn 0.000000 1.000000 0.000001
vn 0.000000 1.000000 0.000001
vn 0.000000 1.000000 -0.000000
vn 0.000000 1.000000 -0.000000
vn 0.000000 1.000000 -0.000000
vn 0.000000 1.000000 -0.000000
vn 0.000000 1.000000 -0.000001
vn 0.000000 1.000000 -0.000001
vn 0.000000 1.000000 -0.000001
vn 0.000000 1.000000 -0.000001
vn -0.000000 0.000000 -1.000000
vn -0.000000 0.000000 -1.000000
vn -0.000000 0.000000 -1.000000
vn -0.000000 0.000000 -1.000000
vn 0.000000 0.000000 -1.000000
vn 0.000000 0.000000 -1.000000
vn 0.000000 0.000000 -1.000000
vn 0.000000 0.000000 -1.000000
vn 0.000000 0.000000 -1.000000
vn 0.000000 -1.000000 0.000000
vn 0.000000 -1.000000 0.000000
vn 0.000000 -1.000000 0.000000
vn 0.000000 -1.000000 0.000000
vn 0.000000 -1.000000 0.000001
vn 0.000000 -1.000000 0.000001
vn 0.000000 -1.000000 0.000001
vn 0.000000 -1.000000 0.000001
vn 0.000000 -1.000000 0.000001
vn 0.000000 -1.000000 0.000001
vn 0.000000 -1.000000 0.000001
vn 0.000000 -1.000000 0.000001
s off
f 16/1/1 25/2/2 24/3/3 2/4/4 12/5/5
f 5/6/6 15/7/7 11/8/8 6/9/9
f 5/31/10 6/32/11 30/33/12 21/34/13 19/35/14
f 7/13/15 26/14/16 23/15/17 1/16/18
f 2/4/19 8/17/20 6/9/21 4/18/22
f 20/19/23 17/20/24 22/21/25 21/11/26
f 9/22/27 12/5/28 11/8/29
f 11/8/30 12/5/31 10/23/32
f 13/24/33 16/1/34 15/7/35
f 15/7/36 16/1/37 14/25/38
f 19/12/39 18/26/40 3/27/41 5/6/42
f 7/13/43 1/16/44 17/20/45 20/19/46
f 21/11/47 22/21/48 18/26/49 19/12/50
f 26/14/51 25/2/52 23/15/53
f 24/3/54 25/2/55 26/14/56
f 27/28/57 30/10/58 29/29/59
f 29/29/60 30/10/61 28/30/62
f 12/5/63 2/4/64 4/18/65 10/23/66
f 16/1/67 12/5/68 9/22/69 14/25/70
f 1/16/71 23/15/72 25/2/73 22/21/74 17/20/75
f 22/21/76 13/24/77 3/27/78 18/26/79
f 22/21/80 25/2/81 16/1/82 13/24/83
f 26/14/84 29/29/85 2/4/86 24/3/87
f 7/13/88 27/28/89 29/29/90 26/14/91
f 2/4/92 29/29/93 28/30/94 8/17/95
f 30/33/96 6/32/97 8/36/98 28/37/99
f 21/34/100 30/33/101 27/38/102 7/39/103 20/40/104
f 3/27/105 13/24/106 15/7/107 5/6/108
f 11/8/109 15/7/110 14/25/111 9/22/112
f 6/9/113 11/8/114 10/23/115 4/18/116
