# This file uses centimeters as units for non-parametric coordinates.

v 25.404602 -23.134453 45.958321
v 25.404602 -23.134453 54.908230
v 26.202316 113.452652 46.358681
v 26.202316 113.452652 54.507866
v 34.350830 113.557487 46.358681
v 31.323944 113.518547 54.507866
v 34.353760 -23.019325 45.958321
v 34.353760 -23.019325 54.908230
v 34.350830 113.557487 51.627991
v 34.401672 109.605789 54.507866
v 33.832672 41.343254 46.765472
v 34.105148 20.165192 46.765472
v 33.948853 32.313683 49.862328
v 30.348663 33.365669 46.765472
v 33.939651 33.028450 54.101074
v 26.593567 33.796219 54.101074
v 26.599976 33.297478 46.765472
vt 0.250759 0.378935
vt 0.250759 0.378935
vt 0.250759 0.378935
vt 0.250759 0.378935
vt 0.250759 0.378935
vt 0.250759 0.378935
vt 0.250759 0.378935
vt 0.250759 0.378935
vt 0.250759 0.378935
vt 0.250759 0.378935
vt 0.250759 0.378935
vt 0.250759 0.378935
vt 0.250759 0.378935
vt 0.250759 0.378935
vt 0.250759 0.378935
vt 0.250759 0.378935
vt 0.250759 0.378935
vt 0.250759 0.378935
vt 0.250759 0.378935
vt 0.250759 0.378935
vt 0.250759 0.378935
vt 0.250759 0.378935
vt 0.250759 0.378935
vt 0.250759 0.378935
vt 0.250759 0.378935
vt 0.250759 0.378935
vn -0.999778 0.021028 -0.001037
vn -0.999778 0.021028 -0.001037
vn -0.999778 0.021028 -0.001037
vn -0.999778 0.021028 -0.001037
vn -0.012865 0.999917 0.000000
vn -0.012865 0.999917 0.000000
vn -0.012865 0.999917 0.000000
vn -0.012865 0.999917 0.000000
vn -0.012865 0.999917 0.000000
vn 0.999965 0.007034 0.004606
vn 0.999965 0.007034 0.004606
vn 0.999965 0.007034 0.004606
vn 0.999965 0.007034 0.004606
vn 0.999965 0.007034 0.004606
vn 0.000572 0.014283 0.999898
vn 0.000572 0.014283 0.999898
vn 0.000572 0.014283 0.999898
vn 0.000572 0.014283 0.999898
vn 0.011999 0.015168 -0.999813
vn 0.011999 0.015168 -0.999813
vn 0.011999 0.015168 -0.999813
vn 0.011999 0.015168 -0.999813
vn 0.011999 0.015168 -0.999813
vn 0.603473 0.474685 0.640698
vn 0.603473 0.474685 0.640698
vn 0.603473 0.474685 0.640698
vn 0.671602 0.191120 -0.715838
vn 0.671602 0.191120 -0.715838
vn 0.671602 0.191120 -0.715838
vn 0.586296 -0.256050 -0.768567
vn 0.586296 -0.256050 -0.768567
vn 0.586296 -0.256050 -0.768567
vn 0.999877 -0.005604 -0.014630
vn 0.999877 -0.005604 -0.014630
vn 0.999877 -0.005604 -0.014630
vn 0.999877 -0.005604 -0.014630
vn 0.999877 -0.005604 -0.014630
vn 0.999877 -0.005604 -0.014630
vn -0.001520 -0.005121 0.999986
vn -0.001520 -0.005121 0.999986
vn -0.001520 -0.005121 0.999986
vn -0.001520 -0.005121 0.999986
vn -0.001520 -0.005121 0.999986
vn -0.999988 -0.004936 -0.000255
vn -0.999988 -0.004936 -0.000255
vn -0.999988 -0.004936 -0.000255
vn -0.999988 -0.004936 -0.000255
vn 0.002760 -0.005210 -0.999983
vn 0.002760 -0.005210 -0.999983
vn 0.002760 -0.005210 -0.999983
vn 0.002760 -0.005210 -0.999983
vn 0.002760 -0.005210 -0.999983
vn 0.012864 -0.999917 0.000000
vn 0.012864 -0.999917 0.000000
vn 0.012864 -0.999917 0.000000
vn 0.012864 -0.999917 0.000000
s off
f 1/1/1 2/2/2 16/3/3 17/4/4
f 3/5/5 4/6/6 6/7/7 9/8/8 5/9/9
f 13/10/10 15/11/11 8/12/12 7/13/13 12/14/14
f 2/2/15 8/15/16 15/16/17 16/3/18
f 7/17/19 1/1/20 17/4/21 14/18/22 12/19/23
f 10/20/24 9/8/25 6/7/26
f 12/19/27 14/18/28 13/21/29
f 13/21/30 14/18/31 11/22/32
f 5/9/33 9/8/34 10/20/35 15/11/36 13/10/37 11/23/38
f 16/3/39 15/16/40 10/24/41 6/25/42 4/6/43
f 17/4/44 16/3/45 4/6/46 3/5/47
f 14/18/48 17/4/49 3/5/50 5/26/51 11/22/52
f 2/2/53 1/1/54 7/13/55 8/15/56
