# This file uses centimeters as units for non-parametric coordinates.

v -0.565259 -7.855453 -7.133812
v -0.585100 -18.962584 -7.130234
v 2.314578 -5.716324 -3.890663
v 3.836390 -7.874680 -1.922356
v 3.353635 -13.623353 -2.348183
v 3.386952 -18.093870 -2.398499
v 2.214412 -20.027485 -3.687004
v 3.296402 -5.788084 -9.050804
v 5.562870 -7.994594 -10.199097
v 5.101332 -13.623524 -10.240250
v 4.956760 -18.020817 -9.927368
v 3.313194 -19.966553 -9.199455
v -2.011345 -5.519499 -11.011086
v -2.991503 -7.565536 -13.531670
v -3.016997 -13.623602 -13.491669
v -2.839905 -18.274303 -12.963654
v -2.213148 -20.137800 -11.204536
v -0.240942 -20.106182 -2.706635
v -0.289912 -18.217499 -0.943932
v -0.435077 -13.623461 -0.850952
v -0.197304 -7.664036 -0.332207
v -0.341522 -5.578961 -2.876705
v -4.985327 -20.238485 -7.006172
v -6.809160 -18.398035 -6.930672
v -7.150187 -13.623519 -7.209419
v -7.369849 -7.356746 -6.913811
v -4.687715 -5.394924 -6.814148
v -4.159606 -20.208345 -9.726219
v -5.853095 -18.362499 -10.545647
v -6.183344 -13.623535 -10.901192
v -6.318648 -7.404499 -10.866791
v -4.047523 -5.421243 -9.385414
v 0.924537 -20.044449 -11.286919
v 1.418463 -18.140022 -13.078438
v 1.359261 -13.623550 -13.618752
v 1.665067 -7.792740 -13.667107
v 0.963391 -5.666638 -11.106083
v 3.757169 -19.966326 -6.195946
v 5.417815 -18.022928 -5.589760
v 5.581757 -13.623409 -5.771309
v 6.071531 -7.999565 -5.442833
v 3.641685 -5.791000 -6.009319
v -6.787870 -7.872282 -8.680260
v -6.243218 -17.832561 -8.526962
v -4.057412 -6.027077 -8.056038
v -4.450106 -19.552580 -8.138557
v -6.480547 -13.792190 -9.043671
v 5.813410 -8.489095 -7.677223
v 5.158942 -17.471863 -7.616440
v 3.192245 -6.382098 -7.485836
v 3.384787 -19.304588 -7.511818
v 5.279776 -13.792190 -8.079010
v 1.633382 -8.255665 -1.054169
v 1.377962 -17.608328 -1.629707
v 0.776318 -6.247219 -3.666790
v 0.770968 -19.398891 -3.385101
v 1.210520 -13.792190 -1.797028
v -0.570339 -8.176071 -13.492851
v -0.617046 -17.654903 -12.877457
v -0.482757 -6.201733 -10.828934
v -0.587836 -19.430611 -11.133080
v -0.715962 -13.792191 -13.605499
v -2.989766 -7.465286 -8.064819
v 0.299806 -7.626013 -8.876266
v -2.622791 -7.483209 -5.818069
v -0.505480 -7.586666 -4.954315
v -1.079192 -1.577856 -4.456501
v -0.200224 -2.038690 -4.683296
v -1.437161 -0.685384 -4.943352
v -0.271612 -0.546198 -5.819561
v 0.333863 -1.495719 -5.390636
v 1.241313 -7.672014 -6.485390
v -1.863234 -4.614894 -6.834858
v -1.412794 -4.894660 -6.029144
v -0.429718 -5.049013 -6.016232
v 0.090670 -4.839239 -6.849323
v -0.620033 -4.569313 -7.633736
v -0.784089 -0.508187 0.412075
v -0.000008 -0.000001 -0.000011
v -0.956388 0.531297 0.266762
v 0.135759 0.748464 -0.528637
v -0.058916 -1.003808 0.027725
v 0.524318 -0.371725 -0.465900
v -3.352456 -6.537627 -3.971977
v -4.814069 -8.302108 -2.750404
v -4.649945 -13.430299 -3.282043
v -4.422841 -17.478834 -3.202286
v -3.537193 -19.114929 -3.865700
v -4.255950 -20.211617 -4.626167
v -5.557882 -18.353992 -3.962685
v -5.841267 -13.623495 -4.115593
v -6.033345 -7.429851 -3.594757
v -4.197547 -5.424139 -4.431595
v -2.647382 -20.169027 -3.057518
v -3.374680 -18.295870 -1.797287
v -3.602202 -13.623476 -1.825928
v -3.626910 -7.528781 -1.212532
v -2.700740 -5.483387 -2.979656
vt 0.207747 0.327119
vt 0.207747 0.327119
vt 0.207747 0.327119
vt 0.207747 0.327119
vt 0.207747 0.327119
vt 0.207747 0.327119
vt 0.207747 0.327119
vt 0.207747 0.327119
vt 0.207747 0.327119
vt 0.207747 0.327119
vt 0.207747 0.327119
vt 0.207747 0.327119
vt 0.207747 0.327119
vt 0.207747 0.327119
vt 0.207747 0.327119
vt 0.207747 0.327119
vt 0.207747 0.327119
vt 0.207747 0.327119
vt 0.207747 0.327119
vt 0.207747 0.327119
vt 0.207747 0.327119
vt 0.207747 0.327119
vt 0.207747 0.327119
vt 0.207747 0.327119
vt 0.207747 0.327119
vt 0.207747 0.327119
vt 0.207747 0.327119
vt 0.207747 0.327119
vt 0.207747 0.327119
vt 0.207747 0.327119
vt 0.207747 0.327119
vt 0.207747 0.327119
vt 0.207747 0.327119
vt 0.207747 0.327119
vt 0.207747 0.327119
vt 0.207747 0.327119
vt 0.207747 0.327120
vt 0.207747 0.327119
vt 0.207747 0.327119
vt 0.207747 0.327119
vt 0.207747 0.327119
vt 0.207747 0.327119
vt 0.207747 0.327120
vt 0.207747 0.327119
vt 0.207747 0.327119
vt 0.207747 0.327119
vt 0.207747 0.327119
vt 0.207747 0.327120
vt 0.207747 0.327119
vt 0.207747 0.327119
vt 0.207747 0.327119
vt 0.207747 0.327119
vt 0.207747 0.327120
vt 0.207747 0.327119
vt 0.207747 0.327119
vt 0.207747 0.327119
vt 0.207747 0.327119
vt 0.207747 0.327120
vt 0.207747 0.327119
vt 0.207747 0.327119
vt 0.207747 0.327119
vt 0.207747 0.327119
vt 0.144191 0.303631
vt 0.144191 0.303631
vt 0.144192 0.303631
vt 0.144191 0.303631
vt 0.144191 0.303631
vt 0.144192 0.303631
vt 0.144191 0.303631
vt 0.144191 0.303631
vt 0.144191 0.303631
vt 0.144191 0.303631
vt 0.144191 0.303631
vt 0.144191 0.303632
vt 0.144192 0.303632
vt 0.144191 0.303632
vt 0.144192 0.303632
vt 0.144192 0.303632
vt 0.144192 0.303631
vt 0.144191 0.303631
vt 0.144191 0.303631
vt 0.144192 0.303631
vt 0.144191 0.303631
vt 0.207747 0.327119
vt 0.207747 0.327119
vt 0.207747 0.327119
vt 0.207747 0.327119
vt 0.207747 0.327119
vt 0.207747 0.327119
vt 0.207747 0.327119
vt 0.207747 0.327119
vt 0.207747 0.327119
vt 0.207747 0.327119
vt 0.207747 0.327119
vt 0.207747 0.327119
vt 0.207747 0.327119
vt 0.207747 0.327119
vt 0.207747 0.327119
vn -0.625153 -0.106535 -0.773197
vn -0.625153 -0.106535 -0.773197
vn -0.625153 -0.106535 -0.773197
vn -0.625153 -0.106535 -0.773197
vn -0.438459 -0.681538 -0.585883
vn -0.438459 -0.681538 -0.585883
vn -0.438459 -0.681538 -0.585883
vn -0.438459 -0.681538 -0.585883
vn 0.587447 0.731951 0.345188
vn 0.587447 0.731951 0.345188
vn 0.587447 0.731951 0.345188
vn 0.587447 0.731951 0.345188
vn -0.812077 -0.035094 0.582495
vn -0.812077 -0.035094 0.582495
vn -0.812077 -0.035094 0.582495
vn -0.812077 -0.035094 0.582495
vn -0.810304 -0.520268 0.269683
vn -0.810304 -0.520268 0.269683
vn -0.810304 -0.520268 0.269683
vn -0.810304 -0.520268 0.269683
vn 0.469068 0.737420 -0.485991
vn 0.469068 0.737420 -0.485991
vn 0.469068 0.737420 -0.485991
vn 0.469068 0.737420 -0.485991
vn 0.840794 -0.004373 0.541338
vn 0.840794 -0.004373 0.541338
vn 0.840794 -0.004373 0.541338
vn 0.840794 -0.004373 0.541338
vn 0.643421 -0.659847 0.388087
vn 0.643421 -0.659847 0.388087
vn 0.643421 -0.659847 0.388087
vn 0.643421 -0.659847 0.388087
vn -0.361352 0.787485 -0.499292
vn -0.361352 0.787484 -0.499292
vn -0.361352 0.787484 -0.499292
vn -0.361352 0.787484 -0.499292
vn 0.666379 -0.077364 -0.741589
vn 0.666379 -0.077364 -0.741589
vn 0.666379 -0.077364 -0.741589
vn 0.666379 -0.077364 -0.741589
vn 0.514792 -0.650905 -0.557953
vn 0.514792 -0.650905 -0.557953
vn 0.514792 -0.650905 -0.557953
vn 0.514792 -0.650905 -0.557953
vn 0.835480 -0.107194 0.538965
vn 0.835480 -0.107194 0.538965
vn 0.835480 -0.107194 0.538965
vn 0.835480 -0.107194 0.538965
vn -0.792060 -0.075135 0.605802
vn -0.792060 -0.075135 0.605802
vn -0.792060 -0.075135 0.605802
vn -0.792060 -0.075135 0.605802
vn -0.629184 -0.005982 -0.777233
vn -0.629184 -0.005982 -0.777233
vn -0.629184 -0.005982 -0.777233
vn -0.629184 -0.005982 -0.777233
vn 0.666043 -0.045066 -0.744551
vn 0.666043 -0.045066 -0.744551
vn 0.666043 -0.045066 -0.744551
vn 0.666043 -0.045066 -0.744551
vn -0.193655 -0.970630 -0.142739
vn -0.193655 -0.970630 -0.142739
vn -0.193655 -0.970630 -0.142739
vn -0.471386 -0.751635 -0.461347
vn -0.471386 -0.751635 -0.461347
vn -0.471386 -0.751635 -0.461347
vn 0.188256 -0.961121 0.202007
vn 0.188256 -0.961121 0.202007
vn 0.188256 -0.961121 0.202007
vn -0.143347 -0.969213 0.200197
vn -0.143347 -0.969213 0.200197
vn -0.143347 -0.969213 0.200197
vn 0.242371 -0.876345 -0.416264
vn 0.242371 -0.876345 -0.416264
vn 0.242371 -0.876345 -0.416264
vn 0.039463 -0.920975 0.387619
vn 0.039463 -0.920975 0.387619
vn 0.039463 -0.920975 0.387619
vn -0.463788 0.749275 -0.472745
vn -0.463788 0.749275 -0.472745
vn -0.463788 0.749275 -0.472745
vn -0.463788 0.749275 -0.472745
vn -0.945672 -0.023357 -0.324282
vn -0.945672 -0.023357 -0.324282
vn -0.945672 -0.023357 -0.324282
vn -0.945672 -0.023357 -0.324282
vn -0.933339 -0.092539 -0.346866
vn -0.933339 -0.092539 -0.346866
vn -0.933339 -0.092539 -0.346866
vn -0.933339 -0.092539 -0.346866
vn -0.575358 -0.630293 -0.521242
vn -0.575358 -0.630293 -0.521242
vn -0.575358 -0.630293 -0.521242
vn -0.575358 -0.630293 -0.521242
vn 0.343518 0.853619 0.391573
vn 0.343518 0.853619 0.391573
vn 0.343518 0.853619 0.391573
vn 0.493440 0.850429 -0.182451
vn 0.493440 0.850429 -0.182451
vn 0.493440 0.850429 -0.182451
vn -0.726850 -0.681287 0.086818
vn -0.726850 -0.681287 0.086818
vn -0.726850 -0.681287 0.086818
vn -0.726850 -0.681287 0.086818
vn -0.982733 -0.080104 -0.166791
vn -0.982733 -0.080104 -0.166791
vn -0.982733 -0.080104 -0.166791
vn -0.982733 -0.080104 -0.166791
vn -0.981222 -0.029532 -0.190608
vn -0.981222 -0.029532 -0.190608
vn -0.981222 -0.029532 -0.190608
vn -0.981222 -0.029532 -0.190608
vn -0.638950 0.755708 0.143694
vn -0.638950 0.755708 0.143694
vn -0.638950 0.755708 0.143694
vn -0.638950 0.755708 0.143694
vn -0.787068 0.601301 0.137697
vn -0.787068 0.601301 0.137697
vn -0.787068 0.601301 0.137697
vn -0.787068 0.601301 0.137697
vn 0.056263 0.879204 -0.473112
vn 0.056263 0.879204 -0.473112
vn 0.056263 0.879204 -0.473112
vn -0.044842 -0.929361 0.366439
vn -0.044842 -0.929361 0.366439
vn -0.044842 -0.929361 0.366439
vn -0.117853 -0.900154 -0.419325
vn -0.117853 -0.900154 -0.419325
vn -0.117853 -0.900154 -0.419325
vn 0.677724 0.716221 0.166488
vn 0.677724 0.716221 0.166488
vn 0.677724 0.716221 0.166488
vn 0.677724 0.716221 0.166488
vn 0.990958 -0.086038 -0.102958
vn 0.990958 -0.086038 -0.102958
vn 0.990958 -0.086038 -0.102958
vn 0.990958 -0.086038 -0.102958
vn 0.995864 -0.040530 -0.081311
vn 0.995864 -0.040530 -0.081311
vn 0.995864 -0.040530 -0.081311
vn 0.995864 -0.040530 -0.081311
vn 0.749470 -0.646110 0.144351
vn 0.749470 -0.646110 0.144351
vn 0.749470 -0.646110 0.144351
vn 0.749470 -0.646110 0.144351
vn -0.320238 0.892557 0.317474
vn -0.320238 0.892557 0.317474
vn -0.320238 0.892557 0.317474
vn 0.714804 -0.603193 -0.353855
vn 0.714804 -0.603193 -0.353855
vn 0.714804 -0.603193 -0.353855
vn 0.714804 -0.603193 -0.353855
vn 0.990190 -0.045437 -0.132135
vn 0.990190 -0.045437 -0.132135
vn 0.990190 -0.045437 -0.132135
vn 0.990190 -0.045437 -0.132135
vn 0.990284 -0.085415 -0.109736
vn 0.990284 -0.085415 -0.109736
vn 0.990284 -0.085415 -0.109736
vn 0.990284 -0.085415 -0.109736
vn 0.628055 0.706789 -0.325571
vn 0.628055 0.706789 -0.325571
vn 0.628055 0.706789 -0.325571
vn 0.628055 0.706789 -0.325571
vn -0.373739 0.894747 -0.244433
vn -0.373739 0.894747 -0.244433
vn -0.373739 0.894747 -0.244433
vn -0.367853 0.892249 -0.261869
vn -0.367853 0.892249 -0.261869
vn -0.367853 0.892249 -0.261869
vn -0.392824 -0.918941 0.035180
vn -0.392824 -0.918941 0.035180
vn -0.392824 -0.918941 0.035180
vn 0.431885 -0.864509 -0.257097
vn 0.431885 -0.864509 -0.257097
vn 0.431885 -0.864509 -0.257097
vn 0.014053 0.743302 0.668808
vn 0.014053 0.743302 0.668808
vn 0.014053 0.743302 0.668808
vn 0.014053 0.743302 0.668808
vn 0.322115 -0.123057 0.938669
vn 0.322115 -0.123057 0.938669
vn 0.322115 -0.123057 0.938669
vn 0.322115 -0.123057 0.938669
vn 0.304334 0.020820 0.952338
vn 0.304334 0.020820 0.952338
vn 0.304334 0.020820 0.952338
vn 0.304334 0.020820 0.952338
vn 0.030797 -0.641326 0.766650
vn 0.030797 -0.641326 0.766650
vn 0.030797 -0.641326 0.766650
vn 0.030797 -0.641326 0.766650
vn -0.349343 0.894290 -0.279651
vn -0.349343 0.894290 -0.279651
vn -0.349343 0.894290 -0.279651
vn 0.576521 -0.608672 0.545107
vn 0.576521 -0.608672 0.545107
vn 0.576521 -0.608672 0.545107
vn 0.576521 -0.608672 0.545107
vn 0.439088 0.024260 0.898116
vn 0.439088 0.024260 0.898116
vn 0.439088 0.024260 0.898116
vn 0.439088 0.024260 0.898116
vn 0.407391 -0.122726 0.904970
vn 0.407391 -0.122726 0.904970
vn 0.407391 -0.122726 0.904970
vn 0.407391 -0.122726 0.904970
vn 0.537403 0.708232 0.457827
vn 0.537403 0.708232 0.457827
vn 0.537403 0.708232 0.457827
vn 0.537403 0.708232 0.457827
vn 0.182921 0.862925 -0.471064
vn 0.182921 0.862925 -0.471064
vn 0.182921 0.862925 -0.471064
vn -0.285330 0.881604 0.375981
vn -0.285330 0.881604 0.375981
vn -0.285330 0.881604 0.375981
vn 0.348537 0.854621 0.384895
vn 0.348537 0.854621 0.384895
vn 0.348537 0.854621 0.384895
vn 0.392766 -0.913447 0.106534
vn 0.392766 -0.913447 0.106534
vn 0.392766 -0.913447 0.106534
vn -0.364378 -0.924921 0.108394
vn -0.364378 -0.924921 0.108394
vn -0.364378 -0.924921 0.108394
vn 0.274401 0.731719 -0.623932
vn 0.274401 0.731719 -0.623932
vn 0.274401 0.731719 -0.623932
vn 0.274401 0.731719 -0.623932
vn -0.014821 0.006439 -0.999870
vn -0.014821 0.006439 -0.999870
vn -0.014821 0.006439 -0.999869
vn -0.014821 0.006439 -0.999869
vn 0.008475 -0.145685 -0.989295
vn 0.008475 -0.145684 -0.989295
vn 0.008475 -0.145685 -0.989295
vn 0.008475 -0.145684 -0.989295
vn 0.252535 -0.647058 -0.719404
vn 0.252535 -0.647058 -0.719404
vn 0.252535 -0.647058 -0.719404
vn 0.252535 -0.647058 -0.719404
vn 0.335864 0.856919 0.391006
vn 0.335864 0.856919 0.391006
vn 0.335864 0.856919 0.391006
vn -0.272004 -0.648631 -0.710839
vn -0.272004 -0.648631 -0.710839
vn -0.272004 -0.648631 -0.710839
vn -0.272004 -0.648631 -0.710839
vn -0.063006 -0.150530 -0.986596
vn -0.063006 -0.150530 -0.986596
vn -0.063006 -0.150530 -0.986596
vn -0.063006 -0.150530 -0.986596
vn -0.044397 0.007362 -0.998987
vn -0.044397 0.007362 -0.998987
vn -0.044397 0.007362 -0.998987
vn -0.044397 0.007362 -0.998987
vn -0.261046 0.744260 -0.614762
vn -0.261046 0.744260 -0.614762
vn -0.261046 0.744260 -0.614762
vn -0.261046 0.744260 -0.614762
vn -0.252701 0.885226 0.390533
vn -0.252701 0.885226 0.390533
vn -0.252701 0.885226 0.390533
vn -0.032558 -0.414709 0.909371
vn -0.032558 -0.414709 0.909371
vn -0.032558 -0.414709 0.909371
vn -0.032558 -0.414709 0.909371
vn 0.359107 0.187337 0.914301
vn 0.359107 0.187337 0.914301
vn 0.359107 0.187337 0.914301
vn -0.544288 0.397292 -0.738857
vn -0.544288 0.397292 -0.738857
vn -0.544288 0.397292 -0.738857
vn -0.544288 0.397292 -0.738857
vn 0.761110 0.211324 -0.613233
vn 0.761110 0.211324 -0.613233
vn 0.761110 0.211324 -0.613233
vn 0.761110 0.211324 -0.613233
vn -0.887024 -0.120135 0.445821
vn -0.887024 -0.120135 0.445821
vn -0.887024 -0.120135 0.445821
vn -0.887024 -0.120135 0.445821
vn 0.851217 -0.262892 0.454222
vn 0.851217 -0.262892 0.454222
vn 0.851217 -0.262892 0.454222
vn 0.851217 -0.262892 0.454222
vn 0.464098 0.453300 0.761008
vn 0.464098 0.453300 0.761008
vn 0.464098 0.453300 0.761008
vn -0.901179 0.335797 0.274074
vn -0.901179 0.335797 0.274074
vn -0.901179 0.335797 0.274074
vn -0.901179 0.335797 0.274074
vn -0.238010 0.289898 0.926990
vn -0.238010 0.289898 0.926990
vn -0.238010 0.289898 0.926990
vn -0.238010 0.289898 0.926990
vn 0.677365 0.312402 0.666019
vn 0.677365 0.312402 0.666019
vn 0.677365 0.312402 0.666019
vn 0.677365 0.312402 0.666019
vn 0.842876 0.356455 -0.403112
vn 0.842876 0.356455 -0.403112
vn 0.842876 0.356455 -0.403112
vn 0.842876 0.356455 -0.403112
vn -0.301530 0.377094 -0.875717
vn -0.301530 0.377094 -0.875717
vn -0.301530 0.377094 -0.875717
vn -0.301530 0.377094 -0.875717
vn 0.657061 -0.017735 0.753628
vn 0.657061 -0.017735 0.753629
vn 0.657061 -0.017735 0.753629
vn 0.742495 0.291330 0.603181
vn 0.742495 0.291330 0.603181
vn 0.742495 0.291330 0.603181
vn 0.466724 -0.002952 0.884398
vn 0.466724 -0.002952 0.884398
vn 0.466724 -0.002952 0.884398
vn -0.966442 -0.224270 0.125274
vn -0.966442 -0.224270 0.125274
vn -0.966442 -0.224270 0.125274
vn -0.966442 -0.224270 0.125274
vn -0.294606 0.934748 -0.198630
vn -0.294606 0.934748 -0.198630
vn -0.294606 0.934748 -0.198630
vn -0.294606 0.934748 -0.198630
vn 0.775017 -0.621822 0.112634
vn 0.775017 -0.621822 0.112634
vn 0.775017 -0.621822 0.112634
vn 0.775017 -0.621822 0.112634
vn 0.904784 0.399500 -0.147534
vn 0.904784 0.399500 -0.147534
vn 0.904784 0.399500 -0.147534
vn 0.904784 0.399500 -0.147534
vn -0.439721 -0.872809 0.211780
vn -0.439721 -0.872809 0.211780
vn -0.439721 -0.872809 0.211780
vn -0.439721 -0.872809 0.211780
vn 0.504926 0.858099 -0.093358
vn 0.504926 0.858099 -0.093358
vn 0.504926 0.858099 -0.093358
vn -0.624712 0.751067 0.213623
vn -0.624712 0.751066 0.213623
vn -0.624712 0.751067 0.213623
vn -0.624712 0.751067 0.213623
vn -0.923235 -0.055420 0.380219
vn -0.923235 -0.055420 0.380219
vn -0.923235 -0.055420 0.380219
vn -0.923235 -0.055420 0.380219
vn -0.920253 -0.042789 0.388979
vn -0.920253 -0.042789 0.388979
vn -0.920253 -0.042789 0.388979
vn -0.920253 -0.042789 0.388979
vn -0.707837 -0.652407 0.270801
vn -0.707837 -0.652407 0.270801
vn -0.707836 -0.652407 0.270801
vn -0.707837 -0.652407 0.270801
vn 0.553897 -0.688076 0.468774
vn 0.553897 -0.688076 0.468774
vn 0.553897 -0.688076 0.468774
vn -0.215117 -0.461559 0.860632
vn -0.215118 -0.461559 0.860632
vn -0.215117 -0.461559 0.860632
vn -0.215118 -0.461559 0.860632
vn -0.561826 -0.010747 0.827186
vn -0.561826 -0.010747 0.827186
vn -0.561826 -0.010747 0.827186
vn -0.561826 -0.010747 0.827186
vn -0.586358 -0.093249 0.804667
vn -0.586358 -0.093249 0.804667
vn -0.586358 -0.093249 0.804667
vn -0.586358 -0.093249 0.804667
vn -0.049602 0.511683 0.857741
vn -0.049602 0.511683 0.857741
vn -0.049602 0.511683 0.857741
vn -0.049602 0.511683 0.857741
vn -0.149279 -0.637910 0.755504
vn -0.149279 -0.637910 0.755504
vn -0.149279 -0.637910 0.755504
vn -0.149279 -0.637910 0.755504
vn -0.280436 -0.017942 0.959705
vn -0.280436 -0.017942 0.959705
vn -0.280436 -0.017942 0.959705
vn -0.280436 -0.017942 0.959705
vn -0.271375 -0.085245 0.958691
vn -0.271375 -0.085245 0.958691
vn -0.271375 -0.085245 0.958691
vn -0.271375 -0.085245 0.958691
vn -0.086664 0.727202 0.680931
vn -0.086664 0.727202 0.680931
vn -0.086664 0.727202 0.680931
vn -0.086664 0.727202 0.680931
vn 0.275816 -0.958380 -0.073708
vn 0.275816 -0.958380 -0.073708
vn 0.275816 -0.958380 -0.073708
vn 0.062291 -0.965105 -0.254346
vn 0.062291 -0.965105 -0.254346
vn 0.062291 -0.965105 -0.254346
vn 0.681944 0.653307 0.328849
vn 0.681944 0.653307 0.328849
vn 0.681944 0.653307 0.328849
vn -0.313247 0.746366 -0.587210
vn -0.313247 0.746365 -0.587210
vn -0.313247 0.746366 -0.587210
s off
f 16/27/1 29/1/2 30/2/3 15/26/4
f 17/31/5 28/5/6 29/1/7 16/27/8
f 3/8/9 4/9/10 41/23/11 42/24/12
f 86/86/13 87/87/14 95/95/15 96/96/16
f 87/87/17 88/88/18 94/94/19 95/95/20
f 8/18/21 9/19/22 36/34/23 37/35/24
f 6/7/25 39/21/26 40/22/27 5/6/28
f 7/10/29 38/25/30 39/21/31 6/7/32
f 13/29/33 14/30/34 31/3/35 32/4/36
f 11/17/37 34/32/38 35/33/39 10/16/40
f 12/20/41 33/36/42 34/32/43 11/17/44
f 5/6/45 40/22/46 41/23/47 4/9/48
f 85/85/49 86/86/50 96/96/51 97/97/52
f 15/26/53 30/2/54 31/3/55 14/30/56
f 10/16/57 35/33/58 36/34/59 9/19/60
f 2/37/61 38/25/62 7/10/63
f 2/37/64 94/94/65 88/88/66
f 2/37/67 28/5/68 17/31/69
f 2/37/70 33/36/71 12/20/72
f 2/37/73 23/39/74 46/43/75
f 46/43/76 28/5/77 2/37/78
f 43/44/79 26/41/80 27/42/81 45/45/82
f 25/40/83 26/41/84 43/44/85 47/46/86
f 24/38/87 25/40/88 47/46/89 44/47/90
f 23/39/91 24/38/92 44/47/93 46/43/94
f 1/28/95 32/4/96 45/45/97
f 45/45/98 27/42/99 1/28/100
f 44/47/101 29/1/102 28/5/103 46/43/104
f 47/46/105 30/2/106 29/1/107 44/47/108
f 43/44/109 31/3/110 30/2/111 47/46/112
f 32/4/113 31/3/114 43/44/115 45/45/116
f 84/84/117 85/85/118 97/97/119 98/98/120
f 1/28/121 98/98/122 22/14/123
f 2/37/124 12/20/125 51/48/126
f 51/48/127 38/25/128 2/37/129
f 48/49/130 9/19/131 8/18/132 50/50/133
f 10/16/134 9/19/135 48/49/136 52/51/137
f 11/17/138 10/16/139 52/51/140 49/52/141
f 12/20/142 11/17/143 49/52/144 51/48/145
f 50/50/146 8/18/147 1/28/148
f 49/52/149 39/21/150 38/25/151 51/48/152
f 52/51/153 40/22/154 39/21/155 49/52/156
f 48/49/157 41/23/158 40/22/159 52/51/160
f 42/24/161 41/23/162 48/49/163 50/50/164
f 1/28/165 42/24/166 50/50/167
f 3/8/168 42/24/169 1/28/170
f 2/37/171 7/10/172 56/53/173
f 56/53/174 18/15/175 2/37/176
f 53/54/177 4/9/178 3/8/179 55/55/180
f 5/6/181 4/9/182 53/54/183 57/56/184
f 6/7/185 5/6/186 57/56/187 54/57/188
f 7/10/189 6/7/190 54/57/191 56/53/192
f 55/55/193 3/8/194 1/28/195
f 54/57/196 19/11/197 18/15/198 56/53/199
f 57/56/200 20/12/201 19/11/202 54/57/203
f 53/54/204 21/13/205 20/12/206 57/56/207
f 22/14/208 21/13/209 53/54/210 55/55/211
f 1/28/212 22/14/213 55/55/214
f 8/18/215 37/35/216 1/28/217
f 13/29/218 32/4/219 1/28/220
f 2/37/221 17/31/222 61/58/223
f 61/58/224 33/36/225 2/37/226
f 58/59/227 14/30/228 13/29/229 60/60/230
f 15/26/231 14/30/232 58/59/233 62/61/234
f 16/27/235 15/26/236 62/61/237 59/62/238
f 17/31/239 16/27/240 59/62/241 61/58/242
f 60/60/243 13/29/244 1/28/245
f 59/62/246 34/32/247 33/36/248 61/58/249
f 62/61/250 35/33/251 34/32/252 59/62/253
f 58/59/254 36/34/255 35/33/256 62/61/257
f 37/35/258 36/34/259 58/59/260 60/60/261
f 1/28/262 37/35/263 60/60/264
f 74/63/265 75/64/266 68/65/267 67/66/268
f 78/80/269 79/67/270 80/79/271
f 69/68/272 70/69/273 77/70/274 73/71/275
f 76/72/276 77/70/277 70/69/278 71/73/279
f 69/68/280 73/71/281 74/63/282 67/66/283
f 75/64/284 76/72/285 71/73/286 68/65/287
f 80/79/288 79/67/289 81/81/290
f 74/63/291 73/71/292 63/74/293 65/75/294
f 65/75/295 66/76/296 75/64/297 74/63/298
f 72/77/299 76/72/300 75/64/301 66/76/302
f 64/78/303 77/70/304 76/72/305 72/77/306
f 73/71/307 77/70/308 64/78/309 63/74/310
f 79/67/311 82/82/312 83/83/313
f 81/81/314 79/67/315 83/83/316
f 78/80/317 82/82/318 79/67/319
f 69/68/320 67/66/321 78/80/322 80/79/323
f 70/69/324 69/68/325 80/79/326 81/81/327
f 68/65/328 71/73/329 83/83/330 82/82/331
f 71/73/332 70/69/333 81/81/334 83/83/335
f 67/66/336 68/65/337 82/82/338 78/80/339
f 27/42/340 93/93/341 1/28/342
f 27/42/343 26/41/344 92/92/345 93/93/346
f 25/40/347 91/91/348 92/92/349 26/41/350
f 24/38/351 90/90/352 91/91/353 25/40/354
f 23/39/355 89/89/356 90/90/357 24/38/358
f 2/37/359 88/88/360 89/89/361
f 90/90/362 89/89/363 88/88/364 87/87/365
f 91/91/366 90/90/367 87/87/368 86/86/369
f 92/92/370 91/91/371 86/86/372 85/85/373
f 93/93/374 92/92/375 85/85/376 84/84/377
f 95/95/378 94/94/379 18/15/380 19/11/381
f 96/96/382 95/95/383 19/11/384 20/12/385
f 97/97/386 96/96/387 20/12/388 21/13/389
f 98/98/390 97/97/391 21/13/392 22/14/393
f 2/37/394 89/89/395 23/39/396
f 2/37/397 18/15/398 94/94/399
f 1/28/400 93/93/401 84/84/402
f 1/28/403 84/84/404 98/98/405
