# This file uses centimeters as units for non-parametric coordinates.

v -3.406843 1.580419 -6.446964
v -0.191417 1.580419 -7.547134
v 1.270133 6.516535 -7.988143
v -3.683883 6.619155 -7.052616
v -5.241116 3.897912 -5.639132
v -4.349745 2.941162 4.789170
v -0.639698 1.486375 6.952843
v 0.256914 3.761262 8.033819
v -0.639697 6.525111 6.952843
v -3.854505 5.996135 5.503025
v -5.129172 4.546531 0.505085
v -1.865263 0.000000 1.199440
v 1.288785 0.595891 5.364324
v 3.484226 3.901480 6.530698
v 1.352219 7.385392 5.383930
v -3.416617 7.025978 2.918043
v -5.506800 4.099787 -2.176735
v -2.793077 0.778950 -2.925416
v 2.063470 0.656959 -4.372507
v 4.019858 3.995523 -6.096463
v 1.938174 7.686029 -5.617919
v -2.434821 7.686029 -3.381310
v -3.309319 4.847628 6.789881
v -2.314890 4.099787 -8.033818
v 2.431357 6.868282 -0.447319
v 5.506806 3.952047 -0.258964
v 4.228009 2.225019 -0.001804
v 3.150213 1.309546 0.612276
v 1.312974 7.780932 -1.050177
v 2.781013 7.688753 1.069991
v 4.273666 6.066210 -0.041400
v 2.717084 7.788539 -2.352885
v -4.233525 6.748048 2.287927
v -3.552312 7.689364 1.892604
v -2.520245 7.627954 3.653568
v -3.842563 7.184393 3.844510
v -3.591269 0.996024 -2.581508
v -3.232844 0.644316 -3.841547
v -1.504773 0.525227 -3.143043
v -2.774866 0.159591 -1.557873
vt 0.048058 0.323974
vt 0.048058 0.323974
vt 0.048058 0.323974
vt 0.048058 0.323974
vt 0.048058 0.323974
vt 0.048058 0.323974
vt 0.048058 0.323974
vt 0.048058 0.323974
vt 0.048058 0.323974
vt 0.048058 0.323974
vt 0.048058 0.323974
vt 0.048058 0.323974
vt 0.048058 0.323974
vt 0.048058 0.323974
vt 0.048058 0.323974
vt 0.048058 0.323974
vt 0.048058 0.323974
vt 0.048058 0.323974
vt 0.048058 0.323974
vt 0.048058 0.323974
vt 0.048058 0.323974
vt 0.048058 0.323974
vt 0.048058 0.323974
vt 0.048058 0.323974
vt 0.048058 0.323974
vt 0.048058 0.323974
vt 0.048058 0.323974
vt 0.048058 0.323974
vt 0.046491 0.280094
vt 0.048058 0.323974
vt 0.046491 0.280094
vt 0.046491 0.280094
vt 0.048058 0.323974
vt 0.048058 0.323974
vt 0.048058 0.323974
vt 0.048058 0.323974
vt 0.048058 0.323974
vt 0.048058 0.323974
vt 0.046491 0.280094
vt 0.048058 0.323974
vt 0.048058 0.323974
vt 0.048058 0.323974
vt 0.048058 0.323974
vt 0.048058 0.323974
vt 0.048058 0.323974
vt 0.048058 0.323974
vt 0.048058 0.323974
vt 0.048058 0.323974
vt 0.048058 0.323974
vt 0.048058 0.323974
vt 0.048058 0.323974
vt 0.048058 0.323974
vt 0.048058 0.323974
vt 0.048058 0.323974
vt 0.048058 0.323974
vt 0.048058 0.323974
vt 0.046491 0.280094
vt 0.046491 0.280094
vt 0.046491 0.280094
vt 0.046491 0.280094
vt 0.046491 0.280094
vt 0.046491 0.280094
vt 0.046491 0.280094
vt 0.046491 0.280094
vt 0.046491 0.280094
vt 0.046491 0.280094
vt 0.046491 0.280094
vn -0.198624 -0.937844 0.284599
vn -0.198624 -0.937844 0.284599
vn -0.198624 -0.937844 0.284599
vn 0.382510 -0.519616 0.763993
vn 0.382510 -0.519616 0.763993
vn 0.382510 -0.519616 0.763993
vn 0.382510 -0.519616 0.763993
vn 0.379716 0.468501 0.797699
vn 0.379716 0.468501 0.797699
vn 0.379716 0.468501 0.797698
vn 0.379716 0.468501 0.797699
vn -0.220340 0.870228 0.440628
vn -0.220340 0.870228 0.440628
vn -0.220340 0.870228 0.440627
vn -0.220340 0.870228 0.440627
vn -0.220340 0.870228 0.440628
vn -0.965610 0.169810 0.196883
vn -0.965610 0.169810 0.196883
vn -0.965610 0.169810 0.196883
vn -0.965610 0.169810 0.196883
vn -0.965610 0.169810 0.196883
vn -0.804687 -0.589028 -0.074324
vn -0.804687 -0.589028 -0.074324
vn -0.804687 -0.589028 -0.074324
vn -0.294592 -0.414622 -0.860990
vn -0.294592 -0.414622 -0.860990
vn -0.294592 -0.414622 -0.860990
vn -0.388717 -0.265964 0.882135
vn -0.388717 -0.265964 0.882135
vn -0.388717 -0.265964 0.882135
vn -0.390393 -0.840589 -0.375503
vn -0.390393 -0.840589 -0.375503
vn -0.390393 -0.840589 -0.375503
vn -0.241507 -0.885171 -0.397677
vn -0.241506 -0.885171 -0.397677
vn -0.241506 -0.885171 -0.397677
vn 0.789949 -0.581077 -0.195783
vn 0.789949 -0.581077 -0.195782
vn 0.789949 -0.581077 -0.195782
vn 0.789949 -0.581077 -0.195782
vn 0.270775 0.850326 0.451250
vn 0.270775 0.850326 0.451250
vn 0.270775 0.850326 0.451250
vn 0.409307 0.796062 0.445816
vn 0.409307 0.796062 0.445816
vn 0.409307 0.796062 0.445816
vn -0.759684 0.650291 -0.001356
vn -0.759684 0.650291 -0.001356
vn -0.759684 0.650291 -0.001356
vn -0.166144 -0.961021 0.220984
vn -0.166144 -0.961021 0.220984
vn -0.166144 -0.961021 0.220984
vn -0.153536 -0.964375 0.215425
vn -0.153536 -0.964375 0.215425
vn -0.153536 -0.964375 0.215425
vn 0.421250 -0.203688 -0.883776
vn 0.421250 -0.203689 -0.883776
vn 0.421250 -0.203688 -0.883776
vn 0.751672 0.482322 -0.449839
vn 0.751672 0.482322 -0.449839
vn 0.751672 0.482322 -0.449839
vn -0.097791 0.943020 -0.318042
vn -0.097791 0.943020 -0.318042
vn -0.097791 0.943020 -0.318042
vn -0.097791 0.943020 -0.318042
vn -0.805078 0.593144 0.005487
vn -0.805078 0.593144 0.005487
vn -0.805078 0.593144 0.005487
vn -0.805078 0.593144 0.005487
vn 0.090186 -0.115087 -0.989253
vn 0.090186 -0.115087 -0.989253
vn 0.090186 -0.115087 -0.989253
vn -0.574499 -0.422293 0.701156
vn -0.574499 -0.422293 0.701156
vn -0.574499 -0.422293 0.701156
vn -0.308161 0.406883 0.859932
vn -0.308161 0.406882 0.859932
vn -0.308162 0.406882 0.859932
vn -0.308162 0.406882 0.859932
vn -0.903922 0.047205 0.425084
vn -0.903922 0.047205 0.425084
vn -0.903922 0.047205 0.425084
vn -0.622923 -0.127031 -0.771900
vn -0.622923 -0.127031 -0.771900
vn -0.622923 -0.127031 -0.771900
vn -0.622923 -0.127031 -0.771900
vn -0.172946 0.274427 -0.945928
vn -0.172946 0.274427 -0.945928
vn -0.172946 0.274427 -0.945928
vn 0.547897 -0.614291 -0.567852
vn 0.547897 -0.614291 -0.567852
vn 0.547897 -0.614291 -0.567852
vn -0.500000 -0.806735 0.314926
vn -0.500000 -0.806735 0.314926
vn -0.500000 -0.806735 0.314926
vn 0.634513 -0.772014 -0.037263
vn 0.634513 -0.772014 -0.037263
vn 0.634513 -0.772014 -0.037263
vn -0.843528 0.504527 -0.184155
vn -0.843528 0.504527 -0.184155
vn -0.843528 0.504527 -0.184155
vn -0.843528 0.504527 -0.184155
vn 0.697020 0.551171 -0.458665
vn 0.697020 0.551171 -0.458665
vn 0.697020 0.551171 -0.458665
vn 0.435731 0.745904 -0.503752
vn 0.435731 0.745904 -0.503752
vn 0.435731 0.745904 -0.503752
vn 0.797754 -0.555936 0.233503
vn 0.797754 -0.555936 0.233503
vn 0.797754 -0.555936 0.233503
vn 0.755054 -0.615185 0.226804
vn 0.755054 -0.615185 0.226804
vn 0.755054 -0.615185 0.226804
vn 0.755054 -0.615185 0.226804
vn 0.247004 -0.967795 -0.048588
vn 0.247004 -0.967795 -0.048588
vn 0.247004 -0.967795 -0.048588
vn 0.002308 0.999392 0.034795
vn 0.002308 0.999392 0.034795
vn 0.002308 0.999392 0.034795
vn 0.002308 0.999392 0.034795
vn 0.002308 0.999392 0.034795
vn 0.002308 0.999392 0.034795
vn 0.803032 0.528173 0.275996
vn 0.803032 0.528173 0.275996
vn 0.803032 0.528173 0.275996
vn 0.803032 0.528173 0.275996
vn 0.803032 0.528173 0.275996
vn 0.840518 0.499850 -0.208997
vn 0.840518 0.499850 -0.208997
vn 0.840518 0.499850 -0.208997
vn 0.840518 0.499850 -0.208997
vn 0.840518 0.499850 -0.208997
vn -0.015325 0.999621 -0.022867
vn -0.015325 0.999621 -0.022867
vn -0.015325 0.999621 -0.022867
vn -0.015325 0.999621 -0.022867
vn -0.595005 0.636626 0.490588
vn -0.595005 0.636626 0.490588
vn -0.595005 0.636626 0.490588
vn -0.720923 0.534462 0.441158
vn -0.720923 0.534462 0.441158
vn -0.720923 0.534462 0.441158
vn -0.342271 0.887310 -0.309081
vn -0.342271 0.887310 -0.309081
vn -0.342271 0.887310 -0.309081
vn -0.147845 0.961330 -0.232349
vn -0.147845 0.961330 -0.232349
vn -0.147845 0.961330 -0.232349
vn -0.832195 -0.548245 -0.082938
vn -0.832195 -0.548245 -0.082938
vn -0.832195 -0.548245 -0.082938
vn -0.832195 -0.548245 -0.082938
vn -0.832195 -0.548245 -0.082938
vn -0.047371 -0.963101 -0.264939
vn -0.047371 -0.963101 -0.264939
vn -0.047371 -0.963101 -0.264939
vn -0.047371 -0.963101 -0.264939
vn -0.047371 -0.963101 -0.264939
vn 0.164108 -0.986380 -0.011067
vn 0.164108 -0.986380 -0.011067
vn 0.164108 -0.986380 -0.011067
vn 0.164108 -0.986380 -0.011067
vn 0.164108 -0.986380 -0.011067
vn -0.813078 -0.538891 0.220228
vn -0.813078 -0.538891 0.220228
vn -0.813078 -0.538891 0.220228
vn -0.813078 -0.538891 0.220228
vn -0.813078 -0.538891 0.220228
s off
f 12/25/1 13/26/2 7/13/3
f 13/26/4 14/27/5 8/14/6 7/13/7
f 14/27/8 15/28/9 9/15/10 8/14/11
f 15/28/12 35/49/13 36/50/14 10/16/15 9/15/16
f 36/50/17 33/47/18 11/23/19 6/17/20 10/16/21
f 11/23/22 12/24/23 6/17/24
f 1/1/25 24/38/26 2/2/27
f 8/20/28 23/37/29 7/21/30
f 40/29/31 37/31/32 18/32/33
f 18/32/34 39/39/35 40/29/36
f 19/33/37 20/34/38 26/40/39 27/41/40
f 31/57/41 32/58/42 25/59/43
f 32/58/44 29/60/45 25/59/46
f 22/36/47 17/30/48 11/23/49
f 37/31/50 38/61/51 18/32/52
f 38/61/53 39/39/54 18/32/55
f 2/7/56 3/8/57 20/34/58
f 3/8/59 21/35/60 20/34/61
f 3/8/62 4/9/63 22/36/64 21/35/65
f 4/9/66 5/10/67 17/30/68 22/36/69
f 2/2/70 24/38/71 3/3/72
f 6/22/73 7/21/74 23/37/75
f 10/18/76 23/37/77 8/20/78 9/19/79
f 6/22/80 23/37/81 10/18/82
f 5/5/83 4/4/84 24/38/85 1/1/86
f 3/3/87 24/38/88 4/4/89
f 2/7/90 20/34/91 19/33/92
f 12/25/93 7/13/94 6/12/95
f 19/33/96 27/41/97 28/42/98
f 22/36/99 11/23/100 33/47/101 34/48/102
f 25/59/103 29/60/104 30/62/105
f 30/62/106 31/57/107 25/59/108
f 27/41/109 26/40/110 14/27/111
f 28/42/112 27/41/113 14/27/114 13/26/115
f 12/25/116 28/42/117 13/26/118
f 30/44/119 29/43/120 22/36/121 34/48/122 35/49/123 15/28/124
f 26/40/125 31/45/126 30/44/127 15/28/128 14/27/129
f 20/34/130 21/35/131 32/46/132 31/45/133 26/40/134
f 21/35/135 22/36/136 29/43/137 32/46/138
f 34/63/139 33/64/140 16/65/141
f 35/66/142 34/63/143 16/65/144
f 36/67/145 35/66/146 16/65/147
f 16/65/148 33/64/149 36/67/150
f 5/10/151 1/11/152 38/52/153 37/51/154 17/30/155
f 1/6/156 2/7/157 19/33/158 39/54/159 38/53/160
f 40/56/161 39/54/162 19/33/163 28/42/164 12/25/165
f 17/30/166 37/51/167 40/55/168 12/24/169 11/23/170
