# This file uses centimeters as units for non-parametric coordinates.

v 2.556391 12.707090 -2.746483
v 5.246711 10.474820 -2.760002
v 1.778950 4.620086 -3.178246
v -3.931106 4.788466 -3.365166
v -5.783459 8.605617 -2.929321
v -3.196897 11.916344 -2.775520
v 4.270631 15.309892 -2.399681
v -4.270631 15.309892 -2.397743
v -8.980271 2.150358 -3.056580
v 8.980271 2.150358 -3.056580
v -7.117718 17.777494 -2.226982
v 7.117718 17.777494 -2.226982
v 2.556391 12.707090 2.746498
v 5.246711 10.474820 2.760010
v 1.778950 4.620086 3.178246
v -3.931106 4.788466 3.365166
v -5.783459 8.605617 2.929329
v -3.196897 11.916344 2.775528
v 4.270631 15.309892 2.399696
v -4.270631 15.309892 2.397758
v -8.980271 2.150358 3.056580
v 8.980271 2.150358 3.056580
v -7.117718 17.777494 2.226997
v 7.117718 17.777494 2.226997
v -11.438151 0.000000 1.844955
v 11.438151 0.000000 1.844955
v -10.377022 23.835224 1.306816
v 10.377022 23.835224 1.306816
v -10.377022 23.835224 -1.306778
v 10.377022 23.835224 -1.306778
v -11.438151 0.000000 -1.844917
v 11.438151 0.000000 -1.844917
v 8.215527 21.313997 2.226997
v -8.215527 21.313997 2.226997
v -8.215527 21.313997 -2.226974
v 8.215527 21.313997 -2.226974
v 7.117718 20.245098 2.226997
v -7.117718 20.245098 2.226997
v -7.117718 20.245098 -2.226974
v 7.117718 20.245098 -2.226974
v 4.270631 17.777494 -2.250130
v -4.270631 17.777494 -2.250130
v -4.270631 17.777494 2.250153
v 4.270631 17.777494 2.250153
v -10.953846 27.591368 0.998192
v 10.953846 27.591368 0.998192
v 10.953846 27.591368 -0.998161
v -10.953846 27.591368 -0.998161
v 4.843530 6.417871 3.049698
v 4.843530 6.417871 -3.049690
vt 0.048831 0.380433
vt 0.048831 0.380433
vt 0.048831 0.380433
vt 0.048831 0.380433
vt 0.048831 0.380433
vt 0.048831 0.380433
vt 0.048831 0.380433
vt 0.048831 0.380433
vt 0.048831 0.380433
vt 0.048831 0.380433
vt 0.048831 0.380433
vt 0.048831 0.380433
vt 0.048831 0.380433
vt 0.048831 0.380433
vt 0.048831 0.380433
vt 0.048831 0.380433
vt 0.048831 0.380433
vt 0.048831 0.380433
vt 0.048831 0.380433
vt 0.048831 0.380433
vt 0.048831 0.380433
vt 0.048831 0.380433
vt 0.048831 0.380433
vt 0.048831 0.380433
vt 0.250155 0.179457
vt 0.250155 0.179457
vt 0.250155 0.179457
vt 0.250155 0.179457
vt 0.250155 0.179457
vt 0.250155 0.179457
vt 0.050155 0.327257
vt 0.050155 0.327257
vt 0.050155 0.327257
vt 0.050155 0.327257
vt 0.250155 0.179457
vt 0.250155 0.179457
vt 0.250155 0.179457
vt 0.250155 0.179457
vt 0.250155 0.179457
vt 0.250155 0.179457
vt 0.050155 0.327257
vt 0.050155 0.327257
vt 0.050155 0.327257
vt 0.050155 0.327257
vt 0.050155 0.327257
vt 0.050155 0.327257
vt 0.050155 0.327257
vt 0.050155 0.327257
vt 0.050155 0.327257
vt 0.050155 0.327257
vt 0.050155 0.327257
vt 0.050155 0.327257
vt 0.050155 0.327257
vt 0.050155 0.327257
vt 0.050155 0.327257
vt 0.050155 0.327257
vt 0.050155 0.327257
vt 0.050155 0.327257
vt 0.050155 0.327257
vt 0.050155 0.327257
vt 0.050155 0.327257
vt 0.050155 0.327257
vt 0.048831 0.380433
vt 0.048831 0.380433
vt 0.048831 0.380433
vt 0.048831 0.380433
vt 0.048831 0.380433
vt 0.048831 0.380433
vt 0.048831 0.380433
vt 0.048831 0.380433
vt 0.048831 0.380433
vt 0.048831 0.380433
vt 0.048831 0.380433
vt 0.048831 0.380433
vt 0.048831 0.380433
vt 0.048831 0.380433
vt 0.048831 0.380433
vt 0.048831 0.380433
vt 0.250155 0.179457
vt 0.250155 0.179457
vt 0.250155 0.179457
vt 0.250155 0.179457
vt 0.048831 0.380433
vt 0.048831 0.380433
vt 0.048831 0.380433
vt 0.048831 0.380433
vt 0.048831 0.380433
vt 0.048831 0.380433
vt 0.048831 0.380433
vt 0.048831 0.380433
vt 0.250726 0.178547
vt 0.250726 0.178546
vt 0.250726 0.178547
vt 0.250726 0.178547
vt 0.250726 0.178546
vt 0.250726 0.178547
vt 0.250726 0.178547
vt 0.250726 0.178547
vt 0.250726 0.178546
vt 0.250726 0.178547
vt 0.250726 0.178547
vt 0.250726 0.178546
vt 0.048831 0.380433
vt 0.250726 0.178547
vt 0.250726 0.178547
vt 0.048831 0.380433
vn 0.065027 0.064642 -0.995788
vn 0.065027 0.064642 -0.995788
vn 0.065027 0.064642 -0.995788
vn 0.029875 0.053002 -0.998147
vn 0.029875 0.053002 -0.998147
vn 0.029875 0.053002 -0.998147
vn 0.029875 0.053002 -0.998147
vn 0.029875 0.053002 -0.998147
vn -0.004782 0.120466 -0.992706
vn -0.004782 0.120466 -0.992706
vn -0.004782 0.120466 -0.992706
vn -0.004782 0.120466 -0.992706
vn 0.007295 -0.080882 -0.996697
vn 0.007295 -0.080882 -0.996697
vn 0.007295 -0.080882 -0.996697
vn 0.007295 -0.080882 -0.996697
vn -0.088224 0.063288 -0.994088
vn -0.088224 0.063288 -0.994088
vn -0.088224 0.063288 -0.994088
vn -0.095686 0.066965 -0.993156
vn -0.095686 0.066965 -0.993156
vn -0.095686 0.066965 -0.993156
vn -0.015927 0.082602 -0.996455
vn -0.015927 0.082602 -0.996455
vn -0.015927 0.082602 -0.996455
vn -0.015927 0.082602 -0.996455
vn 0.025273 0.079365 -0.996525
vn 0.025273 0.079365 -0.996525
vn 0.025273 0.079365 -0.996525
vn 0.025273 0.079365 -0.996525
vn 0.052851 0.059219 -0.996845
vn 0.052851 0.059219 -0.996845
vn 0.052851 0.059219 -0.996845
vn 0.026119 0.026930 0.999296
vn 0.026119 0.026930 0.999296
vn 0.026119 0.026930 0.999296
vn -0.019686 0.084439 0.996234
vn -0.019686 0.084439 0.996234
vn -0.019686 0.084439 0.996234
vn -0.019686 0.084439 0.996234
vn -0.004782 0.120465 0.992706
vn -0.004782 0.120465 0.992706
vn -0.004782 0.120465 0.992706
vn -0.004782 0.120465 0.992706
vn 0.007295 -0.080882 0.996697
vn 0.007295 -0.080882 0.996697
vn 0.007295 -0.080882 0.996697
vn 0.007295 -0.080882 0.996697
vn -0.088225 0.063287 0.994088
vn -0.088225 0.063287 0.994088
vn -0.088225 0.063287 0.994088
vn -0.095686 0.066964 0.993157
vn -0.095686 0.066964 0.993157
vn -0.095686 0.066964 0.993157
vn -0.015927 0.082601 0.996455
vn -0.015927 0.082601 0.996455
vn -0.015927 0.082601 0.996455
vn -0.015927 0.082601 0.996455
vn 0.025275 0.079364 0.996525
vn 0.025275 0.079364 0.996525
vn 0.025275 0.079364 0.996525
vn 0.025275 0.079364 0.996525
vn 0.052850 0.059218 0.996845
vn 0.052850 0.059218 0.996845
vn 0.052850 0.059218 0.996845
vn 0.000000 0.007507 0.999972
vn 0.000000 0.007507 0.999972
vn 0.000000 0.007507 0.999972
vn 0.000000 0.007507 0.999972
vn 0.000000 0.007507 0.999972
vn 0.000000 0.007507 0.999972
vn 0.000000 1.000000 0.000000
vn 0.000000 1.000000 0.000000
vn 0.000000 1.000000 0.000000
vn 0.000000 1.000000 0.000000
vn 0.000000 0.007507 -0.999972
vn 0.000000 0.007507 -0.999972
vn 0.000000 0.007507 -0.999972
vn 0.000000 0.007507 -0.999972
vn 0.000000 0.007507 -0.999972
vn 0.000000 0.007507 -0.999972
vn 0.000000 -1.000000 0.000000
vn 0.000000 -1.000000 0.000000
vn 0.000000 -1.000000 0.000000
vn 0.000000 -1.000000 0.000000
vn 0.999011 0.044475 0.000000
vn 0.999011 0.044475 0.000000
vn 0.999011 0.044475 0.000000
vn 0.999011 0.044475 0.000000
vn -0.999011 0.044475 0.000000
vn -0.999011 0.044475 0.000000
vn -0.999011 0.044475 0.000000
vn -0.999011 0.044475 0.000000
vn 0.000000 -0.490891 0.871221
vn 0.000000 -0.490891 0.871221
vn 0.000000 -0.490891 0.871221
vn 0.000000 -0.490891 0.871221
vn 0.415487 0.046538 0.908408
vn 0.415487 0.046538 0.908408
vn 0.415487 0.046538 0.908408
vn 0.415487 0.046538 0.908408
vn 0.000000 0.342852 0.939389
vn 0.000000 0.342852 0.939389
vn 0.000000 0.342852 0.939389
vn 0.000000 0.342852 0.939389
vn -0.415487 0.046538 0.908408
vn -0.415487 0.046538 0.908408
vn -0.415487 0.046538 0.908408
vn -0.415487 0.046538 0.908408
vn 0.000000 0.342857 -0.939388
vn 0.000000 0.342857 -0.939388
vn 0.000000 0.342857 -0.939388
vn 0.000000 0.342857 -0.939388
vn 0.415495 0.046539 -0.908404
vn 0.415495 0.046539 -0.908404
vn 0.415495 0.046539 -0.908404
vn 0.415495 0.046539 -0.908404
vn 0.000000 -0.490903 -0.871214
vn 0.000000 -0.490903 -0.871214
vn 0.000000 -0.490903 -0.871214
vn 0.000000 -0.490903 -0.871214
vn -0.415495 0.046539 -0.908404
vn -0.415495 0.046539 -0.908404
vn -0.415495 0.046539 -0.908404
vn -0.415495 0.046539 -0.908404
vn -0.110173 0.034200 0.993324
vn -0.110173 0.034200 0.993324
vn -0.110173 0.034200 0.993324
vn -0.110173 0.034200 0.993324
vn 0.000000 0.000000 1.000000
vn 0.000000 0.000000 1.000000
vn 0.000000 0.000000 1.000000
vn 0.000000 0.000000 1.000000
vn 0.110173 0.034200 0.993324
vn 0.110173 0.034200 0.993324
vn 0.110173 0.034200 0.993324
vn 0.110173 0.034200 0.993324
vn 0.000000 0.000000 -1.000000
vn 0.000000 0.000000 -1.000000
vn 0.000000 0.000000 -1.000000
vn 0.000000 0.000000 -1.000000
vn -0.110170 0.034202 -0.993324
vn -0.110170 0.034202 -0.993324
vn -0.110170 0.034202 -0.993324
vn -0.110170 0.034202 -0.993324
vn 0.110171 0.034202 -0.993324
vn 0.110171 0.034202 -0.993324
vn 0.110171 0.034202 -0.993324
vn 0.110171 0.034202 -0.993324
vn -0.000113 0.060101 0.998192
vn -0.000113 0.060101 0.998192
vn -0.000113 0.060101 0.998192
vn -0.000113 0.060101 0.998192
vn -0.000113 0.060104 -0.998192
vn -0.000113 0.060104 -0.998192
vn -0.000113 0.060104 -0.998192
vn -0.000113 0.060104 -0.998192
vn 0.008115 0.060493 -0.998136
vn 0.008115 0.060493 -0.998136
vn 0.008115 0.060493 -0.998136
vn -0.008116 0.059712 -0.998183
vn -0.008116 0.059712 -0.998183
vn -0.008116 0.059712 -0.998183
vn -0.008118 0.059709 0.998183
vn -0.008118 0.059709 0.998183
vn -0.008118 0.059709 0.998183
vn 0.008118 0.060490 0.998136
vn 0.008118 0.060490 0.998136
vn 0.008118 0.060490 0.998136
vn 0.000000 0.081889 0.996641
vn 0.000000 0.081889 0.996641
vn 0.000000 0.081889 0.996641
vn 0.000000 0.081889 0.996641
vn 0.988413 -0.151789 0.000000
vn 0.988413 -0.151789 0.000000
vn 0.988413 -0.151789 0.000000
vn 0.988413 -0.151789 0.000000
vn 0.000000 0.081887 -0.996642
vn 0.000000 0.081887 -0.996642
vn 0.000000 0.081887 -0.996642
vn 0.000000 0.081887 -0.996642
vn -0.988413 -0.151789 0.000000
vn -0.988413 -0.151789 0.000000
vn -0.988413 -0.151789 0.000000
vn -0.988413 -0.151789 0.000000
vn 0.065029 0.064642 0.995788
vn 0.065029 0.064642 0.995787
vn 0.065029 0.064642 0.995787
vn 0.026120 0.026933 -0.999296
vn 0.026120 0.026933 -0.999296
vn 0.026120 0.026933 -0.999296
vn -0.019686 0.084440 -0.996234
vn -0.019686 0.084440 -0.996234
vn -0.019686 0.084440 -0.996234
vn -0.019686 0.084440 -0.996234
vn 0.029875 0.053000 0.998148
vn 0.029875 0.053000 0.998148
vn 0.029875 0.053000 0.998147
vn 0.029875 0.053000 0.998147
vn 0.029875 0.053000 0.998148
s off
f 10/2/1 50/106/2 2/3/3
f 1/91/4 2/92/5 50/105/6 3/93/7 4/94/8
f 8/8/9 7/9/10 1/4/11 6/5/12
f 9/10/13 4/7/14 3/1/15 10/2/16
f 9/10/17 11/11/18 5/6/19
f 9/10/20 5/6/21 4/7/22
f 11/11/23 8/8/24 6/5/25 5/6/26
f 2/3/27 1/4/28 7/9/29 12/12/30
f 2/3/31 12/12/32 10/2/33
f 15/13/34 22/14/35 49/103/36
f 13/97/37 18/98/38 17/99/39 16/100/40
f 20/20/41 18/17/42 13/16/43 19/21/44
f 21/22/45 22/14/46 15/13/47 16/19/48
f 21/22/49 17/18/50 23/23/51
f 21/22/52 16/19/53 17/18/54
f 23/23/55 17/18/56 18/17/57 20/20/58
f 14/15/59 24/24/60 19/21/61 13/16/62
f 14/15/63 22/14/64 24/24/65
f 23/25/66 43/26/67 44/27/68 24/28/69 37/29/70 38/30/71
f 45/31/72 46/32/73 47/33/74 48/34/75
f 39/35/76 40/36/77 12/37/78 41/38/79 42/39/80 11/40/81
f 31/41/82 32/42/83 26/43/84 25/44/85
f 26/45/86 32/46/87 30/47/88 28/48/89
f 31/49/90 25/50/91 27/51/92 29/52/93
f 25/50/94 26/45/95 22/53/96 21/54/97
f 26/45/98 28/48/99 33/55/100 22/53/101
f 28/48/102 27/51/103 34/56/104 33/55/105
f 27/51/106 25/50/107 21/54/108 34/56/109
f 29/57/110 30/58/111 36/59/112 35/60/113
f 30/58/114 32/42/115 10/61/116 36/59/117
f 32/42/118 31/41/119 9/62/120 10/61/121
f 31/41/122 29/57/123 35/60/124 9/62/125
f 22/63/126 33/64/127 37/65/128 24/66/129
f 33/64/130 34/67/131 38/68/132 37/65/133
f 34/67/134 21/69/135 23/70/136 38/68/137
f 35/71/138 36/72/139 40/73/140 39/74/141
f 36/72/142 10/75/143 12/76/144 40/73/145
f 9/77/146 35/71/147 39/74/148 11/78/149
f 43/26/150 20/79/151 19/80/152 44/27/153
f 8/81/154 42/39/155 41/38/156 7/82/157
f 7/83/158 41/84/159 12/76/160
f 11/78/161 42/85/162 8/86/163
f 23/70/164 20/87/165 43/88/166
f 44/89/167 19/90/168 24/66/169
f 27/51/170 28/48/171 46/32/172 45/31/173
f 28/48/174 30/58/175 47/33/176 46/32/177
f 30/58/178 29/57/179 48/34/180 47/33/181
f 29/57/182 27/51/183 45/31/184 48/34/185
f 49/103/186 22/14/187 14/15/188
f 3/1/189 50/106/190 10/2/191
f 1/91/192 4/94/193 5/95/194 6/96/195
f 13/97/196 16/100/197 15/101/198 49/104/199 14/102/200
