# This file uses centimeters as units for non-parametric coordinates.

v -17.883209 -7.407469 9.526367
v -17.883209 -7.407469 -9.526489
v -12.215734 -5.059923 20.366089
v -12.215734 -5.059923 -20.366150
v -7.407494 -17.883211 -9.526483
v -7.407494 -17.883211 9.526374
v -5.059886 -12.215733 20.366108
v 0.000031 -0.000001 25.614807
v 0.000031 0.000000 -25.614929
v -5.059886 -12.215733 -20.366192
v -17.883202 7.407469 9.526361
v -17.883202 7.407468 -9.526435
v -12.215709 5.059919 20.366070
v -12.215709 5.059921 -20.366169
v 7.407502 -17.883213 9.526366
v 7.407502 -17.883211 -9.526490
v 5.059967 -12.215731 20.366083
v 5.059967 -12.215733 -20.366156
v 17.883202 -7.407470 -9.526483
v 17.883202 -7.407470 9.526374
v 12.215710 -5.059921 20.366108
v 12.215710 -5.059922 -20.366192
v 17.883209 7.407467 9.526367
v 17.883209 7.407468 -9.526489
v 12.215734 5.059923 20.366089
v 12.215734 5.059920 -20.366150
v 7.407434 17.883209 -9.526435
v 7.407434 17.883209 9.526361
v 5.059886 12.215731 20.366070
v 5.059886 12.215731 -20.366169
v -7.407440 17.883209 9.526368
v -7.407440 17.883213 -9.526488
v -5.059906 12.215731 20.366095
v -5.059906 12.215731 -20.366144
vt 0.108722 0.109926
vt 0.132675 0.109926
vt 0.132675 0.070023
vt 0.108722 0.070023
vt 0.130013 0.136994
vt 0.111241 0.136994
vt 0.123288 0.151618
vt 0.110812 0.050949
vt 0.130443 0.050949
vt 0.120835 0.033004
vt 0.154568 0.108453
vt 0.176297 0.108453
vt 0.176297 0.071496
vt 0.154568 0.071496
vt 0.174336 0.137302
vt 0.157820 0.137302
vt 0.166191 0.150197
vt 0.157466 0.050323
vt 0.173270 0.050323
vt 0.164913 0.031969
vt 0.173270 0.050323
vt 0.157466 0.050323
vt 0.176297 0.071496
vt 0.174336 0.137302
vt 0.157820 0.137302
vt 0.176297 0.108453
vt 0.154568 0.071496
vt 0.154568 0.108453
vt 0.108722 0.073375
vt 0.132675 0.073375
vt 0.132675 0.112874
vt 0.108722 0.112874
vt 0.130013 0.051206
vt 0.111241 0.051206
vt 0.120828 0.033468
vt 0.110812 0.136679
vt 0.130443 0.136679
vt 0.123288 0.151618
vt 0.154568 0.074834
vt 0.176297 0.074834
vt 0.176297 0.111415
vt 0.154568 0.111415
vt 0.173626 0.052300
vt 0.157110 0.052300
vt 0.164579 0.032933
vt 0.158176 0.138060
vt 0.173980 0.138060
vt 0.166202 0.150546
vt 0.176297 0.074834
vt 0.154568 0.074834
vt 0.157110 0.052300
vt 0.173626 0.052300
vt 0.154568 0.111415
vt 0.176297 0.111415
vt 0.173980 0.138060
vt 0.158176 0.138060
vt 0.108722 0.109926
vt 0.132675 0.109926
vt 0.132675 0.070023
vt 0.108722 0.070023
vt 0.130013 0.136994
vt 0.111241 0.136994
vt 0.123288 0.151618
vt 0.110812 0.050949
vt 0.130443 0.050949
vt 0.120835 0.033004
vt 0.154568 0.108453
vt 0.176297 0.108453
vt 0.176297 0.071496
vt 0.154568 0.071496
vt 0.174336 0.137302
vt 0.157820 0.137302
vt 0.166191 0.150197
vt 0.157466 0.050323
vt 0.173270 0.050323
vt 0.164913 0.031969
vt 0.176297 0.108453
vt 0.154568 0.108453
vt 0.157820 0.137302
vt 0.174336 0.137302
vt 0.154568 0.071496
vt 0.176297 0.071496
vt 0.173270 0.050323
vt 0.157466 0.050323
vt 0.108722 0.073375
vt 0.132675 0.073375
vt 0.132675 0.112874
vt 0.108722 0.112874
vt 0.130013 0.051206
vt 0.111241 0.051206
vt 0.120828 0.033468
vt 0.110812 0.136679
vt 0.130443 0.136679
vt 0.123288 0.151618
vt 0.154568 0.074834
vt 0.176297 0.074834
vt 0.176297 0.111415
vt 0.154568 0.111415
vt 0.173626 0.052300
vt 0.157110 0.052300
vt 0.164579 0.032933
vt 0.158176 0.138060
vt 0.173980 0.138060
vt 0.166202 0.150546
vt 0.176297 0.074834
vt 0.154568 0.074834
vt 0.157110 0.052300
vt 0.173626 0.052300
vt 0.154568 0.111415
vt 0.176297 0.111415
vt 0.173980 0.138060
vt 0.158176 0.138060
vt 0.130443 0.050949
vt 0.130013 0.136994
vt 0.132675 0.070023
vt 0.132675 0.109926
vt 0.108722 0.070023
vt 0.110812 0.050949
vt 0.108722 0.109926
vt 0.111241 0.136994
vt 0.130443 0.050949
vt 0.130013 0.136994
vt 0.132675 0.070023
vt 0.132675 0.109926
vt 0.108722 0.070023
vt 0.110812 0.050949
vt 0.108722 0.109926
vt 0.111241 0.136994
vn -0.707108 -0.707106 0.000000
vn -0.707108 -0.707106 0.000000
vn -0.707108 -0.707106 0.000000
vn -0.707108 -0.707106 0.000000
vn -0.279145 -0.279144 0.918780
vn -0.279145 -0.279144 0.918780
vn -0.279145 -0.279144 0.918780
vn -0.279149 -0.279145 -0.918779
vn -0.279148 -0.279145 -0.918779
vn -0.279148 -0.279145 -0.918779
vn -0.626626 -0.626626 0.463336
vn -0.626626 -0.626626 0.463336
vn -0.626626 -0.626626 0.463336
vn -0.626626 -0.626626 0.463336
vn -0.626625 -0.626625 -0.463338
vn -0.626625 -0.626625 -0.463338
vn -0.626625 -0.626625 -0.463338
vn -0.626625 -0.626625 -0.463338
vn -1.000000 0.000001 -0.000000
vn -1.000000 0.000001 -0.000000
vn -1.000000 0.000001 -0.000000
vn -1.000000 0.000001 -0.000000
vn -0.394771 0.000003 0.918780
vn -0.394771 0.000003 0.918780
vn -0.394771 0.000003 0.918780
vn -0.394774 -0.000001 -0.918778
vn -0.394773 -0.000001 -0.918778
vn -0.394773 -0.000001 -0.918778
vn -0.886183 0.000002 0.463336
vn -0.886183 0.000002 0.463336
vn -0.886183 0.000002 0.463336
vn -0.886183 0.000002 0.463336
vn -0.886182 0.000002 -0.463336
vn -0.886183 0.000002 -0.463336
vn -0.886182 0.000002 -0.463336
vn -0.886183 0.000002 -0.463336
vn 0.707108 -0.707105 -0.000000
vn 0.707108 -0.707105 -0.000000
vn 0.707108 -0.707105 -0.000000
vn 0.707108 -0.707105 -0.000000
vn 0.279145 -0.279145 0.918780
vn 0.279145 -0.279145 0.918780
vn 0.279145 -0.279145 0.918780
vn 0.279147 -0.279148 -0.918778
vn 0.279147 -0.279148 -0.918778
vn 0.279147 -0.279148 -0.918778
vn 0.626628 -0.626624 0.463335
vn 0.626628 -0.626625 0.463335
vn 0.626628 -0.626625 0.463335
vn 0.626628 -0.626625 0.463335
vn 0.626627 -0.626624 -0.463336
vn 0.626627 -0.626624 -0.463336
vn 0.626627 -0.626624 -0.463336
vn 0.626627 -0.626624 -0.463336
vn -0.000000 -1.000000 -0.000000
vn -0.000000 -1.000000 -0.000000
vn -0.000000 -1.000000 -0.000000
vn -0.000000 -1.000000 -0.000000
vn 0.000002 -0.394771 0.918780
vn 0.000002 -0.394770 0.918780
vn 0.000002 -0.394770 0.918780
vn 0.000003 -0.394773 -0.918779
vn 0.000003 -0.394773 -0.918779
vn 0.000003 -0.394773 -0.918779
vn 0.000001 -0.886183 0.463335
vn 0.000001 -0.886183 0.463335
vn 0.000001 -0.886183 0.463335
vn 0.000001 -0.886183 0.463335
vn 0.000001 -0.886183 -0.463336
vn 0.000001 -0.886182 -0.463336
vn 0.000001 -0.886182 -0.463336
vn 0.000001 -0.886182 -0.463336
vn 0.707106 0.707108 0.000000
vn 0.707106 0.707108 0.000000
vn 0.707106 0.707108 0.000000
vn 0.707106 0.707108 0.000000
vn 0.279144 0.279148 0.918779
vn 0.279144 0.279148 0.918779
vn 0.279144 0.279148 0.918779
vn 0.279148 0.279148 -0.918778
vn 0.279148 0.279148 -0.918778
vn 0.279148 0.279148 -0.918778
vn 0.626624 0.626628 0.463335
vn 0.626624 0.626628 0.463335
vn 0.626624 0.626628 0.463335
vn 0.626624 0.626628 0.463335
vn 0.626624 0.626628 -0.463336
vn 0.626624 0.626628 -0.463336
vn 0.626624 0.626628 -0.463336
vn 0.626624 0.626628 -0.463336
vn 1.000000 -0.000001 -0.000000
vn 1.000000 -0.000001 -0.000000
vn 1.000000 -0.000001 -0.000000
vn 1.000000 -0.000001 -0.000000
vn 0.394771 0.000001 0.918779
vn 0.394771 0.000001 0.918779
vn 0.394771 0.000001 0.918779
vn 0.394774 0.000003 -0.918778
vn 0.394774 0.000003 -0.918778
vn 0.394774 0.000003 -0.918778
vn 0.886183 -0.000001 0.463335
vn 0.886183 -0.000001 0.463335
vn 0.886183 -0.000001 0.463335
vn 0.886183 -0.000001 0.463335
vn 0.886182 -0.000001 -0.463337
vn 0.886182 -0.000001 -0.463337
vn 0.886182 -0.000001 -0.463337
vn 0.886182 -0.000001 -0.463337
vn -0.707106 0.707107 0.000000
vn -0.707106 0.707107 0.000000
vn -0.707106 0.707107 0.000000
vn -0.707106 0.707107 0.000000
vn -0.279147 0.279144 0.918779
vn -0.279147 0.279144 0.918779
vn -0.279147 0.279144 0.918779
vn -0.279146 0.279149 -0.918778
vn -0.279146 0.279149 -0.918778
vn -0.279146 0.279149 -0.918778
vn -0.626626 0.626626 0.463335
vn -0.626626 0.626626 0.463335
vn -0.626626 0.626626 0.463335
vn -0.626626 0.626626 0.463335
vn -0.626626 0.626625 -0.463336
vn -0.626626 0.626625 -0.463336
vn -0.626626 0.626625 -0.463336
vn -0.626626 0.626625 -0.463336
vn 0.000000 1.000000 0.000000
vn 0.000000 1.000000 0.000000
vn 0.000000 1.000000 0.000000
vn 0.000000 1.000000 0.000000
vn 0.000002 0.394771 0.918779
vn 0.000002 0.394771 0.918779
vn 0.000002 0.394771 0.918779
vn -0.000002 0.394774 -0.918778
vn -0.000002 0.394774 -0.918778
vn -0.000002 0.394774 -0.918778
vn 0.000001 0.886183 0.463335
vn 0.000001 0.886183 0.463335
vn 0.000001 0.886183 0.463335
vn 0.000001 0.886183 0.463335
vn 0.000001 0.886183 -0.463336
vn 0.000001 0.886183 -0.463336
vn 0.000001 0.886183 -0.463336
vn 0.000001 0.886183 -0.463336
s off
f 6/1/1 1/124/2 2/3/3 5/125/4
f 3/5/5 7/128/6 8/7/7
f 10/8/8 4/121/9 9/10/10
f 1/2/11 6/127/12 7/6/13 3/122/14
f 5/4/15 2/123/16 4/9/17 10/126/18
f 1/28/19 11/26/20 12/13/21 2/14/22
f 13/15/23 3/16/24 8/17/25
f 4/22/26 14/21/27 9/20/28
f 11/12/29 1/11/30 3/25/31 13/24/32
f 2/27/33 12/23/34 14/19/35 4/18/36
f 20/29/37 15/30/38 16/31/39 19/32/40
f 17/33/41 21/34/42 8/35/43
f 22/36/44 18/37/45 9/38/46
f 15/30/47 20/29/48 21/34/49 17/33/50
f 19/32/51 16/31/52 18/37/53 22/36/54
f 15/39/55 6/40/56 5/41/57 16/42/58
f 7/43/59 17/44/60 8/45/61
f 18/46/62 10/47/63 9/48/64
f 6/49/65 15/50/66 17/51/67 7/52/68
f 16/53/69 5/54/70 10/55/71 18/56/72
f 28/57/73 23/116/74 24/59/75 27/117/76
f 25/61/77 29/120/78 8/63/79
f 30/64/80 26/113/81 9/66/82
f 23/58/83 28/119/84 29/62/85 25/114/86
f 27/60/87 24/115/88 26/65/89 30/118/90
f 23/67/91 20/68/92 19/69/93 24/70/94
f 21/71/95 25/72/96 8/73/97
f 26/74/98 22/75/99 9/76/100
f 20/77/101 23/78/102 25/79/103 21/80/104
f 24/81/105 19/82/106 22/83/107 26/84/108
f 11/85/109 31/86/110 32/87/111 12/88/112
f 33/89/113 13/90/114 8/91/115
f 14/92/116 34/93/117 9/94/118
f 31/86/119 11/85/120 13/90/121 33/89/122
f 12/88/123 32/87/124 34/93/125 14/92/126
f 31/95/127 28/96/128 27/97/129 32/98/130
f 29/99/131 33/100/132 8/101/133
f 34/102/134 30/103/135 9/104/136
f 28/105/137 31/106/138 33/107/139 29/108/140
f 32/109/141 27/110/142 30/111/143 34/112/144
