# This file uses centimeters as units for non-parametric coordinates.

v -23.359863 9.178439 -27.369995
v -24.111389 1.088181 -27.849670
v -28.533081 8.459507 -27.398376
v -30.012939 2.790635 -27.835632
v -26.195068 9.804841 -27.316650
v -28.157471 1.058168 -27.942383
v -30.301147 5.618454 -28.120605
v -27.999084 2.407299 -23.655396
v -26.975037 8.141378 -23.878662
v -25.359802 9.628667 -25.331726
v -26.830566 0.806926 -25.151917
v -28.122192 5.216361 -23.552490
v -18.061584 7.651639 -27.644348
v -18.121094 1.858671 -27.847046
v -20.211060 9.345243 -27.491272
v -20.320862 0.441947 -27.898254
v -17.070740 4.588475 -28.266968
v -19.610535 1.737221 -23.412415
v -19.922791 7.592862 -23.909851
v -21.254822 9.310866 -25.353577
v -21.236023 0.362114 -25.012207
v -19.186951 4.513348 -23.510193
v -23.452087 7.787169 -22.414490
v -23.632019 1.960649 -21.713501
v -23.326294 9.424623 -24.473206
v -23.925964 0.512025 -23.873840
v -23.575134 4.762557 -21.632751
v -19.769165 2.206010 -31.882874
v -19.509094 7.957899 -31.157959
v -21.052917 9.519759 -29.512207
v -21.451477 0.671803 -30.599304
v -18.919495 4.955060 -32.650452
v -27.093628 8.540421 -30.928894
v -28.353699 2.878661 -31.877869
v -25.363098 9.849347 -29.349670
v -27.047974 1.112999 -30.651550
v -28.461426 5.696808 -32.523560
v -23.446533 8.334085 -32.378174
v -24.004272 2.621185 -33.420227
v -23.287231 9.733354 -30.232483
v -24.163086 0.942049 -31.700012
v -23.750549 5.413197 -34.221069
v -26.305664 7.415942 -28.429199
v -21.963867 7.112635 -29.580566
v -25.833740 7.209937 -25.591064
v -23.145264 6.922957 -24.523071
v -25.174988 14.207685 -20.885010
v -24.026367 13.493084 -21.968689
v -25.277893 15.874912 -20.703613
v -23.363525 16.348425 -22.359619
v -22.895569 14.552731 -22.780457
v -20.769226 6.843504 -26.562744
v -25.119080 12.463866 -26.396851
v -24.328613 11.592460 -25.288696
v -22.754456 11.102412 -25.539124
v -21.964417 11.637614 -26.936340
v -23.190979 12.548190 -27.950134
v -22.442627 14.337051 -17.262085
v -22.720703 15.662769 -16.268188
v -20.222107 16.249252 -16.057129
v -20.836792 13.904797 -17.751526
v -19.502380 14.818291 -17.084229
v -18.983643 9.790509 -15.385071
v -19.628723 10.491500 -14.001221
v -17.551880 11.948604 -13.559631
v -17.412170 10.235471 -15.965881
v -16.467041 11.349236 -15.003296
v -11.322937 1.973423 -13.546387
v -12.090149 2.952379 -12.416870
v -10.781189 5.062893 -13.097839
v -10.130798 2.617157 -14.627686
v -9.662781 4.291134 -14.429810
v -3.435547 -0.129501 -7.925293
v 0.000000 0.000000 0.000000
v -4.525452 1.118796 -7.648560
v -3.220032 2.811386 -9.084717
v -2.049072 0.099762 -8.940186
v -1.752502 1.703317 -9.573425
vt 0.113709 0.178654
vt 0.113709 0.178654
vt 0.113709 0.178654
vt 0.113709 0.178654
vt 0.113709 0.178656
vt 0.113709 0.178656
vt 0.113709 0.178656
vt 0.113709 0.178656
vt 0.113709 0.178654
vt 0.113709 0.178654
vt 0.113709 0.178654
vt 0.113709 0.178654
vt 0.113709 0.178654
vt 0.113709 0.178654
vt 0.113709 0.178656
vt 0.113709 0.178654
vt 0.113709 0.178654
vt 0.113709 0.178656
vt 0.113709 0.178654
vt 0.113709 0.178654
vt 0.113709 0.178654
vt 0.113709 0.178654
vt 0.113709 0.178656
vt 0.113709 0.178654
vt 0.113709 0.178654
vt 0.113709 0.178654
vt 0.113709 0.178654
vt 0.113709 0.178654
vt 0.113709 0.178654
vt 0.113709 0.178656
vt 0.113709 0.178654
vt 0.113709 0.178654
vt 0.113709 0.178656
vt 0.113709 0.178654
vt 0.113709 0.178654
vt 0.113709 0.178654
vt 0.113709 0.178654
vt 0.113709 0.178656
vt 0.113709 0.178656
vt 0.113709 0.178656
vt 0.113709 0.178654
vt 0.113709 0.178654
vt 0.144714 0.327797
vt 0.144714 0.327797
vt 0.144714 0.327797
vt 0.144714 0.327797
vt 0.144714 0.327797
vt 0.144714 0.327797
vt 0.144714 0.327797
vt 0.144714 0.327797
vt 0.144714 0.327797
vt 0.144714 0.327797
vt 0.144714 0.327797
vt 0.144714 0.327797
vt 0.144714 0.327797
vt 0.144714 0.327797
vt 0.144714 0.327797
vt 0.144714 0.327797
vt 0.144714 0.327797
vt 0.144714 0.327797
vt 0.144714 0.327797
vt 0.144714 0.327797
vt 0.144714 0.327797
vt 0.144714 0.327797
vt 0.144714 0.327797
vt 0.144714 0.327797
vt 0.144714 0.327797
vt 0.144714 0.327797
vt 0.144714 0.327797
vt 0.144714 0.327797
vt 0.144714 0.327797
vt 0.144714 0.327797
vt 0.144714 0.327797
vt 0.144714 0.327797
vt 0.144714 0.327797
vt 0.144714 0.327797
vt 0.144714 0.327797
vt 0.144714 0.327797
vn -0.915462 -0.127132 -0.381794
vn -0.915462 -0.127132 -0.381794
vn -0.915462 -0.127132 -0.381794
vn -0.915462 -0.127132 -0.381794
vn -0.485327 0.855845 -0.178851
vn -0.485327 0.855845 -0.178851
vn -0.485327 0.855845 -0.178851
vn -0.485327 0.855845 -0.178851
vn -0.663359 -0.691213 -0.286668
vn -0.663359 -0.691213 -0.286668
vn -0.663359 -0.691213 -0.286668
vn -0.663359 -0.691213 -0.286668
vn 0.389699 -0.030757 0.920428
vn 0.389699 -0.030757 0.920428
vn 0.389699 -0.030757 0.920429
vn 0.389699 -0.030757 0.920429
vn 0.297309 0.738523 0.605138
vn 0.297309 0.738523 0.605138
vn 0.297309 0.738523 0.605138
vn 0.297309 0.738523 0.605137
vn 0.178406 -0.828373 0.531009
vn 0.178406 -0.828373 0.531009
vn 0.178406 -0.828373 0.531009
vn 0.178406 -0.828372 0.531009
vn -0.400217 -0.034698 0.915763
vn -0.400217 -0.034698 0.915763
vn -0.400217 -0.034698 0.915763
vn -0.400217 -0.034698 0.915763
vn -0.174730 0.777011 0.604750
vn -0.174730 0.777011 0.604750
vn -0.174730 0.777011 0.604750
vn -0.174730 0.777011 0.604750
vn -0.325136 -0.763120 0.558511
vn -0.325136 -0.763120 0.558511
vn -0.325136 -0.763120 0.558511
vn -0.325136 -0.763120 0.558511
vn 0.844164 -0.375645 -0.382463
vn 0.844164 -0.375645 -0.382463
vn 0.844164 -0.375645 -0.382463
vn 0.844164 -0.375645 -0.382463
vn 0.599541 0.779780 -0.180262
vn 0.599541 0.779780 -0.180262
vn 0.599541 0.779780 -0.180262
vn 0.599541 0.779780 -0.180262
vn 0.521462 -0.804618 -0.284019
vn 0.521462 -0.804618 -0.284019
vn 0.521462 -0.804618 -0.284019
vn 0.521462 -0.804618 -0.284019
vn 0.911534 -0.210820 0.353072
vn 0.911534 -0.210820 0.353073
vn 0.911534 -0.210820 0.353072
vn 0.911534 -0.210820 0.353072
vn 0.604098 0.733936 0.310490
vn 0.604098 0.733936 0.310490
vn 0.604098 0.733936 0.310490
vn 0.604098 0.733936 0.310490
vn 0.538261 -0.828585 0.154019
vn 0.538261 -0.828585 0.154019
vn 0.538261 -0.828585 0.154019
vn 0.538261 -0.828585 0.154019
vn -0.339924 -0.226504 -0.912769
vn -0.339924 -0.226504 -0.912769
vn -0.339924 -0.226504 -0.912769
vn -0.339924 -0.226504 -0.912769
vn 0.135908 0.971964 0.191870
vn 0.135908 0.971964 0.191870
vn 0.135908 0.971964 0.191870
vn -0.166184 0.835768 -0.523331
vn -0.166184 0.835768 -0.523331
vn -0.166184 0.835768 -0.523331
vn -0.166184 0.835768 -0.523331
vn -0.283585 -0.676101 -0.680049
vn -0.283585 -0.676101 -0.680049
vn -0.283585 -0.676101 -0.680049
vn -0.283585 -0.676101 -0.680049
vn 0.280917 -0.312765 -0.907339
vn 0.280917 -0.312765 -0.907339
vn 0.280917 -0.312765 -0.907339
vn 0.280917 -0.312765 -0.907339
vn 0.246449 0.805419 -0.539039
vn 0.246449 0.805419 -0.539039
vn 0.246449 0.805419 -0.539039
vn 0.246449 0.805419 -0.539039
vn 0.180875 -0.724935 -0.664645
vn 0.180875 -0.724935 -0.664645
vn 0.180875 -0.724935 -0.664645
vn 0.180875 -0.724935 -0.664645
vn 0.876106 0.345506 -0.336251
vn 0.876105 0.345506 -0.336251
vn 0.876106 0.345506 -0.336251
vn 0.876105 0.345506 -0.336251
vn 0.879431 0.232120 0.415597
vn 0.879431 0.232120 0.415597
vn 0.879431 0.232120 0.415597
vn 0.879431 0.232120 0.415597
vn 0.393012 0.212600 0.894619
vn 0.393012 0.212600 0.894619
vn 0.393012 0.212600 0.894619
vn 0.393012 0.212600 0.894619
vn -0.354180 0.243740 0.902855
vn -0.354180 0.243740 0.902855
vn -0.354180 0.243740 0.902855
vn -0.354180 0.243740 0.902855
vn -0.773973 0.552813 -0.308811
vn -0.773973 0.552813 -0.308811
vn -0.773973 0.552813 -0.308811
vn -0.773973 0.552813 -0.308811
vn -0.265996 0.549465 -0.792044
vn -0.265996 0.549466 -0.792044
vn -0.265996 0.549465 -0.792044
vn -0.265996 0.549465 -0.792044
vn 0.307363 0.478087 -0.822776
vn 0.307363 0.478087 -0.822776
vn 0.307363 0.478087 -0.822776
vn 0.307363 0.478087 -0.822776
vn 0.009542 -0.995511 -0.094169
vn 0.009542 -0.995511 -0.094169
vn 0.009542 -0.995510 -0.094169
vn 0.007807 -0.999824 -0.017038
vn 0.007807 -0.999824 -0.017038
vn 0.007807 -0.999824 -0.017038
vn -0.490158 0.823023 0.287017
vn -0.490158 0.823023 0.287017
vn -0.490158 0.823023 0.287017
vn -0.490158 0.823023 0.287017
vn -0.823159 0.387679 0.414866
vn -0.823159 0.387679 0.414866
vn -0.823159 0.387679 0.414866
vn -0.823159 0.387679 0.414866
vn -0.902371 -0.052027 0.427807
vn -0.902371 -0.052027 0.427807
vn -0.902371 -0.052027 0.427807
vn -0.902371 -0.052027 0.427807
vn -0.654727 -0.713742 0.248807
vn -0.654727 -0.713742 0.248807
vn -0.654727 -0.713742 0.248807
vn -0.654727 -0.713742 0.248807
vn 0.216400 0.970111 0.109795
vn 0.216400 0.970112 0.109795
vn 0.216400 0.970112 0.109795
vn 0.215659 0.976460 -0.004084
vn 0.215659 0.976460 -0.004084
vn 0.215659 0.976460 -0.004084
vn 0.135129 0.987136 -0.085457
vn 0.135129 0.987136 -0.085457
vn 0.135129 0.987136 -0.085457
vn -0.168214 -0.985658 -0.013466
vn -0.168214 -0.985658 -0.013466
vn -0.168214 -0.985659 -0.013466
vn -0.168518 -0.982397 -0.080612
vn -0.168518 -0.982397 -0.080612
vn -0.168518 -0.982397 -0.080612
vn 0.018634 0.996217 -0.084879
vn 0.018634 0.996217 -0.084879
vn 0.018634 0.996217 -0.084879
vn -0.053279 0.998530 -0.009957
vn -0.053279 0.998530 -0.009957
vn -0.053279 0.998530 -0.009957
vn -0.112962 -0.984062 -0.137337
vn -0.112962 -0.984062 -0.137337
vn -0.112962 -0.984062 -0.137337
vn -0.038138 -0.989193 -0.141570
vn -0.038138 -0.989193 -0.141570
vn -0.038138 -0.989193 -0.141570
vn -0.048530 0.993183 0.105982
vn -0.048530 0.993183 0.105982
vn -0.048530 0.993183 0.105982
vn 0.032213 0.981061 0.191003
vn 0.032213 0.981061 0.191003
vn 0.032213 0.981061 0.191003
vn -0.045163 -0.998238 0.038493
vn -0.045163 -0.998238 0.038493
vn -0.045163 -0.998238 0.038493
vn -0.114844 -0.992609 0.039215
vn -0.114844 -0.992609 0.039215
vn -0.114844 -0.992609 0.039215
vn -0.132531 -0.854946 0.501501
vn -0.132531 -0.854946 0.501501
vn -0.132531 -0.854945 0.501501
vn -0.132531 -0.854946 0.501501
vn -0.682286 -0.663684 0.306610
vn -0.682286 -0.663684 0.306610
vn -0.682286 -0.663684 0.306610
vn -0.502387 0.721797 -0.476043
vn -0.502387 0.721797 -0.476043
vn -0.502387 0.721797 -0.476043
vn -0.502387 0.721797 -0.476043
vn 0.846274 0.478632 -0.233948
vn 0.846274 0.478632 -0.233948
vn 0.846274 0.478632 -0.233948
vn 0.846274 0.478632 -0.233948
vn -0.949218 -0.302606 0.086109
vn -0.949218 -0.302606 0.086109
vn -0.949218 -0.302606 0.086109
vn -0.949218 -0.302606 0.086109
vn 0.817301 -0.339069 0.465887
vn 0.817301 -0.339069 0.465887
vn 0.817301 -0.339069 0.465887
vn 0.817301 -0.339069 0.465888
vn -0.515696 0.749675 0.414783
vn -0.515696 0.749675 0.414783
vn -0.515696 0.749675 0.414783
vn -0.922072 0.178120 0.343594
vn -0.922072 0.178120 0.343594
vn -0.922072 0.178120 0.343594
vn -0.922072 0.178120 0.343595
vn -0.166180 0.118400 0.978962
vn -0.166180 0.118400 0.978962
vn -0.166180 0.118400 0.978961
vn -0.166180 0.118400 0.978961
vn 0.713595 0.169242 0.679809
vn 0.713595 0.169242 0.679809
vn 0.713595 0.169242 0.679809
vn 0.713595 0.169242 0.679809
vn 0.859748 0.257752 -0.440904
vn 0.859748 0.257752 -0.440904
vn 0.859748 0.257752 -0.440904
vn 0.859748 0.257752 -0.440904
vn -0.368153 0.305400 -0.878177
vn -0.368153 0.305400 -0.878177
vn -0.368153 0.305400 -0.878177
vn -0.368153 0.305400 -0.878177
vn 0.940511 -0.260215 -0.218467
vn 0.940511 -0.260215 -0.218467
vn 0.940511 -0.260215 -0.218467
vn 0.608589 0.792930 0.029671
vn 0.608589 0.792930 0.029671
vn 0.608589 0.792930 0.029671
vn 0.133287 -0.990204 -0.041599
vn 0.133287 -0.990204 -0.041599
vn 0.133287 -0.990204 -0.041599
vn -0.797378 -0.305801 0.520263
vn -0.797378 -0.305801 0.520263
vn -0.797378 -0.305801 0.520263
vn -0.797378 -0.305801 0.520263
vn -0.191234 0.972938 0.129696
vn -0.191234 0.972938 0.129696
vn -0.191234 0.972938 0.129696
vn -0.191234 0.972938 0.129696
vn 0.577388 -0.745720 -0.332454
vn 0.577388 -0.745720 -0.332454
vn 0.577388 -0.745720 -0.332454
vn 0.577388 -0.745720 -0.332454
vn 0.770184 0.474671 -0.426032
vn 0.770184 0.474671 -0.426032
vn 0.770184 0.474671 -0.426032
vn 0.770184 0.474671 -0.426032
vn -0.246522 -0.936119 0.250814
vn -0.246522 -0.936119 0.250814
vn -0.246522 -0.936119 0.250814
vn -0.246522 -0.936119 0.250814
vn -0.845778 -0.520862 0.115593
vn -0.845778 -0.520862 0.115593
vn -0.845778 -0.520862 0.115593
vn -0.845778 -0.520862 0.115593
vn -0.264708 0.299968 0.916487
vn -0.264708 0.299968 0.916487
vn -0.264708 0.299968 0.916487
vn -0.264708 0.299968 0.916487
vn 0.551971 0.048610 -0.832445
vn 0.551971 0.048610 -0.832445
vn 0.551971 0.048610 -0.832445
vn 0.551971 0.048610 -0.832445
vn 0.784920 0.615951 0.067128
vn 0.784920 0.615951 0.067128
vn 0.784920 0.615951 0.067128
vn 0.784920 0.615951 0.067128
vn -0.260922 -0.566938 -0.781345
vn -0.260922 -0.566938 -0.781345
vn -0.260922 -0.566938 -0.781345
vn -0.260922 -0.566938 -0.781345
vn -0.716245 -0.695078 0.062126
vn -0.716245 -0.695078 0.062126
vn -0.716245 -0.695078 0.062126
vn -0.716245 -0.695078 0.062126
vn -0.038277 0.103019 0.993943
vn -0.038277 0.103019 0.993943
vn -0.038277 0.103019 0.993943
vn -0.038277 0.103019 0.993943
vn 0.341513 0.208389 -0.916484
vn 0.341513 0.208389 -0.916484
vn 0.341513 0.208389 -0.916484
vn 0.341513 0.208389 -0.916484
vn 0.692875 0.690072 0.209105
vn 0.692875 0.690072 0.209105
vn 0.692875 0.690072 0.209105
vn 0.692875 0.690072 0.209105
vn -0.310974 -0.470945 -0.825534
vn -0.310974 -0.470945 -0.825534
vn -0.310974 -0.470945 -0.825534
vn -0.310974 -0.470945 -0.825534
vn -0.503784 -0.720723 0.476194
vn -0.503784 -0.720723 0.476194
vn -0.503784 -0.720723 0.476194
vn -0.503784 -0.720723 0.476194
vn -0.271852 0.603959 0.749220
vn -0.271852 0.603959 0.749220
vn -0.271852 0.603959 0.749220
vn -0.271852 0.603959 0.749220
vn 0.485110 -0.225398 -0.844905
vn 0.485110 -0.225398 -0.844905
vn 0.485110 -0.225398 -0.844905
vn 0.485110 -0.225398 -0.844905
vn 0.428581 0.859458 -0.278659
vn 0.428581 0.859458 -0.278659
vn 0.428581 0.859458 -0.278659
vn 0.428581 0.859458 -0.278659
vn 0.002764 -0.924341 -0.381558
vn 0.002764 -0.924341 -0.381558
vn 0.002764 -0.924341 -0.381558
vn 0.002764 -0.924341 -0.381558
s off
f 37/1/1 34/2/2 4/3/3 7/4/4
f 35/5/5 33/6/6 3/7/7 5/8/8
f 34/2/9 36/9/10 6/10/11 4/3/12
f 27/11/13 24/12/14 18/13/15 22/14/16
f 25/15/17 23/16/18 19/17/19 20/18/20
f 24/12/21 26/19/22 21/20/23 18/13/24
f 12/21/25 8/22/26 24/12/27 27/11/28
f 10/23/29 9/24/30 23/16/31 25/15/32
f 8/22/33 11/25/34 26/19/35 24/12/36
f 17/26/37 14/27/38 28/28/39 32/29/40
f 15/30/41 13/31/42 29/32/43 30/33/44
f 14/27/45 16/34/46 31/35/47 28/28/48
f 22/14/49 18/13/50 14/27/51 17/26/52
f 20/18/53 19/17/54 13/31/55 15/30/56
f 18/13/57 21/20/58 16/34/59 14/27/60
f 42/36/61 39/37/62 34/2/63 37/1/64
f 1/38/65 40/39/66 35/5/67
f 40/39/68 38/40/69 33/6/70 35/5/71
f 39/37/72 41/41/73 36/9/74 34/2/75
f 32/29/76 28/28/77 39/37/78 42/36/79
f 30/33/80 29/32/81 38/40/82 40/39/83
f 28/28/84 31/35/85 41/41/86 39/37/87
f 13/31/88 17/26/89 32/29/90 29/32/91
f 19/17/92 22/14/93 17/26/94 13/31/95
f 23/16/96 27/11/97 22/14/98 19/17/99
f 9/24/100 12/21/101 27/11/102 23/16/103
f 33/6/104 37/1/105 7/4/106 3/7/107
f 38/40/108 42/36/109 37/1/110 33/6/111
f 29/32/112 32/29/113 42/36/114 38/40/115
f 11/25/116 6/10/117 2/42/118
f 2/42/119 6/10/120 36/9/121
f 10/23/122 5/8/123 3/7/124 9/24/125
f 9/24/126 3/7/127 7/4/128 12/21/129
f 12/21/130 7/4/131 4/3/132 8/22/133
f 8/22/134 4/3/135 6/10/136 11/25/137
f 35/5/138 5/8/139 1/38/140
f 1/38/141 5/8/142 10/23/143
f 1/38/144 10/23/145 25/15/146
f 16/34/147 2/42/148 31/35/149
f 2/42/150 16/34/151 21/20/152
f 25/15/153 20/18/154 1/38/155
f 1/38/156 20/18/157 15/30/158
f 26/19/159 2/42/160 21/20/161
f 2/42/162 26/19/163 11/25/164
f 15/30/165 30/33/166 1/38/167
f 1/38/168 30/33/169 40/39/170
f 41/41/171 2/42/172 36/9/173
f 2/42/174 41/41/175 31/35/176
f 54/43/177 55/44/178 48/45/179 47/46/180
f 73/47/181 74/48/182 75/49/183
f 49/50/184 50/51/185 57/52/186 53/53/187
f 56/54/188 57/52/189 50/51/190 51/55/191
f 49/50/192 53/53/193 54/43/194 47/46/195
f 55/44/196 56/54/197 51/55/198 48/45/199
f 75/49/200 74/48/201 76/56/202
f 54/43/203 53/53/204 43/57/205 45/58/206
f 45/58/207 46/59/208 55/44/209 54/43/210
f 52/60/211 56/54/212 55/44/213 46/59/214
f 44/61/215 57/52/216 56/54/217 52/60/218
f 53/53/219 57/52/220 44/61/221 43/57/222
f 74/48/223 77/62/224 78/63/225
f 76/56/226 74/48/227 78/63/228
f 73/47/229 77/62/230 74/48/231
f 49/50/232 47/46/233 58/64/234 59/65/235
f 50/51/236 49/50/237 59/65/238 60/66/239
f 48/45/240 51/55/241 62/67/242 61/68/243
f 51/55/244 50/51/245 60/66/246 62/67/247
f 47/46/248 48/45/249 61/68/250 58/64/251
f 59/65/252 58/64/253 63/69/254 64/70/255
f 60/66/256 59/65/257 64/70/258 65/71/259
f 61/68/260 62/67/261 67/72/262 66/73/263
f 62/67/264 60/66/265 65/71/266 67/72/267
f 58/64/268 61/68/269 66/73/270 63/69/271
f 64/70/272 63/69/273 68/74/274 69/75/275
f 65/71/276 64/70/277 69/75/278 70/76/279
f 66/73/280 67/72/281 72/77/282 71/78/283
f 67/72/284 65/71/285 70/76/286 72/77/287
f 63/69/288 66/73/289 71/78/290 68/74/291
f 69/75/292 68/74/293 73/47/294 75/49/295
f 70/76/296 69/75/297 75/49/298 76/56/299
f 71/78/300 72/77/301 78/63/302 77/62/303
f 72/77/304 70/76/305 76/56/306 78/63/307
f 68/74/308 71/78/309 77/62/310 73/47/311
