# This file uses centimeters as units for non-parametric coordinates.

v 0.000000 103.629082 13.037796
v 250.000031 103.629082 13.037796
v 0.000000 118.754288 13.037796
v 250.000031 118.754288 13.037796
v 0.000000 118.754288 8.125076
v 250.000031 118.754288 8.125076
v 0.000000 103.629082 8.125076
v 250.000031 103.629082 8.125076
v 0.000000 72.234856 13.037796
v 250.000031 72.234856 13.037796
v 0.000000 87.360062 13.037796
v 250.000031 87.360062 13.037796
v 0.000000 87.360062 8.125076
v 250.000031 87.360062 8.125076
v 0.000000 72.234856 8.125076
v 250.000031 72.234856 8.125076
v 0.000000 39.124195 13.037796
v 250.000031 39.124195 13.037796
v 0.000000 54.249409 13.037796
v 250.000031 54.249409 13.037796
v 0.000000 54.249409 8.125076
v 250.000031 54.249409 8.125076
v 0.000000 39.124195 8.125076
v 250.000031 39.124195 8.125076
v 0.000000 6.368784 13.037796
v 250.000031 6.368784 13.037796
v 0.000000 21.493992 13.037796
v 250.000031 21.493992 13.037796
v 0.000000 21.493992 8.125076
v 250.000031 21.493992 8.125076
v 0.000000 6.368784 8.125076
v 250.000031 6.368784 8.125076
vt 0.133772 0.359288
vt 0.133772 0.359288
vt 0.133772 0.359288
vt 0.133772 0.359288
vt 0.133772 0.359288
vt 0.133772 0.359288
vt 0.133772 0.359288
vt 0.133772 0.359288
vt 0.133772 0.359288
vt 0.133772 0.359288
vt 0.133772 0.359288
vt 0.133772 0.359288
vt 0.133772 0.359288
vt 0.133772 0.359288
vt 0.133772 0.359288
vt 0.133772 0.359288
vt 0.133772 0.359288
vt 0.133772 0.359288
vt 0.133772 0.359288
vt 0.133772 0.359288
vt 0.133772 0.359288
vt 0.133772 0.359288
vt 0.133772 0.359288
vt 0.133772 0.359288
vt 0.133772 0.359288
vt 0.133772 0.359288
vt 0.133772 0.359288
vt 0.133772 0.359288
vt 0.133772 0.359288
vt 0.133772 0.359288
vt 0.133772 0.359288
vt 0.133772 0.359288
vt 0.133772 0.359288
vt 0.133772 0.359288
vt 0.133772 0.359288
vt 0.133772 0.359288
vt 0.133772 0.359288
vt 0.133772 0.359288
vt 0.133772 0.359288
vt 0.133772 0.359288
vt 0.133772 0.359288
vt 0.133772 0.359288
vt 0.133772 0.359288
vt 0.133772 0.359288
vt 0.133772 0.359288
vt 0.133772 0.359288
vt 0.133772 0.359288
vt 0.133772 0.359288
vt 0.133772 0.359288
vt 0.133772 0.359288
vt 0.133772 0.359288
vt 0.133772 0.359288
vt 0.133772 0.359288
vt 0.133772 0.359288
vt 0.133772 0.359288
vt 0.133772 0.359288
vn 0.000000 0.000000 1.000000
vn 0.000000 0.000000 1.000000
vn 0.000000 0.000000 1.000000
vn 0.000000 0.000000 1.000000
vn 0.000000 1.000000 0.000000
vn 0.000000 1.000000 0.000000
vn 0.000000 1.000000 0.000000
vn 0.000000 1.000000 0.000000
vn 0.000000 0.000000 -1.000000
vn 0.000000 0.000000 -1.000000
vn 0.000000 0.000000 -1.000000
vn 0.000000 0.000000 -1.000000
vn 0.000000 -1.000000 0.000000
vn 0.000000 -1.000000 0.000000
vn 0.000000 -1.000000 0.000000
vn 0.000000 -1.000000 0.000000
vn 1.000000 0.000000 0.000000
vn 1.000000 0.000000 0.000000
vn 1.000000 0.000000 0.000000
vn 1.000000 0.000000 0.000000
vn -1.000000 0.000000 0.000000
vn -1.000000 0.000000 0.000000
vn -1.000000 0.000000 0.000000
vn -1.000000 0.000000 0.000000
vn 0.000000 0.000000 1.000000
vn 0.000000 0.000000 1.000000
vn 0.000000 0.000000 1.000000
vn 0.000000 0.000000 1.000000
vn 0.000000 1.000000 0.000000
vn 0.000000 1.000000 0.000000
vn 0.000000 1.000000 0.000000
vn 0.000000 1.000000 0.000000
vn 0.000000 0.000000 -1.000000
vn 0.000000 0.000000 -1.000000
vn 0.000000 0.000000 -1.000000
vn 0.000000 0.000000 -1.000000
vn 0.000000 -1.000000 0.000000
vn 0.000000 -1.000000 0.000000
vn 0.000000 -1.000000 0.000000
vn 0.000000 -1.000000 0.000000
vn 1.000000 0.000000 0.000000
vn 1.000000 0.000000 0.000000
vn 1.000000 0.000000 0.000000
vn 1.000000 0.000000 0.000000
vn -1.000000 0.000000 0.000000
vn -1.000000 0.000000 0.000000
vn -1.000000 0.000000 0.000000
vn -1.000000 0.000000 0.000000
vn 0.000000 0.000000 1.000000
vn 0.000000 0.000000 1.000000
vn 0.000000 0.000000 1.000000
vn 0.000000 0.000000 1.000000
vn 0.000000 1.000000 0.000000
vn 0.000000 1.000000 0.000000
vn 0.000000 1.000000 0.000000
vn 0.000000 1.000000 0.000000
vn 0.000000 0.000000 -1.000000
vn 0.000000 0.000000 -1.000000
vn 0.000000 0.000000 -1.000000
vn 0.000000 0.000000 -1.000000
vn 0.000000 -1.000000 0.000000
vn 0.000000 -1.000000 0.000000
vn 0.000000 -1.000000 0.000000
vn 0.000000 -1.000000 0.000000
vn 1.000000 0.000000 0.000000
vn 1.000000 0.000000 0.000000
vn 1.000000 0.000000 0.000000
vn 1.000000 0.000000 0.000000
vn -1.000000 0.000000 0.000000
vn -1.000000 0.000000 0.000000
vn -1.000000 0.000000 0.000000
vn -1.000000 0.000000 0.000000
vn 0.000000 0.000000 1.000000
vn 0.000000 0.000000 1.000000
vn 0.000000 0.000000 1.000000
vn 0.000000 0.000000 1.000000
vn 0.000000 1.000000 0.000000
vn 0.000000 1.000000 0.000000
vn 0.000000 1.000000 0.000000
vn 0.000000 1.000000 0.000000
vn 0.000000 0.000000 -1.000000
vn 0.000000 0.000000 -1.000000
vn 0.000000 0.000000 -1.000000
vn 0.000000 0.000000 -1.000000
vn 0.000000 -1.000000 0.000000
vn 0.000000 -1.000000 0.000000
vn 0.000000 -1.000000 0.000000
vn 0.000000 -1.000000 0.000000
vn 1.000000 0.000000 0.000000
vn 1.000000 0.000000 0.000000
vn 1.000000 0.000000 0.000000
vn 1.000000 0.000000 0.000000
vn -1.000000 0.000000 0.000000
vn -1.000000 0.000000 0.000000
vn -1.000000 0.000000 0.000000
vn -1.000000 0.000000 0.000000
s off
f 4/3/1 3/4/2 1/1/3 2/2/4
f 5/6/5 3/4/6 4/3/7 6/5/8
f 7/8/9 5/6/10 6/5/11 8/7/12
f 1/10/13 7/8/14 8/7/15 2/9/16
f 2/2/17 8/11/18 6/12/19 4/3/20
f 7/13/21 1/1/22 3/4/23 5/14/24
f 12/23/25 11/16/26 9/15/27 10/20/28
f 13/17/29 11/16/30 12/23/31 14/26/32
f 15/18/33 13/17/34 14/26/35 16/27/36
f 9/19/37 15/18/38 16/27/39 10/28/40
f 10/20/41 16/21/42 14/22/43 12/23/44
f 15/24/45 9/15/46 11/16/47 13/25/48
f 20/37/49 19/30/50 17/29/51 18/34/52
f 21/31/53 19/30/54 20/37/55 22/40/56
f 23/32/57 21/31/58 22/40/59 24/41/60
f 17/33/61 23/32/62 24/41/63 18/42/64
f 18/34/65 24/35/66 22/36/67 20/37/68
f 23/38/69 17/29/70 19/30/71 21/39/72
f 28/51/73 27/44/74 25/43/75 26/48/76
f 29/45/77 27/44/78 28/51/79 30/54/80
f 31/46/81 29/45/82 30/54/83 32/55/84
f 25/47/85 31/46/86 32/55/87 26/56/88
f 26/48/89 32/49/90 30/50/91 28/51/92
f 31/52/93 25/43/94 27/44/95 29/53/96
