# This file uses centimeters as units for non-parametric coordinates.

v 73.312248 -23.134453 52.841488
v -13.556816 -21.247131 52.841488
v 73.312248 11.046577 51.809437
v -13.556816 11.046577 52.841488
v 73.312248 11.046577 50.433277
v -13.556816 11.046577 50.433277
v 73.312248 -23.134453 50.433277
v -13.556816 -21.446083 50.433277
v -11.102081 -23.134453 52.841488
v -11.360840 -23.134453 50.433277
v 20.192505 -23.134453 52.841488
v 4.472111 -23.134453 52.841488
v 12.001610 -21.193542 52.841488
v 11.691427 -23.134453 51.661457
v 70.296638 11.046577 52.841488
v 73.312248 7.878036 52.841488
v 56.863068 11.046577 52.841488
v 49.219566 11.046577 52.841488
v 53.048492 11.046577 51.767117
v 53.075359 9.820045 52.841488
v 26.547239 11.046577 50.433277
v 17.409575 11.046577 50.433277
v 23.029785 11.046577 51.611832
v 22.733448 9.212677 50.433277
vt 0.969905 0.543264
vt 0.969905 0.543264
vt 0.969905 0.543264
vt 0.969905 0.543264
vt 0.969905 0.543264
vt 0.969905 0.543264
vt 0.969905 0.543264
vt 0.969905 0.543264
vt 0.969905 0.543264
vt 0.969905 0.543264
vt 0.969905 0.543264
vt 0.969905 0.543264
vt 0.969905 0.543264
vt 0.969905 0.543264
vt 0.985654 0.508086
vt 0.511301 0.512382
vt 0.511301 0.663681
vt 0.985654 0.663681
vt 0.524706 0.508086
vt 0.969905 0.543264
vt 0.969905 0.543264
vt 0.695591 0.508086
vt 0.969905 0.543264
vt 0.609749 0.508086
vt 0.969905 0.543264
vt 0.650864 0.516921
vt 0.969905 0.543264
vt 0.648774 0.508086
vt 0.969905 0.543264
vt 0.969187 0.663681
vt 0.969905 0.543264
vt 0.985654 0.649257
vt 0.969905 0.543264
vt 0.895833 0.663681
vt 0.969905 0.543264
vt 0.854095 0.663681
vt 0.969905 0.543264
vt 0.875150 0.658097
vt 0.874654 0.663681
vt 0.969905 0.543264
vt 0.969905 0.543264
vt 0.969905 0.543264
vt 0.969905 0.543264
vn 0.309440 0.294504 0.904165
vn 0.309440 0.294504 0.904165
vn 0.309440 0.294504 0.904165
vn 0.000000 0.000000 -1.000000
vn 0.000000 0.000000 -1.000000
vn 0.000000 0.000000 -1.000000
vn 0.000000 0.000000 -1.000000
vn 0.000000 0.000000 -1.000000
vn 0.000000 -1.000000 0.000000
vn 0.000000 -1.000000 0.000000
vn 0.000000 -1.000000 0.000000
vn 0.000000 -1.000000 0.000000
vn -0.608217 -0.791076 0.065353
vn -0.608217 -0.791076 0.065353
vn -0.608217 -0.791076 0.065353
vn -0.608217 -0.791076 0.065353
vn -1.000000 0.000000 0.000000
vn -1.000000 0.000000 0.000000
vn -1.000000 0.000000 0.000000
vn -1.000000 0.000000 0.000000
vn -0.118923 -0.501868 0.856730
vn -0.118923 -0.501868 0.856730
vn -0.118923 -0.501868 0.856730
vn 0.136746 -0.530483 0.836593
vn 0.136746 -0.530483 0.836593
vn 0.136746 -0.530483 0.836593
vn 0.000000 1.000000 0.000000
vn 0.000000 1.000000 0.000000
vn 0.000000 1.000000 0.000000
vn 0.000000 1.000000 0.000000
vn 1.000000 0.000000 0.000000
vn 1.000000 0.000000 0.000000
vn 1.000000 0.000000 0.000000
vn 1.000000 0.000000 0.000000
vn 1.000000 0.000000 0.000000
vn 0.000000 0.000000 1.000000
vn 0.000000 0.000000 1.000000
vn 0.000000 0.000000 1.000000
vn 0.000000 0.000000 1.000000
vn 0.000000 0.000000 1.000000
vn -0.207870 0.641933 0.738046
vn -0.207870 0.641933 0.738046
vn -0.207870 0.641933 0.738046
vn 0.205917 0.647334 0.733864
vn 0.205917 0.647334 0.733864
vn 0.205917 0.647334 0.733864
vn 0.176313 0.511844 -0.840791
vn 0.176313 0.511844 -0.840791
vn 0.176313 0.511844 -0.840791
vn -0.265070 0.551244 -0.791118
vn -0.265070 0.551244 -0.791118
vn -0.265070 0.551244 -0.791118
vn -0.000000 0.000000 1.000000
vn -0.000000 0.000000 1.000000
vn -0.000000 0.000000 1.000000
vn -0.000000 0.000000 1.000000
vn 0.000000 0.000000 1.000000
vn 0.000000 0.000000 1.000000
vn 0.000000 0.000000 1.000000
vn 0.000000 0.000000 1.000000
vn 0.000000 0.000000 1.000000
vn 0.000000 0.000000 1.000000
vn 0.000000 0.000000 1.000000
vn 0.000000 0.000000 1.000000
vn 0.000000 0.000000 1.000000
vn 0.000000 -1.000000 -0.000002
vn 0.000000 -1.000000 -0.000002
vn 0.000000 -1.000000 -0.000002
vn 0.000000 -1.000000 -0.000002
vn 0.000000 -1.000000 0.000002
vn 0.000000 -1.000000 0.000002
vn 0.000000 -1.000000 0.000002
vn 0.000000 1.000000 0.000000
vn 0.000000 1.000000 0.000000
vn 0.000000 1.000000 0.000000
vn 0.000000 1.000000 0.000000
vn 0.000000 1.000000 0.000000
vn 0.000000 1.000000 0.000000
vn 0.000000 1.000000 0.000000
vn 0.000000 1.000000 0.000000
vn 0.000000 1.000000 0.000000
vn 0.000000 1.000000 -0.000001
vn 0.000000 1.000000 -0.000001
vn 0.000000 1.000000 -0.000001
vn 0.000000 1.000000 -0.000001
vn 0.000000 0.000000 -1.000000
vn 0.000000 0.000000 -1.000000
vn 0.000000 0.000000 -1.000000
vn 0.000000 0.000000 -1.000000
vn 0.000000 0.000000 -1.000000
vn 0.000000 0.000000 -1.000000
vn 0.000000 0.000000 -1.000000
s off
f 16/32/1 3/18/2 15/30/3
f 10/21/4 8/8/5 6/6/6 22/41/7 24/43/8
f 7/7/9 1/9/10 11/23/11 14/27/12
f 9/20/13 2/10/14 8/8/15 10/21/16
f 2/2/17 4/4/18 6/12/19 8/11/20
f 14/28/21 11/22/22 13/26/23
f 12/24/24 14/28/25 13/26/26
f 23/42/27 4/4/28 18/35/29 19/37/30
f 7/13/31 5/14/32 3/3/33 16/31/34 1/1/35
f 4/17/36 2/16/37 9/19/38 12/24/39 13/26/40
f 17/34/41 19/39/42 20/38/43
f 19/39/44 18/36/45 20/38/46
f 22/41/47 23/42/48 24/43/49
f 23/42/50 21/40/51 24/43/52
f 1/15/53 20/38/54 13/26/55 11/22/56
f 20/38/57 18/36/58 4/17/59 13/26/60
f 1/15/61 16/32/62 15/30/63 17/34/64 20/38/65
f 14/27/66 12/25/67 9/20/68 10/21/69
f 7/7/70 14/27/71 10/21/72
f 23/42/73 22/41/74 6/6/75 4/4/76
f 3/3/77 5/5/78 19/37/79 17/33/80 15/29/81
f 5/5/82 21/40/83 23/42/84 19/37/85
f 5/5/86 7/7/87 24/43/88 21/40/89
f 7/7/90 10/21/91 24/43/92
