# This file uses centimeters as units for non-parametric coordinates.

v -1.044183 -62.867683 -5.360871
v 1.044183 -62.867683 -5.360871
v 2.088366 -65.569374 -1.049267
v 0.965222 -65.484703 2.361115
v -0.965221 -65.484703 2.361115
v -2.088365 -65.569374 -1.049266
v 0.000000 -67.178520 -1.331924
v 1.200368 25.610428 -6.244752
v 2.400736 25.610428 -1.275454
v 1.109596 25.610428 1.751140
v -1.109595 25.610428 1.751140
v -2.400735 25.610428 -1.275453
v -1.200368 25.610428 -6.244750
v 3.393042 26.087265 -1.491220
v 1.696520 26.087265 -8.850670
v 1.931268 26.087265 2.443632
v -1.931267 26.087265 2.443632
v -3.393042 26.087265 -1.491219
v -1.696522 26.087265 -8.850668
v 1.747355 33.436790 1.838450
v -1.747354 33.436790 1.838450
v -3.069925 33.800346 -1.491219
v -1.696522 33.436790 -8.850668
v 1.696520 33.436790 -8.850670
v 3.069925 33.800346 -1.491220
v -2.400735 -61.795555 -0.466640
v -1.109595 -61.658104 1.312396
v 1.109596 -61.658104 1.312395
v 2.400736 -61.795555 -0.466641
v 1.200368 -59.871864 -4.020170
v -1.200368 -59.871864 -4.020169
v -1.200368 -41.267021 -6.971823
v 1.200368 -41.267021 -6.971824
v 2.400736 -41.613976 -3.791943
v 1.109596 -41.833000 -1.784596
v -1.109595 -41.833000 -1.784595
v -2.400735 -41.613976 -3.791942
v -1.200368 16.451973 -6.309289
v 1.200368 16.451973 -6.309291
v 2.400736 16.012367 -1.661381
v 1.109596 15.744621 1.169468
v -1.109595 15.744621 1.169468
v -2.400735 16.012367 -1.661380
v -1.109595 0.515427 2.580016
v 1.109596 0.515427 2.580015
v 2.400736 0.341675 0.568244
v 1.200368 0.066429 -2.618644
v -1.200368 0.066429 -2.618643
v -2.400735 0.341675 0.568245
v 0.730129 34.228294 12.467197
v -0.730128 34.228294 12.467197
v -0.806976 21.380112 12.060595
v 0.806976 21.380112 12.060595
v -0.753182 31.222893 13.048973
v 0.753183 31.222893 13.048973
v 0.789149 24.718102 13.332203
v -0.789148 24.718102 13.332203
v 0.000000 34.638145 16.922249
v 0.000000 31.098755 17.504023
v 0.000000 23.197212 17.787254
v 0.000000 18.642937 15.708361
v -2.321917 34.081169 -1.182398
v 2.321917 34.081169 -1.182399
v 1.283152 33.806190 -6.140951
v -1.283153 33.806190 -6.140951
v 1.321600 33.806190 1.360201
v -1.321600 33.806190 1.360201
v -2.140885 35.593048 -1.276580
v 2.140885 35.593048 -1.276580
v 1.183109 35.339508 -5.848532
v -1.183110 35.339508 -5.848532
v 1.218560 35.339508 1.067781
v -1.218559 35.339508 1.067781
vt 0.249050 0.384937
vt 0.249049 0.384937
vt 0.249049 0.384949
vt 0.249050 0.384949
vt 0.249050 0.384937
vt 0.249050 0.384949
vt 0.249049 0.384937
vt 0.249049 0.384949
vt 0.249050 0.384937
vt 0.249050 0.384949
vt 0.249050 0.384937
vt 0.249050 0.384949
vt 0.249050 0.384949
vt 0.102369 0.299730
vt 0.102369 0.299730
vt 0.102369 0.299730
vt 0.102369 0.299730
vt 0.102369 0.299730
vt 0.102369 0.299730
vt 0.102369 0.299730
vt 0.102369 0.299730
vt 0.102369 0.299730
vt 0.102369 0.299730
vt 0.102369 0.299730
vt 0.102369 0.299730
vt 0.102369 0.299730
vt 0.102369 0.299730
vt 0.102369 0.299730
vt 0.102369 0.299730
vt 0.102369 0.299730
vt 0.102369 0.299730
vt 0.102369 0.299730
vt 0.102369 0.299730
vt 0.102369 0.299730
vt 0.249050 0.384948
vt 0.249050 0.384948
vt 0.249049 0.384948
vt 0.249050 0.384948
vt 0.249049 0.384948
vt 0.249050 0.384948
vt 0.249050 0.384947
vt 0.249049 0.384947
vt 0.249050 0.384947
vt 0.249049 0.384947
vt 0.249050 0.384947
vt 0.249050 0.384947
vt 0.249050 0.384938
vt 0.249049 0.384938
vt 0.249050 0.384938
vt 0.249049 0.384938
vt 0.249050 0.384938
vt 0.249050 0.384938
vt 0.249050 0.384941
vt 0.249049 0.384941
vt 0.249050 0.384941
vt 0.249049 0.384941
vt 0.249050 0.384941
vt 0.249050 0.384941
vt 0.102369 0.299730
vt 0.102369 0.351634
vt 0.102369 0.299730
vt 0.102369 0.351634
vt 0.102369 0.351634
vt 0.102369 0.351634
vt 0.102369 0.351634
vt 0.102369 0.351634
vt 0.102369 0.351634
vt 0.102369 0.351634
vt 0.102369 0.351634
vt 0.102369 0.351635
vt 0.102369 0.351634
vt 0.102369 0.351634
vt 0.102369 0.351634
vt 0.102369 0.351634
vt 0.102369 0.351634
vt 0.102369 0.351634
vt 0.102369 0.299730
vt 0.102369 0.351634
vt 0.102369 0.351634
vt 0.102369 0.351634
vt 0.102369 0.299730
vt 0.102369 0.351634
vt 0.102369 0.299730
vt 0.102369 0.351634
vt 0.102369 0.299730
vt 0.102369 0.351634
vt 0.102369 0.351635
vt 0.102369 0.351634
vt 0.102369 0.299730
vt 0.102369 0.351634
vt 0.102369 0.299730
vt 0.102369 0.351634
vt 0.102369 0.351635
vt 0.102369 0.351635
vt 0.102369 0.351635
vt 0.102369 0.351635
vt 0.102369 0.299730
vt 0.102369 0.299730
vt 0.102369 0.299730
vt 0.102369 0.299730
vt 0.102369 0.299730
vt 0.102369 0.299730
vt 0.249050 0.384937
vt 0.249049 0.384937
vt 0.249049 0.384937
vt 0.249049 0.384937
vt 0.249049 0.384937
vt 0.249049 0.384937
vt 0.249049 0.384937
vt 0.249049 0.384937
vt 0.249049 0.384937
vt 0.249050 0.384937
vt 0.249049 0.384937
vt 0.249049 0.384937
vn -0.000000 0.023376 -0.999727
vn -0.000000 0.023376 -0.999727
vn -0.000000 -0.156690 -0.987648
vn -0.000000 -0.156690 -0.987648
vn 0.935733 0.010473 -0.352554
vn 0.935767 0.003837 -0.352599
vn 0.934153 -0.057012 -0.352289
vn 0.934153 -0.057012 -0.352290
vn 0.837021 -0.015018 0.546965
vn 0.836080 -0.005793 0.548577
vn 0.821880 0.090292 0.562460
vn 0.821880 0.090292 0.562460
vn 0.000000 -0.020384 0.999792
vn 0.000000 -0.020384 0.999792
vn 0.000000 0.154344 0.988017
vn 0.000000 0.154344 0.988017
vn -0.836080 -0.005793 0.548577
vn -0.837020 -0.015018 0.546966
vn -0.821880 0.090292 0.562460
vn -0.821880 0.090292 0.562460
vn -0.935767 0.003837 -0.352599
vn -0.935733 0.010473 -0.352553
vn -0.934153 -0.057012 -0.352289
vn -0.934153 -0.057012 -0.352289
vn 0.000000 -0.682817 -0.730590
vn 0.000000 -0.682817 -0.730590
vn 0.000000 -0.682817 -0.730590
vn 0.560540 -0.633860 -0.532932
vn 0.560539 -0.633860 -0.532932
vn 0.560540 -0.633860 -0.532932
vn 0.578720 -0.787984 0.210154
vn 0.578720 -0.787984 0.210154
vn 0.578720 -0.787984 0.210154
vn 0.000000 -0.908956 0.416892
vn 0.000000 -0.908956 0.416892
vn 0.000000 -0.908956 0.416892
vn -0.578720 -0.787983 0.210158
vn -0.578720 -0.787983 0.210158
vn -0.578720 -0.787983 0.210158
vn -0.560539 -0.633859 -0.532935
vn -0.560539 -0.633859 -0.532935
vn -0.560539 -0.633859 -0.532935
vn 0.978615 0.020993 -0.204629
vn 0.978615 0.020993 -0.204629
vn 0.978615 0.020993 -0.204629
vn 0.978615 0.020993 -0.204629
vn 0.932014 0.045818 0.359515
vn 0.932014 0.045818 0.359515
vn 0.932014 0.045818 0.359515
vn 0.932014 0.045818 0.359515
vn -0.932014 0.045818 0.359515
vn -0.932014 0.045818 0.359515
vn -0.932014 0.045818 0.359515
vn -0.932014 0.045818 0.359515
vn -0.978615 0.020993 -0.204628
vn -0.978615 0.020993 -0.204628
vn -0.978615 0.020993 -0.204628
vn -0.978615 0.020993 -0.204628
vn -0.000001 0.000000 -1.000000
vn -0.000001 0.000000 -1.000000
vn -0.000001 0.000000 -1.000000
vn -0.000001 0.000000 -1.000000
vn 0.403414 -0.910094 -0.094791
vn 0.403414 -0.910094 -0.094791
vn 0.403414 -0.910094 -0.094791
vn 0.403414 -0.910094 -0.094791
vn 0.423887 -0.890068 0.167627
vn 0.423887 -0.890068 0.167627
vn 0.423888 -0.890068 0.167627
vn 0.423887 -0.890068 0.167627
vn 0.000000 -0.823626 0.567133
vn 0.000000 -0.823626 0.567133
vn 0.000000 -0.823626 0.567133
vn 0.000000 -0.823626 0.567133
vn -0.423887 -0.890068 0.167628
vn -0.423887 -0.890068 0.167628
vn -0.423887 -0.890068 0.167628
vn -0.423887 -0.890068 0.167628
vn -0.403414 -0.910094 -0.094790
vn -0.403414 -0.910094 -0.094790
vn -0.403414 -0.910095 -0.094790
vn -0.403414 -0.910095 -0.094790
vn -0.000000 -0.983668 -0.179994
vn -0.000000 -0.983668 -0.179994
vn -0.000000 -0.983668 -0.179994
vn -0.000000 -0.983668 -0.179994
vn -0.905845 -0.028518 0.422648
vn -0.905845 -0.028518 0.422648
vn -0.905845 -0.028518 0.422648
vn -0.905845 -0.028518 0.422649
vn 0.000000 0.264314 0.964437
vn 0.000000 0.264314 0.964437
vn 0.000000 0.264314 0.964437
vn 0.000000 0.264314 0.964437
vn 0.905845 -0.028518 0.422649
vn 0.905845 -0.028518 0.422649
vn 0.905845 -0.028518 0.422649
vn 0.905845 -0.028518 0.422649
vn 0.963067 0.009791 -0.269082
vn 0.963067 0.009791 -0.269082
vn 0.963067 0.009791 -0.269082
vn 0.963067 0.009791 -0.269082
vn -0.000000 0.408484 -0.912766
vn -0.000000 0.408484 -0.912765
vn -0.000000 0.408484 -0.912765
vn -0.000000 0.408484 -0.912765
vn -0.963067 0.009791 -0.269082
vn -0.963067 0.009791 -0.269082
vn -0.963067 0.009791 -0.269082
vn -0.963067 0.009791 -0.269082
vn -0.000000 -0.140546 -0.990074
vn -0.000000 -0.140546 -0.990074
vn -0.000000 0.011478 -0.999934
vn -0.000000 0.011478 -0.999934
vn 0.962825 -0.025332 -0.268934
vn 0.961079 -0.031749 -0.274442
vn 0.942893 0.006361 -0.333034
vn 0.942352 0.008683 -0.334511
vn 0.898062 0.020164 0.439406
vn 0.895458 0.025727 0.444402
vn 0.854827 -0.020504 0.518508
vn 0.853265 -0.024495 0.520902
vn 0.000000 0.033011 0.999455
vn 0.000000 0.033011 0.999455
vn 0.000000 -0.051238 0.998687
vn 0.000000 -0.051238 0.998686
vn -0.895458 0.025727 0.444402
vn -0.898062 0.020164 0.439407
vn -0.853265 -0.024495 0.520902
vn -0.854827 -0.020504 0.518508
vn -0.961079 -0.031749 -0.274442
vn -0.962826 -0.025332 -0.268934
vn -0.942352 0.008683 -0.334510
vn -0.942894 0.006361 -0.333034
vn -0.000001 0.007047 -0.999975
vn -0.000001 0.007047 -0.999975
vn -0.000000 -0.140546 -0.990074
vn -0.000000 -0.140546 -0.990074
vn 0.970273 0.005811 -0.241943
vn 0.970273 0.005811 -0.241943
vn 0.961079 -0.031749 -0.274442
vn 0.962825 -0.025332 -0.268934
vn 0.915181 -0.020012 0.402547
vn 0.915181 -0.020012 0.402547
vn 0.895458 0.025727 0.444402
vn 0.898062 0.020164 0.439406
vn 0.000000 -0.058856 0.998267
vn 0.000000 -0.058856 0.998267
vn 0.000000 0.033011 0.999455
vn 0.000000 0.033011 0.999455
vn -0.915181 -0.020012 0.402547
vn -0.915181 -0.020012 0.402547
vn -0.898062 0.020164 0.439407
vn -0.895458 0.025727 0.444402
vn -0.970273 0.005811 -0.241943
vn -0.970273 0.005811 -0.241943
vn -0.962826 -0.025332 -0.268934
vn -0.961079 -0.031749 -0.274442
vn 0.000000 -0.051238 0.998686
vn 0.000000 -0.051238 0.998687
vn 0.000000 -0.020384 0.999792
vn 0.000000 -0.020384 0.999792
vn 0.853265 -0.024495 0.520902
vn 0.854827 -0.020504 0.518508
vn 0.836080 -0.005793 0.548577
vn 0.837021 -0.015018 0.546965
vn 0.942352 0.008683 -0.334511
vn 0.942893 0.006361 -0.333034
vn 0.935767 0.003837 -0.352599
vn 0.935733 0.010473 -0.352554
vn -0.000000 0.011478 -0.999934
vn -0.000000 0.011478 -0.999934
vn -0.000000 0.023376 -0.999727
vn -0.000000 0.023376 -0.999727
vn -0.942894 0.006361 -0.333034
vn -0.942352 0.008683 -0.334510
vn -0.935733 0.010473 -0.352553
vn -0.935767 0.003837 -0.352599
vn -0.854827 -0.020504 0.518508
vn -0.853265 -0.024495 0.520902
vn -0.837020 -0.015018 0.546966
vn -0.836080 -0.005793 0.548577
vn -0.000000 0.999991 -0.004298
vn -0.000000 0.999991 -0.004298
vn -0.000000 0.998466 -0.055370
vn -0.000000 0.998466 -0.055370
vn 0.000000 0.994203 0.107522
vn 0.000000 0.994203 0.107522
vn -0.000000 0.999991 -0.004298
vn -0.000000 0.999991 -0.004298
vn 0.000000 0.997239 -0.074262
vn 0.000000 0.997239 -0.074262
vn 0.000000 0.997239 -0.074262
vn 0.000000 0.997239 -0.074262
vn -0.995007 0.013255 0.098917
vn -0.995007 0.013255 0.098917
vn -0.995007 0.013255 0.098917
vn -0.995007 0.013255 0.098917
vn -0.995007 0.013255 0.098917
vn -0.995007 0.013255 0.098917
vn 0.000000 -0.898181 -0.439627
vn 0.000000 -0.898181 -0.439627
vn 0.000000 -0.898181 -0.439627
vn 0.000000 -0.898181 -0.439627
vn 0.995007 0.013255 0.098917
vn 0.995007 0.013255 0.098917
vn 0.995007 0.013255 0.098917
vn 0.995007 0.013255 0.098917
vn 0.995007 0.013255 0.098917
vn 0.995007 0.013255 0.098917
vn 0.000000 0.995795 -0.091610
vn 0.000000 0.995795 -0.091610
vn 0.000000 0.995795 -0.091610
vn -0.986072 0.032473 0.163115
vn -0.986072 0.032473 0.163115
vn -0.986073 0.032473 0.163115
vn -0.986073 0.032473 0.163115
vn 0.986073 0.032473 0.163115
vn 0.986072 0.032473 0.163115
vn 0.986073 0.032473 0.163115
vn 0.986072 0.032473 0.163115
vn -0.985005 -0.065528 0.159595
vn -0.985005 -0.065528 0.159595
vn -0.985005 -0.065528 0.159595
vn -0.985005 -0.065528 0.159595
vn 0.000000 -0.799858 -0.600190
vn 0.000000 -0.799858 -0.600190
vn 0.000000 -0.799858 -0.600190
vn 0.985005 -0.065528 0.159595
vn 0.985005 -0.065528 0.159595
vn 0.985005 -0.065528 0.159595
vn 0.985005 -0.065528 0.159595
vn -0.985017 0.009230 0.172210
vn -0.985017 0.009230 0.172210
vn -0.985017 0.009230 0.172210
vn -0.985017 0.009230 0.172210
vn 0.985017 0.009230 0.172210
vn 0.985017 0.009230 0.172210
vn 0.985017 0.009230 0.172210
vn 0.985017 0.009230 0.172210
vn 0.269758 0.957462 -0.102458
vn 0.269758 0.957462 -0.102458
vn 0.269758 0.957462 -0.102458
vn 0.269758 0.957462 -0.102458
vn -0.000000 0.990835 -0.135075
vn -0.000000 0.990835 -0.135075
vn -0.000000 0.990835 -0.135075
vn -0.000000 0.990835 -0.135075
vn -0.269758 0.957462 -0.102458
vn -0.269758 0.957462 -0.102458
vn -0.269758 0.957462 -0.102458
vn -0.269758 0.957462 -0.102458
vn 0.000000 0.791409 0.611286
vn 0.000000 0.791409 0.611286
vn 0.000000 0.791409 0.611286
vn 0.000000 0.791409 0.611286
vn 0.437359 0.858923 0.266401
vn 0.437359 0.858922 0.266401
vn 0.437359 0.858922 0.266401
vn 0.437359 0.858922 0.266401
vn -0.437358 0.858922 0.266403
vn -0.437358 0.858922 0.266403
vn -0.437358 0.858922 0.266403
vn -0.437358 0.858922 0.266403
vn 0.972344 0.103382 -0.209429
vn 0.972343 0.103382 -0.209429
vn 0.972344 0.103382 -0.209429
vn 0.972343 0.103382 -0.209429
vn 0.000000 0.187334 -0.982296
vn 0.000000 0.187334 -0.982296
vn 0.000000 0.187334 -0.982296
vn 0.000000 0.187334 -0.982296
vn -0.972343 0.103382 -0.209429
vn -0.972343 0.103382 -0.209429
vn -0.972344 0.103382 -0.209429
vn -0.972344 0.103382 -0.209429
vn 0.000000 0.187334 0.982296
vn 0.000000 0.187334 0.982296
vn 0.000000 0.187334 0.982296
vn 0.000000 0.187334 0.982296
vn 0.917286 0.133214 0.375288
vn 0.917286 0.133214 0.375288
vn 0.917286 0.133214 0.375288
vn 0.917286 0.133214 0.375288
vn -0.917285 0.133214 0.375289
vn -0.917285 0.133214 0.375289
vn -0.917285 0.133214 0.375289
vn -0.917285 0.133214 0.375289
s off
f 32/41/1 33/42/2 30/39/3 31/40/4
f 33/42/5 34/43/6 29/38/7 30/39/8
f 34/43/9 35/44/10 28/37/11 29/38/12
f 35/44/13 36/45/14 27/36/15 28/37/16
f 36/45/17 37/46/18 26/35/19 27/36/20
f 37/46/21 32/41/22 31/40/23 26/35/24
f 1/4/25 2/3/26 7/13/27
f 2/3/28 3/6/29 7/13/30
f 3/6/31 4/8/32 7/13/33
f 4/8/34 5/10/35 7/13/36
f 5/10/37 6/12/38 7/13/39
f 6/12/40 1/4/41 7/13/42
f 24/33/43 25/34/44 14/21/45 15/22/46
f 25/34/47 20/28/48 16/23/49 14/21/50
f 21/29/51 22/30/52 18/25/53 17/24/54
f 22/30/55 23/31/56 19/26/57 18/25/58
f 23/32/59 24/33/60 15/22/61 19/27/62
f 9/15/63 8/14/64 15/22/65 14/21/66
f 10/16/67 9/15/68 14/21/69 16/23/70
f 11/17/71 10/16/72 16/23/73 17/24/74
f 12/18/75 11/17/76 17/24/77 18/25/78
f 13/19/79 12/18/80 18/25/81 19/26/82
f 8/14/83 13/20/84 19/27/85 15/22/86
f 27/36/87 26/35/88 6/12/89 5/10/90
f 28/37/91 27/36/92 5/10/93 4/8/94
f 29/38/95 28/37/96 4/8/97 3/6/98
f 30/39/99 29/38/100 3/6/101 2/3/102
f 31/40/103 30/39/104 2/3/105 1/4/106
f 26/35/107 31/40/108 1/4/109 6/12/110
f 38/47/111 39/48/112 47/56/113 48/57/114
f 39/48/115 40/49/116 46/55/117 47/56/118
f 40/49/119 41/50/120 45/54/121 46/55/122
f 41/50/123 42/51/124 44/53/125 45/54/126
f 42/51/127 43/52/128 49/58/129 44/53/130
f 43/52/131 38/47/132 48/57/133 49/58/134
f 13/1/135 8/2/136 39/48/137 38/47/138
f 8/2/139 9/5/140 40/49/141 39/48/142
f 9/5/143 10/7/144 41/50/145 40/49/146
f 10/7/147 11/9/148 42/51/149 41/50/150
f 11/9/151 12/11/152 43/52/153 42/51/154
f 12/11/155 13/1/156 38/47/157 43/52/158
f 45/54/159 44/53/160 36/45/161 35/44/162
f 46/55/163 45/54/164 35/44/165 34/43/166
f 47/56/167 46/55/168 34/43/169 33/42/170
f 48/57/171 47/56/172 33/42/173 32/41/174
f 49/58/175 48/57/176 32/41/177 37/46/178
f 44/53/179 49/58/180 37/46/181 36/45/182
f 68/103/183 69/104/184 70/105/185 71/106/186
f 73/107/187 72/108/188 69/104/189 68/103/190
f 20/28/191 21/29/192 51/91/193 50/59/194
f 21/29/195 17/24/196 52/61/197 57/81/198 54/89/199 51/91/200
f 17/24/201 16/23/202 53/77/203 52/61/204
f 16/23/205 20/28/206 50/59/207 55/85/208 56/83/209 53/77/210
f 50/70/211 51/87/212 58/93/213
f 51/60/214 54/90/215 59/71/216 58/67/217
f 55/64/218 50/92/219 58/88/220 59/72/221
f 57/66/222 52/80/223 61/78/224 60/75/225
f 52/94/226 53/95/227 61/96/228
f 53/62/229 56/84/230 60/74/231 61/79/232
f 54/63/233 57/82/234 60/76/235 59/68/236
f 56/65/237 55/86/238 59/73/239 60/69/240
f 25/34/241 24/33/242 64/98/243 63/97/244
f 24/33/245 23/31/246 65/99/247 64/98/248
f 23/31/249 22/30/250 62/100/251 65/99/252
f 21/29/253 20/28/254 66/102/255 67/101/256
f 20/28/257 25/34/258 63/97/259 66/102/260
f 22/30/261 21/29/262 67/101/263 62/100/264
f 63/109/265 64/110/266 70/105/267 69/104/268
f 64/110/269 65/111/270 71/106/271 70/105/272
f 65/111/273 62/112/274 68/103/275 71/106/276
f 67/113/277 66/114/278 72/108/279 73/107/280
f 66/114/281 63/109/282 69/104/283 72/108/284
f 62/112/285 67/113/286 73/107/287 68/103/288
