# This file uses centimeters as units for non-parametric coordinates.

v -16.411543 8.713126 -47.115326
v -16.411263 0.123253 -47.111465
v -16.324188 6.821982 -40.750046
v -16.484020 1.488009 -41.261368
v -16.470102 8.445104 -43.137543
v -16.484936 0.104415 -43.227036
v -10.334145 7.415364 -48.757950
v -10.732615 1.505683 -48.642395
v -12.493608 8.552354 -48.149216
v -12.626141 0.104415 -48.110245
v -9.896494 4.201140 -48.879593
v -16.442926 4.187548 -40.384796
v -18.928951 8.457036 -43.855347
v -20.300621 7.052975 -41.987701
v -20.570732 4.280519 -41.625504
v -20.082985 1.376338 -42.297699
v -18.886578 -0.139500 -43.932617
v -12.761848 8.699132 -45.432877
v -10.587101 7.458114 -44.444290
v -10.251150 4.220923 -44.293854
v -11.058596 1.395355 -44.657791
v -12.904335 -0.138294 -45.492004
v -14.071190 8.909965 -50.668320
v -12.805639 7.477126 -52.473358
v -12.554731 3.964932 -52.840897
v -13.041796 1.136202 -52.157089
v -14.190886 -0.151445 -50.497849
v -17.229576 8.368464 -51.350677
v -17.613119 6.873623 -53.526672
v -17.693089 3.924113 -53.974411
v -17.549774 1.377110 -53.139771
v -17.192448 -0.138453 -51.154739
v -19.868870 8.521319 -49.609085
v -21.933685 6.855864 -51.151840
v -22.118246 4.095566 -51.213959
v -21.418465 1.395998 -50.698639
v -19.771933 -0.138272 -49.533112
v -20.328442 -0.138272 -46.518066
v -22.337379 1.394675 -46.154114
v -23.188229 4.331922 -46.044403
v -22.980957 7.320585 -46.229507
v -20.450569 8.776752 -46.519196
v -14.157232 -0.138373 -43.905396
v -12.989939 1.391524 -42.251984
v -12.442707 4.196632 -41.530396
v -12.599873 7.426058 -41.830475
v -14.056461 8.803525 -43.787323
v -18.887306 6.212087 -48.919815
v -14.802437 6.032178 -49.663467
v -18.592171 6.698030 -46.194839
v -16.058083 6.884859 -45.008835
v -18.239906 11.455962 -45.921082
v -15.704292 11.399222 -44.762024
v -17.521126 11.560493 -48.660721
v -14.597054 11.628554 -49.444580
v -13.463051 11.606864 -46.419617
v -13.813484 6.547925 -46.724808
v -18.616982 9.809024 -49.872269
v -19.659096 9.653514 -45.862350
v -15.887459 9.521110 -44.128143
v -12.553902 9.764739 -46.580811
v -14.269081 9.717113 -50.998917
v -17.589607 13.311067 -42.620132
v -16.725655 15.665915 -43.939743
v -13.858925 15.889673 -44.889084
v -15.233223 11.822341 -42.704269
v -12.936989 12.998829 -43.780075
v -13.656151 12.055563 -36.070343
v -11.653427 14.032959 -35.735703
v -8.954216 13.676013 -37.060959
v -12.301552 10.278827 -37.738953
v -9.633583 10.808067 -38.383911
v -8.421921 4.384678 -31.670776
v -5.880928 5.548977 -31.200729
v -3.643372 5.127403 -33.196945
v -7.935753 3.146036 -34.121368
v -5.356544 3.252826 -35.193909
v -6.081306 -0.280102 -14.769653
v 0.000000 -1.110562 0.000000
v -3.599197 1.071658 -14.557465
v -1.335060 0.358151 -16.437347
v -5.526741 -1.966006 -16.920471
v -2.950134 -1.959611 -18.004608
vt 0.175492 0.328798
vt 0.175492 0.328798
vt 0.175492 0.328798
vt 0.175492 0.328798
vt 0.175492 0.328798
vt 0.175492 0.328798
vt 0.175492 0.328798
vt 0.175492 0.328798
vt 0.175492 0.328798
vt 0.175492 0.328798
vt 0.175492 0.328798
vt 0.175492 0.328798
vt 0.175492 0.328798
vt 0.175491 0.328797
vt 0.175491 0.328798
vt 0.175492 0.328798
vt 0.175492 0.328797
vt 0.175492 0.328798
vt 0.175492 0.328798
vt 0.175492 0.328798
vt 0.175492 0.328798
vt 0.175492 0.328798
vt 0.175492 0.328797
vt 0.175491 0.328797
vt 0.175492 0.328798
vt 0.175492 0.328798
vt 0.175492 0.328798
vt 0.175492 0.328797
vt 0.175492 0.328798
vt 0.175492 0.328798
vt 0.175492 0.328798
vt 0.175492 0.328798
vt 0.175492 0.328797
vt 0.175492 0.328798
vt 0.175492 0.328798
vt 0.175492 0.328798
vt 0.175492 0.328797
vt 0.175492 0.328798
vt 0.175492 0.328798
vt 0.175492 0.328798
vt 0.175491 0.328798
vt 0.175492 0.328797
vt 0.175491 0.328798
vt 0.175492 0.328798
vt 0.175491 0.328798
vt 0.175492 0.328797
vt 0.175492 0.328798
vt 0.175492 0.328798
vt 0.175492 0.328798
vt 0.175492 0.328798
vt 0.175492 0.328797
vt 0.175492 0.328798
vt 0.175491 0.328798
vt 0.175491 0.328797
vt 0.175491 0.328798
vt 0.175491 0.328798
vt 0.175492 0.328798
vt 0.175492 0.328798
vt 0.175491 0.328797
vt 0.175491 0.328798
vt 0.175492 0.328798
vt 0.175492 0.328797
vt 0.175492 0.328798
vt 0.175492 0.328798
vt 0.175492 0.328798
vt 0.175492 0.328797
vt 0.175492 0.328798
vt 0.175492 0.328798
vt 0.175492 0.328798
vt 0.175492 0.328798
vt 0.175492 0.328798
vt 0.175492 0.328798
vt 0.175492 0.328798
vt 0.175492 0.328798
vt 0.175492 0.328798
vt 0.175492 0.328798
vt 0.175492 0.328798
vt 0.175492 0.328798
vt 0.175492 0.328798
vt 0.175492 0.328798
vt 0.175492 0.328798
vt 0.175492 0.328798
vt 0.175492 0.328798
vt 0.175492 0.328798
vt 0.175492 0.328798
vt 0.175492 0.328798
vt 0.175492 0.328798
vt 0.175492 0.328798
vt 0.175492 0.328798
vt 0.175492 0.328798
vt 0.175492 0.328798
vt 0.175492 0.328798
vt 0.175492 0.328798
vt 0.175492 0.328798
vt 0.175492 0.328798
vt 0.175492 0.328798
vt 0.175492 0.328798
vt 0.175492 0.328798
vt 0.175492 0.328798
vt 0.175492 0.328798
vt 0.175492 0.328798
vt 0.175492 0.328798
vt 0.175492 0.328798
vt 0.175492 0.328798
vt 0.175492 0.328798
vt 0.175492 0.328798
vt 0.175492 0.328798
vt 0.175492 0.328798
vt 0.175492 0.328798
vt 0.175492 0.328798
vt 0.175492 0.328798
vt 0.175492 0.328798
vt 0.175492 0.328798
vt 0.175492 0.328798
vt 0.175492 0.328798
vt 0.175492 0.328798
vt 0.175492 0.328798
vt 0.175492 0.328798
vt 0.175492 0.328798
vt 0.175492 0.328798
vt 0.175492 0.328798
vt 0.175492 0.328798
vt 0.175492 0.328798
vt 0.175492 0.328798
vt 0.175492 0.328798
vt 0.175492 0.328798
vt 0.175492 0.328798
vt 0.175492 0.328798
vt 0.175492 0.328798
vt 0.175492 0.328798
vt 0.145371 0.304581
vt 0.145370 0.304581
vt 0.145370 0.304581
vt 0.145370 0.304581
vt 0.145370 0.304581
vt 0.145370 0.304581
vt 0.145370 0.304581
vt 0.145370 0.304581
vt 0.145370 0.304581
vt 0.145370 0.304581
vt 0.145370 0.304581
vt 0.145370 0.304581
vt 0.145370 0.304581
vt 0.145370 0.304581
vt 0.145370 0.304581
vt 0.145370 0.304581
vt 0.145370 0.304581
vt 0.145370 0.304581
vt 0.145370 0.304581
vt 0.145370 0.304581
vt 0.145370 0.304581
vt 0.145370 0.304581
vt 0.145370 0.304581
vt 0.145370 0.304581
vt 0.145370 0.304581
vt 0.145370 0.304581
vt 0.145370 0.304581
vt 0.145370 0.304581
vt 0.145370 0.304581
vt 0.145370 0.304581
vt 0.145370 0.304581
vt 0.145370 0.304581
vt 0.145370 0.304581
vt 0.145370 0.304581
vt 0.145370 0.304581
vt 0.145370 0.304581
vt 0.175491 0.328798
vt 0.175492 0.328798
vt 0.175491 0.328798
vt 0.175492 0.328798
vt 0.175491 0.328798
vt 0.175491 0.328798
vt 0.175492 0.328798
vt 0.175492 0.328798
vt 0.175492 0.328798
vt 0.175491 0.328798
vt 0.175492 0.328798
vt 0.175491 0.328798
vt 0.175492 0.328798
vt 0.175492 0.328798
vt 0.175492 0.328798
vt 0.175492 0.328798
vt 0.175492 0.328798
vt 0.175492 0.328797
vt 0.175492 0.328798
vt 0.175492 0.328798
vt 0.175492 0.328798
vt 0.175492 0.328797
vt 0.175492 0.328798
vt 0.175492 0.328797
vt 0.175492 0.328798
vt 0.175491 0.328798
vt 0.175492 0.328797
vt 0.175492 0.328798
vt 0.175492 0.328798
vt 0.175492 0.328798
vt 0.175492 0.328798
vt 0.175492 0.328797
vt 0.175492 0.328798
vt 0.175492 0.328798
vt 0.175492 0.328797
vt 0.175492 0.328798
vt 0.175492 0.328798
vt 0.175491 0.328798
vt 0.175492 0.328798
vt 0.175491 0.328797
vt 0.175492 0.328798
vt 0.175491 0.328798
vt 0.175492 0.328798
vt 0.175491 0.328797
vt 0.175492 0.328798
vt 0.175491 0.328798
vt 0.175491 0.328797
vt 0.175492 0.328798
vt 0.175491 0.328798
vt 0.175491 0.328797
vt 0.175492 0.328798
vt 0.175492 0.328797
vt 0.175492 0.328798
vt 0.175492 0.328798
vt 0.175492 0.328797
vt 0.175492 0.328798
vt 0.175492 0.328798
vt 0.175491 0.328798
vt 0.175491 0.328798
vt 0.175492 0.328798
vt 0.175492 0.328798
vt 0.175492 0.328798
vt 0.175492 0.328798
vt 0.175492 0.328798
vt 0.175492 0.328797
vt 0.175492 0.328798
vt 0.175492 0.328798
vt 0.175492 0.328797
vn 0.061343 -0.997514 -0.034684
vn 0.061343 -0.997514 -0.034684
vn 0.061343 -0.997514 -0.034684
vn -0.943729 -0.273039 -0.186616
vn -0.943729 -0.273039 -0.186616
vn -0.943729 -0.273039 -0.186616
vn -0.943729 -0.273039 -0.186616
vn -0.518531 0.835780 -0.180544
vn -0.518532 0.835780 -0.180544
vn -0.518531 0.835781 -0.180544
vn -0.518531 0.835780 -0.180544
vn -0.622229 -0.773337 -0.121578
vn -0.622229 -0.773337 -0.121578
vn -0.622229 -0.773337 -0.121578
vn -0.622229 -0.773337 -0.121578
vn 0.258770 -0.294724 0.919878
vn 0.258770 -0.294724 0.919878
vn 0.258770 -0.294724 0.919878
vn 0.258770 -0.294724 0.919878
vn -0.105707 -0.994374 -0.006827
vn -0.105707 -0.994374 -0.006827
vn -0.105707 -0.994374 -0.006827
vn 0.028391 0.827350 0.560969
vn 0.028391 0.827350 0.560969
vn 0.028391 0.827350 0.560969
vn 0.028391 0.827350 0.560968
vn 0.125082 -0.792168 0.597348
vn 0.125082 -0.792168 0.597348
vn 0.125082 -0.792168 0.597348
vn 0.125082 -0.792168 0.597348
vn -0.271045 -0.276433 0.922019
vn -0.271045 -0.276433 0.922019
vn -0.271045 -0.276433 0.922019
vn -0.271045 -0.276433 0.922019
vn 0.101883 -0.994792 -0.002892
vn 0.101883 -0.994792 -0.002892
vn 0.101883 -0.994792 -0.002892
vn -0.135409 0.825342 0.548156
vn -0.135409 0.825342 0.548156
vn -0.135409 0.825342 0.548156
vn -0.135409 0.825342 0.548156
vn -0.126165 -0.792685 0.596433
vn -0.126165 -0.792685 0.596433
vn -0.126165 -0.792685 0.596433
vn -0.126165 -0.792685 0.596433
vn 0.809902 -0.279931 -0.515459
vn 0.809902 -0.279931 -0.515459
vn 0.809902 -0.279931 -0.515459
vn 0.809902 -0.279931 -0.515459
vn 0.019773 -0.995403 0.093711
vn 0.019773 -0.995403 0.093711
vn 0.019773 -0.995403 0.093711
vn 0.465421 0.850486 -0.245064
vn 0.465421 0.850486 -0.245064
vn 0.465421 0.850486 -0.245064
vn 0.465421 0.850486 -0.245064
vn 0.527267 -0.808823 -0.260374
vn 0.527267 -0.808823 -0.260374
vn 0.527267 -0.808823 -0.260374
vn 0.527267 -0.808823 -0.260374
vn 0.955427 -0.286096 0.072855
vn 0.955427 -0.286096 0.072855
vn 0.955427 -0.286096 0.072855
vn 0.955427 -0.286096 0.072855
vn 0.024244 0.998725 -0.044285
vn 0.024244 0.998725 -0.044285
vn 0.024244 0.998725 -0.044285
vn -0.030134 -0.994979 -0.095436
vn -0.030134 -0.994979 -0.095436
vn -0.030134 -0.994979 -0.095436
vn 0.480177 0.877090 0.011954
vn 0.480177 0.877090 0.011954
vn 0.480177 0.877090 0.011954
vn 0.480177 0.877090 0.011954
vn 0.616641 -0.787114 0.014339
vn 0.616641 -0.787114 0.014339
vn 0.616641 -0.787114 0.014339
vn 0.616641 -0.787114 0.014339
vn -0.513210 -0.290289 -0.807681
vn -0.513210 -0.290289 -0.807681
vn -0.513210 -0.290289 -0.807681
vn -0.513210 -0.290289 -0.807681
vn 0.003727 0.996640 -0.081824
vn 0.003727 0.996640 -0.081824
vn 0.003727 0.996640 -0.081824
vn -0.019262 -0.997480 0.068285
vn -0.019262 -0.997480 0.068285
vn -0.019262 -0.997480 0.068285
vn -0.283366 0.814757 -0.505840
vn -0.283366 0.814757 -0.505840
vn -0.283366 0.814757 -0.505840
vn -0.283366 0.814757 -0.505840
vn -0.338862 -0.774477 -0.534188
vn -0.338862 -0.774477 -0.534188
vn -0.338862 -0.774477 -0.534188
vn -0.338862 -0.774477 -0.534188
vn 0.200317 -0.278160 -0.939415
vn 0.200317 -0.278160 -0.939415
vn 0.200317 -0.278160 -0.939415
vn 0.200317 -0.278160 -0.939415
vn 0.066881 0.992832 0.099058
vn 0.066881 0.992832 0.099058
vn 0.066881 0.992832 0.099058
vn 0.012700 0.806884 -0.590574
vn 0.012700 0.806884 -0.590574
vn 0.012700 0.806884 -0.590574
vn 0.012700 0.806884 -0.590574
vn 0.102330 -0.799092 -0.592437
vn 0.102330 -0.799092 -0.592437
vn 0.102330 -0.799092 -0.592437
vn 0.102330 -0.799092 -0.592437
vn 0.823670 0.124549 -0.553223
vn 0.823670 0.124549 -0.553223
vn 0.823670 0.124549 -0.553223
vn 0.823670 0.124549 -0.553223
vn 0.990634 0.119087 0.066799
vn 0.990634 0.119087 0.066799
vn 0.990634 0.119087 0.066799
vn 0.990634 0.119087 0.066799
vn 0.267117 0.110371 0.957323
vn 0.267117 0.110371 0.957323
vn 0.267117 0.110371 0.957323
vn 0.267117 0.110371 0.957323
vn -0.283816 0.147876 0.947408
vn -0.283816 0.147876 0.947408
vn -0.283816 0.147876 0.947408
vn -0.283816 0.147876 0.947407
vn -0.975933 0.062045 -0.209059
vn -0.975933 0.062045 -0.209059
vn -0.975933 0.062045 -0.209059
vn -0.975933 0.062045 -0.209059
vn -0.502499 0.099965 -0.858779
vn -0.502499 0.099965 -0.858779
vn -0.502499 0.099965 -0.858779
vn -0.502499 0.099965 -0.858779
vn 0.205074 0.127856 -0.970360
vn 0.205074 0.127856 -0.970360
vn 0.205074 0.127856 -0.970360
vn 0.205074 0.127856 -0.970360
vn -0.844972 0.119538 0.521280
vn -0.844972 0.119538 0.521280
vn -0.844972 0.119538 0.521280
vn -0.844972 0.119538 0.521280
vn -0.833861 -0.256507 0.488754
vn -0.833861 -0.256507 0.488754
vn -0.833861 -0.256507 0.488754
vn -0.833861 -0.256507 0.488754
vn -0.546027 -0.777927 0.310941
vn -0.546027 -0.777927 0.310941
vn -0.546027 -0.777927 0.310941
vn -0.546027 -0.777927 0.310941
vn 0.783121 0.102450 0.613372
vn 0.783121 0.102450 0.613372
vn 0.783121 0.102450 0.613372
vn 0.783121 0.102450 0.613372
vn 0.747873 -0.294616 0.594885
vn 0.747873 -0.294616 0.594885
vn 0.747873 -0.294616 0.594885
vn 0.747873 -0.294616 0.594885
vn 0.482805 -0.786900 0.384301
vn 0.482805 -0.786900 0.384301
vn 0.482806 -0.786900 0.384301
vn 0.482805 -0.786900 0.384301
vn 0.030690 0.994330 0.101809
vn 0.030690 0.994330 0.101809
vn 0.030690 0.994331 0.101809
vn -0.014719 0.997644 0.067005
vn -0.014719 0.997644 0.067005
vn -0.014719 0.997644 0.067005
vn 0.027446 0.998310 -0.051234
vn 0.027446 0.998309 -0.051234
vn 0.027446 0.998310 -0.051234
vn -0.158341 0.986135 -0.049666
vn -0.158341 0.986135 -0.049666
vn -0.158341 0.986135 -0.049666
vn 0.036138 -0.997686 0.057594
vn 0.036138 -0.997686 0.057594
vn 0.036138 -0.997686 0.057594
vn -0.054502 -0.997584 -0.043089
vn -0.054502 -0.997584 -0.043089
vn -0.054502 -0.997584 -0.043089
vn -0.430543 0.838770 0.333314
vn -0.430543 0.838770 0.333314
vn -0.430543 0.838770 0.333314
vn -0.430543 0.838770 0.333314
vn 0.393296 0.872286 0.290578
vn 0.393296 0.872286 0.290578
vn 0.393296 0.872286 0.290578
vn 0.393296 0.872286 0.290578
vn 0.068517 -0.997570 0.012647
vn 0.068517 -0.997570 0.012647
vn 0.068517 -0.997570 0.012647
vn -0.129498 0.989462 0.064764
vn -0.129498 0.989462 0.064764
vn -0.129498 0.989462 0.064764
vn 0.003641 0.996650 -0.081704
vn 0.003641 0.996650 -0.081704
vn 0.003641 0.996650 -0.081704
vn -0.385404 0.329951 0.861740
vn -0.385404 0.329951 0.861740
vn -0.385404 0.329951 0.861740
vn -0.385404 0.329951 0.861740
vn -0.479773 0.842517 0.244916
vn -0.479773 0.842517 0.244916
vn -0.479773 0.842517 0.244916
vn -0.198119 0.616773 -0.761801
vn -0.198119 0.616773 -0.761801
vn -0.198119 0.616773 -0.761801
vn -0.198119 0.616773 -0.761800
vn 0.844173 0.426598 -0.324633
vn 0.844173 0.426598 -0.324633
vn 0.844173 0.426598 -0.324633
vn 0.844173 0.426598 -0.324633
vn -0.774846 0.606340 -0.178789
vn -0.774846 0.606340 -0.178789
vn -0.774846 0.606340 -0.178789
vn -0.774846 0.606340 -0.178789
vn 0.568776 0.211967 0.794710
vn 0.568776 0.211967 0.794710
vn 0.568776 0.211967 0.794710
vn 0.568776 0.211967 0.794710
vn 0.342109 0.937989 0.056025
vn 0.342109 0.937989 0.056025
vn 0.342109 0.937989 0.056025
vn -0.986195 -0.129642 -0.103020
vn -0.986195 -0.129642 -0.103020
vn -0.986195 -0.129642 -0.103020
vn -0.986195 -0.129642 -0.103020
vn -0.404482 -0.255362 0.878171
vn -0.404482 -0.255362 0.878171
vn -0.404482 -0.255362 0.878171
vn -0.404482 -0.255362 0.878171
vn 0.572566 -0.275116 0.772321
vn 0.572566 -0.275116 0.772321
vn 0.572566 -0.275116 0.772321
vn 0.572566 -0.275116 0.772321
vn 0.905537 -0.288882 -0.310727
vn 0.905536 -0.288882 -0.310727
vn 0.905537 -0.288882 -0.310727
vn 0.905536 -0.288882 -0.310727
vn -0.216750 -0.270766 -0.937926
vn -0.216750 -0.270766 -0.937926
vn -0.216750 -0.270766 -0.937926
vn -0.216750 -0.270766 -0.937926
vn 0.020859 -0.998828 0.043684
vn 0.020859 -0.998828 0.043684
vn 0.020859 -0.998828 0.043684
vn 0.849801 -0.514410 -0.114985
vn 0.849801 -0.514410 -0.114985
vn 0.849801 -0.514410 -0.114985
vn -0.751660 -0.599115 0.275804
vn -0.751660 -0.599115 0.275804
vn -0.751660 -0.599115 0.275804
vn -0.914183 0.386395 -0.122342
vn -0.914183 0.386395 -0.122342
vn -0.914183 0.386395 -0.122342
vn -0.914183 0.386395 -0.122342
vn -0.226371 0.741630 -0.631459
vn -0.226371 0.741630 -0.631459
vn -0.226371 0.741630 -0.631459
vn -0.226371 0.741630 -0.631459
vn 0.416825 -0.874134 0.249292
vn 0.416825 -0.874134 0.249292
vn 0.416825 -0.874134 0.249292
vn 0.416825 -0.874134 0.249292
vn 0.926167 0.199888 -0.319781
vn 0.926167 0.199888 -0.319781
vn 0.926167 0.199888 -0.319781
vn 0.926167 0.199888 -0.319781
vn -0.356410 -0.830670 0.427737
vn -0.356410 -0.830670 0.427737
vn -0.356410 -0.830670 0.427737
vn -0.356410 -0.830670 0.427737
vn -0.659154 0.552223 0.510457
vn -0.659154 0.552223 0.510457
vn -0.659154 0.552223 0.510457
vn -0.659154 0.552223 0.510457
vn 0.095284 0.979806 0.175790
vn 0.095284 0.979806 0.175790
vn 0.095284 0.979806 0.175790
vn 0.095284 0.979806 0.175790
vn 0.161644 -0.893370 -0.419240
vn 0.161644 -0.893369 -0.419240
vn 0.161644 -0.893369 -0.419240
vn 0.161644 -0.893369 -0.419240
vn 0.856475 0.055143 -0.513235
vn 0.856475 0.055143 -0.513235
vn 0.856475 0.055143 -0.513235
vn 0.856475 0.055143 -0.513235
vn -0.604129 -0.778328 0.170981
vn -0.604129 -0.778328 0.170981
vn -0.604129 -0.778328 0.170981
vn -0.604129 -0.778328 0.170981
vn -0.342786 0.264912 0.901287
vn -0.342786 0.264912 0.901287
vn -0.342786 0.264912 0.901287
vn -0.342786 0.264912 0.901288
vn 0.502026 0.622654 0.600227
vn 0.502026 0.622654 0.600227
vn 0.502026 0.622654 0.600227
vn 0.502026 0.622654 0.600227
vn -0.210972 -0.510496 -0.833597
vn -0.210972 -0.510496 -0.833597
vn -0.210972 -0.510496 -0.833597
vn -0.210972 -0.510496 -0.833597
vn 0.713631 0.122779 -0.689678
vn 0.713631 0.122779 -0.689678
vn 0.713631 0.122779 -0.689678
vn 0.713631 0.122779 -0.689678
vn -0.843034 -0.537597 0.016806
vn -0.843034 -0.537597 0.016806
vn -0.843034 -0.537597 0.016806
vn -0.843034 -0.537597 0.016806
vn -0.459749 0.838694 0.291928
vn -0.459749 0.838694 0.291928
vn -0.459749 0.838695 0.291928
vn -0.459749 0.838694 0.291928
vn 0.393992 0.898293 0.194525
vn 0.393992 0.898293 0.194525
vn 0.393992 0.898293 0.194525
vn 0.393992 0.898293 0.194525
vn -0.093693 -0.957093 -0.274215
vn -0.093693 -0.957093 -0.274215
vn -0.093693 -0.957093 -0.274215
vn -0.093693 -0.957093 -0.274215
vn 0.850938 -0.460075 -0.253447
vn 0.850938 -0.460075 -0.253447
vn 0.850938 -0.460075 -0.253447
vn 0.850938 -0.460075 -0.253447
vn -0.929408 -0.368283 0.023861
vn -0.929408 -0.368283 0.023861
vn -0.929408 -0.368283 0.023861
vn -0.929408 -0.368283 0.023861
s off
f 17/113/1 38/20/2 2/40/3
f 39/216/4 40/15/5 35/16/6 36/221/7
f 33/22/8 34/218/9 41/213/10 42/25/11
f 38/180/12 39/14/13 36/17/14 37/222/15
f 4/226/16 44/188/17 45/29/18 12/77/19
f 6/223/20 2/178/21 43/35/22
f 3/229/23 46/184/24 47/34/25 5/76/26
f 6/32/27 43/181/28 44/28/29 4/78/30
f 15/233/31 16/37/32 4/120/33 12/119/34
f 2/177/35 6/39/36 17/43/37
f 13/225/38 14/42/39 3/122/40 5/123/41
f 16/231/42 17/224/43 6/118/44 4/117/45
f 11/89/46 8/90/47 26/97/48 25/95/49
f 27/115/50 10/44/51 2/64/52
f 9/87/53 7/86/54 24/93/55 23/94/56
f 8/91/57 10/92/58 27/98/59 26/99/60
f 20/45/61 21/193/62 8/10/63 11/11/64
f 47/31/65 18/47/66 1/30/67
f 2/179/68 10/48/69 22/52/70
f 18/50/71 19/190/72 7/8/73 9/7/74
f 21/46/75 22/194/76 10/12/77 8/13/78
f 30/53/79 31/210/80 36/108/81 35/106/82
f 1/55/83 28/204/84 33/18/85
f 2/57/86 32/58/87 27/67/88
f 28/56/89 29/206/90 34/104/91 33/105/92
f 31/54/93 32/212/94 37/109/95 36/110/96
f 25/61/97 26/201/98 31/209/99 30/102/100
f 9/112/101 23/63/102 1/168/103
f 23/65/104 24/198/105 29/205/106 28/101/107
f 26/62/108 27/202/109 32/211/110 31/103/111
f 7/88/112 11/196/113 25/199/114 24/96/115
f 19/51/116 20/192/117 11/195/118 7/9/119
f 12/228/120 45/186/121 46/33/122 3/75/123
f 14/234/124 15/36/125 12/227/126 3/121/127
f 40/215/128 41/24/129 34/23/130 35/220/131
f 29/59/132 30/208/133 35/219/134 34/107/135
f 24/66/136 25/200/137 30/207/138 29/100/139
f 41/128/140 40/126/141 15/232/142 14/71/143
f 40/214/144 39/127/145 16/72/146 15/70/147
f 39/124/148 38/125/149 17/73/150 16/74/151
f 45/4/152 20/191/153 19/82/154 46/183/155
f 44/6/156 21/83/157 20/81/158 45/185/159
f 43/5/160 22/84/161 21/85/162 44/187/163
f 1/19/164 42/111/165 13/38/166
f 1/171/167 13/41/168 5/1/169
f 1/169/170 18/189/171 9/2/172
f 1/167/173 23/197/174 28/203/175
f 37/114/176 32/60/177 2/21/178
f 2/49/179 22/116/180 43/182/181
f 42/129/182 41/130/183 14/68/184 13/69/185
f 47/174/186 46/3/187 19/79/188 18/80/189
f 2/176/190 38/26/191 37/27/192
f 5/230/193 47/175/194 1/170/195
f 1/172/196 33/217/197 42/173/198
f 59/131/199 60/132/200 53/133/201 52/134/202
f 78/135/203 79/136/204 80/137/205
f 54/138/206 55/139/207 62/140/208 58/141/209
f 61/142/210 62/140/211 55/139/212 56/143/213
f 54/138/214 58/141/215 59/131/216 52/134/217
f 60/132/218 61/142/219 56/143/220 53/133/221
f 80/137/222 79/136/223 81/144/224
f 59/131/225 58/141/226 48/145/227 50/146/228
f 50/146/229 51/147/230 60/132/231 59/131/232
f 57/148/233 61/142/234 60/132/235 51/147/236
f 49/149/237 62/140/238 61/142/239 57/148/240
f 58/141/241 62/140/242 49/149/243 48/145/244
f 79/136/245 82/150/246 83/151/247
f 81/144/248 79/136/249 83/151/250
f 78/135/251 82/150/252 79/136/253
f 54/138/254 52/134/255 63/152/256 64/153/257
f 55/139/258 54/138/259 64/153/260 65/154/261
f 53/133/262 56/143/263 67/155/264 66/156/265
f 56/143/266 55/139/267 65/154/268 67/155/269
f 52/134/270 53/133/271 66/156/272 63/152/273
f 64/153/274 63/152/275 68/157/276 69/158/277
f 65/154/278 64/153/279 69/158/280 70/159/281
f 67/155/282 72/160/283 71/161/284 66/156/285
f 65/154/286 70/159/287 72/160/288 67/155/289
f 66/156/290 71/161/291 68/157/292 63/152/293
f 69/158/294 68/157/295 73/162/296 74/163/297
f 70/159/298 69/158/299 74/163/300 75/164/301
f 72/160/302 77/165/303 76/166/304 71/161/305
f 70/159/306 75/164/307 77/165/308 72/160/309
f 71/161/310 76/166/311 73/162/312 68/157/313
f 74/163/314 73/162/315 78/135/316 80/137/317
f 75/164/318 74/163/319 80/137/320 81/144/321
f 76/166/322 77/165/323 83/151/324 82/150/325
f 77/165/326 75/164/327 81/144/328 83/151/329
f 73/162/330 76/166/331 82/150/332 78/135/333
