# This file uses centimeters as units for non-parametric coordinates.

v 7.179495 -33.089451 -7.179489
v 0.000000 -33.089451 -10.153351
v -7.179495 -33.089451 -7.179489
v -10.153339 -33.089451 0.000000
v -7.179495 -33.089451 7.179489
v 0.000000 -33.089451 10.153351
v 7.179495 -33.089451 7.179489
v 10.153339 -33.089451 0.000000
v 7.179495 125.653267 -7.179489
v 0.000000 123.344246 -10.153351
v -7.179495 124.922188 -7.179489
v -10.153339 128.140579 0.000000
v -7.179495 128.140961 7.179489
v 0.000000 126.822067 10.153351
v 7.179495 126.822067 7.179489
v 10.153339 125.597969 -0.718307
v 0.000000 -33.089451 0.000000
v 0.000000 9.715105 10.153351
v -7.179495 3.314715 7.179489
v -10.153339 3.314715 0.000000
v -7.179495 13.400620 -7.179489
v 0.000000 3.314715 -10.153351
v 7.179495 13.400620 -7.179489
v 10.153339 3.314715 0.000000
v 7.179495 13.400620 7.179489
v -4.683428 126.272430 8.213501
v 8.937554 126.163803 2.935181
v 4.427741 127.890930 -4.951477
v 0.000000 127.774513 -8.400726
v 0.000000 128.204437 0.000000
v -5.061409 127.898750 -6.530228
v -8.185067 129.249847 0.784836
v -6.019166 129.346298 5.125504
v -3.875010 128.449402 6.795731
v 0.988090 128.664017 8.002472
v 5.520918 128.590912 6.285019
v 7.394821 128.391266 2.428589
v 8.361550 128.467896 -1.284637
v -0.787746 63.622120 10.153275
v -7.179495 69.541359 7.179489
v -10.153339 34.802227 0.862885
v -7.179495 66.763260 -7.179489
v 1.572956 83.013924 -10.153351
v 7.179495 65.921776 -7.179489
v 10.153339 44.648846 -1.153641
v 7.179495 68.699883 7.179489
vt 0.036604 0.231461
vt 0.036604 0.231461
vt 0.036604 0.231460
vt 0.036604 0.231461
vt 0.036604 0.231461
vt 0.036604 0.231461
vt 0.036604 0.231461
vt 0.036604 0.231460
vt 0.036604 0.231461
vt 0.036604 0.231460
vt 0.036604 0.231461
vt 0.036604 0.231461
vt 0.036604 0.231461
vt 0.036604 0.231461
vt 0.036604 0.231461
vt 0.036604 0.231460
vt 0.036604 0.231461
vt 0.037860 0.278880
vt 0.037860 0.278880
vt 0.037860 0.278880
vt 0.037860 0.278880
vt 0.037860 0.278880
vt 0.037860 0.278880
vt 0.037860 0.278880
vt 0.037860 0.278880
vt 0.037860 0.278880
vt 0.037860 0.278880
vt 0.037860 0.278880
vt 0.037928 0.255943
vt 0.037928 0.255943
vt 0.037928 0.255943
vt 0.037928 0.255943
vt 0.037928 0.255943
vt 0.037928 0.255943
vt 0.037928 0.255943
vt 0.037928 0.255943
vt 0.037928 0.255943
vt 0.037928 0.255943
vt 0.037928 0.255943
vt 0.037928 0.255943
vt 0.037928 0.255943
vt 0.037928 0.255943
vt 0.037928 0.255943
vt 0.037928 0.255943
vt 0.037928 0.255943
vt 0.037928 0.255943
vt 0.037860 0.278880
vt 0.037860 0.278880
vt 0.037860 0.278880
vt 0.037860 0.278880
vt 0.037860 0.278880
vt 0.037860 0.278880
vt 0.037860 0.278880
vt 0.037860 0.278880
vt 0.037860 0.278880
vt 0.037860 0.278880
vt 0.037928 0.255943
vt 0.037928 0.255943
vt 0.037928 0.255943
vt 0.037928 0.255943
vt 0.037928 0.255943
vt 0.037928 0.255943
vt 0.037928 0.255943
vt 0.037928 0.255943
vt 0.037928 0.255943
vt 0.037928 0.255943
vt 0.037928 0.255943
vn 0.382685 0.000000 -0.923879
vn 0.382685 0.000000 -0.923879
vn 0.382685 0.000000 -0.923879
vn 0.382685 0.000000 -0.923879
vn -0.382685 0.000000 -0.923879
vn -0.382685 0.000000 -0.923879
vn -0.382685 0.000000 -0.923879
vn -0.382685 0.000000 -0.923879
vn -0.923879 0.000000 -0.382684
vn -0.923879 0.000000 -0.382684
vn -0.923879 0.000000 -0.382684
vn -0.923879 0.000000 -0.382684
vn -0.923879 0.000000 0.382684
vn -0.923879 0.000000 0.382684
vn -0.923879 0.000000 0.382684
vn -0.923879 0.000000 0.382684
vn -0.382685 0.000000 0.923879
vn -0.382685 0.000000 0.923879
vn -0.382685 0.000000 0.923879
vn -0.382685 0.000000 0.923879
vn 0.382685 0.000000 0.923879
vn 0.382685 0.000000 0.923879
vn 0.382685 0.000000 0.923879
vn 0.382685 0.000000 0.923879
vn 0.923879 0.000000 0.382684
vn 0.923879 0.000000 0.382684
vn 0.923879 0.000000 0.382684
vn 0.923879 0.000000 0.382684
vn 0.923879 0.000000 -0.382684
vn 0.923879 0.000000 -0.382684
vn 0.923879 0.000000 -0.382684
vn 0.923879 0.000000 -0.382684
vn 0.000000 -1.000000 0.000000
vn 0.000000 -1.000000 0.000000
vn 0.000000 -1.000000 0.000000
vn 0.000000 -1.000000 0.000000
vn 0.000000 -1.000000 0.000000
vn 0.000000 -1.000000 0.000000
vn 0.000000 -1.000000 0.000000
vn 0.000000 -1.000000 0.000000
vn 0.000000 -1.000000 0.000000
vn 0.000000 -1.000000 -0.000000
vn 0.000000 -1.000000 -0.000000
vn 0.000000 -1.000000 -0.000000
vn 0.000000 -1.000000 0.000000
vn 0.000000 -1.000000 0.000000
vn 0.000000 -1.000000 0.000000
vn 0.000000 -1.000000 0.000000
vn 0.000000 -1.000000 0.000000
vn 0.000000 -1.000000 0.000000
vn 0.000000 -1.000000 0.000000
vn 0.000000 -1.000000 0.000000
vn 0.000000 -1.000000 0.000000
vn 0.000000 -1.000000 0.000000
vn 0.000000 -1.000000 0.000000
vn 0.000000 -1.000000 0.000000
vn 0.013556 0.998601 -0.051105
vn 0.013556 0.998601 -0.051105
vn 0.013556 0.998601 -0.051105
vn 0.005625 0.998677 -0.051107
vn 0.005625 0.998677 -0.051107
vn 0.005625 0.998677 -0.051107
vn 0.112939 0.984576 -0.133625
vn 0.112939 0.984576 -0.133625
vn 0.112939 0.984576 -0.133625
vn 0.118612 0.989617 -0.081174
vn 0.118612 0.989617 -0.081174
vn 0.118612 0.989617 -0.081174
vn 0.292690 0.946947 0.132753
vn 0.292690 0.946947 0.132753
vn 0.292690 0.946947 0.132753
vn -0.005371 0.998378 -0.056674
vn -0.005371 0.998378 -0.056674
vn -0.005371 0.998378 -0.056674
vn -0.029503 0.999481 0.012943
vn -0.029503 0.999481 0.012943
vn -0.029503 0.999481 0.012943
vn -0.047483 0.993300 -0.105357
vn -0.047483 0.993300 -0.105357
vn -0.047483 0.993300 -0.105357
vn -0.401318 -0.002631 0.915935
vn -0.401318 -0.002631 0.915935
vn -0.401077 -0.001161 0.916044
vn -0.400694 0.001166 0.916211
vn -0.911592 -0.003630 0.411080
vn -0.911592 -0.003630 0.411080
vn -0.916991 0.002025 0.398903
vn -0.912167 -0.003038 0.409808
vn -0.934760 0.003613 -0.355262
vn -0.934760 0.003613 -0.355262
vn -0.934148 0.002854 -0.356875
vn -0.930315 -0.001807 -0.366758
vn -0.351150 0.004151 -0.936310
vn -0.351150 0.004151 -0.936310
vn -0.350394 0.002902 -0.936598
vn -0.346478 -0.003545 -0.938052
vn 0.419519 -0.004991 -0.907733
vn 0.419519 -0.004991 -0.907733
vn 0.426850 0.004956 -0.904309
vn 0.420269 -0.003978 -0.907391
vn 0.907116 -0.005173 -0.420850
vn 0.907116 -0.005173 -0.420850
vn 0.903931 0.000882 -0.427677
vn 0.906650 -0.004276 -0.421863
vn 0.936753 0.004178 0.349966
vn 0.936753 0.004178 0.349966
vn 0.937003 0.003200 0.349306
vn 0.938219 -0.001633 0.346038
vn 0.364182 0.002628 0.931324
vn 0.364182 0.002628 0.931324
vn 0.365574 -0.000841 0.930782
vn 0.364886 0.000876 0.931052
vn -0.030766 0.998093 -0.053519
vn -0.030766 0.998093 -0.053519
vn -0.030766 0.998093 -0.053519
vn -0.007115 0.998453 -0.055149
vn -0.007115 0.998453 -0.055149
vn -0.007115 0.998453 -0.055149
vn 0.299744 0.577179 -0.759617
vn 0.299744 0.577179 -0.759617
vn 0.299744 0.577179 -0.759617
vn 0.299744 0.577179 -0.759617
vn -0.296845 0.370317 -0.880198
vn -0.296845 0.370317 -0.880198
vn -0.296845 0.370317 -0.880198
vn -0.296845 0.370317 -0.880198
vn -0.546322 0.705078 -0.452104
vn -0.546322 0.705078 -0.452104
vn -0.546322 0.705078 -0.452104
vn -0.546322 0.705078 -0.452104
vn -0.519020 0.824718 0.224629
vn -0.519020 0.824718 0.224629
vn -0.519020 0.824718 0.224629
vn -0.519020 0.824718 0.224629
vn 0.015090 0.711904 0.702115
vn 0.015090 0.711904 0.702115
vn 0.015090 0.711904 0.702115
vn 0.015090 0.711904 0.702115
vn 0.286615 0.648208 0.705463
vn 0.286615 0.648208 0.705463
vn 0.286615 0.648208 0.705463
vn 0.286615 0.648208 0.705463
vn 0.800252 0.565494 0.199535
vn 0.800252 0.565494 0.199535
vn 0.800252 0.565494 0.199535
vn 0.800252 0.565494 0.199535
vn 0.594881 0.672454 -0.440366
vn 0.594881 0.672454 -0.440366
vn 0.594881 0.672454 -0.440366
vn 0.594881 0.672454 -0.440366
vn -0.272504 0.704091 0.655742
vn -0.272504 0.704091 0.655742
vn -0.272504 0.704091 0.655742
vn -0.272504 0.704091 0.655742
vn 0.711293 0.657198 0.249307
vn 0.711293 0.657198 0.249307
vn 0.711293 0.657198 0.249307
vn 0.711293 0.657198 0.249307
vn -0.400694 0.001166 0.916211
vn -0.401077 -0.001161 0.916044
vn -0.400453 0.002619 0.916314
vn -0.400453 0.002619 0.916314
vn -0.400453 0.002619 0.916314
vn -0.912167 -0.003038 0.409808
vn -0.916991 0.002025 0.398903
vn -0.917213 0.002263 0.398389
vn -0.917214 0.002263 0.398389
vn -0.930315 -0.001807 -0.366758
vn -0.934148 0.002854 -0.356875
vn -0.930076 -0.002092 -0.367362
vn -0.930076 -0.002092 -0.367362
vn -0.346478 -0.003545 -0.938052
vn -0.350394 0.002902 -0.936598
vn -0.345277 -0.005514 -0.938485
vn -0.345277 -0.005514 -0.938485
vn 0.420269 -0.003978 -0.907391
vn 0.426850 0.004956 -0.904309
vn 0.428151 0.006730 -0.903682
vn 0.428151 0.006730 -0.903682
vn 0.906650 -0.004276 -0.421863
vn 0.903931 0.000882 -0.427677
vn 0.903695 0.001325 -0.428175
vn 0.903695 0.001325 -0.428175
vn 0.938219 -0.001633 0.346038
vn 0.937003 0.003200 0.349306
vn 0.938344 -0.002137 0.345696
vn 0.938344 -0.002137 0.345696
vn 0.938344 -0.002137 0.345696
vn 0.364886 0.000876 0.931052
vn 0.365574 -0.000841 0.930782
vn 0.366190 -0.002378 0.930537
vn 0.366190 -0.002378 0.930537
s off
f 1/1/1 2/2/2 22/3/3 23/4/4
f 2/2/5 3/5/6 21/6/7 22/3/8
f 3/5/9 4/7/10 20/8/11 21/6/12
f 4/7/13 5/9/14 19/10/15 20/8/16
f 5/9/17 6/11/18 18/12/19 19/10/20
f 6/11/21 7/13/22 25/14/23 18/12/24
f 7/13/25 8/15/26 24/16/27 25/14/28
f 8/15/29 1/1/30 23/4/31 24/16/32
f 2/2/33 1/1/34 17/17/35
f 3/5/36 2/2/37 17/17/38
f 4/7/39 3/5/40 17/17/41
f 5/9/42 4/7/43 17/17/44
f 6/11/45 5/9/46 17/17/47
f 7/13/48 6/11/49 17/17/50
f 8/15/51 7/13/52 17/17/53
f 1/1/54 8/15/55 17/17/56
f 28/18/57 29/19/58 30/20/59
f 29/19/60 31/21/61 30/20/62
f 31/21/63 32/22/64 30/20/65
f 32/22/66 33/23/67 30/20/68
f 33/23/69 34/24/70 30/20/71
f 35/25/72 36/26/73 30/20/74
f 30/20/75 37/27/76 38/28/77
f 38/28/78 28/18/79 30/20/80
f 19/29/81 18/30/82 39/31/83 40/32/84
f 20/33/85 19/29/86 40/32/87 41/34/88
f 21/35/89 20/33/90 41/34/91 42/36/92
f 22/37/93 21/35/94 42/36/95 43/38/96
f 23/39/97 22/37/98 43/38/99 44/40/100
f 24/41/101 23/42/102 44/43/103 45/44/104
f 25/45/105 24/41/106 45/44/107 46/46/108
f 18/30/109 25/45/110 46/46/111 39/31/112
f 30/20/113 34/24/114 35/25/115
f 36/26/116 37/27/117 30/20/118
f 9/47/119 10/48/120 29/19/121 28/18/122
f 10/48/123 11/49/124 31/21/125 29/19/126
f 11/49/127 12/50/128 32/22/129 31/21/130
f 12/50/131 13/51/132 33/23/133 32/22/134
f 13/51/135 26/52/136 34/24/137 33/23/138
f 14/53/139 15/54/140 36/26/141 35/25/142
f 27/55/143 16/56/144 38/28/145 37/27/146
f 16/56/147 9/47/148 28/18/149 38/28/150
f 26/52/151 14/53/152 35/25/153 34/24/154
f 15/54/155 27/55/156 37/27/157 36/26/158
f 40/32/159 39/31/160 14/57/161 26/58/162 13/59/163
f 41/34/164 40/32/165 13/59/166 12/60/167
f 42/36/168 41/34/169 12/60/170 11/61/171
f 43/38/172 42/36/173 11/61/174 10/62/175
f 44/40/176 43/38/177 10/62/178 9/63/179
f 45/44/180 44/43/181 9/64/182 16/65/183
f 46/46/184 45/44/185 16/65/186 27/66/187 15/67/188
f 39/31/189 46/46/190 15/67/191 14/57/192
