# This file uses centimeters as units for non-parametric coordinates.

v 0.434448 7.874884 -60.518555
v 0.869110 7.874884 -41.349487
v -0.949890 4.722876 -41.266785
v -1.382111 4.722876 -60.683533
v -0.213074 4.722876 -64.923981
v 2.772705 4.722876 -65.578033
v 1.104553 7.009195 -64.804260
v 1.454529 7.009195 -38.798767
v 0.135101 4.722876 -38.738800
v 5.884094 4.722876 -60.023621
v 6.326111 4.722876 -41.597595
v 4.507080 7.874884 -41.514893
v 4.067535 7.874884 -60.188599
v 3.739868 7.009196 -64.564972
v 5.057495 4.722876 -64.445282
v 5.412781 4.722876 -38.978760
v 4.093353 7.009196 -38.918762
v 0.434448 1.570870 -60.518555
v 0.869110 1.570870 -41.349487
v 4.507080 1.570870 -41.514893
v 4.067535 1.570870 -60.188599
v 3.739868 2.436556 -64.564972
v 1.104553 2.436556 -64.804260
v 1.454529 2.436556 -38.798767
v 4.093353 2.436556 -38.918762
v 5.554657 4.532088 -51.187012
v 3.626892 7.872599 -51.099335
v -0.228668 7.872599 -50.924072
v -2.156433 4.532087 -50.836426
v -0.228668 1.191576 -50.924072
v 3.626892 1.191576 -51.099335
v 2.067047 6.265772 -38.333588
v 4.527710 5.784598 -38.448883
v 4.069946 2.731905 -38.650452
v 1.069916 3.575989 -38.426849
v 2.406738 5.927741 -36.637054
v 4.410339 5.535948 -36.724945
v 4.037567 3.050308 -36.878571
v 1.594818 3.737599 -36.708130
v 4.048828 3.437247 -24.357819
v 6.602966 3.553367 -23.574127
v 6.969666 0.281030 -23.743134
v 3.759064 0.404942 -24.621216
v -0.533478 3.794641 -12.943024
v 2.020691 3.910764 -12.159363
v 2.387390 0.638424 -12.328369
v -0.823242 0.762335 -13.206451
v 0.000000 0.000000 0.000000
vt 0.145569 0.252528
vt 0.145569 0.252528
vt 0.145569 0.252528
vt 0.145569 0.252528
vt 0.145569 0.252528
vt 0.145569 0.252528
vt 0.145569 0.252528
vt 0.145569 0.252528
vt 0.145569 0.252528
vt 0.145584 0.304084
vt 0.145569 0.252528
vt 0.145569 0.252528
vt 0.145569 0.252528
vt 0.145569 0.252528
vt 0.145569 0.252528
vt 0.145569 0.252528
vt 0.145569 0.252528
vt 0.145569 0.252528
vt 0.145569 0.252528
vt 0.145569 0.252528
vt 0.145569 0.252528
vt 0.145569 0.252528
vt 0.145569 0.252528
vt 0.145569 0.252528
vt 0.145569 0.252528
vt 0.145569 0.252528
vt 0.145569 0.252528
vt 0.145569 0.252528
vt 0.145599 0.304084
vt 0.145569 0.252528
vt 0.145569 0.252528
vt 0.145569 0.252528
vt 0.145569 0.252528
vt 0.145569 0.252528
vt 0.145569 0.252528
vt 0.145569 0.252528
vt 0.145569 0.252528
vt 0.145596 0.304084
vt 0.145599 0.304085
vt 0.145584 0.304085
vt 0.145584 0.304084
vt 0.145584 0.304084
vt 0.145599 0.304085
vt 0.145599 0.304085
vt 0.145584 0.304085
vt 0.145584 0.304085
vt 0.145584 0.304084
vt 0.145599 0.304084
vt 0.145599 0.304084
vt 0.145584 0.304084
vt 0.145599 0.304085
vt 0.145599 0.304085
vn -0.865331 0.500846 0.018878
vn -0.865305 0.500847 0.020000
vn -0.860783 0.499335 0.098573
vn -0.860783 0.499335 0.098573
vn -0.210796 0.171875 -0.962301
vn -0.210796 0.171875 -0.962302
vn -0.210796 0.171875 -0.962301
vn -0.306509 0.136389 0.942046
vn -0.306509 0.136389 0.942046
vn -0.306509 0.136389 0.942046
vn -0.306509 0.136389 0.942046
vn -0.837713 0.494875 -0.230946
vn -0.837713 0.494876 -0.230946
vn -0.837713 0.494876 -0.230946
vn -0.837713 0.494876 -0.230946
vn -0.808356 0.475599 0.346940
vn -0.808356 0.475599 0.346940
vn -0.808356 0.475599 0.346940
vn -0.808356 0.475599 0.346940
vn 0.865444 0.500601 -0.020139
vn 0.865422 0.500602 -0.021043
vn 0.862489 0.499819 -0.079328
vn 0.862489 0.499819 -0.079328
vn 0.434785 0.204660 -0.876970
vn 0.434785 0.204660 -0.876970
vn 0.434785 0.204660 -0.876970
vn 0.787835 0.443435 0.427413
vn 0.787835 0.443435 0.427413
vn 0.787835 0.443435 0.427413
vn 0.858788 0.486528 -0.160542
vn 0.858788 0.486528 -0.160542
vn 0.858788 0.486528 -0.160542
vn 0.858788 0.486528 -0.160542
vn 0.832123 0.472603 0.290203
vn 0.832123 0.472603 0.290203
vn 0.832123 0.472603 0.290203
vn 0.832123 0.472603 0.290203
vn 0.001329 -0.999999 0.000630
vn 0.001315 -0.999999 -0.000568
vn 0.001790 -0.999223 0.039379
vn 0.001790 -0.999223 0.039379
vn 0.083873 -0.373811 -0.923705
vn 0.083873 -0.373811 -0.923705
vn 0.083873 -0.373811 -0.923705
vn -0.005587 -0.408810 0.912602
vn -0.005587 -0.408810 0.912602
vn -0.005587 -0.408810 0.912602
vn -0.005587 -0.408810 0.912602
vn 0.017735 -0.980584 -0.195297
vn 0.017735 -0.980584 -0.195297
vn 0.017735 -0.980584 -0.195298
vn 0.017735 -0.980584 -0.195298
vn 0.014476 -0.947856 0.318371
vn 0.014476 -0.947856 0.318371
vn 0.014476 -0.947856 0.318371
vn 0.014476 -0.947856 0.318371
vn -0.000011 1.000000 -0.000237
vn -0.000011 1.000000 -0.000237
vn -0.000008 1.000000 0.000003
vn -0.000008 1.000000 -0.000004
vn 0.084462 0.463916 0.881844
vn 0.084462 0.463916 0.881844
vn 0.084462 0.463916 0.881844
vn 0.084462 0.463916 0.881844
vn 0.083873 0.373811 -0.923705
vn 0.083873 0.373811 -0.923705
vn 0.083873 0.373811 -0.923705
vn 0.014476 0.947856 0.318371
vn 0.014476 0.947856 0.318371
vn 0.014476 0.947856 0.318371
vn 0.014476 0.947856 0.318371
vn 0.017735 0.980584 -0.195298
vn 0.017735 0.980584 -0.195298
vn 0.017735 0.980584 -0.195298
vn 0.017735 0.980584 -0.195298
vn -0.858705 -0.498651 0.118208
vn -0.858705 -0.498651 0.118208
vn -0.865138 -0.501129 0.020168
vn -0.865169 -0.501129 0.018744
vn -0.708082 -0.423455 0.565071
vn -0.708082 -0.423455 0.565071
vn -0.708082 -0.423455 0.565071
vn -0.210796 -0.171875 -0.962301
vn -0.210796 -0.171875 -0.962301
vn -0.210796 -0.171875 -0.962301
vn -0.808356 -0.475599 0.346940
vn -0.808355 -0.475599 0.346940
vn -0.808356 -0.475599 0.346940
vn -0.808355 -0.475599 0.346940
vn -0.837712 -0.494876 -0.230946
vn -0.837712 -0.494876 -0.230946
vn -0.837712 -0.494876 -0.230946
vn -0.837712 -0.494876 -0.230946
vn 0.863907 -0.500119 -0.059548
vn 0.863907 -0.500119 -0.059548
vn 0.865594 -0.500309 -0.020899
vn 0.865612 -0.500306 -0.020234
vn 0.480608 -0.182724 0.857688
vn 0.480608 -0.182724 0.857688
vn 0.480608 -0.182724 0.857688
vn 0.480608 -0.182724 0.857688
vn 0.434785 -0.204660 -0.876970
vn 0.434785 -0.204660 -0.876970
vn 0.434785 -0.204660 -0.876970
vn 0.832123 -0.472603 0.290203
vn 0.832123 -0.472603 0.290203
vn 0.832123 -0.472603 0.290203
vn 0.832123 -0.472603 0.290203
vn 0.858788 -0.486529 -0.160542
vn 0.858788 -0.486529 -0.160542
vn 0.858788 -0.486529 -0.160542
vn 0.858788 -0.486529 -0.160542
vn 0.865260 0.499514 0.042551
vn 0.865422 0.500602 -0.021043
vn 0.865444 0.500601 -0.020139
vn 0.865260 0.499514 0.042551
vn -0.000008 1.000000 -0.000004
vn -0.000008 1.000000 0.000003
vn -0.000005 1.000000 0.000244
vn -0.000005 1.000000 0.000244
vn -0.864453 0.499244 -0.058957
vn -0.865305 0.500847 0.020000
vn -0.865331 0.500846 0.018878
vn -0.864453 0.499244 -0.058957
vn -0.865169 -0.501129 0.018744
vn -0.865138 -0.501129 0.020168
vn -0.863190 -0.498748 -0.078446
vn -0.863190 -0.498748 -0.078446
vn 0.000837 -0.999178 -0.040519
vn 0.001315 -0.999999 -0.000568
vn 0.001329 -0.999999 0.000630
vn 0.000837 -0.999178 -0.040519
vn 0.865612 -0.500306 -0.020234
vn 0.865594 -0.500309 -0.020899
vn 0.865958 -0.499663 0.021310
vn 0.865958 -0.499663 0.021310
vn 0.196359 0.968466 0.153349
vn 0.196359 0.968467 0.153349
vn 0.196359 0.968467 0.153349
vn 0.196359 0.968466 0.153349
vn 0.987496 -0.150992 0.045314
vn 0.987496 -0.150992 0.045314
vn 0.987496 -0.150992 0.045314
vn 0.987496 -0.150992 0.045314
vn -0.255813 -0.952186 0.167036
vn -0.255813 -0.952186 0.167036
vn -0.255813 -0.952186 0.167036
vn -0.255813 -0.952186 0.167036
vn -0.911120 0.329423 0.247673
vn -0.911120 0.329423 0.247673
vn -0.911120 0.329423 0.247673
vn -0.911120 0.329423 0.247673
vn 0.033914 0.985174 0.168175
vn 0.033914 0.985174 0.168175
vn 0.033914 0.985174 0.168175
vn 0.033914 0.985174 0.168175
vn 0.981800 0.009592 -0.189676
vn 0.981800 0.009592 -0.189676
vn 0.981800 0.009592 -0.189676
vn 0.981800 0.009592 -0.189676
vn -0.112746 -0.970730 -0.212063
vn -0.112746 -0.970730 -0.212063
vn -0.112746 -0.970730 -0.212063
vn -0.112746 -0.970730 -0.212063
vn -0.961988 0.190395 0.195778
vn -0.961988 0.190395 0.195778
vn -0.961988 0.190395 0.195778
vn -0.961988 0.190395 0.195778
vn -0.031878 0.998520 -0.044060
vn -0.031878 0.998520 -0.044060
vn -0.031878 0.998520 -0.044060
vn -0.031878 0.998520 -0.044060
vn 0.925598 0.084669 0.368916
vn 0.925598 0.084669 0.368916
vn 0.925598 0.084669 0.368916
vn 0.925598 0.084669 0.368916
vn -0.042450 -0.998997 0.014238
vn -0.042450 -0.998997 0.014238
vn -0.042450 -0.998997 0.014238
vn -0.042450 -0.998997 0.014238
vn -0.919966 0.120320 -0.373075
vn -0.919966 0.120320 -0.373075
vn -0.919966 0.120320 -0.373075
vn -0.919967 0.120320 -0.373075
vn -0.993757 0.089134 0.067092
vn -0.993757 0.089134 0.067092
vn -0.993757 0.089134 0.067092
vn -0.023160 -0.998152 -0.056174
vn -0.023160 -0.998152 -0.056174
vn -0.023160 -0.998152 -0.056174
vn 0.975933 0.099337 0.194134
vn 0.975933 0.099337 0.194134
vn 0.975933 0.099337 0.194134
vn -0.130289 0.949966 0.283882
vn -0.130289 0.949966 0.283882
vn -0.130289 0.949966 0.283882
s off
f 28/1/1 29/2/2 3/3/3 2/4/4
f 7/5/5 6/6/6 5/7/7
f 9/8/8 35/9/9 32/11/10 8/12/11
f 1/13/12 7/5/13 5/7/14 4/14/15
f 3/3/16 9/8/17 8/12/18 2/4/19
f 26/15/20 27/16/21 12/17/22 11/18/23
f 15/19/24 6/6/25 14/20/26
f 17/21/27 33/22/28 16/23/29
f 10/24/30 15/19/31 14/20/32 13/25/33
f 12/17/34 17/21/35 16/23/36 11/18/37
f 30/26/38 31/27/39 20/28/40 19/30/41
f 23/31/42 6/6/43 22/32/44
f 25/33/45 34/34/46 35/9/47 24/35/48
f 18/36/49 23/31/50 22/32/51 21/37/52
f 20/28/53 25/33/54 24/35/55 19/30/56
f 2/4/57 12/17/58 27/16/59 28/1/60
f 17/21/61 8/12/62 32/11/63 33/22/64
f 7/5/65 14/20/66 6/6/67
f 12/17/68 2/4/69 8/12/70 17/21/71
f 1/13/72 13/25/73 14/20/74 7/5/75
f 19/30/76 3/3/77 29/2/78 30/26/79
f 9/8/80 24/35/81 35/9/82
f 23/31/83 5/7/84 6/6/85
f 3/3/86 19/30/87 24/35/88 9/8/89
f 18/36/90 4/14/91 5/7/92 23/31/93
f 11/18/94 20/28/95 31/27/96 26/15/97
f 25/33/98 16/23/99 33/22/100 34/34/101
f 15/19/102 22/32/103 6/6/104
f 20/28/105 11/18/106 16/23/107 25/33/108
f 10/24/109 21/37/110 22/32/111 15/19/112
f 13/25/113 27/16/114 26/15/115 10/24/116
f 28/1/117 27/16/118 13/25/119 1/13/120
f 4/14/121 29/2/122 28/1/123 1/13/124
f 30/26/125 29/2/126 4/14/127 18/36/128
f 21/37/129 31/27/130 30/26/131 18/36/132
f 26/15/133 31/27/134 21/37/135 10/24/136
f 33/50/137 32/49/138 36/48/139 37/47/140
f 34/46/141 33/50/142 37/47/143 38/45/144
f 35/44/145 34/46/146 38/45/147 39/43/148
f 32/49/149 35/44/150 39/43/151 36/48/152
f 37/47/153 36/48/154 40/42/155 41/41/156
f 38/45/157 37/47/158 41/41/159 42/40/160
f 39/43/161 38/45/162 42/40/163 43/39/164
f 36/48/165 39/43/166 43/39/167 40/42/168
f 41/41/169 40/42/170 44/29/171 45/10/172
f 42/40/173 41/41/174 45/10/175 46/52/176
f 43/39/177 42/40/178 46/52/179 47/51/180
f 40/42/181 43/39/182 47/51/183 44/29/184
f 44/29/185 47/51/186 48/38/187
f 47/51/188 46/52/189 48/38/190
f 46/52/191 45/10/192 48/38/193
f 45/10/194 44/29/195 48/38/196
