# This file uses centimeters as units for non-parametric coordinates.

v 3.740387 11.667045 15.700439
v -2.403717 22.407213 8.953552
v 7.965210 19.721014 4.934448
v 3.263519 21.856112 7.660156
v 8.668457 15.388995 9.644104
v 3.943298 17.485590 12.335022
v -1.700439 18.075193 13.663208
v -13.446686 20.738428 -6.784180
v -2.443542 25.494761 -1.246094
v -10.514526 25.630102 5.125305
v -6.710480 26.597582 1.624390
v -14.105469 23.697138 0.617554
v -10.290161 24.614294 -2.868042
v -6.034454 23.561800 -5.753906
v -18.334259 14.011222 4.013367
v -10.600616 22.551626 -2.437500
v -9.558167 23.131479 7.776733
v -10.848175 23.636763 2.702942
v -14.041382 19.084311 8.464050
v -15.294006 19.550940 3.388611
v -15.083832 18.504457 -1.750244
v 6.295807 24.330210 -8.979187
v 3.766724 29.160086 3.047363
v -4.492981 29.141535 -3.078857
v -0.132050 30.186182 -0.330444
v -1.056580 27.210375 -7.706238
v 3.293152 28.204687 -4.942566
v 7.203156 27.228922 -1.580017
v 0.314758 17.013548 0.070984
v -0.991180 16.896193 0.624512
v 0.370544 15.289310 -0.028931
v -0.994110 15.287610 0.474609
v -0.614594 14.765367 -4.779602
v -2.126648 14.840283 -4.848206
v -2.060883 15.967263 -4.741699
v -0.547455 15.925467 -4.757080
v -0.877319 10.490258 -11.438354
v -2.273224 10.472388 -11.537659
v -2.189026 11.173785 -12.293762
v -0.791565 11.131125 -12.273499
v -2.128571 0.168912 -0.752197
v -1.758789 0.611196 1.315308
v -0.078766 -0.442285 -0.977417
v 0.290680 0.000001 1.090088
v -1.004639 9.524520 -0.062378
v -0.578674 9.508540 1.473083
v 0.959564 8.526778 1.135254
v 0.563751 9.315366 -0.375000
v -0.679382 16.600176 2.054260
v 0.856293 16.738287 1.403320
v -1.987976 25.943277 0.699341
v -0.967010 26.027269 1.228760
v -0.033508 25.453318 0.476379
v -1.155853 25.621092 -0.371399
v 0.230560 29.341742 -1.973633
v 0.896942 29.370901 -1.392090
v 1.446106 29.045240 -2.004700
v 0.779816 29.016024 -2.586243
v -1.953247 25.073549 0.734558
v -0.906403 25.055376 1.431396
v -1.169403 20.497572 0.809387
v -0.721680 21.300707 2.072205
v 0.957062 21.354265 1.100159
v 0.055115 20.426325 -0.128967
v -0.752594 19.872637 2.129822
v 0.977570 19.968649 1.252441
v 0.911926 9.880963 1.163452
v 0.518158 10.725142 -0.293335
v -7.096222 24.876524 1.216003
v -7.086731 24.858351 2.473511
v -6.963593 25.877829 2.326538
v -7.097290 25.793840 1.184326
v 0.502472 20.609236 4.414734
v 2.014618 20.684149 4.479980
v 1.948639 21.811129 4.373535
v 0.435242 21.769331 4.392334
v 4.856049 11.743930 -1.811768
v 5.105865 11.382621 -0.778198
v 4.368195 12.492982 -1.638672
v 4.642059 12.101747 -0.636475
v -11.954895 21.012716 2.536072
v -11.949188 20.999521 3.574097
v -12.314453 21.775515 3.455200
v -12.375244 21.650602 2.513367
v 2.302826 19.635675 7.535889
v 3.698944 19.617807 7.632080
v 3.616455 20.319204 8.388367
v 2.218994 20.276545 8.371216
v -1.555450 3.688853 -0.594788
v -1.259766 4.127769 1.485840
v 0.796509 3.716922 1.341675
v 0.500916 3.665624 -0.739014
v -2.024048 2.098415 2.078125
v 1.262238 2.096199 1.741028
v 0.789337 2.253531 -1.511719
v -2.424011 1.932305 -1.237061
vt 0.679952 0.485745
vt 0.680234 0.539764
vt 0.621612 0.539764
vt 0.738856 0.539764
vt 0.738856 0.620345
vt 0.680234 0.620345
vt 0.621612 0.620345
vt 0.679952 0.485745
vt 0.680234 0.539764
vt 0.621612 0.539764
vt 0.738856 0.539764
vt 0.738856 0.620345
vt 0.680234 0.620345
vt 0.621612 0.620345
vt 0.550943 0.485482
vt 0.551224 0.539501
vt 0.492602 0.539501
vt 0.609847 0.539501
vt 0.609847 0.620082
vt 0.551224 0.620082
vt 0.492602 0.620082
vt 0.550943 0.485482
vt 0.551224 0.539501
vt 0.492602 0.539501
vt 0.609847 0.539501
vt 0.609847 0.620082
vt 0.551224 0.620082
vt 0.492602 0.620082
vt 0.144793 0.302854
vt 0.144793 0.302854
vt 0.144793 0.302854
vt 0.144793 0.302854
vt 0.144793 0.302854
vt 0.144793 0.302854
vt 0.144793 0.302854
vt 0.144793 0.302854
vt 0.144793 0.302854
vt 0.144793 0.302854
vt 0.144793 0.302854
vt 0.144793 0.302854
vt 0.144793 0.302854
vt 0.144793 0.302854
vt 0.144793 0.302854
vt 0.144793 0.302854
vt 0.144793 0.302854
vt 0.144793 0.302854
vt 0.144793 0.302854
vt 0.144793 0.302854
vt 0.144793 0.302854
vt 0.144793 0.302854
vt 0.144793 0.302854
vt 0.144793 0.302854
vt 0.144793 0.302854
vt 0.144793 0.302854
vt 0.144793 0.302854
vt 0.144793 0.302854
vt 0.144793 0.302854
vt 0.144793 0.302854
vt 0.144793 0.302854
vt 0.144793 0.302854
vt 0.144793 0.302854
vt 0.144793 0.302854
vt 0.144793 0.302854
vt 0.144793 0.302854
vt 0.144793 0.302854
vt 0.144793 0.302854
vt 0.144793 0.302854
vt 0.144793 0.302854
vt 0.144793 0.302854
vt 0.144793 0.302854
vt 0.144793 0.302854
vt 0.144793 0.302854
vt 0.144793 0.302854
vt 0.144793 0.302854
vt 0.144793 0.302854
vt 0.144793 0.302854
vt 0.144793 0.302854
vt 0.144793 0.302854
vt 0.144793 0.302854
vt 0.144793 0.302854
vt 0.144793 0.302854
vt 0.144793 0.302854
vt 0.144793 0.302854
vt 0.144793 0.302854
vt 0.144793 0.302854
vt 0.144793 0.302854
vt 0.144793 0.302854
vt 0.144793 0.302854
vt 0.144793 0.302854
vt 0.144793 0.302854
vt 0.144793 0.302854
vt 0.144793 0.302854
vt 0.144793 0.302854
vt 0.144793 0.302854
vt 0.144793 0.302854
vt 0.144793 0.302854
vt 0.144793 0.302854
vt 0.144793 0.302854
vt 0.144793 0.302854
vt 0.144793 0.302854
vn 0.248208 0.478510 0.842271
vn 0.248208 0.478510 0.842271
vn 0.248208 0.478510 0.842271
vn 0.580452 0.392437 0.713491
vn 0.580452 0.392437 0.713491
vn 0.580452 0.392437 0.713491
vn 0.578298 0.638937 0.507279
vn 0.578298 0.638937 0.507279
vn 0.578298 0.638937 0.507279
vn 0.578298 0.638937 0.507279
vn 0.223190 0.730932 0.644922
vn 0.223190 0.730932 0.644922
vn 0.223190 0.730932 0.644922
vn 0.223190 0.730932 0.644922
vn -0.212302 0.774706 -0.595616
vn -0.212302 0.774706 -0.595616
vn -0.212302 0.774706 -0.595616
vn -0.514002 0.779766 -0.357445
vn -0.514002 0.779766 -0.357445
vn -0.514002 0.779766 -0.357445
vn -0.347012 0.929111 -0.127813
vn -0.347012 0.929111 -0.127813
vn -0.347012 0.929111 -0.127813
vn -0.347012 0.929111 -0.127813
vn -0.024622 0.923705 -0.382312
vn -0.024622 0.923705 -0.382312
vn -0.024622 0.923705 -0.382312
vn -0.024622 0.923705 -0.382312
vn -0.875285 0.465634 -0.130620
vn -0.875285 0.465634 -0.130620
vn -0.875285 0.465634 -0.130620
vn -0.836316 0.487309 0.251206
vn -0.836316 0.487309 0.251206
vn -0.836316 0.487310 0.251206
vn -0.635802 0.736836 0.229845
vn -0.635802 0.736836 0.229845
vn -0.635802 0.736836 0.229845
vn -0.635802 0.736836 0.229845
vn -0.677442 0.713674 -0.178161
vn -0.677442 0.713674 -0.178161
vn -0.677442 0.713674 -0.178161
vn -0.677442 0.713674 -0.178161
vn 0.509963 0.777851 -0.367268
vn 0.509963 0.777851 -0.367268
vn 0.509963 0.777851 -0.367268
vn 0.201202 0.777157 -0.596276
vn 0.201202 0.777157 -0.596276
vn 0.201202 0.777157 -0.596276
vn 0.021357 0.926224 -0.376368
vn 0.021357 0.926224 -0.376368
vn 0.021357 0.926224 -0.376368
vn 0.021357 0.926224 -0.376368
vn 0.351286 0.926964 -0.131663
vn 0.351286 0.926965 -0.131663
vn 0.351286 0.926965 -0.131663
vn 0.351286 0.926965 -0.131663
vn 0.020749 -0.765308 -0.643329
vn 0.020749 -0.765308 -0.643329
vn 0.020749 -0.765308 -0.643329
vn 0.020749 -0.765308 -0.643329
vn -0.025947 -0.993974 0.106499
vn -0.025947 -0.993974 0.106499
vn -0.025947 -0.993974 0.106499
vn -0.025947 -0.993974 0.106499
vn -0.979895 0.012998 0.199092
vn -0.979895 0.012998 0.199092
vn -0.979895 0.012998 0.199092
vn -0.979895 0.012998 0.199092
vn -0.015275 0.989240 -0.145500
vn -0.015275 0.989240 -0.145500
vn -0.015275 0.989240 -0.145500
vn -0.015275 0.989240 -0.145500
vn 0.961220 -0.004883 -0.275738
vn 0.961220 -0.004883 -0.275738
vn 0.961220 -0.004883 -0.275738
vn 0.961220 -0.004883 -0.275738
vn -0.047844 -0.837767 0.543928
vn -0.047844 -0.837767 0.543928
vn -0.047844 -0.837767 0.543928
vn -0.047844 -0.837767 0.543928
vn -0.997026 0.072125 -0.027163
vn -0.997026 0.072125 -0.027163
vn -0.997026 0.072125 -0.027163
vn -0.997026 0.072125 -0.027163
vn 0.025364 0.843138 -0.537099
vn 0.025364 0.843138 -0.537099
vn 0.025364 0.843138 -0.537099
vn 0.025364 0.843138 -0.537099
vn 0.996838 -0.078156 0.014362
vn 0.996838 -0.078156 0.014362
vn 0.996838 -0.078156 0.014362
vn 0.996838 -0.078156 0.014362
vn 0.219041 0.929215 -0.297626
vn 0.219041 0.929215 -0.297626
vn 0.219041 0.929215 -0.297626
vn 0.219041 0.929215 -0.297626
vn -0.960892 0.242897 0.132993
vn -0.968907 0.197006 0.149690
vn -0.978180 -0.144287 0.149483
vn -0.978180 -0.144287 0.149483
vn 0.114621 0.192732 0.974534
vn 0.126516 0.098615 0.987051
vn 0.124404 0.115892 0.985440
vn 0.114621 0.192732 0.974534
vn 0.966861 0.243974 -0.075207
vn 0.981897 0.075014 -0.173926
vn 0.981404 0.086002 -0.171607
vn 0.966861 0.243974 -0.075207
vn -0.078179 -0.119405 -0.989763
vn -0.112960 0.197964 -0.973679
vn -0.112253 0.209058 -0.971439
vn -0.078179 -0.119405 -0.989763
vn -0.970155 -0.027474 0.240923
vn -0.957180 -0.020277 0.288781
vn -0.957180 -0.020277 0.288781
vn 0.317026 -0.035955 0.947735
vn 0.317025 -0.035955 0.947735
vn 0.317026 -0.035955 0.947735
vn 0.317025 -0.035955 0.947735
vn 0.967142 0.042586 -0.250644
vn 0.953420 0.031047 -0.300043
vn 0.967142 0.042586 -0.250644
vn -0.867518 -0.028921 0.496565
vn -0.867518 -0.028921 0.496565
vn -0.677006 0.012938 0.735864
vn -0.677006 0.012938 0.735864
vn 0.552329 0.059998 0.831465
vn 0.552329 0.059998 0.831465
vn 0.577010 0.382597 0.721581
vn 0.577010 0.382597 0.721581
vn 0.818909 -0.047910 -0.571920
vn 0.818909 -0.047910 -0.571920
vn 0.704039 0.159679 -0.691977
vn 0.704039 0.159679 -0.691977
vn -0.605856 -0.023995 -0.795213
vn -0.605856 -0.023995 -0.795213
vn -0.626642 -0.309694 -0.715129
vn -0.626642 -0.309694 -0.715129
vn -0.875115 -0.480606 0.056496
vn -0.875115 -0.480606 0.056496
vn -0.875115 -0.480606 0.056496
vn -0.875115 -0.480606 0.056496
vn 0.684141 0.189525 0.704295
vn 0.684141 0.189525 0.704295
vn 0.684141 0.189525 0.704295
vn -0.796467 -0.056161 -0.602069
vn -0.796467 -0.056160 -0.602069
vn -0.796467 -0.056160 -0.602069
vn -0.537451 0.308339 0.784904
vn -0.537451 0.308339 0.784904
vn -0.537451 0.308339 0.784904
vn -0.537451 0.308339 0.784904
vn 0.728187 0.210473 0.652262
vn 0.728187 0.210473 0.652262
vn 0.728187 0.210473 0.652262
vn 0.728187 0.210473 0.652262
vn 0.598498 -0.220064 -0.770307
vn 0.598498 -0.220064 -0.770307
vn 0.598498 -0.220064 -0.770307
vn 0.598498 -0.220064 -0.770307
vn -0.789899 -0.123388 -0.600696
vn -0.789899 -0.123388 -0.600696
vn -0.789899 -0.123388 -0.600696
vn -0.789899 -0.123388 -0.600696
vn -0.948474 0.033245 0.315106
vn -0.948474 0.033245 0.315106
vn -0.948474 0.033245 0.315106
vn -0.019300 -0.765308 0.643374
vn -0.019300 -0.765308 0.643374
vn -0.019300 -0.765308 0.643374
vn -0.019300 -0.765308 0.643374
vn 0.822859 -0.050035 -0.566039
vn 0.822859 -0.050035 -0.566039
vn 0.822859 -0.050035 -0.566039
vn -0.979467 -0.022796 0.200311
vn -0.979467 -0.022796 0.200311
vn -0.979467 -0.022796 0.200311
vn -0.979467 -0.022796 0.200311
vn 0.403676 0.066586 0.912476
vn 0.403676 0.066586 0.912476
vn 0.403676 0.066586 0.912476
vn 0.403676 0.066586 0.912476
vn 0.867551 0.004247 -0.497330
vn 0.867551 0.004247 -0.497330
vn 0.867551 0.004247 -0.497330
vn 0.867551 0.004247 -0.497330
vn -0.507127 -0.033506 -0.861220
vn -0.507127 -0.033506 -0.861220
vn -0.507127 -0.033506 -0.861220
vn -0.507127 -0.033506 -0.861220
vn 0.206524 -0.013069 0.978354
vn 0.206524 -0.013069 0.978354
vn 0.206524 -0.013069 0.978354
vn -0.188736 0.050702 -0.980718
vn -0.188736 0.050702 -0.980718
vn -0.188736 0.050702 -0.980718
vn 0.030076 -0.998940 -0.034837
vn 0.030076 -0.998940 -0.034837
vn 0.030076 -0.998940 -0.034837
vn 0.030076 -0.998940 -0.034837
vn 0.166132 0.165465 0.972122
vn 0.166132 0.165465 0.972122
vn 0.166132 0.165465 0.972122
vn 0.166132 0.165465 0.972122
vn -0.037407 0.996534 -0.074303
vn -0.037407 0.996534 -0.074303
vn -0.037407 0.996534 -0.074303
vn -0.037407 0.996534 -0.074303
vn -0.092465 -0.039109 -0.994948
vn -0.092465 -0.039109 -0.994948
vn -0.092465 -0.039109 -0.994948
vn -0.092465 -0.039109 -0.994948
vn 0.025707 -0.993974 -0.106557
vn 0.025707 -0.993974 -0.106557
vn 0.025707 -0.993974 -0.106557
vn 0.025707 -0.993974 -0.106557
vn 0.979444 0.012998 -0.201298
vn 0.979444 0.012998 -0.201298
vn 0.979444 0.012998 -0.201298
vn 0.979444 0.012998 -0.201298
vn 0.015603 0.989240 0.145465
vn 0.015603 0.989240 0.145465
vn 0.015603 0.989240 0.145465
vn 0.015603 0.989240 0.145465
vn -0.960597 -0.004883 0.277902
vn -0.960597 -0.004883 0.277902
vn -0.960597 -0.004883 0.277902
vn -0.960597 -0.004883 0.277902
vn -0.347671 -0.908932 -0.230148
vn -0.347671 -0.908932 -0.230148
vn -0.347671 -0.908932 -0.230148
vn -0.347671 -0.908931 -0.230148
vn -0.397670 0.037877 -0.916747
vn -0.397669 0.037877 -0.916747
vn -0.397669 0.037877 -0.916747
vn -0.397669 0.037877 -0.916747
vn 0.378035 0.889357 0.257166
vn 0.378035 0.889357 0.257165
vn 0.378035 0.889357 0.257165
vn 0.378035 0.889357 0.257165
vn 0.386743 0.004274 0.922178
vn 0.386743 0.004274 0.922178
vn 0.386743 0.004274 0.922178
vn 0.386743 0.004274 0.922178
vn 0.619693 -0.784705 -0.014821
vn 0.619693 -0.784705 -0.014821
vn 0.619693 -0.784704 -0.014821
vn 0.619693 -0.784705 -0.014821
vn 0.091490 0.157941 0.983201
vn 0.091490 0.157941 0.983201
vn 0.091490 0.157941 0.983201
vn 0.091490 0.157941 0.983201
vn -0.615907 0.787526 -0.021472
vn -0.615907 0.787526 -0.021472
vn -0.615907 0.787526 -0.021472
vn -0.615907 0.787526 -0.021472
vn -0.188352 -0.085253 -0.978394
vn -0.188352 -0.085253 -0.978394
vn -0.188352 -0.085253 -0.978394
vn -0.188352 -0.085253 -0.978394
vn 0.046619 -0.837767 -0.544034
vn 0.046619 -0.837767 -0.544034
vn 0.046619 -0.837767 -0.544034
vn 0.046619 -0.837767 -0.544034
vn 0.997084 0.072125 0.024918
vn 0.997084 0.072125 0.024918
vn 0.997084 0.072125 0.024918
vn 0.997084 0.072125 0.024918
vn -0.024155 0.843138 0.537155
vn -0.024155 0.843138 0.537155
vn -0.024155 0.843138 0.537155
vn -0.024155 0.843138 0.537155
vn -0.996867 -0.078156 -0.012117
vn -0.996868 -0.078156 -0.012117
vn -0.996868 -0.078156 -0.012117
vn -0.996867 -0.078156 -0.012117
vn 0.967142 0.042586 -0.250644
vn 0.967142 0.042586 -0.250644
vn 0.953420 0.031047 -0.300043
vn 0.967142 0.042586 -0.250644
vn -0.296403 0.069180 -0.952554
vn -0.296403 0.069180 -0.952554
vn -0.273497 0.070808 -0.959263
vn -0.273497 0.070808 -0.959263
vn -0.957180 -0.020277 0.288781
vn -0.957180 -0.020277 0.288781
vn -0.957180 -0.020277 0.288781
vn -0.970155 -0.027474 0.240923
vn -0.985117 0.122888 0.120178
vn -0.977127 0.181284 0.111171
vn -0.968907 0.197006 0.149690
vn -0.960892 0.242897 0.132993
vn 0.082248 -0.092467 0.992313
vn 0.085563 -0.052643 0.994941
vn 0.124404 0.115892 0.985440
vn 0.126516 0.098615 0.987051
vn 0.982156 -0.130101 -0.135809
vn 0.978976 -0.152610 -0.135339
vn 0.981404 0.086002 -0.171607
vn 0.981897 0.075014 -0.173926
vn -0.105212 0.101738 -0.989232
vn -0.105888 0.009463 -0.994333
vn -0.112253 0.209058 -0.971439
vn -0.112960 0.197964 -0.973679
vn 0.066108 -0.071070 0.995278
vn 0.066108 -0.071070 0.995278
vn 0.085563 -0.052643 0.994941
vn 0.082248 -0.092467 0.992313
vn 0.982604 -0.127877 -0.134675
vn 0.982604 -0.127877 -0.134675
vn 0.978976 -0.152610 -0.135339
vn 0.982156 -0.130101 -0.135809
vn -0.065856 0.061634 -0.995924
vn -0.065856 0.061634 -0.995924
vn -0.105888 0.009463 -0.994333
vn -0.105212 0.101738 -0.989232
vn -0.979319 0.151288 0.134333
vn -0.979319 0.151288 0.134333
vn -0.977127 0.181284 0.111171
vn -0.985117 0.122888 0.120178
vn 0.837716 0.545934 -0.013683
vn 0.837716 0.545934 -0.013683
vn 0.837716 0.545934 -0.013683
vn 0.837716 0.545934 -0.013683
s off
f 1/1/1 6/2/2 7/3/3
f 1/1/4 5/4/5 6/2/6
f 6/2/7 5/4/8 3/5/9 4/6/10
f 7/3/11 6/2/12 4/6/13 2/7/14
f 8/8/15 13/9/16 14/10/17
f 8/8/18 12/11/19 13/9/20
f 13/9/21 12/11/22 10/12/23 11/13/24
f 14/10/25 13/9/26 11/13/27 9/14/28
f 15/15/29 20/16/30 21/17/31
f 15/15/32 19/18/33 20/16/34
f 20/16/35 19/18/36 17/19/37 18/20/38
f 21/17/39 20/16/40 18/20/41 16/21/42
f 22/22/43 27/23/44 28/24/45
f 22/22/46 26/25/47 27/23/48
f 27/23/49 26/25/50 24/26/51 25/27/52
f 28/24/53 27/23/54 25/27/55 23/28/56
f 37/29/57 38/30/58 39/31/59 40/32/60
f 31/33/61 32/34/62 34/35/63 33/36/64
f 32/34/65 30/37/66 35/38/67 34/35/68
f 30/37/69 29/39/70 36/40/71 35/38/72
f 29/39/73 31/33/74 33/36/75 36/40/76
f 33/36/77 34/35/78 38/30/79 37/29/80
f 34/35/81 35/38/82 39/31/83 38/30/84
f 35/38/85 36/40/86 40/32/87 39/31/88
f 36/40/89 33/36/90 37/29/91 40/32/92
f 55/43/93 56/44/94 57/45/95 58/46/96
f 89/93/97 90/94/98 46/49/99 45/50/100
f 46/49/101 90/94/102 91/95/103 47/51/104
f 47/51/105 91/95/106 92/96/107 48/52/108
f 48/52/109 92/96/110 89/93/111 45/50/112
f 32/53/113 49/54/114 30/55/115
f 46/49/116 67/56/117 50/57/118 49/54/119
f 50/57/120 31/58/121 29/59/122
f 61/60/123 62/61/124 60/68/125 59/72/126
f 62/61/127 63/62/128 53/69/129 60/68/130
f 63/62/131 64/63/132 54/71/133 53/69/134
f 64/63/135 61/60/136 59/72/137 54/71/138
f 81/64/139 82/65/140 83/66/141 84/67/142
f 60/68/143 53/69/144 52/70/145
f 54/71/146 59/72/147 51/73/148
f 51/73/149 52/70/150 56/44/151 55/43/152
f 52/70/153 53/69/154 57/45/155 56/44/156
f 53/69/157 54/71/158 58/46/159 57/45/160
f 54/71/161 51/73/162 55/43/163 58/46/164
f 61/60/165 65/74/166 62/61/167
f 85/75/168 86/76/169 87/77/170 88/78/171
f 66/79/172 64/63/173 63/62/174
f 30/55/175 49/54/176 65/74/177 61/60/178
f 49/54/179 50/57/180 66/79/181 65/74/182
f 50/57/183 29/59/184 64/63/185 66/79/186
f 29/59/187 30/55/188 61/60/189 64/63/190
f 46/49/191 47/51/192 67/56/193
f 48/52/194 45/50/195 68/80/196
f 59/72/197 60/68/198 70/81/199 69/82/200
f 60/68/201 52/70/202 71/83/203 70/81/204
f 52/70/205 51/73/206 72/84/207 71/83/208
f 51/73/209 59/72/210 69/82/211 72/84/212
f 65/74/213 66/79/214 74/85/215 73/86/216
f 66/79/217 63/62/218 75/87/219 74/85/220
f 63/62/221 62/61/222 76/88/223 75/87/224
f 62/61/225 65/74/226 73/86/227 76/88/228
f 47/51/229 48/52/230 77/89/231 78/90/232
f 48/52/233 68/80/234 79/91/235 77/89/236
f 68/80/237 67/56/238 80/92/239 79/91/240
f 67/56/241 47/51/242 78/90/243 80/92/244
f 69/82/245 70/81/246 82/65/247 81/64/248
f 70/81/249 71/83/250 83/66/251 82/65/252
f 71/83/253 72/84/254 84/67/255 83/66/256
f 72/84/257 69/82/258 81/64/259 84/67/260
f 73/86/261 74/85/262 86/76/263 85/75/264
f 74/85/265 75/87/266 87/77/267 86/76/268
f 75/87/269 76/88/270 88/78/271 87/77/272
f 76/88/273 73/86/274 85/75/275 88/78/276
f 67/56/277 68/80/278 31/58/279 50/57/280
f 68/80/281 45/50/282 32/53/283 31/58/284
f 45/50/285 46/49/286 49/54/287 32/53/288
f 96/100/289 93/97/290 90/94/291 89/93/292
f 93/97/293 94/98/294 91/95/295 90/94/296
f 94/98/297 95/99/298 92/96/299 91/95/300
f 95/99/301 96/100/302 89/93/303 92/96/304
f 42/41/305 44/48/306 94/98/307 93/97/308
f 44/48/309 43/47/310 95/99/311 94/98/312
f 43/47/313 41/42/314 96/100/315 95/99/316
f 41/42/317 42/41/318 93/97/319 96/100/320
f 78/90/321 77/89/322 79/91/323 80/92/324
