# This file uses centimeters as units for non-parametric coordinates.

v 6.472321 94.920471 -4.484634
v 6.472321 102.688141 -8.969345
v 6.472321 110.455811 -4.484634
v 6.472321 110.455811 4.484634
v 6.472321 102.688141 8.969345
v 6.472321 94.920425 4.484634
v 243.807068 94.920471 -4.484634
v 243.807068 102.688141 -8.969345
v 243.807068 110.455811 -4.484634
v 243.807068 110.455811 4.484634
v 243.807068 102.688141 8.969345
v 243.807068 94.920425 4.484634
v 6.472321 102.688141 0.000000
v 243.807068 102.688141 0.000000
v 88.307877 109.781982 4.484634
v 89.224701 110.455811 -4.484634
v 89.220047 101.476410 -8.969345
v 53.569107 95.646484 -4.484634
v 53.569107 95.646393 4.484634
v 91.048050 101.550751 8.969345
v 6.472321 38.198204 -4.484634
v 6.472321 45.965881 -8.969345
v 6.472321 53.733559 -4.484634
v 6.472321 53.733559 4.484634
v 6.472321 45.965881 8.969345
v 6.472321 38.198166 4.484634
v 243.807068 38.198204 -4.484634
v 243.807068 45.965881 -8.969345
v 243.807068 53.733559 -4.484634
v 243.807068 53.733559 4.484634
v 243.807068 45.965881 8.969345
v 243.807068 38.198166 4.484634
v 6.472321 45.965881 0.000000
v 243.807068 45.965881 0.000000
v 165.917419 52.362671 4.484634
v 165.917419 52.362671 -4.484634
v 164.212097 43.049927 -8.969345
v 165.917419 36.827354 -4.484634
v 165.917419 36.827278 4.484634
v 164.241272 43.622055 8.969345
v 92.159805 53.733559 4.484634
v 92.159805 53.733559 -4.484634
v 92.159805 45.965881 -8.969345
v 92.159805 38.198204 -4.484634
v 92.159805 38.198166 4.484634
v 92.159805 45.965881 8.969345
vt 0.036856 0.252917
vt 0.036856 0.252917
vt 0.036856 0.252917
vt 0.036856 0.252917
vt 0.036856 0.252917
vt 0.036856 0.252917
vt 0.036856 0.252917
vt 0.036856 0.252917
vt 0.036856 0.252917
vt 0.036856 0.252917
vt 0.036856 0.252917
vt 0.036856 0.252917
vt 0.036856 0.252917
vt 0.036856 0.252917
vt 0.036856 0.252917
vt 0.036856 0.252917
vt 0.036856 0.252917
vt 0.036856 0.252917
vt 0.036856 0.252917
vt 0.036856 0.252917
vt 0.036856 0.252917
vt 0.036856 0.252917
vt 0.036856 0.252917
vt 0.036856 0.252917
vt 0.036856 0.252917
vt 0.036856 0.252917
vt 0.036856 0.252917
vt 0.036856 0.252917
vt 0.036856 0.252917
vt 0.036856 0.252917
vt 0.036856 0.252917
vt 0.036856 0.252917
vt 0.036856 0.252917
vt 0.036856 0.252917
vt 0.036856 0.252917
vt 0.036856 0.252917
vt 0.036856 0.252917
vt 0.036856 0.252917
vt 0.036856 0.252917
vt 0.036856 0.252917
vt 0.036856 0.252917
vt 0.036856 0.252917
vt 0.036856 0.252917
vt 0.036856 0.252917
vt 0.036856 0.252917
vt 0.036856 0.252917
vt 0.036856 0.252917
vt 0.036856 0.252917
vt 0.036856 0.252917
vt 0.036856 0.252917
vt 0.036856 0.252917
vt 0.036856 0.252917
vt 0.036856 0.252917
vt 0.036856 0.252917
vt 0.036856 0.252917
vt 0.036856 0.252917
vt 0.036856 0.252917
vt 0.036856 0.252917
vt 0.036856 0.252917
vt 0.036856 0.252917
vt 0.036856 0.252917
vt 0.036856 0.252917
vt 0.036856 0.252917
vn -0.002046 -0.546885 -0.837205
vn -0.002046 -0.546885 -0.837205
vn 0.000701 -0.551910 -0.833904
vn -0.001607 -0.547689 -0.836680
vn 0.003457 0.472127 -0.881524
vn 0.003457 0.472127 -0.881524
vn -0.000001 0.472130 -0.881529
vn -0.000004 0.472130 -0.881529
vn 0.004091 0.999279 0.037744
vn 0.004091 0.999279 0.037744
vn 0.000187 0.999295 0.037546
vn -0.000180 0.999296 0.037528
vn 0.005330 0.489707 0.871871
vn 0.005330 0.489707 0.871871
vn -0.000650 0.488935 0.872320
vn 0.000716 0.489113 0.872220
vn -0.001704 -0.545264 0.838263
vn -0.001704 -0.545264 0.838263
vn -0.001355 -0.545934 0.837827
vn 0.000597 -0.549678 0.835377
vn 0.000000 -1.000000 -0.000008
vn 0.015413 -0.999881 -0.000007
vn 0.015413 -0.999881 -0.000007
vn -0.000000 -1.000000 -0.000008
vn -1.000000 0.000000 0.000000
vn -1.000000 0.000000 0.000000
vn -1.000000 -0.000000 0.000000
vn -1.000000 0.000000 0.000000
vn -1.000000 0.000000 0.000000
vn -1.000000 -0.000000 0.000000
vn -1.000000 0.000000 0.000000
vn -1.000000 0.000000 0.000000
vn -1.000000 -0.000000 0.000000
vn -1.000000 -0.000000 0.000000
vn -1.000000 0.000000 0.000000
vn -1.000000 -0.000000 0.000000
vn -1.000000 -0.000000 0.000000
vn -1.000000 -0.000000 0.000000
vn -1.000000 -0.000000 0.000000
vn -1.000000 0.000000 0.000000
vn -1.000000 -0.000000 0.000000
vn -1.000000 -0.000000 0.000000
vn 1.000000 0.000000 0.000000
vn 1.000000 0.000000 0.000000
vn 1.000000 0.000000 0.000000
vn 1.000000 0.000000 0.000000
vn 1.000000 0.000000 0.000000
vn 1.000000 0.000000 0.000000
vn 1.000000 0.000000 0.000000
vn 1.000000 0.000000 0.000000
vn 1.000000 0.000000 0.000000
vn 1.000000 0.000000 0.000000
vn 1.000000 0.000000 0.000000
vn 1.000000 0.000000 0.000000
vn 1.000000 0.000000 0.000000
vn 1.000000 0.000000 0.000000
vn 1.000000 0.000000 0.000000
vn 1.000000 0.000000 0.000000
vn 1.000000 0.000000 0.000000
vn 1.000000 0.000000 0.000000
vn -0.000180 0.999296 0.037528
vn 0.000187 0.999295 0.037546
vn -0.002172 0.999297 0.037427
vn -0.002172 0.999297 0.037427
vn -0.000004 0.472130 -0.881529
vn -0.000001 0.472130 -0.881529
vn -0.001850 0.472130 -0.881527
vn -0.001850 0.472130 -0.881527
vn -0.001607 -0.547689 -0.836680
vn 0.000701 -0.551910 -0.833904
vn 0.000778 -0.552049 -0.833811
vn 0.000778 -0.552049 -0.833811
vn -0.003816 -0.999993 -0.000008
vn 0.000000 -1.000000 -0.000008
vn -0.000000 -1.000000 -0.000008
vn -0.003816 -0.999993 -0.000008
vn 0.000597 -0.549678 0.835377
vn -0.001355 -0.545934 0.837827
vn 0.000659 -0.549797 0.835298
vn 0.000659 -0.549797 0.835298
vn 0.000716 0.489113 0.872220
vn -0.000650 0.488935 0.872320
vn -0.002871 0.488644 0.872479
vn -0.002871 0.488644 0.872479
vn 0.000000 -0.500003 -0.866023
vn 0.000000 -0.500003 -0.866023
vn -0.006916 -0.517997 -0.855354
vn -0.007044 -0.518329 -0.855152
vn 0.000000 0.500003 -0.866023
vn 0.000000 0.500003 -0.866023
vn 0.006490 0.482896 -0.875654
vn 0.006600 0.482604 -0.875814
vn 0.000000 1.000000 0.000000
vn 0.000000 1.000000 0.000000
vn 0.008598 0.999963 0.000000
vn 0.008598 0.999963 0.000000
vn 0.000000 0.500003 0.866023
vn 0.000000 0.500003 0.866023
vn 0.005779 0.488829 0.872361
vn 0.005694 0.488994 0.872269
vn 0.000000 -0.500002 0.866025
vn 0.000000 -0.500002 0.866025
vn -0.006023 -0.511542 0.859237
vn -0.005930 -0.511364 0.859344
vn -0.008597 -0.999963 -0.000005
vn 0.000000 -1.000000 -0.000004
vn 0.000000 -1.000000 -0.000004
vn -0.008597 -0.999963 -0.000005
vn -1.000000 0.000000 0.000000
vn -1.000000 0.000000 0.000000
vn -1.000000 -0.000000 0.000000
vn -1.000000 0.000000 0.000000
vn -1.000000 0.000000 0.000000
vn -1.000000 -0.000000 0.000000
vn -1.000000 0.000000 0.000000
vn -1.000000 0.000000 0.000000
vn -1.000000 -0.000000 0.000000
vn -1.000000 -0.000000 0.000000
vn -1.000000 0.000000 0.000000
vn -1.000000 -0.000000 0.000000
vn -1.000000 -0.000000 0.000000
vn -1.000000 -0.000000 0.000000
vn -1.000000 -0.000000 0.000000
vn -1.000000 0.000000 0.000000
vn -1.000000 -0.000000 0.000000
vn -1.000000 -0.000000 0.000000
vn 1.000000 0.000000 0.000000
vn 1.000000 0.000000 0.000000
vn 1.000000 0.000000 0.000000
vn 1.000000 0.000000 0.000000
vn 1.000000 0.000000 0.000000
vn 1.000000 0.000000 0.000000
vn 1.000000 0.000000 0.000000
vn 1.000000 0.000000 0.000000
vn 1.000000 0.000000 0.000000
vn 1.000000 0.000000 0.000000
vn 1.000000 0.000000 0.000000
vn 1.000000 0.000000 0.000000
vn 1.000000 0.000000 0.000000
vn 1.000000 0.000000 0.000000
vn 1.000000 0.000000 0.000000
vn 1.000000 0.000000 0.000000
vn 1.000000 0.000000 0.000000
vn 1.000000 0.000000 0.000000
vn 0.000000 1.000000 0.000000
vn 0.000000 1.000000 0.000000
vn -0.017598 0.999845 0.000000
vn -0.017598 0.999845 0.000000
vn 0.001389 0.464814 -0.885407
vn -0.001345 0.465028 -0.885295
vn -0.012682 0.465878 -0.884758
vn -0.012682 0.465878 -0.884758
vn 0.002136 -0.539536 -0.841960
vn -0.002110 -0.539903 -0.841725
vn 0.014655 -0.538397 -0.842564
vn 0.014655 -0.538397 -0.842564
vn 0.017597 -0.999845 -0.000006
vn 0.000000 -1.000000 -0.000006
vn 0.000000 -1.000000 -0.000006
vn 0.017597 -0.999845 -0.000006
vn -0.001652 -0.524569 0.851366
vn 0.001671 -0.524292 0.851537
vn 0.012347 -0.523361 0.852021
vn 0.012347 -0.523361 0.852022
vn -0.001237 0.477508 0.878626
vn 0.001275 0.477311 0.878733
vn -0.011283 0.478265 0.878143
vn -0.011283 0.478265 0.878143
vn 0.008598 0.999963 0.000000
vn 0.008598 0.999963 0.000000
vn 0.000000 1.000000 0.000000
vn 0.000000 1.000000 0.000000
vn 0.006600 0.482604 -0.875814
vn 0.006490 0.482896 -0.875654
vn -0.001345 0.465028 -0.885295
vn 0.001389 0.464814 -0.885407
vn -0.007044 -0.518329 -0.855152
vn -0.006916 -0.517997 -0.855354
vn -0.002110 -0.539903 -0.841725
vn 0.002136 -0.539536 -0.841960
vn 0.000000 -1.000000 -0.000006
vn -0.008597 -0.999963 -0.000005
vn -0.008597 -0.999963 -0.000005
vn 0.000000 -1.000000 -0.000006
vn -0.005930 -0.511364 0.859344
vn -0.006023 -0.511542 0.859237
vn 0.001671 -0.524292 0.851537
vn -0.001652 -0.524569 0.851366
vn 0.005694 0.488994 0.872269
vn 0.005779 0.488829 0.872361
vn 0.001275 0.477311 0.878733
vn -0.001237 0.477508 0.878626
s off
f 1/1/1 2/2/2 17/24/3 18/26/4
f 2/2/5 3/3/6 16/23/7 17/24/8
f 3/3/9 4/4/10 15/22/11 16/23/12
f 4/4/13 5/5/14 20/28/15 15/22/16
f 5/5/17 6/6/18 19/27/19 20/28/20
f 19/27/21 6/6/22 1/1/23 18/25/24
f 2/2/25 1/1/26 13/7/27
f 3/3/28 2/2/29 13/7/30
f 4/4/31 3/3/32 13/7/33
f 5/5/34 4/4/35 13/7/36
f 6/6/37 5/5/38 13/7/39
f 1/1/40 6/6/41 13/7/42
f 7/19/43 8/18/44 14/21/45
f 8/18/46 9/17/47 14/21/48
f 9/17/49 10/16/50 14/21/51
f 10/16/52 11/15/53 14/21/54
f 11/15/55 12/20/56 14/21/57
f 12/20/58 7/19/59 14/21/60
f 16/23/61 15/22/62 10/11/63 9/10/64
f 17/24/65 16/23/66 9/10/67 8/9/68
f 18/26/69 17/24/70 8/9/71 7/8/72
f 12/13/73 19/27/74 18/25/75 7/14/76
f 20/28/77 19/27/78 12/13/79 11/12/80
f 15/22/81 20/28/82 11/12/83 10/11/84
f 21/29/85 22/30/86 43/31/87 44/32/88
f 22/30/89 23/33/90 42/34/91 43/31/92
f 23/33/93 24/35/94 41/36/95 42/34/96
f 24/35/97 25/37/98 46/38/99 41/36/100
f 25/37/101 26/39/102 45/40/103 46/38/104
f 45/40/105 26/39/106 21/29/107 44/41/108
f 22/30/109 21/29/110 33/42/111
f 23/33/112 22/30/113 33/42/114
f 24/35/115 23/33/116 33/42/117
f 25/37/118 24/35/119 33/42/120
f 26/39/121 25/37/122 33/42/123
f 21/29/124 26/39/125 33/42/126
f 27/43/127 28/44/128 34/45/129
f 28/44/130 29/46/131 34/45/132
f 29/46/133 30/47/134 34/45/135
f 30/47/136 31/48/137 34/45/138
f 31/48/139 32/49/140 34/45/141
f 32/49/142 27/43/143 34/45/144
f 36/50/145 35/51/146 30/52/147 29/53/148
f 37/54/149 36/50/150 29/53/151 28/55/152
f 38/56/153 37/54/154 28/55/155 27/57/156
f 32/58/157 39/59/158 38/60/159 27/61/160
f 40/62/161 39/59/162 32/58/163 31/63/164
f 35/51/165 40/62/166 31/63/167 30/52/168
f 42/34/169 41/36/170 35/51/171 36/50/172
f 43/31/173 42/34/174 36/50/175 37/54/176
f 44/32/177 43/31/178 37/54/179 38/56/180
f 39/59/181 45/40/182 44/41/183 38/60/184
f 46/38/185 45/40/186 39/59/187 40/62/188
f 41/36/189 46/38/190 40/62/191 35/51/192
