# This file uses centimeters as units for non-parametric coordinates.

v 306.931763 2.948147 8.879929
v 303.137238 124.415070 8.879929
v 298.476196 2.684002 8.879929
v 294.681671 124.150925 8.879929
v 298.476196 2.684002 0.420303
v 294.681671 124.150925 0.420303
v 306.931763 2.948147 0.420303
v 303.137238 124.415070 0.420303
v 0.000000 17.650232 0.608368
v 500.000000 17.650232 0.608368
v 0.000000 18.866905 0.608368
v 500.000000 18.866905 0.608368
v 0.000000 18.866905 -0.608368
v 500.000000 18.866905 -0.608368
v 0.000000 17.650232 -0.608368
v 500.000000 17.650232 -0.608368
v 249.522720 19.203485 0.837936
v 249.522720 20.236315 0.194855
v 249.522720 19.593231 -0.837936
v 249.522720 18.560402 -0.194855
v 373.621094 18.866905 0.608368
v 373.621094 18.866905 -0.608368
v 373.621094 17.650232 -0.608368
v 373.621094 17.650232 0.608368
v 0.000000 48.082237 0.608368
v 500.000000 51.761433 0.608368
v 0.000000 49.298904 0.608368
v 500.000000 52.978100 0.608368
v 0.000000 49.298904 -0.608368
v 500.000000 52.978100 -0.608368
v 0.000000 48.082237 -0.608368
v 500.000000 51.761433 -0.608368
v 108.274002 52.978100 0.608368
v 108.274002 52.978100 -0.608368
v 108.274002 51.761433 -0.608368
v 108.274002 51.761433 0.608368
v 206.431320 54.243805 0.321350
v 206.431320 53.767097 -0.798035
v 206.431320 52.647705 -0.321350
v 206.431320 53.124401 0.798035
v 110.081856 2.841928 10.412979
v 112.828461 124.287346 6.938171
v 101.633842 3.044315 10.808868
v 104.380470 124.489738 7.334061
v 101.232437 2.811709 2.361908
v 103.979050 124.257133 -1.112900
v 109.680450 2.609322 1.966019
v 112.427055 124.054741 -1.508789
v 0.000000 83.552635 0.608368
v 500.000000 85.153831 0.608368
v 0.000000 84.769302 0.608368
v 500.000000 86.370522 0.608368
v 0.000000 84.769302 -0.608368
v 500.000000 86.370522 -0.608368
v 0.000000 83.552635 -0.608368
v 500.000000 85.153831 -0.608368
v 353.374084 83.592194 0.747070
v 353.374084 83.912514 -0.426712
v 353.374084 82.738777 -0.747070
v 353.374084 82.418434 0.426712
v 208.025482 85.153831 0.608368
v 208.025482 86.370522 0.608368
v 208.025482 86.370522 -0.608368
v 208.025482 85.153831 -0.608368
v 0.000000 115.341927 0.608368
v 500.000000 115.341927 0.608368
v 0.000000 116.558601 0.608368
v 500.000000 116.558601 0.608368
v 0.000000 116.558601 -0.608368
v 500.000000 116.558601 -0.608368
v 0.000000 115.341927 -0.608368
v 500.000000 115.341927 -0.608368
v 110.946419 116.558601 0.608368
v 110.946419 116.558601 -0.608368
v 110.946419 115.341927 -0.608368
v 110.946419 115.341927 0.608368
v 392.709625 116.558601 0.608368
v 392.709625 116.558601 -0.608368
v 392.709625 115.341927 -0.608368
v 392.709625 115.341927 0.608368
v 239.044678 113.382446 0.849991
v 239.044678 114.099792 -0.132675
v 239.044678 113.117073 -0.849991
v 239.044678 112.399742 0.132675
v 395.575470 2.675171 8.879929
v 399.855591 124.125954 8.879929
v 387.120972 2.973120 8.879929
v 391.401093 124.423897 8.879929
v 387.120972 2.973120 0.420303
v 391.401093 124.423897 0.420303
v 395.575470 2.675171 0.420303
v 399.855591 124.125954 0.420303
v 211.361023 2.786448 8.879929
v 211.361023 124.312614 8.879929
v 202.901306 2.786448 8.879929
v 202.901306 124.312614 8.879929
v 202.901306 2.786448 0.420303
v 202.901306 124.312614 0.420303
v 211.361023 2.786448 0.420303
v 211.361023 124.312614 0.420303
vt 0.038589 0.253958
vt 0.038589 0.253958
vt 0.038589 0.253958
vt 0.038589 0.253958
vt 0.038589 0.253958
vt 0.038589 0.253958
vt 0.038589 0.253958
vt 0.038589 0.253958
vt 0.038589 0.253958
vt 0.038589 0.253958
vt 0.038589 0.253958
vt 0.038589 0.253958
vt 0.038589 0.253958
vt 0.038589 0.253958
vt 0.089539 0.276455
vt 0.089539 0.276455
vt 0.089539 0.276455
vt 0.089539 0.276455
vt 0.089539 0.276455
vt 0.089539 0.276455
vt 0.089539 0.276455
vt 0.089539 0.276455
vt 0.089539 0.276455
vt 0.089539 0.276455
vt 0.089539 0.276455
vt 0.089539 0.276455
vt 0.089539 0.276455
vt 0.089539 0.276455
vt 0.089539 0.276455
vt 0.089539 0.276455
vt 0.089539 0.276455
vt 0.089539 0.276455
vt 0.089539 0.276455
vt 0.089539 0.276455
vt 0.089539 0.276455
vt 0.089539 0.276455
vt 0.089539 0.276455
vt 0.089539 0.276455
vt 0.089539 0.276455
vt 0.089539 0.276455
vt 0.089539 0.276455
vt 0.089539 0.276455
vt 0.089539 0.276455
vt 0.089539 0.276455
vt 0.089539 0.276455
vt 0.089539 0.276455
vt 0.089539 0.276455
vt 0.089539 0.276455
vt 0.089539 0.276455
vt 0.089539 0.276455
vt 0.089539 0.276455
vt 0.089539 0.276455
vt 0.089539 0.276455
vt 0.089539 0.276455
vt 0.089539 0.276455
vt 0.089539 0.276455
vt 0.089539 0.276455
vt 0.089539 0.276455
vt 0.089539 0.276455
vt 0.089539 0.276455
vt 0.089539 0.276455
vt 0.089539 0.276455
vt 0.038589 0.253958
vt 0.038589 0.253958
vt 0.038589 0.253958
vt 0.038589 0.253958
vt 0.038589 0.253958
vt 0.038589 0.253958
vt 0.038589 0.253958
vt 0.038589 0.253958
vt 0.038589 0.253958
vt 0.038589 0.253958
vt 0.038589 0.253958
vt 0.038589 0.253958
vt 0.038589 0.253958
vt 0.038589 0.253958
vt 0.089539 0.276455
vt 0.089539 0.276455
vt 0.089539 0.276455
vt 0.089539 0.276455
vt 0.089539 0.276455
vt 0.089539 0.276455
vt 0.089539 0.276455
vt 0.089539 0.276455
vt 0.089539 0.276455
vt 0.089539 0.276455
vt 0.089539 0.276455
vt 0.089539 0.276455
vt 0.089539 0.276455
vt 0.089539 0.276455
vt 0.089539 0.276455
vt 0.089539 0.276455
vt 0.089539 0.276455
vt 0.089539 0.276455
vt 0.089539 0.276455
vt 0.089539 0.276455
vt 0.089539 0.276455
vt 0.089539 0.276455
vt 0.089539 0.276455
vt 0.089539 0.276455
vt 0.089539 0.276455
vt 0.089539 0.276455
vt 0.089539 0.276455
vt 0.089539 0.276455
vt 0.089539 0.276455
vt 0.089539 0.276455
vt 0.089539 0.276455
vt 0.089539 0.276455
vt 0.089539 0.276455
vt 0.089539 0.276455
vt 0.089539 0.276455
vt 0.089539 0.276455
vt 0.089539 0.276455
vt 0.089539 0.276455
vt 0.089539 0.276455
vt 0.089539 0.276455
vt 0.089539 0.276455
vt 0.089539 0.276455
vt 0.089539 0.276455
vt 0.089539 0.276455
vt 0.089539 0.276455
vt 0.089539 0.276455
vt 0.089539 0.276455
vt 0.089539 0.276455
vt 0.089539 0.276455
vt 0.089539 0.276455
vt 0.089539 0.276455
vt 0.089539 0.276455
vt 0.089539 0.276455
vt 0.038589 0.253958
vt 0.038589 0.253958
vt 0.038589 0.253958
vt 0.038589 0.253958
vt 0.038589 0.253958
vt 0.038589 0.253958
vt 0.038589 0.253958
vt 0.038589 0.253958
vt 0.038589 0.253958
vt 0.038589 0.253958
vt 0.038589 0.253958
vt 0.038589 0.253958
vt 0.038589 0.253958
vt 0.038589 0.253958
vt 0.038589 0.253958
vt 0.038589 0.253958
vt 0.038589 0.253958
vt 0.038589 0.253958
vt 0.038589 0.253958
vt 0.038589 0.253958
vt 0.038589 0.253958
vt 0.038589 0.253958
vt 0.038589 0.253958
vt 0.038589 0.253958
vt 0.038589 0.253958
vt 0.038589 0.253958
vt 0.038589 0.253958
vt 0.038589 0.253958
vn -0.000000 0.000000 1.000000
vn -0.000000 0.000000 1.000000
vn -0.000000 0.000000 1.000000
vn -0.000000 0.000000 1.000000
vn -0.999512 -0.031224 0.000000
vn -0.999512 -0.031224 0.000000
vn -0.999512 -0.031224 0.000000
vn -0.999512 -0.031224 0.000000
vn 0.000000 0.000000 -1.000000
vn 0.000000 0.000000 -1.000000
vn 0.000000 0.000000 -1.000000
vn 0.000000 0.000000 -1.000000
vn 0.999512 0.031224 0.000000
vn 0.999512 0.031224 0.000000
vn 0.999512 0.031224 0.000000
vn 0.999512 0.031224 0.000000
vn -0.031224 0.999512 0.000000
vn -0.031224 0.999512 0.000000
vn -0.031224 0.999512 0.000000
vn -0.031224 0.999512 0.000000
vn 0.031224 -0.999512 0.000000
vn 0.031224 -0.999512 0.000000
vn 0.031224 -0.999512 0.000000
vn 0.031224 -0.999512 0.000000
vn 0.002218 -0.485495 0.874236
vn 0.000001 -0.485497 0.874238
vn 0.000001 -0.485497 0.874239
vn 0.002218 -0.485495 0.874236
vn -0.003993 0.874230 0.485495
vn 0.000001 0.874237 0.485499
vn -0.000005 0.874237 0.485499
vn -0.003993 0.874230 0.485495
vn -0.002218 0.485495 -0.874236
vn -0.000005 0.485496 -0.874239
vn 0.000003 0.485496 -0.874239
vn -0.002218 0.485495 -0.874236
vn 0.003993 -0.874230 -0.485495
vn 0.000012 -0.874237 -0.485499
vn -0.000008 -0.874237 -0.485499
vn 0.003993 -0.874230 -0.485495
vn 1.000000 0.000000 0.000000
vn 1.000000 0.000000 0.000000
vn 1.000000 0.000000 0.000000
vn 1.000000 0.000000 0.000000
vn -1.000000 0.000000 0.000000
vn -1.000000 0.000000 0.000000
vn -1.000000 0.000000 0.000000
vn -1.000000 0.000000 0.000000
vn 0.000001 0.874237 0.485499
vn 0.003833 0.972765 0.231761
vn 0.003822 0.972923 0.231096
vn -0.000005 0.874237 0.485499
vn 0.000003 0.485496 -0.874239
vn -0.000005 0.485496 -0.874239
vn 0.002135 0.232492 -0.972596
vn 0.002116 0.230361 -0.973103
vn -0.000008 -0.874237 -0.485499
vn 0.000012 -0.874237 -0.485499
vn -0.003833 -0.972766 -0.231760
vn -0.003822 -0.972924 -0.231095
vn 0.000001 -0.485497 0.874239
vn 0.000001 -0.485497 0.874238
vn -0.002122 -0.231029 0.972944
vn -0.002129 -0.231831 0.972754
vn 0.003833 0.972765 0.231761
vn 0.000000 1.000000 0.000000
vn 0.000000 1.000000 0.000000
vn 0.003822 0.972923 0.231096
vn 0.002116 0.230361 -0.973103
vn 0.002135 0.232492 -0.972596
vn 0.000000 0.000000 -1.000000
vn 0.000000 0.000000 -1.000000
vn -0.003822 -0.972924 -0.231095
vn -0.003833 -0.972766 -0.231760
vn 0.000000 -1.000000 0.000000
vn 0.000000 -1.000000 0.000000
vn -0.002129 -0.231831 0.972754
vn -0.002122 -0.231029 0.972944
vn 0.000000 0.000000 1.000000
vn 0.000000 0.000000 1.000000
vn 0.000000 0.000000 1.000000
vn -0.001019 0.093013 0.995664
vn -0.001053 0.096034 0.995378
vn 0.000000 0.000000 1.000000
vn -0.033961 0.999423 0.000000
vn -0.023170 0.995264 -0.094411
vn -0.023152 0.995249 -0.094566
vn -0.033961 0.999423 0.000000
vn 0.000000 0.000000 -1.000000
vn 0.001051 -0.095880 -0.995392
vn 0.001021 -0.093169 -0.995650
vn 0.000000 0.000000 -1.000000
vn 0.033961 -0.999423 0.000000
vn 0.023170 -0.995264 0.094410
vn 0.023152 -0.995250 0.094564
vn 0.033961 -0.999423 0.000000
vn 1.000000 0.000000 0.000000
vn 1.000000 0.000000 0.000000
vn 1.000000 0.000000 0.000000
vn 1.000000 0.000000 0.000000
vn -1.000000 0.000000 0.000000
vn -1.000000 0.000000 0.000000
vn -1.000000 0.000000 0.000000
vn -1.000000 0.000000 0.000000
vn -0.023170 0.995264 -0.094411
vn 0.000003 0.979808 -0.199943
vn -0.000002 0.979808 -0.199943
vn -0.023152 0.995249 -0.094566
vn 0.001021 -0.093169 -0.995650
vn 0.001051 -0.095880 -0.995392
vn -0.000002 -0.199935 -0.979809
vn 0.000002 -0.199935 -0.979809
vn 0.023152 -0.995250 0.094564
vn 0.023170 -0.995264 0.094410
vn 0.000007 -0.979809 0.199936
vn -0.000008 -0.979809 0.199936
vn -0.001053 0.096034 0.995378
vn -0.001019 0.093013 0.995664
vn -0.000003 0.199934 0.979809
vn 0.000003 0.199934 0.979810
vn 0.000003 0.979808 -0.199943
vn 0.003591 0.979801 -0.199942
vn 0.003591 0.979801 -0.199942
vn -0.000002 0.979808 -0.199943
vn 0.000002 -0.199935 -0.979809
vn -0.000002 -0.199935 -0.979809
vn -0.000733 -0.199935 -0.979809
vn -0.000733 -0.199935 -0.979809
vn -0.000008 -0.979809 0.199936
vn 0.000007 -0.979809 0.199936
vn -0.003591 -0.979803 0.199934
vn -0.003591 -0.979803 0.199934
vn 0.000003 0.199934 0.979810
vn -0.000003 0.199934 0.979809
vn 0.000733 0.199934 0.979809
vn 0.000733 0.199934 0.979809
vn 0.047450 0.027496 0.998495
vn 0.047450 0.027496 0.998495
vn 0.047450 0.027496 0.998495
vn 0.047450 0.027496 0.998495
vn -0.998618 0.023924 0.046797
vn -0.998618 0.023924 0.046797
vn -0.998618 0.023924 0.046797
vn -0.998618 0.023924 0.046797
vn -0.047450 -0.027496 -0.998495
vn -0.047450 -0.027496 -0.998495
vn -0.047450 -0.027496 -0.998495
vn -0.047450 -0.027496 -0.998495
vn 0.998618 -0.023924 -0.046796
vn 0.998618 -0.023924 -0.046796
vn 0.998618 -0.023924 -0.046796
vn 0.998618 -0.023924 -0.046796
vn 0.022602 0.999336 -0.028593
vn 0.022602 0.999336 -0.028593
vn 0.022602 0.999336 -0.028593
vn 0.022602 0.999336 -0.028593
vn -0.022601 -0.999336 0.028593
vn -0.022601 -0.999336 0.028593
vn -0.022601 -0.999336 0.028593
vn -0.022601 -0.999336 0.028593
vn 0.000000 0.000000 1.000000
vn -0.000977 -0.054692 0.998503
vn -0.000969 -0.054230 0.998528
vn 0.000000 0.000000 1.000000
vn -0.007697 0.999970 0.000000
vn 0.002707 0.998511 0.054477
vn 0.002698 0.998514 0.054432
vn -0.007697 0.999970 0.000000
vn 0.000000 0.000000 -1.000000
vn 0.000970 0.054275 -0.998526
vn 0.000976 0.054647 -0.998505
vn 0.000000 0.000000 -1.000000
vn 0.007697 -0.999970 0.000000
vn -0.002707 -0.998511 -0.054479
vn -0.002698 -0.998514 -0.054434
vn 0.007697 -0.999970 0.000000
vn 1.000000 0.000000 0.000000
vn 1.000000 0.000000 0.000000
vn 1.000000 0.000000 0.000000
vn 1.000000 0.000000 0.000000
vn -1.000000 0.000000 0.000000
vn -1.000000 0.000000 0.000000
vn -1.000000 0.000000 0.000000
vn -1.000000 0.000000 0.000000
vn -0.000000 0.991141 0.132812
vn -0.017550 0.990988 0.132793
vn -0.017550 0.990988 0.132793
vn 0.000000 0.991141 0.132812
vn -0.000000 0.132830 -0.991139
vn 0.000000 0.132830 -0.991139
vn -0.002352 0.132829 -0.991136
vn -0.002352 0.132829 -0.991136
vn 0.000000 -0.991141 -0.132817
vn -0.000000 -0.991141 -0.132817
vn 0.017550 -0.990988 -0.132798
vn 0.017550 -0.990988 -0.132798
vn -0.000000 -0.132829 0.991139
vn 0.000000 -0.132829 0.991139
vn 0.002352 -0.132829 0.991136
vn 0.002352 -0.132829 0.991136
vn -0.000977 -0.054692 0.998503
vn 0.000000 -0.132829 0.991139
vn -0.000000 -0.132829 0.991139
vn -0.000969 -0.054230 0.998528
vn 0.002698 0.998514 0.054432
vn 0.002707 0.998511 0.054477
vn -0.000000 0.991141 0.132812
vn 0.000000 0.991141 0.132812
vn 0.000976 0.054647 -0.998505
vn 0.000970 0.054275 -0.998526
vn 0.000000 0.132830 -0.991139
vn -0.000000 0.132830 -0.991139
vn -0.002698 -0.998514 -0.054434
vn -0.002707 -0.998511 -0.054479
vn -0.000000 -0.991141 -0.132817
vn 0.000000 -0.991141 -0.132817
vn 0.000000 0.000000 1.000000
vn -0.003487 -0.165420 0.986217
vn -0.003437 -0.163041 0.986613
vn 0.000000 0.000000 1.000000
vn 0.000000 1.000000 0.000000
vn 0.010625 0.986341 0.164373
vn 0.010606 0.986388 0.164094
vn 0.000000 1.000000 0.000000
vn 0.000000 0.000000 -1.000000
vn 0.003443 0.163323 -0.986567
vn 0.003482 0.165145 -0.986263
vn 0.000000 0.000000 -1.000000
vn 0.000000 -1.000000 0.000000
vn -0.010624 -0.986342 -0.164370
vn -0.010606 -0.986388 -0.164091
vn 0.000000 -1.000000 0.000000
vn 1.000000 0.000000 0.000000
vn 1.000000 0.000000 0.000000
vn 1.000000 0.000000 0.000000
vn 1.000000 0.000000 0.000000
vn -1.000000 0.000000 0.000000
vn -1.000000 0.000000 0.000000
vn -1.000000 0.000000 0.000000
vn -1.000000 0.000000 0.000000
vn 0.010625 0.986341 0.164373
vn -0.000016 0.950711 0.310078
vn 0.000014 0.950711 0.310078
vn 0.010606 0.986388 0.164094
vn 0.003482 0.165145 -0.986263
vn 0.003443 0.163323 -0.986567
vn 0.000004 0.310069 -0.950714
vn -0.000005 0.310069 -0.950714
vn -0.010606 -0.986388 -0.164091
vn -0.010624 -0.986342 -0.164370
vn -0.000008 -0.950712 -0.310076
vn 0.000010 -0.950712 -0.310076
vn -0.003437 -0.163041 0.986613
vn -0.003487 -0.165420 0.986217
vn 0.000007 -0.310070 0.950714
vn -0.000006 -0.310070 0.950714
vn -0.009755 0.983428 0.181036
vn 0.000000 1.000000 0.000000
vn 0.000000 1.000000 0.000000
vn -0.009742 0.983470 0.180809
vn -0.003193 0.181664 -0.983356
vn -0.003167 0.180183 -0.983628
vn 0.000000 0.000000 -1.000000
vn 0.000000 0.000000 -1.000000
vn 0.009742 -0.983470 -0.180809
vn 0.009755 -0.983428 -0.181036
vn 0.000000 -1.000000 0.000000
vn 0.000000 -1.000000 0.000000
vn 0.003162 -0.179953 0.983670
vn 0.003196 -0.181888 0.983314
vn 0.000000 0.000000 1.000000
vn 0.000000 0.000000 1.000000
vn -0.000016 0.950711 0.310078
vn -0.009755 0.983428 0.181036
vn -0.009742 0.983470 0.180809
vn 0.000014 0.950711 0.310078
vn -0.000005 0.310069 -0.950714
vn 0.000004 0.310069 -0.950714
vn -0.003167 0.180183 -0.983628
vn -0.003193 0.181664 -0.983356
vn 0.000010 -0.950712 -0.310076
vn -0.000008 -0.950712 -0.310076
vn 0.009755 -0.983428 -0.181036
vn 0.009742 -0.983470 -0.180809
vn -0.000006 -0.310070 0.950714
vn 0.000007 -0.310070 0.950714
vn 0.003196 -0.181888 0.983314
vn 0.003162 -0.179953 0.983670
vn 0.000000 0.000000 1.000000
vn 0.000000 0.000000 1.000000
vn 0.000000 0.000000 1.000000
vn 0.000000 0.000000 1.000000
vn -0.999380 0.035220 0.000000
vn -0.999380 0.035220 0.000000
vn -0.999380 0.035220 0.000000
vn -0.999380 0.035220 0.000000
vn -0.000000 0.000000 -1.000000
vn -0.000000 0.000000 -1.000000
vn -0.000000 0.000000 -1.000000
vn -0.000000 0.000000 -1.000000
vn 0.999380 -0.035220 0.000000
vn 0.999380 -0.035220 0.000000
vn 0.999380 -0.035220 0.000000
vn 0.999380 -0.035220 0.000000
vn 0.035219 0.999380 0.000000
vn 0.035219 0.999380 0.000000
vn 0.035219 0.999380 0.000000
vn 0.035219 0.999380 0.000000
vn -0.035220 -0.999380 0.000000
vn -0.035220 -0.999380 0.000000
vn -0.035220 -0.999380 0.000000
vn -0.035220 -0.999380 0.000000
vn 0.000000 0.000000 1.000000
vn 0.000000 0.000000 1.000000
vn 0.000000 0.000000 1.000000
vn 0.000000 0.000000 1.000000
vn -1.000000 0.000000 0.000000
vn -1.000000 0.000000 0.000000
vn -1.000000 0.000000 0.000000
vn -1.000000 0.000000 0.000000
vn 0.000000 0.000000 -1.000000
vn 0.000000 0.000000 -1.000000
vn 0.000000 0.000000 -1.000000
vn 0.000000 0.000000 -1.000000
vn 1.000000 0.000000 0.000000
vn 1.000000 0.000000 0.000000
vn 1.000000 0.000000 0.000000
vn 1.000000 0.000000 0.000000
vn 0.000000 1.000000 0.000000
vn 0.000000 1.000000 0.000000
vn 0.000000 1.000000 0.000000
vn 0.000000 1.000000 0.000000
vn 0.000000 -1.000000 0.000000
vn 0.000000 -1.000000 0.000000
vn 0.000000 -1.000000 0.000000
vn 0.000000 -1.000000 0.000000
s off
f 1/1/1 2/2/2 4/4/3 3/3/4
f 3/3/5 4/4/6 6/6/7 5/5/8
f 5/5/9 6/6/10 8/8/11 7/7/12
f 7/7/13 8/8/14 2/10/15 1/9/16
f 2/2/17 8/11/18 6/12/19 4/4/20
f 7/13/21 1/1/22 3/3/23 5/14/24
f 9/15/25 20/16/26 17/17/27 11/18/28
f 11/18/29 17/17/30 18/19/31 13/20/32
f 13/20/33 18/19/34 19/21/35 15/22/36
f 15/22/37 19/21/38 20/23/39 9/24/40
f 10/25/41 16/26/42 14/27/43 12/28/44
f 15/29/45 9/15/46 11/18/47 13/30/48
f 17/17/49 21/31/50 22/32/51 18/19/52
f 19/21/53 18/19/54 22/32/55 23/33/56
f 20/23/57 19/21/58 23/33/59 24/34/60
f 17/17/61 20/16/62 24/35/63 21/31/64
f 21/31/65 12/28/66 14/36/67 22/32/68
f 23/33/69 22/32/70 14/36/71 16/37/72
f 24/34/73 23/33/74 16/37/75 10/38/76
f 21/31/77 24/35/78 10/25/79 12/28/80
f 25/39/81 36/40/82 33/41/83 27/42/84
f 27/42/85 33/41/86 34/43/87 29/44/88
f 29/44/89 34/43/90 35/45/91 31/46/92
f 31/46/93 35/45/94 36/47/95 25/48/96
f 26/49/97 32/50/98 30/51/99 28/52/100
f 31/53/101 25/39/102 27/42/103 29/54/104
f 33/41/105 37/55/106 38/56/107 34/43/108
f 35/45/109 34/43/110 38/56/111 39/57/112
f 36/47/113 35/45/114 39/57/115 40/58/116
f 33/41/117 36/40/118 40/59/119 37/55/120
f 37/55/121 28/52/122 30/60/123 38/56/124
f 39/57/125 38/56/126 30/60/127 32/61/128
f 40/58/129 39/57/130 32/61/131 26/62/132
f 37/55/133 40/59/134 26/49/135 28/52/136
f 41/63/137 42/64/138 44/65/139 43/66/140
f 43/66/141 44/65/142 46/67/143 45/68/144
f 45/68/145 46/67/146 48/69/147 47/70/148
f 47/70/149 48/69/150 42/71/151 41/72/152
f 42/64/153 48/73/154 46/74/155 44/65/156
f 47/75/157 41/63/158 43/66/159 45/76/160
f 49/77/161 61/78/162 62/79/163 51/80/164
f 51/80/165 62/79/166 63/81/167 53/82/168
f 53/82/169 63/81/170 64/83/171 55/84/172
f 55/84/173 64/83/174 61/85/175 49/86/176
f 50/87/177 56/88/178 54/89/179 52/90/180
f 55/91/181 49/77/182 51/80/183 53/92/184
f 57/93/185 52/90/186 54/94/187 58/95/188
f 59/96/189 58/95/190 54/94/191 56/97/192
f 60/98/193 59/96/194 56/97/195 50/99/196
f 57/93/197 60/100/198 50/87/199 52/90/200
f 61/78/201 60/100/202 57/93/203 62/79/204
f 63/81/205 62/79/206 57/93/207 58/95/208
f 64/83/209 63/81/210 58/95/211 59/96/212
f 61/85/213 64/83/214 59/96/215 60/98/216
f 65/101/217 76/102/218 73/103/219 67/104/220
f 67/104/221 73/103/222 74/105/223 69/106/224
f 69/106/225 74/105/226 75/107/227 71/108/228
f 71/108/229 75/107/230 76/109/231 65/110/232
f 66/111/233 72/112/234 70/113/235 68/114/236
f 71/115/237 65/101/238 67/104/239 69/116/240
f 73/103/241 81/117/242 82/118/243 74/105/244
f 75/107/245 74/105/246 82/118/247 83/119/248
f 76/109/249 75/107/250 83/119/251 84/120/252
f 73/103/253 76/102/254 84/121/255 81/117/256
f 77/122/257 68/114/258 70/123/259 78/124/260
f 79/125/261 78/124/262 70/123/263 72/126/264
f 80/127/265 79/125/266 72/126/267 66/128/268
f 77/122/269 80/129/270 66/111/271 68/114/272
f 81/117/273 77/122/274 78/124/275 82/118/276
f 83/119/277 82/118/278 78/124/279 79/125/280
f 84/120/281 83/119/282 79/125/283 80/127/284
f 81/117/285 84/121/286 80/129/287 77/122/288
f 85/130/289 86/131/290 88/132/291 87/133/292
f 87/133/293 88/132/294 90/134/295 89/135/296
f 89/135/297 90/134/298 92/136/299 91/137/300
f 91/137/301 92/136/302 86/138/303 85/139/304
f 86/131/305 92/140/306 90/141/307 88/132/308
f 91/142/309 85/130/310 87/133/311 89/143/312
f 93/144/313 94/145/314 96/146/315 95/147/316
f 95/147/317 96/146/318 98/148/319 97/149/320
f 97/149/321 98/148/322 100/150/323 99/151/324
f 99/151/325 100/150/326 94/152/327 93/153/328
f 94/145/329 100/154/330 98/155/331 96/146/332
f 99/156/333 93/144/334 95/147/335 97/157/336
