# This file uses centimeters as units for non-parametric coordinates.

v 3.993523 1.416876 3.373238
v 3.993523 1.416876 -1.078140
v 3.603760 8.432620 3.376701
v 3.465317 7.820645 -0.685188
v -3.123421 10.237353 2.915306
v -3.123421 9.224961 -1.044189
v -3.957718 1.416876 3.373238
v -3.957718 1.416876 -1.078140
v -0.000061 0.846999 4.903915
v 0.001701 10.441931 4.455009
v 0.001701 8.778214 -2.727913
v -0.000061 0.846999 -2.902763
v 1.761833 13.649992 0.677536
v -5.001709 12.691240 -2.257378
v -0.098419 15.703681 0.940712
v -0.500526 12.255496 -4.449791
v -1.175606 14.000744 5.777184
v -4.949570 13.315524 2.971283
v 2.128426 17.896873 5.236954
v 4.038376 14.636686 6.653160
v 1.092216 15.905614 8.020149
v 4.196434 18.042473 -0.296280
v 6.849442 15.294116 -2.844757
v 2.757088 15.079385 -4.619888
v 6.849442 14.570105 1.755295
v -5.159325 18.163082 -4.920494
v -2.469566 22.238972 -3.033730
v -2.027153 17.859869 -6.446053
v -3.638809 22.573500 5.960167
v -6.607895 19.589756 6.733932
v -4.225784 20.276501 8.486275
v -8.964348 16.806068 -2.215096
v -7.225227 19.306461 -0.301125
v -8.814392 16.943722 0.845085
v 4.773476 14.104920 3.600815
v -1.091240 16.904602 6.100037
v 6.609886 23.824863 7.873833
v 1.647034 24.621300 10.322563
v 7.841438 15.573030 10.756485
v 1.766212 16.547981 13.754005
v 6.094757 13.367925 7.933632
v 0.019531 14.342875 10.931152
v 0.823227 15.299102 -3.384941
v 4.491524 25.171452 -4.398109
v 6.093254 24.836197 3.445869
v 7.817215 19.182573 -8.882957
v 12.870102 19.566395 1.359352
v 5.869728 14.301593 -8.847664
v 11.372719 14.409462 0.799988
v -5.362968 17.161591 -1.274300
v -6.539848 28.565470 -4.356880
v -1.609497 28.625593 -6.114456
v -8.601158 21.309496 -8.738037
v -2.221199 21.408279 -10.802994
v -7.589142 17.619419 -6.030449
v -1.553711 17.693012 -8.181953
v -11.388924 15.617210 3.548927
v -6.539375 18.338001 3.613396
v -14.977211 18.872581 2.560555
v -11.804726 27.165861 3.216377
v -12.929817 18.947235 -3.667000
v -10.132225 27.226843 -1.870903
v -9.191711 15.902513 -3.076035
v -5.172119 16.829159 11.287880
v -6.150887 22.438248 14.305702
v -4.201607 28.464523 9.879890
v -11.635963 22.215981 9.086517
v -7.971741 28.311749 6.292503
v -9.719315 17.795126 7.079025
v 3.278175 20.398947 13.571091
v 7.128662 19.781025 11.671211
v 11.241562 24.166523 -0.441246
v 7.937622 23.670460 -6.893532
v -3.542770 25.921894 -9.798439
v -7.368034 25.875256 -8.434807
v -14.978157 22.927944 1.490448
v -13.680519 22.975256 -2.456619
v -6.931953 26.713835 12.885948
v -10.408409 26.572969 9.577980
v 0.110550 26.211548 7.083809
v 1.531357 25.831234 -2.736778
v -5.226089 26.310211 -0.846962
v -6.560211 26.691574 3.245422
v 2.514114 27.046192 3.294235
v -0.286209 28.268337 5.011284
v 0.519241 28.052742 -0.555977
v -3.689705 28.310490 1.665550
vt 0.177739 0.322980
vt 0.177739 0.322980
vt 0.177739 0.322980
vt 0.177739 0.322980
vt 0.177739 0.322980
vt 0.177739 0.322980
vt 0.177739 0.322980
vt 0.177739 0.322980
vt 0.175864 0.377207
vt 0.175864 0.377207
vt 0.177739 0.322980
vt 0.177739 0.322980
vt 0.177739 0.322980
vt 0.177739 0.322980
vt 0.177739 0.322980
vt 0.175864 0.377207
vt 0.177739 0.322980
vt 0.177739 0.322980
vt 0.177739 0.322980
vt 0.177739 0.322980
vt 0.175864 0.377207
vt 0.177739 0.322980
vt 0.177739 0.322980
vt 0.177739 0.322980
vt 0.177739 0.322980
vt 0.177739 0.322980
vt 0.177739 0.322980
vt 0.177739 0.322980
vt 0.177739 0.322980
vt 0.177739 0.322980
vt 0.177739 0.322980
vt 0.177739 0.322980
vt 0.177739 0.322980
vt 0.177739 0.322980
vt 0.177739 0.322980
vt 0.177739 0.322980
vt 0.177739 0.322980
vt 0.177739 0.322980
vt 0.177739 0.322980
vt 0.177739 0.322980
vt 0.177739 0.322980
vt 0.177739 0.322980
vt 0.177739 0.322980
vt 0.177739 0.322980
vt 0.046822 0.179503
vt 0.046822 0.179503
vt 0.046822 0.179503
vt 0.046822 0.179503
vt 0.046822 0.179503
vt 0.046822 0.179503
vt 0.046822 0.179503
vt 0.046822 0.179503
vt 0.046822 0.179503
vt 0.046822 0.179503
vt 0.046822 0.179503
vt 0.046822 0.179503
vt 0.046822 0.179503
vt 0.046822 0.179503
vt 0.046822 0.179503
vt 0.046822 0.179503
vt 0.046822 0.179503
vt 0.046822 0.179503
vt 0.046822 0.179503
vt 0.046822 0.179503
vt 0.046822 0.179503
vt 0.046822 0.179503
vt 0.046822 0.179503
vt 0.046822 0.179503
vt 0.046822 0.179503
vt 0.046822 0.179503
vt 0.046822 0.179503
vt 0.046822 0.179503
vt 0.046822 0.179503
vt 0.046822 0.179503
vt 0.046822 0.179503
vt 0.046822 0.179503
vt 0.046822 0.179503
vt 0.046822 0.179503
vt 0.046822 0.179503
vt 0.046822 0.179503
vt 0.046822 0.179503
vt 0.046822 0.179503
vt 0.046822 0.179503
vt 0.046822 0.179503
vt 0.046822 0.179503
vt 0.046822 0.179503
vt 0.046822 0.179503
vt 0.046822 0.179503
vt 0.046822 0.179503
vt 0.046822 0.179503
vt 0.046822 0.179503
vt 0.046822 0.179503
vt 0.046822 0.179503
vt 0.046822 0.179503
vt 0.046822 0.179503
vt 0.046822 0.179503
vt 0.046822 0.179503
vt 0.046822 0.179503
vt 0.046822 0.179503
vt 0.046822 0.179503
vt 0.046822 0.179503
vt 0.046822 0.179503
vt 0.046822 0.179503
vt 0.046822 0.179503
vt 0.046822 0.179503
vt 0.046822 0.179503
vt 0.046822 0.179503
vt 0.046822 0.179503
vt 0.046822 0.179503
vt 0.046822 0.179503
vt 0.046822 0.179503
vt 0.046822 0.179503
vt 0.046822 0.179503
vt 0.046822 0.179503
vt 0.046822 0.179503
vt 0.046822 0.179503
vt 0.046822 0.179503
vt 0.046822 0.179503
vt 0.046822 0.179503
vt 0.046822 0.179503
vt 0.046822 0.179503
vt 0.046822 0.179503
vt 0.046822 0.179503
vt 0.046822 0.179503
vt 0.046822 0.179503
vt 0.046822 0.179503
vt 0.046822 0.179503
vt 0.046822 0.179503
vt 0.046822 0.179503
vt 0.046822 0.179503
vt 0.046822 0.179503
vt 0.046822 0.179503
vt 0.046822 0.179503
vt 0.046822 0.179503
vt 0.046822 0.179503
vt 0.046822 0.179503
vt 0.046822 0.179503
vt 0.046822 0.179503
vt 0.046822 0.179503
vt 0.046822 0.179503
vt 0.046822 0.179503
vt 0.046822 0.179503
vt 0.046822 0.179503
vt 0.046822 0.179503
vt 0.046822 0.179503
vt 0.046822 0.179503
vt 0.046822 0.179503
vt 0.046822 0.179503
vt 0.046822 0.179503
vt 0.046822 0.179503
vt 0.046822 0.179503
vt 0.046822 0.179503
vt 0.046822 0.179503
vt 0.046822 0.179503
vt 0.046822 0.179503
vt 0.046822 0.179503
vt 0.046822 0.179503
vt 0.046822 0.179503
vt 0.046822 0.179503
vt 0.046822 0.179503
vt 0.046822 0.179503
vt 0.046822 0.179503
vt 0.046822 0.179503
vt 0.046822 0.179503
vt 0.046822 0.179503
vt 0.046822 0.179503
vt 0.046822 0.179503
vt 0.046822 0.179503
vt 0.046822 0.179503
vt 0.046822 0.179503
vt 0.046822 0.179503
vt 0.046822 0.179503
vt 0.046822 0.179503
vt 0.046822 0.179503
vt 0.046822 0.179503
vt 0.046822 0.179503
vt 0.046822 0.179503
vt 0.175864 0.377207
vt 0.175864 0.377207
vn 0.997402 0.068853 -0.021169
vn 0.997402 0.068853 -0.021169
vn 0.997402 0.068853 -0.021169
vn 0.997402 0.068853 -0.021169
vn -0.994962 0.099534 -0.011981
vn -0.994962 0.099534 -0.011981
vn -0.994962 0.099534 -0.011981
vn -0.994962 0.099534 -0.011981
vn -0.142524 -0.989791 0.000000
vn -0.142524 -0.989791 0.000000
vn -0.142524 -0.989791 0.000000
vn -0.142524 -0.989791 0.000000
vn -0.439522 0.035254 -0.897540
vn -0.439522 0.035254 -0.897540
vn -0.439522 0.035254 -0.897540
vn -0.439522 0.035254 -0.897540
vn -0.394206 0.063046 0.916857
vn -0.394206 0.063046 0.916857
vn -0.394206 0.063046 0.916857
vn -0.394206 0.063046 0.916857
vn 0.330268 0.033011 0.943310
vn 0.330268 0.033011 0.943310
vn 0.330268 0.033011 0.943310
vn 0.330268 0.033011 0.943310
vn 0.461885 0.052033 -0.885412
vn 0.461885 0.052033 -0.885412
vn 0.461885 0.052033 -0.885412
vn 0.461885 0.052033 -0.885412
vn 0.141267 -0.989972 0.000000
vn 0.141267 -0.989972 0.000000
vn 0.141267 -0.989972 0.000000
vn 0.141267 -0.989972 0.000000
vn 0.859205 0.249143 -0.446872
vn 0.859205 0.249143 -0.446872
vn 0.859205 0.249143 -0.446872
vn 0.859205 0.249143 -0.446872
vn -0.442002 -0.473560 -0.761823
vn -0.442002 -0.473560 -0.761823
vn -0.442002 -0.473560 -0.761823
vn -0.442002 -0.473560 -0.761823
vn 0.830195 0.320463 0.456158
vn 0.830195 0.320463 0.456158
vn 0.830195 0.320463 0.456158
vn 0.830195 0.320463 0.456158
vn -0.458979 -0.374952 0.805450
vn -0.458979 -0.374952 0.805450
vn -0.458979 -0.374952 0.805450
vn -0.458979 -0.374952 0.805450
vn -0.873461 -0.478469 0.090186
vn -0.873461 -0.478469 0.090186
vn -0.873461 -0.478469 0.090186
vn -0.873461 -0.478469 0.090186
vn 0.900359 0.214743 -0.378470
vn 0.900359 0.214743 -0.378470
vn 0.900359 0.214743 -0.378470
vn 0.900359 0.214743 -0.378470
vn -0.941988 0.286985 -0.174066
vn -0.941988 0.286985 -0.174066
vn -0.941988 0.286985 -0.174066
vn -0.941988 0.286985 -0.174066
vn 0.064261 -0.511015 0.857166
vn 0.064261 -0.511015 0.857166
vn 0.064261 -0.511015 0.857166
vn 0.064261 -0.511015 0.857166
vn 0.378232 -0.412357 -0.828796
vn 0.378232 -0.412357 -0.828796
vn 0.378232 -0.412357 -0.828796
vn 0.378232 -0.412356 -0.828796
vn -0.904016 0.423885 -0.055466
vn -0.904016 0.423885 -0.055466
vn -0.904016 0.423885 -0.055466
vn -0.904016 0.423885 -0.055466
vn 0.896635 -0.442315 -0.020052
vn 0.896635 -0.442315 -0.020052
vn 0.896635 -0.442315 -0.020052
vn 0.896635 -0.442315 -0.020052
vn -0.255106 0.358896 0.897839
vn -0.255106 0.358896 0.897839
vn -0.255106 0.358896 0.897839
vn -0.255106 0.358896 0.897839
vn -0.683741 0.237441 0.690014
vn -0.683741 0.237441 0.690014
vn -0.683741 0.237441 0.690014
vn -0.683741 0.237441 0.690014
vn 0.958353 0.215583 -0.187304
vn 0.958353 0.215583 -0.187304
vn 0.958353 0.215583 -0.187304
vn 0.958353 0.215583 -0.187304
vn -0.431791 -0.404741 -0.806065
vn -0.431791 -0.404741 -0.806065
vn -0.431791 -0.404741 -0.806065
vn -0.431791 -0.404741 -0.806065
vn -0.510717 0.328776 -0.794402
vn -0.510717 0.328776 -0.794402
vn -0.510717 0.328776 -0.794402
vn -0.510717 0.328776 -0.794402
vn -0.422196 -0.535559 0.731387
vn -0.422196 -0.535559 0.731387
vn -0.422196 -0.535559 0.731387
vn -0.422196 -0.535559 0.731387
vn 0.905104 0.252765 0.341902
vn 0.905104 0.252765 0.341902
vn 0.905104 0.252765 0.341902
vn 0.905104 0.252765 0.341902
vn 0.351974 0.372269 -0.858796
vn 0.351974 0.372269 -0.858796
vn 0.351974 0.372269 -0.858796
vn 0.351974 0.372269 -0.858796
vn -0.711804 -0.697636 0.081484
vn -0.711804 -0.697636 0.081484
vn -0.711804 -0.697636 0.081484
vn -0.711804 -0.697636 0.081484
vn 0.061102 0.496255 0.866024
vn 0.061102 0.496255 0.866024
vn 0.061102 0.496255 0.866024
vn 0.061102 0.496255 0.866024
vn 0.417617 0.649887 0.635014
vn 0.417617 0.649887 0.635014
vn 0.417617 0.649887 0.635014
vn 0.417617 0.649887 0.635014
vn 0.141433 -0.820696 0.553583
vn 0.141433 -0.820696 0.553583
vn 0.141433 -0.820696 0.553583
vn 0.141433 -0.820696 0.553583
vn -0.384844 -0.896259 -0.220489
vn -0.384844 -0.896259 -0.220489
vn -0.384844 -0.896259 -0.220489
vn -0.384844 -0.896259 -0.220489
vn 0.190477 0.978717 -0.076370
vn 0.190477 0.978717 -0.076370
vn 0.190477 0.978717 -0.076370
vn 0.190477 0.978717 -0.076370
vn 0.853357 -0.269563 -0.446225
vn 0.853358 -0.269563 -0.446225
vn 0.853358 -0.269563 -0.446225
vn 0.853357 -0.269563 -0.446225
vn -0.075195 -0.996918 -0.022372
vn -0.075195 -0.996918 -0.022372
vn -0.075195 -0.996918 -0.022372
vn -0.075195 -0.996918 -0.022372
vn -0.192973 0.836593 -0.512712
vn -0.192973 0.836593 -0.512712
vn -0.192973 0.836593 -0.512712
vn -0.192973 0.836593 -0.512712
vn -0.249208 -0.602248 -0.758415
vn -0.249208 -0.602248 -0.758415
vn -0.249208 -0.602248 -0.758415
vn -0.249208 -0.602248 -0.758415
vn -0.205956 -0.960437 -0.187464
vn -0.205956 -0.960437 -0.187464
vn -0.205956 -0.960437 -0.187464
vn -0.205956 -0.960437 -0.187464
vn -0.730707 0.641869 -0.232534
vn -0.730707 0.641869 -0.232534
vn -0.730707 0.641869 -0.232534
vn -0.730707 0.641869 -0.232534
vn 0.377563 -0.908135 0.180932
vn 0.377563 -0.908135 0.180932
vn 0.377563 -0.908135 0.180932
vn 0.377563 -0.908135 0.180932
vn -0.607762 -0.762437 -0.222070
vn -0.607762 -0.762437 -0.222070
vn -0.607762 -0.762437 -0.222070
vn -0.607762 -0.762437 -0.222070
vn -0.292738 0.917701 0.268569
vn -0.292738 0.917701 0.268569
vn -0.292738 0.917701 0.268569
vn -0.292738 0.917701 0.268569
vn -0.120317 -0.977927 -0.170830
vn -0.120317 -0.977927 -0.170830
vn -0.120317 -0.977927 -0.170830
vn -0.120317 -0.977927 -0.170830
vn -0.616807 -0.487631 0.617872
vn -0.616806 -0.487631 0.617872
vn -0.616807 -0.487631 0.617872
vn -0.616807 -0.487631 0.617872
vn -0.805461 0.441458 0.395407
vn -0.805461 0.441458 0.395407
vn -0.805461 0.441458 0.395407
vn -0.805461 0.441458 0.395407
vn 0.464468 -0.834870 0.295402
vn 0.464468 -0.834870 0.295402
vn 0.464468 -0.834870 0.295402
vn -0.615503 -0.520027 0.592223
vn -0.615503 -0.520027 0.592223
vn -0.615503 -0.520027 0.592223
vn -0.615503 -0.520027 0.592223
vn 0.415573 -0.866072 -0.277882
vn 0.415573 -0.866072 -0.277882
vn 0.415573 -0.866072 -0.277882
vn -0.719060 0.439078 -0.538668
vn -0.719060 0.439078 -0.538668
vn -0.719060 0.439078 -0.538668
vn -0.719060 0.439078 -0.538668
vn -0.440445 -0.625890 -0.643638
vn -0.440445 -0.625890 -0.643638
vn -0.440445 -0.625890 -0.643638
vn -0.440445 -0.625890 -0.643639
vn -0.421413 -0.877459 -0.229078
vn -0.421413 -0.877459 -0.229078
vn -0.421413 -0.877459 -0.229078
vn 0.367922 0.580299 -0.726558
vn 0.367922 0.580299 -0.726558
vn 0.367922 0.580299 -0.726558
vn 0.367922 0.580299 -0.726558
vn -0.025157 -0.291722 -0.956172
vn -0.025157 -0.291722 -0.956172
vn -0.025157 -0.291722 -0.956172
vn -0.025157 -0.291722 -0.956172
vn -0.022753 -0.986709 -0.160897
vn -0.022753 -0.986709 -0.160897
vn -0.022753 -0.986709 -0.160897
vn 0.792789 -0.505667 0.340274
vn 0.792789 -0.505667 0.340274
vn 0.792789 -0.505667 0.340274
vn 0.792789 -0.505667 0.340274
vn 0.630079 0.769764 0.102297
vn 0.630079 0.769764 0.102297
vn 0.630079 0.769764 0.102297
vn -0.424473 -0.836696 -0.346068
vn -0.424473 -0.836696 -0.346068
vn -0.424473 -0.836696 -0.346068
vn 0.311700 0.431343 0.846632
vn 0.311700 0.431343 0.846632
vn 0.311700 0.431343 0.846632
vn 0.311700 0.431343 0.846632
vn -0.298981 -0.552280 0.778201
vn -0.298981 -0.552280 0.778201
vn -0.298981 -0.552280 0.778201
vn -0.298981 -0.552280 0.778201
vn -0.650755 0.288852 0.702198
vn -0.650755 0.288852 0.702198
vn -0.650755 0.288852 0.702198
vn 0.423085 -0.123468 0.897638
vn 0.423085 -0.123468 0.897638
vn 0.423085 -0.123468 0.897638
vn 0.423085 -0.123468 0.897638
vn 0.986577 0.159491 0.035062
vn 0.986577 0.159491 0.035062
vn 0.986577 0.159491 0.035062
vn 0.570819 0.466546 0.675648
vn 0.570819 0.466546 0.675648
vn 0.570819 0.466546 0.675648
vn 0.880062 0.155368 -0.448722
vn 0.880062 0.155368 -0.448722
vn 0.880062 0.155368 -0.448722
vn 0.880062 0.155368 -0.448722
vn -0.430791 0.375358 -0.820686
vn -0.430791 0.375358 -0.820686
vn -0.430791 0.375358 -0.820686
vn 0.703383 0.344344 -0.621836
vn 0.703383 0.344344 -0.621836
vn 0.703382 0.344344 -0.621836
vn -0.317369 0.132168 -0.939047
vn -0.317369 0.132168 -0.939047
vn -0.317369 0.132168 -0.939047
vn -0.317369 0.132168 -0.939047
vn -0.965523 0.259098 0.025161
vn -0.965523 0.259098 0.025161
vn -0.965523 0.259098 0.025161
vn -0.654802 0.192693 0.730824
vn -0.654802 0.192693 0.730824
vn -0.654802 0.192693 0.730824
vn -0.152057 0.258333 -0.954014
vn -0.152057 0.258333 -0.954014
vn -0.152057 0.258333 -0.954014
vn -0.946438 -0.082589 -0.312143
vn -0.946438 -0.082589 -0.312143
vn -0.946438 -0.082589 -0.312143
vn -0.946438 -0.082589 -0.312143
vn 0.582925 0.349985 0.733287
vn 0.582925 0.349985 0.733287
vn 0.582925 0.349985 0.733287
vn -0.835787 0.288193 -0.467339
vn -0.835787 0.288193 -0.467339
vn -0.835787 0.288193 -0.467339
vn -0.687332 0.112710 0.717545
vn -0.687332 0.112710 0.717545
vn -0.687332 0.112710 0.717545
vn -0.687332 0.112710 0.717545
vn 0.310761 0.922303 0.229749
vn 0.310761 0.922303 0.229749
vn 0.310761 0.922303 0.229749
vn 0.310761 0.922303 0.229749
vn 0.216249 0.976335 -0.002429
vn 0.216249 0.976335 -0.002429
vn 0.216249 0.976335 -0.002429
vn 0.186262 0.845924 0.499719
vn 0.186262 0.845924 0.499719
vn 0.186262 0.845924 0.499719
vn 0.186262 0.845924 0.499719
vn 0.134779 0.990830 0.009563
vn 0.134779 0.990830 0.009563
vn 0.134779 0.990830 0.009563
vn 0.134779 0.990830 0.009563
vn -0.325346 -0.939703 0.105397
vn -0.325346 -0.939703 0.105397
vn -0.325346 -0.939703 0.105397
vn -0.325346 -0.939703 0.105397
vn -0.325346 -0.939703 0.105397
vn 0.267559 0.902908 -0.336406
vn 0.267559 0.902908 -0.336406
vn 0.267559 0.902908 -0.336406
vn 0.267559 0.902908 -0.336406
vn 0.083395 0.895369 -0.437447
vn 0.083395 0.895369 -0.437447
vn 0.083395 0.895369 -0.437447
vn 0.048533 0.848473 0.527009
vn 0.048533 0.848473 0.527009
vn 0.048533 0.848473 0.527009
vn 0.385795 0.854395 0.348098
vn 0.385795 0.854395 0.348098
vn 0.385795 0.854394 0.348098
vn 0.534370 0.831006 0.154521
vn 0.534370 0.831006 0.154521
vn 0.534370 0.831006 0.154521
vn 0.201879 0.979372 -0.008720
vn 0.201879 0.979372 -0.008720
vn 0.201879 0.979372 -0.008720
vn 0.201879 0.979372 -0.008720
vn 0.504214 0.719103 0.478182
vn 0.504214 0.719103 0.478182
vn 0.504214 0.719103 0.478182
vn 0.504214 0.719103 0.478182
vn 0.612604 0.749537 -0.250820
vn 0.612604 0.749537 -0.250820
vn 0.612604 0.749537 -0.250820
vn 0.612604 0.749537 -0.250820
vn -0.191866 0.740215 -0.644414
vn -0.191866 0.740215 -0.644414
vn -0.191866 0.740215 -0.644414
vn -0.191866 0.740215 -0.644414
vn -0.579143 0.772391 -0.260779
vn -0.579143 0.772391 -0.260779
vn -0.579143 0.772391 -0.260779
vn -0.344881 0.768142 0.539458
vn -0.344881 0.768142 0.539458
vn -0.344881 0.768142 0.539458
vn -0.344881 0.768142 0.539458
vn 0.778517 0.307352 0.547217
vn 0.778517 0.307352 0.547217
vn 0.778517 0.307352 0.547217
s off
f 1/1/1 2/2/2 4/4/3 3/3/4
f 5/5/5 6/6/6 8/8/7 7/7/8
f 7/9/9 8/10/10 12/16/11 9/21/12
f 11/20/13 12/22/14 8/11/15 6/12/16
f 7/13/17 9/15/18 10/17/19 5/14/20
f 10/17/21 9/15/22 1/1/23 3/3/24
f 2/2/25 12/22/26 11/20/27 4/4/28
f 9/21/29 12/16/30 2/178/31 1/179/32
f 13/23/33 11/19/34 16/25/35 15/24/36
f 11/19/37 6/6/38 14/26/39 16/25/40
f 10/18/41 13/23/42 15/24/43 17/27/44
f 5/5/45 10/18/46 17/27/47 18/28/48
f 6/6/49 5/5/50 18/28/51 14/26/52
f 3/3/53 13/23/54 19/30/55 20/29/56
f 13/23/57 10/18/58 21/31/59 19/30/60
f 10/18/61 3/3/62 20/29/63 21/31/64
f 4/4/65 11/19/66 24/33/67 23/32/68
f 11/19/69 13/23/70 22/34/71 24/33/72
f 3/3/73 4/4/74 23/32/75 25/35/76
f 13/23/77 3/3/78 25/35/79 22/34/80
f 14/26/81 15/24/82 27/37/83 26/36/84
f 15/24/85 16/25/86 28/38/87 27/37/88
f 16/25/89 14/26/90 26/36/91 28/38/92
f 15/24/93 18/28/94 30/40/95 29/39/96
f 18/28/97 17/27/98 31/41/99 30/40/100
f 17/27/101 15/24/102 29/39/103 31/41/104
f 15/24/105 14/26/106 32/43/107 33/42/108
f 14/26/109 18/28/110 34/44/111 32/43/112
f 18/28/113 15/24/114 33/42/115 34/44/116
f 37/45/117 38/46/118 70/47/119 71/48/120
f 39/49/121 40/50/122 42/51/123 41/52/124
f 41/53/125 42/54/126 36/55/127 35/56/128
f 44/57/129 45/58/130 72/59/131 73/60/132
f 46/61/133 47/62/134 49/63/135 48/64/136
f 48/65/137 49/66/138 35/67/139 43/68/140
f 51/69/141 52/70/142 74/71/143 75/72/144
f 53/73/145 54/74/146 56/75/147 55/76/148
f 55/77/149 56/78/150 43/79/151 50/80/152
f 76/81/153 60/82/154 62/83/155 77/84/156
f 63/85/157 50/86/158 58/87/159 57/88/160
f 63/89/161 57/90/162 59/91/163 61/92/164
f 78/93/165 66/94/166 68/95/167 79/96/168
f 69/97/169 58/98/170 36/99/171 64/100/172
f 69/101/173 64/102/174 65/103/175 67/104/176
f 67/105/177 68/106/178 60/107/179 59/108/180
f 58/109/181 69/110/182 57/111/183
f 69/110/184 67/105/185 59/108/186 57/111/187
f 55/112/188 50/113/189 63/114/190
f 51/115/191 53/116/192 61/117/193 62/118/194
f 53/116/195 55/112/196 63/114/197 61/117/198
f 48/119/199 43/120/200 56/121/201
f 44/122/202 46/123/203 54/124/204 52/125/205
f 46/123/206 48/119/207 56/121/208 54/124/209
f 35/126/210 49/127/211 41/128/212
f 49/127/213 47/129/214 39/130/215 41/128/216
f 47/129/217 45/131/218 37/132/219
f 64/133/220 36/134/221 42/135/222
f 66/136/223 65/137/224 40/138/225 38/139/226
f 65/137/227 64/133/228 42/135/229 40/138/230
f 38/46/231 40/140/232 70/47/233
f 40/140/234 39/141/235 71/48/236 70/47/237
f 39/141/238 37/45/239 71/48/240
f 45/58/241 47/142/242 72/59/243
f 47/142/244 46/143/245 73/60/246 72/59/247
f 46/143/248 44/57/249 73/60/250
f 52/70/251 54/144/252 74/71/253
f 54/144/254 53/145/255 75/72/256 74/71/257
f 53/145/258 51/69/259 75/72/260
f 59/146/261 60/82/262 76/81/263
f 62/83/264 61/147/265 77/84/266
f 61/147/267 59/146/268 76/81/269 77/84/270
f 65/148/271 66/94/272 78/93/273
f 68/95/274 67/149/275 79/96/276
f 67/149/277 65/148/278 78/93/279 79/96/280
f 38/150/281 37/151/282 45/152/283 80/153/284
f 45/154/285 44/155/286 81/156/287
f 52/157/288 51/158/289 82/159/290 81/160/291
f 62/161/292 60/162/293 83/163/294 82/164/295
f 36/165/296 58/166/297 50/167/298 43/168/299 35/169/300
f 68/170/301 66/171/302 80/172/303 83/173/304
f 60/107/305 68/106/306 83/173/307
f 51/115/308 62/118/309 82/164/310
f 44/122/311 52/125/312 81/160/313
f 66/136/314 38/139/315 80/153/316
f 85/174/317 84/175/318 86/176/319 87/177/320
f 80/153/321 45/154/322 84/175/323 85/174/324
f 45/154/325 81/160/326 86/176/327 84/175/328
f 81/160/329 82/164/330 87/177/331 86/176/332
f 82/164/333 83/173/334 87/177/335
f 83/173/336 80/153/337 85/174/338 87/177/339
f 47/129/340 37/132/341 39/130/342
